<svg width="16" height="16" viewBox="0 0 16 16" fill="none" xmlns="http://www.w3.org/2000/svg">
    <g clip-path="url(#clip0_3215_137988)">
        <path d="M12.938 6.35937C12.624 6.51269 12.2818 6.64086 11.9177 6.73717C11.8907 6.74438 11.8636 6.75109 11.8365 6.75792C11.0575 6.95263 10.2966 6.97069 9.64122 6.84166C8.65075 6.64611 7.90185 6.11413 7.69836 5.34533C7.4298 4.33081 8.18981 3.20544 9.48742 2.51221C9.65233 2.42444 9.78893 2.29785 9.88829 2.14612C9.98741 1.99512 10.0493 1.81897 10.0644 1.63294C10.1146 1.01783 9.67455 0.470221 9.06237 0.389045C8.22326 0.277229 7.00549 0.22071 5.8031 0.539069C1.7638 1.6084 -0.625228 5.85766 0.389173 9.91099C1.44581 14.1328 5.7489 16.6611 9.94213 15.5453C13.3861 14.629 15.6909 11.4974 15.7229 8.0819C15.7231 8.05455 15.7225 8.02428 15.7207 7.99083C15.6454 6.61632 14.1753 5.75524 12.938 6.35937ZM12.6073 11.1056C12.0047 11.2651 11.3876 10.9064 11.2283 10.3042C11.0687 9.70164 11.4275 9.08446 12.03 8.92503C12.6322 8.76561 13.2494 9.12437 13.4088 9.72691C13.5682 10.329 13.2095 10.9461 12.6073 11.1056Z" fill="#D9E3FF"/>
        <path d="M10.5886 12.8223C10.5886 13.5832 9.9718 14.2001 9.21081 14.2001C8.44983 14.2001 7.83301 13.5832 7.83301 12.8223C7.83301 12.0613 8.44983 11.4443 9.21081 11.4443C9.9718 11.4443 10.5886 12.0613 10.5886 12.8223Z" fill="#8BAAFF"/>
        <path d="M6.71716 11.8633C6.71716 12.6243 6.10021 13.2411 5.33935 13.2411C4.57837 13.2411 3.96143 12.6243 3.96143 11.8633C3.96143 11.1023 4.57837 10.4854 5.33935 10.4854C6.10021 10.4854 6.71716 11.1023 6.71716 11.8633Z" fill="#10B981"/>
        <path d="M4.42712 8.50195C4.42712 9.26293 3.8103 9.87975 3.04931 9.87975C2.28833 9.87975 1.67139 9.26293 1.67139 8.50195C1.67139 7.74097 2.28833 7.12402 3.04931 7.12402C3.8103 7.12402 4.42712 7.74097 4.42712 8.50195Z" fill="#FA70B2"/>
        <path d="M5.57751 4.61901C5.57751 5.38 4.96057 5.99694 4.19958 5.99694C3.4386 5.99694 2.82178 5.38 2.82178 4.61901C2.82178 3.85803 3.4386 3.24121 4.19958 3.24121C4.96057 3.24121 5.57751 3.85803 5.57751 4.61901Z" fill="#FFBD14"/>
        <path d="M14.8962 6.27112L14.6645 9.24279L14.1726 15.5484C14.1628 15.6758 14.0775 15.7889 13.9467 15.8702C13.816 15.9515 13.6389 16.0007 13.4453 15.9999C13.0582 15.9983 12.7399 15.7968 12.7223 15.5423L12.2834 9.23278L12.0767 6.25928L14.8962 6.27112Z" fill="#FFBD14"/>
        <path d="M13.7949 15.9422C13.5399 15.8735 13.3566 15.7119 13.3431 15.5204L12.8718 6.2627L12.0767 6.25928L12.2836 9.23266L12.7223 15.5422C12.7399 15.7967 13.0583 15.9981 13.4453 15.9997C13.5717 16.0003 13.6913 15.9796 13.7949 15.9422Z" fill="#FFBD14"/>
        <path d="M14.6642 9.24279L14.8959 6.27112L12.8715 6.2627L12.0762 6.25928L12.2832 9.23278L13.0228 9.23583L14.6642 9.24279Z" fill="#495A7C"/>
        <path d="M12.0764 6.2595C10.7862 5.67955 10.6507 3.73986 11.8046 2.59557C12.9585 1.45129 13.4641 0.772947 13.4673 0C13.4673 0 17.6261 4.25914 14.8961 6.27135L12.0764 6.2595Z" fill="#FA70B2"/>
        <path d="M13.2439 6.26427L12.0764 6.25938C10.7862 5.67931 10.6506 3.73961 11.8045 2.59582C12.9586 1.45141 13.4641 0.772825 13.4673 0C13.8849 2.30126 11.5688 3.66417 13.2439 6.26427Z" fill="#DF0000"/>
        <path d="M13.0228 9.23583L12.8715 6.2627L12.0762 6.25928L12.2832 9.23278L13.0228 9.23583Z" fill="#2D3748"/>
    </g>
    <defs>
        <clipPath id="clip0_3215_137988">
            <rect width="16" height="16" fill="white"/>
        </clipPath>
    </defs>
</svg>
