<svg width="16" height="16" viewBox="0 0 16 16" fill="none" xmlns="http://www.w3.org/2000/svg">
    <g clip-path="url(#clip0_3215_137972)">
        <path d="M4.92456 8.31884C4.91442 8.31884 4.90429 8.31847 4.89404 8.31786L0.489007 8.04284C0.321404 8.03246 0.171014 7.93664 0.0906913 7.7893C0.0104911 7.64196 0.0114676 7.46361 0.0934989 7.31713C0.11657 7.27587 0.671746 6.29699 1.729 5.44323C3.15771 4.28966 4.8186 3.91552 6.53198 4.36132C6.67419 4.39831 6.79211 4.49743 6.85315 4.63109C6.91418 4.76476 6.91174 4.91881 6.84643 5.05041L5.36193 8.04736C5.27917 8.21435 5.10913 8.31884 4.92456 8.31884Z" fill="#DC491C"/>
        <path d="M8.47592 15.9998C8.3956 15.9998 8.31528 15.98 8.2424 15.9402C8.09506 15.8599 7.99924 15.7096 7.98874 15.542L7.71384 11.137C7.70163 10.9408 7.8082 10.7564 7.98435 10.6691L10.9813 9.18448C11.113 9.11929 11.2669 9.11685 11.4006 9.17789C11.5344 9.2388 11.6334 9.35684 11.6704 9.49905C12.1163 11.2124 11.7422 12.8733 10.5885 14.302C9.73484 15.3593 8.75583 15.9143 8.71457 15.9375C8.64047 15.979 8.5582 15.9998 8.47592 15.9998Z" fill="#DC491C"/>
        <path d="M15.2483 3.93933L12.0921 0.783079C11.9656 0.656614 11.7801 0.609495 11.6086 0.660154C9.49564 1.28515 7.76115 2.26538 6.45292 3.57349C6.18009 3.84643 5.91801 4.14221 5.67411 4.45251C4.96488 5.35425 4.37247 6.42041 3.91349 7.62146C3.62113 8.38696 3.38309 9.20703 3.20597 10.0588C2.89664 11.5468 2.88004 12.6132 2.87943 12.6578C2.87784 12.7893 2.92936 12.916 3.02237 13.009C3.11393 13.1006 3.23819 13.152 3.36759 13.152H3.37357C3.41837 13.1515 4.48478 13.1349 5.97257 12.8256C6.82438 12.6484 7.64445 12.4104 8.41007 12.1179C9.611 11.6589 10.6772 11.0667 11.5787 10.3575C11.8892 10.1135 12.185 9.85144 12.4579 9.57849C13.7662 8.27026 14.7464 6.53577 15.3713 4.42285C15.422 4.25134 15.3748 4.06579 15.2483 3.93933Z" fill="#D9E3FF"/>
        <path d="M6.30571 12.0902L3.94096 9.72547C3.7664 9.55091 3.48893 9.53418 3.2946 9.68653C3.1436 9.80493 2.99992 9.93213 2.8676 10.0645C1.22221 11.7098 1.17131 14.2593 1.16996 14.3669C1.16825 14.4985 1.21977 14.6252 1.31291 14.7183C1.40446 14.8099 1.52861 14.8613 1.658 14.8613C1.66008 14.8613 1.66215 14.8613 1.66423 14.8612C1.77189 14.8599 4.32145 14.809 5.96672 13.1636C6.09904 13.0313 6.22624 12.8876 6.34465 12.7366C6.49699 12.5422 6.48027 12.2648 6.30571 12.0902Z" fill="#FFF261"/>
        <path d="M3.95081 7.52393L2.5 8.97485C2.40845 9.06629 2.35693 9.19043 2.35693 9.31995C2.35693 9.44934 2.40845 9.57349 2.5 9.66504L6.36609 13.5311C6.45752 13.6227 6.58167 13.6741 6.71118 13.6741C6.8407 13.6741 6.96472 13.6227 7.05628 13.5311L8.50708 12.0803L3.95081 7.52393Z" fill="#2D3748"/>
        <path d="M10.2843 7.23596C9.8866 7.23596 9.51257 7.08106 9.23132 6.79981C8.65076 6.21924 8.65076 5.27466 9.23132 4.69397C9.51257 4.41272 9.8866 4.25781 10.2843 4.25781C10.682 4.25781 11.056 4.41272 11.3373 4.69397C11.6185 4.97522 11.7734 5.34912 11.7734 5.74695C11.7734 6.14465 11.6185 6.51856 11.3373 6.79981C11.056 7.08106 10.682 7.23596 10.2843 7.23596Z" fill="#8BAAFF"/>
        <path d="M10.2843 7.71362C9.759 7.71362 9.26523 7.50903 8.89389 7.1377C8.12717 6.37097 8.12717 5.12341 8.89389 4.35669C9.26523 3.98535 9.75913 3.78076 10.2843 3.78076C10.8095 3.78076 11.3033 3.98535 11.6748 4.35669C12.0462 4.72815 12.2507 5.22192 12.2507 5.74719C12.2507 6.27246 12.0462 6.76624 11.6748 7.1377C11.3033 7.50903 10.8095 7.71362 10.2843 7.71362ZM10.2843 4.75696C10.0199 4.75696 9.77109 4.85999 9.58408 5.047C9.19809 5.43311 9.19809 6.06128 9.58408 6.44739C9.77109 6.6344 10.0199 6.73743 10.2843 6.73743C10.5488 6.73743 10.7975 6.6344 10.9845 6.44739C11.1715 6.26038 11.2745 6.01172 11.2745 5.74719C11.2745 5.48267 11.1715 5.23401 10.9845 5.047C10.7975 4.85999 10.5488 4.75696 10.2843 4.75696Z" fill="#2D3748"/>
        <path d="M15.8883 0.143034C15.7952 0.0498946 15.6677 -0.00247358 15.5369 8.99024e-05C15.4645 0.000944395 13.739 0.0299971 11.6084 0.660124L15.3711 4.42282C16.0012 2.29221 16.0303 0.566741 16.0311 0.494353C16.0328 0.362761 15.9813 0.236052 15.8883 0.143034Z" fill="#DC491C"/>
        <path d="M15.2479 3.93945L13.6698 2.36133L3.02197 13.0092C3.11353 13.1007 3.23767 13.1521 3.36707 13.1521H3.37317C3.41785 13.1516 4.48425 13.135 5.97217 12.8257C6.82398 12.6486 7.64392 12.4105 8.40955 12.118C9.6106 11.6591 10.6768 11.0668 11.5782 10.3577C11.8887 10.1137 12.1846 9.85157 12.4574 9.57862C13.7656 8.27039 14.7459 6.53589 15.3707 4.42297C15.4216 4.25147 15.3744 4.06592 15.2479 3.93945Z" fill="#F9FBFF"/>
        <path d="M6.30591 12.0901L5.12354 10.9077L1.31299 14.7181V14.7183C1.40466 14.8098 1.52881 14.8612 1.6582 14.8612H1.66431C1.77209 14.8599 4.32154 14.8088 5.96692 13.1635C6.09925 13.0311 6.22644 12.8875 6.34473 12.7365C6.4972 12.5421 6.48059 12.2646 6.30591 12.0901Z" fill="#FFBD14"/>
        <path d="M6.22913 9.80225L4.43311 11.5983L6.36621 13.5314C6.45764 13.6228 6.58179 13.6743 6.7113 13.6743C6.84082 13.6743 6.96484 13.6228 7.0564 13.5314L8.5072 12.0804L6.22913 9.80225Z" fill="#1A202C"/>
        <path d="M11.3374 4.69385C11.3373 4.69385 11.3373 4.69385 11.3373 4.69385L9.23145 6.79968H9.23157C9.5127 7.08093 9.88672 7.23584 10.2844 7.23584C10.6821 7.23584 11.0562 7.08093 11.3374 6.79968C11.6187 6.51843 11.7736 6.14453 11.7736 5.74683C11.7734 5.34912 11.6187 4.9751 11.3374 4.69385Z" fill="#8BAAFF"/>
        <path d="M11.675 4.35645L10.9847 5.04675C11.1718 5.23377 11.2748 5.48242 11.2748 5.74695C11.2748 6.01148 11.1718 6.26013 10.9847 6.44714C10.7977 6.63416 10.5491 6.73718 10.2845 6.73718C10.02 6.73718 9.77136 6.63416 9.58435 6.44714C9.58435 6.44714 9.58435 6.44714 9.58435 6.44702L8.89404 7.13733V7.13745C9.2655 7.50879 9.75928 7.71338 10.2845 7.71338C10.8098 7.71338 11.3036 7.50879 11.675 7.13745C12.0464 6.76599 12.251 6.27222 12.251 5.74695C12.251 5.22168 12.0464 4.72791 11.675 4.35645Z" fill="#1A202C"/>
        <path d="M15.8882 0.143066L13.4897 2.54163L15.3711 4.42298C16.0012 2.29236 16.0303 0.566895 16.0311 0.494507C16.0328 0.362915 15.9813 0.236206 15.8882 0.143066Z" fill="#DC491C"/>
    </g>
    <defs>
        <clipPath id="clip0_3215_137972">
            <rect width="16" height="16" fill="white"/>
        </clipPath>
    </defs>
</svg>
