<svg width="16" height="16" viewBox="0 0 16 16" fill="none" xmlns="http://www.w3.org/2000/svg">
    <g clip-path="url(#clip0_3215_137919)">
        <path d="M2.47168 5.52847C2.47168 2.48006 4.95174 0 8.00015 0C11.0486 0 13.5286 2.48006 13.5286 5.52847H2.47168Z" fill="#495A7C"/>
        <path d="M2.47168 5.52837H4.4229V3.57715H2.82762C2.59787 4.18421 2.47168 4.84177 2.47168 5.52837Z" fill="#495A7C"/>
        <path d="M7.99986 0C7.89617 0 7.7932 0.003125 7.69092 0.00878125C9.70104 0.120063 11.4282 1.31006 12.3017 3.00816C12.4353 3.26794 12.2466 3.57725 11.9545 3.57725H11.5771V5.52847H13.5283C13.5283 2.48006 11.0483 0 7.99986 0Z" fill="#495A7C"/>
        <path d="M1.76318 9.43076H2.11381V5.52832H1.76318C1.418 5.52832 1.13818 5.80813 1.13818 6.15332V8.80576C1.13818 9.15091 1.418 9.43076 1.76318 9.43076Z" fill="#495A7C"/>
        <path d="M2.73877 10.7316H3.7723V4.22754H2.73877C2.39358 4.22754 2.11377 4.50735 2.11377 4.85254V10.1066C2.11377 10.4518 2.39361 10.7316 2.73877 10.7316Z" fill="#CBD5E0"/>
        <path d="M14.2369 9.43076H13.8862V5.52832H14.2369C14.582 5.52832 14.8619 5.80813 14.8619 6.15332V8.80576C14.8619 9.15091 14.582 9.43076 14.2369 9.43076Z" fill="#495A7C"/>
        <path d="M13.2611 10.7316H12.2275V4.22754H13.2611C13.6063 4.22754 13.8861 4.50735 13.8861 4.85254V10.1066C13.8861 10.4518 13.6062 10.7316 13.2611 10.7316Z" fill="#CBD5E0"/>
        <path d="M6.27637 13.7559V15.6873C6.27637 15.8599 6.41627 15.9998 6.58887 15.9998H9.41102C9.58362 15.9998 9.72352 15.8599 9.72352 15.6873V13.7559H6.27637Z" fill="#FFE7E3"/>
        <path d="M6.27637 14.8279C6.81605 15.018 7.39609 15.1217 7.99993 15.1217C8.60377 15.1217 9.1838 15.018 9.72349 14.8279V13.7559H6.27637V14.8279Z" fill="#FFE7E3"/>
        <path d="M8.00011 1.26807C5.48564 1.26807 3.44727 3.30644 3.44727 5.82091V9.91847C3.44727 12.4329 5.48564 14.4713 8.00011 14.4713C10.5146 14.4713 12.553 12.4329 12.553 9.91847V5.82091C12.553 3.30644 10.5146 1.26807 8.00011 1.26807Z" fill="#FFE7E3"/>
        <path d="M7.99997 1.26807C7.81841 1.26807 7.63941 1.27904 7.46338 1.29969C9.72491 1.56525 11.4796 3.488 11.4796 5.82091V9.91847C11.4796 12.2514 9.72491 14.1741 7.46338 14.4397C7.63941 14.4603 7.81838 14.4713 7.99997 14.4713C10.5144 14.4713 12.5528 12.4329 12.5528 9.91847V5.82091C12.5528 3.30644 10.5144 1.26807 7.99997 1.26807Z" fill="#FFE7E3"/>
        <path d="M9.30084 1.45697C8.88863 1.33429 8.45209 1.26807 8.00003 1.26807C7.54797 1.26807 7.11144 1.33429 6.69922 1.45697V2.9266H9.30084V1.45697Z" fill="#495A7C"/>
        <path d="M9.95127 3.57716V4.55279H6.04883V3.57716C6.04883 3.21795 6.34002 2.92676 6.69923 2.92676H9.30086C9.66008 2.92676 9.95127 3.21795 9.95127 3.57716Z" fill="#CBD5E0"/>
        <path d="M8.0001 4.55273H11.7399C12.4583 4.55273 13.0408 5.13514 13.0408 5.85355V9.10558C13.0408 9.82398 12.4583 10.4064 11.7399 10.4064H10.3053C9.90144 10.4064 9.5031 10.3124 9.14185 10.1317L8.58185 9.85173C8.21563 9.66864 7.78457 9.66864 7.41838 9.85173L6.85838 10.1317C6.49713 10.3124 6.09878 10.4064 5.69491 10.4064H4.26029C3.54188 10.4064 2.95947 9.82398 2.95947 9.10558V5.85355C2.95947 5.13514 3.54188 4.55273 4.26029 4.55273H8.0001Z" fill="#495A7C"/>
        <path d="M9.95127 4.06494H8.00005H6.04883V4.55275H9.95127V4.06494Z" fill="#5A6F99"/>
        <path d="M11.7399 4.55273H11.1546C11.873 4.55273 12.4554 5.13514 12.4554 5.85355V9.23567C12.4554 9.59489 12.1642 9.88608 11.805 9.88608H10.3053C9.90144 9.88608 9.5031 9.79205 9.14185 9.61142L8.58185 9.33142C8.21563 9.14833 7.78457 9.14833 7.41838 9.33142L6.85838 9.61142C6.49713 9.79205 6.09878 9.88608 5.69491 9.88608H4.26029C3.54188 9.88608 2.95947 9.30367 2.95947 8.58527V9.10558C2.95947 9.82398 3.54188 10.4064 4.26029 10.4064H5.69491C6.09878 10.4064 6.49713 10.3124 6.85838 10.1317L7.41838 9.85173C7.7846 9.66864 8.21566 9.66864 8.58185 9.85173L9.14185 10.1317C9.5031 10.3124 9.90144 10.4064 10.3053 10.4064H11.1546H11.7399C12.4583 10.4064 13.0408 9.82398 13.0408 9.10558V5.85355C13.0408 5.13514 12.4583 4.55273 11.7399 4.55273Z" fill="#495A7C"/>
        <path d="M8.83209 6.37406H7.16797C6.90909 6.37406 6.69922 6.16419 6.69922 5.90531V5.86719C6.69922 5.60831 6.90909 5.39844 7.16797 5.39844H8.83209C9.09097 5.39844 9.30084 5.60831 9.30084 5.86719V5.90531C9.30084 6.16422 9.09097 6.37406 8.83209 6.37406Z" fill="#8BAAFF"/>
    </g>
    <defs>
        <clipPath id="clip0_3215_137919">
            <rect width="16" height="16" fill="white"/>
        </clipPath>
    </defs>
</svg>
