<svg width="16" height="16" viewBox="0 0 16 16" fill="none" xmlns="http://www.w3.org/2000/svg">
    <path d="M9.83352 12.2333C10.0335 11.5667 10.4335 10.9667 10.9669 10.5C11.9669 9.66663 12.6002 8.39997 12.6002 6.99997C12.6002 4.39997 10.4336 2.26663 7.76687 2.39997C5.40018 2.49997 3.46684 4.49997 3.40018 6.86663C3.36684 8.33332 4.00018 9.63332 5.03352 10.5C5.60018 10.9666 6.00018 11.5666 6.20018 12.2333H9.83352Z" fill="#F2C94C"/>
    <path d="M7.56661 12.2999H7.86661L6.53326 7.33326C6.56661 7.33326 6.59992 7.33326 6.63327 7.33326C6.79992 7.33326 6.96661 7.2666 7.09992 7.13326C7.16658 7.0666 7.23327 7.03326 7.33327 7.03326C7.43327 7.03326 7.49992 7.0666 7.56661 7.13326C7.79995 7.39991 8.19995 7.39991 8.43326 7.13326C8.49992 7.0666 8.56661 7.03326 8.66661 7.03326C8.73327 7.03326 8.83326 7.0666 8.89995 7.13326C9.0333 7.2666 9.16661 7.33326 9.36661 7.33326C9.39995 7.33326 9.43327 7.33326 9.46661 7.33326L8.16661 12.2999H8.46661L9.83326 7.09991C9.83326 7.03326 9.83326 6.96657 9.76661 6.93326C9.69995 6.89991 9.63327 6.93326 9.59995 6.9666C9.5333 7.03326 9.46661 7.0666 9.39995 7.0666C9.29995 7.0666 9.2333 7.03326 9.1333 6.9666C8.99995 6.83326 8.86664 6.7666 8.69995 6.7666C8.53326 6.7666 8.39995 6.83326 8.26661 6.9666C8.13326 7.09995 7.93327 7.09995 7.79995 6.9666C7.69995 6.83326 7.5333 6.7666 7.36661 6.7666C7.19995 6.7666 7.03327 6.83326 6.93327 6.9666C6.86661 7.03326 6.76661 7.0666 6.66661 7.0666C6.59995 7.0666 6.49995 7.03326 6.46661 6.9666C6.43327 6.93326 6.36661 6.89995 6.29995 6.93326C6.2333 6.9666 6.19995 7.03326 6.2333 7.09991L7.56661 12.2999Z" fill="white"/>
    <path d="M6.9668 15.3003C7.13348 15.7003 7.53348 16.0003 8.00014 16.0003C8.4668 16.0003 8.8668 15.7003 9.03348 15.3003H6.9668Z" fill="#495A7C"/>
    <path d="M9.23354 15.3335H6.8002C6.46685 15.3335 6.2002 15.0669 6.2002 14.7335V12.2002H9.83354V14.7335C9.83354 15.0669 9.56685 15.3335 9.23354 15.3335Z" fill="#495A7C"/>
    <path d="M9.80015 13.4667H6.20015C6.00015 13.4667 5.8335 13.3001 5.8335 13.1001C5.8335 12.9001 6.00015 12.7334 6.20015 12.7334H9.80015C10.0002 12.7334 10.1668 12.9001 10.1668 13.1001C10.1668 13.3001 10.0002 13.4667 9.80015 13.4667Z" fill="#495A7C"/>
    <path d="M9.80015 14.6332H6.20015C6.00015 14.6332 5.8335 14.4666 5.8335 14.2666C5.8335 14.0666 6.00015 13.8999 6.20015 13.8999H9.80015C10.0002 13.8999 10.1668 14.0666 10.1668 14.2666C10.1668 14.4665 10.0002 14.6332 9.80015 14.6332Z" fill="#495A7C"/>
    <path d="M7.99985 0C7.83319 0 7.6665 0.133344 7.6665 0.333344V1.46669C7.6665 1.63334 7.79985 1.80003 7.99985 1.80003C8.19985 1.80003 8.33319 1.66669 8.33319 1.46669V0.333344C8.33319 0.133344 8.1665 0 7.99985 0Z" fill="#F2C94C"/>
    <path d="M3.53345 2.03311C3.40011 1.89977 3.20011 1.89977 3.06679 2.03311C2.93348 2.16646 2.93345 2.36646 3.06679 2.49977L3.86679 3.29977C4.00014 3.43311 4.20014 3.43311 4.33345 3.29977C4.46676 3.16643 4.46679 2.96643 4.33345 2.83311L3.53345 2.03311Z" fill="#F2C94C"/>
    <path d="M2.49989 6.6333H1.36655C1.19989 6.6333 1.0332 6.76664 1.0332 6.96664C1.0332 7.1333 1.16655 7.29999 1.36655 7.29999H2.49989C2.66655 7.29999 2.83323 7.16664 2.83323 6.96664C2.83323 6.79996 2.66655 6.6333 2.49989 6.6333Z" fill="#F2C94C"/>
    <path d="M3.86632 10.6332L3.06632 11.4332C2.93297 11.5665 2.93297 11.7665 3.06632 11.8999C3.19966 12.0332 3.39966 12.0332 3.53297 11.8999L4.33297 11.0999C4.46632 10.9665 4.46632 10.7665 4.33297 10.6332C4.19963 10.4999 3.99966 10.4999 3.86632 10.6332Z" fill="#F2C94C"/>
    <path d="M12.1331 10.6332C11.9998 10.4999 11.7998 10.4999 11.6664 10.6332C11.5331 10.7666 11.5331 10.9666 11.6664 11.0999L12.4664 11.8999C12.5998 12.0332 12.7998 12.0332 12.9331 11.8999C13.0664 11.7665 13.0664 11.5665 12.9331 11.4332L12.1331 10.6332Z" fill="#F2C94C"/>
    <path d="M14.6332 6.6333H13.4998C13.3332 6.6333 13.1665 6.76664 13.1665 6.96664C13.1665 7.1333 13.2998 7.29999 13.4998 7.29999H14.6332C14.7998 7.29999 14.9665 7.16664 14.9665 6.96664C14.9665 6.79996 14.8332 6.6333 14.6332 6.6333Z" fill="#F2C94C"/>
    <path d="M12.4664 2.0331L11.6664 2.8331C11.5331 2.96645 11.5331 3.16645 11.6664 3.29976C11.7998 3.4331 11.9998 3.4331 12.1331 3.29976L12.9331 2.49976C13.0664 2.36641 13.0664 2.16641 12.9331 2.0331C12.7997 1.89979 12.5998 1.89976 12.4664 2.0331Z" fill="#F2C94C"/>
</svg>
