<svg width="16" height="16" viewBox="0 0 16 16" fill="none" xmlns="http://www.w3.org/2000/svg">
    <g clip-path="url(#clip0_3215_137846)">
        <path d="M12.25 3.3125V14.5938C12.25 15.3719 11.6219 16 10.8438 16H1.40625C0.628094 16 0 15.3719 0 14.5938V3.3125C0 2.53434 0.628094 1.875 1.40625 1.875H10.8438C11.6219 1.875 12.25 2.53434 12.25 3.3125Z" fill="#193DA1"/>
        <path d="M11.3125 3.3125V14.5938C11.3125 14.8563 11.1063 15.0625 10.8438 15.0625H1.40625C1.14372 15.0625 0.9375 14.8563 0.9375 14.5938V3.3125C0.9375 3.04997 1.14372 2.84375 1.40625 2.84375H10.8438C11.1063 2.84375 11.3125 3.04997 11.3125 3.3125Z" fill="#D9E3FF"/>
        <path d="M12.25 3.3125V14.5938C12.25 15.3719 11.6219 16 10.8438 16H6.125V1.875H10.8438C11.6219 1.875 12.25 2.53434 12.25 3.3125Z" fill="#193DA1"/>
        <path d="M11.3125 3.3125V14.5938C11.3125 14.8563 11.1063 15.0625 10.8438 15.0625H6.125V2.84375H10.8438C11.1063 2.84375 11.3125 3.04997 11.3125 3.3125Z" fill="#D9E3FF"/>
        <path d="M8.96875 0.9375H7.44684C7.25941 0.393719 6.73441 0 6.125 0C5.51559 0 4.95934 0.393719 4.77191 0.9375H3.28125C3.01872 0.9375 2.8125 1.14372 2.8125 1.40625V2.375C2.8125 3.15316 3.44059 3.78125 4.21875 3.78125H8C8.77816 3.78125 9.4375 3.15316 9.4375 2.375V1.40625C9.4375 1.14372 9.23128 0.9375 8.96875 0.9375Z" fill="#FFBD14"/>
        <path d="M2.94982 10.6752L2.01232 9.73766C1.82923 9.55457 1.82923 9.25791 2.01232 9.07482C2.19541 8.89173 2.49207 8.89173 2.67516 9.07482L3.28123 9.68091L4.82482 8.13732C5.00791 7.95423 5.30457 7.95423 5.48766 8.13732C5.67076 8.32041 5.67076 8.61707 5.48766 8.80016L3.61266 10.6752C3.42954 10.8583 3.13291 10.8583 2.94982 10.6752Z" fill="#10B981"/>
        <path d="M2.94982 13.9564L2.01232 13.0189C1.82923 12.8358 1.82923 12.5392 2.01232 12.3561C2.19541 12.173 2.49207 12.173 2.67516 12.3561L3.28123 12.9622L4.82482 11.4186C5.00791 11.2355 5.30457 11.2355 5.48766 11.4186C5.67076 11.6017 5.67076 11.8983 5.48766 12.0814L3.61266 13.9564C3.38788 14.1812 3.17457 14.1812 2.94982 13.9564Z" fill="#10B981"/>
        <path d="M3.9441 6.12501L4.5502 5.51891C4.73329 5.33582 4.73329 5.03916 4.5502 4.85607C4.3671 4.67298 4.07045 4.67298 3.88735 4.85607L3.28126 5.46216L2.67516 4.85607C2.49207 4.67298 2.19541 4.67298 2.01232 4.85607C1.82923 5.03916 1.82923 5.33582 2.01232 5.51891L2.61841 6.12501L2.01232 6.7311C1.82923 6.9142 1.82923 7.21085 2.01232 7.39395C2.19545 7.57707 2.49204 7.57707 2.67516 7.39395L3.28126 6.78785L3.88735 7.39395C4.07048 7.57707 4.36707 7.57707 4.5502 7.39395C4.73329 7.21085 4.73329 6.9142 4.5502 6.7311L3.9441 6.12501Z" fill="#DF0000"/>
        <path d="M9.90625 6.59375H7.0625C6.80341 6.59375 6.59375 6.38409 6.59375 6.125C6.59375 5.86591 6.80341 5.65625 7.0625 5.65625H9.90625C10.1653 5.65625 10.375 5.86591 10.375 6.125C10.375 6.38409 10.1653 6.59375 9.90625 6.59375Z" fill="#8BAAFF"/>
        <path d="M9.90625 9.875H7.0625C6.80341 9.875 6.59375 9.66534 6.59375 9.40625C6.59375 9.14716 6.80341 8.9375 7.0625 8.9375H9.90625C10.1653 8.9375 10.375 9.14716 10.375 9.40625C10.375 9.66534 10.1653 9.875 9.90625 9.875Z" fill="#8BAAFF"/>
        <path d="M9.90625 13.1562H7.0625C6.80341 13.1562 6.59375 12.9466 6.59375 12.6875C6.59375 12.4284 6.80341 12.2188 7.0625 12.2188H9.90625C10.1653 12.2188 10.375 12.4284 10.375 12.6875C10.375 12.9466 10.1653 13.1562 9.90625 13.1562Z" fill="#8BAAFF"/>
        <path d="M9.4375 1.40625V2.375C9.4375 3.15316 8.77816 3.78125 8 3.78125H6.125V0C6.73441 0 7.25941 0.393719 7.44684 0.9375H8.96875C9.23128 0.9375 9.4375 1.14372 9.4375 1.40625Z" fill="#FFBD14"/>
        <path d="M16 4.25V5.65625L15.0625 6.59375H14.125L13.1875 5.65625V4.25C13.1875 3.47184 13.8156 2.84375 14.5938 2.84375C15.3719 2.84375 16 3.47184 16 4.25Z" fill="#193DA1"/>
        <path d="M16 4.25V5.65625L15.0625 6.59375H14.5938V2.84375C15.3719 2.84375 16 3.47184 16 4.25Z" fill="#193DA1"/>
        <path d="M16 5.65625V11.75L15.5312 12.2188H13.6562L13.1875 11.75V5.65625H16Z" fill="#FFBD14"/>
        <path d="M16 5.65625V11.75L15.5312 12.2188H14.5938V5.65625H16Z" fill="#FFBD14"/>
        <path d="M15.8595 11.422C15.5126 11.0751 15.0532 10.897 14.5939 10.897C14.1345 10.897 13.6751 11.0751 13.3283 11.422C13.197 11.5438 13.1595 11.7313 13.2158 11.9L14.1533 14.7438C14.2095 14.9313 14.3876 15.0626 14.5939 15.0626C14.8001 15.0626 14.9782 14.9313 15.0345 14.7438L15.972 11.9C16.0283 11.7313 15.9907 11.5438 15.8595 11.422Z" fill="#FFBD14"/>
        <path d="M15.8593 11.422C15.9906 11.5438 16.0282 11.7313 15.9718 11.9L15.0343 14.7438C14.9781 14.9313 14.8 15.0626 14.5938 15.0626V10.897C15.0531 10.897 15.5125 11.0751 15.8593 11.422Z" fill="#FFBD14"/>
    </g>
    <defs>
        <clipPath id="clip0_3215_137846">
            <rect width="16" height="16" fill="white"/>
        </clipPath>
    </defs>
</svg>
