<svg width="16" height="16" viewBox="0 0 16 16" fill="none" xmlns="http://www.w3.org/2000/svg">
    <g clip-path="url(#clip0_3215_137883)">
        <path d="M16 6.46043C16 5.15436 14.9788 4.08714 13.6914 4.01277C13.6982 3.93839 13.7021 3.86339 13.7021 3.78743C13.7021 2.43305 12.604 1.33527 11.2496 1.33527C10.9029 1.33527 10.5729 1.40771 10.2738 1.53777C10.0024 0.866863 9.44322 0.343738 8.74947 0.12127C8.51316 0.0453008 8.26141 0.00439453 8 0.00439453C6.97078 0.00439453 6.08997 0.638613 5.72619 1.53777C5.42712 1.40771 5.09713 1.33527 4.75041 1.33527C3.39603 1.33527 2.29794 2.43305 2.29794 3.78743C2.29794 3.86339 2.30181 3.93843 2.30856 4.01277C1.02116 4.08714 0 5.15436 0 6.46043C0 7.76649 1.02116 8.83402 2.30856 8.90839C2.30181 8.98243 2.29794 9.05746 2.29794 9.13342C2.29794 10.4878 3.39603 11.5859 4.75041 11.5859C5.09713 11.5859 5.42709 11.5135 5.72619 11.3834C6.08997 12.2822 6.97078 12.9167 8 12.9167C9.02922 12.9167 9.91003 12.2822 10.2738 11.3834C10.5729 11.5135 10.9029 11.5859 11.2496 11.5859C12.604 11.5859 13.7021 10.4878 13.7021 9.13342C13.7021 9.05746 13.6982 8.98243 13.6914 8.90839C14.9788 8.83405 16 7.76652 16 6.46043Z" fill="#8BAAFF"/>
        <path d="M3.79684 9.13346C3.79684 9.05749 3.80072 8.98246 3.80747 8.90843C2.52006 8.83405 1.49891 7.76652 1.49891 6.46046C1.49891 5.1544 2.52006 4.08718 3.80747 4.0128C3.80072 3.93843 3.79684 3.86343 3.79684 3.78746C3.79684 2.69449 4.51184 1.76861 5.49953 1.45218C5.26325 1.37652 5.01181 1.3353 4.75041 1.3353C3.39603 1.3353 2.29794 2.43308 2.29794 3.78746C2.29794 3.86343 2.30212 3.93846 2.30888 4.0128C1.02116 4.08721 0 5.1544 0 6.46046C0 7.76652 1.02116 8.83405 2.30891 8.90843C2.30216 8.98246 2.29797 9.05749 2.29797 9.13346C2.29797 10.4878 3.39609 11.5859 4.75044 11.5859C5.01184 11.5859 5.26328 11.5447 5.49956 11.4691C4.51187 11.1526 3.79684 10.2264 3.79684 9.13346ZM8 0.00439453C6.97078 0.00439453 6.08997 0.638613 5.72619 1.53777C5.87234 1.51039 6.023 1.49624 6.17691 1.49624C6.52394 1.49624 6.85394 1.56868 7.153 1.69874C7.42438 1.02783 8.05569 0.343738 8.74947 0.12127C8.51316 0.0452695 8.26141 0.00439453 8 0.00439453Z" fill="#8BAAFF"/>
        <path d="M2.69993 14.539C3.45378 14.539 4.0649 13.9279 4.0649 13.1741C4.0649 12.4202 3.45378 11.8091 2.69993 11.8091C1.94608 11.8091 1.33496 12.4202 1.33496 13.1741C1.33496 13.9279 1.94608 14.539 2.69993 14.539Z" fill="#8BAAFF"/>
        <path d="M3.02124 14.5008C2.91821 14.5259 2.81071 14.5391 2.69996 14.5391C1.94634 14.5391 1.33496 13.9277 1.33496 13.1741C1.33496 12.4201 1.9463 11.8091 2.69996 11.8091C2.81071 11.8091 2.91824 11.8223 3.02124 11.8471C2.42246 11.9916 1.97755 12.5309 1.97755 13.1741C1.97755 13.817 2.42246 14.3566 3.02124 14.5008Z" fill="#8BAAFF"/>
        <path d="M0.611125 15.9957C0.94864 15.9957 1.22225 15.7221 1.22225 15.3846C1.22225 15.047 0.94864 14.7734 0.611125 14.7734C0.27361 14.7734 0 15.047 0 15.3846C0 15.7221 0.27361 15.9957 0.611125 15.9957Z" fill="#8BAAFF"/>
        <path d="M0.754969 15.9785C0.708844 15.9898 0.660719 15.9957 0.611125 15.9957C0.273719 15.9957 0 15.722 0 15.3846C0 15.047 0.273719 14.7734 0.611125 14.7734C0.660719 14.7734 0.708844 14.7793 0.754969 14.7904C0.486875 14.8552 0.287688 15.0966 0.287688 15.3846C0.287688 15.6724 0.486875 15.914 0.754969 15.9785Z" fill="#8BAAFF"/>
        <path d="M5.3663 7.82195C5.78757 7.82195 6.12908 7.48044 6.12908 7.05917C6.12908 6.6379 5.78757 6.29639 5.3663 6.29639C4.94502 6.29639 4.60352 6.6379 4.60352 7.05917C4.60352 7.48044 4.94502 7.82195 5.3663 7.82195Z" fill="#F9FBFF"/>
        <path d="M7.9996 7.82195C8.42087 7.82195 8.76238 7.48044 8.76238 7.05917C8.76238 6.6379 8.42087 6.29639 7.9996 6.29639C7.57833 6.29639 7.23682 6.6379 7.23682 7.05917C7.23682 7.48044 7.57833 7.82195 7.9996 7.82195Z" fill="#F9FBFF"/>
        <path d="M10.6334 7.85955C11.0547 7.85955 11.3962 7.51804 11.3962 7.09677C11.3962 6.67549 11.0547 6.33398 10.6334 6.33398C10.2121 6.33398 9.87061 6.67549 9.87061 7.09677C9.87061 7.51804 10.2121 7.85955 10.6334 7.85955Z" fill="#F9FBFF"/>
    </g>
    <defs>
        <clipPath id="clip0_3215_137883">
            <rect width="16" height="16" fill="white"/>
        </clipPath>
    </defs>
</svg>
