<svg width="16" height="16" viewBox="0 0 16 16" fill="none" xmlns="http://www.w3.org/2000/svg">
    <g clip-path="url(#clip0_3215_137894)">
        <path d="M11.9829 8.82516C11.8621 8.82516 11.7642 8.72723 11.7642 8.60641V7.81348C11.7642 7.69266 11.8621 7.59473 11.9829 7.59473C12.1037 7.59473 12.2017 7.69266 12.2017 7.81348V8.60641C12.2017 8.72723 12.1037 8.82516 11.9829 8.82516Z" fill="#8BAAFF"/>
        <path d="M11.9829 9.87307C11.5691 9.87307 11.2324 9.53641 11.2324 9.12257C11.2324 8.70873 11.5691 8.37207 11.9829 8.37207C12.3967 8.37207 12.7334 8.70873 12.7334 9.12257C12.7334 9.53641 12.3967 9.87307 11.9829 9.87307ZM11.9829 8.84082C11.8275 8.84082 11.7012 8.9672 11.7012 9.12257C11.7012 9.27795 11.8275 9.40432 11.9829 9.40432C12.1382 9.40432 12.2646 9.27795 12.2646 9.12257C12.2646 8.9672 12.1382 8.84082 11.9829 8.84082Z" fill="#00217D"/>
        <path d="M5.41407 0.861816H3.72451C3.26107 0.861816 2.86373 1.14444 2.69523 1.54669H2.31954C1.75741 1.54669 1.30176 2.00238 1.30176 2.56447V5.60135H7.06242V2.51016C7.06242 1.59979 6.32445 0.861816 5.41407 0.861816Z" fill="#2D3748"/>
        <path d="M3.29297 6.38916H5.0715V9.46619H3.29297V6.38916Z" fill="#FFE7E3"/>
        <path d="M5.07101 6.38916H3.29248V8.49357C3.52982 8.60585 3.79504 8.66888 4.07504 8.66888H4.28826C4.56832 8.66888 4.83357 8.60582 5.07098 8.49353V6.38916H5.07101Z" fill="#FF654C"/>
        <path d="M0.981934 5.55209C0.981934 5.89637 1.26103 6.17546 1.60531 6.17546H6.75909C7.10337 6.17546 7.38247 5.89637 7.38247 5.55209C7.38247 5.2078 7.10337 4.92871 6.75909 4.92871H1.60531C1.26103 4.92871 0.981934 5.2078 0.981934 5.55209Z" fill="#FFE7E3"/>
        <path d="M6.12152 3.54785V6.1921C6.12152 7.20441 5.30086 8.02507 4.28855 8.02507H4.07533C3.06318 8.02507 2.24268 7.20457 2.24268 6.19241V3.18985C2.24268 2.91079 2.46889 2.68457 2.74796 2.68457H3.06386C3.17305 2.68457 3.28018 2.71245 3.37643 2.76391C4.13364 3.16898 5.00674 3.35782 5.86402 3.3067C6.00352 3.29838 6.12152 3.40813 6.12152 3.54785Z" fill="#FFE7E3"/>
        <path d="M4.21978 7.04025H4.14406C3.91566 7.04025 3.69859 6.95191 3.53281 6.79147C3.43978 6.70144 3.43738 6.55307 3.52738 6.46007C3.61741 6.36707 3.76575 6.36463 3.85878 6.45463C3.93666 6.53 4.03797 6.5715 4.14403 6.5715H4.21975C4.32584 6.5715 4.42716 6.53 4.505 6.45466C4.59806 6.3646 4.74641 6.36704 4.83641 6.46007C4.92644 6.55307 4.924 6.70147 4.831 6.79144C4.66528 6.95191 4.44819 7.04025 4.21978 7.04025Z" fill="#E09380"/>
        <path d="M8.36416 10.447V14.6528C8.36416 14.7391 8.29419 14.8091 8.20791 14.8091H1.48328L0.983656 12.7333L0 12.5354V10.447C0 9.79049 0.532188 9.2583 1.18866 9.2583H2.17066L3.18384 9.6333L4.18078 9.2583L5.16572 9.7583L6.18922 9.2583H7.1755C7.83197 9.2583 8.36416 9.79049 8.36416 10.447Z" fill="#E5936A"/>
        <path d="M7.18102 9.25879C7.01595 9.25804 6.88086 9.3897 6.88086 9.55473V14.8096H8.20795C8.29423 14.8096 8.3642 14.7396 8.3642 14.6533V10.4474C8.36423 9.79276 7.83498 9.26173 7.18102 9.25879Z" fill="#FF654C"/>
        <path d="M8.38037 2.39355V7.65265C8.38037 7.74156 8.45243 7.81362 8.54134 7.81362H15.3563C15.4452 7.81362 15.5173 7.74156 15.5173 7.65265V2.39355H8.38037Z" fill="#D9E3FF"/>
        <path d="M15.3563 7.00863H8.54134C8.45243 7.00863 8.38037 6.93656 8.38037 6.84766V7.65284C8.38037 7.74175 8.45243 7.81381 8.54134 7.81381H15.3563C15.4452 7.81381 15.5173 7.74175 15.5173 7.65284V6.84766C15.5173 6.93656 15.4452 7.00863 15.3563 7.00863Z" fill="#8BAAFF"/>
        <path d="M7.89746 2.23275V1.78353C7.89746 1.69462 7.96952 1.62256 8.05843 1.62256H15.839C15.9279 1.62256 15.9999 1.69462 15.9999 1.78353V2.23275C15.9999 2.32165 15.9279 2.39371 15.839 2.39371H8.05843C7.96956 2.39371 7.89746 2.32165 7.89746 2.23275Z" fill="#8BAAFF"/>
        <path d="M4.72191 11.4729L1.48331 13.3426V9.55299C1.48331 9.39024 1.35137 9.2583 1.18862 9.2583C0.532687 9.2583 0.0005625 9.79008 0 10.4459V14.1793C0 14.7089 0.429344 15.1382 0.958938 15.1382H1.08297C1.25131 15.1382 1.41666 15.0939 1.56244 15.0098L5.46356 12.7575L4.72191 11.4729Z" fill="#FF654C"/>
        <path d="M5.18037 12.4741L1.27925 14.7264C1.13346 14.8106 0.96809 14.8549 0.799777 14.8549H0.675746C0.483184 14.8549 0.304027 14.7979 0.153809 14.7002C0.324652 14.964 0.62134 15.1386 0.958996 15.1386H1.08303C1.25137 15.1386 1.41671 15.0943 1.5625 15.0102L5.46362 12.7579L5.26993 12.4224L5.18037 12.4741Z" fill="#FF654C"/>
        <path d="M6.3553 11.7255C6.30621 11.7255 6.25671 11.7101 6.21449 11.6783C6.11108 11.6004 6.09039 11.4535 6.16827 11.3501L9.69755 6.66468C9.77539 6.56127 9.92236 6.54058 10.0258 6.61849C10.1292 6.69636 10.1499 6.8433 10.072 6.94671L6.54267 11.6321C6.49661 11.6933 6.42639 11.7255 6.3553 11.7255Z" fill="#193DA1"/>
        <path d="M4.72217 11.4731L5.80404 10.8485C6.15876 10.6437 6.61235 10.7653 6.81717 11.12C7.02198 11.4747 6.90045 11.9283 6.5457 12.1331L5.46382 12.7577L4.72217 11.4731Z" fill="#FFE7E3"/>
        <path d="M6.81708 11.1199C6.74802 11.0002 6.65058 10.9072 6.53824 10.8442C6.73658 11.1977 6.61439 11.646 6.26233 11.8492L5.27002 12.4221L5.46371 12.7576L6.54558 12.133C6.90036 11.9282 7.02189 11.4746 6.81708 11.1199Z" fill="#FF654C"/>
        <path d="M4.18213 9.2583L4.77503 10.2541C4.82657 10.3406 4.94397 10.3591 5.0196 10.2926L6.19632 9.2583H4.18213Z" fill="#00217D"/>
        <path d="M4.18216 9.2583L3.58925 10.2541C3.53772 10.3406 3.42031 10.3591 3.34469 10.2926L2.16797 9.2583H4.18216Z" fill="#00217D"/>
    </g>
    <defs>
        <clipPath id="clip0_3215_137894">
            <rect width="16" height="16" fill="white"/>
        </clipPath>
    </defs>
</svg>
