<svg width="414" height="373" viewBox="0 0 414 373" fill="none" xmlns="http://www.w3.org/2000/svg">
<path fill-rule="evenodd" clip-rule="evenodd" d="M275.935 151.382C215.183 182.081 141.199 157.57 110.571 96.959C141.199 157.57 116.851 231.77 56.2944 262.371C116.851 231.77 190.932 255.989 221.56 316.6C190.932 255.989 215.183 182.081 275.935 151.382Z" fill="#FFE8AD"/>
<path fill-rule="evenodd" clip-rule="evenodd" d="M347.7 90.5953C320.809 104.184 288.061 93.2913 274.552 66.5573C288.061 93.2913 277.248 126.196 250.514 139.705C277.248 126.196 310.073 136.852 323.662 163.743C310.073 136.852 320.809 104.184 347.7 90.5953Z" fill="#FFF8EB"/>
<path fill-rule="evenodd" clip-rule="evenodd" d="M247.933 85.485C224.984 97.0817 197.082 87.9123 185.485 64.9631C197.082 87.9123 187.912 115.815 164.963 127.411C187.912 115.815 215.815 124.984 227.412 147.933C215.815 124.984 224.984 97.0817 247.933 85.485Z" fill="#FFF8EB"/>
</svg>
