<svg width="445" height="451" viewBox="0 0 445 451" fill="none" xmlns="http://www.w3.org/2000/svg">
<path fill-rule="evenodd" clip-rule="evenodd" d="M130.791 170.026C186.996 208.42 263.555 193.812 301.859 137.737C263.555 193.812 277.971 270.563 333.997 308.834C277.971 270.563 201.356 284.867 163.051 340.943C201.356 284.867 186.996 208.42 130.791 170.026Z" fill="#FFE8AD"/>
<path fill-rule="evenodd" clip-rule="evenodd" d="M113.283 102.013C127.679 118.218 152.469 119.594 168.579 105.283C152.469 119.594 150.998 144.469 165.309 160.579C150.998 144.469 126.218 142.914 110.013 157.309C126.218 142.914 127.679 118.218 113.283 102.013Z" fill="#FFF8EB"/>
<path fill-rule="evenodd" clip-rule="evenodd" d="M191.251 57.7519C215.455 84.9974 257.009 87.4546 284.255 63.2514C257.009 87.4546 254.552 129.009 278.755 156.255C254.552 129.009 212.997 126.552 185.752 150.755C212.997 126.552 215.455 84.9974 191.251 57.7519Z" fill="#FFF8EB"/>
</svg>
