<svg width="36" height="36" viewBox="0 0 14 12" fill="none" xmlns="http://www.w3.org/2000/svg">
    <path d="M5.68706 0.810892V4.14406C5.68707 4.31642 5.65312 4.48709 5.58716 4.64633C5.5212 4.80557 5.42452 4.95026 5.30265 5.07214L2.91623 7.45856M5.68706 0.810892C5.54065 0.824309 5.39481 0.840059 5.24956 0.858726M5.68706 0.810892C6.56018 0.729703 7.43895 0.729703 8.31206 0.810892M2.91623 7.45856L3.3654 7.34598C4.58632 7.04428 5.87479 7.1876 6.99956 7.75023C8.12434 8.31285 9.41281 8.45617 10.6337 8.15447L11.5496 7.92523M2.91623 7.45856L1.63173 8.74364C0.912481 9.46172 1.25198 10.6786 2.25415 10.8495C3.79648 11.1131 5.38198 11.2502 6.99956 11.2502C8.58984 11.2508 10.1773 11.1167 11.745 10.8495C12.7466 10.6786 13.0861 9.46172 12.3674 8.74306L11.5496 7.92523M8.31206 0.810892V4.14406C8.31206 4.49231 8.45031 4.82656 8.69648 5.07214L11.5496 7.92523M8.31206 0.810892C8.45848 0.824309 8.60431 0.840059 8.74956 0.858726" stroke="black" stroke-width="0.875" stroke-linecap="round" stroke-linejoin="round"/>
</svg>
