<svg width="20" height="20" viewBox="0 0 22 22" fill="none" xmlns="http://www.w3.org/2000/svg">
<path d="M8.6831 13.3424C8.8851 12.9384 8.9991 12.4824 8.9991 12.0004C8.9991 11.5184 8.8851 11.0624 8.6831 10.6584M8.6831 13.3424C8.38081 13.9467 7.88331 14.4314 7.2712 14.7177C6.65909 15.0041 5.96823 15.0754 5.31055 14.9201C4.65286 14.7648 4.06687 14.3919 3.64752 13.862C3.22816 13.3321 3 12.6761 3 12.0004C3 11.3246 3.22816 10.6686 3.64752 10.1387C4.06687 9.60877 4.65286 9.23596 5.31055 9.08066C5.96823 8.92535 6.65909 8.99665 7.2712 9.283C7.88331 9.56934 8.38081 10.054 8.6831 10.6584M8.6831 13.3424L15.3151 16.6584M8.6831 10.6584L15.3151 7.34236M15.3151 16.6584C14.9592 17.3702 14.9006 18.1943 15.1523 18.9493C15.404 19.7043 15.9453 20.3284 16.6571 20.6844C17.3689 21.0403 18.193 21.0988 18.948 20.8472C19.7031 20.5955 20.3272 20.0542 20.6831 19.3424C21.039 18.6305 21.0976 17.8064 20.8459 17.0514C20.5942 16.2964 20.0529 15.6723 19.3411 15.3164C18.9886 15.1401 18.6049 15.035 18.2118 15.0071C17.8187 14.9792 17.424 15.0289 17.0502 15.1535C16.2951 15.4052 15.671 15.9465 15.3151 16.6584ZM15.3151 7.34236C15.4913 7.69476 15.7353 8.009 16.0329 8.26714C16.3306 8.52527 16.6762 8.72225 17.05 8.84682C17.4238 8.97139 17.8185 9.02111 18.2115 8.99315C18.6045 8.96519 18.9882 8.86009 19.3406 8.68386C19.693 8.50762 20.0072 8.26371 20.2654 7.96603C20.5235 7.66835 20.7205 7.32274 20.8451 6.94894C20.9696 6.57514 21.0194 6.18046 20.9914 5.78744C20.9634 5.39442 20.8583 5.01076 20.6821 4.65836C20.3262 3.94665 19.7021 3.40548 18.9472 3.1539C18.1923 2.90232 17.3683 2.96094 16.6566 3.31686C15.9449 3.67278 15.4037 4.29685 15.1521 5.05177C14.9006 5.8067 14.9592 6.63065 15.3151 7.34236Z" stroke="#2D3748" stroke-width="2" stroke-linecap="round" stroke-linejoin="round"/>
</svg>
