<svg width="16" height="16" viewBox="0 0 16 16" fill="currentColor" stroke="none" xmlns="http://www.w3.org/2000/svg">
<path fill-rule="evenodd" clip-rule="evenodd" d="M11.0614 15.3851C10.2759 15.7105 9.44472 15.908 8.5994 15.9716C8.26896 15.9964 7.99995 15.7254 7.99995 15.3941L7.99995 13.0741C7.99995 12.7427 8.26976 12.4782 8.59817 12.4339C8.98084 12.3824 9.35609 12.2814 9.71437 12.133C10.2579 11.9079 10.7518 11.5779 11.1678 11.1619C11.5838 10.7459 11.9138 10.252 12.1389 9.70847C12.3641 9.16494 12.48 8.58237 12.48 7.99405C12.48 7.40573 12.3641 6.82317 12.1389 6.27963C11.9138 5.73609 11.5838 5.24222 11.1678 4.82622C10.7518 4.41021 10.2579 4.08021 9.71437 3.85507C9.35608 3.70667 8.98084 3.60573 8.59816 3.55417C8.26976 3.50993 7.99995 3.24542 7.99995 2.91405L7.99995 0.594055C7.99995 0.262685 8.26896 -0.00828488 8.59939 0.0165447C9.44472 0.0800636 10.2759 0.277642 11.0614 0.603019C12.032 1.00506 12.9139 1.59433 13.6568 2.3372C14.3997 3.08007 14.9889 3.96198 15.391 4.93259C15.793 5.90319 16 6.94348 16 7.99405C16 9.04463 15.793 10.0849 15.391 11.0555C14.9889 12.0261 14.3997 12.908 13.6568 13.6509C12.9139 14.3938 12.032 14.983 11.0614 15.3851ZM0.788316 6.33504C0.46538 6.26075 0.140998 6.46216 0.0911144 6.78976C-0.032685 7.60276 -0.0303826 8.43005 0.0979403 9.24235C0.149647 9.56966 0.475145 9.76927 0.797662 9.69318L3.05568 9.16048C3.37819 9.08439 3.57367 8.76106 3.54133 8.43127C3.51363 8.14878 3.51284 7.86429 3.53897 7.58166C3.56947 7.25169 3.3722 6.92945 3.04926 6.85516L0.788316 6.33504ZM2.22683 3.36468C1.96831 3.15737 1.9252 2.77799 2.1513 2.53573C2.7124 1.93451 3.36289 1.42336 4.07977 1.02038C4.36863 0.858003 4.72705 0.989618 4.86733 1.28983L5.84944 3.3917C5.98972 3.69192 5.85724 4.04576 5.57845 4.22487C5.33964 4.37829 5.11595 4.55407 4.9104 4.74981C4.67044 4.97833 4.29529 5.02336 4.03677 4.81605L2.22683 3.36468ZM2.25274 12.6554C1.99538 12.8642 1.95438 13.2438 2.18182 13.4848C2.74626 14.0829 3.39959 14.5904 4.11869 14.9894C4.40845 15.1501 4.76614 15.0165 4.90474 14.7155L5.87514 12.6082C6.01375 12.3072 5.8793 11.9541 5.59952 11.7766C5.35986 11.6245 5.13519 11.45 4.92856 11.2554C4.68732 11.0282 4.31194 10.9853 4.05458 11.194L2.25274 12.6554Z"/>
</svg>
