<svg width="104" height="32" viewBox="0 0 104 32" fill="none" xmlns="http://www.w3.org/2000/svg">
<path d="M38.7316 17.243C38.7316 12.3587 41.9206 8.47833 46.8428 8.47833C49.7546 8.47833 51.4184 9.62154 52.7703 11.3189L51.5235 12.4275C50.3091 10.7652 48.7839 10.1073 46.9468 10.1073C43.0297 10.1073 40.638 13.225 40.638 17.2434C40.638 21.2619 43.0299 24.4142 46.9468 24.4142C48.7839 24.4142 50.3091 23.7215 51.5224 22.0587L52.7693 23.1673C51.4167 24.8991 49.7535 26.0425 46.8418 26.0425C41.9206 26.0419 38.7316 22.1274 38.7316 17.243Z" fill="black"/>
<path d="M56.7905 22.4044V2.52063H58.5929V22.1273C58.5929 23.479 59.1475 24.4135 60.3258 24.4135C61.1232 24.4135 61.8164 24.0334 62.1976 23.6167L62.8908 25.0023C62.2322 25.6258 61.4349 26.0416 60.0484 26.0416C57.8651 26.0418 56.7905 24.6908 56.7905 22.4044Z" fill="black"/>
<path d="M65.1789 4.87613C65.1789 4.11414 65.8376 3.52448 66.5658 3.52448C67.3286 3.52448 67.9528 4.11329 67.9528 4.87613C67.9517 5.24331 67.8053 5.59514 67.5454 5.85478C67.2855 6.11441 66.9334 6.26074 66.5658 6.2618C65.8378 6.2618 65.1789 5.63877 65.1789 4.87613ZM65.6651 25.626V8.89457H67.4681V25.626H65.6651Z" fill="black"/>
<path d="M74.881 22.9242V32H73.0785V8.89507H74.881V11.5278C76.0596 9.83046 78.2086 8.47943 80.7045 8.47943C85.1761 8.47943 88.1919 11.8742 88.1919 17.2441C88.1919 22.5787 85.1761 26.043 80.7045 26.043C78.3485 26.0419 76.2335 24.8295 74.881 22.9242ZM86.2507 17.243C86.2507 13.1908 84.1374 10.1073 80.3934 10.1073C78.0721 10.1073 75.8531 11.4926 74.881 13.0852V21.3641C75.8516 22.9576 78.07 24.4126 80.3926 24.4126C84.1374 24.4142 86.2507 21.2961 86.2507 17.243Z" fill="black"/>
<path d="M91.2783 23.3744L92.353 22.058C93.4276 23.4097 95.4034 24.5176 97.7604 24.5176C100.568 24.5176 102.232 23.0627 102.232 21.1229C102.232 16.5502 91.6596 19.1484 91.6596 13.1208C91.6596 10.5573 93.8433 8.47891 97.6217 8.47891C100.499 8.47891 102.405 9.58748 103.619 10.9385L102.613 12.2192C101.643 10.9028 99.8403 10.0016 97.6219 10.0016C95.0225 10.0016 93.4622 11.318 93.4622 13.0501C93.4622 17.2417 104 14.6782 104 21.1214C104 23.8228 101.92 26.0404 97.7266 26.0404C95.0215 26.0418 92.9421 25.245 91.2783 23.3744Z" fill="black"/>
<path d="M28.0897 8.83949C23.1487 8.83949 19.1432 12.8423 19.1432 17.7801C19.1432 22.7179 23.1487 26.7207 28.0897 26.7207C33.0307 26.7207 37.0363 22.7179 37.0363 17.7801C37.0363 12.8423 33.0307 8.83949 28.0897 8.83949ZM28.0766 22.9897C25.2119 22.9897 22.8898 20.6691 22.8898 17.8063C22.8898 14.9435 25.2119 12.6229 28.0766 12.6229C30.9412 12.6229 33.2633 14.9435 33.2633 17.8063C33.2633 20.6691 30.9412 22.9905 28.0766 22.9905V22.9897Z" fill="black"/>
<path d="M30.1006 17.4762C29.9603 17.3227 28.2193 15.7972 27.6168 15.5298C27.3388 15.4067 27.1196 15.5243 27.0162 15.821C26.9791 15.9439 26.9535 16.0699 26.9397 16.1974C26.8885 16.5987 26.8685 17.1926 26.8706 17.7801C26.8685 18.3679 26.8885 18.9615 26.9397 19.3628C26.9535 19.4904 26.9791 19.6165 27.0162 19.7394C27.1196 20.0361 27.3388 20.1537 27.6168 20.0304C28.2193 19.7632 29.9603 18.2376 30.1006 18.0842C30.1808 17.9966 30.2444 17.8999 30.2387 17.7801C30.2444 17.6604 30.1808 17.5636 30.1006 17.4762Z" fill="#DC491C"/>
<path d="M8.94641 8.88993C7.09274 8.88694 5.28435 9.46207 3.77336 10.5352V0.418816C3.77303 0.30779 3.72874 0.201406 3.65019 0.122897C3.57163 0.0443893 3.46517 0.000135888 3.35407 -0.000198364H0.419272C0.308119 8.06496e-05 0.201602 0.0443453 0.123025 0.122911C0.0444477 0.201477 0.000207926 0.307947 -1.52588e-05 0.419028V17.684C-1.52588e-05 17.6903 -1.52588e-05 17.6966 -1.52588e-05 17.703C-1.52588e-05 17.7452 -1.52588e-05 17.7874 -1.52588e-05 17.8297C-1.52588e-05 22.7675 4.00541 26.7705 8.94641 26.7705C13.8874 26.7705 17.8928 22.7675 17.8928 17.8297C17.8928 12.8919 13.8874 8.88993 8.94641 8.88993ZM8.9333 23.0401C6.06866 23.0414 3.74589 20.7203 3.74589 17.8576C3.74589 17.8481 3.77294 17.326 3.77294 17.326C4.03922 14.7128 6.24788 12.6742 8.93288 12.6742C11.7977 12.6742 14.1201 14.9948 14.1201 17.8576C14.1201 20.7203 11.7977 23.0414 8.9333 23.0414V23.0401Z" fill="black"/>
<path d="M9.00378 8.88908C7.07641 8.88908 5.2435 9.44981 3.76733 10.5343L3.78847 17.2405C4.1657 14.5608 6.34244 12.6742 8.99067 12.6731" fill="black"/>
</svg>
