<?xml version="1.0" encoding="UTF-8"?><svg id="Layer_2" xmlns="http://www.w3.org/2000/svg" width="566.95" height="133.3" viewBox="0 0 566.95 133.3"><g id="Layer_1-2"><g><path id="Path_5085" d="M89.44,44.24h11.75c1.74,0,3.15-1.41,3.15-3.15V17.16c0-1.57-1.16-2.9-2.71-3.12L3.61,.03C1.89-.22,.29,.97,.03,2.69,.01,2.85,0,3,0,3.15V26.18c0,1.74,1.41,3.15,3.15,3.15h0s71.38,0,71.38,0L2.55,43.73C1.07,44.04,0,45.34,0,46.86v54.04c0,1.76,1.42,3.18,3.18,3.18,.16,0,.31-.01,.47-.03l97.99-14.7c1.55-.22,2.71-1.55,2.71-3.12v-24.57c0-.79-.16-1.58-.46-2.31h0c-.3-.74-.75-1.41-1.32-1.97l-13.13-13.13Z"/><path id="Path_5087" d="M270.32,30.76c-19.94,.12-36.01,16.37-35.89,36.31,0,.1,0,.21,0,.31-.44,19.82,15.27,36.24,35.09,36.69,19.82,.44,36.24-15.27,36.69-35.09,.01-.53,.01-1.07,0-1.6,.29-19.94-15.64-36.33-35.58-36.62-.1,0-.21,0-.31,0m0,63.72c-14.56-.41-26.04-12.54-25.64-27.1-.8-14.16,10.02-26.28,24.18-27.09,14.16-.8,26.28,10.02,27.09,24.18,.05,.97,.05,1.94,0,2.9,.45,14.51-10.95,26.64-25.46,27.09-.06,0-.12,0-.17,0"/><path id="Path_5088" d="M348.68,94.48c-13.18,0-24.9-11.72-24.9-27.1s11.72-27.1,24.9-27.1c8.55,.28,16.45,4.64,21.24,11.72l7.32-7.32c-7-8.63-17.45-13.72-28.56-13.92-19.8,.45-35.52,16.82-35.16,36.62-.36,19.8,15.35,36.17,35.16,36.62,11.43-.42,22.12-5.76,29.31-14.66l-7.32-6.59c-5.17,7.03-13.25,11.34-21.97,11.72"/><rect id="Rectangle_8524" x="388.97" y="0" width="10.26" height="102.53"/><path id="Path_5089" d="M421.19,4.68c-3.64,0-6.6,2.94-6.6,6.58,0,3.64,2.94,6.6,6.58,6.6,3.64,0,6.6-2.94,6.6-6.58h0c.02-3.64-2.91-6.59-6.53-6.6-.02,0-.04,0-.06,0"/><rect id="Rectangle_8525" x="416.07" y="32.23" width="10.25" height="70.31"/><path id="Path_5090" d="M475.39,30.76c-9.44-.06-18.37,4.27-24.17,11.72v-10.25h-10.25v101.07h10.27v-41.01c5.8,7.44,14.73,11.77,24.17,11.72,19.04,0,34.42-15.37,34.42-36.62s-15.37-36.62-34.42-36.62m0,63.72c-12.45,0-24.17-11.72-24.17-27.1s11.72-27.1,24.17-27.1c13.18,0,24.17,10.98,24.17,27.1s-10.98,27.1-24.17,27.1"/><path id="Path_5091" d="M528.85,50.54c0-5.13,5.13-10.26,13.18-10.26,5.98-.05,11.65,2.65,15.37,7.32l7.32-7.32c-5.94-6.16-14.15-9.6-22.71-9.52-13.92,0-23.43,9.52-23.43,19.77,0,24.17,38.09,16.11,38.09,32.22,0,6.59-5.13,11.72-15.37,11.72-7.37-.37-14.14-4.16-18.31-10.25l-7.32,7.33c6.04,8.04,15.58,12.68,25.64,12.45,16.11,0,25.64-9.52,25.64-21.24,0-24.9-38.09-16.85-38.09-32.22"/><path d="M153.38,0h39.55c16.84,0,28.56,11.72,28.56,26.37,0,8.2-2.93,13.33-5.86,16.7-1.76,1.9-3.66,3.51-5.86,4.54,3.08,1.47,5.86,3.37,8.35,5.71,4.25,4.1,8.5,10.4,8.5,19.92,0,16.84-12.45,29.3-31.49,29.3h-41.75V0Zm39.55,43.07c11.13,0,17.58-6.3,17.58-16.7,0-9.52-6.45-16.11-17.58-16.11h-28.56V43.07h28.56Zm2.2,49.22c12.45,0,20.51-7.91,20.51-19.04s-8.06-20.51-20.51-20.51h-30.76v39.55h30.76Z"/></g></g></svg>