<svg viewBox="0 0 78 24" fill="none" xmlns="http://www.w3.org/2000/svg" aria-hidden="true"><path d="M29.049 12.932c0-3.663 2.392-6.574 6.083-6.574 2.184 0 3.432.858 4.446 2.13l-.935.832c-.911-1.246-2.055-1.74-3.433-1.74-2.938 0-4.731 2.338-4.731 5.352 0 3.014 1.794 5.378 4.731 5.378 1.378 0 2.522-.52 3.432-1.766l.935.831c-1.014 1.299-2.262 2.157-4.445 2.157-3.691 0-6.083-2.937-6.083-6.6ZM42.593 16.803V1.891h1.352v14.705c0 1.013.416 1.714 1.3 1.714.597 0 1.117-.285 1.403-.597l.52 1.039c-.494.468-1.092.78-2.132.78-1.637 0-2.443-1.014-2.443-2.729ZM48.884 3.657c0-.571.494-1.013 1.04-1.013.572 0 1.04.441 1.04 1.013a1.042 1.042 0 0 1-1.04 1.04 1.06 1.06 0 0 1-1.04-1.04Zm.364 15.563V6.67h1.353V19.22h-1.353ZM56.16 17.193V24H54.81V6.67h1.351v1.975c.884-1.273 2.496-2.287 4.368-2.287 3.354 0 5.616 2.546 5.616 6.574 0 4-2.262 6.599-5.616 6.599-1.767 0-3.353-.91-4.368-2.339Zm8.528-4.26c0-3.04-1.585-5.353-4.393-5.353-1.741 0-3.405 1.04-4.135 2.234v6.209c.728 1.195 2.392 2.286 4.134 2.286 2.809.002 4.394-2.337 4.394-5.377ZM68.459 17.531l.806-.987c.806 1.014 2.288 1.844 4.055 1.844 2.106 0 3.354-1.09 3.354-2.546 0-3.43-7.93-1.48-7.93-6.001 0-1.923 1.639-3.482 4.472-3.482 2.158 0 3.588.832 4.498 1.845l-.754.96c-.728-.987-2.08-1.663-3.743-1.663-1.95 0-3.12.988-3.12 2.287 0 3.143 7.903 1.22 7.903 6.053 0 2.026-1.56 3.69-4.705 3.69-2.029 0-3.588-.597-4.836-2ZM21.067 6.63a6.708 6.708 0 0 0-6.71 6.705 6.708 6.708 0 0 0 6.71 6.706 6.708 6.708 0 0 0 6.71-6.706 6.708 6.708 0 0 0-6.71-6.705Zm-.01 10.613a3.889 3.889 0 1 1 0-7.776 3.889 3.889 0 1 1 0 7.776Z" fill="#000"/><path d="M22.575 13.107c-.105-.115-1.411-1.259-1.863-1.46-.208-.092-.373-.004-.45.219a1.56 1.56 0 0 0-.058.282c-.038.301-.053.747-.052 1.187-.001.441.014.886.052 1.187.01.096.03.19.058.283.077.222.242.31.45.218.452-.2 1.758-1.345 1.863-1.46.06-.065.108-.138.104-.228.004-.09-.044-.162-.104-.228Z" fill="#DC491C"/><path d="M6.71 6.668a6.682 6.682 0 0 0-3.88 1.234V.314A.315.315 0 0 0 2.516 0H.314A.315.315 0 0 0 0 .314v13.058a6.708 6.708 0 0 0 6.71 6.706 6.708 6.708 0 0 0 6.71-6.706 6.707 6.707 0 0 0-6.71-6.704ZM6.7 17.28a3.888 3.888 0 0 1-3.89-3.887l.02-.398a3.89 3.89 0 0 1 3.87-3.49 3.889 3.889 0 1 1 0 7.776Z" fill="#000"/><path d="M6.753 6.667c-1.446 0-2.82.42-3.928 1.234l.016 5.03c.283-2.01 1.916-3.425 3.902-3.426" fill="#000"/></svg>