<svg width="1518" height="351" viewBox="0 0 1518 351" fill="none" xmlns="http://www.w3.org/2000/svg">
<g clip-path="url(#clip0_1_4977)">
<path d="M97.91 261.16H109.76C111.53 261.15 112.96 259.72 112.97 257.95V234.06C112.97 232.49 111.81 231.17 110.26 230.95L11.78 216.8C10.05 216.62 8.47998 217.8 8.16998 219.51V243.1C8.18998 244.84 9.61998 246.23 11.36 246.21C11.36 246.21 11.38 246.21 11.39 246.21H83.06L10.79 260.66C9.25998 260.96 8.15998 262.31 8.17998 263.87V318.08C8.15998 319.83 9.55998 321.27 11.31 321.29C11.34 321.29 11.36 321.29 11.39 321.29H11.89L110.26 306.54C111.81 306.33 112.97 305 112.97 303.43V278.73C112.96 277.93 112.79 277.15 112.47 276.42C112.13 275.69 111.69 275.02 111.16 274.41L97.91 261.16Z" fill="black"/>
<path d="M279.49 247.71C259.48 247.84 243.36 264.14 243.44 284.15V284.45C242.72 304.35 258.27 321.05 278.17 321.77C298.07 322.49 314.77 306.94 315.49 287.04C315.5 286.71 315.51 286.38 315.51 286.06V284.45C315.8 264.45 299.81 248 279.81 247.71H279.79H279.49ZM279.49 311.64C264.91 311.26 253.41 299.14 253.79 284.56C253.79 284.52 253.79 284.48 253.79 284.44C252.99 270.22 263.86 258.04 278.08 257.24C292.3 256.44 304.48 267.31 305.28 281.53V284.44C305.71 299.01 294.26 311.18 279.68 311.64H279.48" fill="black"/>
<path d="M358.18 311.64C344.93 311.64 333.19 299.9 333.19 284.44C333.19 268.98 344.93 257.24 358.18 257.24C366.75 257.5 374.67 261.87 379.46 268.98L386.79 261.65C379.74 253.01 369.24 247.91 358.08 247.7C337.79 248.5 321.99 265.6 322.79 285.89C323.55 305.06 338.91 320.42 358.08 321.18C369.55 320.75 380.28 315.37 387.49 306.43L380.16 299.8C375.03 306.9 366.93 311.26 358.18 311.64Z" fill="black"/>
<path d="M408.98 216.79H398.64V319.68H408.98V216.79Z" fill="black"/>
<path d="M430.96 221.51C427.3 221.51 424.33 224.48 424.33 228.14C424.33 231.8 427.3 234.77 430.96 234.77C434.62 234.77 437.59 231.8 437.59 228.14C437.63 224.52 434.73 221.55 431.11 221.51C431.06 221.51 431.01 221.51 430.97 221.51" fill="black"/>
<path d="M436.08 249.11H425.84V319.67H436.08V249.11Z" fill="black"/>
<path d="M485.36 247.71C475.87 247.61 466.88 251.95 461.07 259.45V249.11H450.83V350.59H461.17V309.43C467 316.91 475.98 321.25 485.46 321.17C504.53 321.17 519.99 305.71 519.99 284.43C519.99 263.15 504.53 247.71 485.36 247.71ZM485.36 311.65C472.81 311.65 461.07 299.91 461.07 284.45C461.07 268.99 472.81 257.25 485.36 257.25C498.61 257.25 509.65 268.29 509.65 284.45C509.65 300.61 498.61 311.65 485.36 311.65Z" fill="black"/>
<path d="M538.96 267.48C538.96 262.36 544.08 257.14 552.21 257.14C558.2 257.13 563.88 259.82 567.67 264.47L575 257.14C569.05 250.94 560.8 247.49 552.22 247.6C538.27 247.6 528.73 257.14 528.73 267.48C528.73 291.77 566.96 283.64 566.96 299.8C566.96 306.43 561.84 311.54 551.5 311.54C544.13 311.14 537.35 307.36 533.13 301.3L525.81 308.63C531.86 316.69 541.43 321.33 551.5 321.08C567.66 321.08 577.19 311.54 577.19 299.8C577.29 274.91 539.05 282.94 538.96 267.48Z" fill="black"/>
<path d="M162.15 216.79H201.9C218.76 216.79 230.61 228.53 230.61 243.28C230.85 249.42 228.73 255.42 224.69 260.04C223.03 261.92 221.02 263.46 218.77 264.58C221.85 266.07 224.69 268 227.2 270.31C232.72 275.48 235.81 282.72 235.73 290.28C235.73 307.14 223.28 319.69 204.11 319.69H162.16V216.78L162.15 216.79ZM201.8 260.05C212.94 260.05 219.47 253.73 219.47 243.29C219.47 233.75 213.05 227.13 201.8 227.13H173.09V260.05H201.8ZM204.01 309.44C216.46 309.44 224.59 301.52 224.59 290.37C224.89 279.3 216.16 270.09 205.09 269.79C204.73 269.79 204.37 269.79 204.01 269.79H173.09V309.44H204.01Z" fill="black"/>
<path d="M82.66 167.08C67.75 167.08 53.93 163.31 41.2 155.77C28.47 148.23 18.42 138.06 11.05 125.25C3.68 112.43 0 98.49 0 83.41C0 68.33 3.68 54.43 11.05 41.7C18.42 28.97 28.47 18.84 41.2 11.3C53.93 3.77 67.75 0 82.66 0C94.22 0 105.31 2.39 115.95 7.16C126.58 11.93 135.92 18.68 143.96 27.39L135.17 35.18C128.47 27.64 120.55 21.78 111.43 17.59C102.3 13.4 92.71 11.31 82.66 11.31C69.76 11.31 57.87 14.54 46.98 20.98C36.09 27.43 27.42 36.18 20.98 47.23C14.53 58.28 11.31 70.34 11.31 83.41C11.31 96.48 14.53 108.53 20.98 119.59C27.43 130.64 36.09 139.4 46.98 145.84C57.87 152.29 69.76 155.51 82.66 155.51C93.38 155.51 103.55 153.17 113.19 148.47C122.82 143.78 131.07 137.25 137.94 128.87L146.98 135.9C139.1 145.78 129.56 153.45 118.34 158.89C107.12 164.34 95.23 167.06 82.66 167.06V167.08Z" fill="black"/>
<path d="M183.65 165.32V2.01001H194.96V154.01H286.66V165.32H183.65Z" fill="black"/>
<path d="M351.23 123.86L331.88 165.31H319.32L396.2 0L468.81 165.32H456.5L438.16 123.87H351.23V123.86ZM395.7 27.89L356.51 112.56H433.14L395.71 27.89H395.7Z" fill="black"/>
<path d="M606.61 102.13C610.88 108.41 613.02 115.16 613.02 122.35C613.02 128.55 611.51 134.45 608.5 140.06C605.49 145.67 601.13 150.57 595.44 154.76C583.71 163.14 570.06 167.32 554.49 167.32C546.78 167.32 539.41 166.23 532.38 164.05C525.35 161.88 519.06 158.77 513.54 154.76C503.99 147.72 498.21 139.1 496.2 128.88L507 122.85C507.5 132.06 512.03 139.6 520.57 145.46C524.92 148.81 530.03 151.36 535.9 153.12C541.76 154.88 547.96 155.76 554.49 155.76C567.89 155.76 579.19 152.33 588.41 145.46C597.29 138.93 601.73 131.23 601.73 122.35C601.73 117.16 600.1 112.3 596.83 107.78C593.56 103.26 589 99.41 583.14 96.22C577.61 93.37 567.73 91.11 553.49 89.44C552.32 89.27 548.09 88.6 540.8 87.43C533.51 86.26 527.27 84.42 522.08 81.9C513.87 77.88 507.42 72.57 502.73 65.95C498.04 59.34 495.7 52.18 495.7 44.47C495.7 38.28 497.25 32.45 500.35 27.01C503.45 21.57 507.84 16.75 513.54 12.56C519.07 8.53999 525.35 5.43999 532.38 3.25999C539.41 1.08999 546.78 -0.0100098 554.49 -0.0100098C570.07 -0.0100098 583.72 4.17999 595.44 12.55C605.15 19.92 610.85 28.46 612.52 38.18L601.72 44.21C601.55 40.03 600.34 36.01 598.08 32.15C595.82 28.3 592.59 24.78 588.41 21.6C583.89 18.25 578.69 15.7 572.83 13.94C566.96 12.18 560.85 11.3 554.49 11.3C548.13 11.3 541.97 12.18 536.02 13.94C530.07 15.7 524.92 18.25 520.57 21.6C516.21 24.78 512.86 28.34 510.52 32.28C508.17 36.22 507 40.28 507 44.47C507 49.66 508.92 54.81 512.78 59.92C516.63 65.03 521.4 69.01 527.1 71.85C530.62 73.53 534.51 74.74 538.78 75.49C543.05 76.24 548.53 77.04 555.24 77.88C556.41 78.05 559.34 78.47 564.03 79.14C568.72 79.81 573.24 80.73 577.6 81.9C581.95 83.07 585.64 84.5 588.65 86.17C596.35 90.53 602.34 95.84 606.61 102.12V102.13Z" fill="black"/>
<path d="M761.63 102.13C765.9 108.41 768.04 115.16 768.04 122.35C768.04 128.55 766.53 134.45 763.52 140.06C760.5 145.67 756.15 150.57 750.46 154.76C738.73 163.14 725.08 167.32 709.51 167.32C701.8 167.32 694.44 166.23 687.4 164.05C680.36 161.88 674.09 158.77 668.56 154.76C659.01 147.72 653.23 139.1 651.22 128.88L662.02 122.85C662.52 132.06 667.05 139.6 675.59 145.46C679.94 148.81 685.05 151.36 690.92 153.12C696.78 154.88 702.98 155.76 709.51 155.76C722.91 155.76 734.22 152.33 743.43 145.46C752.31 138.93 756.75 131.23 756.75 122.35C756.75 117.16 755.12 112.3 751.85 107.78C748.58 103.26 744.02 99.41 738.16 96.22C732.63 93.37 722.75 91.11 708.51 89.44C707.34 89.27 703.11 88.6 695.82 87.43C688.53 86.26 682.29 84.42 677.1 81.9C668.89 77.88 662.44 72.57 657.75 65.95C653.06 59.34 650.72 52.18 650.72 44.47C650.72 38.28 652.27 32.45 655.37 27.01C658.47 21.57 662.86 16.75 668.56 12.56C674.09 8.53999 680.37 5.43999 687.4 3.25999C694.44 1.08999 701.8 -0.0100098 709.51 -0.0100098C725.09 -0.0100098 738.74 4.17999 750.46 12.55C760.17 19.92 765.87 28.46 767.54 38.18L756.74 44.21C756.57 40.03 755.36 36.01 753.1 32.15C750.84 28.3 747.61 24.78 743.43 21.6C738.91 18.25 733.71 15.7 727.85 13.94C721.98 12.18 715.87 11.3 709.51 11.3C703.15 11.3 696.99 12.18 691.04 13.94C685.09 15.7 679.94 18.25 675.59 21.6C671.23 24.78 667.88 28.34 665.54 32.28C663.19 36.22 662.02 40.28 662.02 44.47C662.02 49.66 663.94 54.81 667.8 59.92C671.65 65.03 676.42 69.01 682.12 71.85C685.64 73.53 689.53 74.74 693.8 75.49C698.07 76.24 703.56 77.04 710.26 77.88C711.43 78.05 714.36 78.47 719.05 79.14C723.74 79.81 728.26 80.73 732.62 81.9C736.97 83.07 740.66 84.5 743.67 86.17C751.37 90.53 757.36 95.84 761.63 102.12V102.13Z" fill="black"/>
<path d="M906.97 165.32L839.13 82.91H859.23C871.62 82.91 881.67 81.32 889.38 78.14C895.07 75.46 900.01 71.4 904.2 65.95C908.38 60.51 910.48 54.52 910.48 47.99C910.48 42.13 908.72 36.56 905.2 31.28C901.68 26 896.66 21.69 890.12 18.34C883.59 14.99 876.05 13.32 867.51 13.32H821.78V165.32H810.47V2.01001H867.5C875.2 2.01001 882.41 3.23001 889.11 5.65001C895.81 8.08001 901.67 11.55 906.7 16.08C911.56 20.44 915.28 25.38 917.88 30.9C920.47 36.43 921.77 42.12 921.77 47.98C921.77 57.19 919.01 65.44 913.48 72.73C907.95 80.02 901.42 85.25 893.88 88.43C888.69 90.78 883.62 92.24 878.68 92.83C873.74 93.42 868.5 93.71 862.98 93.71L922.02 165.31H906.95L906.97 165.32Z" fill="black"/>
<path d="M1035.6 167.08C1020.69 167.08 1006.87 163.35 994.14 155.9C981.41 148.45 971.36 138.31 963.99 125.5C956.62 112.69 952.94 98.74 952.94 83.67C952.94 68.6 956.62 54.65 963.99 41.84C971.36 29.03 981.41 18.89 994.14 11.44C1006.87 3.99001 1020.68 0.26001 1035.6 0.26001C1050.52 0.26001 1064.32 3.99001 1077.05 11.44C1089.78 18.9 1099.83 29.03 1107.2 41.84C1114.57 54.65 1118.25 68.6 1118.25 83.67C1118.25 98.74 1114.56 112.69 1107.2 125.5C1099.83 138.31 1089.78 148.45 1077.05 155.9C1064.32 163.35 1050.5 167.08 1035.6 167.08ZM1035.6 11.81C1022.7 11.81 1010.81 15.04 999.92 21.48C989.03 27.93 980.36 36.64 973.92 47.61C967.47 58.58 964.25 70.6 964.25 83.66C964.25 96.72 967.47 108.74 973.92 119.71C980.37 130.68 989.03 139.39 999.92 145.84C1010.81 152.29 1022.7 155.51 1035.6 155.51C1048.5 155.51 1060.39 152.29 1071.28 145.84C1082.17 139.39 1090.79 130.68 1097.16 119.71C1103.52 108.74 1106.71 96.72 1106.71 83.66C1106.71 70.6 1103.53 58.58 1097.16 47.61C1090.79 36.64 1082.17 27.93 1071.28 21.48C1060.39 15.03 1048.5 11.81 1035.6 11.81Z" fill="black"/>
<path d="M1229.56 167.08C1214.65 167.08 1200.83 163.35 1188.1 155.9C1175.37 148.45 1165.32 138.31 1157.95 125.5C1150.58 112.69 1146.9 98.74 1146.9 83.67C1146.9 68.6 1150.58 54.65 1157.95 41.84C1165.32 29.03 1175.37 18.89 1188.1 11.44C1200.83 3.99001 1214.64 0.26001 1229.56 0.26001C1244.48 0.26001 1258.28 3.99001 1271.01 11.44C1283.74 18.9 1293.79 29.03 1301.16 41.84C1308.53 54.65 1312.21 68.6 1312.21 83.67C1312.21 98.74 1308.52 112.69 1301.16 125.5C1293.79 138.31 1283.74 148.45 1271.01 155.9C1258.28 163.35 1244.46 167.08 1229.56 167.08ZM1229.56 11.81C1216.66 11.81 1204.77 15.04 1193.88 21.48C1182.99 27.93 1174.32 36.64 1167.88 47.61C1161.43 58.58 1158.21 70.6 1158.21 83.66C1158.21 96.72 1161.43 108.74 1167.88 119.71C1174.33 130.68 1182.99 139.39 1193.88 145.84C1204.77 152.29 1216.66 155.51 1229.56 155.51C1242.46 155.51 1254.35 152.29 1265.24 145.84C1276.13 139.39 1284.75 130.68 1291.12 119.71C1297.48 108.74 1300.67 96.72 1300.67 83.66C1300.67 70.6 1297.49 58.58 1291.12 47.61C1284.75 36.64 1276.13 27.93 1265.24 21.48C1254.35 15.03 1242.46 11.81 1229.56 11.81Z" fill="black"/>
<path d="M1505.92 165.32V36.18L1433.56 139.44L1360.2 35.93V165.32H1348.89V0L1433.56 119.59L1517.22 0V165.32H1505.91H1505.92Z" fill="black"/>
</g>
<defs>
<clipPath id="clip0_1_4977">
<rect width="1517.22" height="350.59" fill="white"/>
</clipPath>
</defs>
</svg>
