<svg width="20" height="22" viewBox="0 0 20 22" fill="none" xmlns="http://www.w3.org/2000/svg">
<path d="M13.75 16.25V19.625C13.75 20.246 13.246 20.75 12.625 20.75H2.875C2.57663 20.75 2.29048 20.6315 2.0795 20.4205C1.86853 20.2095 1.75 19.9234 1.75 19.625V6.875C1.75 6.254 2.254 5.75 2.875 5.75H4.75C5.25257 5.74966 5.7543 5.79114 6.25 5.874M13.75 16.25H17.125C17.746 16.25 18.25 15.746 18.25 15.125V10.25C18.25 5.79 15.007 2.089 10.75 1.374C10.2543 1.29114 9.75257 1.24966 9.25 1.25H7.375C6.754 1.25 6.25 1.754 6.25 2.375V5.875M13.75 16.25H7.375C7.07663 16.25 6.79048 16.1315 6.5795 15.9205C6.36853 15.7095 6.25 15.4234 6.25 15.125V5.875M18.25 12.5V10.625C18.25 9.7299 17.8944 8.87145 17.2615 8.23852C16.6286 7.60558 15.7701 7.25 14.875 7.25H13.375C13.0766 7.25 12.7905 7.13148 12.5795 6.9205C12.3685 6.70952 12.25 6.42337 12.25 6.125V4.625C12.25 4.18179 12.1627 3.74292 11.9931 3.33345C11.8235 2.92397 11.5749 2.55191 11.2615 2.23852C10.9481 1.92512 10.576 1.67652 10.1666 1.50691C9.75708 1.3373 9.31821 1.25 8.875 1.25H7.75" stroke="#2D3748" stroke-width="2" stroke-linecap="round" stroke-linejoin="round"/>
</svg>
