<svg role="img" width="20" height="20" viewBox="0 0 20 20" fill="none" aria-hidden="true"  xmlns="http://www.w3.org/2000/svg">
    <path d="M11.8772 8.12285C11.127 7.37296 10.1098 6.9517 9.04915 6.9517C7.9885 6.9517 6.97126 7.37296 6.22115 8.12285L2.22115 12.1228C1.83911 12.4918 1.53438 12.9332 1.32475 13.4212C1.11511 13.9092 1.00477 14.4341 1.00015 14.9652C0.995536 15.4964 1.09674 16.0231 1.29787 16.5147C1.49899 17.0062 1.796 17.4529 2.17157 17.8284C2.54714 18.204 2.99375 18.501 3.48534 18.7021C3.97692 18.9033 4.50364 19.0045 5.03476 18.9998C5.56587 18.9952 6.09076 18.8849 6.57877 18.6753C7.06679 18.4656 7.50817 18.1609 7.87715 17.7788L8.97915 16.6778M8.22115 11.7788C8.97126 12.5287 9.9885 12.95 11.0492 12.95C12.1098 12.95 13.127 12.5287 13.8772 11.7788L17.8772 7.77885C18.6058 7.02444 19.009 6.01403 18.9998 4.96524C18.9907 3.91646 18.5701 2.91321 17.8284 2.17157C17.0868 1.42994 16.0835 1.00926 15.0348 1.00015C13.986 0.991038 12.9756 1.39422 12.2212 2.12285L11.1212 3.22285"  stroke-linecap="round" stroke-linejoin="round"/>
</svg>
