<svg width="116" height="46" viewBox="0 0 116 46" fill="none" xmlns="http://www.w3.org/2000/svg">
<path d="M6.28622 20.18C5.17022 20.18 4.22222 19.988 3.44222 19.604C2.67422 19.208 2.08622 18.65 1.67822 17.93C1.27022 17.198 1.04222 16.322 0.994217 15.302C0.982217 14.81 0.976217 14.282 0.976217 13.718C0.976217 13.154 0.982217 12.614 0.994217 12.098C1.04222 11.09 1.27022 10.22 1.67822 9.488C2.09822 8.756 2.69222 8.198 3.46022 7.814C4.24022 7.418 5.18222 7.22 6.28622 7.22C7.10222 7.22 7.83422 7.328 8.48222 7.544C9.13022 7.76 9.68222 8.06 10.1382 8.444C10.5942 8.816 10.9482 9.254 11.2002 9.758C11.4522 10.262 11.5842 10.808 11.5962 11.396C11.6082 11.504 11.5722 11.594 11.4882 11.666C11.4162 11.738 11.3262 11.774 11.2182 11.774H9.50822C9.37622 11.774 9.26822 11.744 9.18422 11.684C9.10022 11.612 9.04022 11.498 9.00422 11.342C8.81222 10.55 8.48222 10.01 8.01422 9.722C7.54622 9.434 6.96422 9.29 6.26822 9.29C5.46422 9.29 4.82222 9.518 4.34222 9.974C3.86222 10.418 3.60422 11.156 3.56822 12.188C3.53222 13.172 3.53222 14.18 3.56822 15.212C3.60422 16.244 3.86222 16.988 4.34222 17.444C4.82222 17.888 5.46422 18.11 6.26822 18.11C6.96422 18.11 7.54622 17.966 8.01422 17.678C8.48222 17.378 8.81222 16.838 9.00422 16.058C9.04022 15.89 9.10022 15.776 9.18422 15.716C9.26822 15.656 9.37622 15.626 9.50822 15.626H11.2182C11.3262 15.626 11.4162 15.662 11.4882 15.734C11.5722 15.806 11.6082 15.896 11.5962 16.004C11.5842 16.592 11.4522 17.138 11.2002 17.642C10.9482 18.146 10.5942 18.59 10.1382 18.974C9.68222 19.346 9.13022 19.64 8.48222 19.856C7.83422 20.072 7.10222 20.18 6.28622 20.18ZM17.6765 20.18C16.7165 20.18 15.9065 20.012 15.2465 19.676C14.5985 19.34 14.1005 18.866 13.7525 18.254C13.4165 17.642 13.2245 16.928 13.1765 16.112C13.1645 15.896 13.1585 15.632 13.1585 15.32C13.1585 15.008 13.1645 14.744 13.1765 14.528C13.2245 13.7 13.4225 12.986 13.7705 12.386C14.1305 11.774 14.6345 11.3 15.2825 10.964C15.9425 10.628 16.7405 10.46 17.6765 10.46C18.6125 10.46 19.4045 10.628 20.0525 10.964C20.7125 11.3 21.2165 11.774 21.5645 12.386C21.9245 12.986 22.1285 13.7 22.1765 14.528C22.1885 14.744 22.1945 15.008 22.1945 15.32C22.1945 15.632 22.1885 15.896 22.1765 16.112C22.1285 16.928 21.9305 17.642 21.5825 18.254C21.2465 18.866 20.7485 19.34 20.0885 19.676C19.4405 20.012 18.6365 20.18 17.6765 20.18ZM17.6765 18.398C18.3125 18.398 18.8045 18.2 19.1525 17.804C19.5005 17.396 19.6925 16.802 19.7285 16.022C19.7405 15.842 19.7465 15.608 19.7465 15.32C19.7465 15.032 19.7405 14.798 19.7285 14.618C19.6925 13.85 19.5005 13.262 19.1525 12.854C18.8045 12.446 18.3125 12.242 17.6765 12.242C17.0405 12.242 16.5485 12.446 16.2005 12.854C15.8525 13.262 15.6605 13.85 15.6245 14.618C15.6125 14.798 15.6065 15.032 15.6065 15.32C15.6065 15.608 15.6125 15.842 15.6245 16.022C15.6605 16.802 15.8525 17.396 16.2005 17.804C16.5485 18.2 17.0405 18.398 17.6765 18.398ZM27.6844 20.18C26.9524 20.18 26.3164 20.018 25.7764 19.694C25.2484 19.358 24.8404 18.89 24.5524 18.29C24.2644 17.678 24.1204 16.958 24.1204 16.13V11.072C24.1204 10.952 24.1624 10.85 24.2464 10.766C24.3304 10.682 24.4324 10.64 24.5524 10.64H26.1364C26.2684 10.64 26.3704 10.682 26.4424 10.766C26.5264 10.85 26.5684 10.952 26.5684 11.072V16.022C26.5684 17.51 27.2224 18.254 28.5304 18.254C29.1544 18.254 29.6464 18.056 30.0064 17.66C30.3784 17.264 30.5644 16.718 30.5644 16.022V11.072C30.5644 10.952 30.6064 10.85 30.6904 10.766C30.7744 10.682 30.8764 10.64 30.9964 10.64H32.5804C32.7004 10.64 32.8024 10.682 32.8864 10.766C32.9704 10.85 33.0124 10.952 33.0124 11.072V19.568C33.0124 19.688 32.9704 19.79 32.8864 19.874C32.8024 19.958 32.7004 20 32.5804 20H31.1224C30.9904 20 30.8824 19.958 30.7984 19.874C30.7264 19.79 30.6904 19.688 30.6904 19.568V18.83C30.3664 19.25 29.9644 19.58 29.4844 19.82C29.0044 20.06 28.4044 20.18 27.6844 20.18ZM35.8437 20C35.7237 20 35.6217 19.958 35.5377 19.874C35.4537 19.79 35.4117 19.688 35.4117 19.568V11.09C35.4117 10.958 35.4537 10.85 35.5377 10.766C35.6217 10.682 35.7237 10.64 35.8437 10.64H37.3017C37.4217 10.64 37.5237 10.682 37.6077 10.766C37.7037 10.85 37.7517 10.958 37.7517 11.09V11.828C38.0277 11.444 38.3817 11.15 38.8137 10.946C39.2577 10.742 39.7677 10.64 40.3437 10.64H41.0817C41.2137 10.64 41.3157 10.682 41.3877 10.766C41.4717 10.85 41.5137 10.952 41.5137 11.072V12.368C41.5137 12.488 41.4717 12.59 41.3877 12.674C41.3157 12.758 41.2137 12.8 41.0817 12.8H39.6777C39.1017 12.8 38.6517 12.962 38.3277 13.286C38.0157 13.61 37.8597 14.054 37.8597 14.618V19.568C37.8597 19.688 37.8177 19.79 37.7337 19.874C37.6497 19.958 37.5417 20 37.4097 20H35.8437ZM46.4852 20.18C45.7652 20.18 45.1472 20.096 44.6312 19.928C44.1272 19.76 43.7132 19.55 43.3892 19.298C43.0652 19.046 42.8252 18.794 42.6692 18.542C42.5132 18.29 42.4292 18.08 42.4172 17.912C42.4052 17.78 42.4412 17.678 42.5252 17.606C42.6212 17.522 42.7232 17.48 42.8312 17.48H44.2532C44.3012 17.48 44.3432 17.486 44.3792 17.498C44.4152 17.51 44.4632 17.546 44.5232 17.606C44.6792 17.738 44.8412 17.876 45.0092 18.02C45.1892 18.164 45.3992 18.29 45.6392 18.398C45.8792 18.494 46.1792 18.542 46.5392 18.542C47.0072 18.542 47.3972 18.452 47.7092 18.272C48.0332 18.08 48.1952 17.81 48.1952 17.462C48.1952 17.21 48.1232 17.006 47.9792 16.85C47.8472 16.694 47.5952 16.556 47.2232 16.436C46.8512 16.304 46.3232 16.166 45.6392 16.022C44.9672 15.866 44.4092 15.668 43.9652 15.428C43.5212 15.188 43.1912 14.888 42.9752 14.528C42.7592 14.168 42.6512 13.748 42.6512 13.268C42.6512 12.8 42.7892 12.356 43.0652 11.936C43.3532 11.504 43.7732 11.15 44.3252 10.874C44.8892 10.598 45.5852 10.46 46.4132 10.46C47.0612 10.46 47.6252 10.544 48.1052 10.712C48.5852 10.868 48.9812 11.066 49.2932 11.306C49.6172 11.546 49.8632 11.792 50.0312 12.044C50.1992 12.284 50.2892 12.494 50.3012 12.674C50.3132 12.806 50.2772 12.914 50.1932 12.998C50.1092 13.07 50.0132 13.106 49.9052 13.106H48.5732C48.5132 13.106 48.4592 13.094 48.4112 13.07C48.3632 13.046 48.3152 13.016 48.2672 12.98C48.1352 12.86 47.9912 12.734 47.8352 12.602C47.6792 12.47 47.4872 12.356 47.2592 12.26C47.0432 12.152 46.7552 12.098 46.3952 12.098C45.9392 12.098 45.5912 12.2 45.3512 12.404C45.1112 12.596 44.9912 12.842 44.9912 13.142C44.9912 13.346 45.0452 13.526 45.1532 13.682C45.2732 13.826 45.5072 13.964 45.8552 14.096C46.2032 14.228 46.7312 14.366 47.4392 14.51C48.2432 14.654 48.8792 14.87 49.3472 15.158C49.8272 15.434 50.1632 15.758 50.3552 16.13C50.5592 16.49 50.6612 16.892 50.6612 17.336C50.6612 17.876 50.4992 18.362 50.1752 18.794C49.8632 19.226 49.3952 19.568 48.7712 19.82C48.1592 20.06 47.3972 20.18 46.4852 20.18ZM56.5729 20.18C55.2409 20.18 54.1849 19.796 53.4049 19.028C52.6249 18.26 52.2049 17.168 52.1449 15.752C52.1329 15.632 52.1269 15.482 52.1269 15.302C52.1269 15.11 52.1329 14.96 52.1449 14.852C52.1929 13.952 52.3969 13.172 52.7569 12.512C53.1289 11.852 53.6389 11.348 54.2869 11C54.9349 10.64 55.6969 10.46 56.5729 10.46C57.5449 10.46 58.3609 10.664 59.0209 11.072C59.6809 11.468 60.1789 12.026 60.5149 12.746C60.8509 13.454 61.0189 14.276 61.0189 15.212V15.59C61.0189 15.71 60.9769 15.812 60.8929 15.896C60.8089 15.98 60.7009 16.022 60.5689 16.022H54.5929C54.5929 16.022 54.5929 16.04 54.5929 16.076C54.5929 16.112 54.5929 16.142 54.5929 16.166C54.6049 16.586 54.6829 16.976 54.8269 17.336C54.9829 17.684 55.2049 17.966 55.4929 18.182C55.7929 18.398 56.1469 18.506 56.5549 18.506C56.8909 18.506 57.1729 18.458 57.4009 18.362C57.6289 18.254 57.8149 18.134 57.9589 18.002C58.1029 17.87 58.2049 17.762 58.2649 17.678C58.3729 17.534 58.4569 17.45 58.5169 17.426C58.5889 17.39 58.6909 17.372 58.8229 17.372H60.3709C60.4909 17.372 60.5869 17.408 60.6589 17.48C60.7429 17.552 60.7789 17.642 60.7669 17.75C60.7549 17.942 60.6529 18.176 60.4609 18.452C60.2809 18.728 60.0169 18.998 59.6689 19.262C59.3209 19.526 58.8829 19.748 58.3549 19.928C57.8389 20.096 57.2449 20.18 56.5729 20.18ZM54.5929 14.51H58.5709V14.456C58.5709 13.988 58.4929 13.58 58.3369 13.232C58.1809 12.884 57.9529 12.608 57.6529 12.404C57.3529 12.2 56.9929 12.098 56.5729 12.098C56.1529 12.098 55.7929 12.2 55.4929 12.404C55.1929 12.608 54.9649 12.884 54.8089 13.232C54.6649 13.58 54.5929 13.988 54.5929 14.456V14.51ZM67.5411 20.18C66.4251 20.18 65.4891 20.018 64.7331 19.694C63.9891 19.358 63.4191 18.926 63.0231 18.398C62.6391 17.858 62.4351 17.294 62.4111 16.706C62.4111 16.598 62.4471 16.508 62.5191 16.436C62.5911 16.364 62.6811 16.328 62.7891 16.328H64.3911C64.5471 16.328 64.6611 16.364 64.7331 16.436C64.8171 16.496 64.8891 16.574 64.9491 16.67C65.0211 16.898 65.1591 17.126 65.3631 17.354C65.5671 17.57 65.8431 17.75 66.1911 17.894C66.5511 18.038 67.0011 18.11 67.5411 18.11C68.4051 18.11 69.0471 17.966 69.4671 17.678C69.8991 17.39 70.1151 17 70.1151 16.508C70.1151 16.16 70.0011 15.884 69.7731 15.68C69.5451 15.464 69.1911 15.272 68.7111 15.104C68.2431 14.924 67.6191 14.738 66.8391 14.546C65.9391 14.33 65.1831 14.072 64.5711 13.772C63.9711 13.46 63.5151 13.07 63.2031 12.602C62.9031 12.134 62.7531 11.54 62.7531 10.82C62.7531 10.124 62.9391 9.506 63.3111 8.966C63.6951 8.426 64.2351 8 64.9311 7.688C65.6391 7.376 66.4791 7.22 67.4511 7.22C68.2311 7.22 68.9211 7.328 69.5211 7.544C70.1211 7.748 70.6191 8.024 71.0151 8.372C71.4111 8.708 71.7111 9.074 71.9151 9.47C72.1311 9.854 72.2451 10.232 72.2571 10.604C72.2571 10.7 72.2211 10.79 72.1491 10.874C72.0891 10.946 71.9991 10.982 71.8791 10.982H70.2051C70.1091 10.982 70.0131 10.958 69.9171 10.91C69.8211 10.862 69.7431 10.772 69.6831 10.64C69.6111 10.268 69.3771 9.95 68.9811 9.686C68.5851 9.422 68.0751 9.29 67.4511 9.29C66.8031 9.29 66.2811 9.41 65.8851 9.65C65.4891 9.89 65.2911 10.262 65.2911 10.766C65.2911 11.102 65.3871 11.384 65.5791 11.612C65.7831 11.828 66.1011 12.02 66.5331 12.188C66.9771 12.356 67.5591 12.536 68.2791 12.728C69.2991 12.956 70.1331 13.22 70.7811 13.52C71.4291 13.82 71.9031 14.204 72.2031 14.672C72.5031 15.128 72.6531 15.71 72.6531 16.418C72.6531 17.21 72.4371 17.888 72.0051 18.452C71.5851 19.004 70.9911 19.43 70.2231 19.73C69.4551 20.03 68.5611 20.18 67.5411 20.18ZM74.9716 23.42C74.8516 23.42 74.7496 23.378 74.6656 23.294C74.5816 23.21 74.5396 23.108 74.5396 22.988V11.072C74.5396 10.952 74.5816 10.85 74.6656 10.766C74.7496 10.682 74.8516 10.64 74.9716 10.64H76.3936C76.5256 10.64 76.6276 10.682 76.6996 10.766C76.7836 10.85 76.8256 10.952 76.8256 11.072V11.792C77.1136 11.408 77.4916 11.09 77.9596 10.838C78.4276 10.586 79.0096 10.46 79.7056 10.46C80.3416 10.46 80.8936 10.562 81.3616 10.766C81.8296 10.97 82.2196 11.264 82.5316 11.648C82.8436 12.02 83.0836 12.464 83.2516 12.98C83.4196 13.496 83.5156 14.066 83.5396 14.69C83.5516 14.894 83.5576 15.104 83.5576 15.32C83.5576 15.536 83.5516 15.752 83.5396 15.968C83.5276 16.568 83.4376 17.126 83.2696 17.642C83.1016 18.146 82.8556 18.59 82.5316 18.974C82.2196 19.346 81.8296 19.64 81.3616 19.856C80.8936 20.072 80.3416 20.18 79.7056 20.18C79.0576 20.18 78.5056 20.066 78.0496 19.838C77.5936 19.598 77.2216 19.286 76.9336 18.902V22.988C76.9336 23.108 76.8916 23.21 76.8076 23.294C76.7356 23.378 76.6336 23.42 76.5016 23.42H74.9716ZM79.0396 18.254C79.5556 18.254 79.9576 18.146 80.2456 17.93C80.5336 17.702 80.7376 17.408 80.8576 17.048C80.9896 16.688 81.0676 16.292 81.0916 15.86C81.1156 15.5 81.1156 15.14 81.0916 14.78C81.0676 14.348 80.9896 13.952 80.8576 13.592C80.7376 13.232 80.5336 12.944 80.2456 12.728C79.9576 12.5 79.5556 12.386 79.0396 12.386C78.5476 12.386 78.1456 12.5 77.8336 12.728C77.5336 12.956 77.3116 13.25 77.1676 13.61C77.0356 13.958 76.9576 14.318 76.9336 14.69C76.9216 14.906 76.9156 15.134 76.9156 15.374C76.9156 15.614 76.9216 15.848 76.9336 16.076C76.9456 16.436 77.0296 16.784 77.1856 17.12C77.3416 17.444 77.5696 17.714 77.8696 17.93C78.1696 18.146 78.5596 18.254 79.0396 18.254ZM88.3178 20.18C87.6938 20.18 87.1298 20.06 86.6258 19.82C86.1218 19.568 85.7198 19.238 85.4198 18.83C85.1318 18.41 84.9878 17.942 84.9878 17.426C84.9878 16.586 85.3238 15.92 85.9958 15.428C86.6798 14.924 87.5798 14.588 88.6958 14.42L91.1618 14.06V13.682C91.1618 13.178 91.0358 12.788 90.7838 12.512C90.5318 12.236 90.0998 12.098 89.4878 12.098C89.0558 12.098 88.7018 12.188 88.4258 12.368C88.1618 12.536 87.9638 12.764 87.8318 13.052C87.7358 13.208 87.5978 13.286 87.4178 13.286H85.9958C85.8638 13.286 85.7618 13.25 85.6898 13.178C85.6298 13.106 85.5998 13.01 85.5998 12.89C85.6118 12.698 85.6898 12.464 85.8338 12.188C85.9778 11.912 86.2058 11.648 86.5178 11.396C86.8298 11.132 87.2318 10.91 87.7238 10.73C88.2158 10.55 88.8098 10.46 89.5058 10.46C90.2618 10.46 90.8978 10.556 91.4138 10.748C91.9418 10.928 92.3618 11.174 92.6738 11.486C92.9858 11.798 93.2138 12.164 93.3578 12.584C93.5018 13.004 93.5738 13.448 93.5738 13.916V19.568C93.5738 19.688 93.5318 19.79 93.4478 19.874C93.3638 19.958 93.2618 20 93.1418 20H91.6838C91.5518 20 91.4438 19.958 91.3598 19.874C91.2878 19.79 91.2518 19.688 91.2518 19.568V18.866C91.0958 19.094 90.8858 19.31 90.6218 19.514C90.3578 19.706 90.0338 19.868 89.6498 20C89.2778 20.12 88.8338 20.18 88.3178 20.18ZM88.9298 18.47C89.3498 18.47 89.7278 18.38 90.0638 18.2C90.4118 18.02 90.6818 17.744 90.8738 17.372C91.0778 16.988 91.1798 16.508 91.1798 15.932V15.554L89.3798 15.842C88.6718 15.95 88.1438 16.124 87.7958 16.364C87.4478 16.604 87.2738 16.898 87.2738 17.246C87.2738 17.51 87.3518 17.738 87.5078 17.93C87.6758 18.11 87.8858 18.248 88.1378 18.344C88.3898 18.428 88.6538 18.47 88.9298 18.47ZM96.3366 20C96.2166 20 96.1146 19.958 96.0306 19.874C95.9466 19.79 95.9046 19.688 95.9046 19.568V11.09C95.9046 10.958 95.9466 10.85 96.0306 10.766C96.1146 10.682 96.2166 10.64 96.3366 10.64H97.7946C97.9146 10.64 98.0166 10.682 98.1006 10.766C98.1966 10.85 98.2446 10.958 98.2446 11.09V11.828C98.5206 11.444 98.8746 11.15 99.3066 10.946C99.7506 10.742 100.261 10.64 100.837 10.64H101.575C101.707 10.64 101.809 10.682 101.881 10.766C101.965 10.85 102.007 10.952 102.007 11.072V12.368C102.007 12.488 101.965 12.59 101.881 12.674C101.809 12.758 101.707 12.8 101.575 12.8H100.171C99.5946 12.8 99.1446 12.962 98.8206 13.286C98.5086 13.61 98.3526 14.054 98.3526 14.618V19.568C98.3526 19.688 98.3106 19.79 98.2266 19.874C98.1426 19.958 98.0346 20 97.9026 20H96.3366ZM103.882 20C103.762 20 103.66 19.958 103.576 19.874C103.492 19.79 103.45 19.688 103.45 19.568V7.652C103.45 7.532 103.492 7.43 103.576 7.346C103.66 7.262 103.762 7.22 103.882 7.22H105.34C105.472 7.22 105.574 7.262 105.646 7.346C105.73 7.43 105.772 7.532 105.772 7.652V13.808L108.796 10.946C108.904 10.85 109 10.778 109.084 10.73C109.168 10.67 109.294 10.64 109.462 10.64H111.136C111.256 10.64 111.352 10.676 111.424 10.748C111.496 10.82 111.532 10.916 111.532 11.036C111.532 11.084 111.52 11.138 111.496 11.198C111.472 11.258 111.424 11.312 111.352 11.36L107.644 14.834L111.802 19.298C111.922 19.418 111.982 19.52 111.982 19.604C111.982 19.724 111.94 19.82 111.856 19.892C111.784 19.964 111.694 20 111.586 20H109.876C109.696 20 109.564 19.976 109.48 19.928C109.408 19.868 109.318 19.79 109.21 19.694L105.772 16.076V19.568C105.772 19.688 105.73 19.79 105.646 19.874C105.574 19.958 105.472 20 105.34 20H103.882Z" fill="#2D3748"/>
<path d="M3.972 40.72C3.492 40.72 3.092 40.636 2.772 40.468C2.452 40.292 2.196 40.076 2.004 39.82V40.324C2.004 40.404 1.976 40.472 1.92 40.528C1.872 40.576 1.808 40.6 1.728 40.6H1.176C1.096 40.6 1.028 40.576 0.972 40.528C0.924 40.472 0.9 40.404 0.9 40.324V32.356C0.9 32.276 0.924 32.212 0.972 32.164C1.028 32.108 1.096 32.08 1.176 32.08H1.752C1.84 32.08 1.908 32.108 1.956 32.164C2.004 32.212 2.028 32.276 2.028 32.356V35.116C2.228 34.868 2.484 34.66 2.796 34.492C3.116 34.324 3.508 34.24 3.972 34.24C4.42 34.24 4.8 34.32 5.112 34.48C5.432 34.632 5.692 34.844 5.892 35.116C6.1 35.388 6.256 35.696 6.36 36.04C6.464 36.384 6.52 36.744 6.528 37.12C6.536 37.248 6.54 37.368 6.54 37.48C6.54 37.592 6.536 37.712 6.528 37.84C6.52 38.224 6.464 38.588 6.36 38.932C6.256 39.276 6.1 39.584 5.892 39.856C5.692 40.12 5.432 40.332 5.112 40.492C4.8 40.644 4.42 40.72 3.972 40.72ZM3.72 39.748C4.136 39.748 4.46 39.66 4.692 39.484C4.932 39.3 5.104 39.064 5.208 38.776C5.312 38.48 5.372 38.164 5.388 37.828C5.396 37.596 5.396 37.364 5.388 37.132C5.372 36.796 5.312 36.484 5.208 36.196C5.104 35.9 4.932 35.664 4.692 35.488C4.46 35.304 4.136 35.212 3.72 35.212C3.344 35.212 3.032 35.3 2.784 35.476C2.536 35.652 2.348 35.876 2.22 36.148C2.1 36.42 2.036 36.696 2.028 36.976C2.02 37.104 2.016 37.26 2.016 37.444C2.016 37.62 2.02 37.772 2.028 37.9C2.044 38.196 2.108 38.488 2.22 38.776C2.34 39.056 2.52 39.288 2.76 39.472C3.008 39.656 3.328 39.748 3.72 39.748ZM8.89674 42.88C8.83274 42.88 8.77674 42.856 8.72874 42.808C8.68074 42.76 8.65674 42.704 8.65674 42.64C8.65674 42.608 8.66074 42.576 8.66874 42.544C8.67674 42.512 8.69274 42.472 8.71674 42.424L9.64074 40.228L7.34874 34.816C7.30874 34.72 7.28874 34.652 7.28874 34.612C7.28874 34.54 7.31274 34.48 7.36074 34.432C7.40874 34.384 7.46874 34.36 7.54074 34.36H8.12874C8.20874 34.36 8.27274 34.38 8.32074 34.42C8.36874 34.46 8.40074 34.508 8.41674 34.564L10.2407 38.932L12.1127 34.564C12.1367 34.508 12.1687 34.46 12.2087 34.42C12.2567 34.38 12.3247 34.36 12.4127 34.36H12.9767C13.0487 34.36 13.1087 34.384 13.1567 34.432C13.2047 34.48 13.2287 34.536 13.2287 34.6C13.2287 34.64 13.2087 34.712 13.1687 34.816L9.76074 42.676C9.73674 42.732 9.70074 42.78 9.65274 42.82C9.61274 42.86 9.54874 42.88 9.46074 42.88H8.89674Z" fill="#2D3748"/>
<path d="M37.4346 37.9066C37.4346 35.5662 39.0018 33.7069 41.4209 33.7069C42.8519 33.7069 43.6695 34.2547 44.3339 35.068L43.7212 35.5992C43.1244 34.8027 42.3748 34.4875 41.472 34.4875C39.5469 34.4875 38.3715 35.9813 38.3715 37.9069C38.3715 39.8324 39.547 41.3428 41.472 41.3428C42.3748 41.3428 43.1244 41.0109 43.7206 40.2142L44.3334 40.7454C43.6687 41.5752 42.8513 42.1231 41.4203 42.1231C39.0018 42.1228 37.4346 40.2471 37.4346 37.9066Z" fill="black"/>
<path d="M46.3098 40.3798V30.8522H47.1956V40.247C47.1956 40.8947 47.4682 41.3425 48.0473 41.3425C48.4391 41.3425 48.7798 41.1604 48.9671 40.9607L49.3078 41.6247C48.9842 41.9234 48.5923 42.1227 47.9109 42.1227C46.8379 42.1228 46.3098 41.4754 46.3098 40.3798Z" fill="black"/>
<path d="M50.4324 31.9809C50.4324 31.6158 50.7561 31.3333 51.114 31.3333C51.4888 31.3333 51.7956 31.6154 51.7956 31.9809C51.7951 32.1569 51.7231 32.3254 51.5954 32.4499C51.4677 32.5743 51.2946 32.6444 51.114 32.6449C50.7562 32.6449 50.4324 32.3463 50.4324 31.9809ZM50.6713 41.9236V33.9064H51.5574V41.9236H50.6713Z" fill="black"/>
<path d="M55.2003 40.629V44.9778H54.3145V33.9067H55.2003V35.1682C55.7795 34.3549 56.8357 33.7075 58.0623 33.7075C60.2599 33.7075 61.742 35.3342 61.742 37.9073C61.742 40.4634 60.2599 42.1234 58.0623 42.1234C56.9044 42.1229 55.865 41.5419 55.2003 40.629ZM60.788 37.9068C60.788 35.9651 59.7494 34.4876 57.9094 34.4876C56.7686 34.4876 55.678 35.1513 55.2003 35.9145V39.8814C55.6773 40.645 56.7675 41.3421 57.909 41.3421C59.7494 41.3429 60.788 39.8489 60.788 37.9068Z" fill="black"/>
<path d="M63.2588 40.8447L63.7869 40.2139C64.3151 40.8616 65.2861 41.3925 66.4444 41.3925C67.8243 41.3925 68.642 40.6953 68.642 39.7658C68.642 37.5748 63.4462 38.8197 63.4462 35.9315C63.4462 34.7032 64.5194 33.7073 66.3763 33.7073C67.7902 33.7073 68.7272 34.2385 69.3234 34.8858L68.8295 35.4995C68.3524 34.8687 67.4666 34.4369 66.3764 34.4369C65.0989 34.4369 64.3321 35.0677 64.3321 35.8976C64.3321 37.9061 69.5109 36.6778 69.5109 39.7651C69.5109 41.0596 68.4888 42.1221 66.4278 42.1221C65.0984 42.1228 64.0765 41.741 63.2588 40.8447Z" fill="black"/>
<path d="M32.2046 33.88C29.7763 33.88 27.8079 35.798 27.8079 38.164C27.8079 40.5301 29.7763 42.4481 32.2046 42.4481C34.6329 42.4481 36.6015 40.5301 36.6015 38.164C36.6015 35.798 34.6329 33.88 32.2046 33.88ZM32.1982 40.6603C30.7903 40.6603 29.6491 39.5483 29.6491 38.1766C29.6491 36.8048 30.7903 35.6929 32.1982 35.6929C33.606 35.6929 34.7472 36.8048 34.7472 38.1766C34.7472 39.5483 33.606 40.6607 32.1982 40.6607V40.6603Z" fill="black"/>
<path d="M33.193 38.0184C33.124 37.9448 32.2684 37.2139 31.9723 37.0858C31.8357 37.0268 31.7279 37.0831 31.6771 37.2253C31.6589 37.2842 31.6463 37.3445 31.6395 37.4057C31.6144 37.5979 31.6045 37.8825 31.6055 38.164C31.6045 38.4457 31.6144 38.7301 31.6395 38.9224C31.6463 38.9836 31.6589 39.044 31.6771 39.1029C31.7279 39.245 31.8357 39.3014 31.9723 39.2423C32.2684 39.1143 33.124 38.3832 33.193 38.3098C33.2323 38.2678 33.2636 38.2214 33.2608 38.164C33.2636 38.1067 33.2323 38.0603 33.193 38.0184Z" fill="#DC491C"/>
<path d="M22.7966 33.904C21.8857 33.9026 20.9969 34.1782 20.2543 34.6924V29.8449C20.2542 29.7917 20.2324 29.7408 20.1938 29.7031C20.1552 29.6655 20.1029 29.6443 20.0483 29.6442H18.606C18.5513 29.6443 18.499 29.6655 18.4604 29.7032C18.4218 29.7408 18.4 29.7918 18.3999 29.845V38.1178C18.3999 38.1209 18.3999 38.1239 18.3999 38.1269C18.3999 38.1472 18.3999 38.1674 18.3999 38.1876C18.3999 40.5537 20.3684 42.4718 22.7966 42.4718C25.2249 42.4718 27.1934 40.5537 27.1934 38.1876C27.1934 35.8216 25.2249 33.904 22.7966 33.904ZM22.7902 40.6843C21.3824 40.6849 20.2408 39.5728 20.2408 38.201C20.2408 38.1965 20.2541 37.9463 20.2541 37.9463C20.385 36.6942 21.4704 35.7173 22.79 35.7173C24.1979 35.7173 25.3393 36.8293 25.3393 38.201C25.3393 39.5728 24.1979 40.6849 22.7902 40.6849V40.6843Z" fill="black"/>
<path d="M22.8249 33.9037C21.8777 33.9037 20.9769 34.1724 20.2515 34.692L20.2619 37.9054C20.4472 36.6214 21.517 35.7174 22.8185 35.7169" fill="black"/>
</svg>
