<svg id="svg" xmlns="http://www.w3.org/2000/svg" xmlns:xlink="http://www.w3.org/1999/xlink" width="400" height="58.75" viewBox="0, 0, 400,58.75"><g id="svgg"><path id="path0" d="M88.375 0.544 C 83.228 2.046,79.283 4.424,76.720 7.571 C 76.136 8.288,75.534 8.988,75.382 9.125 C 74.765 9.683,72.664 13.545,72.390 14.625 C 72.355 14.762,72.187 15.213,72.016 15.625 C 67.291 27.022,76.205 43.223,88.375 45.356 C 88.787 45.428,89.731 45.603,90.472 45.744 C 97.574 47.096,105.220 44.402,110.938 38.534 C 112.891 36.528,112.906 36.589,109.876 34.206 L 109.208 33.681 108.084 34.966 C 102.730 41.087,93.598 42.971,86.000 39.521 C 84.740 38.949,82.226 37.229,82.075 36.835 C 82.004 36.651,81.818 36.500,81.661 36.500 C 81.383 36.500,80.552 35.560,79.228 33.751 C 75.398 28.515,74.886 20.605,77.966 14.251 C 78.897 12.331,82.669 8.000,83.411 8.000 C 83.597 8.000,83.750 7.897,83.750 7.771 C 83.750 7.316,87.994 5.503,90.218 5.007 C 92.928 4.403,94.759 4.373,97.125 4.893 C 98.088 5.105,99.119 5.328,99.417 5.390 C 102.001 5.925,106.693 9.166,108.417 11.608 L 108.935 12.340 110.592 10.876 C 112.575 9.124,112.541 9.427,110.948 7.639 C 108.480 4.870,102.979 1.246,100.661 0.861 C 100.366 0.812,99.510 0.599,98.758 0.386 C 96.643 -0.211,90.651 -0.121,88.375 0.544 M267.000 0.588 C 254.854 4.610,254.274 18.884,266.084 23.143 C 267.680 23.718,271.466 24.963,273.000 25.417 C 280.510 27.638,282.915 30.626,281.383 35.830 C 280.809 37.780,278.977 39.614,276.718 40.500 C 274.458 41.387,268.567 41.417,266.656 40.552 C 265.985 40.248,265.309 40.000,265.153 40.000 C 264.633 40.000,261.386 37.723,260.495 36.732 L 259.615 35.754 258.182 37.427 C 257.395 38.347,256.750 39.164,256.750 39.243 C 256.750 39.661,258.458 41.354,259.831 42.297 C 261.925 43.735,266.108 45.726,266.406 45.427 C 266.466 45.368,267.158 45.470,267.945 45.656 C 269.612 46.048,273.654 46.096,275.189 45.742 C 275.774 45.607,276.673 45.430,277.186 45.349 C 285.818 43.977,289.960 32.001,283.995 25.660 C 282.471 24.039,278.442 21.756,276.490 21.406 C 275.979 21.314,273.368 20.521,271.875 20.003 C 271.188 19.765,269.894 19.325,269.000 19.025 C 263.036 17.025,260.974 12.523,264.005 8.118 C 265.894 5.373,270.811 3.882,274.635 4.895 C 275.454 5.112,276.331 5.332,276.582 5.384 C 277.462 5.566,280.133 7.214,281.072 8.154 L 282.019 9.102 283.667 7.453 C 285.584 5.537,285.582 5.522,283.179 3.656 C 278.839 0.286,271.890 -1.031,267.000 0.588 M43.250 0.740 C 42.906 0.851,41.894 1.136,41.000 1.375 C 40.106 1.614,38.700 2.008,37.875 2.250 C 37.050 2.492,35.644 2.886,34.750 3.125 C 33.215 3.535,31.430 4.067,28.659 4.938 C 27.989 5.149,27.258 5.338,27.034 5.358 C 26.809 5.379,25.950 5.603,25.125 5.856 C 22.924 6.531,20.838 7.133,19.000 7.625 C 18.106 7.864,16.813 8.242,16.125 8.464 C 15.438 8.687,14.762 8.876,14.625 8.885 C 14.488 8.893,13.813 9.077,13.125 9.293 C 11.826 9.701,9.686 10.319,5.917 11.376 C 4.703 11.717,3.615 12.054,3.499 12.126 C 3.383 12.197,2.701 12.367,1.982 12.503 C -1.244 13.115,-1.093 13.404,6.401 20.898 L 12.801 27.300 18.963 24.230 C 22.352 22.542,25.238 21.110,25.375 21.048 C 25.512 20.986,20.298 26.278,13.787 32.807 C 5.502 41.115,1.976 44.812,2.037 45.124 C 2.211 46.007,2.854 46.123,4.284 45.530 C 5.021 45.224,5.850 44.881,6.125 44.769 C 7.960 44.021,9.617 43.307,11.197 42.584 C 12.199 42.125,13.138 41.750,13.283 41.750 C 13.429 41.750,13.846 41.591,14.211 41.397 C 14.576 41.203,15.269 40.875,15.750 40.668 C 16.231 40.461,17.919 39.734,19.500 39.051 C 21.081 38.369,23.106 37.506,24.000 37.135 C 24.894 36.764,25.962 36.309,26.375 36.124 C 26.788 35.939,28.644 35.144,30.500 34.358 C 32.356 33.571,34.460 32.662,35.175 32.337 C 36.649 31.668,37.814 31.177,38.002 31.146 C 39.319 30.928,46.500 27.350,46.500 26.911 C 46.500 26.548,44.449 24.326,40.067 19.942 L 33.634 13.505 39.317 7.803 C 44.912 2.189,45.423 1.523,44.700 0.800 C 44.362 0.462,44.144 0.453,43.250 0.740 M373.311 22.938 L 373.375 45.375 375.625 45.375 L 377.875 45.375 377.943 41.081 L 378.012 36.788 380.502 34.206 C 381.871 32.787,382.994 31.592,382.996 31.552 C 382.998 31.512,383.213 31.250,383.474 30.970 C 384.007 30.398,383.709 30.095,386.862 34.426 C 387.542 35.360,388.510 36.688,389.013 37.375 C 389.516 38.063,390.692 39.694,391.627 41.000 C 392.561 42.306,393.668 43.853,394.086 44.438 L 394.846 45.500 397.423 45.500 C 400.518 45.500,400.486 45.749,397.866 42.098 C 396.692 40.463,395.175 38.337,394.493 37.375 C 393.812 36.413,392.803 35.006,392.251 34.250 C 391.699 33.494,390.774 32.200,390.197 31.375 C 389.620 30.550,388.719 29.313,388.196 28.625 C 387.673 27.938,387.274 27.246,387.310 27.088 C 387.376 26.800,398.214 15.197,398.563 15.042 C 399.316 14.707,398.342 14.500,396.013 14.500 L 393.276 14.500 391.179 16.688 C 390.027 17.891,386.681 21.462,383.744 24.625 C 380.807 27.788,378.313 30.412,378.202 30.458 C 378.091 30.504,378.000 23.782,378.000 15.521 L 378.000 0.500 375.624 0.500 L 373.247 0.500 373.311 22.938 M127.375 14.250 C 124.061 14.747,118.830 18.378,117.381 21.186 C 117.114 21.702,116.719 22.406,116.502 22.750 C 115.075 25.012,114.521 32.426,115.586 35.008 C 117.006 38.452,118.490 40.600,120.747 42.477 C 122.080 43.587,125.918 45.665,126.170 45.414 C 126.228 45.355,126.795 45.463,127.428 45.653 C 133.309 47.423,141.596 43.514,144.472 37.613 C 150.585 25.069,141.154 12.182,127.375 14.250 M193.857 14.257 C 192.232 14.579,189.635 15.927,188.265 17.159 L 187.000 18.296 187.000 16.398 L 187.000 14.500 184.623 14.500 L 182.246 14.500 182.311 29.938 L 182.375 45.375 184.625 45.375 L 186.875 45.375 187.010 35.625 C 187.094 29.633,187.250 25.586,187.416 25.125 C 188.879 21.058,191.642 19.009,196.000 18.761 L 198.375 18.625 198.447 16.313 L 198.519 14.000 196.697 14.027 C 195.695 14.042,194.417 14.146,193.857 14.257 M208.125 14.212 C 205.773 14.639,202.861 16.747,201.556 18.966 C 200.603 20.588,200.531 24.993,201.438 26.219 C 201.747 26.637,202.000 27.097,202.000 27.240 C 202.000 27.383,202.084 27.501,202.188 27.501 C 202.291 27.502,202.713 27.815,203.125 28.197 C 204.356 29.337,205.956 30.115,209.125 31.114 C 215.871 33.242,217.000 34.042,217.000 36.696 C 217.000 42.181,209.089 43.518,204.247 38.852 L 202.619 37.282 200.936 38.916 L 199.253 40.550 199.750 41.182 C 202.529 44.715,209.310 46.965,213.502 45.746 C 213.982 45.606,214.710 45.431,215.119 45.357 C 216.634 45.084,220.500 42.185,220.500 41.323 C 220.500 41.145,220.604 41.000,220.731 41.000 C 221.439 41.000,222.092 37.008,221.713 35.000 C 221.054 31.512,217.447 28.657,212.375 27.608 C 210.140 27.146,207.313 25.863,206.302 24.852 C 203.303 21.853,207.442 17.499,212.333 18.509 C 214.426 18.940,217.000 20.280,217.000 20.938 C 217.000 21.703,217.834 21.303,219.274 19.850 C 221.121 17.987,221.114 17.902,218.981 16.456 C 215.962 14.410,211.785 13.547,208.125 14.212 M236.000 14.240 C 226.491 16.065,221.037 28.298,225.693 37.356 C 227.614 41.094,231.765 44.671,235.000 45.376 C 235.206 45.421,235.881 45.577,236.500 45.723 C 240.977 46.777,247.099 44.944,250.429 41.554 C 252.528 39.417,252.496 39.732,250.785 38.015 L 249.272 36.498 248.148 37.699 C 243.487 42.683,236.286 42.906,231.690 38.209 C 230.898 37.400,230.250 36.608,230.250 36.451 C 230.250 36.293,230.105 35.987,229.927 35.770 C 229.579 35.345,229.035 33.877,228.737 32.563 L 228.553 31.750 241.011 31.750 L 253.469 31.750 253.642 30.599 C 255.129 20.682,246.093 12.302,236.000 14.240 M302.625 14.156 C 300.652 14.458,297.949 15.894,295.947 17.702 L 295.000 18.558 295.000 16.529 L 295.000 14.500 292.625 14.500 L 290.250 14.500 290.250 36.625 L 290.250 58.750 292.625 58.750 L 295.000 58.750 295.000 50.076 L 295.000 41.402 295.813 42.165 C 297.247 43.512,299.834 45.070,301.137 45.372 C 301.406 45.435,302.075 45.599,302.625 45.737 C 303.928 46.064,307.140 46.069,308.252 45.746 C 308.732 45.606,309.435 45.436,309.813 45.367 C 311.785 45.010,315.533 42.354,317.325 40.045 C 319.972 36.633,321.227 30.347,320.105 26.115 C 319.888 25.296,319.673 24.456,319.627 24.250 C 318.209 17.897,310.003 13.025,302.625 14.156 M332.625 14.219 C 330.639 14.598,327.396 16.414,325.368 18.283 C 324.007 19.537,323.997 19.708,325.210 20.918 C 327.266 22.968,327.023 22.918,328.390 21.570 C 329.632 20.344,329.904 20.153,331.625 19.303 C 336.636 16.827,342.477 19.405,343.118 24.375 L 343.279 25.625 339.952 26.203 C 338.122 26.521,335.725 26.942,334.625 27.139 C 333.525 27.336,332.119 27.549,331.500 27.613 C 330.344 27.732,327.467 28.759,326.848 29.273 C 326.656 29.431,326.500 29.463,326.500 29.343 C 326.499 29.223,325.835 29.827,325.024 30.684 C 319.201 36.839,324.225 45.980,333.441 45.997 C 336.928 46.003,341.566 44.045,342.875 42.013 C 343.058 41.728,343.158 42.125,343.250 43.500 L 343.375 45.375 345.625 45.375 L 347.875 45.375 347.941 34.750 C 347.998 25.495,347.953 23.948,347.596 22.750 C 345.678 16.323,339.639 12.882,332.625 14.219 M364.625 14.246 C 362.846 14.572,360.585 15.780,358.902 17.305 L 357.875 18.235 357.802 16.367 L 357.729 14.500 355.363 14.500 L 352.996 14.500 353.061 29.938 L 353.125 45.375 355.375 45.375 L 357.625 45.375 357.763 35.500 L 357.901 25.625 358.590 24.147 C 360.194 20.707,363.321 18.750,367.213 18.750 L 369.250 18.750 369.250 16.375 L 369.250 14.000 367.438 14.031 C 366.441 14.049,365.175 14.145,364.625 14.246 M150.000 24.999 C 150.000 36.416,150.036 36.755,151.564 39.617 C 152.913 42.145,156.171 44.917,158.310 45.355 C 158.621 45.419,159.268 45.590,159.748 45.735 C 160.876 46.077,163.852 46.073,165.094 45.728 C 165.626 45.580,166.286 45.416,166.558 45.364 C 167.894 45.106,169.704 44.002,171.304 42.467 L 172.250 41.559 172.250 43.529 L 172.250 45.500 174.500 45.500 L 176.750 45.500 176.750 30.000 L 176.750 14.500 174.500 14.500 L 172.250 14.500 172.244 23.688 C 172.239 31.940,172.189 33.058,171.759 34.678 C 169.998 41.296,162.426 43.845,157.608 39.441 C 154.700 36.783,154.500 35.785,154.500 23.901 L 154.500 14.500 152.250 14.500 L 150.000 14.500 150.000 24.999 M132.770 18.629 C 136.211 19.353,138.624 21.224,140.339 24.497 C 140.843 25.459,141.239 26.276,141.219 26.311 C 141.199 26.346,141.328 27.189,141.506 28.185 C 143.410 38.840,130.745 45.911,123.161 38.428 C 115.077 30.452,121.923 16.348,132.770 18.629 M241.125 18.593 C 244.343 19.291,247.530 21.964,248.317 24.625 C 248.399 24.900,248.636 25.657,248.844 26.307 L 249.223 27.489 238.892 27.557 L 228.561 27.625 228.875 26.625 C 230.752 20.639,235.675 17.411,241.125 18.593 M307.074 18.512 C 318.611 20.645,318.694 38.825,307.177 41.425 C 301.244 42.765,295.000 36.931,295.000 30.047 C 295.000 24.676,299.095 19.143,303.500 18.563 C 303.981 18.500,304.422 18.403,304.479 18.349 C 304.657 18.180,305.599 18.239,307.074 18.512 M343.173 31.813 C 342.923 35.506,342.489 36.646,340.552 38.700 C 335.801 43.738,326.189 41.829,327.386 36.087 C 327.496 35.558,327.595 35.066,327.606 34.994 C 327.823 33.526,332.575 31.250,335.422 31.250 C 335.775 31.250,337.033 31.034,338.219 30.770 C 339.405 30.506,340.994 30.183,341.750 30.053 C 342.506 29.922,343.167 29.801,343.219 29.783 C 343.270 29.765,343.250 30.678,343.173 31.813 " stroke="none" fill="#000000" fill-rule="evenodd"></path></g></svg>