<svg width="116" height="46" fill="none" aria-hidden="true" xmlns="http://www.w3.org/2000/svg"><path d="M6.286 20.18c-1.116 0-2.064-.192-2.844-.576a4.173 4.173 0 0 1-1.764-1.674c-.408-.732-.636-1.608-.684-2.628a69.779 69.779 0 0 1 0-3.204c.048-1.008.276-1.878.684-2.61A4.143 4.143 0 0 1 3.46 7.814c.78-.396 1.722-.594 2.826-.594.816 0 1.548.108 2.196.324.648.216 1.2.516 1.656.9.456.372.81.81 1.062 1.314s.384 1.05.396 1.638a.294.294 0 0 1-.108.27.366.366 0 0 1-.27.108h-1.71a.544.544 0 0 1-.324-.09.62.62 0 0 1-.18-.342c-.192-.792-.522-1.332-.99-1.62-.468-.288-1.05-.432-1.746-.432-.804 0-1.446.228-1.926.684-.48.444-.738 1.182-.774 2.214a42.344 42.344 0 0 0 0 3.024c.036 1.032.294 1.776.774 2.232.48.444 1.122.666 1.926.666.696 0 1.278-.144 1.746-.432.468-.3.798-.84.99-1.62.036-.168.096-.282.18-.342a.544.544 0 0 1 .324-.09h1.71c.108 0 .198.036.27.108.084.072.12.162.108.27a3.788 3.788 0 0 1-.396 1.638 4.171 4.171 0 0 1-1.062 1.332c-.456.372-1.008.666-1.656.882-.648.216-1.38.324-2.196.324Zm11.39 0c-.96 0-1.77-.168-2.43-.504a3.562 3.562 0 0 1-1.494-1.422c-.336-.612-.527-1.326-.575-2.142-.012-.216-.018-.48-.018-.792 0-.312.005-.576.018-.792.048-.828.245-1.542.594-2.142a3.68 3.68 0 0 1 1.511-1.422c.66-.336 1.459-.504 2.395-.504.936 0 1.727.168 2.375.504a3.54 3.54 0 0 1 1.512 1.422c.36.6.564 1.314.613 2.142.012.216.018.48.018.792 0 .312-.006.576-.018.792-.049.816-.247 1.53-.595 2.142-.335.612-.834 1.086-1.494 1.422-.648.336-1.451.504-2.412.504Zm0-1.782c.637 0 1.129-.198 1.477-.594.348-.408.54-1.002.576-1.782.012-.18.018-.414.018-.702s-.006-.522-.018-.702c-.037-.768-.229-1.356-.576-1.764-.348-.408-.84-.612-1.476-.612s-1.128.204-1.476.612c-.349.408-.54.996-.577 1.764-.011.18-.018.414-.018.702s.007.522.018.702c.037.78.228 1.374.577 1.782.348.396.84.594 1.476.594Zm10.008 1.782c-.732 0-1.368-.162-1.908-.486a3.329 3.329 0 0 1-1.224-1.404c-.288-.612-.432-1.332-.432-2.16v-5.058c0-.12.042-.222.126-.306a.417.417 0 0 1 .306-.126h1.584c.132 0 .234.042.306.126a.417.417 0 0 1 .126.306v4.95c0 1.488.654 2.232 1.962 2.232.624 0 1.116-.198 1.476-.594.372-.396.558-.942.558-1.638v-4.95c0-.12.042-.222.126-.306a.417.417 0 0 1 .306-.126h1.584c.12 0 .222.042.306.126a.417.417 0 0 1 .126.306v8.496c0 .12-.042.222-.126.306a.417.417 0 0 1-.306.126h-1.458a.439.439 0 0 1-.324-.126.454.454 0 0 1-.108-.306v-.738c-.324.42-.726.75-1.206.99s-1.08.36-1.8.36Zm8.16-.18a.417.417 0 0 1-.306-.126.417.417 0 0 1-.126-.306V11.09c0-.132.042-.24.126-.324a.417.417 0 0 1 .306-.126h1.458c.12 0 .222.042.306.126a.41.41 0 0 1 .144.324v.738c.276-.384.63-.678 1.062-.882.444-.204.954-.306 1.53-.306h.738c.132 0 .234.042.306.126a.417.417 0 0 1 .126.306v1.296c0 .12-.042.222-.126.306a.381.381 0 0 1-.306.126h-1.404c-.576 0-1.026.162-1.35.486-.312.324-.468.768-.468 1.332v4.95c0 .12-.042.222-.126.306a.439.439 0 0 1-.324.126h-1.566Zm10.641.18c-.72 0-1.338-.084-1.854-.252-.504-.168-.918-.378-1.242-.63-.324-.252-.564-.504-.72-.756-.156-.252-.24-.462-.252-.63-.012-.132.024-.234.108-.306a.458.458 0 0 1 .306-.126h1.422c.048 0 .09.006.126.018a.437.437 0 0 1 .144.108l.486.414c.18.144.39.27.63.378.24.096.54.144.9.144.468 0 .858-.09 1.17-.27.324-.192.486-.462.486-.81 0-.252-.072-.456-.216-.612-.132-.156-.384-.294-.756-.414-.372-.132-.9-.27-1.584-.414-.672-.156-1.23-.354-1.674-.594-.444-.24-.774-.54-.99-.9-.216-.36-.324-.78-.324-1.26 0-.468.138-.912.414-1.332.288-.432.708-.786 1.26-1.062.564-.276 1.26-.414 2.088-.414.648 0 1.212.084 1.692.252.48.156.876.354 1.188.594.324.24.57.486.738.738.168.24.258.45.27.63a.385.385 0 0 1-.108.324.43.43 0 0 1-.288.108h-1.332a.357.357 0 0 1-.162-.036.946.946 0 0 1-.144-.09c-.132-.12-.276-.246-.432-.378a2.217 2.217 0 0 0-.576-.342c-.216-.108-.504-.162-.864-.162-.456 0-.804.102-1.044.306a.904.904 0 0 0-.36.738c0 .204.054.384.162.54.12.144.354.282.702.414s.876.27 1.584.414c.804.144 1.44.36 1.908.648.48.276.816.6 1.008.972.204.36.306.762.306 1.206a2.37 2.37 0 0 1-.486 1.458c-.312.432-.78.774-1.404 1.026-.612.24-1.374.36-2.286.36Zm10.088 0c-1.332 0-2.388-.384-3.168-1.152-.78-.768-1.2-1.86-1.26-3.276a4.655 4.655 0 0 1-.018-.45c0-.192.006-.342.018-.45.048-.9.252-1.68.612-2.34A3.786 3.786 0 0 1 54.287 11c.648-.36 1.41-.54 2.286-.54.972 0 1.788.204 2.448.612.66.396 1.158.954 1.494 1.674.336.708.504 1.53.504 2.466v.378c0 .12-.042.222-.126.306a.439.439 0 0 1-.324.126h-5.976v.144c.012.42.09.81.234 1.17.156.348.378.63.666.846.3.216.654.324 1.062.324.336 0 .618-.048.846-.144a2.303 2.303 0 0 0 .864-.684c.108-.144.192-.228.252-.252a.699.699 0 0 1 .306-.054h1.548a.39.39 0 0 1 .288.108c.084.072.12.162.108.27-.012.192-.114.426-.306.702-.18.276-.444.546-.792.81-.348.264-.786.486-1.314.666-.516.168-1.11.252-1.782.252Zm-1.98-5.67h3.978v-.054c0-.468-.078-.876-.234-1.224a1.934 1.934 0 0 0-.684-.828c-.3-.204-.66-.306-1.08-.306-.42 0-.78.102-1.08.306-.3.204-.528.48-.684.828-.144.348-.216.756-.216 1.224v.054Zm12.948 5.67c-1.116 0-2.052-.162-2.808-.486-.744-.336-1.314-.768-1.71-1.296-.384-.54-.588-1.104-.612-1.692a.366.366 0 0 1 .378-.378h1.602c.156 0 .27.036.342.108.084.06.156.138.216.234a1.9 1.9 0 0 0 .414.684c.204.216.48.396.828.54.36.144.81.216 1.35.216.864 0 1.506-.144 1.926-.432.432-.288.648-.678.648-1.17 0-.348-.114-.624-.342-.828-.228-.216-.582-.408-1.062-.576-.468-.18-1.092-.366-1.872-.558-.9-.216-1.656-.474-2.268-.774-.6-.312-1.056-.702-1.368-1.17-.3-.468-.45-1.062-.45-1.782 0-.696.186-1.314.558-1.854.384-.54.924-.966 1.62-1.278.708-.312 1.548-.468 2.52-.468.78 0 1.47.108 2.07.324.6.204 1.098.48 1.494.828.396.336.696.702.9 1.098.216.384.33.762.342 1.134a.408.408 0 0 1-.108.27c-.06.072-.15.108-.27.108h-1.674a.639.639 0 0 1-.288-.072.53.53 0 0 1-.234-.27c-.072-.372-.306-.69-.702-.954-.396-.264-.906-.396-1.53-.396-.648 0-1.17.12-1.566.36-.396.24-.594.612-.594 1.116 0 .336.096.618.288.846.204.216.522.408.954.576a18.77 18.77 0 0 0 1.746.54c1.02.228 1.854.492 2.502.792.648.3 1.122.684 1.422 1.152.3.456.45 1.038.45 1.746 0 .792-.216 1.47-.648 2.034-.42.552-1.014.978-1.782 1.278-.768.3-1.662.45-2.682.45Zm7.43 3.24a.417.417 0 0 1-.305-.126.417.417 0 0 1-.126-.306V11.072c0-.12.042-.222.126-.306a.417.417 0 0 1 .306-.126h1.422c.132 0 .234.042.306.126a.417.417 0 0 1 .126.306v.72a3.413 3.413 0 0 1 1.134-.954c.468-.252 1.05-.378 1.746-.378.636 0 1.188.102 1.656.306.468.204.858.498 1.17.882.312.372.552.816.72 1.332a6.29 6.29 0 0 1 .288 1.71 10.732 10.732 0 0 1 0 1.278 5.753 5.753 0 0 1-.27 1.674 4.007 4.007 0 0 1-.738 1.332 3.316 3.316 0 0 1-1.17.882c-.468.216-1.02.324-1.656.324-.648 0-1.2-.114-1.656-.342a3.28 3.28 0 0 1-1.116-.936v4.086c0 .12-.042.222-.126.306a.381.381 0 0 1-.306.126h-1.53Zm4.069-5.166c.516 0 .918-.108 1.206-.324.288-.228.492-.522.612-.882.132-.36.21-.756.234-1.188.024-.36.024-.72 0-1.08a4.095 4.095 0 0 0-.234-1.188 1.737 1.737 0 0 0-.612-.864c-.288-.228-.69-.342-1.206-.342-.492 0-.894.114-1.206.342-.3.228-.522.522-.666.882a3.7 3.7 0 0 0-.234 1.08 13.36 13.36 0 0 0 0 1.386c.012.36.096.708.252 1.044.156.324.384.594.684.81.3.216.69.324 1.17.324Zm9.278 1.926c-.624 0-1.188-.12-1.692-.36a3.29 3.29 0 0 1-1.206-.99 2.427 2.427 0 0 1-.432-1.404c0-.84.336-1.506 1.008-1.998.684-.504 1.584-.84 2.7-1.008l2.466-.36v-.378c0-.504-.126-.894-.378-1.17-.252-.276-.684-.414-1.296-.414-.432 0-.786.09-1.062.27a1.567 1.567 0 0 0-.594.684.459.459 0 0 1-.414.234h-1.422c-.132 0-.234-.036-.306-.108a.435.435 0 0 1-.09-.288c.012-.192.09-.426.234-.702.144-.276.372-.54.684-.792.312-.264.714-.486 1.206-.666.492-.18 1.086-.27 1.782-.27.756 0 1.392.096 1.908.288.528.18.948.426 1.26.738.312.312.54.678.684 1.098.144.42.216.864.216 1.332v5.652c0 .12-.042.222-.126.306a.417.417 0 0 1-.306.126h-1.458a.439.439 0 0 1-.324-.126.454.454 0 0 1-.108-.306v-.702a2.902 2.902 0 0 1-.63.648 3.677 3.677 0 0 1-.972.486c-.372.12-.816.18-1.332.18Zm.612-1.71c.42 0 .798-.09 1.134-.27.348-.18.618-.456.81-.828.204-.384.306-.864.306-1.44v-.378l-1.8.288c-.708.108-1.236.282-1.584.522-.348.24-.522.534-.522.882 0 .264.078.492.234.684.168.18.378.318.63.414.252.084.516.126.792.126ZM96.337 20a.417.417 0 0 1-.306-.126.417.417 0 0 1-.126-.306V11.09c0-.132.042-.24.126-.324a.417.417 0 0 1 .306-.126h1.458c.12 0 .222.042.306.126a.41.41 0 0 1 .144.324v.738c.276-.384.63-.678 1.062-.882.444-.204.954-.306 1.53-.306h.738c.132 0 .234.042.306.126a.417.417 0 0 1 .126.306v1.296c0 .12-.042.222-.126.306a.381.381 0 0 1-.306.126h-1.404c-.576 0-1.026.162-1.35.486-.312.324-.468.768-.468 1.332v4.95c0 .12-.042.222-.126.306a.439.439 0 0 1-.324.126h-1.566Zm7.545 0a.417.417 0 0 1-.306-.126.417.417 0 0 1-.126-.306V7.652c0-.12.042-.222.126-.306a.417.417 0 0 1 .306-.126h1.458c.132 0 .234.042.306.126a.417.417 0 0 1 .126.306v6.156l3.024-2.862c.108-.096.204-.168.288-.216.084-.06.21-.09.378-.09h1.674a.39.39 0 0 1 .288.108.39.39 0 0 1 .108.288.442.442 0 0 1-.036.162.363.363 0 0 1-.144.162l-3.708 3.474 4.158 4.464c.12.12.18.222.18.306a.36.36 0 0 1-.126.288.366.366 0 0 1-.27.108h-1.71c-.18 0-.312-.024-.396-.072-.072-.06-.162-.138-.27-.234l-3.438-3.618v3.492c0 .12-.042.222-.126.306a.381.381 0 0 1-.306.126h-1.458ZM3.972 40.72c-.48 0-.88-.084-1.2-.252a2.367 2.367 0 0 1-.768-.648v.504c0 .08-.028.148-.084.204a.26.26 0 0 1-.192.072h-.552a.303.303 0 0 1-.204-.072.303.303 0 0 1-.072-.204v-7.968a.26.26 0 0 1 .072-.192.278.278 0 0 1 .204-.084h.576c.088 0 .156.028.204.084a.26.26 0 0 1 .072.192v2.76c.2-.248.456-.456.768-.624.32-.168.712-.252 1.176-.252.448 0 .828.08 1.14.24.32.152.58.364.78.636.208.272.364.58.468.924.104.344.16.704.168 1.08a5.79 5.79 0 0 1 0 .72 4.048 4.048 0 0 1-.168 1.092c-.104.344-.26.652-.468.924-.2.264-.46.476-.78.636-.312.152-.692.228-1.14.228Zm-.252-.972c.416 0 .74-.088.972-.264.24-.184.412-.42.516-.708.104-.296.164-.612.18-.948.008-.232.008-.464 0-.696a3.188 3.188 0 0 0-.18-.936 1.45 1.45 0 0 0-.516-.708c-.232-.184-.556-.276-.972-.276-.376 0-.688.088-.936.264-.248.176-.436.4-.564.672-.12.272-.184.548-.192.828a7.685 7.685 0 0 0-.012.468c0 .176.004.328.012.456.016.296.08.588.192.876.12.28.3.512.54.696.248.184.568.276.96.276Zm5.177 3.132a.23.23 0 0 1-.168-.072.23.23 0 0 1-.072-.168c0-.032.004-.064.012-.096a.617.617 0 0 1 .048-.12l.924-2.196-2.292-5.412a.637.637 0 0 1-.06-.204.244.244 0 0 1 .252-.252h.588c.08 0 .144.02.192.06.048.04.08.088.096.144l1.824 4.368 1.872-4.368a.454.454 0 0 1 .096-.144.31.31 0 0 1 .204-.06h.564c.072 0 .132.024.18.072a.23.23 0 0 1 .072.168c0 .04-.02.112-.06.216l-3.408 7.86a.38.38 0 0 1-.108.144c-.04.04-.104.06-.192.06h-.564Z" fill="#2D3748"/><path d="M37.435 37.907c0-2.34 1.567-4.2 3.986-4.2 1.43 0 2.248.548 2.913 1.361l-.613.531c-.597-.796-1.346-1.111-2.249-1.111-1.925 0-3.1 1.493-3.1 3.419 0 1.925 1.175 3.436 3.1 3.436.903 0 1.652-.332 2.249-1.129l.612.531c-.664.83-1.482 1.378-2.913 1.378-2.418 0-3.985-1.876-3.985-4.216ZM46.31 40.38v-9.528h.886v9.395c0 .648.272 1.096.851 1.096.392 0 .733-.183.92-.382l.34.664c-.323.298-.715.498-1.396.498-1.073 0-1.601-.648-1.601-1.743ZM50.432 31.98c0-.364.324-.647.682-.647.375 0 .682.282.682.648a.657.657 0 0 1-.2.469.693.693 0 0 1-.482.195c-.358 0-.682-.299-.682-.664Zm.24 9.944v-8.018h.885v8.018h-.886ZM55.2 40.629v4.349h-.886V33.907h.886v1.261a3.562 3.562 0 0 1 2.862-1.46c2.198 0 3.68 1.626 3.68 4.2 0 2.555-1.482 4.215-3.68 4.215-1.158 0-2.197-.581-2.862-1.494Zm5.588-2.722c0-1.942-1.039-3.42-2.879-3.42-1.14 0-2.231.664-2.709 1.427v3.967c.477.764 1.567 1.461 2.709 1.461 1.84 0 2.879-1.493 2.879-3.435ZM63.259 40.845l.528-.631c.528.648 1.5 1.178 2.657 1.178 1.38 0 2.198-.697 2.198-1.626 0-2.191-5.196-.946-5.196-3.834 0-1.229 1.073-2.225 2.93-2.225 1.414 0 2.351.532 2.947 1.179l-.493.613c-.478-.63-1.363-1.062-2.454-1.062-1.277 0-2.044.63-2.044 1.46 0 2.01 5.179.78 5.179 3.868 0 1.295-1.022 2.357-3.083 2.357-1.33 0-2.352-.381-3.17-1.277ZM32.205 33.88c-2.429 0-4.397 1.918-4.397 4.284 0 2.366 1.968 4.284 4.397 4.284 2.428 0 4.397-1.918 4.397-4.284 0-2.366-1.97-4.284-4.397-4.284Zm-.007 6.78c-1.408 0-2.549-1.112-2.549-2.483 0-1.372 1.141-2.484 2.55-2.484 1.407 0 2.548 1.112 2.548 2.484 0 1.371-1.141 2.484-2.549 2.484Z" fill="#000"/><path d="M33.193 38.018c-.069-.073-.925-.804-1.22-.932-.137-.06-.245-.003-.296.14a.976.976 0 0 0-.037.18 6.344 6.344 0 0 0-.035.758c0 .282.01.566.035.758.006.062.019.122.037.18.05.143.159.2.295.14.296-.128 1.152-.859 1.221-.932.04-.042.07-.089.068-.146.003-.057-.029-.104-.068-.146Z" fill="#DC491C"/><path d="M22.797 33.904c-.911-.001-1.8.274-2.543.788v-4.847a.199.199 0 0 0-.06-.142.21.21 0 0 0-.146-.059h-1.442a.209.209 0 0 0-.146.06.199.199 0 0 0-.06.141v8.342c0 2.367 1.968 4.285 4.397 4.285 2.428 0 4.396-1.918 4.396-4.284 0-2.366-1.968-4.284-4.396-4.284Zm-.007 6.78c-1.408 0-2.55-1.111-2.55-2.483l.014-.255c.131-1.252 1.216-2.229 2.536-2.229 1.408 0 2.55 1.112 2.55 2.484 0 1.372-1.142 2.484-2.55 2.484Z" fill="#000"/><path d="M22.825 33.904c-.947 0-1.848.268-2.573.788l.01 3.213c.185-1.284 1.255-2.188 2.556-2.188" fill="#000"/></svg>