<svg viewBox="0 0 114 45" fill="none" xmlns="http://www.w3.org/2000/svg">
<path d="M7.264 20.18C6.148 20.18 5.2 19.988 4.42 19.604C3.652 19.208 3.064 18.65 2.656 17.93C2.248 17.198 2.02 16.322 1.972 15.302C1.96 14.81 1.954 14.282 1.954 13.718C1.954 13.154 1.96 12.614 1.972 12.098C2.02 11.09 2.248 10.22 2.656 9.488C3.076 8.756 3.67 8.198 4.438 7.814C5.218 7.418 6.16 7.22 7.264 7.22C8.08 7.22 8.812 7.328 9.46 7.544C10.108 7.76 10.66 8.06 11.116 8.444C11.572 8.816 11.926 9.254 12.178 9.758C12.43 10.262 12.562 10.808 12.574 11.396C12.586 11.504 12.55 11.594 12.466 11.666C12.394 11.738 12.304 11.774 12.196 11.774H10.486C10.354 11.774 10.246 11.744 10.162 11.684C10.078 11.612 10.018 11.498 9.982 11.342C9.79 10.55 9.46 10.01 8.992 9.722C8.524 9.434 7.942 9.29 7.246 9.29C6.442 9.29 5.8 9.518 5.32 9.974C4.84 10.418 4.582 11.156 4.546 12.188C4.51 13.172 4.51 14.18 4.546 15.212C4.582 16.244 4.84 16.988 5.32 17.444C5.8 17.888 6.442 18.11 7.246 18.11C7.942 18.11 8.524 17.966 8.992 17.678C9.46 17.378 9.79 16.838 9.982 16.058C10.018 15.89 10.078 15.776 10.162 15.716C10.246 15.656 10.354 15.626 10.486 15.626H12.196C12.304 15.626 12.394 15.662 12.466 15.734C12.55 15.806 12.586 15.896 12.574 16.004C12.562 16.592 12.43 17.138 12.178 17.642C11.926 18.146 11.572 18.59 11.116 18.974C10.66 19.346 10.108 19.64 9.46 19.856C8.812 20.072 8.08 20.18 7.264 20.18ZM18.6543 20.18C17.6943 20.18 16.8843 20.012 16.2243 19.676C15.5763 19.34 15.0783 18.866 14.7303 18.254C14.3943 17.642 14.2023 16.928 14.1543 16.112C14.1423 15.896 14.1363 15.632 14.1363 15.32C14.1363 15.008 14.1423 14.744 14.1543 14.528C14.2023 13.7 14.4003 12.986 14.7483 12.386C15.1083 11.774 15.6123 11.3 16.2603 10.964C16.9203 10.628 17.7183 10.46 18.6543 10.46C19.5903 10.46 20.3823 10.628 21.0303 10.964C21.6903 11.3 22.1943 11.774 22.5423 12.386C22.9023 12.986 23.1063 13.7 23.1543 14.528C23.1663 14.744 23.1723 15.008 23.1723 15.32C23.1723 15.632 23.1663 15.896 23.1543 16.112C23.1063 16.928 22.9083 17.642 22.5603 18.254C22.2243 18.866 21.7263 19.34 21.0663 19.676C20.4183 20.012 19.6143 20.18 18.6543 20.18ZM18.6543 18.398C19.2903 18.398 19.7823 18.2 20.1303 17.804C20.4783 17.396 20.6703 16.802 20.7063 16.022C20.7183 15.842 20.7243 15.608 20.7243 15.32C20.7243 15.032 20.7183 14.798 20.7063 14.618C20.6703 13.85 20.4783 13.262 20.1303 12.854C19.7823 12.446 19.2903 12.242 18.6543 12.242C18.0183 12.242 17.5263 12.446 17.1783 12.854C16.8303 13.262 16.6383 13.85 16.6023 14.618C16.5903 14.798 16.5843 15.032 16.5843 15.32C16.5843 15.608 16.5903 15.842 16.6023 16.022C16.6383 16.802 16.8303 17.396 17.1783 17.804C17.5263 18.2 18.0183 18.398 18.6543 18.398ZM28.6622 20.18C27.9302 20.18 27.2942 20.018 26.7542 19.694C26.2262 19.358 25.8182 18.89 25.5302 18.29C25.2422 17.678 25.0982 16.958 25.0982 16.13V11.072C25.0982 10.952 25.1402 10.85 25.2242 10.766C25.3082 10.682 25.4102 10.64 25.5302 10.64H27.1142C27.2462 10.64 27.3482 10.682 27.4202 10.766C27.5042 10.85 27.5462 10.952 27.5462 11.072V16.022C27.5462 17.51 28.2002 18.254 29.5082 18.254C30.1322 18.254 30.6242 18.056 30.9842 17.66C31.3562 17.264 31.5422 16.718 31.5422 16.022V11.072C31.5422 10.952 31.5842 10.85 31.6682 10.766C31.7522 10.682 31.8542 10.64 31.9742 10.64H33.5582C33.6782 10.64 33.7802 10.682 33.8642 10.766C33.9482 10.85 33.9902 10.952 33.9902 11.072V19.568C33.9902 19.688 33.9482 19.79 33.8642 19.874C33.7802 19.958 33.6782 20 33.5582 20H32.1002C31.9682 20 31.8602 19.958 31.7762 19.874C31.7042 19.79 31.6682 19.688 31.6682 19.568V18.83C31.3442 19.25 30.9422 19.58 30.4622 19.82C29.9822 20.06 29.3822 20.18 28.6622 20.18ZM36.8215 20C36.7015 20 36.5995 19.958 36.5155 19.874C36.4315 19.79 36.3895 19.688 36.3895 19.568V11.09C36.3895 10.958 36.4315 10.85 36.5155 10.766C36.5995 10.682 36.7015 10.64 36.8215 10.64H38.2795C38.3995 10.64 38.5015 10.682 38.5855 10.766C38.6815 10.85 38.7295 10.958 38.7295 11.09V11.828C39.0055 11.444 39.3595 11.15 39.7915 10.946C40.2355 10.742 40.7455 10.64 41.3215 10.64H42.0595C42.1915 10.64 42.2935 10.682 42.3655 10.766C42.4495 10.85 42.4915 10.952 42.4915 11.072V12.368C42.4915 12.488 42.4495 12.59 42.3655 12.674C42.2935 12.758 42.1915 12.8 42.0595 12.8H40.6555C40.0795 12.8 39.6295 12.962 39.3055 13.286C38.9935 13.61 38.8375 14.054 38.8375 14.618V19.568C38.8375 19.688 38.7955 19.79 38.7115 19.874C38.6275 19.958 38.5195 20 38.3875 20H36.8215ZM47.463 20.18C46.743 20.18 46.125 20.096 45.609 19.928C45.105 19.76 44.691 19.55 44.367 19.298C44.043 19.046 43.803 18.794 43.647 18.542C43.491 18.29 43.407 18.08 43.395 17.912C43.383 17.78 43.419 17.678 43.503 17.606C43.599 17.522 43.701 17.48 43.809 17.48H45.231C45.279 17.48 45.321 17.486 45.357 17.498C45.393 17.51 45.441 17.546 45.501 17.606C45.657 17.738 45.819 17.876 45.987 18.02C46.167 18.164 46.377 18.29 46.617 18.398C46.857 18.494 47.157 18.542 47.517 18.542C47.985 18.542 48.375 18.452 48.687 18.272C49.011 18.08 49.173 17.81 49.173 17.462C49.173 17.21 49.101 17.006 48.957 16.85C48.825 16.694 48.573 16.556 48.201 16.436C47.829 16.304 47.301 16.166 46.617 16.022C45.945 15.866 45.387 15.668 44.943 15.428C44.499 15.188 44.169 14.888 43.953 14.528C43.737 14.168 43.629 13.748 43.629 13.268C43.629 12.8 43.767 12.356 44.043 11.936C44.331 11.504 44.751 11.15 45.303 10.874C45.867 10.598 46.563 10.46 47.391 10.46C48.039 10.46 48.603 10.544 49.083 10.712C49.563 10.868 49.959 11.066 50.271 11.306C50.595 11.546 50.841 11.792 51.009 12.044C51.177 12.284 51.267 12.494 51.279 12.674C51.291 12.806 51.255 12.914 51.171 12.998C51.087 13.07 50.991 13.106 50.883 13.106H49.551C49.491 13.106 49.437 13.094 49.389 13.07C49.341 13.046 49.293 13.016 49.245 12.98C49.113 12.86 48.969 12.734 48.813 12.602C48.657 12.47 48.465 12.356 48.237 12.26C48.021 12.152 47.733 12.098 47.373 12.098C46.917 12.098 46.569 12.2 46.329 12.404C46.089 12.596 45.969 12.842 45.969 13.142C45.969 13.346 46.023 13.526 46.131 13.682C46.251 13.826 46.485 13.964 46.833 14.096C47.181 14.228 47.709 14.366 48.417 14.51C49.221 14.654 49.857 14.87 50.325 15.158C50.805 15.434 51.141 15.758 51.333 16.13C51.537 16.49 51.639 16.892 51.639 17.336C51.639 17.876 51.477 18.362 51.153 18.794C50.841 19.226 50.373 19.568 49.749 19.82C49.137 20.06 48.375 20.18 47.463 20.18ZM57.5507 20.18C56.2187 20.18 55.1627 19.796 54.3827 19.028C53.6027 18.26 53.1827 17.168 53.1227 15.752C53.1107 15.632 53.1047 15.482 53.1047 15.302C53.1047 15.11 53.1107 14.96 53.1227 14.852C53.1707 13.952 53.3747 13.172 53.7347 12.512C54.1067 11.852 54.6167 11.348 55.2647 11C55.9127 10.64 56.6747 10.46 57.5507 10.46C58.5227 10.46 59.3387 10.664 59.9987 11.072C60.6587 11.468 61.1567 12.026 61.4927 12.746C61.8287 13.454 61.9967 14.276 61.9967 15.212V15.59C61.9967 15.71 61.9547 15.812 61.8707 15.896C61.7867 15.98 61.6787 16.022 61.5467 16.022H55.5707C55.5707 16.022 55.5707 16.04 55.5707 16.076C55.5707 16.112 55.5707 16.142 55.5707 16.166C55.5827 16.586 55.6607 16.976 55.8047 17.336C55.9607 17.684 56.1827 17.966 56.4707 18.182C56.7707 18.398 57.1247 18.506 57.5327 18.506C57.8687 18.506 58.1507 18.458 58.3787 18.362C58.6067 18.254 58.7927 18.134 58.9367 18.002C59.0807 17.87 59.1827 17.762 59.2427 17.678C59.3507 17.534 59.4347 17.45 59.4947 17.426C59.5667 17.39 59.6687 17.372 59.8007 17.372H61.3487C61.4687 17.372 61.5647 17.408 61.6367 17.48C61.7207 17.552 61.7567 17.642 61.7447 17.75C61.7327 17.942 61.6307 18.176 61.4387 18.452C61.2587 18.728 60.9947 18.998 60.6467 19.262C60.2987 19.526 59.8607 19.748 59.3327 19.928C58.8167 20.096 58.2227 20.18 57.5507 20.18ZM55.5707 14.51H59.5487V14.456C59.5487 13.988 59.4707 13.58 59.3147 13.232C59.1587 12.884 58.9307 12.608 58.6307 12.404C58.3307 12.2 57.9707 12.098 57.5507 12.098C57.1307 12.098 56.7707 12.2 56.4707 12.404C56.1707 12.608 55.9427 12.884 55.7867 13.232C55.6427 13.58 55.5707 13.988 55.5707 14.456V14.51ZM68.5189 20.18C67.4029 20.18 66.4669 20.018 65.7109 19.694C64.9669 19.358 64.3969 18.926 64.0009 18.398C63.6169 17.858 63.4129 17.294 63.3889 16.706C63.3889 16.598 63.4249 16.508 63.4969 16.436C63.5689 16.364 63.6589 16.328 63.7669 16.328H65.3689C65.5249 16.328 65.6389 16.364 65.7109 16.436C65.7949 16.496 65.8669 16.574 65.9269 16.67C65.9989 16.898 66.1369 17.126 66.3409 17.354C66.5449 17.57 66.8209 17.75 67.1689 17.894C67.5289 18.038 67.9789 18.11 68.5189 18.11C69.3829 18.11 70.0249 17.966 70.4449 17.678C70.8769 17.39 71.0929 17 71.0929 16.508C71.0929 16.16 70.9789 15.884 70.7509 15.68C70.5229 15.464 70.1689 15.272 69.6889 15.104C69.2209 14.924 68.5969 14.738 67.8169 14.546C66.9169 14.33 66.1609 14.072 65.5489 13.772C64.9489 13.46 64.4929 13.07 64.1809 12.602C63.8809 12.134 63.7309 11.54 63.7309 10.82C63.7309 10.124 63.9169 9.506 64.2889 8.966C64.6729 8.426 65.2129 8 65.9089 7.688C66.6169 7.376 67.4569 7.22 68.4289 7.22C69.2089 7.22 69.8989 7.328 70.4989 7.544C71.0989 7.748 71.5969 8.024 71.9929 8.372C72.3889 8.708 72.6889 9.074 72.8929 9.47C73.1089 9.854 73.2229 10.232 73.2349 10.604C73.2349 10.7 73.1989 10.79 73.1269 10.874C73.0669 10.946 72.9769 10.982 72.8569 10.982H71.1829C71.0869 10.982 70.9909 10.958 70.8949 10.91C70.7989 10.862 70.7209 10.772 70.6609 10.64C70.5889 10.268 70.3549 9.95 69.9589 9.686C69.5629 9.422 69.0529 9.29 68.4289 9.29C67.7809 9.29 67.2589 9.41 66.8629 9.65C66.4669 9.89 66.2689 10.262 66.2689 10.766C66.2689 11.102 66.3649 11.384 66.5569 11.612C66.7609 11.828 67.0789 12.02 67.5109 12.188C67.9549 12.356 68.5369 12.536 69.2569 12.728C70.2769 12.956 71.1109 13.22 71.7589 13.52C72.4069 13.82 72.8809 14.204 73.1809 14.672C73.4809 15.128 73.6309 15.71 73.6309 16.418C73.6309 17.21 73.4149 17.888 72.9829 18.452C72.5629 19.004 71.9689 19.43 71.2009 19.73C70.4329 20.03 69.5389 20.18 68.5189 20.18ZM75.9494 23.42C75.8294 23.42 75.7274 23.378 75.6434 23.294C75.5594 23.21 75.5174 23.108 75.5174 22.988V11.072C75.5174 10.952 75.5594 10.85 75.6434 10.766C75.7274 10.682 75.8294 10.64 75.9494 10.64H77.3714C77.5034 10.64 77.6054 10.682 77.6774 10.766C77.7614 10.85 77.8034 10.952 77.8034 11.072V11.792C78.0914 11.408 78.4694 11.09 78.9374 10.838C79.4054 10.586 79.9874 10.46 80.6834 10.46C81.3194 10.46 81.8714 10.562 82.3394 10.766C82.8074 10.97 83.1974 11.264 83.5094 11.648C83.8214 12.02 84.0614 12.464 84.2294 12.98C84.3974 13.496 84.4934 14.066 84.5174 14.69C84.5294 14.894 84.5354 15.104 84.5354 15.32C84.5354 15.536 84.5294 15.752 84.5174 15.968C84.5054 16.568 84.4154 17.126 84.2474 17.642C84.0794 18.146 83.8334 18.59 83.5094 18.974C83.1974 19.346 82.8074 19.64 82.3394 19.856C81.8714 20.072 81.3194 20.18 80.6834 20.18C80.0354 20.18 79.4834 20.066 79.0274 19.838C78.5714 19.598 78.1994 19.286 77.9114 18.902V22.988C77.9114 23.108 77.8694 23.21 77.7854 23.294C77.7134 23.378 77.6114 23.42 77.4794 23.42H75.9494ZM80.0174 18.254C80.5334 18.254 80.9354 18.146 81.2234 17.93C81.5114 17.702 81.7154 17.408 81.8354 17.048C81.9674 16.688 82.0454 16.292 82.0694 15.86C82.0934 15.5 82.0934 15.14 82.0694 14.78C82.0454 14.348 81.9674 13.952 81.8354 13.592C81.7154 13.232 81.5114 12.944 81.2234 12.728C80.9354 12.5 80.5334 12.386 80.0174 12.386C79.5254 12.386 79.1234 12.5 78.8114 12.728C78.5114 12.956 78.2894 13.25 78.1454 13.61C78.0134 13.958 77.9354 14.318 77.9114 14.69C77.8994 14.906 77.8934 15.134 77.8934 15.374C77.8934 15.614 77.8994 15.848 77.9114 16.076C77.9234 16.436 78.0074 16.784 78.1634 17.12C78.3194 17.444 78.5474 17.714 78.8474 17.93C79.1474 18.146 79.5374 18.254 80.0174 18.254ZM89.2956 20.18C88.6716 20.18 88.1076 20.06 87.6036 19.82C87.0996 19.568 86.6976 19.238 86.3976 18.83C86.1096 18.41 85.9656 17.942 85.9656 17.426C85.9656 16.586 86.3016 15.92 86.9736 15.428C87.6576 14.924 88.5576 14.588 89.6736 14.42L92.1396 14.06V13.682C92.1396 13.178 92.0136 12.788 91.7616 12.512C91.5096 12.236 91.0776 12.098 90.4656 12.098C90.0336 12.098 89.6796 12.188 89.4036 12.368C89.1396 12.536 88.9416 12.764 88.8096 13.052C88.7136 13.208 88.5756 13.286 88.3956 13.286H86.9736C86.8416 13.286 86.7396 13.25 86.6676 13.178C86.6076 13.106 86.5776 13.01 86.5776 12.89C86.5896 12.698 86.6676 12.464 86.8116 12.188C86.9556 11.912 87.1836 11.648 87.4956 11.396C87.8076 11.132 88.2096 10.91 88.7016 10.73C89.1936 10.55 89.7876 10.46 90.4836 10.46C91.2396 10.46 91.8756 10.556 92.3916 10.748C92.9196 10.928 93.3396 11.174 93.6516 11.486C93.9636 11.798 94.1916 12.164 94.3356 12.584C94.4796 13.004 94.5516 13.448 94.5516 13.916V19.568C94.5516 19.688 94.5096 19.79 94.4256 19.874C94.3416 19.958 94.2396 20 94.1196 20H92.6616C92.5296 20 92.4216 19.958 92.3376 19.874C92.2656 19.79 92.2296 19.688 92.2296 19.568V18.866C92.0736 19.094 91.8636 19.31 91.5996 19.514C91.3356 19.706 91.0116 19.868 90.6276 20C90.2556 20.12 89.8116 20.18 89.2956 20.18ZM89.9076 18.47C90.3276 18.47 90.7056 18.38 91.0416 18.2C91.3896 18.02 91.6596 17.744 91.8516 17.372C92.0556 16.988 92.1576 16.508 92.1576 15.932V15.554L90.3576 15.842C89.6496 15.95 89.1216 16.124 88.7736 16.364C88.4256 16.604 88.2516 16.898 88.2516 17.246C88.2516 17.51 88.3296 17.738 88.4856 17.93C88.6536 18.11 88.8636 18.248 89.1156 18.344C89.3676 18.428 89.6316 18.47 89.9076 18.47ZM97.3144 20C97.1944 20 97.0924 19.958 97.0084 19.874C96.9244 19.79 96.8824 19.688 96.8824 19.568V11.09C96.8824 10.958 96.9244 10.85 97.0084 10.766C97.0924 10.682 97.1944 10.64 97.3144 10.64H98.7724C98.8924 10.64 98.9944 10.682 99.0784 10.766C99.1744 10.85 99.2224 10.958 99.2224 11.09V11.828C99.4984 11.444 99.8524 11.15 100.284 10.946C100.728 10.742 101.238 10.64 101.814 10.64H102.552C102.684 10.64 102.786 10.682 102.858 10.766C102.942 10.85 102.984 10.952 102.984 11.072V12.368C102.984 12.488 102.942 12.59 102.858 12.674C102.786 12.758 102.684 12.8 102.552 12.8H101.148C100.572 12.8 100.122 12.962 99.7984 13.286C99.4864 13.61 99.3304 14.054 99.3304 14.618V19.568C99.3304 19.688 99.2884 19.79 99.2044 19.874C99.1204 19.958 99.0124 20 98.8804 20H97.3144ZM104.86 20C104.74 20 104.638 19.958 104.554 19.874C104.47 19.79 104.428 19.688 104.428 19.568V7.652C104.428 7.532 104.47 7.43 104.554 7.346C104.638 7.262 104.74 7.22 104.86 7.22H106.318C106.45 7.22 106.552 7.262 106.624 7.346C106.708 7.43 106.75 7.532 106.75 7.652V13.808L109.774 10.946C109.882 10.85 109.978 10.778 110.062 10.73C110.146 10.67 110.272 10.64 110.44 10.64H112.114C112.234 10.64 112.33 10.676 112.402 10.748C112.474 10.82 112.51 10.916 112.51 11.036C112.51 11.084 112.498 11.138 112.474 11.198C112.45 11.258 112.402 11.312 112.33 11.36L108.622 14.834L112.78 19.298C112.9 19.418 112.96 19.52 112.96 19.604C112.96 19.724 112.918 19.82 112.834 19.892C112.762 19.964 112.672 20 112.564 20H110.854C110.674 20 110.542 19.976 110.458 19.928C110.386 19.868 110.296 19.79 110.188 19.694L106.75 16.076V19.568C106.75 19.688 106.708 19.79 106.624 19.874C106.552 19.958 106.45 20 106.318 20H104.86Z" fill="#2D3748"/>
<path d="M3.972 40.12C3.492 40.12 3.092 40.036 2.772 39.868C2.452 39.692 2.196 39.476 2.004 39.22V39.724C2.004 39.804 1.976 39.872 1.92 39.928C1.872 39.976 1.808 40 1.728 40H1.176C1.096 40 1.028 39.976 0.972 39.928C0.924 39.872 0.9 39.804 0.9 39.724V31.756C0.9 31.676 0.924 31.612 0.972 31.564C1.028 31.508 1.096 31.48 1.176 31.48H1.752C1.84 31.48 1.908 31.508 1.956 31.564C2.004 31.612 2.028 31.676 2.028 31.756V34.516C2.228 34.268 2.484 34.06 2.796 33.892C3.116 33.724 3.508 33.64 3.972 33.64C4.42 33.64 4.8 33.72 5.112 33.88C5.432 34.032 5.692 34.244 5.892 34.516C6.1 34.788 6.256 35.096 6.36 35.44C6.464 35.784 6.52 36.144 6.528 36.52C6.536 36.648 6.54 36.768 6.54 36.88C6.54 36.992 6.536 37.112 6.528 37.24C6.52 37.624 6.464 37.988 6.36 38.332C6.256 38.676 6.1 38.984 5.892 39.256C5.692 39.52 5.432 39.732 5.112 39.892C4.8 40.044 4.42 40.12 3.972 40.12ZM3.72 39.148C4.136 39.148 4.46 39.06 4.692 38.884C4.932 38.7 5.104 38.464 5.208 38.176C5.312 37.88 5.372 37.564 5.388 37.228C5.396 36.996 5.396 36.764 5.388 36.532C5.372 36.196 5.312 35.884 5.208 35.596C5.104 35.3 4.932 35.064 4.692 34.888C4.46 34.704 4.136 34.612 3.72 34.612C3.344 34.612 3.032 34.7 2.784 34.876C2.536 35.052 2.348 35.276 2.22 35.548C2.1 35.82 2.036 36.096 2.028 36.376C2.02 36.504 2.016 36.66 2.016 36.844C2.016 37.02 2.02 37.172 2.028 37.3C2.044 37.596 2.108 37.888 2.22 38.176C2.34 38.456 2.52 38.688 2.76 38.872C3.008 39.056 3.328 39.148 3.72 39.148ZM8.89674 42.28C8.83274 42.28 8.77674 42.256 8.72874 42.208C8.68074 42.16 8.65674 42.104 8.65674 42.04C8.65674 42.008 8.66074 41.976 8.66874 41.944C8.67674 41.912 8.69274 41.872 8.71674 41.824L9.64074 39.628L7.34874 34.216C7.30874 34.12 7.28874 34.052 7.28874 34.012C7.28874 33.94 7.31274 33.88 7.36074 33.832C7.40874 33.784 7.46874 33.76 7.54074 33.76H8.12874C8.20874 33.76 8.27274 33.78 8.32074 33.82C8.36874 33.86 8.40074 33.908 8.41674 33.964L10.2407 38.332L12.1127 33.964C12.1367 33.908 12.1687 33.86 12.2087 33.82C12.2567 33.78 12.3247 33.76 12.4127 33.76H12.9767C13.0487 33.76 13.1087 33.784 13.1567 33.832C13.2047 33.88 13.2287 33.936 13.2287 34C13.2287 34.04 13.2087 34.112 13.1687 34.216L9.76074 42.076C9.73674 42.132 9.70074 42.18 9.65274 42.22C9.61274 42.26 9.54874 42.28 9.46074 42.28H8.89674Z" fill="#2D3748"/>
<path d="M36.621 37.0826C36.621 34.793 38.1542 32.9741 40.5206 32.9741C41.9205 32.9741 42.7204 33.51 43.3704 34.3057L42.7709 34.8253C42.1871 34.0461 41.4538 33.7377 40.5706 33.7377C38.6874 33.7377 37.5375 35.1991 37.5375 37.0828C37.5375 38.9664 38.6875 40.4441 40.5706 40.4441C41.4538 40.4441 42.1871 40.1193 42.7704 39.3399L43.3699 39.8596C42.7196 40.6714 41.92 41.2073 40.5201 41.2073C38.1542 41.207 36.621 39.3721 36.621 37.0826Z" fill="black"/>
<path d="M45.3031 39.5022V30.1816H46.1697V39.3723C46.1697 40.0059 46.4363 40.4439 47.0028 40.4439C47.3861 40.4439 47.7194 40.2657 47.9027 40.0704L48.2359 40.7199C47.9193 41.0122 47.536 41.2071 46.8694 41.2071C45.8197 41.2072 45.3031 40.5739 45.3031 39.5022Z" fill="black"/>
<path d="M49.3361 31.2857C49.3361 30.9285 49.6527 30.6521 50.0029 30.6521C50.3696 30.6521 50.6697 30.9281 50.6697 31.2857C50.6692 31.4578 50.5987 31.6227 50.4738 31.7444C50.3489 31.8661 50.1796 31.9347 50.0029 31.9352C49.6528 31.9352 49.3361 31.6432 49.3361 31.2857ZM49.5698 41.0122V33.1693H50.4366V41.0122H49.5698Z" fill="black"/>
<path d="M54.0005 39.7456V43.9999H53.1339V33.1694H54.0005V34.4036C54.5671 33.6079 55.6003 32.9746 56.8003 32.9746C58.9501 32.9746 60.4 34.5659 60.4 37.0831C60.4 39.5837 58.9501 41.2075 56.8003 41.2075C55.6676 41.207 54.6507 40.6387 54.0005 39.7456ZM59.4667 37.0826C59.4667 35.1831 58.4507 33.7377 56.6507 33.7377C55.5347 33.7377 54.4679 34.387 54.0005 35.1336V39.0143C54.4671 39.7613 55.5337 40.4433 56.6503 40.4433C58.4507 40.4441 59.4667 38.9824 59.4667 37.0826Z" fill="black"/>
<path d="M61.8838 39.9569L62.4004 39.3398C62.9171 39.9734 63.867 40.4928 65.0002 40.4928C66.3501 40.4928 67.15 39.8108 67.15 38.9015C67.15 36.758 62.0671 37.9759 62.0671 35.1505C62.0671 33.9489 63.1169 32.9746 64.9335 32.9746C66.3167 32.9746 67.2333 33.4943 67.8166 34.1275L67.3334 34.7279C66.8667 34.1108 66.0001 33.6884 64.9336 33.6884C63.6839 33.6884 62.9338 34.3054 62.9338 35.1173C62.9338 37.0822 68 35.8805 68 38.9008C68 40.1671 67.0001 41.2065 64.9839 41.2065C63.6834 41.2072 62.6837 40.8337 61.8838 39.9569Z" fill="black"/>
<path d="M31.5047 33.1436C29.1292 33.1436 27.2035 35.0199 27.2035 37.3345C27.2035 39.649 29.1292 41.5254 31.5047 41.5254C33.8801 41.5254 35.8059 39.649 35.8059 37.3345C35.8059 35.0199 33.8801 33.1436 31.5047 33.1436ZM31.4984 39.7765C30.1211 39.7765 29.0047 38.6887 29.0047 37.3467C29.0047 36.0048 30.1211 34.917 31.4984 34.917C32.8756 34.917 33.992 36.0048 33.992 37.3467C33.992 38.6887 32.8756 39.7769 31.4984 39.7769V39.7765Z" fill="black"/>
<path d="M32.4714 37.1921C32.404 37.1201 31.5669 36.4051 31.2773 36.2797C31.1436 36.222 31.0383 36.2772 30.9886 36.4162C30.9707 36.4738 30.9584 36.5329 30.9518 36.5927C30.9272 36.7808 30.9175 37.0591 30.9185 37.3346C30.9175 37.6101 30.9272 37.8884 30.9518 38.0765C30.9584 38.1363 30.9707 38.1954 30.9886 38.253C31.0383 38.3921 31.1436 38.4472 31.2773 38.3894C31.5669 38.2642 32.404 37.549 32.4714 37.4771C32.51 37.436 32.5406 37.3907 32.5378 37.3346C32.5406 37.2784 32.51 37.2331 32.4714 37.1921Z" fill="#DC491C"/>
<path d="M22.3012 33.167C21.41 33.1656 20.5406 33.4352 19.8141 33.9382V29.1962C19.814 29.1441 19.7927 29.0943 19.7549 29.0575C19.7171 29.0207 19.666 28.9999 19.6125 28.9998H18.2016C18.1481 28.9999 18.0969 29.0206 18.0592 29.0575C18.0214 29.0943 18.0001 29.1442 18 29.1963V37.2892C18 37.2922 18 37.2951 18 37.2981C18 37.3179 18 37.3377 18 37.3575C18 39.6721 19.9257 41.5485 22.3012 41.5485C24.6766 41.5485 26.6023 39.6721 26.6023 37.3575C26.6023 35.0429 24.6766 33.167 22.3012 33.167ZM22.2949 39.7999C20.9176 39.8005 19.8009 38.7125 19.8009 37.3706C19.8009 37.3661 19.8139 37.1214 19.8139 37.1214C19.9419 35.8965 21.0038 34.9409 22.2947 34.9409C23.672 34.9409 24.7885 36.0287 24.7885 37.3706C24.7885 38.7125 23.672 39.8005 22.2949 39.8005V39.7999Z" fill="black"/>
<path d="M22.3288 33.1667C21.4022 33.1667 20.521 33.4296 19.8113 33.9379L19.8214 37.0815C20.0028 35.8254 21.0493 34.941 22.3225 34.9405" fill="black"/>
</svg>
