<svg data-qa="credits-icon" width="19" height="17" viewBox="0 0 19 17" fill="none" xmlns="http://www.w3.org/2000/svg">
    <path d="M13.8885 0.801753H4.88849L0.388486 8.30175L4.88849 16.3018H13.8885L18.3885 8.30175L13.8885 0.801753Z" fill="white"/>
    <path fill-rule="evenodd" clip-rule="evenodd" d="M14.1115 15.4503L17.8279 9.01658C18.0125 8.69692 18.0125 8.30308 17.8279 7.98342L14.1115 1.54973C13.9269 1.23007 13.5856 1.03315 13.2163 1.03315L5.78367 1.03315C5.41437 1.03315 5.07313 1.23007 4.88849 1.54973L1.17215 7.98342C0.987502 8.30308 0.987502 8.69692 1.17215 9.01658L4.88849 15.4503C5.07313 15.7699 5.41437 15.9668 5.78367 15.9668H13.2163C13.5856 15.9668 13.9269 15.7699 14.1115 15.4503ZM18.723 9.53315C19.0923 8.89384 19.0923 8.10616 18.723 7.46685L15.0067 1.03315C14.6374 0.393836 13.9549 3.57176e-07 13.2163 3.24892e-07L5.78367 0C5.04508 -3.22846e-08 4.3626 0.393835 3.99331 1.03315L0.27697 7.46685C-0.0923232 8.10616 -0.0923232 8.89384 0.27697 9.53315L3.9933 15.9668C4.3626 16.6062 5.04508 17 5.78367 17H13.2163C13.9549 17 14.6374 16.6062 15.0067 15.9668L18.723 9.53315Z" fill="#00217D"/>
    <path fill-rule="evenodd" clip-rule="evenodd" d="M14.1115 15.4503L17.8279 9.01658C18.0125 8.69692 18.0125 8.30308 17.8279 7.98342L14.1115 1.54973C13.9269 1.23007 13.5856 1.03315 13.2163 1.03315L5.78367 1.03315C5.41437 1.03315 5.07313 1.23007 4.88849 1.54973L1.17215 7.98342C0.987502 8.30308 0.987502 8.69692 1.17215 9.01658L4.88849 15.4503C5.07313 15.7699 5.41437 15.9668 5.78367 15.9668H13.2163C13.5856 15.9668 13.9269 15.7699 14.1115 15.4503ZM18.723 9.53315C19.0923 8.89384 19.0923 8.10616 18.723 7.46685L15.0067 1.03315C14.6374 0.393836 13.9549 3.57176e-07 13.2163 3.24892e-07L5.78367 0C5.04508 -3.22846e-08 4.3626 0.393835 3.99331 1.03315L0.27697 7.46685C-0.0923232 8.10616 -0.0923232 8.89384 0.27697 9.53315L3.9933 15.9668C4.3626 16.6062 5.04508 17 5.78367 17H13.2163C13.9549 17 14.6374 16.6062 15.0067 15.9668L18.723 9.53315Z" fill="black" fill-opacity="0.2"/>
    <path fill-rule="evenodd" clip-rule="evenodd" d="M16.7813 9.29006C17.0729 8.80117 17.0729 8.19883 16.7813 7.70994L13.8474 2.79006C13.5558 2.30117 13.017 2 12.434 2L6.56606 2C5.98296 2 5.44416 2.30117 5.15261 2.79006L2.21866 7.70994C1.92712 8.19883 1.92712 8.80117 2.21866 9.29006L5.15261 14.2099C5.44416 14.6988 5.98296 15 6.56605 15H12.434C13.017 15 13.5558 14.6988 13.8474 14.2099L16.7813 9.29006Z" fill="#00217D"/>
    <path fill-rule="evenodd" clip-rule="evenodd" d="M16.7813 9.29006C17.0729 8.80117 17.0729 8.19883 16.7813 7.70994L13.8474 2.79006C13.5558 2.30117 13.017 2 12.434 2L6.56606 2C5.98296 2 5.44416 2.30117 5.15261 2.79006L2.21866 7.70994C1.92712 8.19883 1.92712 8.80117 2.21866 9.29006L5.15261 14.2099C5.44416 14.6988 5.98296 15 6.56605 15H12.434C13.017 15 13.5558 14.6988 13.8474 14.2099L16.7813 9.29006Z" fill="#001A64"/>
    <path d="M9.4993 12.5C8.78439 12.5 8.17107 12.3852 7.65935 12.1556C7.15515 11.9259 6.76006 11.5889 6.4741 11.1444C6.19566 10.7 6.04139 10.1481 6.01129 9.48889C6.00377 9.18519 6 8.85926 6 8.51111C6 8.16296 6.00377 7.82963 6.01129 7.51111C6.04139 6.86667 6.19943 6.32222 6.48539 5.87778C6.77135 5.42593 7.1702 5.08519 7.68192 4.85556C8.19365 4.61852 8.79944 4.5 9.4993 4.5C9.99597 4.5 10.455 4.56296 10.8764 4.68889C11.2979 4.80741 11.6666 4.98519 11.9827 5.22222C12.2987 5.45185 12.5433 5.73333 12.7164 6.06667C12.897 6.39259 12.9911 6.76296 12.9986 7.17778C13.0061 7.24445 12.9835 7.3 12.9309 7.34445C12.8857 7.38889 12.8293 7.41111 12.7615 7.41111H11.2377C11.1398 7.41111 11.0646 7.39259 11.0119 7.35556C10.9592 7.31111 10.9141 7.23333 10.8764 7.12222C10.7711 6.72963 10.598 6.46296 10.3572 6.32222C10.1239 6.17407 9.83418 6.1 9.48801 6.1C9.07411 6.1 8.74676 6.21482 8.50595 6.44445C8.26514 6.66667 8.13344 7.04074 8.11087 7.56667C8.08829 8.17407 8.08829 8.7963 8.11087 9.43333C8.13344 9.95926 8.26514 10.337 8.50595 10.5667C8.74676 10.7889 9.07411 10.9 9.48801 10.9C9.83418 10.9 10.1277 10.8259 10.3685 10.6778C10.6093 10.5296 10.7786 10.263 10.8764 9.87778C10.9065 9.76667 10.9479 9.69259 11.0006 9.65556C11.0608 9.61111 11.1398 9.58889 11.2377 9.58889H12.7615C12.8293 9.58889 12.8857 9.61111 12.9309 9.65556C12.9835 9.7 13.0061 9.75556 12.9986 9.82222C12.9911 10.237 12.897 10.6111 12.7164 10.9444C12.5433 11.2704 12.2987 11.5519 11.9827 11.7889C11.6666 12.0185 11.2979 12.1963 10.8764 12.3222C10.455 12.4407 9.99597 12.5 9.4993 12.5Z" fill="#F9FBFF"/>
</svg>
