<svg  viewBox="0 0 459 459" fill="none" xmlns="http://www.w3.org/2000/svg">
    <path d="M255.608 424.171C239.782 416.681 233.475 398.871 231.244 382.283C230.868 379.529 230.078 376.665 230.978 374.021C231.878 371.377 234.65 369.22 237.312 369.964C239.525 370.579 240.819 372.8 242.297 374.554C244.263 376.919 246.861 378.677 249.788 379.621C251.697 380.236 253.965 380.429 255.534 379.18C257.683 377.464 257.37 374.14 256.93 371.405C256.03 366.331 255.149 361.258 254.286 356.184C253.664 353.477 253.481 350.688 253.744 347.922C254.148 345.168 255.626 342.414 258.105 341.276C260.583 340.138 264.063 341.065 265.063 343.654C265.358 344.767 265.579 345.899 265.724 347.041C265.99 348.17 266.734 349.336 267.863 349.474C268.992 349.611 269.975 348.648 270.663 347.702C273.013 344.462 274.335 340.578 275.529 336.732C276.722 332.886 277.842 328.966 279.898 325.514C281.955 322.062 285.094 319.088 288.977 318.17C292.86 317.252 297.45 318.996 299.075 322.677C300.7 326.359 299.13 330.664 297.239 334.207C294.367 339.454 290.753 344.259 286.508 348.473C285.661 349.148 285.051 350.073 284.764 351.117C284.479 353.045 286.517 354.569 288.436 354.862C290.584 355.193 292.769 354.605 294.944 354.495C297.12 354.385 299.589 354.936 300.746 356.818C302.334 359.425 300.489 362.757 298.515 365.08C294.551 369.707 289.822 373.619 284.534 376.647C282.643 377.721 280.633 378.73 279.246 380.42C277.86 382.109 277.3 384.734 278.604 386.497C279.907 388.259 282.542 388.452 284.58 387.699C286.618 386.947 288.316 385.487 290.198 384.395C293.723 382.338 298.625 381.769 301.591 384.615C302.515 385.61 303.196 386.806 303.58 388.109C303.964 389.412 304.04 390.787 303.803 392.124C303.315 394.788 302.294 397.327 300.801 399.587C296.047 407.76 289.211 414.526 280.991 419.196C272.775 423.694 264.825 425.888 255.617 424.181" fill="#F5F5F5"/>
    <path d="M258.114 413.1C259.331 403.652 261.091 394.282 263.383 385.036L265.146 377.757C265.724 375.361 266.303 372.992 266.982 370.716C268.354 366.346 269.966 362.056 271.811 357.864C273.546 353.843 275.336 350.079 277.034 346.581C278.732 343.084 280.394 339.853 282.028 336.979C284.579 332.422 287.489 328.075 290.731 323.98C291.878 322.53 292.805 321.437 293.439 320.703C293.742 320.354 293.989 320.079 294.164 319.868C294.338 319.657 294.421 319.592 294.43 319.601C294.364 319.707 294.29 319.809 294.21 319.904L293.512 320.767C292.906 321.52 292.007 322.603 290.887 324.1C287.716 328.235 284.859 332.601 282.34 337.163C280.734 340.045 279.099 343.277 277.41 346.774C275.721 350.272 273.959 354.036 272.242 358.056C270.414 362.249 268.82 366.539 267.468 370.908C266.762 373.176 266.192 375.498 265.632 377.922L263.87 385.211C261.582 394.438 259.814 403.785 258.573 413.21" fill="#E0E0E0"/>
    <path d="M267.138 370.679C266.939 370.322 266.782 369.943 266.67 369.55C266.394 368.825 266.036 367.714 265.614 366.419C264.769 363.757 263.723 360.039 262.585 355.945C261.446 351.851 260.354 348.151 259.463 345.517C259.023 344.195 258.656 343.121 258.399 342.395C258.244 342.018 258.124 341.628 258.041 341.229C258.262 341.572 258.444 341.938 258.582 342.322C258.903 343.029 259.317 344.084 259.803 345.388C260.785 348.014 261.933 351.695 263.08 355.807C264.228 359.92 265.192 363.519 265.963 366.309C266.321 367.576 266.615 368.641 266.881 369.495C267.001 369.881 267.087 370.277 267.138 370.679Z" fill="#E0E0E0"/>
    <path d="M301.242 358.14C300.798 358.325 300.337 358.463 299.865 358.553C298.947 358.782 297.689 359.113 296.11 359.572C292.943 360.49 288.619 361.848 283.91 363.593C279.2 365.337 275.005 367.109 271.976 368.467C270.47 369.137 269.268 369.716 268.432 370.11C268.013 370.339 267.573 370.529 267.12 370.68C267.499 370.387 267.909 370.135 268.341 369.927C269.148 369.477 270.333 368.853 271.82 368.091C274.785 366.64 278.971 364.813 283.69 363.06C287.717 361.553 291.82 360.257 295.982 359.177C297.579 358.755 298.882 358.479 299.791 358.305C300.269 358.205 300.754 358.149 301.242 358.14Z" fill="#E0E0E0"/>
    <path d="M258.435 412.393C258.318 412.273 258.213 412.141 258.123 411.999L257.306 410.833C256.599 409.805 255.617 408.308 254.433 406.436C252.046 402.69 248.925 397.412 245.556 391.536C242.187 385.661 239.13 380.364 236.807 376.582L234.053 372.093L233.319 370.872C233.222 370.737 233.145 370.589 233.089 370.432C233.089 370.432 233.209 370.551 233.401 370.817C233.594 371.083 233.897 371.515 234.218 371.992C234.925 373.011 235.908 374.508 237.101 376.389C239.479 380.135 242.609 385.404 245.978 391.279C249.347 397.155 252.404 402.451 254.717 406.243L257.471 410.723C257.765 411.209 258.013 411.641 258.206 411.944C258.304 412.081 258.382 412.233 258.435 412.393Z" fill="#E0E0E0"/>
    <path d="M302.665 389.397C302.535 389.51 302.39 389.603 302.233 389.673L300.957 390.352L296.22 392.822C292.218 394.915 286.728 397.861 280.669 401.084C274.611 404.306 269.093 407.253 265.063 409.254C263.044 410.254 261.391 411.09 260.253 411.576L258.876 412.182C258.725 412.262 258.565 412.324 258.399 412.366C258.53 412.256 258.675 412.163 258.83 412.09L260.115 411.411L264.852 408.932C268.846 406.849 274.335 403.902 280.394 400.67C286.453 397.439 291.979 394.511 296 392.509C298.02 391.509 299.672 390.673 300.81 390.187L302.132 389.581C302.299 389.493 302.479 389.431 302.665 389.397Z" fill="#E0E0E0"/>
    <path d="M140.821 227.122C140.821 227.122 129.915 228.637 136.038 252.523C142.161 276.409 147.357 288.729 147.357 288.729C147.357 288.729 148.174 294.136 143.814 293.971C139.453 293.805 130.558 290.299 127.538 294.971C124.416 299.855 127.152 305.73 133.964 311.89C140.775 318.05 155.298 332.086 156.601 333.362C157.905 334.638 158.86 337.264 155.867 337.622C152.874 337.98 131.65 335.492 131.081 345.636C130.512 355.78 152.388 369.807 154.747 371.386C157.106 372.965 157.501 374.195 156.95 375.572C156.4 376.949 149.368 375.434 143.3 374.966C137.232 374.498 130.108 375.039 130.264 380.915C130.42 386.79 141.913 401.661 175.42 412.714L191.293 416.817L203.016 405.269C226.608 379.023 229.188 360.416 226.406 355.238C223.625 350.061 217.226 353.136 212.14 356.551C207.055 359.966 201.73 364.813 200.592 363.895C199.454 362.977 199.16 361.71 200.427 359.167C201.694 356.624 213.71 333.582 208.166 325.063C202.621 316.544 185.436 329.231 182.682 330.397C179.928 331.563 179.432 328.79 179.928 327.065C180.424 325.339 186.023 305.951 188.906 297.184C191.788 288.417 191.238 281.972 186.097 279.292C181.14 276.712 175.182 284.203 171.473 286.517C167.764 288.83 165.8 283.763 165.8 283.763C165.8 283.763 164.184 270.497 157.63 246.721C151.075 222.945 140.619 227.205 140.619 227.205" fill="#EBEBEB"/>
    <path d="M191.284 420.765C186.538 403.323 178.615 372.111 171.684 345.315C164.753 318.519 158.456 294.357 153.793 276.86C151.461 268.12 149.57 261.052 148.285 256.14C147.642 253.708 147.137 251.808 146.788 250.504L146.403 249.035C146.32 248.705 146.292 248.53 146.292 248.53C146.292 248.53 146.357 248.686 146.458 249.017C146.559 249.347 146.696 249.852 146.88 250.476C147.256 251.78 147.798 253.662 148.477 256.085C149.854 260.96 151.8 268.019 154.169 276.759C158.915 294.201 165.277 318.445 172.208 345.186C179.139 371.928 186.997 403.167 191.66 420.664" fill="#E0E0E0"/>
    <path d="M139.784 300.425C140.15 300.576 140.501 300.764 140.83 300.985C141.482 301.37 142.418 301.958 143.584 302.692C145.87 304.17 148.982 306.291 152.369 308.687L161.017 314.856L163.652 316.692C163.984 316.898 164.292 317.142 164.57 317.417C164.199 317.267 163.846 317.08 163.514 316.857C162.862 316.471 161.926 315.884 160.76 315.14C158.493 313.644 155.408 311.468 152.021 309.082L143.327 302.977L140.683 301.141C140.359 300.935 140.057 300.695 139.784 300.425Z" fill="#E0E0E0"/>
    <path d="M165.901 316.655C165.782 316.582 169.867 309.981 175.017 301.912C180.167 293.843 184.454 287.362 184.573 287.435C184.692 287.509 180.607 294.118 175.448 302.187C170.289 310.257 166.02 316.71 165.901 316.655Z" fill="#E0E0E0"/>
    <path d="M174.695 358.222C174.949 357.905 175.242 357.621 175.567 357.378L178.037 355.211C180.121 353.375 182.994 350.841 186.06 347.922C189.126 345.003 191.825 342.277 193.753 340.284C194.671 339.366 195.424 338.549 196.039 337.925C196.317 337.617 196.624 337.338 196.957 337.09C196.754 337.441 196.507 337.765 196.222 338.054C195.727 338.65 194.983 339.495 194.047 340.523C192.211 342.589 189.53 345.37 186.446 348.289C183.361 351.209 180.46 353.724 178.312 355.487C177.229 356.405 176.348 357.066 175.723 357.534C175.407 357.8 175.062 358.031 174.695 358.222Z" fill="#E0E0E0"/>
    <path d="M147.844 348.739C148.214 348.784 148.578 348.873 148.927 349.005L151.837 349.923C154.279 350.704 157.648 351.815 161.357 353.063C165.065 354.312 168.416 355.487 170.83 356.359L173.685 357.405C174.041 357.516 174.383 357.667 174.704 357.855C174.334 357.817 173.969 357.731 173.621 357.598L170.711 356.68C168.269 355.9 164.9 354.789 161.191 353.531C157.483 352.274 154.132 351.108 151.718 350.245L148.863 349.189C148.504 349.086 148.162 348.934 147.844 348.739Z" fill="#E0E0E0"/>
    <path d="M150.947 386.423C151.419 386.493 151.883 386.61 152.333 386.772L156.06 387.91C159.2 388.892 163.523 390.278 168.297 391.848C173.071 393.418 177.376 394.85 180.488 395.924L184.16 397.209C184.617 397.356 185.062 397.537 185.491 397.751C185.016 397.681 184.548 397.564 184.096 397.402L180.369 396.264C177.229 395.282 172.905 393.895 168.132 392.326C163.358 390.756 159.053 389.315 155.95 388.25L152.278 386.955C151.819 386.818 151.374 386.64 150.947 386.423Z" fill="#E0E0E0"/>
    <path d="M184.738 397.246C185.061 396.849 185.421 396.484 185.812 396.154L188.851 393.299C191.412 390.884 194.937 387.534 198.729 383.724C202.52 379.914 205.871 376.38 208.276 373.81L211.122 370.762C211.457 370.373 211.822 370.01 212.214 369.679C211.947 370.11 211.639 370.516 211.296 370.89C210.672 371.652 209.735 372.726 208.542 374.048C206.201 376.692 202.896 380.272 199.087 384.082C195.277 387.892 191.743 391.215 189.099 393.565C187.777 394.731 186.703 395.676 185.941 396.319C185.566 396.661 185.164 396.971 184.738 397.246Z" fill="#E0E0E0"/>
    <path d="M93.4523 84.6762L84.4926 81.9222C84.4926 81.9222 82.1425 89.4498 74.2844 87.1456C72.7631 86.7267 71.4096 85.8452 70.4113 84.6232C69.413 83.4012 68.8192 81.8992 68.7122 80.3249C68.5945 78.9973 68.7955 77.6608 69.2985 76.4265C69.8015 75.1923 70.5918 74.096 71.6039 73.2287C73.908 71.1908 77.9472 69.9515 83.648 72.8982L89.9547 52.7022L81.096 49.9482L77.424 61.7813C77.424 61.7813 63.9845 61.1111 59.7158 74.7985C55.6307 87.8984 66.4263 94.6089 71.457 96.1787C75.2758 97.3721 88.6878 100.53 93.4523 84.6762Z" fill="#F5F5F5"/>
    <path d="M82.296 45.7452L91.2871 48.5508L93.9068 40.1556L84.9156 37.35L82.296 45.7452Z" fill="#F5F5F5"/>
    <path d="M118.174 61.873L121.763 60.955C121.654 60.5473 121.627 60.1218 121.685 59.7037C121.744 59.2857 121.885 58.8835 122.102 58.5213C122.319 58.159 122.606 57.844 122.947 57.595C123.287 57.346 123.675 57.1681 124.086 57.0718C124.684 56.8913 125.323 56.9012 125.915 57.1002C126.508 57.2992 127.023 57.6775 127.391 58.1826C127.703 58.602 127.911 59.0893 127.999 59.6046C128.087 60.1199 128.051 60.6487 127.896 61.1477C127.556 62.3136 126.464 63.5804 123.93 63.7916L126.069 71.8792L129.612 70.9612L128.364 66.2243C129.708 65.4138 130.747 64.1838 131.323 62.7239C131.899 61.2641 131.978 59.6554 131.549 58.1459C130.172 52.8949 125.123 52.9225 123.131 53.4457C121.589 53.8037 116.439 55.5571 118.174 61.873Z" fill="#EBEBEB"/>
    <path d="M130.863 72.1403L127.247 73.1094L128.152 76.4842L131.767 75.5152L130.863 72.1403Z" fill="#EBEBEB"/>
    <path d="M414.514 154.783L418.002 156.041C418.148 155.646 418.372 155.284 418.661 154.977C418.949 154.67 419.296 154.424 419.681 154.253C420.066 154.082 420.481 153.989 420.902 153.981C421.323 153.973 421.742 154.049 422.133 154.205C422.721 154.394 423.235 154.76 423.607 155.253C423.978 155.746 424.188 156.342 424.208 156.959C424.229 157.486 424.126 158.01 423.906 158.489C423.685 158.967 423.355 159.387 422.941 159.713C422.023 160.475 420.38 160.888 418.176 159.621L415.322 167.489L418.773 168.737L420.444 164.147C422.011 164.244 423.566 163.824 424.871 162.952C426.176 162.08 427.159 160.803 427.669 159.318C429.505 154.214 425.364 151.378 423.409 150.671C421.913 150.083 416.68 148.605 414.514 154.783Z" fill="#EBEBEB"/>
    <path d="M418.257 170.333L414.753 169.063L413.568 172.335L417.072 173.604L418.257 170.333Z" fill="#EBEBEB"/>
    <path d="M44.3026 194.735L51.6466 191.889C51.6466 191.889 49.2598 185.693 55.6583 183.095C56.8828 182.577 58.238 182.451 59.5369 182.736C60.8358 183.02 62.0145 183.701 62.9105 184.683C63.6727 185.5 64.2313 186.485 64.5408 187.559C64.8503 188.633 64.9019 189.764 64.6914 190.861C64.2324 193.413 62.2128 196.369 56.8976 197.388L63.3236 214.032L70.6676 211.223L66.9038 201.473C66.9038 201.473 76.0838 194.882 71.7783 183.591C67.6014 172.795 56.9159 174.025 52.8125 175.613C49.6454 176.834 39.1434 181.764 44.3026 194.735Z" fill="#F5F5F5"/>
    <path d="M72.059 214.61L64.6492 217.465L67.3158 224.386L74.7256 221.532L72.059 214.61Z" fill="#F5F5F5"/>
    <path d="M417.387 222.744L412.154 224.754C412.154 224.754 413.843 229.151 409.309 230.987C408.44 231.35 407.481 231.437 406.562 231.237C405.642 231.037 404.806 230.558 404.168 229.867C403.628 229.288 403.232 228.59 403.014 227.829C402.795 227.068 402.76 226.266 402.91 225.488C403.241 223.652 404.673 221.596 408.418 220.898L403.92 209.065L398.742 211.057L401.405 217.97C399.52 219.411 398.162 221.432 397.538 223.721C396.915 226.01 397.06 228.44 397.953 230.638C400.9 238.285 408.446 237.422 411.383 236.293C413.605 235.421 421.041 231.933 417.387 222.744Z" fill="#F5F5F5"/>
    <path d="M397.718 208.66L402.969 206.637L401.081 201.737L395.83 203.76L397.718 208.66Z" fill="#F5F5F5"/>
    <path d="M432.167 425.741C432.167 425.878 341.423 425.979 229.509 425.979C117.596 425.979 26.8333 425.878 26.8333 425.741C26.8333 425.603 117.559 425.502 229.509 425.502C341.459 425.502 432.167 425.612 432.167 425.741Z" fill="#263238"/>
    <path d="M94.1317 425.951C95.0734 426.097 96.033 426.078 96.9683 425.896C98.1039 425.723 99.2199 425.441 100.301 425.052C101.793 424.533 103.189 423.769 104.432 422.793C105.179 422.192 105.763 421.412 106.13 420.526C106.437 419.532 106.598 418.499 106.607 417.46C106.628 416.348 106.711 415.239 106.855 414.137C107.049 412.963 107.473 411.84 108.104 410.832C109.315 408.702 111.335 406.682 111.978 403.791C112.62 400.899 112.18 397.87 111.702 394.785C111.225 391.701 110.784 388.359 111.941 385.128C113.098 381.896 115.301 379.005 116.43 375.388C117.559 371.771 117.027 367.787 117.265 363.904C117.336 361.931 117.791 359.991 118.606 358.194C119.432 356.358 120.588 354.659 121.488 352.75C123.324 348.876 123.636 344.488 124.132 340.182C124.38 338.016 124.618 335.822 124.866 333.619C125.023 331.391 125.407 329.186 126.014 327.037C126.71 324.87 127.532 322.746 128.474 320.675C128.959 319.604 129.358 318.496 129.667 317.361C129.84 316.187 129.951 315.004 129.998 313.818C130.107 311.442 130.015 309.062 129.723 306.703C129.447 304.335 129.016 301.984 128.759 299.607C128.759 299.46 128.759 299.322 128.759 299.194L128.704 298.726L128.29 298.928C126.12 300.041 124.235 301.64 122.782 303.6C121.358 305.519 120.211 307.63 119.377 309.87C117.66 314.286 117.045 318.912 116.182 323.328C115.319 327.744 114.218 332.086 111.959 335.758C110.83 337.594 109.462 339.264 108.287 341.045C107.011 342.783 106.139 344.784 105.735 346.902C105.12 351.254 107.516 355.072 107.02 358.928C106.797 360.817 106.171 362.635 105.184 364.262C104.266 365.905 103.156 367.429 102.109 368.953C101.048 370.447 100.127 372.036 99.3551 373.699C98.629 375.326 98.2 377.07 98.0883 378.849C97.8404 382.319 98.327 385.605 98.0883 388.708C97.8017 391.665 96.9377 394.538 95.5454 397.163C94.3061 399.687 92.92 401.973 91.7633 404.195C91.1849 405.296 90.6433 406.379 90.2027 407.472C89.7857 408.521 89.4781 409.61 89.2847 410.722C88.9774 412.663 88.9527 414.639 89.2112 416.588C89.4809 419.305 90.4977 421.894 92.1488 424.069C92.4013 424.398 92.6807 424.705 92.9842 424.987C93.187 425.2 93.4116 425.391 93.6544 425.556C94.0399 425.841 94.2419 425.97 94.2419 425.97C93.508 425.39 92.84 424.731 92.2498 424.005C90.6737 421.822 89.7217 419.252 89.4958 416.569C89.2621 414.645 89.3053 412.698 89.6243 410.786C89.8176 409.701 90.1253 408.639 90.5423 407.619C91.0075 406.514 91.5315 405.436 92.1121 404.387C93.278 402.184 94.6733 399.908 95.9402 397.365C97.3741 394.699 98.2663 391.775 98.5657 388.763C98.8411 385.596 98.3637 382.291 98.6207 378.913C98.739 377.192 99.1584 375.504 99.86 373.928C100.636 372.3 101.558 370.745 102.614 369.283C103.661 367.759 104.771 366.235 105.726 364.555C106.774 362.867 107.444 360.973 107.691 359.001C108.186 354.898 105.809 351.061 106.424 347.012C106.826 344.987 107.669 343.075 108.893 341.413C110.059 339.659 111.436 337.988 112.565 336.107C114.906 332.334 116.035 327.909 116.889 323.475C117.743 319.041 118.376 314.451 120.065 310.118C120.878 307.94 121.993 305.888 123.379 304.022C124.777 302.142 126.589 300.609 128.676 299.543L128.208 299.276C128.208 299.414 128.208 299.552 128.254 299.699C128.511 302.104 128.942 304.454 129.172 306.804C129.462 309.127 129.551 311.47 129.438 313.808C129.392 314.957 129.287 316.103 129.126 317.242C128.829 318.34 128.442 319.411 127.969 320.445C127.022 322.539 126.194 324.684 125.491 326.871C124.879 329.054 124.491 331.293 124.334 333.555C124.095 335.767 123.847 337.961 123.609 340.127C123.113 344.451 122.792 348.766 121.038 352.502C120.12 354.338 119.019 356.091 118.165 357.964C117.325 359.829 116.857 361.841 116.788 363.885C116.558 367.851 117.073 371.734 115.998 375.241C114.924 378.748 112.694 381.667 111.565 384.981C110.435 388.295 110.848 391.802 111.344 394.877C111.84 397.952 112.336 400.982 111.675 403.708C111.014 406.435 109.123 408.472 107.893 410.657C107.244 411.709 106.81 412.879 106.617 414.1C106.478 415.215 106.404 416.336 106.396 417.46C106.398 418.474 106.249 419.482 105.956 420.452C105.616 421.293 105.069 422.035 104.367 422.61C103.158 423.585 101.797 424.354 100.337 424.886C99.2709 425.297 98.1672 425.605 97.0418 425.804C96.3539 425.929 95.6569 425.997 94.9579 426.006C94.3796 425.951 94.1317 425.951 94.1317 425.951Z" fill="#263238"/>
    <path d="M126.61 304.867C126.561 304.966 126.527 305.071 126.51 305.179L126.289 306.097C126.087 306.914 125.839 308.135 125.454 309.659C125.068 311.183 124.123 312.909 123.324 315.029C122.389 317.417 121.574 319.849 120.882 322.318C120.093 325.072 119.404 328.102 118.67 331.37C118.046 334.851 116.94 338.228 115.383 341.404C114.539 343.074 113.547 344.763 112.84 346.618C112.099 348.511 111.603 350.492 111.362 352.511C110.84 356.694 110.099 360.846 109.141 364.95C107.085 373.368 105.12 381.392 103.33 388.699C101.54 396.006 99.8508 402.542 98.4554 408.069C97.0601 413.595 96.0044 418.001 95.2332 421.15C94.8752 422.656 94.5906 423.84 94.3887 424.712C94.3061 425.088 94.2326 425.391 94.1775 425.63C94.1674 425.737 94.1674 425.845 94.1775 425.951C94.2309 425.856 94.271 425.754 94.2969 425.648C94.3611 425.401 94.4529 425.107 94.5631 424.73C94.7926 423.877 95.1139 422.692 95.527 421.196C96.3532 418.075 97.5191 413.641 98.9603 408.179C100.402 402.717 102.082 396.107 103.963 388.846C105.845 381.584 107.755 373.506 109.829 365.079C110.781 360.963 111.504 356.799 111.996 352.603C112.23 350.632 112.712 348.698 113.428 346.847C114.153 345.011 115.08 343.368 115.925 341.679C117.761 338.328 118.486 334.73 119.211 331.489C119.937 328.249 120.579 325.183 121.332 322.447C122.085 319.711 122.874 317.269 123.664 315.158C124.453 313.047 125.325 311.302 125.702 309.723C126.078 308.144 126.252 306.969 126.418 306.125C126.479 305.745 126.534 305.439 126.583 305.207C126.61 304.977 126.629 304.867 126.61 304.867Z" fill="#263238"/>
    <path d="M95.9493 425.997C102.66 422.004 104.588 409.887 101.788 402.598C98.9879 395.309 94.0858 388.644 93.333 380.869C92.7455 374.892 94.71 368.76 93.333 362.922C91.4511 355.036 83.7583 348.931 83.8501 340.825C83.896 336.281 86.4847 332.003 86.2736 327.459C86.0257 321.896 81.7478 317.471 79.104 312.569C75.0464 305.051 74.7802 296.174 73.394 287.783C72.0079 279.393 68.804 270.341 61.3315 266.201C60.2299 273.352 58.348 278.255 58.9355 287.939C59.1559 291.419 63.1951 298.037 63.7459 305.703C64.0763 310.293 64.2967 314.828 64.5812 319.381C64.8658 323.934 65.1412 328.341 66.7294 332.49C67.9503 335.675 69.9056 338.567 70.8145 341.854C72.5128 348.032 70.2728 354.706 71.6498 360.985C72.8157 366.291 76.4877 370.853 77.2405 376.233C78.287 383.788 73.4032 391.646 75.9002 398.852C77.1487 402.432 80.0863 405.278 80.9216 408.996C81.5734 411.86 80.8666 414.899 81.4541 417.772C82.3721 422.417 91.24 426.034 95.9677 425.731" fill="#10B981"/>
    <path d="M63.1676 273.261C63.1551 273.395 63.1551 273.53 63.1676 273.665C63.1676 273.968 63.2594 274.353 63.3145 274.84C63.4705 275.877 63.645 277.392 63.9938 279.356C64.3426 281.321 65.3892 283.542 66.197 286.223C67.0048 288.903 67.9045 291.97 68.6572 295.403C69.41 298.836 70.071 302.664 70.7411 306.768C71.4112 310.871 72.1456 315.342 74.1836 319.62C75.1016 321.759 76.1848 323.907 76.9376 326.202C77.7089 328.551 78.1838 330.987 78.3513 333.454C78.7266 338.688 79.3855 343.897 80.325 349.06C82.3813 359.654 84.3367 369.743 86.1176 378.932C87.8985 388.121 89.6886 396.319 91.1207 403.259C92.5528 410.199 93.7278 415.744 94.5448 419.654L95.4628 424.106C95.573 424.584 95.6556 424.96 95.7291 425.254C95.7539 425.389 95.7908 425.521 95.8392 425.649C95.8555 425.515 95.8555 425.379 95.8392 425.245C95.7841 424.942 95.7199 424.565 95.6373 424.079C95.4353 423.014 95.1507 421.509 94.7927 419.599C94.0216 415.679 92.9567 410.079 91.5705 403.167C90.1843 396.254 88.5411 387.965 86.7143 378.812C84.8875 369.66 83.0423 359.534 80.9768 348.95C80.0367 343.787 79.3748 338.578 78.9939 333.344C78.8192 330.826 78.3288 328.34 77.5343 325.945C76.7173 323.613 75.6432 321.456 74.6977 319.326C72.6781 315.112 71.9437 310.715 71.246 306.63C70.5483 302.545 69.8782 298.708 69.0795 295.256C68.2809 291.804 67.4088 288.72 66.5091 286.076C65.6095 283.432 64.6089 281.192 64.2049 279.274C63.801 277.355 63.6082 275.813 63.4155 274.794C63.3237 274.316 63.2502 273.931 63.1951 273.628C63.1932 273.505 63.184 273.382 63.1676 273.261Z" fill="#263238"/>
    <path d="M386.91 81.4908H383.238C383.24 81.9073 383.159 82.32 382.999 82.7046C382.839 83.0892 382.604 83.4378 382.307 83.7297C382.01 84.0216 381.657 84.2509 381.27 84.4041C380.883 84.5572 380.468 84.631 380.052 84.6212C379.437 84.6433 378.831 84.4729 378.317 84.1339C377.804 83.7949 377.409 83.3042 377.188 82.7301C376.994 82.2521 376.917 81.735 376.962 81.2213C377.006 80.7075 377.172 80.2117 377.445 79.7742C378.069 78.746 379.428 77.8188 381.888 78.2503V69.9883H378.28V74.817C376.8 75.2528 375.503 76.1623 374.59 77.4061C373.676 78.6498 373.195 80.1589 373.222 81.702C373.222 87.0447 378.014 88.284 380.07 88.284C381.64 88.3207 386.983 87.9444 386.91 81.4908Z" fill="#7D99E5"/>
    <path d="M378.253 68.3174H381.916V64.8932H378.253V68.3174Z" fill="#7D99E5"/>
    <path d="M406.931 76.6071C406.943 76.4513 406.943 76.2948 406.931 76.1389C406.931 75.8085 406.931 75.3586 406.931 74.7803C406.931 74.4865 406.931 74.1469 406.885 73.7797C406.839 73.4125 406.784 73.0086 406.72 72.5863C406.656 72.164 406.591 71.6683 406.518 71.1817L406.132 69.6211C405.45 66.9336 404.334 64.3754 402.828 62.0476C400.64 58.6004 397.691 55.7006 394.207 53.5713C390.724 51.442 386.798 50.1398 382.733 49.7648C381.512 49.657 380.285 49.6324 379.061 49.6914C378.446 49.6914 377.812 49.6914 377.225 49.8107L375.334 50.0953C372.739 50.5775 370.228 51.4341 367.879 52.6381C365.428 53.9355 363.174 55.577 361.187 57.5127C359.153 59.5744 357.452 61.9407 356.147 64.5262C354.743 67.1919 353.823 70.0856 353.43 73.0728C353.315 73.8297 353.251 74.5933 353.237 75.3586C353.176 76.1251 353.161 76.8945 353.191 77.6628C353.391 82.5874 354.93 87.3642 357.644 91.4787V91.1941C356.368 94.3796 355.11 97.51 353.88 100.558L353.66 101.118L354.238 100.952L364.244 98.1985L364.005 98.1434C367.375 100.695 371.301 102.412 375.462 103.156C377.392 103.515 379.359 103.636 381.319 103.514C382.264 103.5 383.206 103.411 384.137 103.247L385.505 103.036C385.955 102.954 386.423 102.816 386.827 102.715C392.993 101.153 398.402 97.4459 402.084 92.259C403.457 90.3482 404.56 88.2568 405.361 86.0442C405.536 85.5576 405.701 85.1262 405.857 84.6488C406.013 84.1714 406.096 83.7308 406.197 83.3177C406.298 82.9046 406.408 82.4823 406.5 82.0968C406.591 81.7112 406.619 81.3348 406.674 80.9768C406.757 80.2699 406.885 79.6457 406.913 79.1408C406.94 78.6359 406.913 78.1494 406.913 77.7638C406.913 77.3782 406.913 77.1396 406.913 76.9284C406.913 76.7173 406.913 76.6438 406.913 76.6438C406.899 76.7382 406.899 76.8341 406.913 76.9284C406.913 77.1396 406.913 77.415 406.848 77.7638C406.784 78.1126 406.793 78.5992 406.757 79.1316C406.72 79.6641 406.582 80.2883 406.472 80.9676C405.596 86.0484 403.264 90.7656 399.759 94.5463C396.254 98.327 391.726 101.009 386.726 102.265C386.294 102.366 385.863 102.495 385.422 102.577L384.073 102.779C383.162 102.931 382.242 103.014 381.319 103.027C379.395 103.129 377.466 103.002 375.572 102.651C371.509 101.903 367.676 100.215 364.382 97.7211L364.272 97.6293H364.134L354.119 100.383L354.467 100.778L358.24 91.4236L358.295 91.2768L358.213 91.1391C356.405 88.4041 355.122 85.3564 354.431 82.1518C354.114 80.6651 353.923 79.1542 353.862 77.6353C353.831 76.8854 353.846 76.1342 353.907 75.3862C353.913 74.6391 353.974 73.8934 354.091 73.1554C354.443 70.2382 355.311 67.4067 356.652 64.7925C357.928 62.2656 359.584 59.9497 361.564 57.9258C363.508 56.0255 365.715 54.4148 368.118 53.143C370.414 51.9488 372.873 51.0982 375.416 50.6185L377.252 50.334C377.867 50.2422 378.482 50.2513 379.088 50.2054C380.285 50.1485 381.484 50.17 382.678 50.2697C386.676 50.6198 390.543 51.8764 393.983 53.9443C397.424 56.0121 400.348 58.8368 402.534 62.2037C404.049 64.4908 405.183 67.0081 405.894 69.6579L406.307 71.2001C406.389 71.6866 406.463 72.1181 406.536 72.5771C406.61 73.0361 406.665 73.4033 406.729 73.7705C406.793 74.1377 406.775 74.4682 406.803 74.7619C406.803 75.3311 406.876 75.7809 406.904 76.1114C406.886 76.2771 406.895 76.4444 406.931 76.6071Z" fill="#263238"/>
    <path d="M133.174 184.867H186.189C186.189 184.867 186.189 140.353 232.447 139.564C256.471 139.142 268.928 154.885 273.995 166.939C279.871 180.938 278.09 196.893 270.213 209.883C261.226 224.708 241.856 239.607 206.128 233.31L205.788 351.429H258.215V281.404C258.215 281.404 331.738 262.401 331.738 181.342C331.738 103.817 269.047 87.0725 235.348 85.9893C216.602 85.3926 209.809 84.5848 186.62 87.8804C157.07 92.1032 132.55 126.418 133.174 184.867Z" fill="#8BAAFF"/>
    <path d="M258.849 376.05H205.641V425.741H258.849V376.05Z" fill="#8BAAFF"/>
    <path opacity="0.1" d="M258.849 376.05H205.641V425.741H258.849V376.05Z" fill="black"/>
    <path opacity="0.1" d="M133.174 184.867H186.189C186.189 184.867 186.189 140.353 232.447 139.564C256.471 139.142 268.928 154.885 273.995 166.939C279.871 180.938 278.09 196.893 270.213 209.883C261.226 224.708 241.856 239.607 206.128 233.31L205.788 351.429H258.215V281.404C258.215 281.404 331.738 262.401 331.738 181.342C331.738 103.817 269.047 87.0725 235.348 85.9893C216.602 85.3926 209.809 84.5848 186.62 87.8804C157.07 92.1032 132.55 126.418 133.174 184.867Z" fill="black"/>
    <path d="M111.207 184.867H164.23C164.23 184.867 164.23 140.353 210.488 139.563C234.512 139.141 246.97 154.885 252.028 166.938C257.912 180.938 256.131 196.892 248.255 209.882C239.268 224.708 219.558 238.184 183.83 231.914V351.429H236.257V281.404C236.257 281.404 309.779 262.401 309.779 181.342C309.779 103.816 240.25 85.8145 210.497 85.8145C187.74 85.842 110.206 91.3408 111.207 184.867Z" fill="#8BAAFF"/>
    <path opacity="0.3" d="M111.207 184.867H164.23C164.23 184.867 164.23 140.353 210.488 139.563C234.512 139.141 246.97 154.885 252.028 166.938C257.912 180.938 256.131 196.892 248.255 209.882C239.268 224.708 219.558 238.184 183.83 231.914V351.429H236.257V281.404C236.257 281.404 309.779 262.401 309.779 181.342C309.779 103.816 240.25 85.8145 210.497 85.8145C187.74 85.842 110.206 91.3408 111.207 184.867Z" fill="black"/>
    <path d="M236.89 376.05H183.683V425.741H236.89V376.05Z" fill="#8BAAFF"/>
    <path opacity="0.3" d="M236.89 376.05H183.683V425.741H236.89V376.05Z" fill="black"/>
    <path d="M216.474 139.802C216.211 139.825 215.947 139.825 215.684 139.802C215.161 139.802 214.408 139.628 213.426 139.619C210.649 139.482 207.865 139.599 205.109 139.967C201.022 140.485 197 141.429 193.111 142.786C190.817 143.587 188.584 144.55 186.427 145.668C184.096 146.833 181.901 148.252 179.882 149.9C177.877 151.563 176.08 153.461 174.53 155.555C173.061 157.491 171.721 159.521 170.519 161.632C168.511 165.228 166.919 169.041 165.772 172.997C164.995 175.667 164.461 178.401 164.175 181.167C164.065 182.14 164.037 182.911 164.01 183.425C164.011 183.69 163.986 183.955 163.936 184.215C163.913 183.952 163.913 183.688 163.936 183.425C163.936 182.902 163.936 182.131 164.019 181.149C164.23 178.353 164.719 175.586 165.479 172.887C166.583 168.885 168.154 165.028 170.161 161.393C171.365 159.259 172.712 157.207 174.191 155.252C175.753 153.124 177.572 151.197 179.607 149.515C181.65 147.844 183.873 146.406 186.235 145.228C188.405 144.089 190.654 143.107 192.964 142.29C196.889 140.939 200.949 140.015 205.072 139.536C207.846 139.195 210.648 139.13 213.435 139.343C214.192 139.392 214.946 139.484 215.693 139.619C215.957 139.661 216.218 139.723 216.474 139.802Z" fill="#263238"/>
    <path d="M296.358 130.356C296.358 130.356 296.294 130.292 296.184 130.154C296.073 130.017 295.908 129.778 295.725 129.512L293.971 127.033C293.595 126.501 293.191 125.886 292.714 125.252L291.061 123.242L289.17 120.919C288.482 120.111 287.674 119.331 286.866 118.477C286.058 117.624 285.232 116.715 284.296 115.843C283.359 114.97 282.359 114.08 281.33 113.162C280.816 112.703 280.311 112.244 279.761 111.757L278.053 110.408C276.887 109.49 275.731 108.572 274.473 107.654C268.991 103.732 263.176 100.298 257.095 97.3908L252.257 95.2059L247.456 93.37C245.886 92.7182 244.289 92.2592 242.747 91.7451C241.205 91.231 239.699 90.7077 238.157 90.3497L233.769 89.2022C232.346 88.8258 230.932 88.5963 229.583 88.2842C228.233 87.9721 226.93 87.6967 225.654 87.5407L221.982 87.0082C219.659 86.6135 217.529 86.5308 215.675 86.3472C214.757 86.2738 213.839 86.1728 213.077 86.1361L210.892 86.081L207.863 85.9801H207.073H206.807C206.895 85.9663 206.985 85.9663 207.073 85.9801H207.863H210.892H213.086C213.885 85.9801 214.757 86.0902 215.693 86.1545C217.529 86.3105 219.696 86.3748 222.018 86.7512L225.69 87.2469C226.966 87.3938 228.27 87.7243 229.629 87.9721C230.987 88.22 232.383 88.477 233.842 88.8901L238.249 90.0284C239.773 90.3773 241.278 90.9464 242.839 91.4146C244.399 91.8828 245.987 92.3326 247.557 93.0303L252.386 94.8663L257.251 97.0603C263.364 99.9739 269.202 103.434 274.693 107.397C275.96 108.315 277.117 109.297 278.283 110.206L279.99 111.445C280.541 111.904 281.046 112.363 281.56 112.859L284.516 115.613C285.434 116.531 286.26 117.449 287.077 118.284C287.894 119.12 288.674 119.937 289.363 120.754L291.199 123.095L292.833 125.133C293.301 125.775 293.696 126.4 294.063 126.969C294.779 128.043 295.339 128.887 295.734 129.493L296.165 130.163C296.238 130.219 296.302 130.284 296.358 130.356Z" fill="#263238"/>
    <path d="M290.832 244.188C290.723 244.387 290.59 244.572 290.437 244.739L289.17 246.236C288.647 246.906 287.986 247.704 287.169 248.595C286.352 249.485 285.48 250.532 284.415 251.615C283.35 252.698 282.212 253.91 280.917 255.131C279.623 256.352 278.218 257.637 276.722 258.977C270.159 264.706 262.964 269.668 255.278 273.766C253.497 274.684 251.817 275.602 250.192 276.309C248.567 277.016 247.052 277.741 245.657 278.329C244.262 278.916 242.976 279.403 241.856 279.834C240.737 280.266 239.754 280.615 238.946 280.872L237.11 281.468C236.897 281.553 236.676 281.615 236.449 281.652C236.647 281.539 236.857 281.446 237.074 281.377L238.91 280.697C239.708 280.413 240.672 280.046 241.783 279.587C242.894 279.128 244.179 278.669 245.556 278.017C246.933 277.365 248.457 276.75 250.045 275.951C251.633 275.153 253.331 274.308 255.103 273.381C258.601 271.453 262.374 269.195 266.183 266.588C269.993 263.981 273.417 261.236 276.465 258.647C277.961 257.325 279.393 256.086 280.67 254.837C281.946 253.589 283.139 252.46 284.195 251.376C285.25 250.293 286.178 249.293 287.004 248.411C287.83 247.53 288.509 246.759 289.06 246.116L290.345 244.657C290.494 244.488 290.657 244.331 290.832 244.188Z" fill="#263238"/>
    <path d="M235.329 347.261C235.192 347.261 235.082 332.518 235.082 314.332C235.082 296.147 235.192 281.395 235.329 281.395C235.467 281.395 235.568 296.138 235.568 314.332C235.568 332.527 235.458 347.261 235.329 347.261Z" fill="#263238"/>
    <path d="M237.349 422.372C237.211 422.372 237.11 412.026 237.11 399.266C237.11 386.505 237.211 376.15 237.349 376.15C237.487 376.15 237.588 386.496 237.588 399.266C237.588 412.035 237.478 422.372 237.349 422.372Z" fill="#263238"/>
    <path d="M289.537 177.826C288.619 179.662 292.043 181.167 294.017 181.764C296.031 182.258 298.115 182.401 300.177 182.186C302.931 182.04 305.749 181.782 308.127 180.424C310.209 179.134 311.873 177.269 312.919 175.054C313.949 172.845 314.764 170.543 315.351 168.178C315.351 168.178 293.659 169.591 289.537 177.826Z" fill="#FF725E"/>
    <g opacity="0.4">
        <path d="M289.537 177.826C288.619 179.662 292.043 181.167 294.017 181.764C296.031 182.258 298.115 182.401 300.177 182.186C302.931 182.04 305.749 181.782 308.127 180.424C310.209 179.134 311.873 177.269 312.919 175.054C313.949 172.845 314.764 170.543 315.351 168.178C315.351 168.178 293.659 169.591 289.537 177.826Z" fill="black"/>
    </g>
    <path d="M350.804 171.951C354.381 174.487 358.666 175.83 363.051 175.788C365.152 175.905 367.225 175.252 368.88 173.952C369.587 173.3 370.119 172.474 370.844 171.85C371.34 171.427 371.918 171.106 372.387 170.656C372.634 170.443 372.824 170.173 372.941 169.868C373.058 169.564 373.098 169.235 373.057 168.912C372.876 168.115 372.429 167.403 371.79 166.892C369.302 165.479 366.328 165.534 363.464 165.598C360.597 165.722 357.766 166.276 355.064 167.241C352.842 167.994 350.52 169.077 349.391 171.097" fill="#FF725E"/>
    <g opacity="0.4">
        <path d="M373.057 168.912C372.732 168.138 372.161 167.492 371.432 167.076C368.944 165.662 366.328 165.534 363.464 165.598C360.597 165.722 357.766 166.276 355.064 167.241C352.842 167.994 350.52 169.077 349.391 171.097L350.804 171.95C354.381 174.487 358.666 175.83 363.051 175.788C365.152 175.905 367.225 175.252 368.88 173.952C369.587 173.3 370.119 172.474 370.844 171.849C371.34 171.427 371.918 171.106 372.387 170.656C372.634 170.443 372.824 170.173 372.941 169.868C373.058 169.564 373.098 169.235 373.057 168.912Z" fill="black"/>
    </g>
    <path d="M308.448 204.897L354.21 205.503C354.303 205.503 354.395 205.481 354.478 205.439C354.561 205.397 354.634 205.336 354.689 205.261C354.744 205.186 354.781 205.099 354.797 205.007C354.813 204.915 354.807 204.821 354.779 204.732L349.409 187.988C349.409 187.988 350.199 179.616 351.291 169.554C352.953 154.27 355.165 135.056 355.193 135.111C352.062 126.335 333.592 124.848 333.592 124.848L312.542 126.096L311.808 124.857L305.749 127.675C304.428 128.29 303.157 129.008 301.949 129.823C297.946 132.495 288.307 138.636 286.545 145.475C282.478 161.311 289.363 178.982 289.363 178.982L293.788 175.521C294.902 174.662 296.074 173.88 297.294 173.18L306.162 196.947C305.634 197.28 305.188 197.726 304.854 198.254C304.521 198.781 304.309 199.376 304.234 199.995C304.161 201.923 305.152 204.236 308.448 204.897Z" fill="#FF725E"/>
    <g opacity="0.3">
        <path d="M328.084 176.88C329.534 169.077 328.773 161.054 327.992 153.159C325.459 159.585 325.55 166.929 322.861 173.3C322.531 173.973 322.29 174.686 322.145 175.421C322.074 175.79 322.093 176.17 322.198 176.531C322.303 176.891 322.493 177.222 322.75 177.495C323.485 178.166 324.586 177.798 325.56 177.688C326.431 177.522 327.278 177.251 328.084 176.88Z" fill="black"/>
    </g>
    <g opacity="0.4">
        <path d="M311.202 194.946C314.874 196.222 318.785 193.845 322.668 193.422C325.238 193.147 327.809 193.735 330.361 194.148C335.521 194.983 340.771 195.112 345.967 194.533C346.764 194.489 347.544 194.287 348.262 193.937C348.632 193.684 348.936 193.344 349.145 192.947C349.355 192.551 349.464 192.109 349.464 191.66C340.817 190.742 332.178 190.246 323.531 189.356C321.378 188.988 319.174 189.06 317.05 189.567C314.443 190.375 312.46 192.422 310.624 194.451" fill="black"/>
    </g>
    <path d="M371.735 165.901C367.999 157.483 354.825 134.202 354.825 134.202L344.626 146.99L347.004 172.097C347.004 172.097 352.393 166.084 367.457 165.965C368.552 166.009 369.623 166.297 370.592 166.808C371.561 167.32 372.403 168.042 373.057 168.921L371.735 165.901Z" fill="#FF725E"/>
    <path d="M310.495 161.449C309.767 159.664 309.19 157.822 308.769 155.941C308.199 154.109 307.781 152.233 307.521 150.332C308.238 152.12 308.812 153.962 309.237 155.84C309.808 157.673 310.228 159.548 310.495 161.449Z" fill="#263238"/>
    <path d="M343.855 145.292C344.187 145.527 344.495 145.794 344.773 146.091C345.584 146.874 346.345 147.708 347.05 148.588C349.424 151.489 351.092 154.902 351.924 158.557C352.356 160.578 352.453 162.656 352.209 164.708C351.98 166.59 351.621 168.242 351.383 169.637C351.144 171.033 350.997 172.171 350.924 172.961C350.922 173.371 350.879 173.78 350.795 174.181C350.73 173.772 350.712 173.356 350.74 172.942C350.781 171.817 350.885 170.695 351.052 169.582C351.245 168.178 351.566 166.507 351.778 164.662C351.99 162.656 351.881 160.63 351.456 158.658C350.634 155.071 349.039 151.706 346.784 148.799C345.104 146.54 343.782 145.365 343.855 145.292Z" fill="#263238"/>
    <path d="M334.51 202.879C334.191 203.021 333.855 203.119 333.509 203.172C333.117 203.276 332.719 203.352 332.316 203.402C331.848 203.466 331.315 203.567 330.719 203.595C329.32 203.723 327.913 203.723 326.514 203.595C324.803 203.419 323.112 203.081 321.465 202.585C319.826 202.058 318.24 201.379 316.728 200.556C315.502 199.872 314.338 199.082 313.249 198.197C312.772 197.83 312.386 197.444 312.037 197.123C311.737 196.852 311.451 196.563 311.184 196.26C310.928 196.023 310.709 195.751 310.532 195.452C310.596 195.388 311.578 196.489 313.46 197.93C314.56 198.767 315.723 199.516 316.94 200.17C318.434 200.956 319.995 201.61 321.603 202.126C323.222 202.613 324.881 202.958 326.56 203.154C327.932 203.302 329.313 203.344 330.691 203.282C333.05 203.154 334.492 202.805 334.51 202.879Z" fill="#263238"/>
    <path d="M348.638 197.664C348.854 198.079 348.976 198.537 348.996 199.004C349.142 200.123 349.058 201.261 348.748 202.346C348.433 203.456 347.794 204.447 346.912 205.192C346.242 205.752 345.728 205.926 345.7 205.88C345.673 205.834 346.104 205.531 346.683 204.962C347.425 204.188 347.964 203.242 348.252 202.208C348.987 199.785 348.464 197.673 348.638 197.664Z" fill="#263238"/>
    <path d="M346.15 200.896C346.349 201.84 346.27 202.821 345.921 203.721C345.572 204.621 344.969 205.4 344.186 205.963C344.085 205.862 344.938 204.953 345.471 203.549C346.003 202.144 346.013 200.905 346.15 200.896Z" fill="#263238"/>
    <path d="M337.962 170.693C337.475 171.516 336.929 172.301 336.328 173.043C335.853 173.873 335.316 174.664 334.721 175.412C334.897 174.443 335.314 173.534 335.933 172.768C336.422 171.916 337.12 171.202 337.962 170.693Z" fill="#263238"/>
    <path d="M306.548 148.459C305.848 148.048 305.171 147.601 304.519 147.119C301.254 144.974 297.549 143.59 293.677 143.071C292.867 143.012 292.061 142.904 291.263 142.749C292.076 142.637 292.901 142.637 293.714 142.749C297.691 143.089 301.5 144.507 304.73 146.853C305.408 147.301 306.019 147.842 306.548 148.459Z" fill="#263238"/>
    <path d="M354.825 133.899C353.182 135.223 351.647 136.674 350.235 138.242C348.935 139.914 347.772 141.688 346.756 143.548C346.865 142.922 347.079 142.32 347.39 141.767C348.054 140.39 348.887 139.101 349.868 137.929C350.852 136.76 351.981 135.72 353.228 134.836C353.703 134.434 354.243 134.117 354.825 133.899Z" fill="#263238"/>
    <path d="M335.933 126.335C336.016 126.467 336.084 126.609 336.135 126.757C336.314 127.173 336.458 127.603 336.566 128.042C336.953 129.678 336.953 131.382 336.566 133.018C335.995 135.46 334.688 137.668 332.821 139.343C330.465 141.339 327.463 142.409 324.375 142.354C321.285 142.365 318.274 141.376 315.792 139.536C313.814 138.026 312.209 136.082 311.101 133.853C310.354 132.361 309.829 130.769 309.54 129.126C309.456 128.683 309.401 128.235 309.375 127.785C309.349 127.627 309.349 127.466 309.375 127.308C309.375 127.308 309.476 127.951 309.733 129.089C310.09 130.686 310.655 132.229 311.413 133.679C312.533 135.84 314.123 137.722 316.067 139.187C318.459 140.958 321.353 141.923 324.329 141.941C327.305 141.996 330.201 140.979 332.49 139.077C334.294 137.463 335.573 135.347 336.162 133C336.571 131.415 336.627 129.761 336.328 128.153C336.153 126.941 335.878 126.353 335.933 126.335Z" fill="#263238"/>
    <g opacity="0.3">
        <path d="M339.146 172.318C339.146 171.859 339.072 171.317 338.668 171.087C338.54 171.023 338.399 170.989 338.255 170.989C338.112 170.989 337.97 171.023 337.842 171.087C337.586 171.226 337.358 171.413 337.172 171.638C336.093 172.761 335.258 174.096 334.721 175.558L339.219 175.163C339.192 174.236 339.173 173.263 339.146 172.318Z" fill="black"/>
    </g>
    <g opacity="0.3">
        <path d="M354.082 162.854C353.63 160.28 352.502 157.872 350.814 155.877C352.76 162.23 352.108 165.819 351.016 170.17L351.254 169.564C352.512 167.021 354.421 165.424 354.082 162.854Z" fill="black"/>
    </g>
    <path d="M345.095 376.251L342.35 417.424L324.449 417.213L321.63 374.406L345.095 376.251Z" fill="#FFBE9D"/>
    <path d="M342.855 412.008V413.201C342.855 413.201 363.051 421.316 363.243 425.135L323.136 424.915L323.76 411.576C329.736 414.376 335.988 414.725 342.855 412.008Z" fill="#FF725E"/>
    <path d="M327.827 415.854C327.446 415.969 327.121 416.219 326.911 416.557C326.702 416.895 326.623 417.298 326.689 417.69C326.787 418.082 327.033 418.42 327.375 418.634C327.718 418.848 328.13 418.921 328.525 418.838C328.933 418.716 329.282 418.446 329.502 418.081C329.723 417.716 329.8 417.282 329.718 416.864C329.573 416.468 329.279 416.143 328.898 415.96C328.518 415.777 328.081 415.749 327.68 415.882" fill="white"/>
    <path d="M323.136 424.915L323.283 421.711L361.692 423.106C361.692 423.106 363.473 423.896 363.262 425.144L323.136 424.915Z" fill="#263238"/>
    <path d="M343.001 413.311C343.001 413.504 342.01 413.587 341.046 414.229C340.082 414.872 339.559 415.671 339.385 415.597C339.21 415.524 339.504 414.385 340.688 413.651C341.872 412.917 343.047 413.1 343.001 413.311Z" fill="#263238"/>
    <path d="M347.197 415.073C347.243 415.266 346.389 415.587 345.719 416.414C345.049 417.24 344.856 418.112 344.654 418.103C344.452 418.094 344.342 416.983 345.196 415.982C346.049 414.982 347.188 414.936 347.197 415.073Z" fill="#263238"/>
    <path d="M349.556 420.123C349.372 420.123 349.106 419.205 349.62 418.113C350.134 417.02 351.043 416.626 351.126 416.782C351.208 416.938 350.639 417.516 350.208 418.407C349.776 419.297 349.758 420.105 349.556 420.123Z" fill="#263238"/>
    <path d="M341.826 75.1384C342.864 72.568 341.606 69.456 339.375 67.7944C337.024 66.2468 334.158 65.6893 331.398 66.243C328.675 66.8139 326.04 67.7398 323.558 68.997C322.404 67.8333 320.95 67.0133 319.357 66.6284C317.764 66.2435 316.095 66.309 314.537 66.8175C312.98 67.326 311.594 68.2575 310.535 69.508C309.475 70.7585 308.785 72.2788 308.54 73.8991C307.547 73.6493 306.505 73.6745 305.526 73.9719C304.547 74.2693 303.667 74.8278 302.981 75.5874C302.295 76.347 301.829 77.279 301.632 78.2835C301.436 79.288 301.516 80.327 301.866 81.289L314.277 85.6495L327.827 109.518C329.829 111.226 332.385 112.148 335.017 112.11C337.649 112.073 340.178 111.079 342.131 109.315C344.084 107.55 345.329 105.136 345.633 102.521C345.936 99.9061 345.278 97.2702 343.782 95.1049C344.541 94.4298 345.186 93.6362 345.691 92.7549C346.774 92.1146 347.719 91.2654 348.47 90.2568C349.222 89.2482 349.766 88.1003 350.07 86.8797C351.273 81.5644 347.16 75.7627 341.826 75.1384Z" fill="#263238"/>
    <path d="M333.61 124.849C332.839 120.965 332.307 118.303 332.316 118.331C332.325 118.358 339.66 115.485 339.128 105.268C338.871 100.182 336.934 92.1678 335.134 85.6684C333.519 79.8115 328.057 73.358 322.282 75.2215L304.776 83.7589C303.023 84.3281 302.72 85.9805 303.133 87.7706V88.6886L309.935 116.834L312.809 129.411C313.421 131.993 314.978 134.253 317.173 135.745C319.368 137.237 322.043 137.852 324.669 137.471C326.104 137.269 327.482 136.777 328.719 136.023C329.956 135.269 331.026 134.271 331.863 133.089C332.7 131.907 333.287 130.566 333.588 129.149C333.888 127.732 333.896 126.269 333.61 124.849Z" fill="#FFBE9D"/>
    <path d="M335.07 92.4616C335.144 92.7873 335.09 93.1289 334.919 93.4159C334.748 93.7028 334.473 93.9133 334.152 94.0038C333.99 94.0491 333.82 94.0611 333.653 94.0391C333.486 94.0171 333.325 93.9616 333.18 93.8758C333.036 93.7901 332.909 93.6759 332.81 93.5401C332.71 93.4043 332.639 93.2498 332.601 93.0858C332.527 92.7613 332.582 92.4209 332.753 92.1355C332.924 91.85 333.198 91.6413 333.519 91.5528C333.68 91.506 333.85 91.4926 334.017 91.5134C334.183 91.5343 334.344 91.5888 334.49 91.6739C334.635 91.7589 334.761 91.8726 334.861 92.008C334.961 92.1434 335.032 92.2978 335.07 92.4616Z" fill="#263238"/>
    <path d="M334.271 90.5062C334.143 90.7082 333.032 90.2033 331.673 90.5062C330.315 90.8091 329.452 91.6904 329.268 91.5527C329.085 91.415 329.268 91.158 329.645 90.7541C330.15 90.2204 330.807 89.855 331.526 89.7075C332.237 89.5544 332.977 89.6349 333.638 89.937C334.152 90.1482 334.326 90.4236 334.271 90.5062Z" fill="#263238"/>
    <path d="M321.741 95.472C321.814 95.7965 321.76 96.1368 321.589 96.4223C321.418 96.7078 321.143 96.9165 320.823 97.005C320.664 97.0512 320.498 97.0654 320.334 97.0469C320.17 97.0284 320.011 96.9776 319.867 96.8974C319.723 96.8171 319.596 96.709 319.493 96.5794C319.391 96.4497 319.316 96.3011 319.271 96.1421C319.198 95.8164 319.252 95.4748 319.423 95.1878C319.593 94.9009 319.868 94.6904 320.189 94.5999C320.348 94.5539 320.515 94.54 320.68 94.5591C320.844 94.5782 321.003 94.6298 321.148 94.7109C321.292 94.7921 321.419 94.9012 321.521 95.0318C321.622 95.1625 321.697 95.3121 321.741 95.472Z" fill="#263238"/>
    <path d="M321.07 93.746C320.951 93.9479 319.831 93.4339 318.473 93.746C317.114 94.0581 316.251 94.921 316.067 94.7925C315.884 94.664 316.067 94.3978 316.444 93.9847C316.951 93.4557 317.608 93.0939 318.326 92.9473C319.035 92.7965 319.774 92.8736 320.437 93.1676C320.924 93.388 321.135 93.6358 321.07 93.746Z" fill="#263238"/>
    <path d="M327.983 102.376C328.656 102.005 329.371 101.715 330.113 101.513C330.452 101.403 330.774 101.265 330.783 101.017C330.735 100.652 330.578 100.31 330.333 100.035L328.745 97.5931C326.523 94.1139 324.834 91.2314 324.972 91.1671C325.11 91.1029 327.028 93.8293 329.25 97.3086L330.801 99.7688C331.106 100.145 331.271 100.616 331.269 101.1C331.242 101.232 331.186 101.356 331.105 101.464C331.024 101.572 330.92 101.661 330.801 101.724C330.622 101.819 330.43 101.89 330.232 101.935C329.506 102.184 328.749 102.332 327.983 102.376Z" fill="#263238"/>
    <path d="M332.316 118.33C327.673 119.379 322.829 119.119 318.326 117.577C318.326 117.577 323.136 123.856 332.839 120.854L332.316 118.33Z" fill="#EB996E"/>
    <path d="M321.3 91.8006C321.208 92.1954 319.804 92.1862 318.206 92.5809C316.609 92.9757 315.342 93.5724 315.085 93.2602C314.975 93.1134 315.159 92.7278 315.645 92.3422C316.292 91.7977 317.06 91.4167 317.885 91.2315C318.703 91.0374 319.555 91.0374 320.373 91.2315C321.025 91.3508 321.364 91.617 321.3 91.8006Z" fill="#263238"/>
    <path d="M333.748 86.1729C333.528 86.5401 332.353 86.4483 330.994 86.7145C329.635 86.9808 328.561 87.4398 328.24 87.1735C328.093 87.0358 328.24 86.687 328.635 86.2555C329.241 85.7457 329.974 85.4095 330.755 85.2825C331.524 85.1275 332.321 85.1847 333.06 85.4477C333.62 85.7047 333.84 85.9893 333.748 86.1729Z" fill="#263238"/>
    <path d="M309.1 77.1856C309.303 78.18 309.723 79.1175 310.329 79.9315C310.935 80.7455 311.713 81.416 312.608 81.8953C313.503 82.3746 314.492 82.651 315.506 82.7049C316.519 82.7588 317.532 82.5888 318.473 82.207C319.923 81.6195 321.429 80.5179 322.897 81.0503C324.366 81.5828 324.972 83.6758 326.377 84.4561C328.442 85.6128 330.967 83.6116 333.271 83.8135C335.107 83.9696 336.493 85.3741 337.916 86.5675C339.339 87.7609 341.303 88.6606 342.91 87.7976C342.542 86.2646 341.997 84.7797 341.285 83.3729C340.567 81.9566 339.379 80.8339 337.925 80.1966C337.117 79.8753 336.245 79.7651 335.474 79.3704C333.812 78.5258 333.069 76.6164 331.866 75.1751C331.076 74.2669 330.081 73.56 328.964 73.113C327.846 72.666 326.638 72.4917 325.44 72.6047C323.457 72.8067 321.575 73.8073 319.574 73.7247C318.096 73.6604 316.682 72.9995 315.204 73.027C312.331 73.027 310.174 75.5974 308.577 77.9934" fill="#263238"/>
    <path d="M318.775 79.2882C317.454 79.1872 314.755 78.9118 313.864 77.9754C312.96 76.9636 311.805 76.2072 310.516 75.7819C309.227 75.3565 307.849 75.2773 306.52 75.5519C305.201 75.9451 304.043 76.7514 303.217 77.852C302.391 78.9527 301.94 80.2895 301.93 81.6658C300.324 82.0578 298.853 82.8762 297.674 84.0348C296.494 85.1933 295.65 86.6489 295.229 88.2479C294.802 89.9217 294.787 91.6743 295.187 93.3549C295.587 95.0355 296.389 96.5939 297.524 97.896C298.075 98.5856 298.578 99.3126 299.029 100.072C298.407 100.844 297.86 101.674 297.395 102.55C295.293 107.195 300.994 108.976 300.994 108.976C300.994 112.097 303.886 112.079 305.731 112.07C307.576 112.061 308.595 116.99 310.036 116.798L308.577 101.586C308.79 101.67 309.017 101.713 309.247 101.715C312.726 101.779 311.817 95.1879 310.697 93.4529C311.734 92.1625 312.609 90.7506 313.304 89.2485C313.934 86.9521 313.979 84.5344 313.433 82.2166C314.599 82.0697 319.345 79.3249 318.775 79.2882Z" fill="#263238"/>
    <path d="M309.036 102.394C308.917 101.911 308.678 101.465 308.341 101.099C308.003 100.733 307.579 100.459 307.107 100.301C306.635 100.144 306.131 100.108 305.641 100.198C305.152 100.288 304.693 100.5 304.308 100.815C303.39 101.605 302.903 102.927 303.454 105.139C304.941 111.051 310.569 108.343 310.532 108.178C310.495 108.012 309.678 104.836 309.036 102.394Z" fill="#FFBE9D"/>
    <path d="M308.163 106.387C308.163 106.387 308.081 106.488 307.925 106.608C307.708 106.774 307.434 106.85 307.163 106.819C306.483 106.745 305.703 105.901 305.409 104.827C305.269 104.325 305.241 103.798 305.327 103.284C305.336 103.085 305.394 102.89 305.494 102.718C305.595 102.545 305.736 102.399 305.905 102.293C306.017 102.233 306.146 102.214 306.27 102.239C306.394 102.264 306.505 102.332 306.584 102.431C306.704 102.568 306.695 102.697 306.731 102.706C306.768 102.715 306.832 102.568 306.731 102.339C306.661 102.203 306.548 102.093 306.41 102.027C306.216 101.948 305.998 101.948 305.804 102.027C305.574 102.136 305.374 102.302 305.225 102.509C305.076 102.716 304.981 102.958 304.95 103.211C304.831 103.789 304.853 104.387 305.015 104.955C305.117 105.488 305.375 105.979 305.755 106.366C306.136 106.753 306.622 107.019 307.154 107.131C307.326 107.138 307.499 107.106 307.657 107.038C307.816 106.969 307.958 106.866 308.072 106.736C308.191 106.534 308.191 106.396 308.163 106.387Z" fill="#EB996E"/>
    <path d="M340.734 94.1409C340.734 94.1409 341.276 93.7278 342.028 92.8098C343.067 91.4871 343.704 89.894 343.864 88.2198C343.986 87.0769 343.874 85.9213 343.534 84.8232C343.142 83.5637 342.415 82.4342 341.432 81.5552C340.296 80.5634 338.921 79.8858 337.443 79.5895C335.965 79.2932 334.435 79.3885 333.005 79.866C332.729 79.9578 332.472 80.0955 332.215 80.2057C331.958 80.3159 331.728 80.4811 331.49 80.6188L331.123 80.8208V80.4168C331.115 79.7057 330.851 79.0213 330.379 78.489C329.896 77.9725 329.303 77.571 328.644 77.314C327.397 76.7944 326.016 76.6914 324.706 77.0202C322.172 77.5986 320.024 78.7553 317.995 78.9939C316.404 79.2704 314.767 78.9431 313.405 78.0759C313.046 77.8286 312.735 77.5175 312.487 77.1579C312.34 76.9101 312.267 76.7724 312.285 76.7632C312.618 77.2165 313.024 77.6106 313.488 77.9291C314.828 78.7027 316.402 78.9668 317.922 78.6726C318.979 78.4737 320.012 78.1661 321.006 77.7546C322.173 77.2883 323.369 76.8988 324.586 76.5888C325.265 76.4246 325.963 76.3535 326.661 76.3776C327.398 76.4165 328.122 76.5843 328.8 76.8734C329.502 77.1733 330.129 77.6247 330.636 78.1953C331.179 78.8167 331.485 79.6101 331.499 80.4352L331.132 80.2332L331.894 79.7926C332.178 79.6824 332.445 79.5356 332.738 79.4346C334.245 78.9184 335.862 78.8104 337.425 79.1216C338.987 79.4328 340.439 80.1521 341.634 81.2063C342.666 82.141 343.422 83.3414 343.819 84.6764C344.231 86.0913 344.286 87.5861 343.98 89.0277C343.674 90.4693 343.016 91.8127 342.065 92.9384C341.763 93.2834 341.421 93.5915 341.046 93.8564C340.954 93.9635 340.849 94.0591 340.734 94.1409Z" fill="#455A64"/>
    <path d="M339.541 73.3851C338.938 73.0791 338.295 72.8597 337.631 72.7333C336.872 72.6296 336.099 72.7018 335.373 72.9444C334.432 73.2323 333.614 73.827 333.05 74.6336L332.821 74.9549L332.683 74.5877C332.204 73.4592 331.432 72.4789 330.448 71.748C329.464 71.017 328.302 70.5617 327.083 70.4291C325.169 70.3571 323.282 70.9044 321.704 71.9897C320.359 72.8664 318.929 73.6046 317.435 74.1929C316.405 74.5824 315.296 74.7148 314.204 74.5785C313.913 74.5247 313.627 74.4448 313.35 74.3398C313.166 74.2572 313.065 74.2113 313.075 74.1929C313.084 74.1746 313.488 74.3123 314.231 74.3857C315.287 74.4517 316.345 74.2791 317.325 73.8808C318.777 73.2479 320.168 72.4859 321.484 71.6042C322.296 71.0997 323.157 70.6783 324.054 70.3465C325.04 69.987 326.094 69.8521 327.138 69.9518C328.44 70.0939 329.679 70.5865 330.724 71.3769C331.768 72.1674 332.578 73.2263 333.069 74.4408H332.711C333.342 73.5781 334.243 72.9512 335.272 72.6599C336.053 72.4333 336.877 72.3924 337.677 72.5405C338.184 72.6367 338.669 72.8233 339.109 73.0913C339.266 73.1682 339.412 73.2671 339.541 73.3851Z" fill="#455A64"/>
    <path d="M327.451 105.093C327.236 104.913 326.986 104.781 326.717 104.705C326.448 104.63 326.166 104.611 325.89 104.652C325.567 104.721 325.262 104.857 324.994 105.052C324.727 105.246 324.504 105.495 324.339 105.781C324.339 105.781 324.293 105.827 324.284 105.855C324.157 106.064 324.099 106.308 324.118 106.552C324.158 106.818 324.263 107.07 324.423 107.286C324.583 107.502 324.794 107.676 325.036 107.792C325.424 107.988 325.864 108.06 326.294 107.998C326.725 107.935 327.125 107.742 327.441 107.443C327.742 107.126 327.91 106.706 327.911 106.269C327.913 105.833 327.748 105.412 327.451 105.093Z" fill="#FF725E"/>
    <path d="M327.91 107.948C327.836 107.948 327.753 107.672 327.506 107.296C327.207 106.792 326.761 106.391 326.227 106.148C325.694 105.905 325.099 105.831 324.522 105.937C324.072 106.002 323.797 106.13 323.769 106.066C323.742 106.002 323.953 105.781 324.449 105.607C325.098 105.398 325.801 105.437 326.422 105.717C327.05 105.996 327.546 106.506 327.809 107.14C328.001 107.617 327.974 107.939 327.91 107.948Z" fill="#263238"/>
    <path d="M309.173 109.086C309.173 109.086 309.439 109.545 309.091 110.242C308.893 110.66 308.546 110.988 308.118 111.16C307.85 111.256 307.564 111.288 307.282 111.255C307 111.222 306.73 111.123 306.493 110.968C306.251 110.821 306.047 110.62 305.895 110.381C305.744 110.142 305.65 109.872 305.621 109.591C305.593 109.137 305.726 108.689 305.997 108.324C306.474 107.718 307.007 107.7 307.007 107.755C307.007 107.81 306.603 107.966 306.282 108.517C306.095 108.825 306.018 109.187 306.061 109.545C306.095 109.754 306.175 109.954 306.294 110.13C306.412 110.306 306.568 110.454 306.75 110.564C306.929 110.678 307.13 110.754 307.341 110.786C307.551 110.817 307.766 110.804 307.971 110.747C308.31 110.626 308.602 110.401 308.806 110.105C309.164 109.536 309.1 109.086 309.173 109.086Z" fill="#FF725E"/>
    <path d="M306.079 108.728C306.125 108.728 306.079 109.04 305.648 109.242C305.436 109.33 305.203 109.356 304.977 109.316C304.751 109.276 304.541 109.172 304.372 109.017C304.203 108.861 304.083 108.661 304.024 108.439C303.965 108.217 303.971 107.983 304.042 107.764C304.131 107.516 304.303 107.306 304.528 107.168C304.904 106.938 305.189 107.03 305.18 107.085C305.171 107.14 304.96 107.204 304.73 107.434C304.617 107.575 304.548 107.746 304.532 107.926C304.516 108.106 304.554 108.287 304.64 108.446C304.726 108.604 304.857 108.734 305.017 108.819C305.177 108.903 305.358 108.939 305.538 108.921C305.85 108.857 306.015 108.691 306.079 108.728Z" fill="#FF725E"/>
    <path d="M316.168 190.256C316.168 190.256 338.898 191.578 352.338 191.697C362.739 191.798 367.384 189.035 369.458 182.343C371.202 176.734 367.457 165.966 367.457 165.966C360.416 165.966 356.074 166.976 351.548 169.096L352.751 174.017L316.104 177.175L316.168 190.256Z" fill="#FFBE9D"/>
    <path d="M360.388 179.267C359.403 177.986 358.251 176.841 356.964 175.862C355.584 175.017 354.095 174.362 352.54 173.915C353.029 173.845 353.529 173.889 353.999 174.044C355.154 174.317 356.249 174.799 357.231 175.467C358.213 176.137 359.063 176.983 359.737 177.964C360.251 178.717 360.444 179.24 360.388 179.267Z" fill="#EB996E"/>
    <path d="M307.851 169.059C307.851 169.059 300.819 170.748 295.651 174.2L301.159 189.126C302.995 194.028 308.604 196.47 313.093 193.9C320.006 189.943 322.447 178.413 322.447 178.413L330.039 145.475L317.454 137.59L307.897 169.059" fill="#FFBE9D"/>
    <path d="M317.408 137.59L317.922 126.757L315.103 115.741C314.947 115.135 314.874 114.373 315.37 114.006C315.615 113.818 315.919 113.72 316.229 113.73C316.538 113.74 316.835 113.857 317.068 114.061C317.83 114.851 321.502 124.481 321.502 124.481C321.502 124.481 327.074 121.139 328.066 120.974C329.057 120.809 330.296 123.81 330.379 124.04C330.415 124.713 330.415 125.387 330.379 126.06C330.379 126.06 333.821 126.161 334.134 126.629C334.384 127.585 334.516 128.569 334.528 129.557C334.528 129.557 335.988 130.025 336.217 131.127C336.447 132.228 336.924 134.046 336.217 134.45C335.511 134.854 334.079 135.643 334.079 135.643C334.079 135.643 333.5 141.262 333.344 141.776C333.188 142.29 329.966 145.448 329.966 145.448L317.408 137.59Z" fill="#FFBE9D"/>
    <path d="M305.694 194.121C305.694 194.121 306.034 194.323 306.75 194.552C307.797 194.881 308.904 194.969 309.99 194.809C311.735 194.56 313.368 193.807 314.69 192.643C316.438 191.057 317.914 189.197 319.06 187.135C319.735 185.923 320.303 184.654 320.758 183.343C321.236 181.901 321.631 180.433 321.943 178.946C322.659 175.852 323.439 172.52 324.265 168.977C325.918 161.899 327.772 153.986 329.773 145.457V145.393H329.819C330.452 144.769 331.086 144.136 331.719 143.475C332.031 143.144 332.344 142.814 332.637 142.474C332.784 142.3 332.94 142.125 333.06 141.951C333.152 141.778 333.206 141.587 333.216 141.391C333.463 139.555 333.656 137.654 333.858 135.736V135.616L333.968 135.561L335.722 134.579C335.85 134.497 336.052 134.405 336.135 134.331C336.223 134.252 336.281 134.145 336.3 134.028C336.343 133.724 336.343 133.415 336.3 133.11C336.211 132.437 336.073 131.771 335.887 131.118C335.575 130.547 335.051 130.122 334.427 129.934L334.271 129.879V129.723C334.271 129.191 334.216 128.64 334.152 128.098C334.127 127.827 334.087 127.557 334.033 127.29C334.011 127.173 333.974 127.058 333.922 126.951C333.922 126.886 333.922 126.951 333.867 126.895C333.817 126.869 333.765 126.848 333.711 126.831C332.607 126.591 331.481 126.465 330.351 126.455H330.113V126.216C330.113 125.647 330.113 125.014 330.113 124.38C330.075 124.164 330 123.956 329.892 123.765C329.801 123.545 329.69 123.334 329.58 123.113C329.365 122.688 329.114 122.283 328.828 121.902C328.698 121.724 328.54 121.569 328.359 121.443C328.293 121.386 328.211 121.351 328.124 121.341C328.038 121.331 327.95 121.348 327.873 121.387C327.429 121.558 326.996 121.757 326.578 121.984C324.871 122.902 323.2 123.82 321.566 124.812L321.328 124.959L321.227 124.701C320.364 122.526 319.501 120.378 318.656 118.275C318.234 117.22 317.821 116.164 317.398 115.127C317.333 114.894 317.204 114.685 317.025 114.523C316.847 114.36 316.626 114.252 316.389 114.209C316.169 114.136 315.932 114.14 315.715 114.22C315.498 114.3 315.315 114.451 315.195 114.649C315.081 114.846 315.033 115.075 315.058 115.301C315.058 115.503 315.186 115.815 315.241 116.063C315.388 116.596 315.526 117.119 315.663 117.642C315.939 118.698 316.205 119.735 316.48 120.763C317.019 122.832 317.548 124.851 318.069 126.822V126.886C317.885 130.656 317.711 134.267 317.545 137.719V137.7L309.182 164.91L306.823 172.483C306.548 173.337 306.337 174.007 306.19 174.475C306.043 174.944 305.951 175.146 305.951 175.146C305.951 175.146 305.997 174.907 306.125 174.457L306.704 172.447C307.236 170.675 307.998 168.114 308.962 164.846C310.945 158.273 313.763 148.891 317.169 137.581V137.627C317.328 134.187 317.49 130.577 317.656 126.795V126.859C317.132 124.885 316.591 122.865 316.049 120.809L315.223 117.688C315.085 117.165 314.947 116.632 314.801 116.109C314.722 115.834 314.657 115.555 314.608 115.274C314.574 114.955 314.641 114.634 314.801 114.356C314.97 114.069 315.233 113.849 315.544 113.731C315.852 113.641 316.178 113.631 316.491 113.702C316.805 113.772 317.095 113.922 317.334 114.135C317.565 114.351 317.735 114.623 317.83 114.925L319.088 118.074C319.941 120.185 320.795 122.333 321.667 124.5L321.328 124.38C322.971 123.407 324.623 122.434 326.367 121.525C326.808 121.295 327.262 121.089 327.726 120.91C327.871 120.85 328.029 120.828 328.185 120.846C328.342 120.869 328.492 120.925 328.626 121.011C328.847 121.17 329.042 121.362 329.204 121.58C329.511 121.982 329.778 122.412 330.003 122.865C330.122 123.095 330.232 123.315 330.333 123.545C330.464 123.788 330.551 124.052 330.59 124.325C330.59 124.977 330.59 125.583 330.59 126.161L330.361 125.913C331.541 125.921 332.716 126.057 333.867 126.317C333.946 126.345 334.023 126.379 334.097 126.418C334.198 126.473 334.281 126.556 334.336 126.657C334.407 126.806 334.459 126.963 334.492 127.125C334.547 127.419 334.583 127.694 334.62 127.979C334.675 128.539 334.712 129.09 334.74 129.64L334.574 129.42C334.95 129.53 335.299 129.716 335.6 129.965C335.902 130.214 336.149 130.522 336.328 130.87C336.529 131.568 336.676 132.28 336.768 133C336.832 133.368 336.832 133.743 336.768 134.111C336.728 134.334 336.611 134.535 336.438 134.68C336.287 134.781 336.131 134.873 335.97 134.956L334.225 135.864L334.345 135.69C334.134 137.609 333.941 139.49 333.684 141.354L333.629 141.712C333.607 141.857 333.547 141.993 333.454 142.107C333.319 142.308 333.169 142.498 333.004 142.676C332.692 143.025 332.38 143.364 332.086 143.695C331.453 144.356 330.82 144.989 330.177 145.614L330.241 145.503C328.222 154.022 326.349 161.936 324.669 169.013C323.834 172.548 323.035 175.88 322.301 178.964C321.986 180.463 321.582 181.94 321.089 183.389C320.616 184.712 320.033 185.993 319.345 187.217C318.172 189.306 316.661 191.186 314.874 192.78C313.512 193.953 311.837 194.7 310.054 194.928C308.945 195.077 307.816 194.964 306.759 194.598C306.49 194.499 306.229 194.379 305.979 194.24L305.694 194.121Z" fill="#EB996E"/>
    <path d="M330.388 126.087C330.388 126.151 330.076 126.188 329.589 126.206C328.972 126.218 328.357 126.292 327.753 126.427C327.171 126.57 326.635 126.857 326.193 127.262C325.862 127.574 325.716 127.841 325.642 127.813C325.569 127.785 325.642 127.455 325.945 127.033C326.373 126.498 326.967 126.123 327.634 125.968C328.277 125.809 328.944 125.778 329.599 125.876C330.094 125.94 330.388 126.023 330.388 126.087Z" fill="#EB996E"/>
    <path d="M327.726 126.188C327.607 126.142 327.597 125.857 327.726 125.555C327.854 125.252 328.038 125.04 328.157 125.086C328.277 125.132 328.295 125.417 328.157 125.72C328.02 126.023 327.818 126.234 327.726 126.188Z" fill="#EB996E"/>
    <path d="M334.684 129.521C333.793 129.797 332.863 129.924 331.93 129.897C331.637 129.888 331.345 129.948 331.08 130.075C330.815 130.201 330.584 130.389 330.407 130.623C330.168 130.999 330.251 131.311 330.177 131.329C330.104 131.348 329.883 131.027 330.113 130.476C330.239 130.166 330.47 129.909 330.765 129.751C331.104 129.564 331.48 129.451 331.866 129.42C332.804 129.277 333.76 129.311 334.684 129.521Z" fill="#EB996E"/>
    <path d="M334.078 132.825C334.207 132.825 334.28 133.505 334.244 134.34C334.207 135.175 334.069 135.836 333.941 135.836C333.812 135.836 333.73 135.148 333.766 134.312C333.803 133.477 333.941 132.816 334.078 132.825Z" fill="#EB996E"/>
    <path d="M337.888 157.547L338.705 154.738C338.743 154.61 338.813 154.493 338.909 154.4C339.005 154.307 339.124 154.24 339.254 154.207C339.383 154.173 339.519 154.174 339.649 154.21C339.778 154.245 339.896 154.313 339.99 154.408L341.064 155.5L341.725 152.847C341.764 152.694 341.849 152.556 341.969 152.453C342.089 152.35 342.237 152.286 342.395 152.27C342.552 152.254 342.71 152.286 342.849 152.363C342.987 152.44 343.098 152.558 343.167 152.7L344.663 155.84L337.888 157.547Z" fill="white"/>
    <path d="M344.681 157.042C343.655 157.538 342.564 157.89 341.441 158.089C340.355 158.443 339.223 158.641 338.081 158.676C340.195 157.827 342.416 157.277 344.681 157.042Z" fill="white"/>
    <path d="M290.088 141.372C290.088 141.372 289.748 141.721 289.271 142.464C288.63 143.523 288.209 144.7 288.032 145.925C287.77 147.749 287.715 149.597 287.866 151.433C287.967 153.517 288.133 155.794 288.39 158.181C288.825 162.257 289.471 166.308 290.327 170.317C290.648 171.859 290.942 173.071 291.144 173.989C291.235 174.374 291.318 174.695 291.382 174.971C291.447 175.246 291.456 175.32 291.456 175.32C291.456 175.32 291.41 175.21 291.346 174.989C291.281 174.769 291.18 174.383 291.079 174.007C290.85 173.153 290.538 171.923 290.161 170.381C289.269 166.373 288.604 162.318 288.169 158.236C287.912 155.849 287.756 153.563 287.664 151.479C287.525 149.641 287.593 147.794 287.866 145.971C288.064 144.73 288.514 143.543 289.188 142.483C289.437 142.074 289.74 141.7 290.088 141.372Z" fill="white"/>
    <path d="M309.412 128.869L309.201 128.979L308.595 129.273C308.072 129.521 307.31 129.888 306.401 130.393C304.032 131.714 301.731 133.154 299.507 134.707C296.881 136.543 294.559 138.214 292.86 139.426L290.85 140.849L290.29 141.225C290.227 141.275 290.16 141.318 290.088 141.354C290.14 141.292 290.202 141.239 290.272 141.198L290.804 140.794L292.778 139.316C294.458 138.076 296.771 136.351 299.397 134.551C301.625 132.991 303.942 131.563 306.337 130.273C307.255 129.787 308.026 129.438 308.567 129.209L309.182 128.952C309.366 128.887 309.366 128.86 309.412 128.869Z" fill="white"/>
    <path d="M353.191 134.845C353.134 134.813 353.081 134.773 353.035 134.726L352.622 134.368C352.111 133.936 351.574 133.534 351.016 133.165C349.152 131.977 347.175 130.978 345.113 130.182C343.057 129.368 340.958 128.669 338.825 128.089C337.998 127.859 337.337 127.694 336.869 127.584L336.346 127.446C336.282 127.433 336.22 127.411 336.162 127.382H336.355L336.888 127.483C337.356 127.575 338.026 127.722 338.852 127.933C341.006 128.476 343.122 129.16 345.186 129.98C347.26 130.775 349.24 131.798 351.089 133.028C351.859 133.549 352.564 134.159 353.191 134.845Z" fill="white"/>
    <path d="M309.669 204.916C309.544 204.894 309.424 204.853 309.311 204.796C308.992 204.656 308.685 204.491 308.393 204.301C307.898 204.004 307.467 203.613 307.124 203.15C306.78 202.687 306.532 202.161 306.392 201.602C306.14 200.473 306.265 199.292 306.75 198.242C306.89 197.916 307.068 197.607 307.282 197.324C307.429 197.131 307.53 197.039 307.539 197.048C307.289 197.44 307.065 197.848 306.869 198.269C306.442 199.301 306.343 200.439 306.584 201.528C306.847 202.604 307.502 203.544 308.42 204.163C309.182 204.714 309.687 204.879 309.669 204.916Z" fill="white"/>
    <path d="M306.75 194.975C306.945 195.339 307.09 195.728 307.181 196.131C307.325 196.518 307.411 196.923 307.438 197.334C307.23 196.978 307.081 196.59 306.998 196.186C306.847 195.799 306.763 195.39 306.75 194.975Z" fill="white"/>
    <path d="M319.161 400.799L347.16 400.661L346.655 303.858L346.389 205.384L308.448 204.897L301.627 217.749C298.837 222.916 297.057 228.568 296.385 234.402C295.926 238.863 299.268 253.368 300.425 257.04L310.862 290.143L319.161 400.799Z" fill="#263238"/>
    <path d="M354.605 205.504L385.376 289.382C387.199 294.786 387.805 300.527 387.149 306.192C386.494 311.858 384.594 317.309 381.585 322.154L345.856 391.922L325.771 366.788L355.661 304.364L329.314 261.631L333.748 205.633L346.159 205.431L354.605 205.504Z" fill="#263238"/>
    <path d="M343.837 233.604C343.837 233.604 343.837 233.75 343.837 234.035C343.837 234.32 343.883 234.76 343.92 235.302C343.984 236.431 344.066 238.056 344.177 240.158C344.388 244.408 344.681 250.513 345.095 258.05C345.508 265.587 345.857 274.574 346.316 284.58C346.536 289.574 346.775 294.816 347.013 300.25C347.188 303.004 347.114 305.758 347.142 308.512C347.169 311.266 347.142 314.167 347.142 317.05C347.142 340.119 347.215 361.004 347.243 376.141C347.243 383.687 347.243 389.801 347.243 394.052C347.243 396.154 347.243 397.788 347.243 398.926C347.243 399.459 347.243 399.844 347.243 400.193C347.243 400.542 347.243 400.624 347.243 400.624C347.243 400.624 347.243 400.478 347.243 400.193V398.926C347.243 397.788 347.243 396.172 347.188 394.052C347.188 389.801 347.114 383.697 347.059 376.151C346.995 361.013 346.912 340.128 346.82 317.059C346.82 314.176 346.82 311.331 346.82 308.521C346.82 305.712 346.876 302.94 346.701 300.259C346.472 294.834 346.242 289.592 346.031 284.598C345.609 274.611 345.223 265.623 344.911 258.059C344.599 250.495 344.369 244.418 344.195 240.167C344.122 238.074 344.066 236.44 344.03 235.302C344.03 234.76 344.03 234.384 344.03 234.035C344.03 233.686 343.837 233.604 343.837 233.604Z" fill="#455A64"/>
    <path d="M343.13 207.156C343.237 207.452 343.302 207.761 343.323 208.074C343.424 208.662 343.534 209.516 343.662 210.58C343.901 212.701 344.158 215.648 344.305 218.907C344.452 222.166 344.461 225.122 344.415 227.26C344.415 228.325 344.351 229.197 344.305 229.794C344.314 230.104 344.277 230.413 344.195 230.712C344.079 229.565 344.039 228.412 344.076 227.26C344.076 225.122 343.975 222.184 343.828 218.925C343.681 215.666 343.479 212.738 343.323 210.663C343.192 209.499 343.128 208.328 343.13 207.156Z" fill="#455A64"/>
    <path d="M336.961 209.047C337.007 209.111 336.484 209.35 336.337 210.093C336.296 210.295 336.307 210.504 336.37 210.7C336.432 210.896 336.544 211.073 336.695 211.213C336.876 211.382 337.103 211.495 337.347 211.539C337.591 211.583 337.843 211.556 338.072 211.461C338.292 211.348 338.476 211.175 338.602 210.962C338.729 210.75 338.793 210.506 338.788 210.259C338.779 210.053 338.719 209.853 338.611 209.678C338.503 209.503 338.352 209.358 338.173 209.258C337.799 209.077 337.383 209.004 336.97 209.047C336.97 209.047 337.062 208.928 337.301 208.854C337.645 208.77 338.008 208.806 338.329 208.955C338.585 209.062 338.807 209.237 338.969 209.463C339.131 209.688 339.227 209.954 339.247 210.231C339.283 210.573 339.212 210.917 339.042 211.216C338.872 211.515 338.613 211.753 338.301 211.897C337.989 212.041 337.639 212.084 337.302 212.019C336.964 211.954 336.656 211.784 336.419 211.535C336.224 211.341 336.086 211.097 336.02 210.83C335.953 210.563 335.961 210.283 336.043 210.02C336.135 209.676 336.343 209.375 336.631 209.166C336.814 209.038 336.952 209.019 336.961 209.047Z" fill="#455A64"/>
    <path d="M322.273 207.386C322.408 207.675 322.492 207.986 322.521 208.304C322.669 209.128 322.696 209.969 322.604 210.801C322.472 212.039 322.114 213.244 321.548 214.353C320.864 215.734 319.852 216.925 318.6 217.823C317.349 218.721 315.896 219.298 314.369 219.503C313.147 219.686 311.902 219.639 310.697 219.366C309.882 219.189 309.097 218.895 308.365 218.494C308.089 218.363 307.835 218.189 307.613 217.979C308.627 218.436 309.685 218.79 310.77 219.035C312.076 219.307 313.424 219.304 314.729 219.029C316.033 218.753 317.267 218.21 318.351 217.434C319.436 216.657 320.347 215.665 321.028 214.518C321.71 213.372 322.146 212.097 322.31 210.773C322.418 209.646 322.405 208.51 322.273 207.386Z" fill="#455A64"/>
    <path d="M358.295 215.428C357.696 215.497 357.09 215.424 356.524 215.216C355.137 214.78 353.891 213.981 352.916 212.903C351.931 211.83 351.256 210.51 350.961 209.084C350.816 208.503 350.816 207.894 350.961 207.312C351.043 207.312 351.052 207.983 351.328 209.011C351.7 210.339 352.376 211.563 353.304 212.584C354.231 213.606 355.384 214.397 356.67 214.895C357.625 215.272 358.305 215.336 358.295 215.428Z" fill="#455A64"/>
    <path d="M369.229 305.85C368.769 306.375 368.218 306.813 367.604 307.145C366.959 307.554 366.257 307.863 365.52 308.063C364.593 308.308 363.615 308.283 362.702 307.989C361.098 307.385 359.724 306.293 358.773 304.868C358.336 304.332 357.974 303.739 357.699 303.105C358.194 303.578 358.643 304.098 359.039 304.657C360.014 305.95 361.33 306.945 362.839 307.53C363.61 307.736 364.414 307.783 365.203 307.667C365.992 307.552 366.75 307.277 367.429 306.86C368.009 306.489 368.61 306.152 369.229 305.85Z" fill="#455A64"/>
    <path d="M362.215 311.202C361.13 310.078 360.162 308.848 359.324 307.53C358.358 306.303 357.516 304.984 356.808 303.592C357.9 304.711 358.873 305.942 359.709 307.264C360.682 308.484 361.522 309.804 362.215 311.202Z" fill="#455A64"/>
    <path d="M315.177 236.844C315.048 236.89 314.727 236.366 314.442 235.659C314.158 234.953 314.039 234.356 314.158 234.301C314.277 234.246 314.608 234.778 314.883 235.485C315.159 236.192 315.296 236.844 315.177 236.844Z" fill="#FAFAFA"/>
    <path d="M332.949 239.396C332.812 239.396 332.711 238.946 332.711 238.386C332.711 237.826 332.812 237.367 332.949 237.367C333.087 237.367 333.188 237.826 333.188 238.386C333.188 238.946 333.078 239.396 332.949 239.396Z" fill="#FAFAFA"/>
    <path d="M325.642 249.054C325.514 249.054 325.367 248.503 325.321 247.796C325.275 247.089 325.321 246.52 325.468 246.511C325.615 246.502 325.752 247.062 325.798 247.769C325.844 248.475 325.771 249.045 325.642 249.054Z" fill="#FAFAFA"/>
    <path d="M312.294 256.122C312.184 256.205 311.808 255.865 311.312 255.516C310.816 255.167 310.394 254.901 310.394 254.773C310.394 254.644 311 254.717 311.56 255.121C312.12 255.525 312.405 256.122 312.294 256.122Z" fill="#FAFAFA"/>
    <path d="M335.823 265.127C335.713 265.054 335.823 264.659 336.135 264.209C336.447 263.76 336.732 263.502 336.842 263.576C336.952 263.649 336.842 264.053 336.53 264.494C336.217 264.935 335.933 265.201 335.823 265.127Z" fill="#FAFAFA"/>
    <path d="M321.3 267.671C321.171 267.671 321.061 266.909 321.061 265.981C321.061 265.054 321.171 264.283 321.3 264.283C321.428 264.283 321.539 265.045 321.539 265.981C321.539 266.918 321.401 267.671 321.3 267.671Z" fill="#FAFAFA"/>
    <path d="M316.545 277.971C316.471 278.072 315.994 277.861 315.48 277.484C314.966 277.108 314.562 276.723 314.681 276.612C314.801 276.502 315.241 276.723 315.755 277.099C316.269 277.475 316.627 277.861 316.545 277.971Z" fill="#FAFAFA"/>
    <path d="M331.251 281.551C331.306 281.67 331.012 281.918 330.59 282.111C330.168 282.304 329.782 282.35 329.727 282.23C329.672 282.111 329.975 281.863 330.397 281.67C330.82 281.477 331.205 281.432 331.251 281.551Z" fill="#FAFAFA"/>
    <path d="M321.3 298.35C321.19 298.405 320.712 297.698 320.244 296.762C319.776 295.825 319.491 295.017 319.611 294.926C319.73 294.834 320.208 295.577 320.667 296.514C321.126 297.45 321.383 298.249 321.3 298.35Z" fill="#FAFAFA"/>
    <path d="M337.521 296.789C337.402 296.725 337.613 296.11 337.98 295.403C338.347 294.696 338.76 294.182 338.898 294.247C339.036 294.311 338.806 294.926 338.43 295.633C338.054 296.34 337.631 296.854 337.521 296.789Z" fill="#FAFAFA"/>
    <path d="M330.407 311.01C330.269 311.01 330.287 310.266 330.14 309.403C329.993 308.54 329.773 307.852 329.902 307.788C330.03 307.723 330.471 308.375 330.618 309.33C330.765 310.285 330.535 311.037 330.407 311.01Z" fill="#FAFAFA"/>
    <path d="M322.787 319.134C322.695 319.226 322.236 318.877 321.768 318.363C321.3 317.849 320.997 317.362 321.098 317.271C321.199 317.179 321.649 317.528 322.117 318.042C322.585 318.556 322.888 319.042 322.787 319.134Z" fill="#FAFAFA"/>
    <path d="M341.276 322.218C341.184 322.126 341.523 321.631 342.038 321.107C342.552 320.584 343.029 320.244 343.13 320.336C343.231 320.428 342.882 320.933 342.377 321.447C341.872 321.961 341.377 322.31 341.276 322.218Z" fill="#FAFAFA"/>
    <path d="M330.645 334.382C330.517 334.382 330.517 333.656 330.645 332.812C330.774 331.967 330.976 331.306 331.113 331.325C331.251 331.343 331.242 332.041 331.113 332.885C330.985 333.73 330.774 334.4 330.645 334.382Z" fill="#FAFAFA"/>
    <path d="M323.494 340.284C323.375 340.348 322.971 339.871 322.576 339.219C322.181 338.567 321.979 337.989 322.089 337.925C322.2 337.861 322.603 338.329 323.007 338.981C323.411 339.632 323.604 340.211 323.494 340.284Z" fill="#FAFAFA"/>
    <path d="M340.725 347.729C340.807 347.839 340.339 348.308 339.678 348.776C339.017 349.244 338.439 349.538 338.356 349.428C338.274 349.317 338.751 348.849 339.403 348.381C340.055 347.913 340.651 347.628 340.725 347.729Z" fill="#FAFAFA"/>
    <path d="M326.367 357.396C326.239 357.35 326.367 356.615 326.487 355.697C326.606 354.779 326.533 354.026 326.67 354.008C326.808 353.99 327.047 354.761 326.955 355.743C326.863 356.725 326.487 357.451 326.367 357.396Z" fill="#FAFAFA"/>
    <path d="M332.105 371.276C331.995 371.359 331.609 371.047 331.233 370.578C330.856 370.11 330.645 369.66 330.746 369.578C330.847 369.495 331.233 369.807 331.609 370.275C331.986 370.744 332.206 371.193 332.105 371.276Z" fill="#FAFAFA"/>
    <path d="M325.835 380.585C325.725 380.658 325.22 380.117 324.706 379.364C324.192 378.611 323.87 377.95 323.971 377.877C324.072 377.803 324.586 378.345 325.101 379.098C325.615 379.85 325.945 380.511 325.835 380.585Z" fill="#FAFAFA"/>
    <path d="M343.102 368.898C342.983 368.853 342.992 368.513 343.102 368.146C343.213 367.778 343.46 367.503 343.589 367.549C343.718 367.595 343.699 367.934 343.589 368.311C343.479 368.687 343.231 368.953 343.102 368.898Z" fill="#FAFAFA"/>
    <path d="M335.483 391.068C335.364 391.004 335.593 390.352 335.777 389.535C335.96 388.718 336.025 388.03 336.162 388.021C336.3 388.011 336.438 388.755 336.245 389.636C336.052 390.518 335.593 391.142 335.483 391.068Z" fill="#FAFAFA"/>
    <path d="M340.44 249.201C340.321 249.256 340.027 248.889 339.789 248.374C339.55 247.86 339.449 247.401 339.568 247.346C339.688 247.291 339.981 247.658 340.22 248.172C340.459 248.687 340.578 249.146 340.44 249.201Z" fill="#FAFAFA"/>
    <path d="M327.726 220.613C327.799 220.724 327.157 221.238 326.468 221.972C325.78 222.706 325.312 223.386 325.192 223.322C325.073 223.257 325.385 222.404 326.11 221.651C326.836 220.898 327.634 220.494 327.726 220.613Z" fill="#FAFAFA"/>
    <path d="M339.045 220.32C338.907 220.32 338.696 219.797 338.375 219.173C338.053 218.548 337.76 218.034 337.861 217.943C337.962 217.851 338.457 218.255 338.779 218.952C339.1 219.65 339.164 220.247 339.045 220.32Z" fill="#FAFAFA"/>
    <path d="M303.702 229.601C303.583 229.546 303.702 228.94 303.986 228.243C304.271 227.545 304.583 227.003 304.712 227.059C304.84 227.114 304.712 227.71 304.427 228.417C304.142 229.124 303.858 229.647 303.702 229.601Z" fill="#FAFAFA"/>
    <path d="M304.849 243.463C304.758 243.564 304.234 243.27 303.674 242.802C303.114 242.334 302.756 241.884 302.811 241.774C302.867 241.663 303.427 241.966 303.987 242.435C304.547 242.903 304.932 243.362 304.849 243.463Z" fill="#FAFAFA"/>
    <path d="M328.038 209.607C327.919 209.607 327.662 209.313 327.478 208.845C327.294 208.377 327.239 207.927 327.359 207.927C327.478 207.927 327.735 208.221 327.919 208.689C328.102 209.157 328.157 209.561 328.038 209.607Z" fill="#FAFAFA"/>
    <path d="M350.244 216.382C350.116 216.382 350.125 215.804 350.244 215.152C350.364 214.5 350.602 213.986 350.731 214.014C350.86 214.041 350.85 214.601 350.731 215.253C350.612 215.905 350.373 216.41 350.244 216.382Z" fill="#FAFAFA"/>
    <path d="M355.459 226.874C355.339 226.819 355.505 226.14 355.835 225.341C356.166 224.543 356.524 223.946 356.643 223.992C356.762 224.038 356.643 224.726 356.276 225.525C355.909 226.323 355.587 226.92 355.459 226.874Z" fill="#FAFAFA"/>
    <path d="M351.741 235.338C351.622 235.393 351.181 234.76 350.759 233.924C350.336 233.089 350.098 232.346 350.217 232.29C350.336 232.235 350.768 232.869 351.19 233.704C351.612 234.54 351.86 235.274 351.741 235.338Z" fill="#FAFAFA"/>
    <path d="M359.691 243.803C359.571 243.757 359.691 243.225 359.893 242.619C360.095 242.013 360.416 241.554 360.544 241.6C360.673 241.646 360.544 242.178 360.343 242.784C360.141 243.39 359.856 243.849 359.691 243.803Z" fill="#FAFAFA"/>
    <path d="M352.585 252.092C352.475 252.165 352.191 251.917 351.961 251.55C351.732 251.183 351.621 250.816 351.741 250.742C351.86 250.669 352.126 250.917 352.365 251.293C352.604 251.67 352.696 252.028 352.585 252.092Z" fill="#FAFAFA"/>
    <path d="M354.1 269.204C354.008 269.286 353.43 268.837 352.824 268.176C352.218 267.515 351.805 266.918 351.906 266.826C352.007 266.734 352.576 267.193 353.182 267.854C353.788 268.515 354.201 269.112 354.1 269.204Z" fill="#FAFAFA"/>
    <path d="M363.418 259.372C363.317 259.455 362.812 258.996 362.298 258.335C361.784 257.674 361.453 257.086 361.554 257.004C361.655 256.921 362.16 257.389 362.674 258.041C363.188 258.693 363.528 259.299 363.418 259.372Z" fill="#FAFAFA"/>
    <path d="M368.531 272.931C368.412 272.875 368.623 272.187 368.999 271.397C369.376 270.608 369.77 270.002 369.917 270.057C370.064 270.112 369.835 270.81 369.458 271.599C369.082 272.389 368.65 272.995 368.531 272.931Z" fill="#FAFAFA"/>
    <path d="M357.662 284.094C357.543 284.158 357.12 283.653 356.533 283.111C355.945 282.57 355.404 282.193 355.459 282.056C355.514 281.918 356.211 282.166 356.854 282.763C357.497 283.359 357.772 284.029 357.662 284.094Z" fill="#FAFAFA"/>
    <path d="M358.341 295.596C358.341 295.725 357.882 295.835 357.322 295.835C356.762 295.835 356.312 295.725 356.312 295.596C356.312 295.468 356.762 295.357 357.322 295.357C357.882 295.357 358.341 295.468 358.341 295.596Z" fill="#FAFAFA"/>
    <path d="M369.513 292.383C369.394 292.319 369.633 291.74 369.807 291.024C369.982 290.308 370.055 289.684 370.193 289.675C370.33 289.666 370.477 290.336 370.275 291.135C370.073 291.933 369.614 292.456 369.513 292.383Z" fill="#FAFAFA"/>
    <path d="M380.612 296.248C380.493 296.294 380.153 295.642 379.859 294.806C379.565 293.971 379.428 293.255 379.547 293.218C379.666 293.182 380.015 293.815 380.309 294.65C380.603 295.486 380.74 296.202 380.612 296.248Z" fill="#FAFAFA"/>
    <path d="M378.84 312.038C378.73 311.974 379.015 311.203 379.474 310.312C379.933 309.422 380.392 308.752 380.529 308.816C380.667 308.88 380.364 309.651 379.896 310.532C379.428 311.414 378.96 312.121 378.84 312.038Z" fill="#FAFAFA"/>
    <path d="M368.715 321.3C368.595 321.346 368.219 320.713 367.87 319.877C367.521 319.042 367.347 318.326 367.475 318.271C367.604 318.216 367.971 318.858 368.311 319.694C368.65 320.529 368.834 321.3 368.715 321.3Z" fill="#FAFAFA"/>
    <path d="M357.497 324.889C357.497 325.018 357.111 325.128 356.643 325.128C356.175 325.128 355.798 325.018 355.798 324.889C355.798 324.761 356.184 324.65 356.643 324.65C357.102 324.65 357.497 324.761 357.497 324.889Z" fill="#FAFAFA"/>
    <path d="M363.923 339.66C363.803 339.66 363.546 339.155 363.353 338.457C363.161 337.759 363.124 337.154 363.253 337.126C363.381 337.098 363.629 337.631 363.822 338.329C364.014 339.026 364.051 339.586 363.923 339.66Z" fill="#FAFAFA"/>
    <path d="M355.798 334.703C355.688 334.639 355.798 334.207 356.101 333.739C356.404 333.271 356.707 332.95 356.817 333.014C356.927 333.078 356.817 333.519 356.514 333.987C356.211 334.455 355.918 334.777 355.798 334.703Z" fill="#FAFAFA"/>
    <path d="M355.633 350.961C355.505 350.961 355.321 350.346 355.229 349.547C355.137 348.749 355.165 348.097 355.293 348.079C355.422 348.06 355.606 348.694 355.697 349.492C355.789 350.291 355.762 350.943 355.633 350.961Z" fill="#FAFAFA"/>
</svg>
