<svg width="256" height="339" fill="none" aria-hidden="true" xmlns="http://www.w3.org/2000/svg"><path d="M243.934 331.347c0 4.242-47.155 7.653-105.33 7.653s-105.318-3.433-105.318-7.653c0-4.221 47.154-7.654 105.318-7.654 58.164 0 105.33 3.411 105.33 7.654Z" fill="#8BAAFF"/><path opacity=".4" d="M243.934 331.347c0 4.242-47.155 7.653-105.33 7.653s-105.318-3.433-105.318-7.653c0-4.221 47.154-7.654 105.318-7.654 58.164 0 105.33 3.411 105.33 7.654Z" fill="#fff"/><path d="M156.381 13.938s3.695 5.324 3.925 9.949c.229 4.624.229 8.56.929 10.178.7 1.619 3.007 2.777 2.777 4.166-.229 1.388-2.088 2.777-2.088 2.777s-1.148 6.472-3.28 9.49c-2.132 3.017-4.854 1.848-7.172 1.618a19.054 19.054 0 0 1-4.166-.93 16.985 16.985 0 0 0-3.695 8.561 24.596 24.596 0 0 0 .23 7.653l-16.192-4.854s7.653-6.243 6.702-13.655a31.103 31.103 0 0 0-4.625-12.715s-8.561-9.49-5.314-15.045c3.248-5.553 6.473-10.408 10.179-12.255 3.707-1.848 21.79 5.062 21.79 5.062Z" fill="#fff" stroke="#001550" stroke-width="2" stroke-linecap="round" stroke-linejoin="round"/><path d="M153.134 38.952s3.28 3.28 5.325 3.696M154.522 37.793l-2.777 2.307" stroke="#001550" stroke-width="2" stroke-linecap="round" stroke-linejoin="round"/><path d="M158.108 34.546c.574 0 1.039-1.19 1.039-2.657s-.465-2.657-1.039-2.657c-.574 0-1.039 1.19-1.039 2.657s.465 2.657 1.039 2.657Z" fill="#001550"/><path d="M153.833 26.226s1.389-4.166 4.374-3.007" stroke="#001550" stroke-width="2" stroke-linecap="round" stroke-linejoin="round"/><path d="M121.439 16.047s-1.093-6.943-10.638-6.943c-9.544 0-9.719 13.875-7.401 19.68 2.317 5.806 10.867 8.102 14.803 5.325 3.936-2.778 4.373-7.654 4.373-9.95a65.027 65.027 0 0 0-1.137-8.112Z" fill="#001550" stroke="#001550" stroke-width="2" stroke-linecap="round" stroke-linejoin="round"/><path d="M137.172 33.617s10.179-1.16 11.797-5.325c1.618-4.165-1.618-6.942-2.078-8.09-.459-1.148 10.179-.7 12.027-9.72 1.848-9.02-3.696-10.408-5.314-9.02-1.618 1.389-1.618 7.173-1.618 7.173s-4.865-6.713-9.26-7.413c-4.395-.7-5.084.93-3.936 2.547a33.395 33.395 0 0 0 4.166 4.166S130.24 2.62 123.954 9.564c-6.287 6.942-9.25 14.803-3.696 22.675a34.848 34.848 0 0 0 12.989 11.108s.459-6.713 3.925-9.73Z" fill="#001550" stroke="#001550" stroke-width="2" stroke-linecap="round" stroke-linejoin="round"/><path d="M138.561 35.246s-1.848-7.861-4.855-3.936c-3.006 3.925-.459 8.33 1.389 10.179 1.847 1.847 5.324.23 5.324.23" fill="#fff"/><path d="M138.561 35.246s-1.848-7.861-4.855-3.936c-3.006 3.925-.459 8.33 1.389 10.179 1.847 1.847 5.324.23 5.324.23" stroke="#001550" stroke-width="2" stroke-linecap="round" stroke-linejoin="round"/><path d="M238.04 66.94s6.013 3.936 4.625 5.555a28.927 28.927 0 0 1-5.314 3.925s-5.094-2.537-7.401-3.925c-2.307-1.389.459-3.707 2.766-5.095 2.307-1.389 3.936-2.078 5.324-.46Z" fill="#fff" stroke="#001550" stroke-width="2" stroke-linecap="round" stroke-linejoin="round"/><path d="m142.726 66.011 19.679 6.013c3.007.93 10.179.7 10.179.7a126.693 126.693 0 0 0 19.428-3.28c9.949-2.547 30.077-3.477 30.077-3.477s9.72-2.547 15.033-1.847l14.344 1.847a9.597 9.597 0 0 1-4.154 1.859c-2.548.46-9.031-.7-10.42-.24a9.074 9.074 0 0 0-3.006 2.547s4.625 4.165 4.625 5.324c0 1.16-.46 3.28-1.848 3.007-1.389-.273-1.389-1.618-3.28-2.547-1.891-.93-3.936-1.389-6.483-2.778a18.66 18.66 0 0 1-3.925-2.776c-.383-.372-12.366 5.827-13.765 6.406a133.271 133.271 0 0 1-15.82 5.609c-10.31 2.897-21.56 4.69-32.187 2.558-6.943-1.388-18.51-5.313-18.51-5.313s-7.172-3.28-6.702-9.26c.47-5.98 6.735-4.352 6.735-4.352Z" fill="#fff" stroke="#001550" stroke-width="2" stroke-linecap="round" stroke-linejoin="round"/><path d="M147.35 71.565s-6.013-10.178-11.797-12.956c-5.783-2.776-11.6 4.855-14.574 11.568-2.973 6.713-2.492 17.12-1.847 26.851.645 9.731 5.324 20.773 5.324 20.773s-9.949 12.027-12.267 23.364c-2.318 11.338.929 26.141 2.318 36.32 1.388 10.179 2.077 27.07 2.077 27.07s-6.243 6.943-7.172 15.504c-.929 8.56-4.143 45.525-4.143 49.92 0 4.395-.919 10.879 0 12.026.918 1.148.929 1.094 1.858 1.094s22.664-2.077 24.523-3.696c1.859-1.618 2.766-2.777.689-3.706-2.077-.929-19.68-7.653-19.898-9.479-.219-1.826 16.399-43.218 19.176-50.62 2.777-7.402 5.784-39.797 6.943-44.651 1.159-4.854 3.477-13.655 3.477-13.655a221.047 221.047 0 0 0 24.369-3.215c15.733-2.777 30.482-10.321 30.482-10.321s-8.003 15.055-5.084 25.004c2.919 9.95 4.122 24.053 4.745 33.729.623 9.676-.667 8.747.623 9.643 1.29.897 10.715-3.509 13.328-3.881 2.613-.372 12.092-1.465 15.131-3.411 3.039-1.946-10.222-3.882-15.787-6.003-5.565-2.121-5.861-3.28-5.861-3.28s-.207-7.489 6.057-37.937c3.116-15.186 4.494-27.639.46-28.864-4.035-1.224-37.173-.546-45.253 1.542a28.427 28.427 0 0 0-12.802 7.183s-3.706-15.962-3.28-21.746c.426-5.784 1.388-13.426 1.388-13.426s6.932-2.536 6.702-8.56c-.229-6.025-4.854-10.638-6.942-14.334a33.056 33.056 0 0 1-2.963-7.85Z" fill="#fff" stroke="#001550" stroke-width="2" stroke-linecap="round" stroke-linejoin="round"/><path d="M132.34 275.796c-1.782-.787-14.913-5.816-18.805-8.407a3.14 3.14 0 0 0-.864 2.186 27.367 27.367 0 0 0 1.389 3.707l-9.042 2.449c-.186 2.973-.306 5.63.252 6.341.929 1.093.929 1.093 1.858 1.093s22.664-2.077 24.523-3.695c1.859-1.618 2.766-2.744.689-3.674Z" fill="#FFC966" stroke="#001550" stroke-width="2" stroke-linecap="round" stroke-linejoin="round"/><path d="M206.641 175.398a596.44 596.44 0 0 1 3.4-17.723c3.116-15.186 4.493-27.639.459-28.863-4.034-1.225-37.173-.547-45.252 1.541-4.68 1.203-10.791 2.897-11.097 3.28-.525-2.307-4.986-10.933-4.986-16.793-9.752.623-18.652 1.235-19.166 1.432l-8.626 3.663c-3.127 4.493-7.653 12.026-9.184 19.242-2.317 11.338.93 26.141 2.318 36.32 1.389 10.178 2.078 27.07 2.078 27.07s-6.243 6.943-7.173 15.503c-.59 5.467-4.712 27.508-4.449 37.665a33.72 33.72 0 0 0 10.353-.788c3.75-10.747 14.41-36.232 16.302-41.272 2.777-7.402 5.783-39.796 6.942-44.651 1.159-4.854 3.477-13.655 3.477-13.655a221.335 221.335 0 0 0 24.37-3.214c15.732-2.777 30.481-10.321 30.481-10.321s-8.003 15.055-5.084 25.004c.733 2.514 1.367 5.302 1.903 8.21 4.38.442 8.804-.123 12.934-1.65Z" fill="#001550" stroke="#001550" stroke-width="2" stroke-linecap="round" stroke-linejoin="round"/><path d="M149.209 115.757c.459-5.784 1.389-13.426 1.389-13.426s6.931-2.537 6.702-8.56c-.23-6.025-4.855-10.639-6.943-14.334a33.083 33.083 0 0 1-3.006-7.872s-6.014-10.178-11.797-12.956c-5.784-2.776-11.6 4.855-14.574 11.568-2.974 6.713-2.493 17.12-1.848 26.851.645 9.731 5.325 20.773 5.325 20.773s-7.894 9.567-11.25 19.68a43.045 43.045 0 0 0 19.57 3.28c11.009-.809 18.499-4.614 21.374-7.085-1.071-5.182-5.248-14.082-4.942-17.919Z" fill="#10B981" stroke="#001550" stroke-width="2" stroke-linecap="round" stroke-linejoin="round"/><path d="M140.878 85.45s-5.86 4.472-16.793 6.658M141.578 87.189s-5.466 7.653-11.479 9.84M123.953 132.791a54.889 54.889 0 0 1-3.651 1.957M147.044 110.148a74.57 74.57 0 0 1-18.586 19.68" stroke="#001550" stroke-width="2" stroke-linecap="round" stroke-linejoin="round"/><path d="M162.624 27.505v5.171a1.09 1.09 0 0 0 .94 1.094l32.242 4.22a1.09 1.09 0 0 0 1.224-1.093l.055-10.321a1.093 1.093 0 0 0-1.094-1.093l-32.307.863a1.095 1.095 0 0 0-1.06 1.16Z" fill="#001550" stroke="#001550" stroke-width="2" stroke-linecap="round" stroke-linejoin="round"/><path d="M172.573 39.41s-6.253-1.617-6.713-3.476a14.944 14.944 0 0 1-.459-3.28s3.007.7 3.936.23c.929-.47.23-13.415 1.389-14.104 1.159-.689 4.854-2.318 6.242.918 1.389 3.237.46 2.318.46 2.318a9.007 9.007 0 0 1 3.706 0 9.233 9.233 0 0 1 3.28 2.078s3.007-.46 3.706 1.618c.7 2.077-2.547 10.878-4.635 14.814-2.089 3.936-2.777 5.543-2.777 5.543s-2.777 34.713-4.374 41.415c-1.596 6.702-4.274 10.638-5.455 10.638s-21.67-9.48-30.001-12.716c-8.331-3.236-13.885-2.405-15.306-10.736-1.421-8.33 4.373-10.32 9.26-10.32s30.307 15.306 30.307 15.306 8.09-24.053 8.09-30.537c.085-3.25-.134-6.5-.656-9.708Z" fill="#fff" stroke="#001550" stroke-width="2" stroke-linecap="round" stroke-linejoin="round"/><path d="M225.632 204.938c3.05-1.935-10.223-3.881-15.788-6.002a25.838 25.838 0 0 1-4.581-2.187 2.904 2.904 0 0 0-.776 2.187 18.96 18.96 0 0 0 .875 4.078s-5.008 1.366-8.67 2.482c.218 6.559-.656 5.958.481 6.723 1.137.766 10.714-3.509 13.327-3.881 2.613-.372 12.092-1.454 15.132-3.4Z" fill="#FFC966" stroke="#001550" stroke-width="2" stroke-linecap="round" stroke-linejoin="round"/><path d="m142.037 157.391 5.554-12.256" stroke="#001550" stroke-width="2" stroke-linecap="round" stroke-linejoin="round"/><path d="M189.476 330.078a8.506 8.506 0 1 0 0-17.011 8.506 8.506 0 0 0 0 17.011Z" fill="#001550" stroke="#001550" stroke-width="2" stroke-linecap="round" stroke-linejoin="round"/><path d="M184.085 314.356s1.804 7.73 2.832 9.283c1.028 1.552 4.373 2.317 5.161-1.039.787-3.356-2.832-8.746-2.832-8.746l-5.161.502Z" fill="#fff" stroke="#001550" stroke-width="2" stroke-linecap="round" stroke-linejoin="round"/><path d="M79.38 330.078a8.506 8.506 0 1 0 0-17.012 8.506 8.506 0 0 0 0 17.012Z" fill="#001550" stroke="#001550" stroke-width="2" stroke-linecap="round" stroke-linejoin="round"/><path d="M84.792 314.356s-1.804 7.73-2.832 9.283c-1.028 1.552-4.373 2.317-5.16-1.039-.787-3.356 2.842-8.746 2.842-8.746l5.15.502Z" fill="#fff" stroke="#001550" stroke-width="2" stroke-linecap="round" stroke-linejoin="round"/><mask id="a" maskUnits="userSpaceOnUse" x="33.571" y="163.043" width="182" height="155" fill="#000"><path fill="#fff" d="M33.571 163.043h182v155h-182z"/><path d="M211.189 242.165a1.741 1.741 0 0 0-.087-1.552l-1.75-29.76a1.826 1.826 0 0 0-1.476-1.684L71.803 182.722l-2.186-11.546a7.282 7.282 0 0 0-7.074-5.914l-25.146-.219a1.823 1.823 0 0 0-1.826 1.826 1.827 1.827 0 0 0 1.826 1.826l25.146.218a3.622 3.622 0 0 1 3.51 2.941l12.824 68.092v.131a1.74 1.74 0 0 0 .186.82l8.189 43.437a1.803 1.803 0 0 0 0 1.268s1.782 4.997-.547 12.202a35.268 35.268 0 0 1-8.036 12.912c-.28.279-.457.645-.503 1.038H68.59a1.822 1.822 0 0 0-1.687 1.127 1.83 1.83 0 0 0 .988 2.386c.222.092.459.139.699.139h124.495a1.823 1.823 0 0 0 1.826-1.826 1.827 1.827 0 0 0-1.826-1.826h-56.109c-1.093-3.356-2.372-10.824 1.892-14.595a32.806 32.806 0 0 0 10.43-17.548l61.892-8.812a1.818 1.818 0 0 0 1.564-1.913l-1.564-26.721Zm-58.722 33.269-.437-3.662 9.151-.929.284 3.28-8.998 1.311Zm-13.207 1.881-.524-4.198 9.664-.973.449 3.804-9.589 1.367Zm-44.749-86.459 3.007 18.783-10.671-1.093-3.706-19.888 11.37 2.198Zm16.728 3.28 1.946 17.088-11.895-1.202-2.963-18.39 12.912 2.504Zm14.213 2.766 1.99 15.755-10.529-1.094L115 194.836l10.452 2.066Zm14.453 2.81 1.673 14.3-10.419-1.093-1.935-15.306 10.681 2.099Zm67.49 39.949-15.448-.164a7202.72 7202.72 0 0 1-1.17-16.782l15.711 1.585.907 15.361Zm-19.122-.207-11.348-.121-1.236-18.138 11.404 1.094c.339 5.105.754 11.075 1.169 17.132l.011.033Zm-81.812 2.744 10.266.109 3.28 29.028-8.746.885-4.8-30.022Zm1.192 30.394-8.747.875-5.849-31.411 9.665.109 4.931 30.427Zm36.844-33.641-10.102-.11-2.788-22.117 10.387 1.093 2.503 21.134Zm1.236-20.773 10.933 1.093 1.771 19.887-10.244-.109-2.46-20.871Zm-15.022 20.663-10.715-.12-2.678-23.408 10.561 1.094 2.832 22.434Zm-14.41-.185-10.441-.121-4.002-24.807 11.72 1.181 2.723 23.747Zm4.1 3.695 10.758.12 3.444 27.388-10.933 1.093-3.269-28.601Zm14.442.153 10.07.109 3.094 25.901-9.709.973-3.455-26.983Zm13.754.153 10.135.109 2.11 24.436-9.26.94-2.985-25.485Zm13.809.142 11.064.12 1.552 22.851-10.539 1.093-2.077-24.064Zm-.296-3.641-1.694-19.526 11.578 1.17 1.257 18.477-11.141-.121Zm13.317-21.68-.743-11.031 11.468 2.186c.088 1.52.339 5.139.667 9.949l-11.392-1.104Zm-3.684-.372-11.644-1.18-1.094-12.519 11.961 2.307.777 11.392Zm-15.307-1.552-11.097-1.093-1.705-14.049 11.621 2.252 1.181 12.89Zm-58.284-2.187 4.056 25.146-9.763-.109-4.865-26.108 10.572 1.071Zm-9.435 25.004-6.418-.065-5.095-27.049 6.56.667 4.953 26.447Zm.688 3.663 5.926 31.826-6.22.634-6.123-32.526 6.417.066Zm.383 36.079 6.221-.623 1.093 5.871-6.166.875-1.148-6.123Zm10.933 4.734-1.093-5.729 8.615-.874.875 5.4-8.397 1.203Zm12.027-1.716-.842-5.248 8.582-.875.558 4.942-8.298 1.181Zm11.917-1.695-.547-4.8 10.933-1.093.547 4.373-10.933 1.52Zm40.168-8.91 10.474-1.094.186 2.733-10.387 1.476-.273-3.115Zm14.114-1.433L190.274 268c.055.765.099 1.465.142 2.132l-11.294 1.607-.175-2.646Zm-.251-3.651-1.52-22.435 11.36.12c.536 7.653 1.093 15.307 1.476 21.178l-11.316 1.137Zm13.502-22.271 15.405.164 1.093 19.078-15.076 1.52c-.427-6.418-.93-13.667-1.433-20.806l.011.044Zm14.06-22.599-15.743-1.585c-.306-4.373-.536-7.741-.656-9.599l15.929 3.094.47 8.09ZM79.281 187.904l3.783 20.248-6.56-.656-3.936-20.915 6.713 1.323Zm57.159 106.521c-5.27 4.658-4.494 12.726-3.28 17.329H82.649a37.86 37.86 0 0 0 7.478-12.824 26.33 26.33 0 0 0 1.235-11.108l7.588-1.094c.091.006.182.006.273 0 .11.011.22.011.328 0 .172-.035.337-.094.492-.175l45.351-6.461a29.626 29.626 0 0 1-8.954 14.333Zm57.595-24.916c0-.634-.087-1.301-.131-1.968l15.022-1.52.087 1.367-14.978 2.121Z"/></mask><path d="M211.189 242.165a1.741 1.741 0 0 0-.087-1.552l-1.75-29.76a1.826 1.826 0 0 0-1.476-1.684L71.803 182.722l-2.186-11.546a7.282 7.282 0 0 0-7.074-5.914l-25.146-.219a1.823 1.823 0 0 0-1.826 1.826 1.827 1.827 0 0 0 1.826 1.826l25.146.218a3.622 3.622 0 0 1 3.51 2.941l12.824 68.092v.131a1.74 1.74 0 0 0 .186.82l8.189 43.437a1.803 1.803 0 0 0 0 1.268s1.782 4.997-.547 12.202a35.268 35.268 0 0 1-8.036 12.912c-.28.279-.457.645-.503 1.038H68.59a1.822 1.822 0 0 0-1.687 1.127 1.83 1.83 0 0 0 .988 2.386c.222.092.459.139.699.139h124.495a1.823 1.823 0 0 0 1.826-1.826 1.827 1.827 0 0 0-1.826-1.826h-56.109c-1.093-3.356-2.372-10.824 1.892-14.595a32.806 32.806 0 0 0 10.43-17.548l61.892-8.812a1.818 1.818 0 0 0 1.564-1.913l-1.564-26.721Zm-58.722 33.269-.437-3.662 9.151-.929.284 3.28-8.998 1.311Zm-13.207 1.881-.524-4.198 9.664-.973.449 3.804-9.589 1.367Zm-44.749-86.459 3.007 18.783-10.671-1.093-3.706-19.888 11.37 2.198Zm16.728 3.28 1.946 17.088-11.895-1.202-2.963-18.39 12.912 2.504Zm14.213 2.766 1.99 15.755-10.529-1.094L115 194.836l10.452 2.066Zm14.453 2.81 1.673 14.3-10.419-1.093-1.935-15.306 10.681 2.099Zm67.49 39.949-15.448-.164a7202.72 7202.72 0 0 1-1.17-16.782l15.711 1.585.907 15.361Zm-19.122-.207-11.348-.121-1.236-18.138 11.404 1.094c.339 5.105.754 11.075 1.169 17.132l.011.033Zm-81.812 2.744 10.266.109 3.28 29.028-8.746.885-4.8-30.022Zm1.192 30.394-8.747.875-5.849-31.411 9.665.109 4.931 30.427Zm36.844-33.641-10.102-.11-2.788-22.117 10.387 1.093 2.503 21.134Zm1.236-20.773 10.933 1.093 1.771 19.887-10.244-.109-2.46-20.871Zm-15.022 20.663-10.715-.12-2.678-23.408 10.561 1.094 2.832 22.434Zm-14.41-.185-10.441-.121-4.002-24.807 11.72 1.181 2.723 23.747Zm4.1 3.695 10.758.12 3.444 27.388-10.933 1.093-3.269-28.601Zm14.442.153 10.07.109 3.094 25.901-9.709.973-3.455-26.983Zm13.754.153 10.135.109 2.11 24.436-9.26.94-2.985-25.485Zm13.809.142 11.064.12 1.552 22.851-10.539 1.093-2.077-24.064Zm-.296-3.641-1.694-19.526 11.578 1.17 1.257 18.477-11.141-.121Zm13.317-21.68-.743-11.031 11.468 2.186c.088 1.52.339 5.139.667 9.949l-11.392-1.104Zm-3.684-.372-11.644-1.18-1.094-12.519 11.961 2.307.777 11.392Zm-15.307-1.552-11.097-1.093-1.705-14.049 11.621 2.252 1.181 12.89Zm-58.284-2.187 4.056 25.146-9.763-.109-4.865-26.108 10.572 1.071Zm-9.435 25.004-6.418-.065-5.095-27.049 6.56.667 4.953 26.447Zm.688 3.663 5.926 31.826-6.22.634-6.123-32.526 6.417.066Zm.383 36.079 6.221-.623 1.093 5.871-6.166.875-1.148-6.123Zm10.933 4.734-1.093-5.729 8.615-.874.875 5.4-8.397 1.203Zm12.027-1.716-.842-5.248 8.582-.875.558 4.942-8.298 1.181Zm11.917-1.695-.547-4.8 10.933-1.093.547 4.373-10.933 1.52Zm40.168-8.91 10.474-1.094.186 2.733-10.387 1.476-.273-3.115Zm14.114-1.433L190.274 268c.055.765.099 1.465.142 2.132l-11.294 1.607-.175-2.646Zm-.251-3.651-1.52-22.435 11.36.12c.536 7.653 1.093 15.307 1.476 21.178l-11.316 1.137Zm13.502-22.271 15.405.164 1.093 19.078-15.076 1.52c-.427-6.418-.93-13.667-1.433-20.806l.011.044Zm14.06-22.599-15.743-1.585c-.306-4.373-.536-7.741-.656-9.599l15.929 3.094.47 8.09ZM79.281 187.904l3.783 20.248-6.56-.656-3.936-20.915 6.713 1.323Zm57.159 106.521c-5.27 4.658-4.494 12.726-3.28 17.329H82.649a37.86 37.86 0 0 0 7.478-12.824 26.33 26.33 0 0 0 1.235-11.108l7.588-1.094c.091.006.182.006.273 0 .11.011.22.011.328 0 .172-.035.337-.094.492-.175l45.351-6.461a29.626 29.626 0 0 1-8.954 14.333Zm57.595-24.916c0-.634-.087-1.301-.131-1.968l15.022-1.52.087 1.367-14.978 2.121Z" fill="#fff"/><path d="M211.189 242.165a1.741 1.741 0 0 0-.087-1.552l-1.75-29.76a1.826 1.826 0 0 0-1.476-1.684L71.803 182.722l-2.186-11.546a7.282 7.282 0 0 0-7.074-5.914l-25.146-.219a1.823 1.823 0 0 0-1.826 1.826 1.827 1.827 0 0 0 1.826 1.826l25.146.218a3.622 3.622 0 0 1 3.51 2.941l12.824 68.092v.131a1.74 1.74 0 0 0 .186.82l8.189 43.437a1.803 1.803 0 0 0 0 1.268s1.782 4.997-.547 12.202a35.268 35.268 0 0 1-8.036 12.912c-.28.279-.457.645-.503 1.038H68.59a1.822 1.822 0 0 0-1.687 1.127 1.83 1.83 0 0 0 .988 2.386c.222.092.459.139.699.139h124.495a1.823 1.823 0 0 0 1.826-1.826 1.827 1.827 0 0 0-1.826-1.826h-56.109c-1.093-3.356-2.372-10.824 1.892-14.595a32.806 32.806 0 0 0 10.43-17.548l61.892-8.812a1.818 1.818 0 0 0 1.564-1.913l-1.564-26.721Zm-58.722 33.269-.437-3.662 9.151-.929.284 3.28-8.998 1.311Zm-13.207 1.881-.524-4.198 9.664-.973.449 3.804-9.589 1.367Zm-44.749-86.459 3.007 18.783-10.671-1.093-3.706-19.888 11.37 2.198Zm16.728 3.28 1.946 17.088-11.895-1.202-2.963-18.39 12.912 2.504Zm14.213 2.766 1.99 15.755-10.529-1.094L115 194.836l10.452 2.066Zm14.453 2.81 1.673 14.3-10.419-1.093-1.935-15.306 10.681 2.099Zm67.49 39.949-15.448-.164a7202.72 7202.72 0 0 1-1.17-16.782l15.711 1.585.907 15.361Zm-19.122-.207-11.348-.121-1.236-18.138 11.404 1.094c.339 5.105.754 11.075 1.169 17.132l.011.033Zm-81.812 2.744 10.266.109 3.28 29.028-8.746.885-4.8-30.022Zm1.192 30.394-8.747.875-5.849-31.411 9.665.109 4.931 30.427Zm36.844-33.641-10.102-.11-2.788-22.117 10.387 1.093 2.503 21.134Zm1.236-20.773 10.933 1.093 1.771 19.887-10.244-.109-2.46-20.871Zm-15.022 20.663-10.715-.12-2.678-23.408 10.561 1.094 2.832 22.434Zm-14.41-.185-10.441-.121-4.002-24.807 11.72 1.181 2.723 23.747Zm4.1 3.695 10.758.12 3.444 27.388-10.933 1.093-3.269-28.601Zm14.442.153 10.07.109 3.094 25.901-9.709.973-3.455-26.983Zm13.754.153 10.135.109 2.11 24.436-9.26.94-2.985-25.485Zm13.809.142 11.064.12 1.552 22.851-10.539 1.093-2.077-24.064Zm-.296-3.641-1.694-19.526 11.578 1.17 1.257 18.477-11.141-.121Zm13.317-21.68-.743-11.031 11.468 2.186c.088 1.52.339 5.139.667 9.949l-11.392-1.104Zm-3.684-.372-11.644-1.18-1.094-12.519 11.961 2.307.777 11.392Zm-15.307-1.552-11.097-1.093-1.705-14.049 11.621 2.252 1.181 12.89Zm-58.284-2.187 4.056 25.146-9.763-.109-4.865-26.108 10.572 1.071Zm-9.435 25.004-6.418-.065-5.095-27.049 6.56.667 4.953 26.447Zm.688 3.663 5.926 31.826-6.22.634-6.123-32.526 6.417.066Zm.383 36.079 6.221-.623 1.093 5.871-6.166.875-1.148-6.123Zm10.933 4.734-1.093-5.729 8.615-.874.875 5.4-8.397 1.203Zm12.027-1.716-.842-5.248 8.582-.875.558 4.942-8.298 1.181Zm11.917-1.695-.547-4.8 10.933-1.093.547 4.373-10.933 1.52Zm40.168-8.91 10.474-1.094.186 2.733-10.387 1.476-.273-3.115Zm14.114-1.433L190.274 268c.055.765.099 1.465.142 2.132l-11.294 1.607-.175-2.646Zm-.251-3.651-1.52-22.435 11.36.12c.536 7.653 1.093 15.307 1.476 21.178l-11.316 1.137Zm13.502-22.271 15.405.164 1.093 19.078-15.076 1.52c-.427-6.418-.93-13.667-1.433-20.806l.011.044Zm14.06-22.599-15.743-1.585c-.306-4.373-.536-7.741-.656-9.599l15.929 3.094.47 8.09ZM79.281 187.904l3.783 20.248-6.56-.656-3.936-20.915 6.713 1.323Zm57.159 106.521c-5.27 4.658-4.494 12.726-3.28 17.329H82.649a37.86 37.86 0 0 0 7.478-12.824 26.33 26.33 0 0 0 1.235-11.108l7.588-1.094c.091.006.182.006.273 0 .11.011.22.011.328 0 .172-.035.337-.094.492-.175l45.351-6.461a29.626 29.626 0 0 1-8.954 14.333Zm57.595-24.916c0-.634-.087-1.301-.131-1.968l15.022-1.52.087 1.367-14.978 2.121Z" stroke="#001550" stroke-width="4" stroke-linecap="round" stroke-linejoin="round" mask="url(#a)"/><path d="M58.497 170.007H31.94a3.658 3.658 0 0 1-2.718-.997 3.674 3.674 0 0 1-1.144-2.66 3.666 3.666 0 0 1 2.4-3.438 3.658 3.658 0 0 1 1.462-.219h26.557a3.663 3.663 0 0 1 0 7.314Z" fill="#001550" stroke="#001550" stroke-width="2" stroke-linecap="round" stroke-linejoin="round"/><path d="M99.638 28.763H77.74M54.748 69.379h-6.265M112.266 69.379H63.078M69.3 192.157H1M43.978 205.212h-29.17M108.221 144.445H83.108M192.078 171.439h-19.953M182.107 166.837h-26.863" stroke="#001550" stroke-width="2" stroke-linecap="round" stroke-linejoin="round"/></svg>