<svg viewBox="0 0 313 340" fill="none" aria-hidden="true" xmlns="http://www.w3.org/2000/svg"><path d="M210.648 331.653c0 4.242-47.154 7.653-105.329 7.653C47.144 339.306 0 335.873 0 331.653S47.154 324 105.319 324c58.164 0 105.329 3.411 105.329 7.653Z" fill="#8BAAFF"/><path opacity=".4" d="M210.648 331.653c0 4.242-47.154 7.653-105.329 7.653C47.144 339.306 0 335.873 0 331.653S47.154 324 105.319 324c58.164 0 105.329 3.411 105.329 7.653Z" fill="#fff"/><mask id="a" maskUnits="userSpaceOnUse" x="87.166" y="-1" width="71" height="75" fill="#000"><path fill="#fff" d="M87.166-1h71v75h-71z"/><path d="M125.224 5.166S118.93.224 111.713 2.69c-7.217 2.466-12.688 14.49-14.636 24.263-1.948 9.773-9.435 17.181-7.634 28.643 1.802 11.461 14.828 13.251 30.557 14.94 15.728 1.689 24.263-.225 31.671-10.56 7.408-10.336 4.267-22.913-.113-34.036-4.379-11.124-11.675-21.448-17.744-23.362-6.068-1.914-8.59 2.59-8.59 2.59Z"/></mask><path d="M125.224 5.166S118.93.224 111.713 2.69c-7.217 2.466-12.688 14.49-14.636 24.263-1.948 9.773-9.435 17.181-7.634 28.643 1.802 11.461 14.828 13.251 30.557 14.94 15.728 1.689 24.263-.225 31.671-10.56 7.408-10.336 4.267-22.913-.113-34.036-4.379-11.124-11.675-21.448-17.744-23.362-6.068-1.914-8.59 2.59-8.59 2.59Z" fill="#001550"/><path d="M125.224 5.166S118.93.224 111.713 2.69c-7.217 2.466-12.688 14.49-14.636 24.263-1.948 9.773-9.435 17.181-7.634 28.643 1.802 11.461 14.828 13.251 30.557 14.94 15.728 1.689 24.263-.225 31.671-10.56 7.408-10.336 4.267-22.913-.113-34.036-4.379-11.124-11.675-21.448-17.744-23.362-6.068-1.914-8.59 2.59-8.59 2.59Z" stroke="#001550" stroke-width="4" stroke-linecap="round" stroke-linejoin="round" mask="url(#a)"/><path d="m79.74 220.785-1.407 21.662s-5.99 29.059-7.881 41.038c-1.892 11.98-5.36 30.196-5.99 30.196-.63 0-10.966 6.249-14.276 11.349-3.31 5.101.89 7.262 5.483 5.63 4.593-1.633 10.83-6.249 12.869-11.732 2.038-5.483 3.05-7.521 3.186-8.41.135-.89 21.92-59.38 24.083-65.628 2.161-6.249 6.755-24.601 6.755-24.601l10.707-36.321s11.462 37.346 11.597 39.001c.135 1.655 11.844 97.107 12.384 100.676.541 3.57.383 6.114 2.545 6.88 2.162.765 7.262.765 9.941.765 2.68 0 11.98 1.408 16.562.259 4.583-1.148 5.101-1.914 1.914-4.211-3.186-2.296-20.885-3.76-22.517-10.448-.136-.507-.259-98.763-.259-98.763s-1.532-32.493-4.076-41.657H82.476l-2.736 44.315Z" fill="#fff" stroke="#001550" stroke-width="2" stroke-linecap="round" stroke-linejoin="round"/><path d="M55.657 330.637c4.583-1.666 10.832-6.249 12.87-11.732l.427-1.125c-2.6 2.769-6.755 6.62-6.755 6.62a8.22 8.22 0 0 0-1.655-3.569 2.984 2.984 0 0 0-2.939-.89l4.504-4.954c-3.378 2.094-9.458 6.373-11.845 10.054-3.411 5.078.777 7.251 5.393 5.596ZM168.134 327.316c-2.185-1.565-11.158-2.747-17.148-5.483-.247.21-.44.477-.563.777a22.545 22.545 0 0 0-.889 3.31l-12.385-2.646v.349c.507 3.569.383 6.114 2.545 6.879 2.161.766 7.262.766 9.941.766 2.68 0 11.98 1.407 16.562.259 4.582-1.149 5.168-1.869 1.937-4.211ZM96.899 123.62s-5.844 2.691-12.914 15.391c-7.735 13.86-6.406 21.561-6.519 38.28-.113 16.719-.45 44.473-.45 44.473s21.391 5.73 36.737 4.83c15.346-.901 34.813-4.38 34.813-4.38s-4.155-56.61-8.084-72.89c-3.93-16.28-6.294-23.644-6.294-23.644a93.244 93.244 0 0 1-22.912.338c-13.026-1.272-14.377-2.398-14.377-2.398Z" fill="#001550" stroke="#001550" stroke-width="2" stroke-linecap="round" stroke-linejoin="round"/><path d="M121.51 173.688a106.084 106.084 0 0 1 1.599 5.821M107.944 141.826a187.561 187.561 0 0 1 11.641 26.031" stroke="#fff" stroke-width="2" stroke-linecap="round" stroke-linejoin="round"/><path d="M240.325 112.857c-.675-.45-11.743-2.184-11.743-2.184l-2.162-.889s13.399 1.069 13.511.506c.113-.563.563-1.238-.338-1.351-.9-.112-18.138-3.614-18.138-3.614s4.38-4.143 4.943-5.044c.563-.9 1.34-2.702.439-2.702s-1.126.563-2.353 1.351c-1.227.788-6.069 2.702-7.42 3.817-1.351 1.114-5.381 4.042-5.381 4.042l-46.815-6.44s-16.438-20.266-20.007-24.59a46.684 46.684 0 0 0-8.41-7.656c-3.445-1.52-3.378 1.025-3.378 1.025l7.195 31.975s18.611 11.09 19.759 11.09c1.148 0 51.43 1.666 51.43 1.666s3.378 1.576 5.495 2.916c2.116 1.34 15.616 5.63 15.616 5.63s.901-.451-.113-1.239c-1.013-.788-7.521-3.929-7.521-3.929l13.511 2.927s.788-.563.45-1.126c-.337-.563-12.384-5.167-12.384-5.167l13.51.675s.968-1.238.304-1.689Z" fill="#fff" stroke="#001550" stroke-width="2" stroke-linecap="round" stroke-linejoin="round"/><path d="M162.042 96.87c-4.852-5.979-14.546-17.913-17.181-21.11a46.684 46.684 0 0 0-8.41-7.657c-3.445-1.52-3.378 1.025-3.378 1.025l7.195 31.975s8.399 4.999 14.253 8.286l7.521-12.52Z" fill="#10B981" stroke="#001550" stroke-width="2" stroke-linecap="round" stroke-linejoin="round"/><path d="M112.29 65.368s-9.773.45-15.763 7.082c-5.99 6.631-5.28 21.222-2.803 29.982 2.477 8.759 5.63 13.589 4.942 16.629-.686 3.04-3.14 4.042-1.801 6.846 1.34 2.803 9.097 5.843 22.799 5.393 13.702-.451 16.292-3.378 16.404-5.945.113-2.567-.9-4.718-.563-6.294.338-1.576 10.223-10.335 10.223-19.996 0-9.66-4.267-13.026-5.28-19.995-1.013-6.97-.676-7.972-4.83-11.011-4.155-3.04-17.823-4.605-23.328-2.691Z" fill="#10B981" stroke="#001550" stroke-width="2" stroke-linecap="round" stroke-linejoin="round"/><path d="M107.854 98.852a46.642 46.642 0 0 1-10.775 6.755M108.934 99.977s-2.42 7.813-8.354 12.125" stroke="#001550" stroke-width="2" stroke-linecap="round" stroke-linejoin="round"/><path d="m133.186 72.438 1.126 10.785-4.729-5.505 3.603-5.28Z" fill="#fff" stroke="#001550" stroke-width="2" stroke-linecap="round" stroke-linejoin="round"/><path d="m126.892 84.124 6.294-11.687-5.731-6.17-.563 17.857Z" fill="#fff" stroke="#001550" stroke-width="2" stroke-linecap="round" stroke-linejoin="round"/><path d="M114.766 46.273a47.884 47.884 0 0 1 1.453 11.911 43.98 43.98 0 0 1-.788 7.746l11.461 18.195 3.254-16.889 2.139-11.686s-13.026-.743-17.519-9.277Z" fill="#fff" stroke="#001550" stroke-width="2" stroke-linecap="round" stroke-linejoin="round"/><path d="m126.217 74.352.675 9.772-3.366-5.28 2.691-4.492Z" fill="#fff" stroke="#001550" stroke-width="2" stroke-linecap="round" stroke-linejoin="round"/><path d="m111.614 65.48 10.448 18.757 4.155-9.885-11.113-15.279-3.49 6.407Z" fill="#fff" stroke="#001550" stroke-width="2" stroke-linecap="round" stroke-linejoin="round"/><path d="M294.66 74.228h-94.81v77.798h94.81V74.227Z" fill="#FFC966"/><path d="M294.66 74.228h-94.81v77.798h94.81V74.227Z" stroke="#001550" stroke-width="2" stroke-linecap="round" stroke-linejoin="round"/><path d="M274.586 74.228h-94.811v77.798h94.811V74.227Z" fill="#FFC966" stroke="#001550" stroke-width="2" stroke-linecap="round" stroke-linejoin="round"/><path d="M310.276 178.214c-3.039-4.818-15.616-26.188-15.616-26.188h-20.063l10.325 26.188h25.354Z" fill="#FFC966"/><path d="M310.276 178.214c-3.039-4.818-15.616-26.188-15.616-26.188h-20.063l10.325 26.188h25.354Z" stroke="#001550" stroke-width="2" stroke-linecap="round" stroke-linejoin="round"/><path d="M164.103 178.214c3.04-4.818 15.605-26.188 15.605-26.188h20.074l-10.324 26.188h-25.355Z" fill="#FFC966" stroke="#001550" stroke-width="2" stroke-linecap="round" stroke-linejoin="round"/><path d="m179.708 152.026-8.726 26.188h99.022l4.593-26.188h-94.889Z" fill="#FFC966" stroke="#001550" stroke-width="2" stroke-linecap="round" stroke-linejoin="round"/><path d="M306.865 102.375v26.053M311.796 113.646v21.121M169.586 128.428v16.19M165.364 137.582v12.666" stroke="#001550" stroke-width="2" stroke-linecap="round" stroke-linejoin="round"/><path d="M95.998 93.334a51.964 51.964 0 0 0 11.574 9.773c6.755 4.042 31.525 18.081 33.473 18.869 1.948.789 61.102-8.871 61.102-8.871s3.377 1.576 5.505 2.916c2.128 1.339 15.616 5.629 15.616 5.629s.901-.45-.112-1.227c-1.014-.777-7.521-3.941-7.521-3.941l13.51 2.927s.788-.562.451-1.125c-.338-.563-12.385-5.168-12.385-5.168l13.51.675s1.014-1.238.338-1.689c-.675-.45-14.512-3.602-14.512-3.602s14.715-1.239 14.828-1.802c.112-.563.562-1.227-.338-1.34-.901-.112-19.32-1.914-19.32-1.914s4.83-3.028 5.393-3.929c.562-.9 1.351-2.702.45-2.702s-1.126.563-2.353 1.351c-1.227.788-6.069 2.702-7.42 3.817-1.351 1.114-5.393 4.053-5.393 4.053l-54.132.113-16.762 10.646" fill="#fff"/><path d="M95.998 93.334a51.964 51.964 0 0 0 11.574 9.773c6.755 4.042 31.525 18.081 33.473 18.869 1.948.789 61.102-8.871 61.102-8.871s3.377 1.576 5.505 2.916c2.128 1.339 15.616 5.629 15.616 5.629s.901-.45-.112-1.227c-1.014-.777-7.521-3.941-7.521-3.941l13.51 2.927s.788-.562.451-1.125c-.338-.563-12.385-5.168-12.385-5.168l13.51.675s1.014-1.238.338-1.689c-.675-.45-14.512-3.602-14.512-3.602s14.715-1.239 14.828-1.802c.112-.563.562-1.227-.338-1.34-.901-.112-19.32-1.914-19.32-1.914s4.83-3.028 5.393-3.929c.562-.9 1.351-2.702.45-2.702s-1.126.563-2.353 1.351c-1.227.788-6.069 2.702-7.42 3.817-1.351 1.114-5.393 4.053-5.393 4.053l-54.132.113-16.762 10.646" stroke="#001550" stroke-width="2" stroke-linecap="round" stroke-linejoin="round"/><path d="M231.014 105.359c-.889-.113-19.32-1.914-19.32-1.914s4.83-3.029 5.393-3.93c.563-.9 1.351-2.701.45-2.701-.9 0-1.126.562-2.353 1.35-1.227.789-6.068 2.703-7.419 3.817-1.351 1.115-5.393 4.053-5.393 4.053l-54.133.113-6.001-4.762a2874.088 2874.088 0 0 0-9.198 16.246c4.21 2.342 7.397 4.087 8.038 4.346 1.914.788 61.102-8.872 61.102-8.872s3.378 1.576 5.506 2.916c2.128 1.34 15.616 5.63 15.616 5.63s.9-.451-.113-1.228c-1.013-.777-7.521-3.94-7.521-3.94l13.511 2.927s.788-.563.45-1.126-12.385-5.168-12.385-5.168l13.511.676s1.013-1.239.338-1.689c-.676-.45-14.547-3.603-14.547-3.603s14.716-1.238 14.828-1.801c.113-.563.541-1.227-.36-1.34ZM140.369 36.837a1.608 1.608 0 0 1 2.391-.104c.212.215.359.485.424.78a9.093 9.093 0 0 1-1.802 6.958c-1.238 1.238-2.364 1.576-2.364 0a72.042 72.042 0 0 1 1.351-7.634Z" fill="#fff" stroke="#001550" stroke-width="2" stroke-linecap="round" stroke-linejoin="round"/><mask id="b" maskUnits="userSpaceOnUse" x="106.82" y="14.157" width="38" height="49" fill="#000"><path fill="#fff" d="M106.82 14.157h38v49h-38z"/><path d="M127.543 17.157a22.973 22.973 0 0 1-6.609 14.535A54.998 54.998 0 0 1 108.82 40.7s.653 3.523 1.981 4.627c1.329 1.103 3.964.89 3.964.89a28.552 28.552 0 0 0 7.273 11.01c5.28 4.842 11.45 4.403 14.974-2.86 3.524-7.261 5.292-14.546 4.853-18.734l-.44-4.188s-11.461-6.361-13.882-14.288Z"/></mask><path d="M127.543 17.157a22.973 22.973 0 0 1-6.609 14.535A54.998 54.998 0 0 1 108.82 40.7s.653 3.523 1.981 4.627c1.329 1.103 3.964.89 3.964.89a28.552 28.552 0 0 0 7.273 11.01c5.28 4.842 11.45 4.403 14.974-2.86 3.524-7.261 5.292-14.546 4.853-18.734l-.44-4.188s-11.461-6.361-13.882-14.288Z" fill="#fff"/><path d="M127.543 17.157a22.973 22.973 0 0 1-6.609 14.535A54.998 54.998 0 0 1 108.82 40.7s.653 3.523 1.981 4.627c1.329 1.103 3.964.89 3.964.89a28.552 28.552 0 0 0 7.273 11.01c5.28 4.842 11.45 4.403 14.974-2.86 3.524-7.261 5.292-14.546 4.853-18.734l-.44-4.188s-11.461-6.361-13.882-14.288Z" stroke="#001550" stroke-width="4" stroke-linecap="round" stroke-linejoin="round" mask="url(#b)"/><path d="M125.879 38.932c.56 0 1.013-.807 1.013-1.802 0-.994-.453-1.8-1.013-1.8-.56 0-1.013.806-1.013 1.8 0 .995.453 1.802 1.013 1.802ZM131.385 53.309c.559 0 1.013-.807 1.013-1.801 0-.995-.454-1.802-1.013-1.802-.56 0-1.014.807-1.014 1.801 0 .995.454 1.802 1.014 1.802ZM135.652 38.932c.559 0 1.013-.807 1.013-1.802 0-.994-.454-1.8-1.013-1.8-.56 0-1.014.806-1.014 1.8 0 .995.454 1.802 1.014 1.802Z" fill="#001550"/><path d="M133.625 35.216a10.58 10.58 0 0 0-.338 4.154c.338 1.914 1.914 5.168.563 5.731a3.702 3.702 0 0 1-3.817-.45M122.952 33.877s.54-3.446 5.055-3.052M135.044 31.883s4.211-3.378 5.573 2.803" stroke="#001550" stroke-width="2" stroke-linecap="round" stroke-linejoin="round"/></svg>