<svg width="459" height="459" viewBox="0 0 459 459" fill="none" xmlns="http://www.w3.org/2000/svg">
    <path d="M255.608 424.171C239.782 416.68 233.475 398.871 231.244 382.283C230.868 379.529 230.078 376.664 230.978 374.021C231.878 371.377 234.65 369.219 237.312 369.963C239.525 370.578 240.819 372.8 242.297 374.553C244.263 376.919 246.861 378.676 249.788 379.62C251.697 380.235 253.965 380.428 255.534 379.18C257.683 377.463 257.37 374.14 256.93 371.404C256.03 366.331 255.149 361.257 254.286 356.184C253.664 353.477 253.481 350.687 253.744 347.922C254.148 345.168 255.626 342.414 258.105 341.276C260.583 340.137 264.063 341.064 265.063 343.653C265.358 344.766 265.579 345.898 265.724 347.041C265.99 348.17 266.734 349.336 267.863 349.473C268.992 349.611 269.975 348.647 270.663 347.702C273.013 344.461 274.335 340.578 275.529 336.731C276.722 332.885 277.842 328.965 279.898 325.513C281.955 322.062 285.094 319.087 288.977 318.169C292.86 317.251 297.45 318.996 299.075 322.677C300.7 326.358 299.13 330.663 297.239 334.207C294.367 339.454 290.753 344.259 286.508 348.473C285.661 349.147 285.051 350.073 284.764 351.117C284.479 353.044 286.517 354.568 288.436 354.862C290.584 355.192 292.769 354.605 294.944 354.495C297.12 354.385 299.589 354.935 300.746 356.817C302.334 359.424 300.489 362.757 298.515 365.079C294.551 369.706 289.822 373.619 284.534 376.646C282.643 377.72 280.633 378.73 279.246 380.419C277.86 382.108 277.3 384.734 278.604 386.496C279.907 388.259 282.542 388.452 284.58 387.699C286.618 386.946 288.316 385.486 290.198 384.394C293.723 382.338 298.625 381.769 301.591 384.614C302.515 385.609 303.196 386.806 303.58 388.109C303.964 389.412 304.04 390.786 303.803 392.124C303.315 394.788 302.294 397.326 300.801 399.587C296.047 407.759 289.211 414.525 280.991 419.195C272.775 423.694 264.825 425.888 255.617 424.18" fill="#F5F5F5"/>
    <path d="M258.114 413.1C259.332 403.652 261.091 394.282 263.384 385.037L265.146 377.757C265.724 375.361 266.303 372.993 266.982 370.716C268.355 366.347 269.967 362.056 271.811 357.864C273.546 353.843 275.336 350.079 277.034 346.582C278.733 343.084 280.394 339.853 282.028 336.979C284.579 332.422 287.489 328.075 290.731 323.981C291.878 322.53 292.805 321.438 293.439 320.703C293.742 320.354 293.99 320.079 294.164 319.868C294.339 319.657 294.421 319.592 294.43 319.602C294.364 319.708 294.29 319.809 294.21 319.905L293.512 320.768C292.906 321.52 292.007 322.604 290.887 324.1C287.716 328.235 284.859 332.601 282.34 337.163C280.734 340.046 279.1 343.277 277.411 346.774C275.721 350.272 273.959 354.036 272.242 358.057C270.414 362.249 268.821 366.54 267.469 370.909C266.762 373.176 266.193 375.499 265.633 377.922L263.87 385.211C261.583 394.438 259.814 403.785 258.573 413.21" fill="#E0E0E0"/>
    <path d="M267.138 370.679C266.939 370.322 266.782 369.943 266.67 369.55C266.395 368.825 266.037 367.714 265.615 366.42C264.77 363.757 263.723 360.04 262.585 355.945C261.447 351.851 260.354 348.151 259.464 345.517C259.023 344.195 258.656 343.121 258.399 342.396C258.245 342.019 258.125 341.628 258.041 341.23C258.263 341.572 258.444 341.939 258.583 342.322C258.904 343.029 259.317 344.085 259.804 345.388C260.786 348.014 261.933 351.695 263.081 355.808C264.228 359.92 265.192 363.519 265.963 366.31C266.321 367.576 266.615 368.641 266.881 369.495C267.002 369.881 267.088 370.278 267.138 370.679Z" fill="#E0E0E0"/>
    <path d="M301.242 358.139C300.798 358.324 300.337 358.463 299.865 358.552C298.947 358.782 297.689 359.112 296.11 359.571C292.943 360.489 288.619 361.848 283.91 363.592C279.2 365.337 275.005 367.108 271.976 368.467C270.47 369.137 269.268 369.715 268.432 370.11C268.013 370.339 267.573 370.529 267.12 370.679C267.499 370.387 267.909 370.134 268.341 369.927C269.148 369.477 270.333 368.852 271.82 368.091C274.785 366.64 278.971 364.813 283.69 363.06C287.717 361.553 291.82 360.257 295.982 359.177C297.579 358.754 298.882 358.479 299.791 358.305C300.269 358.205 300.754 358.149 301.242 358.139Z" fill="#E0E0E0"/>
    <path d="M258.435 412.393C258.318 412.273 258.213 412.141 258.123 411.998L257.306 410.833C256.599 409.804 255.617 408.308 254.433 406.435C252.046 402.69 248.925 397.411 245.556 391.536C242.187 385.661 239.13 380.364 236.807 376.582L234.053 372.093L233.319 370.872C233.222 370.737 233.145 370.588 233.089 370.431C233.089 370.431 233.209 370.551 233.401 370.817C233.594 371.083 233.897 371.515 234.218 371.992C234.925 373.011 235.908 374.507 237.101 376.389C239.479 380.135 242.609 385.404 245.978 391.279C249.347 397.154 252.404 402.451 254.717 406.243L257.471 410.722C257.765 411.209 258.013 411.64 258.206 411.943C258.304 412.081 258.382 412.233 258.435 412.393Z" fill="#E0E0E0"/>
    <path d="M302.665 389.397C302.536 389.51 302.39 389.603 302.233 389.673L300.957 390.352L296.221 392.821C292.218 394.914 286.728 397.861 280.67 401.083C274.611 404.306 269.094 407.252 265.064 409.254C263.044 410.254 261.392 411.09 260.253 411.576L258.876 412.182C258.725 412.262 258.565 412.324 258.399 412.366C258.53 412.255 258.675 412.163 258.83 412.09L260.116 411.411L264.852 408.932C268.846 406.848 274.335 403.902 280.394 400.67C286.453 397.439 291.979 394.51 296 392.509C298.02 391.509 299.672 390.673 300.811 390.187L302.132 389.581C302.299 389.493 302.479 389.431 302.665 389.397Z" fill="#E0E0E0"/>
    <path d="M140.821 227.122C140.821 227.122 129.915 228.637 136.039 252.524C142.162 276.41 147.357 288.729 147.357 288.729C147.357 288.729 148.174 294.136 143.814 293.971C139.453 293.806 130.558 290.299 127.538 294.972C124.417 299.856 127.152 305.731 133.964 311.891C140.775 318.05 155.298 332.087 156.602 333.363C157.905 334.639 158.86 337.264 155.867 337.622C152.875 337.98 131.65 335.492 131.081 345.636C130.512 355.78 152.388 369.807 154.747 371.386C157.107 372.965 157.501 374.195 156.951 375.572C156.4 376.949 149.368 375.435 143.3 374.966C137.232 374.498 130.108 375.04 130.264 380.915C130.42 386.79 141.914 401.662 175.421 412.715L191.293 416.818L203.016 405.27C226.608 379.024 229.188 360.416 226.406 355.239C223.625 350.061 217.226 353.136 212.141 356.551C207.055 359.966 201.731 364.813 200.592 363.895C199.454 362.977 199.16 361.71 200.427 359.168C201.694 356.625 213.71 333.583 208.166 325.064C202.621 316.545 185.436 329.232 182.682 330.397C179.928 331.563 179.432 328.791 179.928 327.065C180.424 325.339 186.024 305.951 188.906 297.184C191.789 288.417 191.238 281.973 186.097 279.292C181.14 276.713 175.182 284.204 171.473 286.517C167.765 288.83 165.8 283.763 165.8 283.763C165.8 283.763 164.184 270.498 157.63 246.722C151.075 222.946 140.619 227.205 140.619 227.205" fill="#EBEBEB"/>
    <path d="M191.284 420.765C186.538 403.323 178.615 372.111 171.684 345.315C164.753 318.518 158.456 294.357 153.793 276.859C151.461 268.12 149.57 261.052 148.285 256.14C147.642 253.708 147.137 251.807 146.788 250.504L146.403 249.035C146.32 248.704 146.292 248.53 146.292 248.53C146.292 248.53 146.357 248.686 146.458 249.017C146.559 249.347 146.696 249.852 146.88 250.476C147.256 251.78 147.798 253.662 148.477 256.085C149.854 260.96 151.8 268.019 154.169 276.759C158.915 294.201 165.277 318.445 172.208 345.186C179.139 371.928 186.997 403.167 191.66 420.664" fill="#E0E0E0"/>
    <path d="M139.784 300.425C140.151 300.576 140.501 300.763 140.831 300.985C141.482 301.37 142.419 301.958 143.585 302.692C145.871 304.17 148.983 306.291 152.37 308.687L161.018 314.856L163.652 316.692C163.984 316.898 164.292 317.141 164.57 317.417C164.2 317.267 163.846 317.079 163.514 316.857C162.863 316.471 161.926 315.884 160.76 315.14C158.493 313.644 155.409 311.468 152.021 309.081L143.328 302.977L140.684 301.141C140.359 300.935 140.058 300.695 139.784 300.425Z" fill="#E0E0E0"/>
    <path d="M165.901 316.655C165.782 316.581 169.867 309.981 175.017 301.912C180.167 293.843 184.454 287.362 184.573 287.435C184.692 287.508 180.607 294.118 175.448 302.187C170.289 310.256 166.02 316.71 165.901 316.655Z" fill="#E0E0E0"/>
    <path d="M174.696 358.222C174.95 357.905 175.243 357.621 175.568 357.377L178.037 355.211C180.121 353.375 182.995 350.841 186.061 347.922C189.127 345.003 191.826 342.276 193.753 340.284C194.671 339.366 195.424 338.549 196.039 337.925C196.317 337.617 196.625 337.337 196.957 337.09C196.754 337.441 196.507 337.764 196.223 338.053C195.727 338.65 194.984 339.495 194.047 340.523C192.211 342.588 189.531 345.37 186.446 348.289C183.362 351.208 180.461 353.724 178.313 355.486C177.229 356.404 176.348 357.065 175.724 357.533C175.408 357.8 175.063 358.031 174.696 358.222Z" fill="#E0E0E0"/>
    <path d="M147.844 348.739C148.215 348.783 148.579 348.873 148.927 349.005L151.838 349.923C154.279 350.704 157.648 351.814 161.357 353.063C165.066 354.311 168.417 355.486 170.831 356.358L173.686 357.405C174.041 357.516 174.383 357.667 174.705 357.855C174.334 357.817 173.97 357.731 173.622 357.598L170.712 356.68C168.27 355.899 164.901 354.789 161.192 353.531C157.483 352.273 154.133 351.107 151.718 350.245L148.863 349.189C148.505 349.085 148.162 348.934 147.844 348.739Z" fill="#E0E0E0"/>
    <path d="M150.947 386.423C151.419 386.493 151.883 386.61 152.333 386.772L156.06 387.91C159.2 388.892 163.523 390.278 168.297 391.848C173.071 393.418 177.376 394.85 180.488 395.924L184.16 397.209C184.617 397.356 185.062 397.537 185.491 397.751C185.016 397.681 184.548 397.564 184.096 397.402L180.369 396.264C177.229 395.282 172.905 393.895 168.132 392.326C163.358 390.756 159.053 389.315 155.95 388.25L152.278 386.955C151.819 386.818 151.374 386.64 150.947 386.423Z" fill="#E0E0E0"/>
    <path d="M184.738 397.246C185.061 396.849 185.421 396.484 185.812 396.154L188.851 393.299C191.412 390.884 194.937 387.534 198.729 383.724C202.52 379.914 205.871 376.38 208.276 373.81L211.122 370.762C211.457 370.373 211.822 370.01 212.214 369.679C211.947 370.11 211.639 370.516 211.296 370.89C210.672 371.652 209.735 372.726 208.542 374.048C206.201 376.692 202.896 380.272 199.087 384.082C195.277 387.892 191.743 391.215 189.099 393.565C187.777 394.731 186.703 395.676 185.941 396.319C185.566 396.661 185.164 396.971 184.738 397.246Z" fill="#E0E0E0"/>
    <path d="M93.4525 84.6763L84.4928 81.9223C84.4928 81.9223 82.1427 89.4499 74.2847 87.1457C72.7633 86.7268 71.4099 85.8453 70.4116 84.6234C69.4132 83.4014 68.8195 81.8993 68.7124 80.325C68.5948 78.9974 68.7958 77.6609 69.2988 76.4267C69.8017 75.1924 70.5921 74.0961 71.6041 73.2288C73.9083 71.1909 77.9475 69.9516 83.6483 72.8984L89.9549 52.7024L81.0962 49.9484L77.4242 61.7814C77.4242 61.7814 63.9847 61.1112 59.716 74.7986C55.6309 87.8985 66.4266 94.6091 71.4572 96.1788C75.2761 97.3722 88.6881 100.53 93.4525 84.6763Z" fill="#F5F5F5"/>
    <path d="M82.2965 45.7448L91.2876 48.5504L93.9072 40.1552L84.9161 37.3496L82.2965 45.7448Z" fill="#F5F5F5"/>
    <path d="M118.174 61.8732L121.764 60.9552C121.654 60.5476 121.628 60.1221 121.686 59.704C121.744 59.2859 121.886 58.8838 122.102 58.5215C122.319 58.1593 122.606 57.8443 122.947 57.5953C123.288 57.3463 123.675 57.1683 124.086 57.0721C124.684 56.8915 125.324 56.9015 125.916 57.1005C126.508 57.2995 127.024 57.6778 127.391 58.1828C127.703 58.6022 127.912 59.0895 127.999 59.6048C128.087 60.1202 128.052 60.6489 127.896 61.148C127.556 62.3138 126.464 63.5807 123.93 63.7918L126.069 71.8794L129.613 70.9614L128.364 66.2245C129.708 65.414 130.748 64.1841 131.324 62.7242C131.899 61.2643 131.979 59.6556 131.55 58.1461C130.173 52.8952 125.124 52.9227 123.132 53.446C121.589 53.804 116.439 55.5574 118.174 61.8732Z" fill="#EBEBEB"/>
    <path d="M130.863 72.1408L127.248 73.1099L128.152 76.4847L131.767 75.5157L130.863 72.1408Z" fill="#EBEBEB"/>
    <path d="M414.514 154.784L418.002 156.042C418.148 155.647 418.372 155.285 418.661 154.978C418.949 154.671 419.296 154.424 419.681 154.253C420.066 154.082 420.481 153.99 420.902 153.982C421.323 153.973 421.742 154.05 422.133 154.206C422.721 154.395 423.235 154.761 423.607 155.254C423.978 155.747 424.188 156.343 424.208 156.96C424.229 157.486 424.126 158.01 423.906 158.489C423.685 158.968 423.355 159.387 422.941 159.714C422.023 160.476 420.38 160.889 418.176 159.622L415.322 167.489L418.773 168.738L420.444 164.148C422.011 164.245 423.566 163.825 424.871 162.952C426.176 162.08 427.159 160.804 427.669 159.319C429.505 154.215 425.364 151.378 423.409 150.671C421.913 150.084 416.68 148.606 414.514 154.784Z" fill="#EBEBEB"/>
    <path d="M418.257 170.332L414.753 169.063L413.568 172.334L417.072 173.604L418.257 170.332Z" fill="#EBEBEB"/>
    <path d="M44.3028 194.735L51.6468 191.889C51.6468 191.889 49.26 185.693 55.6585 183.095C56.8831 182.577 58.2382 182.451 59.5372 182.736C60.8361 183.02 62.0147 183.701 62.9107 184.683C63.673 185.5 64.2316 186.485 64.541 187.559C64.8505 188.633 64.9021 189.764 64.6916 190.861C64.2326 193.413 62.213 196.369 56.8978 197.388L63.3238 214.032L70.6678 211.223L66.904 201.473C66.904 201.473 76.084 194.882 71.7786 183.591C67.6017 172.795 56.9162 174.025 52.8127 175.613C49.6456 176.834 39.1437 181.764 44.3028 194.735Z" fill="#F5F5F5"/>
    <path d="M72.0592 214.61L64.6494 217.465L67.316 224.387L74.7258 221.532L72.0592 214.61Z" fill="#F5F5F5"/>
    <path d="M417.387 222.743L412.154 224.754C412.154 224.754 413.844 229.151 409.309 230.987C408.44 231.35 407.481 231.437 406.562 231.237C405.642 231.036 404.807 230.558 404.168 229.867C403.628 229.288 403.232 228.589 403.014 227.828C402.795 227.067 402.76 226.266 402.91 225.488C403.241 223.652 404.673 221.596 408.418 220.898L403.92 209.065L398.742 211.057L401.405 217.97C399.52 219.411 398.162 221.432 397.538 223.721C396.915 226.01 397.06 228.44 397.953 230.638C400.9 238.285 408.446 237.422 411.383 236.293C413.605 235.421 421.041 231.933 417.387 222.743Z" fill="#F5F5F5"/>
    <path d="M397.718 208.659L402.969 206.636L401.081 201.736L395.83 203.759L397.718 208.659Z" fill="#F5F5F5"/>
    <path d="M432.167 425.741C432.167 425.879 341.422 425.98 229.509 425.98C117.596 425.98 26.833 425.879 26.833 425.741C26.833 425.603 117.559 425.502 229.509 425.502C341.459 425.502 432.167 425.612 432.167 425.741Z" fill="#263238"/>
    <path d="M94.1317 425.952C95.0734 426.097 96.033 426.079 96.9683 425.897C98.1039 425.724 99.2199 425.441 100.301 425.052C101.793 424.533 103.189 423.77 104.432 422.794C105.179 422.193 105.763 421.413 106.13 420.527C106.437 419.533 106.598 418.5 106.607 417.46C106.628 416.349 106.711 415.24 106.855 414.137C107.049 412.964 107.473 411.841 108.104 410.832C109.315 408.703 111.335 406.683 111.978 403.791C112.62 400.9 112.18 397.87 111.702 394.786C111.225 391.701 110.784 388.36 111.941 385.128C113.098 381.897 115.301 379.005 116.43 375.389C117.559 371.772 117.027 367.787 117.265 363.904C117.336 361.932 117.791 359.992 118.606 358.194C119.432 356.358 120.588 354.66 121.488 352.751C123.324 348.877 123.636 344.489 124.132 340.183C124.38 338.017 124.618 335.823 124.866 333.62C125.023 331.392 125.407 329.186 126.014 327.037C126.71 324.871 127.532 322.747 128.474 320.676C128.959 319.605 129.358 318.496 129.667 317.362C129.84 316.187 129.951 315.004 129.998 313.818C130.107 311.443 130.015 309.063 129.723 306.704C129.447 304.335 129.016 301.985 128.759 299.608C128.759 299.461 128.759 299.323 128.759 299.195L128.704 298.726L128.29 298.928C126.12 300.042 124.235 301.641 122.782 303.601C121.358 305.52 120.211 307.631 119.377 309.871C117.66 314.286 117.045 318.913 116.182 323.329C115.319 327.744 114.218 332.086 111.959 335.758C110.83 337.594 109.462 339.265 108.287 341.046C107.011 342.784 106.139 344.785 105.735 346.903C105.12 351.254 107.516 355.073 107.02 358.929C106.797 360.817 106.171 362.636 105.184 364.262C104.266 365.906 103.156 367.429 102.109 368.953C101.048 370.448 100.127 372.037 99.3551 373.699C98.629 375.327 98.2 377.071 98.0883 378.849C97.8404 382.319 98.327 385.606 98.0883 388.709C97.8017 391.666 96.9377 394.539 95.5454 397.163C94.3061 399.688 92.92 401.974 91.7633 404.195C91.1849 405.297 90.6433 406.38 90.2027 407.473C89.7857 408.521 89.4781 409.61 89.2847 410.722C88.9774 412.664 88.9527 414.64 89.2112 416.588C89.4809 419.306 90.4977 421.895 92.1488 424.07C92.4013 424.399 92.6807 424.706 92.9842 424.988C93.187 425.201 93.4116 425.392 93.6544 425.557C94.0399 425.842 94.2419 425.97 94.2419 425.97C93.508 425.39 92.84 424.732 92.2498 424.006C90.6737 421.823 89.7217 419.253 89.4958 416.57C89.2621 414.646 89.3053 412.698 89.6243 410.787C89.8176 409.701 90.1253 408.64 90.5423 407.619C91.0075 406.515 91.5315 405.436 92.1121 404.388C93.278 402.185 94.6733 399.908 95.9402 397.365C97.3741 394.699 98.2663 391.776 98.5657 388.764C98.8411 385.597 98.3637 382.292 98.6207 378.914C98.739 377.192 99.1584 375.505 99.86 373.929C100.636 372.301 101.558 370.746 102.614 369.284C103.661 367.76 104.771 366.236 105.726 364.556C106.774 362.868 107.444 360.974 107.691 359.002C108.186 354.899 105.809 351.062 106.424 347.013C106.826 344.988 107.669 343.076 108.893 341.413C110.059 339.66 111.436 337.989 112.565 336.107C114.906 332.334 116.035 327.91 116.889 323.476C117.743 319.042 118.376 314.452 120.065 310.119C120.878 307.941 121.993 305.889 123.379 304.023C124.777 302.142 126.589 300.609 128.676 299.543L128.208 299.277C128.208 299.415 128.208 299.553 128.254 299.699C128.511 302.105 128.942 304.455 129.172 306.805C129.462 309.127 129.551 311.471 129.438 313.809C129.392 314.958 129.287 316.104 129.126 317.242C128.829 318.34 128.442 319.412 127.969 320.446C127.022 322.54 126.194 324.685 125.491 326.872C124.879 329.055 124.491 331.294 124.334 333.555C124.095 335.768 123.847 337.962 123.609 340.128C123.113 344.452 122.792 348.766 121.038 352.503C120.12 354.339 119.019 356.092 118.165 357.965C117.325 359.83 116.857 361.841 116.788 363.886C116.558 367.852 117.073 371.735 115.998 375.242C114.924 378.748 112.694 381.668 111.565 384.982C110.435 388.296 110.848 391.802 111.344 394.878C111.84 397.953 112.336 400.982 111.675 403.709C111.014 406.435 109.123 408.473 107.893 410.658C107.244 411.71 106.81 412.88 106.617 414.101C106.478 415.215 106.404 416.337 106.396 417.46C106.398 418.474 106.249 419.483 105.956 420.453C105.616 421.294 105.069 422.036 104.367 422.61C103.158 423.585 101.797 424.355 100.337 424.887C99.2709 425.298 98.1672 425.606 97.0418 425.805C96.3539 425.93 95.6569 425.997 94.9579 426.007C94.3796 425.952 94.1317 425.952 94.1317 425.952Z" fill="#263238"/>
    <path d="M126.611 304.868C126.562 304.966 126.528 305.072 126.51 305.18L126.29 306.098C126.088 306.915 125.84 308.136 125.454 309.66C125.069 311.184 124.123 312.91 123.325 315.03C122.389 317.417 121.574 319.85 120.883 322.319C120.093 325.073 119.405 328.102 118.67 331.371C118.046 334.852 116.94 338.229 115.384 341.404C114.539 343.075 113.548 344.764 112.841 346.619C112.1 348.512 111.603 350.493 111.363 352.512C110.841 356.694 110.099 360.846 109.141 364.951C107.085 373.369 105.121 381.392 103.33 388.7C101.54 396.007 99.8513 402.543 98.4559 408.069C97.0605 413.596 96.0048 418.002 95.2337 421.151C94.8757 422.656 94.5911 423.841 94.3892 424.713C94.3065 425.089 94.2331 425.392 94.178 425.631C94.1679 425.738 94.1679 425.845 94.178 425.952C94.2314 425.857 94.2715 425.755 94.2974 425.649C94.3616 425.401 94.4534 425.108 94.5636 424.731C94.7931 423.877 95.1144 422.693 95.5275 421.197C96.3537 418.076 97.5196 413.642 98.9608 408.18C100.402 402.718 102.082 396.108 103.964 388.847C105.846 381.585 107.755 373.507 109.83 365.08C110.782 360.964 111.505 356.799 111.996 352.604C112.231 350.633 112.712 348.699 113.428 346.848C114.154 345.012 115.081 343.369 115.925 341.68C117.761 338.329 118.487 334.73 119.212 331.49C119.937 328.249 120.58 325.183 121.332 322.448C122.085 319.712 122.875 317.27 123.664 315.159C124.454 313.047 125.326 311.303 125.702 309.724C126.079 308.145 126.253 306.97 126.418 306.126C126.479 305.746 126.534 305.44 126.583 305.208C126.611 304.978 126.629 304.868 126.611 304.868Z" fill="#263238"/>
    <path d="M95.9495 425.998C102.66 422.005 104.588 409.887 101.788 402.598C98.9881 395.309 94.086 388.645 93.3332 380.869C92.7457 374.893 94.7102 368.761 93.3332 362.922C91.4513 355.037 83.7585 348.932 83.8503 340.826C83.8962 336.282 86.485 332.004 86.2738 327.46C86.026 321.897 81.7481 317.472 79.1042 312.57C75.0467 305.051 74.7805 296.174 73.3943 287.784C72.0081 279.393 68.8043 270.342 61.3318 266.202C60.2302 273.353 58.3483 278.255 58.9358 287.94C59.1561 291.419 63.1953 298.038 63.7461 305.703C64.0766 310.293 64.2969 314.828 64.5815 319.381C64.8661 323.935 65.1415 328.341 66.7296 332.49C67.9505 335.676 69.9059 338.568 70.8147 341.854C72.513 348.032 70.2731 354.706 71.6501 360.985C72.8159 366.291 76.4879 370.854 77.2407 376.233C78.2872 383.788 73.4035 391.646 75.9004 398.853C77.1489 402.433 80.0865 405.279 80.9219 408.997C81.5737 411.861 80.8668 414.899 81.4543 417.773C82.3723 422.418 91.2402 426.035 95.9679 425.732" fill="#10B981"/>
    <path d="M63.1676 273.261C63.1551 273.395 63.1551 273.531 63.1676 273.665C63.1676 273.968 63.2594 274.353 63.3145 274.84C63.4705 275.877 63.645 277.392 63.9938 279.356C64.3426 281.321 65.3892 283.543 66.197 286.223C67.0048 288.904 67.9045 291.97 68.6572 295.403C69.41 298.836 70.071 302.665 70.7411 306.768C71.4112 310.871 72.1456 315.342 74.1836 319.62C75.1016 321.759 76.1848 323.907 76.9376 326.202C77.7089 328.551 78.1838 330.987 78.3513 333.454C78.7266 338.688 79.3855 343.898 80.325 349.06C82.3813 359.654 84.3367 369.743 86.1176 378.932C87.8985 388.121 89.6886 396.319 91.1207 403.259C92.5528 410.199 93.7278 415.744 94.5448 419.654L95.4628 424.107C95.573 424.584 95.6556 424.96 95.7291 425.254C95.7539 425.389 95.7908 425.521 95.8392 425.649C95.8555 425.515 95.8555 425.379 95.8392 425.245C95.7841 424.942 95.7199 424.566 95.6373 424.079C95.4353 423.014 95.1507 421.509 94.7927 419.599C94.0216 415.679 92.9567 410.08 91.5705 403.167C90.1843 396.255 88.5411 387.965 86.7143 378.813C84.8875 369.66 83.0423 359.535 80.9768 348.95C80.0367 343.787 79.3748 338.578 78.9939 333.344C78.8192 330.826 78.3288 328.34 77.5343 325.945C76.7173 323.613 75.6432 321.456 74.6977 319.326C72.6781 315.113 71.9437 310.715 71.246 306.63C70.5483 302.545 69.8782 298.708 69.0795 295.256C68.2809 291.805 67.4088 288.72 66.5091 286.076C65.6095 283.432 64.6089 281.192 64.2049 279.274C63.801 277.355 63.6082 275.813 63.4155 274.794C63.3237 274.317 63.2502 273.931 63.1951 273.628C63.1932 273.505 63.184 273.383 63.1676 273.261Z" fill="#263238"/>
    <path d="M386.909 81.4909H383.237C383.24 81.9074 383.159 82.3202 382.999 82.7047C382.839 83.0893 382.603 83.4379 382.306 83.7298C382.009 84.0217 381.657 84.251 381.269 84.4042C380.882 84.5573 380.468 84.6312 380.052 84.6213C379.437 84.6434 378.83 84.473 378.317 84.134C377.804 83.7951 377.409 83.3043 377.188 82.7302C376.994 82.2522 376.917 81.7352 376.961 81.2214C377.006 80.7077 377.172 80.2118 377.445 79.7743C378.069 78.7461 379.427 77.8189 381.888 78.2504V69.9884H378.28V74.8171C376.799 75.2529 375.503 76.1625 374.589 77.4062C373.675 78.6499 373.195 80.159 373.222 81.7021C373.222 87.0448 378.014 88.2841 380.07 88.2841C381.64 88.3209 386.983 87.9445 386.909 81.4909Z" fill="#7D99E5"/>
    <path d="M378.253 68.3176H381.916V64.8935H378.253V68.3176Z" fill="#7D99E5"/>
    <path d="M406.931 76.6071C406.943 76.4513 406.943 76.2948 406.931 76.1389C406.931 75.8085 406.931 75.3586 406.931 74.7803C406.931 74.4865 406.931 74.1469 406.885 73.7797C406.839 73.4125 406.784 73.0086 406.72 72.5863C406.655 72.164 406.591 71.6683 406.518 71.1817L406.132 69.6211C405.45 66.9336 404.334 64.3754 402.827 62.0476C400.64 58.6004 397.691 55.7006 394.207 53.5713C390.723 51.442 386.798 50.1398 382.732 49.7648C381.511 49.657 380.285 49.6324 379.06 49.6914C378.445 49.6914 377.812 49.6914 377.224 49.8107L375.333 50.0953C372.739 50.5775 370.228 51.4341 367.879 52.6381C365.427 53.9355 363.174 55.577 361.187 57.5127C359.153 59.5744 357.452 61.9407 356.147 64.5262C354.743 67.1919 353.823 70.0856 353.43 73.0728C353.315 73.8297 353.251 74.5933 353.237 75.3586C353.176 76.1251 353.16 76.8945 353.191 77.6628C353.391 82.5874 354.93 87.3642 357.643 91.4787V91.1941C356.367 94.3796 355.11 97.51 353.88 100.558L353.659 101.118L354.238 100.952L364.244 98.1985L364.005 98.1434C367.375 100.695 371.301 102.412 375.462 103.156C377.392 103.515 379.359 103.636 381.319 103.514C382.264 103.5 383.206 103.411 384.137 103.247L385.505 103.036C385.955 102.954 386.423 102.816 386.827 102.715C392.993 101.153 398.401 97.4459 402.084 92.259C403.457 90.3482 404.56 88.2568 405.361 86.0442C405.535 85.5576 405.701 85.1262 405.857 84.6488C406.013 84.1714 406.095 83.7308 406.196 83.3177C406.297 82.9046 406.408 82.4823 406.499 82.0968C406.591 81.7112 406.619 81.3348 406.674 80.9768C406.756 80.2699 406.885 79.6457 406.912 79.1408C406.94 78.6359 406.912 78.1494 406.912 77.7638C406.912 77.3782 406.912 77.1396 406.912 76.9284C406.912 76.7173 406.912 76.6438 406.912 76.6438C406.898 76.7382 406.898 76.8341 406.912 76.9284C406.912 77.1396 406.912 77.415 406.848 77.7638C406.784 78.1126 406.793 78.5992 406.756 79.1316C406.72 79.6641 406.582 80.2883 406.472 80.9676C405.596 86.0484 403.264 90.7656 399.759 94.5463C396.254 98.327 391.726 101.009 386.726 102.265C386.294 102.366 385.863 102.495 385.422 102.577L384.073 102.779C383.162 102.931 382.242 103.014 381.319 103.027C379.395 103.129 377.466 103.002 375.572 102.651C371.508 101.903 367.676 100.215 364.382 97.7211L364.271 97.6293H364.134L354.118 100.383L354.467 100.778L358.24 91.4236L358.295 91.2768L358.213 91.1391C356.405 88.4041 355.122 85.3564 354.43 82.1518C354.113 80.6651 353.923 79.1542 353.861 77.6353C353.831 76.8854 353.846 76.1342 353.907 75.3862C353.913 74.6391 353.974 73.8934 354.091 73.1554C354.443 70.2382 355.31 67.4067 356.652 64.7925C357.928 62.2656 359.584 59.9497 361.563 57.9258C363.507 56.0255 365.715 54.4148 368.118 53.143C370.414 51.9488 372.873 51.0982 375.416 50.6185L377.252 50.334C377.867 50.2422 378.482 50.2513 379.088 50.2054C380.284 50.1485 381.483 50.17 382.677 50.2697C386.676 50.6198 390.543 51.8764 393.983 53.9443C397.424 56.0121 400.348 58.8368 402.534 62.2037C404.048 64.4908 405.183 67.0081 405.893 69.6579L406.307 71.2001C406.389 71.6866 406.463 72.1181 406.536 72.5771C406.61 73.0361 406.665 73.4033 406.729 73.7705C406.793 74.1377 406.775 74.4682 406.802 74.7619C406.802 75.3311 406.876 75.7809 406.903 76.1114C406.886 76.2771 406.895 76.4444 406.931 76.6071Z" fill="#263238"/>
    <path d="M133.174 184.867H186.189C186.189 184.867 186.189 140.353 232.447 139.564C256.471 139.141 268.928 154.885 273.995 166.938C279.871 180.938 278.09 196.893 270.213 209.882C261.226 224.708 241.856 239.607 206.128 233.31L205.788 351.429H258.215V281.404C258.215 281.404 331.738 262.401 331.738 181.342C331.738 103.817 269.047 87.0723 235.348 85.9891C216.602 85.3924 209.809 84.5845 186.62 87.8801C157.07 92.1029 132.55 126.418 133.174 184.867Z" fill="#8BAAFF"/>
    <path d="M258.848 376.05H205.641V425.741H258.848V376.05Z" fill="#8BAAFF"/>
    <path opacity="0.1" d="M258.848 376.05H205.641V425.741H258.848V376.05Z" fill="black"/>
    <path opacity="0.1" d="M133.174 184.867H186.189C186.189 184.867 186.189 140.353 232.447 139.564C256.471 139.141 268.928 154.885 273.995 166.938C279.871 180.938 278.09 196.893 270.213 209.882C261.226 224.708 241.856 239.607 206.128 233.31L205.788 351.429H258.215V281.404C258.215 281.404 331.738 262.401 331.738 181.342C331.738 103.817 269.047 87.0723 235.348 85.9891C216.602 85.3924 209.809 84.5845 186.62 87.8801C157.07 92.1029 132.55 126.418 133.174 184.867Z" fill="black"/>
    <path d="M111.206 184.867H164.23C164.23 184.867 164.23 140.353 210.488 139.564C234.512 139.141 246.969 154.885 252.028 166.938C257.912 180.938 256.131 196.893 248.255 209.882C239.267 224.708 219.558 238.184 183.829 231.914V351.429H236.256V281.404C236.256 281.404 309.779 262.401 309.779 181.342C309.779 103.817 240.25 85.8147 210.497 85.8147C187.74 85.8422 110.206 91.3411 111.206 184.867Z" fill="#8BAAFF"/>
    <path opacity="0.3" d="M111.206 184.867H164.23C164.23 184.867 164.23 140.353 210.488 139.564C234.512 139.141 246.969 154.885 252.028 166.938C257.912 180.938 256.131 196.893 248.255 209.882C239.267 224.708 219.558 238.184 183.829 231.914V351.429H236.256V281.404C236.256 281.404 309.779 262.401 309.779 181.342C309.779 103.817 240.25 85.8147 210.497 85.8147C187.74 85.8422 110.206 91.3411 111.206 184.867Z" fill="black"/>
    <path d="M236.89 376.05H183.683V425.741H236.89V376.05Z" fill="#8BAAFF"/>
    <path opacity="0.3" d="M236.89 376.05H183.683V425.741H236.89V376.05Z" fill="black"/>
    <path d="M216.473 139.802C216.211 139.825 215.947 139.825 215.684 139.802C215.161 139.802 214.408 139.628 213.426 139.619C210.648 139.482 207.865 139.599 205.109 139.967C201.022 140.485 197 141.429 193.11 142.786C190.817 143.587 188.584 144.55 186.427 145.668C184.096 146.833 181.901 148.252 179.882 149.9C177.877 151.563 176.08 153.461 174.53 155.555C173.061 157.491 171.721 159.521 170.518 161.632C168.511 165.228 166.918 169.041 165.772 172.997C164.995 175.667 164.461 178.401 164.175 181.167C164.065 182.14 164.037 182.911 164.01 183.425C164.01 183.69 163.986 183.955 163.936 184.215C163.913 183.952 163.913 183.688 163.936 183.425C163.936 182.902 163.936 182.131 164.019 181.149C164.23 178.353 164.719 175.586 165.478 172.887C166.583 168.885 168.154 165.028 170.16 161.393C171.365 159.259 172.712 157.207 174.19 155.252C175.753 153.124 177.572 151.197 179.607 149.515C181.65 147.844 183.873 146.406 186.234 145.228C188.405 144.089 190.653 143.107 192.963 142.29C196.889 140.939 200.948 140.015 205.072 139.536C207.846 139.195 210.648 139.13 213.435 139.343C214.192 139.392 214.946 139.484 215.693 139.619C215.957 139.661 216.218 139.723 216.473 139.802Z" fill="#263238"/>
    <path d="M296.358 130.356C296.358 130.356 296.294 130.292 296.184 130.154C296.073 130.016 295.908 129.778 295.725 129.511L293.971 127.033C293.595 126.5 293.191 125.885 292.714 125.252L291.061 123.242L289.17 120.919C288.482 120.111 287.674 119.331 286.866 118.477C286.058 117.623 285.232 116.715 284.296 115.842C283.359 114.97 282.359 114.08 281.33 113.162C280.816 112.703 280.311 112.244 279.761 111.757L278.053 110.408C276.887 109.49 275.731 108.572 274.473 107.654C268.991 103.732 263.176 100.298 257.095 97.3907L252.257 95.2058L247.456 93.3698C245.886 92.718 244.289 92.2591 242.747 91.745C241.205 91.2309 239.699 90.7076 238.157 90.3496L233.769 89.2021C232.346 88.8257 230.932 88.5962 229.583 88.2841C228.233 87.972 226.93 87.6966 225.654 87.5405L221.982 87.0081C219.659 86.6133 217.529 86.5307 215.675 86.3471C214.757 86.2737 213.839 86.1727 213.077 86.136L210.892 86.0809L207.863 85.9799H207.073H206.807C206.895 85.9662 206.985 85.9662 207.073 85.9799H207.863H210.892H213.086C213.885 85.9799 214.757 86.0901 215.693 86.1543C217.529 86.3104 219.696 86.3747 222.018 86.751L225.69 87.2468C226.966 87.3937 228.27 87.7241 229.629 87.972C230.987 88.2199 232.383 88.4769 233.842 88.89L238.249 90.0283C239.773 90.3771 241.278 90.9463 242.839 91.4145C244.399 91.8827 245.987 92.3325 247.557 93.0302L252.386 94.8662L257.251 97.0602C263.364 99.9738 269.202 103.433 274.693 107.397C275.96 108.315 277.117 109.297 278.283 110.206L279.99 111.445C280.541 111.904 281.046 112.363 281.56 112.859L284.516 115.613C285.434 116.531 286.26 117.449 287.077 118.284C287.894 119.12 288.674 119.937 289.363 120.754L291.199 123.095L292.833 125.133C293.301 125.775 293.696 126.399 294.063 126.969C294.779 128.043 295.339 128.887 295.734 129.493L296.165 130.163C296.238 130.219 296.302 130.284 296.358 130.356Z" fill="#263238"/>
    <path d="M290.832 244.188C290.722 244.387 290.59 244.572 290.437 244.739L289.17 246.235C288.647 246.905 287.986 247.704 287.169 248.594C286.352 249.485 285.48 250.531 284.415 251.615C283.35 252.698 282.212 253.91 280.917 255.131C279.623 256.352 278.218 257.637 276.722 258.977C270.159 264.705 262.964 269.667 255.277 273.766C253.496 274.684 251.817 275.602 250.192 276.309C248.567 277.016 247.052 277.741 245.657 278.328C244.261 278.916 242.976 279.402 241.856 279.834C240.736 280.265 239.754 280.614 238.946 280.871L237.11 281.468C236.897 281.553 236.675 281.614 236.449 281.652C236.647 281.538 236.856 281.446 237.073 281.376L238.909 280.697C239.708 280.412 240.672 280.045 241.783 279.586C242.894 279.127 244.179 278.668 245.556 278.016C246.933 277.365 248.457 276.749 250.045 275.951C251.633 275.152 253.331 274.308 255.103 273.38C258.601 271.453 262.374 269.194 266.183 266.587C269.993 263.98 273.417 261.235 276.465 258.646C277.961 257.325 279.393 256.085 280.669 254.837C281.945 253.588 283.139 252.459 284.194 251.376C285.25 250.293 286.177 249.292 287.003 248.411C287.83 247.53 288.509 246.758 289.06 246.116L290.345 244.656C290.494 244.487 290.657 244.331 290.832 244.188Z" fill="#263238"/>
    <path d="M235.329 347.261C235.191 347.261 235.081 332.518 235.081 314.332C235.081 296.147 235.191 281.395 235.329 281.395C235.467 281.395 235.568 296.138 235.568 314.332C235.568 332.527 235.457 347.261 235.329 347.261Z" fill="#263238"/>
    <path d="M237.349 422.372C237.211 422.372 237.11 412.026 237.11 399.266C237.11 386.505 237.211 376.15 237.349 376.15C237.486 376.15 237.587 386.496 237.587 399.266C237.587 412.035 237.477 422.372 237.349 422.372Z" fill="#263238"/>
    <path d="M289.537 177.826C288.619 179.662 292.043 181.167 294.017 181.764C296.031 182.258 298.114 182.401 300.177 182.186C302.931 182.04 305.749 181.782 308.127 180.424C310.209 179.134 311.873 177.269 312.918 175.054C313.949 172.845 314.764 170.543 315.351 168.178C315.351 168.178 293.659 169.591 289.537 177.826Z" fill="#FF725E"/>
    <g opacity="0.4">
        <path d="M289.537 177.826C288.619 179.662 292.043 181.167 294.017 181.764C296.031 182.258 298.114 182.401 300.177 182.186C302.931 182.04 305.749 181.782 308.127 180.424C310.209 179.134 311.873 177.269 312.918 175.054C313.949 172.845 314.764 170.543 315.351 168.178C315.351 168.178 293.659 169.591 289.537 177.826Z" fill="black"/>
    </g>
    <path d="M350.804 171.951C354.381 174.487 358.666 175.83 363.05 175.788C365.152 175.905 367.224 175.252 368.88 173.952C369.587 173.3 370.119 172.474 370.844 171.85C371.34 171.427 371.918 171.106 372.387 170.656C372.634 170.443 372.824 170.173 372.941 169.868C373.058 169.564 373.098 169.235 373.057 168.912C372.875 168.115 372.429 167.403 371.79 166.892C369.302 165.479 366.328 165.534 363.464 165.598C360.597 165.722 357.766 166.276 355.064 167.241C352.842 167.994 350.52 169.077 349.391 171.097" fill="#FF725E"/>
    <g opacity="0.4">
        <path d="M373.057 168.912C372.732 168.138 372.161 167.492 371.432 167.076C368.944 165.662 366.328 165.534 363.464 165.598C360.597 165.722 357.766 166.276 355.064 167.241C352.842 167.994 350.52 169.077 349.391 171.097L350.804 171.951C354.381 174.487 358.666 175.83 363.05 175.788C365.152 175.905 367.224 175.252 368.88 173.952C369.587 173.3 370.119 172.474 370.844 171.85C371.34 171.427 371.918 171.106 372.387 170.656C372.634 170.444 372.824 170.173 372.941 169.869C373.058 169.564 373.098 169.236 373.057 168.912Z" fill="black"/>
    </g>
    <path d="M308.448 204.898L354.21 205.504C354.303 205.503 354.395 205.481 354.478 205.439C354.561 205.397 354.633 205.336 354.689 205.261C354.744 205.186 354.781 205.099 354.797 205.008C354.813 204.916 354.807 204.822 354.779 204.733L349.409 187.988C349.409 187.988 350.199 179.616 351.291 169.555C352.953 154.27 355.165 135.056 355.192 135.111C352.062 126.335 333.592 124.848 333.592 124.848L312.542 126.097L311.808 124.857L305.749 127.676C304.427 128.29 303.157 129.009 301.948 129.824C297.946 132.495 288.307 138.637 286.544 145.476C282.478 161.311 289.363 178.983 289.363 178.983L293.787 175.522C294.902 174.663 296.074 173.881 297.294 173.181L306.162 196.948C305.634 197.281 305.187 197.727 304.854 198.254C304.52 198.781 304.309 199.376 304.234 199.996C304.161 201.923 305.152 204.237 308.448 204.898Z" fill="#FF725E"/>
    <g opacity="0.3">
        <path d="M328.084 176.88C329.534 169.077 328.772 161.054 327.992 153.159C325.458 159.585 325.55 166.929 322.86 173.3C322.531 173.973 322.29 174.686 322.144 175.421C322.074 175.79 322.093 176.17 322.198 176.531C322.303 176.891 322.492 177.222 322.75 177.495C323.485 178.166 324.586 177.798 325.559 177.688C326.43 177.522 327.278 177.251 328.084 176.88Z" fill="black"/>
    </g>
    <g opacity="0.4">
        <path d="M311.202 194.947C314.874 196.223 318.785 193.845 322.668 193.423C325.238 193.147 327.808 193.735 330.361 194.148C335.521 194.983 340.771 195.112 345.967 194.534C346.764 194.49 347.544 194.287 348.262 193.937C348.632 193.684 348.936 193.344 349.145 192.948C349.355 192.551 349.464 192.109 349.464 191.66C340.817 190.742 332.178 190.246 323.531 189.356C321.378 188.989 319.174 189.06 317.05 189.567C314.442 190.375 312.46 192.422 310.624 194.451" fill="black"/>
    </g>
    <path d="M371.735 165.901C367.999 157.483 354.825 134.202 354.825 134.202L344.626 146.99L347.004 172.097C347.004 172.097 352.393 166.085 367.457 165.965C368.552 166.009 369.623 166.297 370.592 166.809C371.561 167.32 372.403 168.042 373.057 168.921L371.735 165.901Z" fill="#FF725E"/>
    <path d="M310.495 161.449C309.767 159.664 309.19 157.822 308.769 155.941C308.199 154.109 307.781 152.233 307.521 150.332C308.237 152.12 308.811 153.961 309.237 155.84C309.807 157.672 310.228 159.548 310.495 161.449Z" fill="#263238"/>
    <path d="M343.855 145.292C344.187 145.527 344.495 145.794 344.773 146.091C345.584 146.874 346.344 147.708 347.05 148.588C349.423 151.489 351.092 154.902 351.924 158.557C352.356 160.578 352.452 162.656 352.209 164.708C351.979 166.59 351.621 168.242 351.383 169.637C351.144 171.033 350.997 172.171 350.924 172.961C350.922 173.371 350.878 173.78 350.795 174.181C350.73 173.772 350.712 173.356 350.74 172.942C350.78 171.817 350.885 170.695 351.052 169.582C351.245 168.178 351.566 166.507 351.777 164.662C351.99 162.656 351.881 160.63 351.456 158.658C350.634 155.071 349.039 151.706 346.783 148.799C345.103 146.54 343.782 145.365 343.855 145.292Z" fill="#263238"/>
    <path d="M334.51 202.878C334.191 203.02 333.854 203.119 333.509 203.172C333.117 203.275 332.718 203.352 332.316 203.401C331.848 203.466 331.315 203.567 330.719 203.594C329.32 203.722 327.913 203.722 326.514 203.594C324.803 203.418 323.112 203.08 321.465 202.584C319.826 202.058 318.24 201.378 316.728 200.555C315.502 199.871 314.338 199.082 313.249 198.196C312.772 197.829 312.386 197.443 312.037 197.122C311.736 196.851 311.451 196.563 311.184 196.259C310.928 196.023 310.709 195.751 310.532 195.451C310.596 195.387 311.578 196.489 313.46 197.93C314.56 198.766 315.723 199.515 316.939 200.17C318.434 200.955 319.995 201.61 321.603 202.125C323.222 202.613 324.881 202.957 326.56 203.153C327.932 203.301 329.313 203.344 330.691 203.282C333.05 203.153 334.492 202.805 334.51 202.878Z" fill="#263238"/>
    <path d="M348.638 197.664C348.854 198.079 348.976 198.536 348.996 199.004C349.143 200.123 349.058 201.26 348.748 202.346C348.433 203.456 347.794 204.447 346.912 205.191C346.242 205.751 345.728 205.926 345.7 205.88C345.673 205.834 346.104 205.531 346.683 204.962C347.425 204.188 347.965 203.241 348.253 202.208C348.987 199.784 348.464 197.673 348.638 197.664Z" fill="#263238"/>
    <path d="M346.15 200.895C346.349 201.839 346.27 202.821 345.921 203.721C345.572 204.62 344.969 205.399 344.185 205.962C344.084 205.861 344.938 204.953 345.471 203.548C346.003 202.143 346.012 200.904 346.15 200.895Z" fill="#263238"/>
    <path d="M337.962 170.693C337.475 171.515 336.929 172.301 336.328 173.043C335.853 173.872 335.316 174.664 334.721 175.411C334.898 174.443 335.314 173.534 335.933 172.768C336.422 171.915 337.12 171.201 337.962 170.693Z" fill="#263238"/>
    <path d="M306.547 148.459C305.848 148.048 305.171 147.601 304.519 147.119C301.254 144.974 297.549 143.59 293.677 143.07C292.867 143.011 292.06 142.904 291.263 142.749C292.076 142.637 292.901 142.637 293.714 142.749C297.691 143.088 301.5 144.507 304.73 146.852C305.407 147.301 306.019 147.842 306.547 148.459Z" fill="#263238"/>
    <path d="M354.825 133.899C353.182 135.223 351.647 136.674 350.235 138.242C348.935 139.914 347.771 141.688 346.756 143.548C346.865 142.922 347.079 142.32 347.389 141.767C348.054 140.39 348.886 139.101 349.868 137.929C350.852 136.76 351.981 135.72 353.228 134.836C353.702 134.434 354.243 134.117 354.825 133.899Z" fill="#263238"/>
    <path d="M335.933 126.335C336.016 126.468 336.084 126.609 336.135 126.757C336.314 127.173 336.458 127.603 336.566 128.043C336.953 129.679 336.953 131.382 336.566 133.018C335.995 135.46 334.687 137.668 332.821 139.343C330.464 141.339 327.462 142.41 324.375 142.354C321.285 142.365 318.274 141.376 315.792 139.536C313.814 138.026 312.209 136.082 311.101 133.854C310.354 132.362 309.828 130.769 309.54 129.126C309.456 128.683 309.401 128.236 309.375 127.786C309.349 127.628 309.349 127.466 309.375 127.308C309.375 127.308 309.476 127.951 309.733 129.089C310.09 130.686 310.655 132.229 311.413 133.679C312.533 135.84 314.123 137.723 316.067 139.187C318.459 140.959 321.353 141.923 324.329 141.941C327.305 141.996 330.201 140.979 332.49 139.077C334.293 137.463 335.572 135.347 336.162 133C336.571 131.416 336.627 129.761 336.327 128.153C336.153 126.941 335.878 126.354 335.933 126.335Z" fill="#263238"/>
    <g opacity="0.3">
        <path d="M339.146 172.318C339.146 171.859 339.073 171.317 338.669 171.088C338.54 171.023 338.399 170.99 338.255 170.99C338.112 170.99 337.971 171.023 337.842 171.088C337.586 171.226 337.358 171.413 337.172 171.639C336.093 172.762 335.258 174.096 334.721 175.558L339.219 175.164C339.192 174.236 339.173 173.263 339.146 172.318Z" fill="black"/>
    </g>
    <g opacity="0.3">
        <path d="M354.082 162.853C353.629 160.279 352.502 157.872 350.813 155.876C352.76 162.229 352.108 165.818 351.015 170.17L351.254 169.564C352.512 167.021 354.421 165.424 354.082 162.853Z" fill="black"/>
    </g>
    <path d="M345.094 376.251L342.35 417.424L324.449 417.213L321.63 374.406L345.094 376.251Z" fill="#FFBE9D"/>
    <path d="M342.854 412.008V413.201C342.854 413.201 363.05 421.316 363.243 425.135L323.136 424.915L323.76 411.576C329.736 414.376 335.988 414.725 342.854 412.008Z" fill="#FF725E"/>
    <path d="M327.827 415.854C327.446 415.969 327.12 416.219 326.911 416.557C326.701 416.895 326.622 417.298 326.688 417.69C326.786 418.082 327.033 418.42 327.375 418.634C327.717 418.848 328.129 418.921 328.524 418.837C328.933 418.715 329.281 418.446 329.502 418.081C329.722 417.716 329.799 417.282 329.718 416.864C329.572 416.467 329.278 416.143 328.898 415.96C328.517 415.776 328.081 415.748 327.68 415.882" fill="white"/>
    <path d="M323.136 424.915L323.283 421.711L361.692 423.106C361.692 423.106 363.473 423.896 363.262 425.144L323.136 424.915Z" fill="#263238"/>
    <path d="M343.002 413.311C343.002 413.504 342.01 413.587 341.046 414.229C340.082 414.872 339.559 415.671 339.385 415.597C339.21 415.524 339.504 414.385 340.688 413.651C341.872 412.917 343.048 413.1 343.002 413.311Z" fill="#263238"/>
    <path d="M347.197 415.074C347.243 415.266 346.389 415.588 345.719 416.414C345.049 417.24 344.856 418.112 344.654 418.103C344.452 418.094 344.342 416.983 345.196 415.982C346.049 414.982 347.188 414.936 347.197 415.074Z" fill="#263238"/>
    <path d="M349.556 420.123C349.372 420.123 349.106 419.205 349.62 418.112C350.134 417.02 351.043 416.625 351.126 416.781C351.208 416.937 350.639 417.516 350.208 418.406C349.776 419.297 349.758 420.104 349.556 420.123Z" fill="#263238"/>
    <path d="M341.826 75.1383C342.864 72.5679 341.606 69.4559 339.375 67.7943C337.024 66.2467 334.158 65.6892 331.398 66.2429C328.675 66.8138 326.04 67.7397 323.558 68.9969C322.404 67.8332 320.95 67.0131 319.357 66.6283C317.764 66.2434 316.095 66.3088 314.537 66.8173C312.98 67.3258 311.594 68.2574 310.535 69.5079C309.475 70.7584 308.785 72.2787 308.54 73.899C307.547 73.6492 306.505 73.6743 305.526 73.9718C304.547 74.2692 303.667 74.8276 302.981 75.5872C302.295 76.3468 301.829 77.2789 301.632 78.2834C301.436 79.2879 301.516 80.3269 301.866 81.2889L314.277 85.6494L327.827 109.517C329.829 111.226 332.385 112.147 335.017 112.11C337.649 112.073 340.178 111.079 342.131 109.315C344.084 107.55 345.329 105.135 345.633 102.521C345.936 99.906 345.278 97.2701 343.782 95.1048C344.541 94.4297 345.186 93.636 345.691 92.7547C346.774 92.1144 347.719 91.2653 348.47 90.2567C349.222 89.2481 349.766 88.1001 350.07 86.8795C351.273 81.5643 347.16 75.7626 341.826 75.1383Z" fill="#263238"/>
    <path d="M333.61 124.848C332.839 120.965 332.306 118.303 332.316 118.33C332.325 118.358 339.66 115.484 339.127 105.267C338.87 100.181 336.933 92.1672 335.134 85.6677C333.518 79.8109 328.056 73.3574 322.282 75.2209L304.776 83.7583C303.022 84.3275 302.719 85.9799 303.132 87.77V88.688L309.935 116.834L312.808 129.41C313.421 131.993 314.978 134.252 317.173 135.744C319.368 137.236 322.042 137.852 324.669 137.47C326.103 137.269 327.481 136.776 328.718 136.022C329.955 135.269 331.025 134.27 331.863 133.088C332.7 131.906 333.287 130.566 333.587 129.149C333.888 127.732 333.896 126.268 333.61 124.848Z" fill="#FFBE9D"/>
    <path d="M335.07 92.4611C335.143 92.7868 335.089 93.1284 334.918 93.4154C334.748 93.7023 334.473 93.9128 334.152 94.0033C333.989 94.0486 333.82 94.0606 333.653 94.0386C333.486 94.0166 333.325 93.9611 333.18 93.8753C333.035 93.7896 332.909 93.6754 332.809 93.5396C332.71 93.4038 332.639 93.2493 332.6 93.0853C332.527 92.7608 332.581 92.4205 332.752 92.135C332.923 91.8495 333.197 91.6408 333.518 91.5523C333.68 91.5055 333.849 91.4921 334.016 91.5129C334.183 91.5338 334.344 91.5884 334.489 91.6734C334.634 91.7584 334.761 91.8721 334.86 92.0075C334.96 92.143 335.031 92.2973 335.07 92.4611Z" fill="#263238"/>
    <path d="M334.271 90.5056C334.143 90.7075 333.032 90.2026 331.673 90.5056C330.315 90.8085 329.452 91.6898 329.268 91.5521C329.085 91.4144 329.268 91.1574 329.645 90.7535C330.15 90.2198 330.807 89.8544 331.526 89.7069C332.237 89.5538 332.977 89.6343 333.638 89.9364C334.152 90.1476 334.326 90.423 334.271 90.5056Z" fill="#263238"/>
    <path d="M321.74 95.472C321.814 95.7965 321.759 96.1368 321.588 96.4223C321.417 96.7078 321.143 96.9165 320.822 97.005C320.664 97.0512 320.498 97.0654 320.334 97.0469C320.17 97.0284 320.011 96.9776 319.866 96.8974C319.722 96.8171 319.595 96.709 319.493 96.5794C319.391 96.4497 319.315 96.3011 319.271 96.1421C319.197 95.8164 319.251 95.4748 319.422 95.1878C319.593 94.9009 319.867 94.6904 320.189 94.5999C320.348 94.5539 320.515 94.54 320.679 94.5591C320.844 94.5782 321.003 94.6298 321.147 94.7109C321.292 94.7921 321.418 94.9012 321.52 95.0318C321.622 95.1625 321.697 95.3121 321.74 95.472Z" fill="#263238"/>
    <path d="M321.071 93.7462C320.951 93.9482 319.831 93.4341 318.473 93.7462C317.114 94.0583 316.251 94.9213 316.067 94.7927C315.884 94.6642 316.067 94.398 316.444 93.9849C316.951 93.456 317.608 93.0942 318.326 92.9476C319.035 92.7967 319.774 92.8739 320.437 93.1679C320.924 93.3882 321.135 93.6361 321.071 93.7462Z" fill="#263238"/>
    <path d="M327.983 102.375C328.656 102.004 329.371 101.714 330.113 101.513C330.452 101.402 330.773 101.265 330.783 101.017C330.735 100.652 330.578 100.309 330.333 100.035L328.745 97.5926C326.523 94.1134 324.834 91.2309 324.972 91.1666C325.109 91.1024 327.028 93.8288 329.25 97.3081L330.801 99.7683C331.106 100.145 331.271 100.615 331.269 101.099C331.242 101.231 331.186 101.356 331.105 101.464C331.024 101.572 330.92 101.66 330.801 101.724C330.621 101.819 330.43 101.89 330.232 101.935C329.506 102.183 328.749 102.332 327.983 102.375Z" fill="#263238"/>
    <path d="M332.316 118.33C327.673 119.38 322.829 119.119 318.326 117.577C318.326 117.577 323.136 123.857 332.839 120.855L332.316 118.33Z" fill="#EB996E"/>
    <path d="M321.3 91.8001C321.208 92.1949 319.804 92.1857 318.206 92.5804C316.609 92.9752 315.342 93.5719 315.085 93.2598C314.975 93.1129 315.159 92.7273 315.645 92.3418C316.292 91.7972 317.06 91.4162 317.885 91.231C318.703 91.0369 319.555 91.0369 320.373 91.231C321.025 91.3503 321.364 91.6165 321.3 91.8001Z" fill="#263238"/>
    <path d="M333.748 86.1727C333.528 86.5399 332.353 86.4481 330.994 86.7143C329.635 86.9805 328.561 87.4395 328.24 87.1733C328.093 87.0356 328.24 86.6867 328.635 86.2553C329.241 85.7455 329.973 85.4093 330.755 85.2822C331.524 85.1273 332.321 85.1844 333.059 85.4474C333.619 85.7045 333.84 85.9891 333.748 86.1727Z" fill="#263238"/>
    <path d="M309.099 77.1854C309.303 78.1799 309.722 79.1174 310.329 79.9314C310.935 80.7454 311.713 81.4159 312.608 81.8952C313.502 82.3745 314.492 82.6509 315.505 82.7048C316.519 82.7587 317.532 82.5887 318.472 82.2069C319.923 81.6194 321.428 80.5178 322.897 81.0502C324.366 81.5827 324.972 83.6757 326.376 84.456C328.442 85.6127 330.966 83.6114 333.27 83.8134C335.106 83.9695 336.493 85.374 337.915 86.5674C339.338 87.7608 341.303 88.6604 342.909 87.7975C342.542 86.2645 341.996 84.7795 341.284 83.3728C340.567 81.9565 339.379 80.8337 337.925 80.1965C337.117 79.8752 336.245 79.765 335.474 79.3703C333.812 78.5257 333.068 76.6163 331.866 75.175C331.076 74.2668 330.081 73.5599 328.964 73.1129C327.846 72.6658 326.638 72.4916 325.44 72.6046C323.457 72.8066 321.575 73.8072 319.574 73.7246C318.096 73.6603 316.682 72.9994 315.204 73.0269C312.331 73.0269 310.173 75.5973 308.576 77.9933" fill="#263238"/>
    <path d="M318.775 79.2877C317.453 79.1867 314.754 78.9113 313.864 77.975C312.959 76.9631 311.805 76.2067 310.516 75.7814C309.227 75.3561 307.849 75.2768 306.52 75.5514C305.201 75.9446 304.043 76.7509 303.217 77.8515C302.39 78.9522 301.939 80.289 301.93 81.6653C300.324 82.0573 298.853 82.8758 297.674 84.0343C296.494 85.1928 295.649 86.6484 295.228 88.2474C294.801 89.9212 294.787 91.6738 295.187 93.3544C295.586 95.035 296.388 96.5934 297.523 97.8955C298.075 98.5851 298.578 99.3121 299.029 100.071C298.406 100.843 297.859 101.673 297.395 102.55C295.293 107.195 300.993 108.976 300.993 108.976C300.993 112.097 303.885 112.079 305.73 112.069C307.576 112.06 308.595 116.99 310.036 116.797L308.576 101.586C308.79 101.669 309.017 101.713 309.246 101.714C312.726 101.779 311.817 95.1875 310.697 93.4524C311.733 92.162 312.609 90.7501 313.304 89.248C313.934 86.9517 313.978 84.5339 313.432 82.2161C314.598 82.0692 319.344 79.3244 318.775 79.2877Z" fill="#263238"/>
    <path d="M309.035 102.394C308.917 101.91 308.678 101.465 308.341 101.099C308.003 100.733 307.579 100.458 307.107 100.301C306.635 100.143 306.131 100.108 305.641 100.197C305.152 100.287 304.693 100.5 304.308 100.815C303.39 101.604 302.903 102.926 303.454 105.139C304.941 111.051 310.568 108.342 310.532 108.177C310.495 108.012 309.678 104.836 309.035 102.394Z" fill="#FFBE9D"/>
    <path d="M308.163 106.387C308.163 106.387 308.081 106.488 307.925 106.607C307.708 106.774 307.435 106.849 307.163 106.818C306.484 106.745 305.703 105.9 305.409 104.826C305.269 104.325 305.241 103.798 305.327 103.284C305.336 103.085 305.394 102.89 305.494 102.717C305.595 102.545 305.736 102.399 305.905 102.293C306.017 102.233 306.146 102.213 306.27 102.239C306.394 102.264 306.505 102.332 306.585 102.43C306.704 102.568 306.695 102.697 306.731 102.706C306.768 102.715 306.832 102.568 306.731 102.339C306.661 102.202 306.548 102.093 306.41 102.026C306.216 101.948 305.999 101.948 305.804 102.026C305.574 102.136 305.375 102.302 305.225 102.509C305.076 102.716 304.982 102.957 304.95 103.211C304.831 103.789 304.853 104.387 305.015 104.955C305.117 105.488 305.375 105.979 305.755 106.366C306.136 106.753 306.622 107.019 307.154 107.131C307.326 107.138 307.499 107.106 307.658 107.037C307.816 106.969 307.958 106.866 308.072 106.736C308.191 106.534 308.191 106.396 308.163 106.387Z" fill="#EB996E"/>
    <path d="M340.734 94.1409C340.734 94.1409 341.275 93.7278 342.028 92.8098C343.067 91.4871 343.704 89.894 343.864 88.2198C343.986 87.0769 343.873 85.9213 343.534 84.8232C343.142 83.5637 342.415 82.4342 341.431 81.5552C340.296 80.5634 338.921 79.8858 337.443 79.5895C335.964 79.2932 334.434 79.3885 333.004 79.866C332.729 79.9578 332.472 80.0955 332.215 80.2057C331.958 80.3159 331.728 80.4811 331.49 80.6188L331.122 80.8208V80.4168C331.114 79.7057 330.85 79.0213 330.379 78.489C329.896 77.9725 329.303 77.571 328.644 77.314C327.397 76.7944 326.016 76.6914 324.706 77.0202C322.172 77.5986 320.024 78.7553 317.995 78.9939C316.404 79.2704 314.767 78.9431 313.405 78.0759C313.045 77.8286 312.734 77.5175 312.487 77.1579C312.34 76.9101 312.267 76.7724 312.285 76.7632C312.618 77.2165 313.024 77.6106 313.488 77.9291C314.828 78.7027 316.402 78.9668 317.922 78.6726C318.979 78.4737 320.012 78.1661 321.006 77.7546C322.173 77.2883 323.369 76.8988 324.586 76.5888C325.265 76.4246 325.963 76.3535 326.661 76.3776C327.397 76.4165 328.121 76.5843 328.8 76.8734C329.502 77.1733 330.129 77.6247 330.636 78.1953C331.179 78.8167 331.484 79.6101 331.499 80.4352L331.132 80.2332L331.893 79.7926C332.178 79.6824 332.444 79.5356 332.738 79.4346C334.245 78.9184 335.862 78.8104 337.425 79.1216C338.987 79.4328 340.439 80.1521 341.633 81.2063C342.666 82.141 343.422 83.3414 343.818 84.6764C344.23 86.0913 344.286 87.5861 343.98 89.0277C343.674 90.4693 343.016 91.8127 342.065 92.9384C341.763 93.2834 341.421 93.5915 341.046 93.8564C340.954 93.9635 340.849 94.0591 340.734 94.1409Z" fill="#455A64"/>
    <path d="M339.541 73.385C338.938 73.079 338.295 72.8596 337.631 72.7332C336.872 72.6294 336.1 72.7017 335.373 72.9443C334.432 73.2322 333.614 73.8268 333.05 74.6334L332.821 74.9547L332.683 74.5875C332.204 73.4591 331.432 72.4788 330.448 71.7479C329.464 71.0169 328.302 70.5616 327.083 70.429C325.169 70.357 323.283 70.9043 321.704 71.9896C320.359 72.8663 318.929 73.6045 317.435 74.1928C316.406 74.5823 315.296 74.7147 314.204 74.5784C313.913 74.5246 313.627 74.4447 313.35 74.3397C313.167 74.2571 313.066 74.2112 313.075 74.1928C313.084 74.1744 313.488 74.3121 314.231 74.3856C315.287 74.4516 316.345 74.279 317.325 73.8807C318.777 73.2477 320.168 72.4858 321.484 71.604C322.296 71.0996 323.157 70.6782 324.054 70.3464C325.04 69.9869 326.094 69.852 327.139 69.9516C328.441 70.0938 329.68 70.5863 330.724 71.3768C331.768 72.1673 332.579 73.2262 333.069 74.4407H332.711C333.342 73.578 334.244 72.9511 335.272 72.6597C336.054 72.4332 336.877 72.3923 337.677 72.5404C338.184 72.6366 338.669 72.8232 339.109 73.0912C339.266 73.1681 339.412 73.267 339.541 73.385Z" fill="#455A64"/>
    <path d="M327.451 105.093C327.236 104.913 326.986 104.781 326.717 104.705C326.448 104.63 326.166 104.611 325.89 104.652C325.567 104.721 325.262 104.857 324.994 105.052C324.727 105.246 324.504 105.495 324.339 105.781C324.339 105.781 324.293 105.827 324.284 105.855C324.157 106.064 324.099 106.308 324.118 106.552C324.158 106.818 324.263 107.07 324.423 107.286C324.583 107.502 324.794 107.676 325.036 107.792C325.424 107.988 325.864 108.06 326.294 107.998C326.725 107.935 327.125 107.742 327.441 107.443C327.742 107.126 327.91 106.706 327.911 106.269C327.913 105.833 327.748 105.412 327.451 105.093Z" fill="#FF725E"/>
    <path d="M327.91 107.948C327.836 107.948 327.754 107.672 327.506 107.296C327.207 106.791 326.761 106.39 326.228 106.147C325.694 105.905 325.099 105.831 324.522 105.937C324.072 106.001 323.797 106.13 323.769 106.066C323.742 106.001 323.953 105.781 324.449 105.607C325.098 105.398 325.801 105.437 326.422 105.717C327.05 105.996 327.546 106.505 327.809 107.14C328.001 107.617 327.974 107.938 327.91 107.948Z" fill="#263238"/>
    <path d="M309.173 109.086C309.173 109.086 309.439 109.545 309.09 110.243C308.893 110.66 308.546 110.988 308.117 111.161C307.85 111.256 307.564 111.289 307.282 111.255C307 111.222 306.73 111.123 306.492 110.968C306.251 110.821 306.046 110.62 305.895 110.381C305.744 110.143 305.65 109.872 305.62 109.591C305.593 109.137 305.726 108.689 305.997 108.324C306.474 107.718 307.006 107.7 307.006 107.755C307.006 107.81 306.603 107.966 306.281 108.517C306.095 108.825 306.018 109.187 306.061 109.545C306.095 109.754 306.175 109.954 306.293 110.13C306.412 110.306 306.568 110.454 306.749 110.564C306.929 110.679 307.13 110.754 307.34 110.786C307.551 110.817 307.765 110.804 307.97 110.748C308.309 110.626 308.602 110.401 308.806 110.105C309.164 109.536 309.1 109.086 309.173 109.086Z" fill="#FF725E"/>
    <path d="M306.079 108.728C306.125 108.728 306.079 109.04 305.648 109.242C305.436 109.33 305.203 109.356 304.977 109.316C304.751 109.276 304.541 109.172 304.372 109.017C304.203 108.861 304.082 108.661 304.024 108.439C303.965 108.217 303.971 107.983 304.041 107.764C304.131 107.516 304.303 107.305 304.528 107.167C304.904 106.938 305.189 107.03 305.18 107.085C305.171 107.14 304.959 107.204 304.73 107.434C304.617 107.575 304.548 107.746 304.532 107.926C304.516 108.106 304.554 108.287 304.64 108.445C304.726 108.604 304.857 108.734 305.017 108.819C305.177 108.903 305.358 108.939 305.538 108.921C305.85 108.856 306.015 108.691 306.079 108.728Z" fill="#FF725E"/>
    <path d="M316.168 190.256C316.168 190.256 338.898 191.578 352.337 191.697C362.738 191.798 367.383 189.035 369.458 182.342C371.202 176.733 367.457 165.965 367.457 165.965C360.416 165.965 356.074 166.975 351.548 169.096L352.751 174.016L316.104 177.174L316.168 190.256Z" fill="#FFBE9D"/>
    <path d="M360.388 179.267C359.403 177.986 358.251 176.84 356.964 175.861C355.584 175.017 354.095 174.362 352.54 173.915C353.029 173.845 353.529 173.889 353.999 174.044C355.154 174.317 356.249 174.799 357.231 175.467C358.213 176.136 359.063 176.983 359.737 177.964C360.251 178.716 360.444 179.24 360.388 179.267Z" fill="#EB996E"/>
    <path d="M307.851 169.059C307.851 169.059 300.819 170.748 295.651 174.2L301.159 189.126C302.995 194.028 308.604 196.47 313.093 193.9C320.005 189.943 322.447 178.413 322.447 178.413L330.039 145.475L317.453 137.59L307.897 169.059" fill="#FFBE9D"/>
    <path d="M317.407 137.59L317.921 126.757L315.103 115.741C314.947 115.136 314.874 114.374 315.369 114.006C315.615 113.818 315.919 113.72 316.228 113.73C316.538 113.74 316.835 113.857 317.068 114.062C317.83 114.851 321.502 124.481 321.502 124.481C321.502 124.481 327.074 121.139 328.065 120.974C329.057 120.809 330.296 123.811 330.379 124.04C330.415 124.713 330.415 125.387 330.379 126.06C330.379 126.06 333.821 126.161 334.133 126.629C334.384 127.585 334.516 128.569 334.528 129.557C334.528 129.557 335.988 130.026 336.217 131.127C336.447 132.229 336.924 134.046 336.217 134.45C335.51 134.854 334.078 135.644 334.078 135.644C334.078 135.644 333.5 141.262 333.344 141.776C333.188 142.29 329.966 145.448 329.966 145.448L317.407 137.59Z" fill="#FFBE9D"/>
    <path d="M305.694 194.12C305.694 194.12 306.034 194.322 306.75 194.552C307.797 194.88 308.904 194.968 309.99 194.809C311.734 194.56 313.368 193.807 314.69 192.642C316.438 191.057 317.914 189.197 319.06 187.134C319.735 185.922 320.303 184.654 320.758 183.343C321.236 181.901 321.631 180.433 321.942 178.946C322.658 175.852 323.439 172.52 324.265 168.976C325.917 161.899 327.772 153.985 329.773 145.457V145.393H329.819C330.452 144.769 331.086 144.135 331.719 143.474C332.031 143.144 332.343 142.813 332.637 142.474C332.784 142.299 332.94 142.125 333.059 141.95C333.152 141.778 333.206 141.586 333.215 141.39C333.463 139.554 333.656 137.654 333.858 135.736V135.616L333.968 135.561L335.722 134.579C335.85 134.496 336.052 134.404 336.135 134.331C336.222 134.252 336.281 134.145 336.3 134.028C336.343 133.724 336.343 133.415 336.3 133.11C336.211 132.437 336.073 131.771 335.887 131.118C335.575 130.547 335.05 130.122 334.427 129.934L334.271 129.879V129.723C334.271 129.19 334.216 128.639 334.152 128.098C334.127 127.827 334.087 127.557 334.033 127.29C334.011 127.172 333.974 127.058 333.922 126.95C333.922 126.886 333.922 126.95 333.867 126.895C333.817 126.869 333.765 126.848 333.711 126.831C332.607 126.59 331.481 126.464 330.351 126.455H330.113V126.216C330.113 125.647 330.113 125.013 330.113 124.38C330.075 124.164 330 123.956 329.892 123.765C329.801 123.545 329.69 123.333 329.58 123.113C329.365 122.688 329.113 122.282 328.827 121.901C328.698 121.724 328.539 121.569 328.359 121.442C328.293 121.386 328.211 121.351 328.124 121.341C328.038 121.331 327.95 121.347 327.873 121.387C327.429 121.557 326.996 121.757 326.578 121.984C324.871 122.902 323.2 123.82 321.566 124.811L321.327 124.958L321.226 124.701C320.363 122.526 319.501 120.377 318.656 118.275C318.234 117.22 317.821 116.164 317.398 115.127C317.333 114.894 317.204 114.685 317.025 114.522C316.847 114.36 316.626 114.251 316.389 114.209C316.169 114.136 315.931 114.14 315.715 114.22C315.498 114.3 315.315 114.451 315.195 114.649C315.081 114.846 315.032 115.075 315.057 115.301C315.057 115.503 315.186 115.815 315.241 116.063C315.388 116.595 315.526 117.119 315.663 117.642C315.939 118.698 316.205 119.735 316.48 120.763C317.019 122.832 317.548 124.851 318.068 126.822V126.886C317.885 130.656 317.71 134.267 317.545 137.718V137.7L309.182 164.91L306.823 172.483C306.548 173.337 306.336 174.007 306.19 174.475C306.043 174.943 305.951 175.145 305.951 175.145C305.951 175.145 305.997 174.907 306.125 174.457L306.704 172.446C307.236 170.675 307.998 168.113 308.962 164.845C310.945 158.273 313.763 148.891 317.169 137.581V137.627C317.328 134.187 317.49 130.576 317.655 126.794V126.859C317.132 124.885 316.591 122.865 316.049 120.809L315.223 117.688C315.085 117.164 314.947 116.632 314.8 116.109C314.721 115.834 314.657 115.555 314.608 115.273C314.574 114.955 314.641 114.633 314.8 114.355C314.97 114.069 315.233 113.849 315.544 113.731C315.852 113.641 316.178 113.631 316.491 113.701C316.805 113.772 317.095 113.921 317.334 114.135C317.564 114.351 317.735 114.623 317.83 114.925L319.087 118.073C319.941 120.185 320.795 122.333 321.667 124.499L321.327 124.38C322.971 123.407 324.623 122.434 326.367 121.525C326.808 121.295 327.262 121.089 327.726 120.91C327.871 120.85 328.029 120.827 328.185 120.846C328.342 120.868 328.492 120.925 328.625 121.011C328.847 121.169 329.042 121.361 329.204 121.58C329.511 121.982 329.778 122.412 330.002 122.865C330.122 123.095 330.232 123.315 330.333 123.545C330.464 123.788 330.551 124.052 330.59 124.325C330.59 124.977 330.59 125.583 330.59 126.161L330.361 125.913C331.541 125.921 332.716 126.056 333.867 126.317C333.946 126.345 334.023 126.378 334.097 126.418C334.198 126.473 334.281 126.556 334.335 126.657C334.407 126.806 334.459 126.963 334.492 127.125C334.547 127.419 334.583 127.694 334.62 127.979C334.675 128.538 334.712 129.089 334.739 129.64L334.574 129.42C334.95 129.53 335.299 129.715 335.6 129.965C335.901 130.214 336.149 130.522 336.328 130.87C336.529 131.568 336.676 132.28 336.768 133C336.832 133.367 336.832 133.743 336.768 134.111C336.728 134.333 336.611 134.535 336.438 134.68C336.287 134.781 336.131 134.873 335.969 134.955L334.225 135.864L334.345 135.69C334.133 137.608 333.941 139.49 333.684 141.354L333.629 141.712C333.607 141.857 333.547 141.993 333.454 142.107C333.319 142.307 333.169 142.498 333.004 142.676C332.692 143.025 332.38 143.364 332.086 143.695C331.453 144.356 330.82 144.989 330.177 145.613L330.241 145.503C328.222 154.022 326.349 161.935 324.669 169.013C323.834 172.547 323.035 175.88 322.3 178.964C321.986 180.462 321.582 181.94 321.089 183.389C320.616 184.712 320.033 185.993 319.345 187.217C318.172 189.306 316.661 191.185 314.874 192.78C313.512 193.952 311.836 194.699 310.054 194.928C308.945 195.077 307.816 194.964 306.759 194.598C306.49 194.499 306.229 194.379 305.978 194.24L305.694 194.12Z" fill="#EB996E"/>
    <path d="M330.388 126.087C330.388 126.152 330.076 126.188 329.589 126.207C328.972 126.218 328.357 126.292 327.753 126.427C327.171 126.57 326.635 126.857 326.193 127.262C325.862 127.575 325.716 127.841 325.642 127.813C325.569 127.786 325.642 127.455 325.945 127.033C326.373 126.498 326.967 126.123 327.634 125.968C328.277 125.81 328.944 125.778 329.599 125.876C330.094 125.94 330.388 126.023 330.388 126.087Z" fill="#EB996E"/>
    <path d="M327.726 126.188C327.606 126.142 327.597 125.858 327.726 125.555C327.854 125.252 328.038 125.041 328.157 125.087C328.277 125.132 328.295 125.417 328.157 125.72C328.02 126.023 327.818 126.234 327.726 126.188Z" fill="#EB996E"/>
    <path d="M334.684 129.521C333.793 129.796 332.863 129.924 331.93 129.897C331.637 129.887 331.345 129.948 331.08 130.074C330.815 130.2 330.584 130.388 330.406 130.622C330.168 130.999 330.25 131.311 330.177 131.329C330.103 131.348 329.883 131.026 330.112 130.475C330.239 130.165 330.469 129.909 330.764 129.75C331.104 129.564 331.479 129.451 331.866 129.42C332.803 129.276 333.759 129.311 334.684 129.521Z" fill="#EB996E"/>
    <path d="M334.078 132.826C334.207 132.826 334.28 133.505 334.243 134.34C334.207 135.176 334.069 135.837 333.941 135.837C333.812 135.837 333.729 135.148 333.766 134.313C333.803 133.477 333.941 132.816 334.078 132.826Z" fill="#EB996E"/>
    <path d="M337.888 157.547L338.705 154.738C338.743 154.61 338.813 154.493 338.909 154.4C339.005 154.307 339.124 154.24 339.254 154.207C339.383 154.173 339.519 154.174 339.649 154.21C339.778 154.245 339.896 154.313 339.99 154.408L341.064 155.5L341.725 152.847C341.764 152.694 341.849 152.556 341.969 152.453C342.089 152.35 342.237 152.286 342.395 152.27C342.552 152.254 342.71 152.286 342.849 152.363C342.987 152.44 343.098 152.558 343.167 152.7L344.663 155.84L337.888 157.547Z" fill="white"/>
    <path d="M344.681 157.042C343.655 157.539 342.564 157.891 341.441 158.089C340.355 158.444 339.223 158.641 338.081 158.676C340.195 157.827 342.416 157.277 344.681 157.042Z" fill="white"/>
    <path d="M290.088 141.372C290.088 141.372 289.748 141.721 289.271 142.464C288.63 143.523 288.209 144.7 288.032 145.925C287.77 147.749 287.715 149.597 287.866 151.433C287.967 153.517 288.133 155.794 288.39 158.181C288.825 162.257 289.471 166.308 290.327 170.317C290.648 171.859 290.942 173.071 291.144 173.989C291.235 174.374 291.318 174.695 291.382 174.971C291.447 175.246 291.456 175.32 291.456 175.32C291.456 175.32 291.41 175.21 291.346 174.989C291.281 174.769 291.18 174.383 291.079 174.007C290.85 173.153 290.538 171.923 290.161 170.381C289.269 166.373 288.604 162.318 288.169 158.236C287.912 155.849 287.756 153.563 287.664 151.479C287.525 149.641 287.593 147.794 287.866 145.971C288.064 144.73 288.514 143.543 289.188 142.483C289.437 142.074 289.74 141.7 290.088 141.372Z" fill="white"/>
    <path d="M309.412 128.869L309.201 128.979L308.595 129.273C308.072 129.521 307.31 129.888 306.401 130.393C304.032 131.714 301.731 133.154 299.507 134.707C296.881 136.543 294.559 138.214 292.86 139.426L290.85 140.849L290.29 141.225C290.227 141.275 290.16 141.318 290.088 141.354C290.14 141.292 290.202 141.239 290.272 141.198L290.804 140.794L292.778 139.316C294.458 138.076 296.771 136.351 299.396 134.551C301.624 132.991 303.942 131.563 306.337 130.273C307.255 129.787 308.026 129.438 308.567 129.209L309.182 128.952C309.366 128.887 309.366 128.86 309.412 128.869Z" fill="white"/>
    <path d="M353.191 134.845C353.133 134.813 353.081 134.773 353.035 134.726L352.622 134.368C352.11 133.936 351.574 133.534 351.015 133.165C349.152 131.977 347.174 130.977 345.113 130.181C343.057 129.367 340.958 128.669 338.824 128.088C337.998 127.859 337.337 127.694 336.869 127.584L336.346 127.446C336.282 127.433 336.22 127.411 336.162 127.382H336.355L336.887 127.483C337.356 127.574 338.026 127.721 338.852 127.932C341.006 128.476 343.121 129.16 345.186 129.98C347.26 130.775 349.239 131.797 351.089 133.027C351.859 133.548 352.564 134.159 353.191 134.845Z" fill="white"/>
    <path d="M309.669 204.916C309.544 204.894 309.424 204.854 309.311 204.797C308.992 204.657 308.685 204.491 308.393 204.301C307.898 204.005 307.467 203.614 307.124 203.151C306.78 202.688 306.531 202.161 306.391 201.602C306.139 200.473 306.265 199.293 306.749 198.242C306.889 197.916 307.068 197.608 307.282 197.324C307.429 197.131 307.53 197.04 307.539 197.049C307.289 197.44 307.065 197.848 306.869 198.27C306.442 199.301 306.343 200.439 306.584 201.529C306.847 202.605 307.502 203.544 308.42 204.163C309.182 204.714 309.687 204.879 309.669 204.916Z" fill="white"/>
    <path d="M306.75 194.974C306.945 195.338 307.09 195.728 307.181 196.131C307.325 196.517 307.411 196.922 307.438 197.333C307.229 196.978 307.081 196.59 306.997 196.186C306.847 195.799 306.763 195.389 306.75 194.974Z" fill="white"/>
    <path d="M319.161 400.799L347.16 400.661L346.655 303.858L346.389 205.384L308.448 204.898L301.627 217.75C298.836 222.917 297.057 228.568 296.385 234.402C295.926 238.864 299.268 253.368 300.425 257.04L310.862 290.143L319.161 400.799Z" fill="#263238"/>
    <path d="M354.605 205.504L385.376 289.381C387.199 294.786 387.805 300.526 387.149 306.192C386.494 311.858 384.594 317.309 381.585 322.154L345.856 391.922L325.771 366.787L355.661 304.363L329.314 261.63L333.748 205.632L346.159 205.43L354.605 205.504Z" fill="#263238"/>
    <path d="M343.837 233.604C343.837 233.604 343.837 233.75 343.837 234.035C343.837 234.32 343.883 234.76 343.92 235.302C343.984 236.431 344.066 238.056 344.177 240.158C344.388 244.408 344.681 250.513 345.095 258.05C345.508 265.587 345.857 274.574 346.316 284.58C346.536 289.574 346.775 294.816 347.013 300.25C347.188 303.004 347.114 305.758 347.142 308.512C347.169 311.266 347.142 314.167 347.142 317.05C347.142 340.119 347.215 361.004 347.243 376.141C347.243 383.687 347.243 389.801 347.243 394.052C347.243 396.154 347.243 397.788 347.243 398.926C347.243 399.459 347.243 399.844 347.243 400.193C347.243 400.542 347.243 400.624 347.243 400.624C347.243 400.624 347.243 400.478 347.243 400.193V398.926C347.243 397.788 347.243 396.172 347.188 394.052C347.188 389.801 347.114 383.697 347.059 376.151C346.995 361.013 346.912 340.128 346.82 317.059C346.82 314.176 346.82 311.331 346.82 308.521C346.82 305.712 346.876 302.94 346.701 300.259C346.472 294.834 346.242 289.592 346.031 284.598C345.609 274.611 345.223 265.623 344.911 258.059C344.599 250.495 344.369 244.418 344.195 240.167C344.122 238.074 344.066 236.44 344.03 235.302C344.03 234.76 344.03 234.384 344.03 234.035C344.03 233.686 343.837 233.604 343.837 233.604Z" fill="#455A64"/>
    <path d="M343.13 207.156C343.237 207.451 343.302 207.76 343.323 208.074C343.424 208.662 343.534 209.515 343.662 210.58C343.901 212.701 344.158 215.648 344.305 218.906C344.452 222.165 344.461 225.121 344.415 227.26C344.415 228.325 344.351 229.197 344.305 229.794C344.314 230.104 344.277 230.413 344.195 230.712C344.079 229.565 344.039 228.412 344.075 227.26C344.075 225.121 343.975 222.184 343.828 218.925C343.681 215.666 343.479 212.737 343.323 210.663C343.192 209.498 343.128 208.328 343.13 207.156Z" fill="#455A64"/>
    <path d="M336.961 209.047C337.007 209.111 336.484 209.35 336.337 210.093C336.296 210.295 336.307 210.504 336.37 210.7C336.432 210.896 336.544 211.073 336.695 211.213C336.876 211.382 337.103 211.495 337.347 211.539C337.591 211.583 337.843 211.556 338.072 211.461C338.292 211.348 338.475 211.175 338.602 210.962C338.729 210.75 338.793 210.506 338.788 210.259C338.779 210.053 338.718 209.853 338.611 209.678C338.503 209.503 338.352 209.358 338.173 209.258C337.799 209.077 337.383 209.004 336.97 209.047C336.97 209.047 337.062 208.928 337.301 208.854C337.645 208.77 338.007 208.806 338.329 208.955C338.585 209.062 338.807 209.237 338.969 209.463C339.131 209.688 339.227 209.954 339.247 210.231C339.283 210.573 339.211 210.917 339.042 211.216C338.872 211.515 338.613 211.753 338.301 211.897C337.989 212.041 337.639 212.084 337.302 212.019C336.964 211.954 336.656 211.784 336.419 211.535C336.224 211.341 336.086 211.097 336.02 210.83C335.953 210.563 335.961 210.283 336.043 210.02C336.135 209.676 336.343 209.375 336.63 209.166C336.814 209.038 336.952 209.019 336.961 209.047Z" fill="#455A64"/>
    <path d="M322.273 207.385C322.408 207.675 322.492 207.985 322.521 208.303C322.668 209.127 322.696 209.969 322.603 210.8C322.471 212.039 322.113 213.243 321.548 214.353C320.864 215.734 319.852 216.925 318.6 217.823C317.348 218.721 315.896 219.298 314.369 219.503C313.147 219.686 311.902 219.639 310.697 219.365C309.882 219.188 309.096 218.895 308.365 218.493C308.089 218.363 307.835 218.189 307.612 217.979C308.627 218.436 309.685 218.789 310.77 219.035C312.076 219.306 313.424 219.304 314.728 219.029C316.033 218.753 317.267 218.21 318.351 217.433C319.435 216.657 320.347 215.664 321.028 214.518C321.71 213.372 322.146 212.096 322.309 210.773C322.417 209.646 322.405 208.51 322.273 207.385Z" fill="#455A64"/>
    <path d="M358.295 215.427C357.696 215.496 357.09 215.424 356.524 215.216C355.137 214.779 353.891 213.981 352.916 212.903C351.931 211.829 351.256 210.51 350.961 209.084C350.816 208.502 350.816 207.894 350.961 207.312C351.043 207.312 351.052 207.982 351.328 209.01C351.7 210.339 352.376 211.562 353.304 212.584C354.231 213.605 355.384 214.396 356.67 214.895C357.625 215.271 358.305 215.335 358.295 215.427Z" fill="#455A64"/>
    <path d="M369.229 305.85C368.769 306.375 368.218 306.813 367.604 307.144C366.959 307.553 366.257 307.863 365.52 308.062C364.593 308.308 363.615 308.283 362.702 307.989C361.098 307.384 359.725 306.293 358.773 304.868C358.336 304.332 357.974 303.739 357.699 303.105C358.194 303.578 358.643 304.098 359.039 304.657C360.014 305.949 361.33 306.944 362.84 307.53C363.61 307.736 364.414 307.782 365.203 307.667C365.993 307.552 366.75 307.277 367.43 306.86C368.009 306.489 368.61 306.152 369.229 305.85Z" fill="#455A64"/>
    <path d="M362.215 311.202C361.13 310.078 360.161 308.848 359.323 307.53C358.358 306.303 357.516 304.984 356.808 303.592C357.9 304.711 358.873 305.942 359.709 307.264C360.682 308.484 361.522 309.804 362.215 311.202Z" fill="#455A64"/>
    <path d="M315.177 236.844C315.048 236.89 314.727 236.367 314.442 235.66C314.158 234.953 314.038 234.356 314.158 234.301C314.277 234.246 314.608 234.778 314.883 235.485C315.158 236.192 315.296 236.844 315.177 236.844Z" fill="#FAFAFA"/>
    <path d="M332.949 239.396C332.811 239.396 332.71 238.946 332.71 238.386C332.71 237.826 332.811 237.367 332.949 237.367C333.087 237.367 333.188 237.826 333.188 238.386C333.188 238.946 333.078 239.396 332.949 239.396Z" fill="#FAFAFA"/>
    <path d="M325.642 249.053C325.514 249.053 325.367 248.503 325.321 247.796C325.275 247.089 325.321 246.52 325.468 246.511C325.615 246.501 325.752 247.061 325.798 247.768C325.844 248.475 325.771 249.044 325.642 249.053Z" fill="#FAFAFA"/>
    <path d="M312.294 256.122C312.184 256.205 311.808 255.865 311.312 255.516C310.816 255.167 310.394 254.901 310.394 254.773C310.394 254.644 311 254.717 311.56 255.121C312.12 255.525 312.404 256.122 312.294 256.122Z" fill="#FAFAFA"/>
    <path d="M335.823 265.128C335.713 265.054 335.823 264.659 336.135 264.21C336.447 263.76 336.732 263.503 336.842 263.576C336.952 263.65 336.842 264.054 336.53 264.494C336.218 264.935 335.933 265.201 335.823 265.128Z" fill="#FAFAFA"/>
    <path d="M321.3 267.67C321.171 267.67 321.061 266.908 321.061 265.981C321.061 265.054 321.171 264.283 321.3 264.283C321.428 264.283 321.538 265.045 321.538 265.981C321.538 266.918 321.401 267.67 321.3 267.67Z" fill="#FAFAFA"/>
    <path d="M316.545 277.971C316.471 278.072 315.994 277.86 315.48 277.484C314.966 277.108 314.562 276.722 314.681 276.612C314.801 276.502 315.241 276.722 315.755 277.098C316.269 277.475 316.627 277.86 316.545 277.971Z" fill="#FAFAFA"/>
    <path d="M331.251 281.551C331.306 281.67 331.012 281.918 330.59 282.111C330.168 282.303 329.782 282.349 329.727 282.23C329.672 282.111 329.975 281.863 330.397 281.67C330.82 281.477 331.205 281.431 331.251 281.551Z" fill="#FAFAFA"/>
    <path d="M321.3 298.35C321.19 298.405 320.712 297.698 320.244 296.762C319.776 295.826 319.491 295.018 319.611 294.926C319.73 294.834 320.207 295.578 320.666 296.514C321.125 297.45 321.382 298.249 321.3 298.35Z" fill="#FAFAFA"/>
    <path d="M337.521 296.789C337.401 296.725 337.613 296.11 337.98 295.403C338.347 294.696 338.76 294.182 338.898 294.247C339.035 294.311 338.806 294.926 338.43 295.633C338.053 296.34 337.631 296.854 337.521 296.789Z" fill="#FAFAFA"/>
    <path d="M330.406 311.009C330.269 311.009 330.287 310.266 330.14 309.403C329.993 308.54 329.773 307.851 329.902 307.787C330.03 307.723 330.471 308.375 330.618 309.329C330.764 310.284 330.535 311.037 330.406 311.009Z" fill="#FAFAFA"/>
    <path d="M322.787 319.134C322.695 319.225 322.236 318.877 321.768 318.362C321.3 317.848 320.997 317.362 321.098 317.27C321.199 317.178 321.649 317.527 322.117 318.041C322.585 318.555 322.888 319.042 322.787 319.134Z" fill="#FAFAFA"/>
    <path d="M341.276 322.218C341.184 322.126 341.524 321.631 342.038 321.107C342.552 320.584 343.029 320.244 343.13 320.336C343.231 320.428 342.882 320.933 342.377 321.447C341.872 321.961 341.377 322.31 341.276 322.218Z" fill="#FAFAFA"/>
    <path d="M330.645 334.382C330.517 334.382 330.517 333.656 330.645 332.812C330.774 331.967 330.976 331.306 331.113 331.325C331.251 331.343 331.242 332.041 331.113 332.885C330.985 333.73 330.774 334.4 330.645 334.382Z" fill="#FAFAFA"/>
    <path d="M323.494 340.284C323.375 340.349 322.971 339.871 322.576 339.219C322.181 338.568 321.979 337.989 322.089 337.925C322.2 337.861 322.603 338.329 323.007 338.981C323.411 339.633 323.604 340.211 323.494 340.284Z" fill="#FAFAFA"/>
    <path d="M340.725 347.729C340.808 347.839 340.339 348.308 339.678 348.776C339.017 349.244 338.439 349.538 338.356 349.428C338.274 349.317 338.751 348.849 339.403 348.381C340.055 347.913 340.651 347.628 340.725 347.729Z" fill="#FAFAFA"/>
    <path d="M326.367 357.396C326.238 357.35 326.367 356.615 326.486 355.697C326.606 354.779 326.532 354.027 326.67 354.008C326.808 353.99 327.046 354.761 326.954 355.743C326.863 356.726 326.486 357.451 326.367 357.396Z" fill="#FAFAFA"/>
    <path d="M332.104 371.276C331.994 371.359 331.609 371.047 331.232 370.578C330.856 370.11 330.645 369.66 330.746 369.578C330.847 369.495 331.232 369.807 331.609 370.275C331.985 370.744 332.205 371.193 332.104 371.276Z" fill="#FAFAFA"/>
    <path d="M325.835 380.584C325.725 380.658 325.22 380.116 324.706 379.363C324.191 378.611 323.87 377.95 323.971 377.876C324.072 377.803 324.586 378.344 325.1 379.097C325.614 379.85 325.945 380.511 325.835 380.584Z" fill="#FAFAFA"/>
    <path d="M343.102 368.898C342.983 368.853 342.992 368.513 343.102 368.146C343.212 367.778 343.46 367.503 343.589 367.549C343.717 367.595 343.699 367.934 343.589 368.311C343.479 368.687 343.231 368.953 343.102 368.898Z" fill="#FAFAFA"/>
    <path d="M335.483 391.068C335.364 391.004 335.593 390.352 335.777 389.535C335.96 388.718 336.025 388.03 336.162 388.02C336.3 388.011 336.438 388.755 336.245 389.636C336.052 390.517 335.593 391.142 335.483 391.068Z" fill="#FAFAFA"/>
    <path d="M340.44 249.2C340.321 249.255 340.027 248.888 339.788 248.374C339.549 247.86 339.448 247.401 339.568 247.346C339.687 247.291 339.981 247.658 340.22 248.172C340.458 248.686 340.578 249.145 340.44 249.2Z" fill="#FAFAFA"/>
    <path d="M327.726 220.614C327.799 220.724 327.157 221.238 326.468 221.972C325.78 222.707 325.312 223.386 325.192 223.322C325.073 223.258 325.385 222.404 326.11 221.651C326.836 220.898 327.634 220.494 327.726 220.614Z" fill="#FAFAFA"/>
    <path d="M339.045 220.32C338.907 220.32 338.696 219.797 338.375 219.172C338.053 218.548 337.76 218.034 337.861 217.942C337.962 217.851 338.457 218.254 338.779 218.952C339.1 219.65 339.164 220.247 339.045 220.32Z" fill="#FAFAFA"/>
    <path d="M303.702 229.601C303.582 229.546 303.702 228.94 303.986 228.242C304.271 227.545 304.583 227.003 304.712 227.058C304.84 227.113 304.712 227.71 304.427 228.417C304.142 229.124 303.858 229.647 303.702 229.601Z" fill="#FAFAFA"/>
    <path d="M304.849 243.463C304.757 243.564 304.234 243.27 303.674 242.802C303.114 242.334 302.756 241.884 302.811 241.774C302.866 241.663 303.426 241.966 303.986 242.435C304.546 242.903 304.932 243.362 304.849 243.463Z" fill="#FAFAFA"/>
    <path d="M328.038 209.607C327.919 209.607 327.662 209.313 327.478 208.845C327.294 208.377 327.239 207.927 327.359 207.927C327.478 207.927 327.735 208.221 327.919 208.689C328.102 209.157 328.157 209.561 328.038 209.607Z" fill="#FAFAFA"/>
    <path d="M350.244 216.382C350.116 216.382 350.125 215.803 350.244 215.152C350.364 214.5 350.602 213.986 350.731 214.013C350.859 214.041 350.85 214.601 350.731 215.253C350.612 215.904 350.373 216.409 350.244 216.382Z" fill="#FAFAFA"/>
    <path d="M355.459 226.875C355.339 226.819 355.505 226.14 355.835 225.341C356.165 224.543 356.524 223.946 356.643 223.992C356.762 224.038 356.643 224.726 356.276 225.525C355.908 226.324 355.587 226.92 355.459 226.875Z" fill="#FAFAFA"/>
    <path d="M351.741 235.338C351.621 235.394 351.181 234.76 350.758 233.925C350.336 233.089 350.097 232.346 350.217 232.291C350.336 232.236 350.768 232.869 351.19 233.704C351.612 234.54 351.86 235.274 351.741 235.338Z" fill="#FAFAFA"/>
    <path d="M359.691 243.803C359.571 243.757 359.691 243.224 359.893 242.618C360.095 242.012 360.416 241.553 360.544 241.599C360.673 241.645 360.544 242.178 360.342 242.784C360.14 243.389 359.856 243.848 359.691 243.803Z" fill="#FAFAFA"/>
    <path d="M352.585 252.092C352.475 252.166 352.19 251.918 351.961 251.55C351.731 251.183 351.621 250.816 351.741 250.743C351.86 250.669 352.126 250.917 352.365 251.293C352.603 251.67 352.695 252.028 352.585 252.092Z" fill="#FAFAFA"/>
    <path d="M354.1 269.204C354.008 269.286 353.43 268.836 352.824 268.175C352.218 267.514 351.805 266.918 351.906 266.826C352.007 266.734 352.576 267.193 353.182 267.854C353.788 268.515 354.201 269.112 354.1 269.204Z" fill="#FAFAFA"/>
    <path d="M363.418 259.372C363.317 259.454 362.812 258.995 362.298 258.334C361.784 257.674 361.453 257.086 361.554 257.003C361.655 256.921 362.16 257.389 362.674 258.041C363.188 258.692 363.528 259.298 363.418 259.372Z" fill="#FAFAFA"/>
    <path d="M368.531 272.931C368.412 272.875 368.623 272.187 368.999 271.397C369.375 270.608 369.77 270.002 369.917 270.057C370.064 270.112 369.834 270.81 369.458 271.599C369.082 272.389 368.65 272.995 368.531 272.931Z" fill="#FAFAFA"/>
    <path d="M357.662 284.094C357.542 284.158 357.12 283.653 356.533 283.111C355.945 282.57 355.403 282.193 355.458 282.056C355.514 281.918 356.211 282.166 356.854 282.763C357.496 283.359 357.772 284.029 357.662 284.094Z" fill="#FAFAFA"/>
    <path d="M358.341 295.596C358.341 295.725 357.882 295.835 357.322 295.835C356.762 295.835 356.312 295.725 356.312 295.596C356.312 295.468 356.762 295.357 357.322 295.357C357.882 295.357 358.341 295.468 358.341 295.596Z" fill="#FAFAFA"/>
    <path d="M369.513 292.383C369.394 292.319 369.632 291.74 369.807 291.024C369.981 290.308 370.055 289.684 370.192 289.675C370.33 289.666 370.477 290.336 370.275 291.135C370.073 291.933 369.614 292.456 369.513 292.383Z" fill="#FAFAFA"/>
    <path d="M380.612 296.248C380.492 296.294 380.153 295.642 379.859 294.806C379.565 293.971 379.427 293.255 379.547 293.218C379.666 293.182 380.015 293.815 380.309 294.65C380.603 295.486 380.74 296.202 380.612 296.248Z" fill="#FAFAFA"/>
    <path d="M378.84 312.037C378.73 311.973 379.015 311.202 379.474 310.312C379.933 309.421 380.392 308.751 380.529 308.815C380.667 308.88 380.364 309.651 379.896 310.532C379.428 311.413 378.959 312.12 378.84 312.037Z" fill="#FAFAFA"/>
    <path d="M368.715 321.3C368.595 321.346 368.219 320.713 367.87 319.877C367.521 319.042 367.347 318.326 367.475 318.271C367.604 318.216 367.971 318.858 368.311 319.694C368.65 320.529 368.834 321.3 368.715 321.3Z" fill="#FAFAFA"/>
    <path d="M357.497 324.889C357.497 325.018 357.111 325.128 356.643 325.128C356.175 325.128 355.798 325.018 355.798 324.889C355.798 324.761 356.184 324.651 356.643 324.651C357.102 324.651 357.497 324.761 357.497 324.889Z" fill="#FAFAFA"/>
    <path d="M363.922 339.66C363.803 339.66 363.546 339.155 363.353 338.457C363.16 337.76 363.124 337.154 363.252 337.126C363.381 337.099 363.629 337.631 363.821 338.329C364.014 339.027 364.051 339.587 363.922 339.66Z" fill="#FAFAFA"/>
    <path d="M355.798 334.703C355.688 334.639 355.798 334.207 356.101 333.739C356.404 333.271 356.707 332.95 356.817 333.014C356.927 333.078 356.817 333.519 356.514 333.987C356.211 334.455 355.917 334.776 355.798 334.703Z" fill="#FAFAFA"/>
    <path d="M355.633 350.961C355.505 350.961 355.321 350.345 355.229 349.547C355.138 348.748 355.165 348.096 355.294 348.078C355.422 348.06 355.606 348.693 355.698 349.492C355.789 350.29 355.762 350.942 355.633 350.961Z" fill="#FAFAFA"/>
</svg>
