<svg width="201" height="343" fill="none" aria-hidden="true" xmlns="http://www.w3.org/2000/svg"><path d="M200.76 324.921c0 3.966-44.753 7.155-99.965 7.155S.84 328.867.84 324.921c0-3.945 44.753-7.154 99.955-7.154s99.965 3.189 99.965 7.154Z" fill="#8BAAFF"/><path opacity=".4" d="M200.76 324.921c0 3.966-44.753 7.155-99.965 7.155S.84 328.867.84 324.921c0-3.945 44.753-7.154 99.955-7.154s99.965 3.189 99.965 7.154Z" fill="#fff"/><path d="M59.26 72.11s-16.534 4.215-21.124 10.514c-4.59 6.299-23.192 49.134-23.192 49.134s-6.031 6.78.49 13.315c6.522 6.535 19.564 8.952 24.399 3.145 4.834-5.808 11.826-33.166 12.797-36.31.971-3.145 8.208-29.775 8.934-31.22.725-1.444 1.422-7.714-2.305-8.579Z" fill="#fff" stroke="#001550" stroke-width="2" stroke-linecap="round" stroke-linejoin="round"/><path d="M59.258 72.11s-16.533 4.215-21.123 10.514c-2.775 3.803-10.679 21-16.494 33.981 2.824-.57 14.592-2.319 28.37 4.638 1.324-4.638 2.304-8.303 2.618-9.335.98-3.145 8.208-29.775 8.934-31.22.726-1.444 1.422-7.714-2.305-8.579Z" fill="#001550" stroke="#001550" stroke-width="2" stroke-linecap="round" stroke-linejoin="round"/><path d="M107.703 16.303a15.845 15.845 0 0 1 6.521 7.016c1.961 4.599 1.961 11.615 1.961 11.615s30.92-.982 42.756-1.209c11.837-.226 19.809 2.664 20.045 8.471.235 5.808-2.413 17.187-8.934 21.54-6.521 4.354-26.811-2.662-37.196-5.561-10.385-2.9-14.013-1.966-21.495-2.948-7.483-.983-9.67-3.872-10.876-8.471-1.206-4.6 1.206-13.315 1.206-20.332 0-7.016-.99-11.576 6.012-10.121Z" fill="#fff" stroke="#001550" stroke-width="2" stroke-linecap="round" stroke-linejoin="round"/><path d="M152.871 46.07s-4.344 11.133-12.317 17.186c-5.717 4.344-13.435 6.82-17.328 7.862-13.935-3.931-33.607-5.778-45.11-3.224 0 0-16.063 3.853-18.857 4.206-2.795.354-9.434 22.75-10.837 38.148-1.402 15.398 3.148 53.556 3.148 56.357 0 2.8 1.746 49.359 4.54 62.311 2.796 12.952 5.944 30.463 6.287 32.9.343 2.437 2.795 20.636 2.795 26.601s-2.834 20.312-2.834 20.312-12.572 8.402-17.466 13.296c-4.893 4.894 3.6 10.062 9.807 11.202 10.532 1.966 23.045-8.401 23.045-8.401l14.033-5.592c3.716-1.494 4.815-5.493 4.903-9.08l.647-25.923c2.197 9.172 4.001 18.438 5.413 27.8.569 3.832 1.158 7.861 3.462 10.957a14.892 14.892 0 0 0 4.845 4.314c1.392.648 2.873.511 4.275 1.317 2.579 1.493 3.638 4.717 6.139 6.338a32.8 32.8 0 0 0 17.818 4.569s13.965.708 14.71-6.996c.745-7.704-18.171-20.302-18.171-20.302s-2.795-51.1-4.904-67.903c-2.108-16.804-7.688-44.103-7.688-56.013 0-11.91 5.59-67.913 5.59-67.913s.569-1.474 1.441-3.872l.922-.511c7.973-4.599 30.194-22.513 37.441-33.892 6.943-10.888 9.454-31.318 9.65-37.293" fill="#fff"/><path d="M152.871 46.07s-4.344 11.133-12.317 17.186c-5.717 4.344-13.435 6.82-17.328 7.862-13.935-3.931-33.607-5.778-45.11-3.224 0 0-16.063 3.853-18.857 4.206-2.795.354-9.434 22.75-10.837 38.148-1.402 15.399 3.148 53.556 3.148 56.357 0 2.8 1.746 49.359 4.54 62.311 2.796 12.952 5.944 30.463 6.287 32.9.343 2.437 2.795 20.636 2.795 26.601s-2.834 20.312-2.834 20.312-12.572 8.402-17.466 13.296c-4.893 4.894 3.6 10.063 9.807 11.202 10.532 1.966 23.045-8.401 23.045-8.401l14.033-5.592c3.716-1.494 4.815-5.493 4.903-9.08l.647-25.923c2.197 9.172 4.001 18.438 5.413 27.8.569 3.833 1.158 7.861 3.462 10.957a14.892 14.892 0 0 0 4.845 4.314c1.392.648 2.873.511 4.275 1.317 2.579 1.493 3.638 4.717 6.139 6.338a32.8 32.8 0 0 0 17.818 4.569s13.965.708 14.71-6.996c.745-7.704-18.171-20.302-18.171-20.302s-2.795-51.1-4.904-67.903c-2.108-16.804-7.688-44.103-7.688-56.013 0-11.91 5.59-67.913 5.59-67.913s.569-1.474 1.441-3.872l.922-.511c7.973-4.599 30.194-22.513 37.441-33.892 6.943-10.888 9.454-31.318 9.65-37.293" stroke="#001550" stroke-width="2" stroke-linecap="round" stroke-linejoin="round"/><path d="M153.921 332.529c.697-7.704-18.171-20.302-18.171-20.302s-.216-3.931-.569-9.974a140.749 140.749 0 0 1-33.42 3.931c.333 1.965.66 3.93.98 5.896.569 3.832 1.158 7.861 3.462 10.957a14.899 14.899 0 0 0 4.844 4.314c1.393.648 2.874.511 4.276 1.316 2.579 1.494 3.638 4.717 6.139 6.339a32.808 32.808 0 0 0 17.818 4.569s13.935.658 14.641-7.046ZM91.777 319.233c3.716-1.493 4.815-5.493 4.903-9.08 0-1.356.069-2.712.098-4.068a154.124 154.124 0 0 1-33.038-4.736c-.667 4.088-1.314 7.38-1.314 7.38s-12.572 8.401-17.465 13.295c-4.894 4.894 3.599 10.063 9.806 11.203 10.532 1.965 23.045-8.402 23.045-8.402l13.965-5.592Z" fill="#001550" stroke="#001550" stroke-width="2" stroke-linecap="round" stroke-linejoin="round"/><path d="M153.92 332.529v-.344a23.99 23.99 0 0 1-10.405 4.225c-11.042 1.966-21.103-3.685-23.8-6.141-2.697-2.457-4.413-4.432-8.59-7.135-4.178-2.702-7.953-9.355-7.953-9.355l-.157.246c.519 3.194 1.245 6.387 3.157 8.962a14.892 14.892 0 0 0 4.845 4.314c1.392.649 2.873.511 4.275 1.317 2.579 1.493 3.639 4.717 6.139 6.338a32.8 32.8 0 0 0 17.819 4.569s13.964.708 14.67-6.996ZM91.777 319.233c3.246-1.307 4.492-4.51 4.825-7.684-3.217 1.965-10.65 6.259-15.367 8.146-6.129 2.457-10.306 9.827-22.32 9.827-8.57 0-13.267-3.361-15.258-5.297-1.06 4.147 5.884 8.029 11.1 9.002 10.533 1.965 23.046-8.402 23.046-8.402l13.974-5.592Z" fill="#fff" stroke="#001550" stroke-width="2" stroke-linecap="round" stroke-linejoin="round"/><path d="M137.113 65.536a60.128 60.128 0 0 1-13.886 5.592c-13.935-3.931-33.607-5.779-45.11-3.224 0 0-16.063 3.853-18.858 4.206-2.795.354-9.434 22.75-10.836 38.148-.863 9.512.54 27.672 1.736 40.85 29.115 10.691 60.162 7.026 75.343 4.117 1.53-17.452 3.265-34.816 3.265-34.816s.569-1.474 1.442-3.872l.922-.511c5.423-3.125 17.406-12.391 26.811-21.619-18.878-5.454-21.163-20.37-20.829-28.87Z" fill="#001550" stroke="#001550" stroke-width="2" stroke-linecap="round" stroke-linejoin="round"/><path d="M110.047 82.232a18.693 18.693 0 0 0-7.943-14.927c-8.924-.865-17.652-.806-23.986.6 0 0-4.443 1.07-9.062 2.122a18.052 18.052 0 0 0-4.903 12.205c0 10.917 10.277 19.771 22.947 19.771s22.947-8.854 22.947-19.771Z" fill="#001550" stroke="#001550" stroke-width="2" stroke-linecap="round" stroke-linejoin="round"/><path d="M103.172 313.78a41.685 41.685 0 0 0 16.337 2.299c12.052-.521 16.24-3.852 16.24-3.852s-2.795-51.099-4.904-67.903c-2.108-16.804-7.688-44.103-7.688-56.013 0-7.016 1.961-29.352 3.54-46.51l-.755.089a14.056 14.056 0 0 1-11.138-3.617 14.112 14.112 0 0 1-4.552-10.809l.333-11.173c-9.088.594-18.212.331-27.252-.786-16.24-1.838-33.008-7.351-33.008-7.351l-1.766.541c0 .521-.107 1.041-.156 1.552-1.393 15.409 3.148 53.556 3.148 56.357 0 2.801 1.745 49.36 4.54 62.312 2.795 12.951 5.943 30.463 6.286 32.9.343 2.437 2.795 20.636 2.795 26.601s-2.687 19.771-2.785 20.282c2.098.649 6.492 1.966 14.405 4.216 12.043 3.42 19.82-.698 19.82-.698 0-4.196.695-27.996.695-27.996s4.433 20.145 5.865 29.559Z" fill="#10B981" stroke="#001550" stroke-width="2" stroke-linecap="round" stroke-linejoin="round"/><path d="m63.27 122.904 31.37 5.169v19.379L77.02 165.12l-14.18-17.236.431-24.98ZM85.893 231.873c-2.265-12.775-3.922-25.392-3.922-34.453l-12.572-8.401M97.328 284.23s-5.295-20.508-9.669-42.972M106.673 175.655a13.104 13.104 0 0 0 1.295 3.242c3.873 6.879 9.453 7.754 9.453 7.754l.863-18.091M107.967 165.11a15.44 15.44 0 0 0-1.422 4.137M123.373 220.141a597.55 597.55 0 0 0 1.363 6.977M117.422 186.65s2.216 13.276 4.776 27.191" stroke="#001550" stroke-width="2" stroke-linecap="round" stroke-linejoin="round"/><path d="m76.086 60.455-.196 10.318s-3.55 2.85-4.256 10.318c-.706 7.469 6.394 14.416 14.376 14.416 7.983 0 14.916-6.23 16.161-11.92 1.246-5.69-.363-13.875-.363-13.875l-.529-12.45s-7.845 4.971-15.269 3.556c-7.423-1.415-9.58-4.097-9.58-4.097l-.344 3.734ZM70.506 33.529s-.48 5.896.795 7.34c1.274 1.445 3.03 2.556 3.353 1.278.324-1.277.471-7.98.795-9.414.323-1.435-4.786-3.233-4.943.796Z" fill="#fff" stroke="#001550" stroke-width="2" stroke-linecap="round" stroke-linejoin="round"/><path d="M73.626 33.431s-1.461 11.793-1.461 17.502c0 5.71-2.207 7.861 4.903 11.576 7.11 3.714 13.268 4.186 18.181 2.457 4.913-1.73 7.62-5.897 7.845-9.356.226-3.459.245-8.844.245-8.844s6.865-6.151 5.414-10.81c-1.452-4.657-4.668 1.23-4.668 1.23a38.108 38.108 0 0 0 1.961-12.56c-.245-6.407-5.158-7.143-7.13-7.143-1.97 0-14.003-3.705-19.642-.05-5.638 3.656-5.648 15.998-5.648 15.998Z" fill="#fff" stroke="#001550" stroke-width="2" stroke-linecap="round" stroke-linejoin="round"/><path d="M104.103 37.136a38.083 38.083 0 0 0 1.962-12.558c-.245-6.407-5.158-7.144-7.13-7.144h-.127c-1.04 1.749-2.324 4.441-2.324 4.441l.98.492s-.98 5.424.981 6.161c1.961.737.98 2.457.98 5.415 0 2.957 1.727 5.169 2.707 5.169.775 0 1.962-1.966 2.491-2.82-.323.47-.52.844-.52.844Z" fill="#001550" stroke="#001550" stroke-width="2" stroke-linecap="round" stroke-linejoin="round"/><path d="M84.688 37.844s-2.07 1.906-1.118 3.35c.951 1.445 4.462 2.231 5.423.472a2.953 2.953 0 0 0-.638-3.665" stroke="#001550" stroke-width="2" stroke-linecap="round" stroke-linejoin="round"/><path d="M82.462 35.928c0 .983-.393 1.75-.883 1.75s-.873-.787-.873-1.75.393-1.76.873-1.76.883.787.883 1.76ZM93.051 36.38c0 .983-.392 1.759-.873 1.759-.48 0-.882-.786-.882-1.759 0-.973.392-1.75.882-1.75s.873.767.873 1.75Z" fill="#001550"/><path d="M90.424 31.613s3.344-2.24 6.53 1.278" stroke="#001550" stroke-width="2" stroke-linecap="round" stroke-linejoin="round"/><path d="m69.448 19.9 26.3 3.705s11.053-2.948 12.043-5.17c.991-2.22-2.706-13.295-4.678-16.007-1.971-2.712-20.887 1.965-26.79 2.948-5.904.983-10.317 2.447-10.042 5.454.274 3.007 3.167 9.07 3.167 9.07Z" fill="#FFC966" stroke="#001550" stroke-width="2" stroke-linecap="round" stroke-linejoin="round"/><path d="M69.448 19.9s-14.994 12.312-15.24 13.53c-.244 1.22 21.87 1.72 28.753.247 6.884-1.474 12.749-10.102 12.749-10.102l-26.262-3.676ZM53.06 183.152l41.188-24.204a8.11 8.11 0 0 0 12.52-3.798 8.15 8.15 0 0 0 .14-4.997l-8.6 5.041-1.962-3.39 8.61-5.051a8.103 8.103 0 0 0-9.362-1.629 8.124 8.124 0 0 0-3.6 3.467 8.152 8.152 0 0 0-.894 4.923l-41.236 24.203a8.11 8.11 0 0 0-9.492-.173 8.152 8.152 0 0 0-3.168 8.968l8.374-4.913 1.962 3.4-8.375 4.913a8.1 8.1 0 0 0 9.363 1.636 8.115 8.115 0 0 0 3.598-3.471 8.14 8.14 0 0 0 .886-4.925h.049Z" fill="#FFC966" stroke="#001550" stroke-width="2" stroke-linecap="round" stroke-linejoin="round"/><path d="M88.14 165.159s5.07 3.636 5.07 7.017c0 3.38-6.041 7.026-10.14 7.262-4.1.235-4.835-4.354-4.11-6.771.727-2.418 9.18-7.508 9.18-7.508Z" fill="#fff" stroke="#001550" stroke-width="2" stroke-linecap="round" stroke-linejoin="round"/><path d="M34.998 134.903s28.017 15.723 31.88 15.251c3.864-.472 9.18-3.872 12.082-2.948 2.903.924 10.866 13.315 11.591 15.497.726 2.181-5.795 9.925-7.247 11.133-1.45 1.209-6.04 6.054-7.001 6.535-.961.482-7.247 6.053-10.385 6.053-3.139 0-8.454-2.427-8.944-3.635-.49-1.209.726-2.899.726-2.899l-14.71-6.781s-28.027-15.251-32.852-22.994c-4.824-7.744 7.247-21.541 7.247-21.541" fill="#fff"/><path d="M34.998 134.903s28.017 15.723 31.88 15.251c3.864-.472 9.18-3.872 12.082-2.948 2.903.924 10.866 13.315 11.591 15.497.726 2.181-5.795 9.925-7.247 11.133-1.451 1.209-6.04 6.054-7.001 6.535-.961.482-7.247 6.053-10.385 6.053-3.139 0-8.454-2.427-8.944-3.635-.49-1.209.726-2.899.726-2.899l-14.71-6.781s-28.027-15.251-32.852-22.994c-4.824-7.744 7.247-21.541 7.247-21.541" stroke="#001550" stroke-width="2" stroke-linecap="round" stroke-linejoin="round"/><path d="M67.37 172.903a3.92 3.92 0 0 1 2.26 1.121c.61.613 1.002 1.411 1.113 2.27.49 3.144-.726 8.716-.726 8.716M72.919 168.304s3.383.245 3.383 3.39v8.716M76.548 159.598s6.276 4.599 6.757 7.262a30.873 30.873 0 0 1 0 7.016" stroke="#001550" stroke-width="2" stroke-linecap="round" stroke-linejoin="round"/><path d="M104.526 143c1.412 0 5.148-9.375 5.148-12.893 0-3.518 1.638-29.293 5.384-41.272a501.446 501.446 0 0 1 6.099-18.278c-2.853-.727-5.884-1.376-9.041-1.965-1.873 5.69-7.59 23.447-9.924 34.737-2.805 13.591-2.109 29.766-1.873 31.171.235 1.405 2.824 8.5 4.207 8.5Z" fill="#10B981" stroke="#001550" stroke-width="2" stroke-linecap="round" stroke-linejoin="round"/><path d="m109.683 114.562-8.028-1.056a1.204 1.204 0 0 0-1.351 1.039l-.842 6.421a1.207 1.207 0 0 0 1.038 1.354l8.028 1.056a1.204 1.204 0 0 0 1.351-1.039l.842-6.421a1.207 1.207 0 0 0-1.038-1.354Z" fill="#fff" stroke="#001550" stroke-width="2" stroke-linecap="round" stroke-linejoin="round"/><path d="m107.57 116.603-4.151-.552a1.206 1.206 0 0 0-1.354 1.039l-.417 3.146a1.208 1.208 0 0 0 1.037 1.357l4.151.553a1.208 1.208 0 0 0 1.355-1.04l.416-3.146a1.207 1.207 0 0 0-1.037-1.357Z" fill="#fff" stroke="#001550" stroke-width="2" stroke-linecap="round" stroke-linejoin="round"/><path d="M52.15 139.482c1.412 0 5.148-9.375 5.148-12.893 0-3.518 1.637-29.293 5.384-41.272 2.373-7.587 3.99-12.431 4.903-14.957-3.658.826-7.13 1.582-8.287 1.73-.863.108-2.079 2.3-3.403 5.72-1.549 4.814-3.442 11.074-4.903 17.176a126.673 126.673 0 0 0-2.5 15.251 129.988 129.988 0 0 0-.069 15.458c0 .177.02.314.059.413.147 1.425 2.265 13.374 3.668 13.374Z" fill="#10B981" stroke="#001550" stroke-width="2" stroke-linecap="round" stroke-linejoin="round"/><path d="m57.48 107.832-8.064-.862a1.207 1.207 0 0 0-1.327 1.074l-.687 6.449c-.07.664.409 1.259 1.071 1.33l8.065.862a1.207 1.207 0 0 0 1.327-1.074l.686-6.449a1.208 1.208 0 0 0-1.07-1.33Z" fill="#fff" stroke="#001550" stroke-width="2" stroke-linecap="round" stroke-linejoin="round"/><path d="m55.344 109.265-4.163-.445a1.207 1.207 0 0 0-1.328 1.073l-.336 3.156c-.07.664.41 1.26 1.072 1.331l4.163.445a1.207 1.207 0 0 0 1.328-1.074l.336-3.156a1.208 1.208 0 0 0-1.072-1.33Z" fill="#fff" stroke="#001550" stroke-width="2" stroke-linecap="round" stroke-linejoin="round"/><path d="M83.8 52.556a6.273 6.273 0 0 1 5.087 0" stroke="#001550" stroke-width="2" stroke-miterlimit="10" stroke-linecap="round"/></svg>