<svg width="18" height="18" fill="none" aria-hidden="true" xmlns="http://www.w3.org/2000/svg"><path d="M1.586 1.586A2 2 0 0 0 1 3v2a2 2 0 0 0 2 2h2a2 2 0 0 0 2-2V3a2 2 0 0 0-2-2H3a2 2 0 0 0-1.414.586ZM11.586 1.586A2 2 0 0 0 11 3v2a2 2 0 0 0 2 2h2a2 2 0 0 0 2-2V3a2 2 0 0 0-2-2h-2a2 2 0 0 0-1.414.586ZM1.586 11.586A2 2 0 0 0 1 13v2a2 2 0 0 0 2 2h2a2 2 0 0 0 2-2v-2a2 2 0 0 0-2-2H3a2 2 0 0 0-1.414.586ZM11.586 11.586A2 2 0 0 0 11 13v2a2 2 0 0 0 2 2h2a2 2 0 0 0 2-2v-2a2 2 0 0 0-2-2h-2a2 2 0 0 0-1.414.586Z"/></svg>