<svg width="18" height="18" viewBox="0 0 18 18" stroke="none" fill="currentColor" xmlns="http://www.w3.org/2000/svg">
    <path fill-rule="evenodd" clip-rule="evenodd" d="M6.86083 3.6745C6.76517 3.61927 6.73239 3.49695 6.78762 3.40129L8.25242 0.864194C8.30764 0.768535 8.27487 0.646217 8.17921 0.590988L7.22658 0.0409885C7.13092 -0.01424 7.00861 0.018535 6.95338 0.114194L5.02533 3.45367C4.9595 3.56769 4.92106 3.69544 4.91303 3.82686L4.71257 7.10951C4.71069 7.14043 4.70164 7.17049 4.68615 7.19732L3.78637 8.75578C3.55165 9.16234 3.69095 9.68219 4.0975 9.9169L4.48005 10.1378L2.15744 14.1607C2.0808 14.2934 2.17585 14.4595 2.32913 14.4606L7.38806 14.499C7.45761 14.4995 7.52243 14.4639 7.55925 14.4049L8.70127 12.5749L9.26281 12.8991C9.66936 13.1338 10.1892 12.9945 10.4239 12.588L11.3238 11.0295C11.3392 11.0026 11.3607 10.9798 11.3866 10.9627L14.1288 9.14745C14.2385 9.07479 14.3299 8.97764 14.3957 8.86367L16.3238 5.52419C16.379 5.42853 16.3462 5.30621 16.2506 5.25098L15.2979 4.70098C15.2023 4.64575 15.08 4.67853 15.0247 4.77419L13.5599 7.31129C13.5047 7.40695 13.3824 7.43972 13.2867 7.38449L6.86083 3.6745ZM12.0404 8.73097C12.1643 8.64896 12.1587 8.46528 12.03 8.391L6.61773 5.2662C6.48905 5.1919 6.32716 5.2789 6.3181 5.42721L6.19758 7.40076L6.19758 7.40077C6.18956 7.53217 6.15112 7.65993 6.08528 7.77395L5.51041 8.76966C5.45518 8.86532 5.48796 8.98764 5.58362 9.04287L9.27669 11.1751C9.37235 11.2303 9.49467 11.1975 9.5499 11.1019L10.1248 10.1061C10.1906 9.99216 10.282 9.89501 10.3917 9.82236L12.0404 8.73097ZM1 17.8699H17.3924V16.7306H1V17.8699Z"/>
</svg>
