<svg width="320" height="284" fill="none" aria-hidden="true" xmlns="http://www.w3.org/2000/svg"><path fill-rule="evenodd" clip-rule="evenodd" d="M157.556 115.983h141.976a.46.46 0 0 0 .468-.452V21.017a.46.46 0 0 0-.468-.452H157.556a.46.46 0 0 0-.468.452v94.514c0 .25.209.452.468.452Zm141.508-.904h-141.04v-93.61h141.04v93.61Z" fill="#001550"/><path d="M158.024 115.079h-.5v.5h.5v-.5Zm141.04 0v.5h.5v-.5h-.5Zm-141.04-93.61v-.5h-.5v.5h.5Zm141.04 0h.5v-.5h-.5v.5Zm.468 94.014H157.556v1h141.976v-1Zm-.032.048c0-.019.009-.033.016-.04a.026.026 0 0 1 .016-.008v1a.96.96 0 0 0 .968-.952h-1Zm0-94.514v94.514h1V21.017h-1Zm.032.048a.024.024 0 0 1-.016-.008.057.057 0 0 1-.016-.04h1a.96.96 0 0 0-.968-.952v1Zm-141.976 0h141.976v-1H157.556v1Zm.032-.048a.057.057 0 0 1-.016.04.024.024 0 0 1-.016.008v-1a.96.96 0 0 0-.968.952h1Zm0 94.514V21.017h-1v94.514h1Zm-.032-.048c.003 0 .01.002.016.008a.057.057 0 0 1 .016.04h-1c0 .542.45.952.968.952v-1Zm.468.096h141.04v-1h-141.04v1Zm-.5-94.11v93.61h1v-93.61h-1Zm141.54-.5h-141.04v1h141.04v-1Zm.5 94.11v-93.61h-1v93.61h1Z" fill="#001550"/><path fill-rule="evenodd" clip-rule="evenodd" d="M282.064 31.133c0 1.937 1.627 3.507 3.632 3.507 2.006 0 3.632-1.57 3.632-3.507s-1.626-3.508-3.632-3.508c-2.005 0-3.632 1.57-3.632 3.508Zm.936 0c0-1.438 1.207-2.604 2.696-2.604s2.696 1.166 2.696 2.604c0 1.438-1.207 2.603-2.696 2.603S283 32.571 283 31.133Z" fill="#001550"/><path d="M285.696 34.14c-1.746 0-3.132-1.362-3.132-3.007h-1c0 2.23 1.867 4.007 4.132 4.007v-1Zm3.132-3.007c0 1.645-1.385 3.007-3.132 3.007v1c2.266 0 4.132-1.778 4.132-4.007h-1Zm-3.132-3.008c1.747 0 3.132 1.363 3.132 3.008h1c0-2.23-1.866-4.008-4.132-4.008v1Zm-3.132 3.008c0-1.645 1.386-3.008 3.132-3.008v-1c-2.265 0-4.132 1.778-4.132 4.008h1Zm3.132-3.104c-1.748 0-3.196 1.373-3.196 3.104h1c0-1.146.967-2.104 2.196-2.104v-1Zm3.196 3.104c0-1.73-1.447-3.104-3.196-3.104v1c1.23 0 2.196.958 2.196 2.104h1Zm-3.196 3.103c1.749 0 3.196-1.373 3.196-3.103h-1c0 1.145-.966 2.103-2.196 2.103v1Zm-3.196-3.103c0 1.73 1.448 3.103 3.196 3.103v-1c-1.229 0-2.196-.958-2.196-2.103h-1Z" fill="#001550"/><path d="M277.516 31.133c0 1.687-1.417 3.055-3.164 3.055s-3.164-1.368-3.164-3.055c0-1.688 1.417-3.056 3.164-3.056s3.164 1.368 3.164 3.056ZM266.17 31.133c0 1.687-1.416 3.055-3.164 3.055-1.747 0-3.164-1.368-3.164-3.055 0-1.688 1.417-3.056 3.164-3.056 1.748 0 3.164 1.368 3.164 3.056Z" fill="#001550" stroke="#001550"/><path fill="#FFC966" d="M167.506 41.863h122.796v65.903H167.506z"/><path fill-rule="evenodd" clip-rule="evenodd" d="M235.242 95.725h.14v.009c13.721.037 24.875-10.674 24.914-23.925.039-13.25-11.052-24.023-24.773-24.06h-.15c-13.533.216-24.396 10.855-24.432 23.925-.035 13.071 10.77 23.765 24.301 24.05Zm-23.364-24.06c.035-12.575 10.485-22.81 23.504-23.021l.141-.01c13.203.035 23.878 10.4 23.842 23.152-.037 12.752-10.77 23.06-23.974 23.026h-.14c-13.018-.281-23.409-10.571-23.373-23.146Z" fill="#fff"/><path d="m230.29 61.146-.131 21.985 16.691-10.983-16.56-11.002Z" fill="#fff"/><path d="M187.801 282.548c-1.011-17.384-1.704-29.426-1.704-29.426-64.347 15.052-99.169-9.112-99.169-9.112s-2.808 17.113-6.384 38.538H187.8Z" fill="#001550"/><path fill-rule="evenodd" clip-rule="evenodd" d="M80.544 283h107.257v-.009a.48.48 0 0 0 .338-.145.451.451 0 0 0 .13-.334c-1.02-17.384-1.713-29.417-1.713-29.417a.429.429 0 0 0-.187-.343.471.471 0 0 0-.384-.073c-63.373 14.826-98.43-8.796-98.785-9.04a.473.473 0 0 0-.73.299s-2.818 17.113-6.385 38.538c-.02.129.018.26.103.361a.467.467 0 0 0 .356.163Zm106.789-.904H81.097c1.381-8.297 2.647-15.926 3.677-22.139a4483.9 4483.9 0 0 1 2.529-15.179c4.98 3.074 39.512 22.474 98.382 8.914.102 1.804.463 8.013.984 16.979l.664 11.425Z" fill="#001550"/><g opacity=".6" fill="#001550"><path fill-rule="evenodd" clip-rule="evenodd" d="M80.544 282.777h107.257v-.009a.484.484 0 0 0 .338-.144.447.447 0 0 0 .13-.332c-1.02-17.286-1.713-29.251-1.713-29.251a.426.426 0 0 0-.187-.341.475.475 0 0 0-.384-.072c-63.373 14.742-98.43-8.747-98.785-8.989a.473.473 0 0 0-.73.296s-2.818 17.017-6.385 38.321a.444.444 0 0 0 .103.359.466.466 0 0 0 .356.162Zm106.789-.899H81.097c1.381-8.249 2.647-15.836 3.677-22.013 1.287-7.715 2.207-13.232 2.529-15.094 4.98 3.057 39.512 22.347 98.383 8.864.101 1.793.462 7.967.983 16.883l.664 11.36Z"/><path d="M187.801 282.777v.5h.5v-.5h-.5Zm-107.257 0v-.5.5Zm107.257-.009-.009-.5-.491.009v.491h.5Zm.338-.144-.356-.35.356.35Zm.13-.332.5-.021-.001-.009-.499.03Zm-1.713-29.251-.5.011v.009l.001.009.499-.029Zm-.187-.341-.288.408.004.003.284-.411Zm-.384-.072.113.487.005-.001-.118-.486ZM87.2 243.639l-.282.413.282-.413Zm-.45-.045.192.462.002-.001-.194-.461Zm-.28.341-.492-.089-.002.008.494.081Zm-6.385 38.321-.493-.083v.005l.493.078Zm.103.359.381-.324v-.001l-.38.325Zm.909-.737-.493-.082-.098.582h.59v-.5Zm106.236 0v.5h.53l-.031-.529-.499.029Zm-102.56-22.013.494.082-.493-.082Zm2.53-15.094.261-.426-.628-.385-.126.726.493.085Zm98.383 8.864.499-.029-.034-.591-.577.132.112.488Zm.983 16.883-.499.029.499-.029Zm1.132 11.759H80.544v1h107.257v-1Zm-.5.491v.009h1v-.009h-1Zm.482-.494c.003-.003.005-.005.007-.005l.002-.001.018 1a.99.99 0 0 0 .686-.293l-.713-.701Zm-.014.038c0-.018.007-.031.014-.038l.713.701a.952.952 0 0 0 .273-.704l-1 .041Zm-1.213-29.271-.499.029V253.079l.002.026.006.104.024.409.092 1.592.35 6.003c.3 5.152.729 12.465 1.239 21.108l.998-.059c-.51-8.643-.938-15.955-1.239-21.107l-.35-6.003a2304.258 2304.258 0 0 0-.122-2.105l-.001-.026-.001-.006v-.002l-.499.028Zm-.471.07a.074.074 0 0 1-.029-.059l1-.021a.928.928 0 0 0-.404-.743l-.567.823Zm.018.003a.017.017 0 0 1-.01 0c-.003-.001-.007-.002-.012-.006l.576-.817a.973.973 0 0 0-.79-.149l.236.972Zm-99.185-9.062c.437.298 35.636 23.845 99.18 9.063l-.226-.974c-63.202 14.702-98.117-8.728-98.39-8.915l-.564.826Zm.025.003c-.004.002-.008.002-.011.002a.035.035 0 0 1-.014-.005l.564-.826a.974.974 0 0 0-.925-.093l.386.922Zm.018-.03c-.004.022-.016.029-.019.031l-.383-.924a.963.963 0 0 0-.581.714l.983.179Zm-6.382 38.313a25471.165 25471.165 0 0 0 6.256-37.548l.095-.577.025-.146a2.5 2.5 0 0 1 .007-.047v-.003l-.492-.082-.494-.081v.003l-.002.009-.006.037-.024.147-.096.576-.368 2.219a22345.492 22345.492 0 0 1-5.888 35.328l.987.165Zm-.01-.048a.056.056 0 0 1 .01.044l-.987-.156a.945.945 0 0 0 .216.762l.76-.65Zm-.025-.013.01.003c.004.001.01.005.015.011l-.761.648a.966.966 0 0 0 .737.338l-.001-1Zm.553.101h106.236v-1H81.097v1Zm3.184-22.595c-1.03 6.177-2.296 13.763-3.678 22.013l.987.165c1.382-8.25 2.647-15.837 3.677-22.014l-.986-.164Zm2.53-15.097c-.324 1.864-1.244 7.383-2.53 15.097l.986.164c1.287-7.716 2.207-13.23 2.529-15.09l-.986-.171Zm98.763 8.461c-58.712 13.448-93.111-5.796-98.01-8.802l-.523.853c5.062 3.106 39.728 22.444 98.756 8.924l-.223-.975Zm1.594 17.342c-.521-8.916-.882-15.089-.983-16.883l-.999.057c.102 1.794.463 7.969.984 16.884l.998-.058Zm.664 11.36-.664-11.36-.998.058.664 11.36.998-.058Z"/></g><path d="M3.495 112.512c-.094 2.811-1.975 5.343-2.04 8.136-.057 2.622 1.478 5.008 2.002 7.576.562 2.766 0 5.605.365 8.38.258 1.79.765 3.539 1.508 5.198a7.945 7.945 0 0 0 2.583 3.318c1.872 1.338 4.54 1.283 6.796 1.283a10.63 10.63 0 0 0 6.553-1.808 14.058 14.058 0 0 0 3.407-4.447 9.46 9.46 0 0 0 1.6-4.349 6.561 6.561 0 0 0-.56-2.558c-1.873-4.439-6.553-7.603-7.34-12.322-.337-2.016.094-4.068.281-6.093.187-2.025.066-4.24-1.207-5.876-2.107-2.712-7.04-3.281-10.297-3.272-4.756.009-3.53 3.48-3.651 6.834Z" fill="#fff" stroke="#001550" stroke-width="2"/><path fill-rule="evenodd" clip-rule="evenodd" d="M7.689 145.499c1.853 1.302 4.277 1.365 6.468 1.365v-.036h.627c2.44.134 4.855-.542 6.843-1.916a14.87 14.87 0 0 0 3.529-4.593 9.821 9.821 0 0 0 1.657-4.52 7.02 7.02 0 0 0-.6-2.712 23.295 23.295 0 0 0-3.482-5.352c-1.75-2.205-3.398-4.294-3.828-6.87a15.72 15.72 0 0 1 .122-4.475c.065-.497.121-1.003.168-1.51.253-2.757-.16-4.719-1.301-6.183-2.35-3.028-7.676-3.453-10.69-3.453a4.396 4.396 0 0 0-3.22 1.021c-1.064 1.045-1.002 2.674-.937 4.403v1.826a12.513 12.513 0 0 1-.992 3.896 9.989 9.989 0 0 0 .056 9.04c.386.941.699 1.908.937 2.893.237 1.468.315 2.955.234 4.439a23.928 23.928 0 0 0 .13 3.914c.26 1.831.776 3.62 1.536 5.316a8.387 8.387 0 0 0 2.743 3.507Zm-4.718-28.82a13.524 13.524 0 0 0 1.04-4.167l-.029.036c.038-.429.025-.858.012-1.282-.006-.21-.012-.419-.012-.625-.066-1.61-.112-2.993.646-3.761a3.556 3.556 0 0 1 2.546-.741c2.256.027 7.76.28 9.941 3.091.993 1.275 1.348 3.038 1.114 5.56-.028.373-.072.746-.116 1.119l-.043.373a16.597 16.597 0 0 0-.122 4.719c.478 2.712 2.275 5.035 4.007 7.232a22.269 22.269 0 0 1 3.36 5.144c.337.754.518 1.565.534 2.386a9.113 9.113 0 0 1-1.545 4.132 13.827 13.827 0 0 1-3.285 4.321 10.032 10.032 0 0 1-6.263 1.726h-.271c-2.125 0-4.54 0-6.244-1.193a7.417 7.417 0 0 1-2.434-3.137 19.01 19.01 0 0 1-1.47-5.071 23.188 23.188 0 0 1-.121-3.779 20.838 20.838 0 0 0-.253-4.629 20.76 20.76 0 0 0-.936-3.028 9.116 9.116 0 0 1-.056-8.426Z" fill="#001550"/><path d="m9.57 145.906 3.127 23.966s17.673-4.195 22.887-10.93L25.56 137.644" fill="#fff"/><path d="m9.57 145.906 3.127 23.966s17.673-4.195 22.887-10.93L25.56 137.644" stroke="#001550"/><path d="M12.697 170.324a.501.501 0 0 1-.272-.082.447.447 0 0 1-.196-.316L9.102 145.96a.455.455 0 0 1 .403-.506.471.471 0 0 1 .35.09.44.44 0 0 1 .174.308l3.06 23.45c2.893-.741 17.206-4.647 21.952-10.423l-9.913-21.046a.462.462 0 0 1 .234-.605.475.475 0 0 1 .618.226l10.035 21.298a.456.456 0 0 1-.057.461c-5.251 6.78-22.466 10.921-23.158 11.093l-.103.018Z" fill="#001550" stroke="#001550"/><path d="m41.8 160.597 5.616 12.113 57.794-32.815 10.981-14.148 7.563 17.764-15.445 34.931a293.549 293.549 0 0 1-37.921 21.696 203.552 203.552 0 0 1-19.33 8.299c-6.3 2.278-12.862 3.833-19.358 5.505a2.03 2.03 0 0 1-1.367 0c-.29-.144-.412-.488-.674-.696-4.755-3.697-16.681-36.657-17.907-47.153l30.048-5.496Z" fill="#10B981" stroke="#001550" stroke-width="2"/><path d="m197.265 112.62 26.734 36.712c6.578 9.033 7.172 20.918 1.526 30.52-10.297 17.538-26.763 44.297-35.346 52.035 0 0 4.006 7.919 3.398 10.848-.609 2.929-6.263 3.526-6.263 3.526l8.696 14.41s-47.169 40.274-113.519-12.042L96.3 201.892l-7.311-5.045 29.327-94.605 30.142-3.127 9.164 23.432 9.895-11.301 9.932 11.301 19.817-9.927Z" fill="#10B981" stroke="#001550" stroke-width="2"/><path d="M195.262 167.187a.457.457 0 0 1-.44-.308.456.456 0 0 1 .29-.578c8.125-2.712 15.679-3.896 26.07-4.222a.48.48 0 0 1 .487.443.445.445 0 0 1-.131.322.472.472 0 0 1-.328.139c-10.297.326-17.786 1.537-25.798 4.177a.428.428 0 0 1-.15.027ZM170.67 254.415a.479.479 0 0 1-.416-.257.447.447 0 0 1 .042-.475c4.689-5.943 10.89-10.615 18.001-13.56a.474.474 0 0 1 .597.246.445.445 0 0 1-.232.585c-6.958 2.872-13.027 7.435-17.617 13.244a.48.48 0 0 1-.375.217ZM42.848 191.424a.733.733 0 0 1-.187 0 .465.465 0 0 1-.253-.597 57.553 57.553 0 0 0 4.362-16.146.467.467 0 0 1 .52-.402.459.459 0 0 1 .416.502 58.906 58.906 0 0 1-4.427 16.398.48.48 0 0 1-.431.245ZM53.145 186.198h-.056a.455.455 0 0 1-.412-.497c.415-3.719-.554-7.458-2.734-10.55a.451.451 0 0 1 .113-.633.482.482 0 0 1 .655.118c2.317 3.281 3.345 7.252 2.902 11.2a.474.474 0 0 1-.468.362ZM107.897 162.983a.472.472 0 0 1-.159 0 .455.455 0 0 1-.264-.228.426.426 0 0 1-.017-.341c1.235-3.427 9.361-22.366 12.309-29.137a.465.465 0 0 1 .375-.287.472.472 0 0 1 .44.18c.102.133.119.31.046.46-2.911 6.581-11.083 25.746-12.29 29.082a.47.47 0 0 1-.44.271ZM167.516 213.273a.465.465 0 0 1-.458-.334l-3.127-11.3-49.042-28.025a.442.442 0 0 1-.156-.615.477.477 0 0 1 .634-.162l49.201 28.106a.454.454 0 0 1 .215.271l2.265 8.136v-9.664c0-.105.036-.207.103-.289l20.959-24.96a.49.49 0 0 1 .665-.063.436.436 0 0 1 .065.632l-20.856 24.834v12.981a.465.465 0 0 1-.412.452h-.056ZM169.819 244.462a.525.525 0 0 1-.234-.054l-56.877-30.737a.458.458 0 0 1-.226-.27.439.439 0 0 1 .039-.345.486.486 0 0 1 .646-.171l56.624 30.564 13.395-9.202a.488.488 0 0 1 .655.099.439.439 0 0 1-.112.633l-13.639 9.374a.485.485 0 0 1-.271.109Z" fill="#001550" stroke="#001550"/><ellipse cx="67.527" cy="104.88" rx="51.587" ry="50.88" fill="#001550"/><ellipse cx="69.423" cy="103.562" rx="51.363" ry="49.603" fill="#FFC966" stroke="#001550"/><path fill-rule="evenodd" clip-rule="evenodd" d="M17.583 103.535c-.01 27.641 23.181 50.059 51.803 50.074 28.624-.015 51.828-22.413 51.859-50.056 0-27.64-23.2-50.05-51.822-50.055-28.621-.005-51.83 22.396-51.84 50.037Zm.936.048C18.507 76.44 41.28 54.426 69.386 54.411c28.103.015 50.887 22.002 50.923 49.142.005 27.143-22.773 49.152-50.88 49.161-28.105.008-50.898-21.987-50.91-49.131Z" fill="#001550"/><path d="M69.386 153.609v.5-.5Zm-51.803-50.074h-.5.5Zm103.662.018.5.001v-.001h-.5ZM69.423 53.498v-.5.5Zm-.037.913v-.5.5ZM18.52 103.583l-.5.001.5-.001Zm101.79-.03h.5-.5Zm-50.88 49.161.001.5v-.5Zm-.043.395c-28.362-.015-51.313-22.225-51.303-49.574h-1c-.01 27.934 23.421 50.558 52.303 50.574v-1Zm51.359-49.556c-.03 27.351-22.995 49.541-51.36 49.556l.001 1c28.883-.016 52.328-22.62 52.359-50.555l-1-.001ZM69.423 53.998c28.363.005 51.322 22.206 51.322 49.555h1c0-27.933-23.44-50.55-52.322-50.555v1Zm-51.34 49.537c.01-27.348 22.978-49.542 51.34-49.537v-1c-28.88-.005-52.33 22.603-52.34 50.537h1Zm51.303-49.624c-28.366.015-51.379 22.237-51.367 49.673l1-.001c-.012-26.85 22.521-48.657 50.367-48.672v-1Zm51.423 49.642c-.036-27.433-23.06-49.627-51.422-49.642l-.001 1c27.844.015 50.388 21.795 50.423 48.643l1-.001ZM69.43 153.214c28.366-.009 51.385-22.225 51.379-49.661h-1c.005 26.851-22.533 48.652-50.38 48.661l.001 1Zm-51.41-49.63c.012 27.435 23.044 49.638 51.41 49.63v-1c-27.847.008-50.399-21.78-50.41-48.631l-1 .001Z" fill="#001550"/><path d="m49.101 84.56 15.951 43.411 32.201-34.443-48.152-8.968Z" fill="#fff"/><path d="M107.026 170.333S97.15 190.14 89.718 192.3l-11.12-13.714-9.362-11.553-2.387-2.847-.056-.091-10.007-17.438-1.123-1.962-.337-1.428-.796-3.363-.056-.244.14-.407 1.873-5.036 3.341-3.706v-.136l1.208-5.948.131-.642 3.183-1.898v-.045c-.225-.579-2.574-7.043-.74-10.803a4.265 4.265 0 0 1 1.873-1.989 5.2 5.2 0 0 1 1.17-.47c.079-.152.18-.292.3-.416.29-.317.795-.561 1.385.244.274.4.488.835.636 1.293.103.244.206.533.309.849 0 .145.084.29.131.443.047.154.103.326.16.498.112.361.233.723.355 1.084 1.722 5.171 4.942 13.958 5.186 14.591l7.779 2.477.936.289.459 1.212 2.714 7.178.178.47.084.578 1.723 13.759.065.064 14.687 14.003 3.286 3.137Z" fill="#fff" stroke="#001550"/><path d="M107.896 171.436a.47.47 0 0 1-.318-.127c-13.161-11.879-18.9-17.8-18.956-17.854a.456.456 0 0 1-.121-.262l-.88-8.706a48.867 48.867 0 0 0-2.022-9.402 10.65 10.65 0 0 0-2.808-4.891c-1.526-1.383-3.454-1.726-5.504-2.097-.759-.136-1.545-.271-2.313-.47a.459.459 0 0 1-.284-.209.428.428 0 0 1-.043-.342.453.453 0 0 1 .215-.278.483.483 0 0 1 .356-.048c.73.19 1.498.326 2.246.461 2.088.371 4.24.76 5.973 2.332a11.536 11.536 0 0 1 3.042 5.28 49.981 49.981 0 0 1 2.069 9.592l.87 8.551c.843.859 6.646 6.726 18.797 17.701a.442.442 0 0 1 .121.499.47.47 0 0 1-.44.288v-.018Z" fill="#001550" stroke="#001550"/><path d="M78.185 135.203a.478.478 0 0 1-.43-.281 283.228 283.228 0 0 1-3.08-7.575c-.384-.949-.749-1.917-1.123-2.875-1.526-3.969-2.809-7.973-4.072-11.752a37.334 37.334 0 0 1-.356-1.085l-.047-.127c0-.135-.084-.262-.112-.388l-.487-1.447c0-.072-.047-.135-.065-.208a2.076 2.076 0 0 0-.403-.723l-.047-.054a.78.78 0 0 0-.86-.1 2.393 2.393 0 0 0-.544.254c-.27.157-.524.338-.758.542a5.604 5.604 0 0 0-1.432 1.907l-.094.199c-1.02 2.405-.459 5.334 0 7.477.178.904.365 1.808.571 2.784a.078.078 0 0 0 0 .045c.936 4.186 2.125 8.236 3.173 11.644a.451.451 0 0 1-.323.513.473.473 0 0 1-.566-.251c-1.058-3.426-2.265-7.494-3.201-11.752a62.554 62.554 0 0 1-.59-2.812c-.43-2.251-1.03-5.333.094-7.982l.103-.226a6.648 6.648 0 0 1 1.666-2.215 5.89 5.89 0 0 1 .936-.642c.235-.139.486-.251.749-.334.213-.074.438-.113.664-.118.448-.004.877.169 1.19.479l.055.073c.26.308.456.661.58 1.039l.553 1.664c0 .135.075.253.112.37v.127c.113.361.234.723.356 1.076 1.226 3.76 2.537 7.756 4.063 11.698.365.967.74 1.925 1.114 2.874 1.076 2.712 2.078 5.216 3.07 7.549a.437.437 0 0 1-.005.346.46.46 0 0 1-.257.241.394.394 0 0 1-.197.046Z" fill="#001550" stroke="#001550"/><path d="M60.961 136.848a.475.475 0 0 1-.45-.325 26.438 26.438 0 0 1-1.141-6.148 10.995 10.995 0 0 1 1.207-6.084l.075-.135a5.35 5.35 0 0 1 3.22-2.116.488.488 0 0 1 .595.33.466.466 0 0 1-.342.574 4.438 4.438 0 0 0-2.677 1.727l-.066.117a10.162 10.162 0 0 0-1.076 5.578 25.285 25.285 0 0 0 1.114 5.94.459.459 0 0 1-.328.56l-.131-.018Z" fill="#001550" stroke="#001550"/><path d="M88.988 191.134a.484.484 0 0 1-.365-.163l-22.139-26.505-.056-.082a171.273 171.273 0 0 1-10.072-17.556c-.618-1.293-1.105-2.413-1.479-3.426-.35-.885-.64-1.791-.87-2.712a.586.586 0 0 1 0-.127c0-.244 0-.488.056-.741s0-.443.093-.669a14.873 14.873 0 0 1 1.872-5.18 11.42 11.42 0 0 1 3.501-3.86.478.478 0 0 1 .646.136c.07.1.094.223.067.34a.442.442 0 0 1-.207.283 10.763 10.763 0 0 0-3.192 3.553 13.863 13.863 0 0 0-1.788 4.882c-.04.206-.069.414-.084.624-.032.203-.051.408-.057.614.22.866.495 1.717.824 2.55a42.93 42.93 0 0 0 1.451 3.354 172.887 172.887 0 0 0 9.97 17.384.51.51 0 0 1 .065.099l22.11 26.47a.442.442 0 0 1-.065.633.487.487 0 0 1-.281.099Z" fill="#001550" stroke="#001550"/><path d="M111.51 168.362a43.31 43.31 0 0 1-4.774 9.275c-7.077 10.785-17.57 22.239-17.57 22.239-6.694-5.903-15.97-19.581-15.97-19.581 4.596-2.712 11.954-10.604 16.091-15.657a162.57 162.57 0 0 0 6.843-8.986l15.38 12.71Z" fill="#fff" stroke="#001550" stroke-width="2"/><path fill-rule="evenodd" clip-rule="evenodd" d="M88.828 200.21c.088.076.201.118.319.118l.018-.018a.483.483 0 0 0 .328-.154c.103-.108 10.606-11.598 17.617-22.293a44.197 44.197 0 0 0 4.83-9.347.459.459 0 0 0-.14-.497l-15.39-12.711a.482.482 0 0 0-.692.1 150.29 150.29 0 0 1-6.815 8.949c-3.875 4.701-11.298 12.783-15.979 15.549a.47.47 0 0 0-.206.29.412.412 0 0 0 .066.343c.013.014.113.158.29.411 1.628 2.331 9.75 13.959 15.754 19.26Zm.282-.976c-5.926-5.379-13.76-16.588-15.287-18.794v-.009c4.774-3.038 12.01-10.866 15.83-15.504a174.89 174.89 0 0 0 6.552-8.588l14.744 12.177a43.394 43.394 0 0 1-4.625 8.886c-6.29 9.592-15.408 19.834-17.214 21.832Z" fill="#001550"/><path d="M3.439 109.574c-.103-1.356-.131-2.965.337-3.516a5.458 5.458 0 0 1 1.788-1.23c6.412-3.227 12.834-6.455 19.461-9.275.58-.244 1.31-.48 1.826-.109.391.383.547.934.411 1.456a8.334 8.334 0 0 1-2.35 4.339 21.144 21.144 0 0 1-5.765 4.439 18.94 18.94 0 0 0-2.153 1.193 19.41 19.41 0 0 0-2.434 2.242 20.812 20.812 0 0 1-1.873 1.618" fill="#fff"/><path d="M3.439 109.574c-.103-1.356-.131-2.965.337-3.516a5.458 5.458 0 0 1 1.788-1.23c6.412-3.227 12.834-6.455 19.461-9.275.58-.244 1.31-.48 1.826-.109.391.383.547.934.411 1.456a8.334 8.334 0 0 1-2.35 4.339 21.144 21.144 0 0 1-5.765 4.439 18.94 18.94 0 0 0-2.153 1.193 19.41 19.41 0 0 0-2.434 2.242 20.812 20.812 0 0 1-1.873 1.618" stroke="#001550" stroke-width="1.5"/><path d="M12.697 111.183a.443.443 0 0 1-.366-.172.43.43 0 0 1 .075-.632 19.904 19.904 0 0 0 1.816-1.583c.2-.192.387-.382.562-.569.591-.63 1.24-1.208 1.938-1.727a13.514 13.514 0 0 1 1.675-.949l.525-.271a20.411 20.411 0 0 0 5.616-4.348 7.742 7.742 0 0 0 2.247-4.087c0-.235.065-.813-.244-1.04-.309-.225-.936 0-1.348.163-6.609 2.812-13.105 6.094-19.433 9.267a4.807 4.807 0 0 0-1.638 1.103c-.16.189-.403.904-.234 3.209a.458.458 0 0 1-.435.483.463.463 0 0 1-.501-.42c-.15-2.106 0-3.291.44-3.842a5.931 5.931 0 0 1 1.937-1.338c6.32-3.182 12.844-6.464 19.48-9.284a2.325 2.325 0 0 1 2.303-.063c.535.474.763 1.189.6 1.87a8.57 8.57 0 0 1-2.472 4.584 21.593 21.593 0 0 1-5.888 4.52l-.534.272a9.905 9.905 0 0 0-3.37 2.504c-.187.199-.383.388-.57.578a21.879 21.879 0 0 1-1.873 1.655.489.489 0 0 1-.309.117Z" fill="#001550"/><path d="M9.008 109.637a9.569 9.569 0 0 1 1.423-.551c4.68-1.365 9.782-1.04 14.51-2.323 2.387-.651 4.68-1.718 7.207-1.7.75 0 1.77.298 1.685 1.202-.084.904-.73 1.266-1.226 1.808a19.396 19.396 0 0 1-1.76 1.808 15.493 15.493 0 0 1-4.409 2.622 38.74 38.74 0 0 1-7.301 1.672c-2.397.443-4.68 1.158-7.03 1.808-.58.163-1.17.308-1.77.425" fill="#fff"/><path d="M10.338 116.878a.473.473 0 0 1-.459-.361.44.44 0 0 1 .068-.34.47.47 0 0 1 .297-.194 21.85 21.85 0 0 0 1.732-.415l1.423-.398a58.735 58.735 0 0 1 5.616-1.419l1.601-.281a27.295 27.295 0 0 0 5.617-1.365 15.15 15.15 0 0 0 4.277-2.54c.45-.399.868-.828 1.255-1.284l.468-.515c.094-.108.206-.217.309-.316.4-.312.68-.745.795-1.23a.496.496 0 0 0-.112-.371 1.671 1.671 0 0 0-1.114-.334 16.264 16.264 0 0 0-5.064 1.067c-.665.217-1.339.434-2.013.614a44.03 44.03 0 0 1-7.151 1.13c-2.48.175-4.937.575-7.34 1.194a8.38 8.38 0 0 0-1.357.524.484.484 0 0 1-.487-.003.447.447 0 0 1-.22-.42.453.453 0 0 1 .286-.381 9.726 9.726 0 0 1 1.507-.588 42.102 42.102 0 0 1 7.489-1.23 43.413 43.413 0 0 0 7.002-1.093c.664-.181 1.31-.389 1.966-.606a17.36 17.36 0 0 1 5.373-1.112 2.56 2.56 0 0 1 1.797.633c.269.287.395.673.346 1.057a2.909 2.909 0 0 1-1.048 1.809l-.29.289-.45.506a14.28 14.28 0 0 1-1.347 1.374 15.989 15.989 0 0 1-4.54 2.712 28.87 28.87 0 0 1-5.814 1.41l-1.582.281c-1.872.352-3.744.904-5.56 1.401l-1.423.398a23.82 23.82 0 0 1-1.806.434l-.047-.037Z" fill="#001550" stroke="#001550"/><path d="M8.11 115.993a8.326 8.326 0 0 1 3.257-1.546 25.177 25.177 0 0 1 6.806 0c3.964.306 7.949.272 11.907-.1a5.296 5.296 0 0 1 1.928 0c3.679 1.004-1.282 4.457-2.668 5.036-5.457 2.287-11.916 2.395-17.785 2.26" fill="#fff"/><path d="M14.485 122.203h-2.92a.472.472 0 0 1-.33-.139.442.442 0 0 1-.13-.322.47.47 0 0 1 .478-.443c6.019.145 12.319 0 17.57-2.224 1.114-.461 3.745-2.413 3.745-3.462 0-.307-.347-.552-.983-.723a4.933 4.933 0 0 0-1.723 0 70.437 70.437 0 0 1-12.029.108l-.936-.072a21.307 21.307 0 0 0-5.785 0 8.024 8.024 0 0 0-3.06 1.455.479.479 0 0 1-.656-.081.442.442 0 0 1 .075-.633 8.833 8.833 0 0 1 3.454-1.627 22.254 22.254 0 0 1 6.057-.054l.88.072c3.936.301 7.892.268 11.822-.099a5.674 5.674 0 0 1 2.107.063c1.32.361 1.638 1.03 1.666 1.528.13 1.808-3.501 4.031-4.287 4.357-4.54 1.907-9.81 2.296-15.015 2.296Z" fill="#001550" stroke="#001550"/><path d="M14.953 122.004s7.788 9.944 2.115 19.427l-2.115-19.427Z" fill="#fff"/><path d="M17.068 141.883a.512.512 0 0 1-.234-.054.461.461 0 0 1-.177-.624c5.457-9.139-2.004-18.83-2.079-18.921a.442.442 0 0 1-.06-.451.467.467 0 0 1 .375-.275.478.478 0 0 1 .434.175c.075.099 7.91 10.251 2.144 19.888a.468.468 0 0 1-.403.262Z" fill="#001550" stroke="#001550"/><path d="M44.318 164.167s-3.08 4.837-12.844 8.597a67.555 67.555 0 0 1-18.777 3.978l-2.865-19.436s6.272 1.094 15.399-2.649a48.879 48.879 0 0 0 9.66-5.361l9.427 14.871Z" fill="#fff" stroke="#001550" stroke-width="2"/><path fill-rule="evenodd" clip-rule="evenodd" d="M12.238 176.805a.453.453 0 0 0 .459.389h.037a68.571 68.571 0 0 0 18.918-4.014c9.758-3.756 12.906-8.537 13.057-8.766l.002-.003a.447.447 0 0 0 0-.479l-9.417-14.871a.521.521 0 0 0-.31-.208.5.5 0 0 0-.374.082 48.448 48.448 0 0 1-9.557 5.306c-8.547 3.497-14.607 2.692-15.104 2.626a.518.518 0 0 0-.444.113.435.435 0 0 0-.132.389l2.865 19.436Zm.889-.551-2.715-18.424c1.797.145 7.395.362 14.978-2.757a49.095 49.095 0 0 0 9.36-5.117l9.034 14.202c-.74.959-4.157 4.99-12.45 8.191a67.375 67.375 0 0 1-18.207 3.905Z" fill="#001550"/><path d="M12.697 177.194v-.25h-.002l.002.25Zm-.46-.389.249-.031v-.005l-.248.036Zm.497.389v.25h.017l-.017-.25Zm18.918-4.014.086.235.004-.001-.09-.234Zm13.057-8.766-.209-.138.21.138Zm.002-.003.209.138.002-.004-.211-.134Zm0-.479.211-.133-.211.133Zm-9.417-14.871.211-.134-.006-.008-.205.142Zm-.31-.208.057-.244-.012-.002-.044.246Zm-.374.082-.143-.205-.002.001.145.204Zm-9.557 5.306.095.232v-.001l-.095-.231Zm-15.104 2.626.033-.248-.033.248Zm-.033-.004-.036.247.018.003h.018v-.25Zm-.412.117-.162-.19-.01.009.172.181Zm-.13.389.247-.036-.001-.006-.247.042Zm1.038.461.02-.249-.313-.025.046.311.247-.037Zm2.715 18.424-.248.036.034.23.232-.017-.018-.249Zm12.263-21.181.095.231-.095-.231Zm9.36-5.117.211-.134-.14-.22-.214.149.143.205Zm9.034 14.202.198.153.107-.139-.094-.148-.211.134Zm-12.45 8.191.085.235.005-.002-.09-.233Zm-18.64 4.595a.203.203 0 0 1-.208-.17l-.496.063c.045.356.356.61.708.607l-.003-.5Zm.04 0h-.037v.5h.037v-.5Zm18.832-3.998a68.373 68.373 0 0 1-18.849 3.999l.034.499a68.84 68.84 0 0 0 18.987-4.029l-.172-.469Zm12.934-8.67c-.126.192-3.234 4.935-12.938 8.671l.18.467c9.812-3.778 13-8.595 13.176-8.863l-.418-.275Zm.002-.002-.002.002.418.275.001-.002-.417-.275Zm-.003-.208a.196.196 0 0 1 0 .212l.423.267a.698.698 0 0 0 0-.746l-.423.267Zm-9.417-14.871 9.417 14.871.423-.267-9.417-14.871-.423.267Zm-.153-.098a.262.262 0 0 1 .159.106l.411-.284a.765.765 0 0 0-.458-.309l-.112.487Zm-.175.043a.255.255 0 0 1 .187-.041l.088-.492a.751.751 0 0 0-.562.123l.287.41Zm-9.605 5.332a48.642 48.642 0 0 0 9.607-5.334l-.291-.407a48.158 48.158 0 0 1-9.508 5.279l.192.462Zm-15.233 2.643c.524.069 6.632.876 15.232-2.642l-.19-.463c-8.494 3.475-14.507 2.671-14.976 2.609l-.066.496Zm0-.002h-.013l-.006-.001h-.004.002l.021.003.066-.496a.55.55 0 0 1-.025-.003l-.01-.001-.009-.001-.022-.001v.5Zm-.249.057a.272.272 0 0 1 .213-.06l.073-.494a.762.762 0 0 0-.611.175l.325.379Zm-.047.157a.183.183 0 0 1 .057-.165l-.345-.363a.684.684 0 0 0-.205.613l.493-.085Zm2.865 19.442-2.864-19.436-.495.073 2.865 19.436.494-.073Zm-2.32-18.902 2.715 18.423.494-.072-2.715-18.424-.494.073Zm15.13-3.025c-7.537 3.1-13.093 2.881-14.863 2.739l-.04.498c1.825.147 7.465.363 15.093-2.775l-.19-.462Zm9.312-5.091a48.867 48.867 0 0 1-9.313 5.091l.191.462a49.377 49.377 0 0 0 9.409-5.143l-.287-.41Zm9.388 14.273-9.034-14.202-.422.268 9.034 14.202.422-.268Zm-12.571 8.558c8.341-3.219 11.794-7.281 12.558-8.271l-.396-.305c-.715.926-4.096 4.928-12.342 8.109l.18.467Zm-18.279 3.921a67.561 67.561 0 0 0 18.274-3.92l-.171-.469a67.077 67.077 0 0 1-18.14 3.891l.037.498Z" fill="#001550"/><path d="M187.876 62.908s2.284 1.103 4.558-2.64c2.275-3.742 4.26-13.993-.748-14.87-6.768-3.182-9.052 1.437-9.052 1.437l-4.11-14.31s-1.133-13.217-9.801-12.114c-8.668 1.103-13.685 10.35-13.685 10.35l-23.487.905-.683 12.774s-3.875-2.64-5.017.66c-1.142 3.3-1.142 14.319 8.424 17.836 0 0 3.745 16.408 15.221 25.384l5.617.317-1.245 12.846c2.643 5.325 7.419 9.379 13.227 11.228 9.585 2.865 18.44-15.152 18.44-15.152s.225-22.329 2.341-34.65Z" fill="#fff" stroke="#001550"/><path d="M133.546 62.411h-.113c-4.371-.985-7.386-4.167-8.425-8.976-.992-4.403-.103-9.203 1.283-10.243a2.123 2.123 0 0 1 1.694-.398c2.088.344 4.138 3.372 4.222 3.499a.445.445 0 0 1-.136.628.48.48 0 0 1-.65-.13c-.525-.787-2.2-2.876-3.595-3.11a1.22 1.22 0 0 0-.936.225c-.936.687-1.928 5-.936 9.339.711 3.146 2.63 7.132 7.769 8.29.251.058.405.3.347.542a.459.459 0 0 1-.524.334Z" fill="#001550" stroke="#001550"/><path d="M196.9 115.116a.548.548 0 0 1 0 .081 61.16 61.16 0 0 1-7.938 8.38 80.513 80.513 0 0 1-17.14 11.662l-.14.081-4.147-24.083a57.39 57.39 0 0 0 15.604-12.71l.3-.308c.646-.686 1.75-1.663 2.087-2.17 1.142-1.708.936-.976.936-.976l-.749-3.426-.393-1.744.422.19c11.186 7.837 11.41 23.63 11.158 25.023Z" fill="#fff" stroke="#001550" stroke-width="2"/><path d="M171.663 135.79a.436.436 0 0 1-.206-.054.435.435 0 0 1-.253-.325l-4.156-24.083a.477.477 0 0 1 .131-.389.652.652 0 0 1 .234-.135 95.081 95.081 0 0 0 14.828-11.988l1.048-1.085a46.99 46.99 0 0 0 3.894-4.32.48.48 0 0 1 .655-.11.444.444 0 0 1 .113.634 48.433 48.433 0 0 1-3.979 4.411l-1.048 1.085a96.606 96.606 0 0 1-14.893 12.06l3.978 23.115a149.409 149.409 0 0 0 16.634-11.354c.394-.308.777-.633 1.152-.949 3.36-2.839 5.616-5.289 6.665-7.305.384-1.482-1.105-16.516-10.615-24.408a.44.44 0 0 1-.156-.427.455.455 0 0 1 .304-.343.48.48 0 0 1 .46.083c9.997 8.262 11.327 23.676 10.905 25.312v.118c-1.151 2.178-3.463 4.728-6.908 7.639-.374.325-.777.65-1.17.967a152.084 152.084 0 0 1-17.196 11.698.823.823 0 0 1-.168.09.44.44 0 0 1-.253.063Z" fill="#001550" stroke="#001550" stroke-width=".5"/><path d="m167.516 111.255-11.018 24.12s-11.607-15.007-11.944-27.492c1.685-6.734 3.501-10.486 10.699-14.563l-.814 4.854s1.329 11.472 13.077 13.081Z" fill="#fff" stroke="#001550" stroke-width="2"/><path d="m166.936 111.418-10.512 22.98c-2.032-3.028-10.26-15.829-11.393-26.533 2.275-11.734 9.914-13.759 9.998-13.759.12-.028.223-.1.286-.203a.428.428 0 0 0 .051-.34.479.479 0 0 0-.571-.334c-.337.073-8.322 2.134-10.7 14.537a.297.297 0 0 0 0 .126c1.283 12.431 11.917 27.555 12.02 27.699a.46.46 0 0 0 .384.199l.046-.009a.466.466 0 0 0 .384-.271" stroke="#001550" stroke-width=".5"/><path d="M154.57 98.382h-.131a.45.45 0 0 1-.328-.551c.751-2.993.944-6.09.571-9.149a.456.456 0 0 1 .402-.506.466.466 0 0 1 .525.389c.399 3.175.2 6.394-.59 9.5a.467.467 0 0 1-.449.317ZM185.966 96.04a.461.461 0 0 1-.468-.424c-1.039-20.856 2.34-32.879 2.378-32.996a.489.489 0 0 1 .58-.317.45.45 0 0 1 .318.56c0 .118-3.369 12.015-2.349 32.708a.432.432 0 0 1-.118.324.463.463 0 0 1-.322.146h-.019ZM150.666 65.422a7.62 7.62 0 0 1-1.676-.226c-1.544-.352-3.398-.958-4.034-2.567a4.014 4.014 0 0 1 .833-3.788c.328-.443.693-.85 1.048-1.248.461-.472.878-.984 1.245-1.527 1.489-2.333 1.068-5.298.459-8.38a.462.462 0 0 1 .375-.534.466.466 0 0 1 .542.362c.618 3.136 1.086 6.418-.58 9.04-.394.586-.839 1.14-1.329 1.654-.356.374-.69.767-1.002 1.175a3.33 3.33 0 0 0-.711 2.938c.477 1.212 2.05 1.709 3.37 2.007a3.617 3.617 0 0 0 2.565-.054.482.482 0 0 1 .468-.015.45.45 0 0 1 .248.384.448.448 0 0 1-.22.4 3.118 3.118 0 0 1-1.601.38Z" fill="#001550" stroke="#001550"/><path d="M144.601 49.267c.084 1.69-.618 3.092-1.564 3.128-.945.036-1.769-1.293-1.872-2.983-.103-1.69.618-3.092 1.563-3.137.946-.045 1.798 1.302 1.873 2.992ZM163.847 48.824c.084 1.69-.618 3.092-1.564 3.128-.945.036-1.769-1.293-1.872-2.983-.103-1.69.618-3.092 1.563-3.137.946-.045 1.798 1.302 1.873 2.992Z" fill="#001550"/><path d="M155.066 72.094a11.86 11.86 0 0 1-5.017-.995.45.45 0 0 1-.198-.292.438.438 0 0 1 .076-.34.473.473 0 0 1 .646-.118 12.309 12.309 0 0 0 6.786.624c2.655-.533 4.963-2.104 6.375-4.34a.497.497 0 0 1 .655-.135.451.451 0 0 1 .131.632c-1.549 2.45-4.087 4.164-7.002 4.728a12.29 12.29 0 0 1-2.452.236ZM155.403 39.784a.482.482 0 0 1-.374-.18.443.443 0 0 1 .093-.633c4.091-2.902 6.89-3.01 11.102-.443.216.135.282.41.15.623a.478.478 0 0 1-.646.136c-3.903-2.378-6.253-2.278-10.044.407a.47.47 0 0 1-.281.09ZM138.179 41.402a.498.498 0 0 1-.309-.108.435.435 0 0 1-.056-.633c2.199-2.379 5.867-2.847 8.631-1.103a.45.45 0 0 1 .112.633.479.479 0 0 1-.646.108c-2.353-1.497-5.485-1.114-7.376.904a.462.462 0 0 1-.356.2Z" fill="#001550" stroke="#001550"/><path d="M152.304 88.9a20.544 20.544 0 0 1-2.864-.163.472.472 0 0 1-.215-.082c-.253-.199-6.319-4.773-11.168-14.274-8.256-16.155-6.674-39.506-6.655-39.777a.464.464 0 0 1 .5-.42.46.46 0 0 1 .436.483c0 .235-1.582 23.342 6.552 39.28a43.479 43.479 0 0 0 10.812 13.876c3.272.303 6.574.064 9.764-.705 6.056-1.419 11.794-6.002 15.557-9.591a.47.47 0 0 1 .656 0 .428.428 0 0 1 0 .632c-3.838 3.67-9.726 8.354-15.989 9.836-2.416.58-4.895.884-7.386.904Z" fill="#001550" stroke="#001550"/><path d="M175.351 78.34a.453.453 0 0 1-.412-.678c4.634-8.01 5.617-13.135 5.663-13.18a.464.464 0 0 1 .307-.351.488.488 0 0 1 .468.081c.13.106.192.27.161.432-.046.208-1.057 5.307-5.775 13.461a.462.462 0 0 1-.412.235ZM187.801 63.216c-2.659 0-3.567-1.546-3.613-1.627a.445.445 0 0 1 .187-.615.477.477 0 0 1 .636.18c0 .073 1.096 1.764 4.597.905 2.171-.524 4.727-6.265 4.802-10.785 0-1.736-.309-4.764-2.809-5.424-5.803-1.582-8.855 6.663-8.883 6.744a.482.482 0 0 1-.599.28.448.448 0 0 1-.281-.578c0-.09 3.37-9.122 10.016-7.323 2.322.633 3.576 2.884 3.529 6.328-.075 4.656-2.63 10.948-5.513 11.644a8.496 8.496 0 0 1-2.069.271Z" fill="#001550" stroke="#001550"/><path d="M183.588 50.605c-.711 1.456-3.482.172-4.502-1.103a3.667 3.667 0 0 1 0-4.52c-2.163-.606-4.596-1.546-5.533-3.526a6.441 6.441 0 0 1-.402-3.155c.196-2.901.936-5.794.627-8.687-.309-2.893-2.162-5.921-5.13-6.455 0 0-10.297 17.8-29.72 10.613 0 0-8.659 3.996-12.6-2.847-3.941-6.844 1.376-14.076 12.403-18.641 0 0-6.89-.19-6.693-3.616.197-3.426 16.915-4.376 28.738-1.871 0 0-1.395-5.994 13.18-4.285 14.575 1.708 19.293 5.677 21.081 15.503 10.68 5.623-1.32 28.802-1.32 28.802s-5.645-5.46-10.129 3.788Z" fill="#001550"/><path d="M130.391 31.25a14.228 14.228 0 0 0-1.096 12.277l3.005 4.52-.468-15.368-1.441-1.429Z" fill="#001550"/><path d="M194.11 19.841a.383.383 0 0 1-.14 0 .449.449 0 0 1-.3-.569c3.969-11.752-4.503-17.176-4.868-17.438a.452.452 0 0 1-.131-.633.478.478 0 0 1 .646-.127c.094.054 9.436 6.093 5.242 18.478a.468.468 0 0 1-.449.29Z" fill="#001550" stroke="#001550"/><path stroke="#001550" stroke-width="2" d="M20.33 281.96h268.914M294.731 281.96h25.245"/></svg>