<svg width="389" height="260" fill="none" aria-hidden="true" xmlns="http://www.w3.org/2000/svg"><path d="M247.649 253.745c0 3.069-34.152 5.537-76.286 5.537s-76.278-2.484-76.278-5.537 34.152-5.537 76.278-5.537c42.126 0 76.286 2.468 76.286 5.537Z" fill="#8BAAFF"/><path opacity=".4" d="M247.649 253.745c0 3.069-34.152 5.537-76.286 5.537s-76.278-2.484-76.278-5.537 34.152-5.537 76.278-5.537c42.126 0 76.286 2.468 76.286 5.537Z" fill="#fff"/><path d="M134.449 241.321s-.457 2.051-5.682 4.773c-5.226 2.721-11.132 6.58-8.184 8.164 2.949 1.584 13.409-2.041 16.367-4.762 2.958-2.722 6.353-4.316 6.353-6.581 0-2.264-2.724-3.635-4.991-3.635a3.893 3.893 0 0 0-3.863 2.041Z" fill="#001550" stroke="#001550" stroke-width="2" stroke-linecap="round" stroke-linejoin="round"/><path d="M138.994 230.436c-1.363 4.082-5.002 6.347-5.002 7.484a24.37 24.37 0 0 0 .458 3.402 19.249 19.249 0 0 0 5.225 2.051c2.5.447 3.629-.457 3.629-.457s2.734-2.041 3.415-2.722c.681-.68 2.501-1.817 2.267-4.092-.233-2.274-1.138-3.178-.223-5.219.914-2.041 20.219-33.358 20.219-33.358l-15.899-6.133s-12.727 34.952-14.089 39.044ZM215.103 244.956s14.313 6.581 14.546 8.175c.234 1.594-10.002 1.808-14.546 1.361-4.544-.448-7.493-4.316-7.493-4.316s1.586-5.9 7.493-5.22Z" fill="#001550" stroke="#001550" stroke-width="2" stroke-linecap="round" stroke-linejoin="round"/><path d="M194.202 191.848s5.906 36.77 8.183 43.807c2.277 7.037-.691 6.347.448 8.398a53.501 53.501 0 0 0 4.777 6.123s4.087-3.635 5.907-3.888c1.819-.253 3.181-.457 3.181-.457s-.914-4.539-1.595-5.443c-.681-.904-1.139-4.082-1.82-6.58s-1.81-43.807-1.81-43.807-12.503 2.304-17.271 1.847Z" fill="#001550" stroke="#001550" stroke-width="2" stroke-linecap="round" stroke-linejoin="round"/><path d="M170.344 37.742a84.29 84.29 0 0 0-8.864 7.26C156.031 50 146.943 57.26 146.486 58.854c-.458 1.594 6.139 31.317 8.64 40.823 2.501 9.506 3.182 53.332 0 68.31a180.563 180.563 0 0 1-8.407 27.691 39.124 39.124 0 0 0 23.849 6.804c14.089-.69 20.433-4.539 27.497-3.888 7.064.652 14.995.447 18.634-4.315 3.639-4.763 7.492-6.58 9.73-9.535a11.49 11.49 0 0 0 2.267-6.357s-2.043-7.717-9.545-31.997-7.493-56.744-8.855-63.547c-1.362-6.804-4.544-27.459-7.726-33.135-3.181-5.676-16.074-9.924-22.457-11.051-6.383-1.128-7.492-2.051-9.769-.914Z" fill="#10B981"/><path d="M170.344 37.742a84.29 84.29 0 0 0-8.864 7.26C156.031 50 146.943 57.26 146.486 58.854c-.458 1.594 6.139 31.317 8.64 40.823 2.501 9.506 3.182 53.332 0 68.31a180.563 180.563 0 0 1-8.407 27.691 39.124 39.124 0 0 0 23.849 6.804c14.089-.69 20.433-4.539 27.497-3.888 7.064.652 14.995.447 18.634-4.315 3.639-4.763 7.492-6.58 9.73-9.535a11.49 11.49 0 0 0 2.267-6.357s-2.043-7.717-9.545-31.997-7.493-56.744-8.855-63.547c-1.362-6.804-4.544-27.459-7.726-33.135-3.181-5.676-16.074-9.924-22.457-11.051-6.383-1.128-7.492-2.051-9.769-.914Z" stroke="#001550" stroke-width="2" stroke-linecap="round" stroke-linejoin="round"/><path d="m171.463 63.082 12.873 18.107 7.55-22.909s-.525-9.875-4.359-13.335c-3.833-3.46-8.115-8.573-14.517-4.063-6.403 4.51-5.225 10.439-4.933 13.608.292 3.168 3.386 8.592 3.386 8.592Z" fill="#fff" stroke="#001550" stroke-width="2" stroke-miterlimit="10"/><path d="m176.201 55.957 3.775 4.355-.865 13.345 5.225 7.533 3.483-9.565-4.651-11.313.584-6.96-4.641-4.062-2.91 6.667Z" fill="#001550" stroke="#001550" stroke-width="2" stroke-miterlimit="10"/><path d="m179.616 54.315-8.153 8.747s-4.233-13.15-4.866-17.69c-.632-4.538.779-5.481 3.134-6.89 2.354-1.41 6.052-.807 8.932-.156 2.88.651 4.398 1.876 5.021 3.13.622 1.253 7.365 17.7 7.365 17.7l-11.433-4.841Z" fill="#fff" stroke="#001550" stroke-width="2" stroke-miterlimit="10"/><path d="M184.395 78.342c5.361 27.38 11.861 74.239 5.789 120.388" stroke="#001550" stroke-width="2" stroke-miterlimit="10"/><path d="M189.084 89.957a1.351 1.351 0 1 0 .001-2.703 1.351 1.351 0 0 0-.001 2.703ZM192.967 120.564a1.351 1.351 0 1 0 .001-2.703 1.351 1.351 0 0 0-.001 2.703Z" fill="#001550"/><path d="M165.683 31.542s2.423 5.083 2.656 8.203c.234 3.12 7.872 14.444 10.529 14.444 2.656 0 2.549-8.554 2.199-12.364-.351-3.81.69-5.9 1.041-6.357.35-.456-4.865-1.846-8.096-4.276-3.23-2.43-5.906-2.78-7.181-2.314-1.274.467-1.148 2.664-1.148 2.664Z" fill="#fff"/><path d="M165.683 31.542s2.423 5.083 2.656 8.203c.234 3.12 7.872 14.444 10.529 14.444 2.656 0 2.549-8.554 2.199-12.364-.351-3.81.69-5.9 1.041-6.357.35-.456-4.865-1.846-8.096-4.276-3.23-2.43-5.906-2.78-7.181-2.314-1.274.467-1.148 2.664-1.148 2.664Z" stroke="#001550" stroke-width="2" stroke-linecap="round" stroke-linejoin="round"/><path d="M160.361 28.412s3.815 3.936 5.897 4.393c2.082.457 3.59-1.157 2.773-2.77-.817-1.614-.341-4.044 2.082-3.703 2.423.34 4.398-1.73 3.591-4.5-.808-2.77-2.083-5.434-5.089-4.86-3.007.573-12.153 6.24-9.254 11.44Z" fill="#001550" stroke="#001550" stroke-width="2" stroke-linecap="round" stroke-linejoin="round"/><path d="M185.582 13.045s1.849 4.044 3.581 5.667c1.732 1.623 3.24 1.263 2.666 2.537-.574 1.273-3.124 2.916-3.124 2.916s.234 5.773 0 8.543c-.233 2.77 0 3.587-2.549 4.053a21.919 21.919 0 0 1-10.363-1.186 9.543 9.543 0 0 1-5.322-4.276 11.5 11.5 0 0 1-3.24-.35c-2.199-.457-4.048-5.084-2.773-6.804a3.386 3.386 0 0 1 4.738-.583c.818.972 1.742 1.847 2.433 1.847.691 0 2.082-.574 1.275-2.08-.808-1.507-1.742-2.77-.468-3.81 1.275-1.04 11.064-6.59 13.146-6.474Z" fill="#fff"/><path d="M185.582 13.045s1.849 4.044 3.581 5.667c1.732 1.623 3.24 1.263 2.666 2.537-.574 1.273-3.124 2.916-3.124 2.916s.234 5.773 0 8.543c-.233 2.77 0 3.587-2.549 4.053a21.919 21.919 0 0 1-10.363-1.186 9.543 9.543 0 0 1-5.322-4.276 11.5 11.5 0 0 1-3.24-.35c-2.199-.457-4.048-5.084-2.773-6.804a3.386 3.386 0 0 1 4.738-.583c.818.972 1.742 1.847 2.433 1.847.691 0 2.082-.574 1.275-2.08-.808-1.507-1.742-2.77-.468-3.81 1.275-1.04 11.064-6.59 13.146-6.474Z" stroke="#001550" stroke-width="2" stroke-linecap="round" stroke-linejoin="round"/><path d="M188.705 24.145a8.009 8.009 0 0 0-5.128 3.46c-1.829 2.916 0 3.412 1.138 2.722 1.139-.69 3.182-2.265 4.321-2.916 1.138-.652 1.42-3.5-.331-3.266Z" fill="#001550" stroke="#001550" stroke-width="2" stroke-linecap="round" stroke-linejoin="round"/><path d="M183.881 20.779c.357-.136.39-.917.074-1.745-.315-.827-.86-1.388-1.217-1.253-.356.136-.389.917-.074 1.745.316.827.861 1.388 1.217 1.253Z" fill="#001550"/><path d="M180.215 17.793a4.519 4.519 0 0 1 3.697-2.148" stroke="#001550" stroke-width="2" stroke-linecap="round" stroke-linejoin="round"/><path d="M156.332 37.082a49.58 49.58 0 0 1 9.264-12.937c6.363-6.473 30.163-13.18 31.467-15.027 1.304-1.847-10.995 1.157-10.995 1.157s-7.171-8.67-17.583-9.253c-10.411-.584-13.418 10.75-13.534 16.416-.117 5.667 2.773 12.247 2.773 12.247s-3.27 8.32-1.392 7.397Z" fill="#FFC966"/><path d="M156.332 37.082a49.58 49.58 0 0 1 9.264-12.937c6.363-6.473 30.163-13.18 31.467-15.027 1.304-1.847-10.995 1.157-10.995 1.157s-7.171-8.67-17.583-9.253c-10.411-.584-13.418 10.75-13.534 16.416-.117 5.667 2.773 12.247 2.773 12.247s-3.27 8.32-1.392 7.397Z" stroke="#001550" stroke-width="2" stroke-linecap="round" stroke-linejoin="round"/><path d="M157.695 29.685s-3.24 8.32-1.392 7.397a49.581 49.581 0 0 1 9.264-12.937c6.363-6.473 30.163-13.18 31.467-15.027 1.304-1.846-10.995 1.157-10.995 1.157s-8.212 4.277-15.033 8.748a114.094 114.094 0 0 0-13.311 10.662Z" fill="#FFC966" stroke="#001550" stroke-width="2" stroke-linecap="round" stroke-linejoin="round"/><path d="M160.701 3.568s.117 11.207 8.446 16.874" stroke="#001550" stroke-width="2" stroke-linecap="round" stroke-linejoin="round"/><path d="m157.968 111.388 3.542.972s6.12-4.267 6.811-4.393c.691-.126 6.48 3.178 8.319 4.646 1.839 1.468 4.155 3.052 3.542 3.538-.613.486-1.946-.126-2.812-.612-.866-.486-6.111-3.052-6.111-3.052s3.892 2.566 5.255 3.664c1.362 1.098 3.298 1.711 2.812 2.323a1.624 1.624 0 0 1-1.719.748 1.627 1.627 0 0 1-.607-.262c-1.216-.612-7.453-4.15-7.453-4.15s5.254 3.538 6.237 4.393c.983.855.973 2.08-.127 2.08-1.099 0-4.154-1.594-5.254-2.197-1.099-.602-4.281-2.206-4.281-2.206a45.414 45.414 0 0 1 3.785 4.762c.739 1.352 1.839 3.062.613 3.062s-2.919-2.809-3.785-3.79c-.866-.982-4.038-2.08-4.038-2.08a22.458 22.458 0 0 1-4.642 1.594c-2.082.359-6.237-4.034-6.237-4.034l6.15-5.006Z" fill="#fff" stroke="#001550" stroke-width="2" stroke-linecap="round" stroke-linejoin="round"/><path d="m161.509 112.399-3.027 3.636M169.585 114.849l-1.956-1.166M171.297 112.526l-2.199-1.205" stroke="#001550" stroke-width="2" stroke-linecap="round" stroke-linejoin="round"/><path d="M130.129 70.877s-14.537 12.033-14.77 12.937c-.234.904 36.809 35.185 36.809 35.185l6.811-7.494-20.219-27.01 15.451-9.72s1.362-7.485-.905-11.8a9.995 9.995 0 0 0-6.811-4.996l-16.366 12.898Z" fill="#10B981"/><path d="M130.129 70.877s-14.537 12.033-14.77 12.937c-.234.904 36.809 35.185 36.809 35.185l6.811-7.494-20.219-27.01 15.451-9.72s1.362-7.485-.905-11.8a9.995 9.995 0 0 0-6.811-4.996l-16.366 12.898Z" stroke="#001550" stroke-width="2" stroke-linecap="round" stroke-linejoin="round"/><path d="M231.693 70.391s-14.177-8.067-20.054-13.802c-5.877-5.734-8.309-8.427-8.922-6.23-.614 2.197 5.137 31.103 6.237 31.628 1.099.525 24.325 8.796 28.976 9.039 4.651.243 7.784.612 8.319-1.458.536-2.07-2.919-8.427-7.219-13.442-4.301-5.016-7.337-5.735-7.337-5.735Z" fill="#10B981"/><path d="M231.693 70.391s-14.177-8.067-20.054-13.802c-5.877-5.734-8.309-8.427-8.922-6.23-.614 2.197 5.137 31.103 6.237 31.628 1.099.525 24.325 8.796 28.976 9.039 4.651.243 7.784.612 8.319-1.458.536-2.07-2.919-8.427-7.219-13.442-4.301-5.016-7.337-5.735-7.337-5.735Z" stroke="#001550" stroke-width="2" stroke-linecap="round" stroke-linejoin="round"/><path d="M167.163 40.697s6.363 19.517 9.088 32.911c2.724 13.394 3.892 25.864 3.892 25.864s-3.892-2.488-14.313-3.402c-10.422-.913-15.219-2.498-19.763-11.119-4.544-8.621-7.502-7.941-12.046-9.302-4.544-1.36-5.906-3.888-5.906-3.888s37.462-31.326 39.048-31.064Zm14.4-1.7a122.856 122.856 0 0 1 8.193 21.013c3.542 12.208 8.563 38.88 8.563 38.88s8.679-.973 11.248-6.474c2.569-5.502 2.685-7.582 6.811-9.04 4.126-1.458 9.789-4.52 10.275-8.427a61.31 61.31 0 0 1 1.586-7.824s-22.856-18.924-26.408-21.383c-3.551-2.46-19.285-7.718-20.268-6.746Z" fill="#10B981"/><path d="M167.163 40.697s6.363 19.517 9.088 32.911c2.724 13.394 3.892 25.864 3.892 25.864s-3.892-2.488-14.313-3.402c-10.422-.913-15.219-2.498-19.763-11.119-4.544-8.621-7.502-7.941-12.046-9.302-4.544-1.36-5.906-3.888-5.906-3.888s37.462-31.326 39.048-31.064Zm14.4-1.7a122.856 122.856 0 0 1 8.193 21.013c3.542 12.208 8.563 38.88 8.563 38.88s8.679-.973 11.248-6.474c2.569-5.502 2.685-7.582 6.811-9.04 4.126-1.458 9.789-4.52 10.275-8.427a61.31 61.31 0 0 1 1.586-7.824s-22.856-18.924-26.408-21.383c-3.551-2.46-19.285-7.718-20.268-6.746ZM221.252 38.306s.914 5.424 1.226 6.717c.311 1.292 3.279 5.044 3.279 5.044l-4.962 3.13a65.228 65.228 0 0 0-3.893-6.182c-.836-.846-5.04-1.944-6.266-3.596-1.226-1.652-.914-3.587-1.226-4.811-.311-1.225-3.133-4.734-2.442-5.268.691-.535 2.141-.078 2.822.767.681.846.69 2.061.973 2.673.282.613 4.047 2.916 4.047 2.916s-1.683-4.811-1.946-5.491a1.352 1.352 0 0 1-.064-.579 1.352 1.352 0 0 1 .591-.971c.164-.109.349-.18.544-.21.759 0 4.203 3.363 4.203 3.363l3.114 2.498Z" stroke="#001550" stroke-width="2" stroke-linecap="round" stroke-linejoin="round"/><path d="M206.785 29.01c2.995-1.494 3.211-7.128.482-12.583-2.728-5.455-7.368-8.666-10.363-7.17-2.995 1.494-3.211 7.128-.482 12.583s7.369 8.665 10.363 7.17Z" fill="#fff" stroke="#001550" stroke-width="2" stroke-linecap="round" stroke-linejoin="round"/><path d="M205.573 27.718c2.057-1.027 1.854-5.6-.454-10.216-2.309-4.614-5.848-7.523-7.905-6.496-2.058 1.027-1.854 5.6.454 10.215 2.308 4.615 5.847 7.523 7.905 6.497Z" fill="#fff" stroke="#001550" stroke-width="2" stroke-linecap="round" stroke-linejoin="round"/><path d="m206.491 28.625 8.592 12.83a1.456 1.456 0 0 0 .963.63 1.453 1.453 0 0 0 1.504-.698 1.461 1.461 0 0 0 .153-1.117 1.451 1.451 0 0 0-.256-.516l-9.545-12.15a.684.684 0 0 0-.973-.145l-.321.214a.688.688 0 0 0-.117.952Z" fill="#001550" stroke="#001550" stroke-width="2" stroke-linecap="round" stroke-linejoin="round"/><path d="M212.768 30.424s-2.55 1.575-2.433 2.43c.117.855.486 1.205 1.216 1.205s2.666-1.088 3.396-1.448c.73-.36.204-3.15-2.179-2.187Z" fill="#fff" stroke="#001550" stroke-width="2" stroke-linecap="round" stroke-linejoin="round"/><path d="M213.74 33.34a29.53 29.53 0 0 0-2.442 3.82c-.078.534 4.349 4.86 5.118 4.86.769 0 4.972-2.596 4.816-3.665-.155-1.07-4.437-4.277-5.196-5.044-.758-.768-1.44-1.04-2.296.029Z" fill="#fff" stroke="#001550" stroke-width="2" stroke-linecap="round" stroke-linejoin="round"/><path d="m212.612 38.685 4.126-4.889M219.034 36.168l-4.126 4.656" stroke="#001550" stroke-width="2" stroke-linecap="round" stroke-linejoin="round"/><path d="m231.323 78.818-12.591-26.38 9.293-4.86s9.905 11.48 13.943 19.44c4.038 7.96 5.838 20.645 4.281 22.598-1.556 1.954-8.689.603-12.23-1.594" fill="#10B981"/><path d="m231.323 78.818-12.591-26.38 9.293-4.86s9.905 11.48 13.943 19.44c4.038 7.96 5.838 20.645 4.281 22.598-1.556 1.954-8.689.603-12.23-1.594" stroke="#001550" stroke-width="2" stroke-linecap="round" stroke-linejoin="round"/></svg>