<svg viewBox="0 0 429 333" fill="none" aria-hidden="true" xmlns="http://www.w3.org/2000/svg"><path d="M311.67 288.466c40.287 0 72.946-9.704 72.946-21.675s-32.659-21.675-72.946-21.675c-40.288 0-72.947 9.704-72.947 21.675s32.659 21.675 72.947 21.675Z" fill="#001550" stroke="#001550" stroke-width="1.5" stroke-linecap="round" stroke-linejoin="round"/><path d="M311.67 255.083c34.503 0 63.398 7.084 70.986 16.686a8.101 8.101 0 0 0 1.96-4.978c0-11.981-32.664-21.685-72.946-21.685-40.283 0-72.957 9.704-72.957 21.685a8.101 8.101 0 0 0 1.96 4.978c7.588-9.562 36.483-16.686 70.997-16.686Z" fill="#fff" stroke="#001550" stroke-width="1.5" stroke-linecap="round" stroke-linejoin="round"/><path d="M301.708 285.744c-24.37-1.103-42.758-6.071-42.758-12.143.013-.662.22-1.306.596-1.851M358.256 267.691c4.173 1.771 6.557 3.795 6.557 5.95 0 6.81-23.702 12.325-52.931 12.325h-1.263M266.073 267.459c9.164-3.673 26.269-6.153 45.809-6.153a186.047 186.047 0 0 1 33.179 2.722M301.011 277.872c-6.174-.861-10.306-2.429-10.306-4.23 0-2.722 9.487-4.928 21.217-4.928 11.73 0 21.167 2.206 21.167 4.928 0 2.337-6.972 4.29-16.327 4.796" stroke="#fff" stroke-width="1.5" stroke-linecap="round" stroke-linejoin="round"/><path d="M18.701 179.656c31.816-9.056 98.761-26.926 135.709-28.272 49.668-1.761 133.527 34.344 185.882 40.668 52.356 6.325 87.536 4.523 87.536 4.523M1 184.827s2.748-.839 7.567-2.246M413.694 128.495a230.335 230.335 0 0 0-55.872-5.292c-38.818 1.305-80.827 6.446-132.769 13.154C173.111 143.066 99.144 106 48.85 119.752c-50.295 13.752-46.476 17.89-46.476 17.89M428 132.219s-1.96-.648-5.506-1.589" stroke="#001550" stroke-width="2" stroke-linecap="round" stroke-linejoin="round"/><path d="M130.98 193.975a1.912 1.912 0 0 1-1.01-.273 2.025 2.025 0 0 1-.707-2.702c.495-.87 125.413-137.304 182.568-187.333a1.009 1.009 0 0 1 1.374.102 1.015 1.015 0 0 1-.101 1.396c-56.872 49.816-179.941 186.958-180.436 187.818a1.945 1.945 0 0 1-1.688.992Z" fill="#001550"/><path d="M137.881 166.826s6.193-6.618 9.911-6.618 10.74 6.203 10.326 9.512c-.414 3.309-6.608.415-6.608.415s-5.789 7.862-11.568 6.618c-5.779-1.245-2.061-9.927-2.061-9.927Z" fill="#fff" stroke="#001550" stroke-width="2" stroke-linecap="round" stroke-linejoin="round"/><path d="M151.541 170.114s3.789 2.631 4.122 4.483c.334 1.852-4.203 7.083-9.244 8.257-5.042 1.174-7.74-1.69-6.224-4.381 1.515-2.692 7.527-8.116 11.346-8.359Z" fill="#fff" stroke="#001550" stroke-width="2" stroke-linecap="round" stroke-linejoin="round"/><path d="M307.133 146.143V9.243s-2.758 9.907-2.758 10.625" stroke="#001550" stroke-width="2" stroke-linecap="round" stroke-linejoin="round"/><path d="M364.136 153.357H259.324v84.109h104.812v-84.109Z" fill="#FFC966" stroke="#001550" stroke-width="2" stroke-linecap="round" stroke-linejoin="round"/><path d="M308.628 153.003v-4.816a1.203 1.203 0 1 0-2.404 0v4.816h2.404ZM318.247 141.286v.242a1.167 1.167 0 0 0-1.011-.617 1.21 1.21 0 0 0-1.212 1.214v12.862a3.713 3.713 0 0 1-3.698 3.713 3.605 3.605 0 0 1-1.475-.313 2.022 2.022 0 0 0 .303 2.61 6.113 6.113 0 0 0 7.285-6.01v-5.96h2.768l-2.96-7.741Z" fill="#001550"/><path d="M307.234 7.958s2.142-7.62.243-6.912c-1.899.709-.243 6.912-.243 6.912ZM307.234 7.958s-8.083-2.864-7.365-.243c.717 2.62 7.365.243 7.365.243Z" stroke="#001550" stroke-width="2" stroke-linecap="round" stroke-linejoin="round"/><path d="M132.94 74.369s-9.972-5.596-29.532-2.793c-19.56 2.803-23.288 18.953-20.095 35.74 3.192 16.788 21.692 31.005 24.49 29.811 2.799-1.194-.798-38.776 5.587-45.97 6.386-7.195 27.138-5.991 28.29-11.587 1.152-5.596-8.74-5.201-8.74-5.201Z" fill="#001550" stroke="#001550" stroke-width="2" stroke-linecap="round" stroke-linejoin="round"/><path d="m98.174 84.336 2.021 13.225s-12.528 34.253-10.497 39.009c2.03 4.756 20.985 6.436 20.985 6.436s30.815 3.734 39.958 0c9.144-3.734 4.406-14.582 3.385-17.628-1.02-3.045-6.769-27.472-6.769-27.472s2.021-5.768 2.021-8.814c0-3.046-.344-11.536-1.698-13.57-1.354-2.034-25.056-4.412-35.554-2.712-10.497 1.7-15.205 4.412-13.852 11.526Z" fill="#FFC966" stroke="#001550" stroke-width="2" stroke-linecap="round" stroke-linejoin="round"/><path d="M103.6 99.605s-.343 29.497 1.354 35.265c1.698 5.768 8.467 12.547 22.682 10.847 14.216-1.7 15.58-15.259 15.58-15.259l-1.011-31.53-38.605.677Z" fill="#fff" stroke="#001550" stroke-width="2" stroke-linecap="round" stroke-linejoin="round"/><path d="M127.98 120.794a2.55 2.55 0 0 1-3.037 2.513 2.554 2.554 0 0 1-2.006-2.001 2.55 2.55 0 0 1 4.296-2.311 2.531 2.531 0 0 1 .747 1.799Z" stroke="#001550" stroke-width="2" stroke-miterlimit="10"/><path d="M127.636 131.48a1.703 1.703 0 0 1-1.05 1.572 1.702 1.702 0 0 1-1.851-.373 1.7 1.7 0 1 1 2.775-1.849c.085.207.127.428.126.65ZM117.412 109.917c1.081 1.173 1.455 2.58.848 3.157-.606.576-2.02.091-3.081-1.073s-1.465-2.57-.849-3.147c.616-.577 2.001-.101 3.082 1.063ZM131.162 109.917c-1.081 1.173-1.465 2.58-.849 3.157.617.576 2.021.091 3.031-1.073 1.011-1.164 1.465-2.57.849-3.147-.616-.577-1.95-.101-3.031 1.063Z" fill="#001550"/><path d="M110.178 105.919a6.458 6.458 0 0 1 7.072-2.61M130.627 103.683s4.829-1.487 6.325 2.611" stroke="#001550" stroke-width="2" stroke-linecap="round" stroke-linejoin="round"/><path d="M146.934 292.928s5.324-3.197 8.274-4.452c.277-.127.56-.239.849-.334 2.607-.87 9.992-.435 16.933-4.786 6.941-4.351 3.476-9.573-1.738-10.878-5.213-1.306-10.851-3.036-10.851-3.036l-1.303-20.45s-15.64 4.351-20.853 6.526c-5.214 2.176-2.173 33.059-1.738 35.67.434 2.611.434 4.351 10.427 1.74Z" fill="#001550" stroke="#001550" stroke-width="2" stroke-linecap="round" stroke-linejoin="round"/><path d="M164.311 283.356c-9.093 1.74-9.093 3.481-19.115 5.221-2.936.587-5.93.832-8.922.729.101.931.182 1.588.233 1.882.434 2.611.434 4.351 10.427 1.74 0 0 5.324-3.197 8.274-4.452.277-.127.56-.239.849-.334 2.607-.87 9.992-.435 16.933-4.786 2.233-1.386 3.375-2.874 3.749-4.291a52.046 52.046 0 0 1-12.428 4.291Z" fill="#fff" stroke="#001550" stroke-width="2" stroke-linecap="round" stroke-linejoin="round"/><path d="M167.929 272.215s-.334 23.739-1.011 28.819c-.677 5.079.334 11.535 8.083 11.535 7.749 0 23.026-5.059 28.441-6.071 5.416-1.012 14.226-3.4 17.944-11.87 3.718-8.469-18.954-7.467-18.954-7.467l1.354-17.294s-23.329 4.716-35.857 2.348Z" fill="#001550" stroke="#001550" stroke-width="2" stroke-linecap="round" stroke-linejoin="round"/><path d="M221.426 294.598a3.785 3.785 0 0 0 .283-2.661 21.23 21.23 0 0 1-9.093 7.083c-8.083 3.39-23.369 7.083-34.877 8.823-5.264.77-8.598-.091-10.689-1.244.747 3.289 2.94 5.99 7.981 5.99 7.79 0 23.026-5.059 28.442-6.071 5.415-1.012 14.235-3.451 17.953-11.92Z" fill="#fff" stroke="#001550" stroke-width="2" stroke-linecap="round" stroke-linejoin="round"/><path d="M202.472 287.13s1.687 5.768-3.031 9.502" stroke="#fff" stroke-width="2" stroke-linecap="round" stroke-linejoin="round"/><path d="M165.564 259.667s-.525 10.311.051 12.376c2.162 7.832 2.849 6 19.105 5.656 16.257-.344 22.824-6.84 24.521-10.908 1.698-4.068 0-12.892-.677-15.948-.676-3.056-6.062-4.047-8.133-3.724-2.071.324-33.856 9.158-34.867 12.548Z" fill="#FFC966" stroke="#001550" stroke-width="2" stroke-linecap="round" stroke-linejoin="round"/><path d="M53.82 285.44v22.788a4.906 4.906 0 0 0 2.648 4.311l36.574 18.912a4.852 4.852 0 0 0 4.233.122l53.882-20.572a4.89 4.89 0 0 0 2.102-1.804 4.909 4.909 0 0 0 .788-2.659v-27.543l-61.631 18.649L53.82 285.44Z" fill="#B9CCFF"/><path d="M53.82 285.44v22.788a4.906 4.906 0 0 0 2.648 4.311l36.574 18.912a4.852 4.852 0 0 0 4.233.122l53.882-20.572a4.89 4.89 0 0 0 2.102-1.804 4.909 4.909 0 0 0 .788-2.659v-27.543l-61.631 18.649L53.82 285.44Z" stroke="#001550" stroke-width="2" stroke-linecap="round" stroke-linejoin="round"/><path d="m110.117 246.968-59.105 19.023a2.29 2.29 0 0 0-1.586 2.186v16.879a2.296 2.296 0 0 0 1.303 2.023l41.202 19.641a2.29 2.29 0 0 0 1.788.081l61.863-23.182a2.302 2.302 0 0 0 1.496-2.146l.111-15.836a2.32 2.32 0 0 0-1.809-2.246l-44.091-16.484a2.376 2.376 0 0 0-1.172.061Z" fill="#fff"/><path d="M91.86 306.71a2.29 2.29 0 0 0 1.788.081l61.934-23.172a2.295 2.295 0 0 0 1.495-2.146l.111-15.836a2.226 2.226 0 0 0-.545-1.467l-63.904 23.638-.88 18.902Z" fill="#B9CCFF"/><path opacity=".5" d="M91.86 306.71a2.29 2.29 0 0 0 1.788.081l61.934-23.172a2.295 2.295 0 0 0 1.495-2.146l.111-15.836a2.226 2.226 0 0 0-.545-1.467l-63.904 23.638-.88 18.902Z" fill="#fff"/><path d="M49.426 268.127v16.878a2.303 2.303 0 0 0 1.303 2.024l41.202 19.691c.275.133.574.209.879.223v-19.135l-43.314-20.076a1.69 1.69 0 0 0-.07.395Z" fill="#B9CCFF"/><path d="m110.117 246.968-59.105 19.023a2.29 2.29 0 0 0-1.586 2.186v16.879a2.296 2.296 0 0 0 1.303 2.023l41.202 19.641a2.29 2.29 0 0 0 1.788.081l61.863-23.182a2.302 2.302 0 0 0 1.496-2.146l.111-15.836a2.32 2.32 0 0 0-1.809-2.246l-44.091-16.484a2.376 2.376 0 0 0-1.172.061v0Z" stroke="#001550" stroke-width="2" stroke-linecap="round" stroke-linejoin="round"/><path d="M191.298 215.923s7.779 3.724 11.851 11.191c4.072 7.468 1.01 21.696-1.364 26.107-2.374 4.412-18.277 6.446-23.692 6.446-5.416 0-6.436-.678-6.436-.678s-17.267 3.39-28.108 5.424c-10.841 2.034-8.083-23.395-4.738-34.931 3.344-11.535 22.348-17.293 30.138-17.293 7.79 0 22.349 3.734 22.349 3.734Z" fill="#001550" stroke="#001550" stroke-width="2" stroke-linecap="round" stroke-linejoin="round"/><path d="M171.657 258.989s14.559-5.059 20.651-17.971M185.539 251.521a38.666 38.666 0 0 0 12.528-8.469" stroke="#fff" stroke-width="2" stroke-linecap="round" stroke-linejoin="round"/><path d="M151.339 227.115s4.041 21.361 2.02 30.174c-2.02 8.814-13.882 10.18-16.59 9.158-2.707-1.022-1.353-22.039-1.353-32.553 0-10.513 10.507-9.835 15.923-6.779Z" fill="#FFC966" stroke="#001550" stroke-width="2" stroke-linecap="round" stroke-linejoin="round"/><path d="M64.995 170.135s-2.364 13.893-.677 20.693a28.976 28.976 0 0 0 4.739 10.513s-8.467 12.548-6.77 23.051c1.698 10.504 6.063 11.87 6.063 11.87s-3.719 19.337 3.03 26.117c6.75 6.78 21.672 14.237 38.262 11.192 16.59-3.046 27.764-3.734 31.149-9.502 3.384-5.768 1.354-31.197 1.354-31.197s-.677-28.141-1.354-45.444c-.677-17.304-3.031-31.197-11.175-37.977-8.143-6.779-44.02 3.734-54.85 10.848-10.832 7.114-9.77 9.836-9.77 9.836Z" fill="#10B981"/><path d="M64.995 170.135s-2.364 13.893-.677 20.693a28.976 28.976 0 0 0 4.739 10.513s-8.467 12.548-6.77 23.051c1.698 10.504 6.063 11.87 6.063 11.87s-3.719 19.337 3.03 26.117c6.75 6.78 21.672 14.237 38.262 11.192 16.59-3.046 27.764-3.734 31.149-9.502 3.384-5.768 1.354-31.197 1.354-31.197s-.677-28.141-1.354-45.444c-.677-17.304-3.031-31.197-11.175-37.977-8.143-6.779-44.02 3.734-54.85 10.848-10.832 7.114-9.77 9.836-9.77 9.836Z" stroke="#001550" stroke-width="2" stroke-linecap="round" stroke-linejoin="round"/><path d="M69.057 201.341a41.138 41.138 0 0 0 36.23 5.06M68.38 236.262s17.267 16.96 45.718.678" stroke="#001550" stroke-width="2" stroke-linecap="round" stroke-linejoin="round"/><path d="M135.759 153.519s-6.426-9.836-15.236-15.259c-8.81-5.424-31.482-9.492-40.626-11.192-9.143-1.7-18.964-1.012-21.671 9.107-2.708 10.119-2.374 27.129.333 34.587 2.708 7.457 13.882 11.869 22.692 6.79 8.81-5.08 33.18-24.762 41.647-25.773 8.466-1.012 12.184 5.474 12.861 1.74Z" fill="#10B981"/><path d="M135.759 153.519s-6.426-9.836-15.236-15.259c-8.81-5.424-31.482-9.492-40.626-11.192-9.143-1.7-18.964-1.012-21.671 9.107-2.708 10.119-2.374 27.129.333 34.587 2.708 7.457 13.882 11.869 22.692 6.79 8.81-5.08 33.18-24.762 41.647-25.773 8.466-1.012 12.184 5.474 12.861 1.74Z" stroke="#001550" stroke-width="2" stroke-linecap="round" stroke-linejoin="round"/><path d="M172.334 199.642s7.79 1.011 12.861 3.035c5.072 2.024 8.467 14.582 6.436 16.272-2.031 1.689-6.062-.334-6.062-.334a49.56 49.56 0 0 1-9.82 2.368c-4.092.364-8.497-18.963-3.415-21.341Z" fill="#fff" stroke="#001550" stroke-width="2" stroke-linecap="round" stroke-linejoin="round"/><path d="M146.6 198.62s1.354-.001 8.8-3.39c7.446-3.39 13.549-3.39 18.287 4.047 4.739 7.438 6.77 16.626 4.042 22.049-2.728 5.424-12.862 9.158-18.288 9.158-5.425 0-6.062-7.083-6.062-7.083s-.676-11.192-4.041-15.26c-3.364-4.067-4.092-8.499-2.738-9.521Z" fill="#FFC966" stroke="#001550" stroke-width="2" stroke-linecap="round" stroke-linejoin="round"/><path d="M121.544 153.519c7.446-2.712 16.933-1.012 20.318 8.48 3.384 9.492 6.426 37.298 6.426 37.298s8.466 1.012 11.851 4.756c3.385 3.744 5.052 13.226 4.405 17.972-.647 4.745-12.528 13.559-26.067 13.903-13.538.344-23.369-6.071-28.107-23.405-4.739-17.334-2.86-43.674-2.86-43.674s1.718-7.761 4.304-9.491" fill="#10B981"/><path d="M121.544 153.519c7.446-2.712 16.933-1.012 20.318 8.48 3.384 9.492 6.426 37.298 6.426 37.298s8.466 1.012 11.851 4.756c3.385 3.744 5.052 13.226 4.405 17.972-.647 4.745-12.528 13.559-26.067 13.903-13.538.344-23.369-6.071-28.107-23.405-4.739-17.334-2.86-43.674-2.86-43.674s1.718-7.761 4.304-9.491" stroke="#001550" stroke-width="2" stroke-linecap="round" stroke-linejoin="round"/><path d="M148.288 199.297s2.647 12.356-10.953 19.135" stroke="#001550" stroke-width="2" stroke-linecap="round" stroke-linejoin="round"/><path fill-rule="evenodd" clip-rule="evenodd" d="M310.32 215.985h.123v.008c11.962.034 21.686-9.65 21.72-21.631.034-11.98-9.636-21.72-21.598-21.754h-.131c-11.798.196-21.268 9.815-21.299 21.633-.031 11.817 9.388 21.486 21.185 21.744Zm-20.369-21.752c.031-11.37 9.141-20.624 20.491-20.815l.123-.008c11.511.031 20.817 9.403 20.786 20.932-.032 11.529-9.389 20.849-20.9 20.818h-.123c-11.349-.254-20.408-9.558-20.377-20.927Z" fill="#fff"/><path d="M310.443 215.985h1v-1h-1v1Zm-.123 0-.022 1h.022v-1Zm.123.008h-1v.997l.997.003.003-1Zm21.72-21.631-1-.003 1 .003Zm-21.598-21.754.003-1h-.003v1Zm-.131 0v-1h-.008l-.008.001.016.999Zm-21.299 21.633 1 .002-1-.002Zm21.307-20.823.017 1 .025-.001.025-.001-.067-.998Zm.123-.008.003-1-.035-.001-.035.003.067.998Zm-.114 41.75.002-1h-.002v1Zm-.123 0-.022.999.011.001h.011v-1Zm.115-.175h-.123v2h.123v-2Zm1 1.008v-.008h-2v.008h2Zm19.72-21.634c-.032 11.43-9.309 20.667-20.718 20.634l-.005 2c12.515.036 22.687-10.097 22.723-22.628l-2-.006Zm-20.601-20.751c11.408.033 20.633 9.322 20.601 20.751l2 .006c.035-12.531-10.079-22.721-22.595-22.757l-.006 2Zm-.128 0h.131v-2h-.131v2Zm-20.299 20.635c.03-11.274 9.064-20.448 20.316-20.635l-.033-1.999c-12.344.205-22.251 10.268-22.283 22.629l2 .005Zm20.207 20.742c-11.251-.246-20.237-9.467-20.207-20.742l-2-.005c-.033 12.361 9.82 22.476 22.163 22.747l.044-2Zm.084-42.567c-11.897.201-21.443 9.899-21.475 21.812l2 .005c.029-10.826 8.704-19.635 19.508-19.817l-.033-2Zm.072-.006-.122.008.133 1.996.122-.009-.133-1.995Zm21.853 21.933c.033-12.08-9.718-21.902-21.783-21.935l-.006 2c10.958.03 19.819 8.951 19.789 19.929l2 .006Zm-21.903 21.815c12.065.033 21.87-9.736 21.903-21.815l-2-.006c-.03 10.978-8.94 19.851-19.898 19.821l-.005 2Zm-.12 0h.123v-2h-.123v2Zm-21.377-21.93c-.033 11.913 9.46 21.663 21.355 21.929l.045-1.999c-10.804-.242-19.43-9.098-19.4-19.925l-2-.005ZM306.153 184.921l-.114 20.008 14.598-9.996-14.484-10.012Z" fill="#fff"/></svg>