<svg viewBox="0 0 301 285" fill="none" aria-hidden="true" xmlns="http://www.w3.org/2000/svg"><path d="M164.681 10.12s0-11.035-18.943-8.828c-18.943 2.207-26.88 18.943-32.604 22.466-5.723 3.524-16.302 6.621-16.743 11.896-.441 5.274 4.414 7.489-.441 11.454-4.856 3.965-12.3 7.51-10.572 12.8 1.73 5.29 6.621 10.571 4.414 14.102-2.207 3.531-8.371 7.048-2.648 11.035 5.723 3.987 8.372 4.848 8.372 10.13 0 5.282-2.207 8.827 3.09 10.578 5.296 1.751 8.364-1.765 11.453 4.841 3.09 6.606 6.165 8.371 11.454 7.047 5.29-1.324 12.771-3.524 15.449-1.758 2.678 1.766 11.034 6.621 14.536 3.965 3.502-2.656 6.621-6.621 11.895-4.414 5.275 2.207 9.696 5.29 11.896 1.324 2.199-3.965 0-4.847 8.371-6.62 8.372-1.773 11.454-1.317 11.454-8.365 0-7.047-.441-8.827 3.524-11.895 3.965-3.068 7.489-1.766 6.172-9.254-1.317-7.49-3.965-9.255-2.648-16.744 1.317-7.489-2.207-10.13-4.848-12.336-2.641-2.207-5.723-6.165-4.841-10.13.883-3.965 7.489-4.414.876-11.454-6.614-7.04-9.689-4.848-11.035-10.137-1.346-5.29-5.738-16.75-17.633-9.704Z" fill="#001550" stroke="#001550" stroke-width="2" stroke-linecap="round" stroke-linejoin="round"/><path d="M216.23 268.286s1.316-18.06-6.621-36.127c-7.938-18.067-9.725-19.37-9.725-24.659 0-5.289 5.311-11.461 6.194-23.356.883-11.896.441-17.656.441-17.656s18.943 29.955 32.163 31.721c13.219 1.766 21.149-10.571 16.301-27.314-4.847-16.744-25.997-30.397-34.362-41.417-8.364-11.02-27.321-11.035-37.01-11.035-9.688 0-14.536-3.524-16.302-10.13-1.765-6.606-1.758-19.862-1.758-19.862s-11.461 7.048-30.845-.883c0 0 1.765 24.232-.442 27.756-2.207 3.524-5.267 7.114-18.486 7.114-13.22 0-24.233 2.648-30.397 8.827-6.165 6.18-31.721 30.839-38.327 40.534-6.606 9.696-3.09 20.267 4.84 24.233 7.93 3.965 15.86.434 21.591-4.848 5.731-5.282 23.791-22.033 23.791-22.033s0 10.137 4.848 24.674c4.848 14.536 8.828 12.778 5.282 23.349-3.546 10.571-10.571 13.661-12.77 27.314a129.823 129.823 0 0 0-1.766 23.791" fill="#10B981"/><path d="M216.23 268.286s1.316-18.06-6.621-36.127c-7.938-18.067-9.725-19.37-9.725-24.659 0-5.289 5.311-11.461 6.194-23.356.883-11.896.441-17.656.441-17.656s18.943 29.955 32.163 31.721c13.219 1.766 21.149-10.571 16.301-27.314-4.847-16.744-25.997-30.397-34.362-41.417-8.364-11.02-27.321-11.035-37.01-11.035-9.688 0-14.536-3.524-16.302-10.13-1.765-6.606-1.758-19.862-1.758-19.862s-11.461 7.048-30.845-.883c0 0 1.765 24.232-.442 27.756-2.207 3.524-5.267 7.114-18.486 7.114-13.22 0-24.233 2.648-30.397 8.827-6.165 6.18-31.721 30.839-38.327 40.534-6.606 9.696-3.09 20.267 4.84 24.233 7.93 3.965 15.86.434 21.591-4.848 5.731-5.282 23.791-22.033 23.791-22.033s0 10.137 4.848 24.674c4.848 14.536 8.828 12.778 5.282 23.349-3.546 10.571-10.571 13.661-12.77 27.314a129.823 129.823 0 0 0-1.766 23.791" stroke="#001550" stroke-width="2" stroke-linecap="round" stroke-linejoin="round"/><path d="M97.273 169.159a55.37 55.37 0 0 1 2.906-13.977l-2.906 13.977Z" fill="#fff"/><path d="M97.273 169.159a55.37 55.37 0 0 1 2.906-13.977M206.501 166.518a54.44 54.44 0 0 0-4.024-10.579M141.786 215.35l27.749-8.894M154.351 208.022a89.997 89.997 0 0 1 20.157-5.495" stroke="#001550" stroke-width="2" stroke-linecap="round" stroke-linejoin="round"/><path d="M146.614 151.981c21.981 4.237 30.463-16.831 33.413-33.67-7.32-.81-11.174-4.216-12.705-9.946-1.758-6.621-1.758-19.863-1.758-19.863s-11.461 7.048-30.845-.882c0 0 1.765 24.232-.442 27.755-1.53 2.457-3.501 4.914-9.019 6.172-.198 7.563 1.324 26.565 21.356 30.434Z" fill="#fff"/><path d="M146.614 151.981c21.981 4.237 30.463-16.831 33.413-33.67-7.32-.81-11.174-4.216-12.705-9.946-1.758-6.621-1.758-19.863-1.758-19.863s-11.461 7.048-30.845-.882c0 0 1.765 24.232-.442 27.755-1.53 2.457-3.501 4.914-9.019 6.172-.198 7.563 1.324 26.565 21.356 30.434Z" stroke="#001550" stroke-width="2" stroke-linecap="round" stroke-linejoin="round"/><path d="M179.85 80.086a5.459 5.459 0 1 0 0-10.917 5.459 5.459 0 0 0 0 10.917ZM121.543 80.086a5.459 5.459 0 1 0 0-10.917 5.459 5.459 0 0 0 0 10.917Z" fill="#FFC966" stroke="#001550" stroke-width="2" stroke-linecap="round" stroke-linejoin="round"/><path d="M179.349 56.024s2.729-8.438 5.959-5.459c3.229 2.98-.994 14.39-3.23 17.119-2.236 2.73-4.465 2.73-4.215-.993s1.486-10.667 1.486-10.667Z" fill="#fff" stroke="#001550" stroke-width="2" stroke-linecap="round" stroke-linejoin="round"/><path d="M122.924 64.513s.736 19.708 15.242 29.374c14.507 9.667 25.285 4.09 31.236-4.09 5.951-8.18 9.674-16.36 9.674-28.256 0-11.895 1.471-17.111-2.605-24.548-4.075-7.438-18.221-11.153-18.221-11.153a223.34 223.34 0 0 1-18.965 20.826c-11.16 10.778-16.361 17.847-16.361 17.847Z" fill="#fff"/><path d="M122.924 64.513s.736 19.708 15.242 29.374c14.507 9.667 25.285 4.09 31.236-4.09 5.951-8.18 9.674-16.36 9.674-28.256 0-11.895 1.471-17.111-2.605-24.548-4.075-7.438-18.221-11.153-18.221-11.153a223.34 223.34 0 0 1-18.965 20.826c-11.16 10.778-16.361 17.847-16.361 17.847Z" stroke="#001550" stroke-width="2" stroke-linecap="round" stroke-linejoin="round"/><path d="M143.868 58.378c0 1.986-.89 3.597-1.986 3.597s-1.979-1.611-1.979-3.597c0-1.987.883-3.598 1.979-3.598s1.986 1.611 1.986 3.598Z" fill="#001550"/><path d="M148.335 70.942a7.254 7.254 0 0 0 8.688-.735M150.592 79.344s7.687 3.229 12.153-7.195M160.496 58.503s4.715-3.23 9.431-1.243M159.008 50.344s5.209-5.208 12.403-.993M147.84 47.086s-4.465-4.466-10.674-.243" stroke="#001550" stroke-width="2" stroke-linecap="round" stroke-linejoin="round"/><path d="M47.051 171.807s-7.93 8.828-7.93 18.06 5.282 17.655 19.862 30.838c14.58 13.183 28.19 22.908 33.92 25.998 5.731 3.089 11.455-.883 11.455-.883s9.475 9.468 10.571 7.268c1.096-2.199-3.303-5.51-4.186-6.827a18.085 18.085 0 0 0-2.641-2.861s4.627.654 6.393 2.207c1.765 1.552 4.62 4.185 5.944 3.965 1.324-.221 1.324-1.324-.662-3.965a23.592 23.592 0 0 0-5.723-5.29c-1.325-.875-5.731-3.303-5.731-3.303s6.385-.441 8.592.883c2.207 1.324 8.151 5.289 8.592 3.524.442-1.766.442-2.862-1.765-4.848-2.207-1.986-6.621-4.414-9.247-4.848a27.314 27.314 0 0 1-5.289-1.537s5.068-1.766 6.826-1.766c1.759 0 8.828 3.524 10.792 3.09 1.964-.434.883-2.207-.654-3.311-1.538-1.103-8.372-3.744-11.241-3.965-2.869-.22-18.943 5.29-20.922 5.29-1.979 0-7.047-7.048-12.337-16.523-5.289-9.475-7.268-24.232-18.501-29.293" fill="#10B981"/><path d="M47.051 171.807s-7.93 8.828-7.93 18.06 5.282 17.655 19.862 30.838c14.58 13.183 28.19 22.908 33.92 25.998 5.731 3.089 11.455-.883 11.455-.883s9.475 9.468 10.571 7.268c1.096-2.199-3.303-5.51-4.186-6.827a18.085 18.085 0 0 0-2.641-2.861s4.627.654 6.393 2.207c1.765 1.552 4.62 4.185 5.944 3.965 1.324-.221 1.324-1.324-.662-3.965a23.592 23.592 0 0 0-5.723-5.29c-1.325-.875-5.731-3.303-5.731-3.303s6.385-.441 8.592.883c2.207 1.324 8.151 5.289 8.592 3.524.442-1.766.442-2.862-1.765-4.848-2.207-1.986-6.621-4.414-9.247-4.848a27.314 27.314 0 0 1-5.289-1.537s5.068-1.766 6.826-1.766c1.759 0 8.828 3.524 10.792 3.09 1.964-.434.883-2.207-.654-3.311-1.538-1.103-8.372-3.744-11.241-3.965-2.869-.22-18.943 5.289-20.922 5.289-1.979 0-7.047-7.047-12.337-16.522-5.289-9.475-7.268-24.232-18.501-29.293" stroke="#001550" stroke-width="2" stroke-linecap="round" stroke-linejoin="round"/><path d="M126.134 228.194c-1.545-1.096-8.371-3.745-11.24-3.965-2.869-.221-18.943 5.289-20.922 5.289-1.979 0-7.048-7.048-12.337-16.523-2.942-5.26-4.855-12.153-7.908-18.104-16.184-2.207-23.121 7.254-26.329 14.058a118.174 118.174 0 0 0 11.55 11.771c14.536 13.241 28.19 22.907 33.92 25.997 5.731 3.09 11.454-.883 11.454-.883s9.476 9.468 10.572 7.269c1.096-2.2-3.303-5.51-4.186-6.827a18.092 18.092 0 0 0-2.641-2.862s4.627.655 6.393 2.207c1.765 1.552 4.619 4.186 5.944 3.965 1.324-.22 1.324-1.324-.662-3.965a23.593 23.593 0 0 0-5.724-5.289c-1.324-.876-5.73-3.303-5.73-3.303s6.385-.442 8.592.883c2.207 1.324 8.151 5.289 8.592 3.523.442-1.765.442-2.861-1.765-4.848-2.207-1.986-6.621-4.413-9.247-4.848a27.274 27.274 0 0 1-5.29-1.537s5.069-1.766 6.827-1.766 8.828 3.524 10.792 3.09c1.964-.434.883-2.229-.655-3.332Z" fill="#fff" stroke="#001550" stroke-width="2" stroke-linecap="round" stroke-linejoin="round"/><path d="M221.773 180.075c-1.839-4.2-.265-13.396 1.574-26.527s3.678-26.527 3.678-33.619c0-7.092 1.17-16.92-1.14-20.09-2.31-3.171-10.718-11.77-11.343-15.758-.626-3.987 5.039-10.086 5.039-10.086s1.684-3.156 3.156-1.47c1.471 1.684.838 3.78 0 6.723-.839 2.942-1.685 5.252-1.685 5.252s7.357 2.31 9.247 1.052c1.891-1.258 1.722-8.452 1.589-11.976-.272-6.87-3.023-3.936-4.929-.684-.919 1.56-6.304.633-3.156-3.362 3.149-3.995 6.077-7.518 9.019-4.362 2.943 3.156 5.04 9.247 5.04 9.247s2.103-10.012 4.016-15.898c1.913-5.885 5.341-8.217 6.577-7.805 1.236.412 1.096 2.465-.14 5.341-1.236 2.876-3.972 10.814-4.657 13.418-.684 2.604-.816 5.613.552 5.34 1.368-.271 6.157-8.628 7.533-12.189 1.376-3.56 3.421-6.841 5.745-8.35 2.325-1.507 4.245.413 3.289 2.877-1.9 4.457-4.056 8.8-6.459 13.006a56.286 56.286 0 0 0-3.833 8.49 96.516 96.516 0 0 1 7.121-6.85c3.289-2.736 6.849-3.28 7.938-2.324 1.089.956.14 1.096-2.597 3.288-2.737 2.193-6.827 4.804-10.1 10.13a50.294 50.294 0 0 0-5.886 12.595 42.648 42.648 0 0 1-3.972 8.356s2.567 20.849 7.018 32.317c4.451 11.469 12.322 28.242 9.924 40.225-2.398 11.984-7.018 18.141-13.521 20.024a12.575 12.575 0 0 1-11.123-2.052" fill="#10B981"/><path d="M221.773 180.075c-1.839-4.2-.265-13.396 1.574-26.527s3.678-26.527 3.678-33.619c0-7.092 1.17-16.92-1.14-20.09-2.31-3.171-10.718-11.77-11.343-15.758-.626-3.987 5.039-10.086 5.039-10.086s1.684-3.156 3.156-1.47c1.471 1.684.838 3.78 0 6.723-.839 2.942-1.685 5.252-1.685 5.252s7.357 2.31 9.247 1.052c1.891-1.258 1.722-8.452 1.589-11.976-.272-6.87-3.023-3.936-4.929-.684-.919 1.56-6.304.633-3.156-3.362 3.149-3.995 6.077-7.518 9.019-4.362 2.943 3.156 5.04 9.247 5.04 9.247s2.103-10.012 4.016-15.898c1.913-5.885 5.341-8.217 6.577-7.805 1.236.412 1.096 2.465-.14 5.341-1.236 2.876-3.972 10.814-4.657 13.418-.684 2.604-.816 5.613.552 5.34 1.368-.271 6.157-8.628 7.533-12.189 1.376-3.56 3.421-6.841 5.745-8.35 2.325-1.507 4.245.413 3.289 2.877-1.9 4.457-4.056 8.8-6.459 13.006a56.286 56.286 0 0 0-3.833 8.49 96.516 96.516 0 0 1 7.121-6.85c3.289-2.736 6.849-3.28 7.938-2.324 1.089.956.14 1.096-2.597 3.288-2.737 2.193-6.827 4.804-10.1 10.13a50.294 50.294 0 0 0-5.886 12.595 42.648 42.648 0 0 1-3.972 8.356s2.567 20.849 7.018 32.317c4.451 11.469 12.322 28.242 9.924 40.225-2.398 11.984-7.018 18.141-13.521 20.024a12.575 12.575 0 0 1-11.123-2.052" stroke="#001550" stroke-width="2" stroke-linecap="round" stroke-linejoin="round"/><path d="M252.848 82.89c3.288-5.341 7.4-7.945 10.137-10.13 2.736-2.185 3.678-2.332 2.597-3.289-1.082-.956-4.65-.412-7.938 2.325a96.516 96.516 0 0 0-7.121 6.849 56.21 56.21 0 0 1 3.796-8.49 125.389 125.389 0 0 0 6.437-13.006c.956-2.464-.956-4.414-3.288-2.876-2.332 1.537-4.378 4.789-5.746 8.35-1.368 3.56-6.165 11.917-7.533 12.189-1.368.272-1.236-2.744-.552-5.34.685-2.597 3.429-10.542 4.657-13.419 1.229-2.876 1.368-4.929.14-5.34-1.229-.413-4.657 1.912-6.577 7.804-1.92 5.893-4.016 15.898-4.016 15.898s-2.097-6.099-5.04-9.247c-2.942-3.149-5.885.368-9.019 4.362-3.133 3.995 2.207 4.922 3.156 3.362 1.906-3.251 4.657-6.187 4.929.684.133 3.524.302 10.711-1.589 11.976-1.89 1.266-9.247-1.052-9.247-1.052s.839-2.31 1.685-5.252c.846-2.943 1.471-5.047 0-6.724-1.472-1.677-3.156 1.472-3.156 1.472s-5.672 6.09-5.039 10.085c.632 3.995 9.033 12.602 11.343 15.758 2.31 3.156 1.141 12.998 1.141 20.09 0 7.092-1.84 20.488-3.679 33.619 0 .177-.051.338-.073.508 2.906 3.053 8.828 7.43 18.84 7.091 6.709-.228 11.461-3.604 14.676-7.319-2.134-6.349-4.811-12.506-6.798-17.656-4.45-11.469-7.018-32.317-7.018-32.317a42.71 42.71 0 0 0 3.973-8.357 50.251 50.251 0 0 1 5.922-12.609Z" fill="#fff" stroke="#001550" stroke-width="2" stroke-linecap="round" stroke-linejoin="round"/><path d="M232.704 103.016s-1.228-5.2.552-8.489a9.23 9.23 0 0 1 4.377-4.245" stroke="#001550" stroke-width="2" stroke-linecap="round" stroke-linejoin="round"/><path stroke="#001550" stroke-width="2" d="M34 268h209M248 268h23"/></svg>