<svg width="14" height="3" stroke-width="0" fill="#00217D" aria-hidden="true" xmlns="http://www.w3.org/2000/svg"><path d="M1.261 3a.417.417 0 0 1-.306-.126.417.417 0 0 1-.126-.306V.75c0-.12.042-.222.126-.306a.417.417 0 0 1 .306-.126h1.818c.12 0 .222.042.306.126a.417.417 0 0 1 .126.306v1.818c0 .12-.042.222-.126.306A.381.381 0 0 1 3.079 3H1.261Zm4.834 0a.417.417 0 0 1-.306-.126.417.417 0 0 1-.126-.306V.75c0-.12.042-.222.126-.306a.417.417 0 0 1 .306-.126h1.818c.12 0 .222.042.306.126a.417.417 0 0 1 .126.306v1.818c0 .12-.042.222-.126.306A.381.381 0 0 1 7.913 3H6.095Zm4.834 0a.417.417 0 0 1-.306-.126.417.417 0 0 1-.126-.306V.75c0-.12.042-.222.126-.306a.417.417 0 0 1 .306-.126h1.818c.12 0 .222.042.306.126a.417.417 0 0 1 .126.306v1.818c0 .12-.042.222-.126.306a.381.381 0 0 1-.306.126h-1.818Z"/></svg>