<svg aria-hidden="true" width="142" height="40" fill="none" xmlns="http://www.w3.org/2000/svg"><path d="M36.094 33.052c0-2.3 1.52-4.126 3.868-4.126 1.389 0 2.182.538 2.827 1.337l-.595.522c-.579-.783-1.306-1.092-2.182-1.092-1.868 0-3.009 1.467-3.009 3.36 0 1.891 1.14 3.375 3.009 3.375.876 0 1.603-.326 2.182-1.109l.595.522c-.645.816-1.439 1.354-2.827 1.354-2.347 0-3.868-1.843-3.868-4.143ZM44.703 35.474v-9.36h.86v9.23c0 .636.263 1.076.825 1.076.38 0 .71-.179.892-.375l.33.652c-.313.294-.693.49-1.354.49-1.04 0-1.553-.636-1.553-1.713Z" fill="#1A202C"/><path fill-rule="evenodd" clip-rule="evenodd" d="M49.368 26.586c-.347 0-.661.277-.661.636a.67.67 0 0 0 .661.653c.365-.001.66-.293.662-.653a.645.645 0 0 0-.662-.636Zm-.436 2.529v7.877h.86v-7.877h-.86ZM53.338 39.999v-4.273c.645.897 1.654 1.468 2.777 1.468 2.133 0 3.571-1.63 3.571-4.142 0-2.528-1.438-4.126-3.57-4.126-1.19 0-2.216.636-2.778 1.435v-1.24h-.86V40h.86Zm2.622-10.303c1.786 0 2.794 1.452 2.794 3.36s-1.008 3.375-2.794 3.375c-1.108 0-2.166-.685-2.629-1.435v-3.898c.464-.75 1.522-1.402 2.63-1.402Z" fill="#1A202C"/><path d="m61.154 35.938.513-.62c.512.637 1.455 1.159 2.579 1.159 1.339 0 2.132-.685 2.132-1.599 0-2.152-5.042-.93-5.042-3.767 0-1.207 1.042-2.185 2.844-2.185 1.372 0 2.281.522 2.86 1.158l-.48.603c-.463-.62-1.322-1.044-2.38-1.044-1.24 0-1.984.62-1.984 1.435 0 1.973 5.026.766 5.026 3.8 0 1.272-.992 2.316-2.993 2.316-1.29 0-2.281-.375-3.075-1.256Z" fill="#1A202C"/><path fill-rule="evenodd" clip-rule="evenodd" d="M26.756 33.307c0-2.325 1.91-4.21 4.267-4.21s4.266 1.885 4.266 4.21c0 2.324-1.91 4.209-4.266 4.209-2.357 0-4.267-1.885-4.267-4.21Zm1.782.003c0 1.348 1.107 2.44 2.473 2.44 1.366 0 2.473-1.092 2.473-2.44 0-1.348-1.107-2.44-2.473-2.44-1.366 0-2.473 1.092-2.473 2.44Z" fill="#1A202C"/><path d="M31.977 33.154c-.067-.072-.897-.79-1.184-.916-.132-.058-.237-.003-.286.137a.984.984 0 0 0-.037.177 6.282 6.282 0 0 0-.032.745c-.002.277.008.557.032.746.007.06.02.119.037.177.05.14.154.195.286.137.287-.126 1.117-.844 1.184-.917.038-.04.068-.086.065-.143.003-.056-.027-.102-.066-.143Z" fill="#DC491C"/><path fill-rule="evenodd" clip-rule="evenodd" d="M19.419 29.882a4.287 4.287 0 0 1 2.467-.775c2.357 0 4.267 1.885 4.267 4.21 0 2.324-1.91 4.209-4.267 4.209s-4.267-1.885-4.267-4.21V25.12a.2.2 0 0 1 .2-.197h1.4a.2.2 0 0 1 .2.197v4.763Zm-.019 3.445c0 1.348 1.108 2.44 2.474 2.44s2.473-1.092 2.473-2.44c0-1.347-1.107-2.44-2.473-2.44-1.28 0-2.334.96-2.46 2.19l-.014.25Z" fill="#1A202C"/><path d="M21.906 29.113c-.919 0-1.792.264-2.496.775l.01 3.158a2.472 2.472 0 0 1 2.48-2.15M5.439 37.191c-.796 0-1.4-.273-1.813-.821v.46a.252.252 0 0 1-.077.186.24.24 0 0 1-.177.066h-.508a.28.28 0 0 1-.188-.066.275.275 0 0 1-.067-.186v-7.273c0-.073.022-.132.067-.176a.257.257 0 0 1 .188-.076h.541c.074 0 .133.025.177.076a.236.236 0 0 1 .066.176v2.519c.435-.533 1.032-.8 1.79-.8.767 0 1.346.252 1.736.756.39.497.6 1.121.63 1.873.008.08.011.19.011.329s-.003.248-.01.328c-.03.76-.24 1.388-.63 1.885-.391.496-.97.744-1.736.744Zm-.232-.887c.523 0 .902-.16 1.138-.482.243-.321.376-.745.398-1.27a3.41 3.41 0 0 0 .011-.318c0-1.38-.516-2.07-1.547-2.07-.494 0-.873.16-1.139.482a1.82 1.82 0 0 0-.42 1.128l-.01.427.01.416c.022.46.159.858.41 1.194.257.329.64.493 1.149.493ZM9.962 39.163a.213.213 0 0 1-.155-.066.21.21 0 0 1-.066-.153c0-.051.018-.117.055-.197l.85-2.005-2.11-4.94a.7.7 0 0 1-.055-.186.226.226 0 0 1 .232-.23h.541c.118 0 .207.062.266.186l1.68 3.987 1.724-3.987c.059-.124.15-.186.276-.186h.52c.066 0 .121.022.165.066a.21.21 0 0 1 .067.153c0 .022-.019.088-.056.197l-3.139 7.175c-.059.124-.15.186-.276.186h-.52ZM39.087 16.723a.264.264 0 0 0-.3-.17l-.044.021c-.387.085-.688.064-.881-.085-.301-.192-.43-.64-.43-1.344v-6.42c0-2.518-1.527-3.776-4.537-3.776-2.709 0-4.816 1.258-4.816 2.837 0 .81.516 1.408 1.269 1.493.494.064.967-.17 1.311-.512.667-.683.58-1.493-.236-2.368.473-.49 1.311-.768 2.279-.768 1.57 0 2.236.918 2.236 3.03v1.62c-.366.107-.71.214-1.333.363-1.269.299-3.01.683-4.322 1.387-1.075.575-1.634 1.493-1.634 2.73 0 1.344.903 2.9 3.419 2.9 1.419 0 2.687-.66 3.977-2.068.108 1.472.688 2.005 2.064 2.005.667 0 1.183-.15 1.828-.448.129-.064.215-.256.15-.427Zm-4.17-1.962c-.302.427-1.312 1.664-2.56 1.664-1.698 0-2.042-1.152-2.042-2.133 0-1.6 1.247-2.347 4.601-3.157v3.626Zm32.378 2.965c-3.59 0-6.278-2.752-6.278-6.4 0-3.562 2.817-6.463 6.278-6.463 3.505 0 6.257 2.795 6.257 6.357 0 4.031-3.247 6.506-6.257 6.506Zm-.129-12.18c-1.548 0-3.332.661-3.332 5.738 0 3.882 1.16 5.76 3.569 5.76 2.3 0 3.332-1.771 3.332-5.76 0-3.86-1.16-5.738-3.569-5.738Zm-55.233-.448c0 2.965-.753 4.586-4.558 4.586H5.354V.768H7.46c3.955-.021 4.471 2.176 4.471 4.33ZM5.374 15.145v-4.65h1.828c2.73 0 4.794-.555 6.17-1.685 1.42-1.174 1.72-2.645 1.72-3.67C15.093.897 10.9 0 7.396 0h.022H.3C.151 0 0 .128 0 .277V.3c0 .149.086.277.236.32.646.234 2.366-.086 2.366 1.706v12.777c0 .939-.43 1.579-2.344 1.77-.15.022-.258.129-.258.278v.043c0 .149.129.277.301.277h7.611c.15 0 .301-.128.301-.277v-.043a.283.283 0 0 0-.28-.277c-2.15-.128-2.558-.768-2.558-1.728Zm15.48-10.282c-3.31 0-5.998 2.944-5.998 6.549 0 3.648 2.537 6.314 5.998 6.314 2.924 0 4.343-1.707 5.16-2.986a.277.277 0 0 0-.086-.384l-.043-.022a.306.306 0 0 0-.408.064c-1.075 1.323-2.021 2.09-3.634 2.09-2.064 0-4.257-1.386-4.257-5.268v-.64h8.407c.021 0 .043-.021.043-.043v-.064c.129-1.6-.344-3.029-1.29-4.031-.925-1.067-2.28-1.579-3.892-1.579Zm-3.203 4.821c.28-2.666 1.333-4.117 3.01-4.117.838 0 1.462.235 1.892.683.602.64.86 1.792.752 3.434h-5.654Zm38.055.15c-2.3-.64-3.204-1.28-3.204-2.283 0-1.152.925-1.984 2.215-1.984 1.505 0 2.15.704 3.762 3.328l.022.043c0 .02.021.02.021.02h.237c.15 0 .3-.127.3-.276V4.927c0-.02-.02-.042-.02-.042h-.323a.265.265 0 0 0-.215.106l-.516.598c-.645-.342-1.699-.704-2.73-.704-2.645 0-4.494 1.6-4.494 3.882 0 2.154 1.462 2.944 3.977 3.626 2.451.662 3.311 1.344 3.311 2.603 0 1.407-1.397 2.047-2.386 2.047-1.85 0-2.623-.66-4.386-3.775l-.022-.043c0-.021-.021-.021-.021-.021h-.237c-.15 0-.3.128-.3.277v4.18c0 .022.02.044.042.044h.301c.086 0 .15-.022.215-.086l.796-.789c.946.576 2.343.875 3.268.875 1.376 0 2.494-.427 3.268-1.238.688-.725 1.053-1.727 1.053-2.858 0-1.962-1.053-2.986-3.934-3.775Zm-13.932 6.185c0 .64-.15.854-1.204.918-.15 0-.28.128-.28.277 0 .15.13.277.301.277h5.203c.15 0 .28-.128.28-.277a.283.283 0 0 0-.28-.277c-1.204-.064-1.526-.256-1.526-.939V8.532c.86-1.386 1.462-2.133 2.515-2.346-.043.17-.086.384-.086.555 0 .917.645 1.535 1.57 1.535.903 0 1.548-.64 1.548-1.535 0-.854-.538-1.856-2.086-1.856-1.268 0-2.472.704-3.504 2.41v-1.92c0-.192-.172-.362-.366-.34l-3.29.084c-.15 0-.279.128-.279.278v.042c0 .15.108.256.237.278 1.096.149 1.247.66 1.247 1.194v9.108ZM77.787 5.034c.086 0 .15.021.194.085a.273.273 0 0 1 .086.214v2.133s1.075-2.496 4.536-2.496h.022c2.171 0 3.397 1.344 3.397 3.69v7.36c0 .64.172.853 1.225.917.15 0 .28.128.28.277 0 .15-.13.277-.301.277h-4.687c-.172 0-.301-.128-.301-.277a.32.32 0 0 1 .258-.299c.86-.064.989-.277.989-.917V9.364c0-2.197-.645-3.05-2.28-3.05-1.096 0-1.999.938-2.58 1.728 0 0-.279.362-.601 1.024l.043 6.932c0 .64.129.853.967.917.15.022.258.15.258.278 0 .17-.129.298-.3.298h-4.645c-.15 0-.3-.128-.3-.277 0-.15.128-.277.279-.277 1.053-.064 1.225-.278 1.225-.918V6.933c0-.534-.15-1.046-1.247-1.195a.296.296 0 0 1-.236-.277v-.043c0-.15.129-.277.28-.277l3.44-.107ZM98.435 1c-1.099.053-1.993.337-2.684.852a5.469 5.469 0 0 0-1.649 1.891 8.835 8.835 0 0 0-.824 2.557c-.141.923-.212 1.04-.212 1.963 0 .852.097 1.758.292 2.716.213.942.558 1.82 1.037 2.637a6.755 6.755 0 0 0 1.86 2.024c.78.533 1.728.8 2.845.8 1.169.017 2.179-.24 3.03-.773.735-.46 1.311-1.1 1.729-1.918a.453.453 0 0 1 .583-.213.54.54 0 0 1 .277.736 5.43 5.43 0 0 1-2.137 2.434c-1.099.675-2.366 1.012-3.801 1.012-1.524 0-2.862-.258-4.014-.773-1.152-.532-2.118-1.225-2.897-2.077a8.913 8.913 0 0 1-1.781-2.903 9.759 9.759 0 0 1-.585-3.33c0-1.349.204-1.785.611-2.92.408-1.155.993-2.15 1.755-2.984A7.96 7.96 0 0 1 94.66.734c1.1-.48 2.34-.72 3.722-.72.727 0 1.426.08 2.1.24.673.16 1.32.417 1.94.772.514.302.886.4 1.117.293.2-.1.388-.35.566-.751a.512.512 0 0 1 .463-.314c.268 0 .484.218.482.486l-.046 5.825a.431.431 0 0 1-.431.427.444.444 0 0 1-.437-.394 9.326 9.326 0 0 0-.464-1.976 5.646 5.646 0 0 0-1.09-1.944 4.876 4.876 0 0 0-1.755-1.279c-.673-.32-1.47-.452-2.392-.4ZM115.578.103c.461 0 .842.16 1.143.48.319.3.478.683.478 1.144 0 .462-.159.853-.478 1.172-.301.32-.682.48-1.143.48a1.59 1.59 0 0 1-1.17-.48 1.595 1.595 0 0 1-.478-1.172c0-.461.159-.843.478-1.145a1.59 1.59 0 0 1 1.17-.48ZM123.296 13.661c.372.64 1.069 1.305 1.547 1.625.583.389 1.227.603 1.9.46.691-.141 1.24-.567 1.648-1.277.514-.888.771-2.122.771-3.703 0-1.456-.248-2.61-.744-3.462-.408-.692-.957-1.092-1.648-1.199-.692-.106-1.347.072-1.967.533-.497.39-1.124 1.285-1.514 2.013l.007 5.01Zm.028 5.473c0 .231.006.81.006 1.13 0 .278 0 .472.002.657.002.19.01.382.068.563.071.22.175.284.396.359.04.013.08.023.121.03.174.03.262.045.367.052a.31.31 0 0 1 .269.185.291.291 0 0 1-.269.402h-4.563a.286.286 0 0 1-.286-.284.265.265 0 0 1 .27-.269c.036 0 .085-.006.191-.026.301-.053.822-.086.889-.567.027-.164.022-.49.022-.81.018-.32 0-.66 0-.892V7.72c0-.515-.03-1.23-.189-1.424-.16-.196-.519-.511-.856-.529l-.149-.003a.324.324 0 0 1-.027-.646c.066-.008.047-.005.077-.006l.477-.015 1.472-.042c1.472-.041 0 0 .896-.03.781-.027.463-.014.781-.024l.077 1.71c.68-.755 1.071-1.107 1.437-1.31.718-.4.922-.411 1.571-.52.531-.088 1.184-.106 1.698 0 .532.09 1.073.259 1.523.6.449.343 1.065.992 1.356 1.58.476.965.812 1.975.812 3.733 0 1.953-.657 3.7-1.382 4.581-.337.409-.35.448-.795.822a3.595 3.595 0 0 1-1.461.75 4.955 4.955 0 0 1-1.542.08c-.531-.054-1.093-.187-1.554-.4-.668-.386-1.126-.659-1.705-1.194v3.702ZM138.066 9.628c-2.3-.64-3.203-1.28-3.203-2.282 0-1.152.924-1.984 2.214-1.984 1.505 0 2.15.704 3.763 3.328l.021.043c0 .02.022.02.022.02h.236c.151 0 .301-.127.301-.276V4.722c0-.021-.021-.042-.021-.042h-.323a.265.265 0 0 0-.215.106l-.516.598c-.645-.342-1.698-.704-2.73-.704-2.645 0-4.494 1.6-4.494 3.882 0 2.154 1.462 2.944 3.978 3.626 2.451.661 3.311 1.344 3.311 2.602 0 1.408-1.398 2.048-2.387 2.048-1.849 0-2.623-.661-4.386-3.775l-.021-.043c0-.021-.022-.021-.022-.021h-.236c-.151 0-.301.128-.301.277v4.18c0 .022.021.044.043.044h.301c.086 0 .15-.022.215-.086l.795-.789c.946.576 2.344.875 3.268.875 1.376 0 2.494-.427 3.268-1.238.688-.725 1.054-1.728 1.054-2.858 0-1.962-1.054-2.986-3.935-3.776ZM117.02 5.117c-.043-.064-.107-.086-.193-.086l-3.44.107a.284.284 0 0 0-.28.277v.043c0 .128.108.256.237.277 1.096.15 1.247.661 1.247 1.195v9.087c0 .64-.172.853-1.226.917a.283.283 0 0 0-.279.277c0 .15.15.277.301.277h4.644a.293.293 0 0 0 .301-.298c0-.128-.108-.256-.258-.277-.839-.064-.968-.278-.968-.918l-.043-6.932.043-3.733a.271.271 0 0 0-.086-.213ZM110.278.224c-.043-.063-.107-.085-.193-.085l-3.44.106a.282.282 0 0 0-.28.275v.042c0 .127.108.254.237.275 1.096.148 1.247.856 1.247 1.384V16.03c0 .634-.172.845-1.226.909a.282.282 0 0 0-.279.275c0 .148.15.275.301.275h4.644a.291.291 0 0 0 .301-.296c0-.127-.108-.254-.258-.275-.839-.064-.968-.275-.968-.91l-.043-6.872.043-8.7a.267.267 0 0 0-.086-.212Z" fill="#1A202C"/></svg>