<svg width="290" height="222" fill="none" xmlns="http://www.w3.org/2000/svg"><g filter="url(#a)"><path d="M112.648 197.54c-2.066-5.38-5.75-9.725-10.379-12.241-4.593-2.468-14.836-1.332-14.836-1.332l-26.92-.066c.553 2.717 2.32 9.688 3.616 12.032 1.295 2.344 3.248 4.325 5.583 5.084 2.858.928 5.885-.031 8.85-.253 5.217-.386 10.321 1.549 15.344 3.214s10.355 3.077 15.436 1.665c1.442-.404 2.954-1.141 3.654-2.641.777-1.657.297-3.721-.348-5.462z" fill="#E0E0E0"/><path d="M29.99 87.961s-3.063-.253-2.78 7.633c.282 7.885.982 12.09.982 12.09s-.09 1.745-1.268 1.403c-1.18-.342-3.4-2.043-4.497-.751-1.099 1.292-.731 3.344.773 5.728s4.64 7.743 4.926 8.232c.286.488.387 1.372-.448 1.283-.836-.089-6.48-2.282-7.227.857-.747 3.139 4.4 8.986 4.953 9.639.553.653.584 1.061.36 1.456-.225.396-2.061-.55-3.69-1.096-1.627-.546-3.595-.884-3.9.985-.306 1.87 1.968 7.273 10.463 12.965l4.087 2.344 3.866-2.832c7.954-6.66 9.74-12.295 9.28-14.102-.46-1.807-2.393-1.274-3.963-.541-1.57.732-3.318 1.882-3.573 1.518-.255-.364-.263-.781.228-1.492.491-.71 5.108-7.104 4.091-10.158-1.017-3.055-6.442-.205-7.265-.023-.824.182-.774-.719-.557-1.225.216-.506 2.888-6.216 4.184-8.756 1.295-2.539 1.515-4.608.27-5.772-1.245-1.163-3.26.808-4.404 1.288-1.144.479-1.384-1.257-1.384-1.257s.329-4.258-.077-12.139c-.406-7.88-3.504-7.241-3.504-7.241" fill="#10B981"/><path d="M30.233 95.016v.165c0 .11 0 .275.031.484.027.444.062 1.056.113 1.86.092 1.62.212 3.96.351 6.855.283 5.772.607 13.787.944 22.622.336 8.836.646 16.841.897 22.644.127 2.891.232 5.23.305 6.855l.082 1.865v.484c.002.056.002.113 0 .169v-.164c0-.107 0-.28-.031-.484-.027-.444-.066-1.061-.112-1.865a798.882 798.882 0 0 1-.352-6.851c-.283-5.772-.607-13.791-.944-22.644-.336-8.853-.645-16.836-.897-22.644-.131-2.886-.232-5.226-.305-6.855l-.082-1.865v-.484a1.704 1.704 0 0 1 0-.147z" fill="#E0E0E0"/><path d="M25.45 110.841c.093.066.178.147.252.239.158.165.386.409.65.715a74.511 74.511 0 0 1 2.049 2.464l1.999 2.513.607.76c.082.084.153.181.212.288a1.357 1.357 0 0 1-.255-.24c-.154-.164-.386-.408-.645-.719a109.126 109.126 0 0 1-2.034-2.477l-1.992-2.496c-.243-.293-.444-.546-.614-.754a1.413 1.413 0 0 1-.229-.293zM31.625 117.66c-.03-.035 1.466-1.829 3.337-3.996 1.872-2.166 3.422-3.92 3.453-3.885.031.036-1.465 1.83-3.34 3.996-1.876 2.167-3.419 3.921-3.45 3.885zM31.61 131.26a1.6 1.6 0 0 1 .286-.209l.797-.515c.676-.444 1.604-1.039 2.61-1.749a73.624 73.624 0 0 0 2.54-1.878l.773-.582c.09-.08.187-.147.29-.2a1.434 1.434 0 0 1-.255.258c-.17.151-.421.368-.735.63a40.594 40.594 0 0 1-2.524 1.927 35.385 35.385 0 0 1-2.638 1.705c-.344.205-.626.364-.823.467-.1.065-.209.115-.321.146zM24.84 126.5c.098.039.193.089.282.151l.742.475c.623.404 1.473.977 2.413 1.617.94.639 1.782 1.229 2.39 1.665.305.217.549.395.719.524.09.058.175.128.251.208a1.025 1.025 0 0 1-.286-.151l-.739-.453c-.622-.408-1.477-.976-2.416-1.62-.94-.644-1.783-1.23-2.39-1.661a22.925 22.925 0 0 1-.715-.524 1.295 1.295 0 0 1-.252-.231zM23.498 138.528c.126.05.247.117.36.2l.95.6c.797.515 1.9 1.238 3.094 2.046 1.195.808 2.32 1.55 3.093 2.092l.928.652c.117.075.227.162.329.262a2.193 2.193 0 0 1-.36-.2l-.959-.626c-.8-.515-1.898-1.238-3.093-2.046-1.195-.808-2.32-1.55-3.093-2.092l-.924-.652a1.91 1.91 0 0 1-.325-.236zM32.093 144.149a2.01 2.01 0 0 1 .356-.275l.994-.693c.835-.586 1.991-1.403 3.248-2.339 1.256-.937 2.37-1.821 3.178-2.465l.955-.763a2.17 2.17 0 0 1 .36-.262 2.165 2.165 0 0 1-.325.319 60.82 60.82 0 0 1-4.083 3.322 64.565 64.565 0 0 1-3.28 2.299c-.428.276-.772.498-1.02.644-.122.084-.25.155-.383.213z" fill="#E0E0E0"/><path d="M38.222 152.248H26.916l3.692 32.075h3.925l3.689-32.075z" fill="#263238"/><path d="M27.504 156.191s0 .044.061.115a.712.712 0 0 0 .271.222 1.21 1.21 0 0 0 1.195-.169c.456-.288.855-.856 1.465-1.105a2.817 2.817 0 0 1 2.08.044c.68.27 1.33.632 1.934 1.079.507.363 1.034.686 1.578.968.368.191.759.321 1.16.386.108.02.218.029.328.027h.112a5.311 5.311 0 0 1-1.546-.533 15.07 15.07 0 0 1-1.547-1.003 8.204 8.204 0 0 0-1.968-1.11 2.918 2.918 0 0 0-2.196-.027 2.84 2.84 0 0 0-.824.586 6.18 6.18 0 0 1-.65.573 1.24 1.24 0 0 1-.527.249c-.19.038-.384.029-.57-.027a1.177 1.177 0 0 1-.356-.275zM27.917 162.096s.09-.129.267-.342c.256-.291.563-.515.901-.657a3.574 3.574 0 0 1 1.574-.271c.66.055 1.316.157 1.964.306a6.012 6.012 0 0 0 2.015.098 4.922 4.922 0 0 0 1.585-.524 4.81 4.81 0 0 0 .955-.648 1.39 1.39 0 0 0 .302-.311 10.05 10.05 0 0 1-1.307.826 5.28 5.28 0 0 1-1.547.444 6.121 6.121 0 0 1-1.964-.111 13.055 13.055 0 0 0-1.992-.293 3.521 3.521 0 0 0-1.628.328c-.349.159-.659.411-.904.738a1.833 1.833 0 0 0-.17.288c-.043.093-.058.129-.05.129zM36.942 165.262a.894.894 0 0 0-.313-.187c-.3-.13-.616-.208-.936-.231a5.177 5.177 0 0 0-1.415.094c-.53.097-1.094.266-1.686.408a6.138 6.138 0 0 1-1.686.218 3.263 3.263 0 0 1-1.334-.329 3.13 3.13 0 0 1-1.017-.888.998.998 0 0 0 .194.342c.215.279.478.505.773.661.434.236.905.369 1.384.391a5.848 5.848 0 0 0 1.729-.204c.603-.147 1.16-.32 1.678-.444a5.68 5.68 0 0 1 1.38-.133c.426.04.846.141 1.25.302zM28.915 169.71c.345-.172.73-.217 1.098-.128.402.113.791.278 1.16.493.468.256.972.415 1.489.47a4.01 4.01 0 0 0 2.706-.719c.242-.17.468-.37.673-.595.14-.169.209-.266.197-.275-.298.269-.61.516-.935.741-.801.503-1.712.725-2.622.64-1.071-.072-1.895-.804-2.637-.888a1.453 1.453 0 0 0-.85.084c-.194.075-.283.169-.28.177zM29.545 175.864c.325.013.647-.06.944-.213.568-.217 1.272-.719 2.091-1.092a2.97 2.97 0 0 1 1.203-.289c.335-.001.666.085.967.253.274.167.511.402.696.689a.643.643 0 0 0-.108-.271 1.582 1.582 0 0 0-.538-.551 1.994 1.994 0 0 0-1.025-.315c-.434 0-.865.097-1.268.284-.85.391-1.547.888-2.076 1.15-.53.262-.89.315-.886.355zM30.098 178.728c.226.129.467.22.716.271.59.159 1.187.274 1.79.346.602.067 1.208.086 1.813.058.253.005.505-.029.75-.102 0-.062-1.16 0-2.544-.169-1.384-.169-2.51-.466-2.525-.404zM240.799 98.05l-34.382 9.02 5.295 26.611 34.382-9.02-5.295-26.611z" fill="#F5F5F5"/><path d="M240.978 98.329a2.806 2.806 0 0 1-.251.444l-.773 1.212-2.865 4.44c-2.464 3.747-5.835 8.88-9.574 14.563l-.078.12-.12-.067-.282-.155-14.488-8.081-4.377-2.482-1.16-.693a2.465 2.465 0 0 1-.406-.266c.149.052.294.119.433.2l1.206.63 4.424 2.362 14.527 7.992.286.16-.197.053c3.766-5.656 7.165-10.767 9.666-14.496 1.226-1.821 2.228-3.299 2.947-4.36l.812-1.172c.078-.145.169-.28.27-.404z" fill="#E0E0E0"/><path d="M211.893 133.964c-.077-.049 1.783-4.373 4.153-9.661 2.37-5.288 4.362-9.542 4.439-9.498.077.045-1.782 4.374-4.153 9.666-2.37 5.293-4.365 9.537-4.439 9.493zM231.845 111.475c.054-.079 3.33 2.873 7.316 6.589 3.987 3.717 7.169 6.798 7.111 6.878-.058.08-3.329-2.873-7.316-6.593-3.986-3.721-7.169-6.794-7.111-6.874z" fill="#E0E0E0"/><path d="m87.639 25.692-3.153 15.682 20.262 5.372 3.153-15.683-20.262-5.371z" fill="#F5F5F5"/><path d="M107.934 31.276a1.525 1.525 0 0 1-.232.16l-.677.417-2.513 1.5-8.34 4.885-.07.04-.05-.067-.116-.169-5.874-8.551-1.763-2.615-.472-.715a1.324 1.324 0 0 1-.154-.258c.067.07.127.148.181.231l.503.693 1.81 2.566 5.92 8.53.116.164-.116-.027 8.363-4.84 2.541-1.443.696-.381c.078-.05.161-.09.247-.12z" fill="#E0E0E0"/><path d="M84.518 41.585c-.031-.048 1.933-1.776 4.369-3.898s4.45-3.774 4.481-3.725c.031.049-1.933 1.776-4.369 3.898-2.436 2.123-4.45 3.774-4.481 3.725zM100.147 35.551c.046-.026 1.125 2.509 2.405 5.657 1.28 3.148 2.277 5.723 2.231 5.772-.047.049-1.122-2.509-2.401-5.657-1.28-3.148-2.286-5.75-2.235-5.772z" fill="#E0E0E0"/><path d="m216.081 29.629-14.804 7.303 4.288 11.46 14.804-7.304-4.288-11.46z" fill="#F5F5F5"/><path d="M216.178 29.748c-.022.075-.05.148-.082.218l-.255.617c-.236.55-.568 1.332-.97 2.264l-3.26 7.45-.027.063h-.058l-.139-.04-7.088-2.264-2.146-.76-.58-.2-.201-.08a.894.894 0 0 1 .209.05l.588.168 2.157.653 7.099 2.22.14.044-.082.045c1.284-2.9 2.448-5.52 3.295-7.428.421-.933.773-1.697 1.013-2.22l.278-.604c.03-.07.067-.135.109-.196z" fill="#E0E0E0"/><path d="M205.66 48.49c-.038 0 .487-2.136 1.16-4.738.673-2.602 1.292-4.68 1.33-4.68.039 0-.487 2.132-1.16 4.733-.672 2.602-1.283 4.698-1.33 4.685zM213.015 36.497c.019-.044 1.705.972 3.762 2.269 2.057 1.297 3.708 2.375 3.689 2.415-.02.04-1.702-.972-3.759-2.268-2.057-1.297-3.712-2.376-3.692-2.416z" fill="#E0E0E0"/><path d="M235.681 145.526c-1.581-1.142-3.37-1.852-5.228-2.074-.854-.097-1.79-.071-2.478.524a.572.572 0 0 0-.188.221.662.662 0 0 0-.067.299.654.654 0 0 0 .243.355c1.113.912 2.422 1.457 3.785 1.576a6.677 6.677 0 0 0 3.948-.901M235.546 145.353a27.006 27.006 0 0 1-3.384-3.419c-1.042-1.258-1.773-2.812-2.119-4.502a2.09 2.09 0 0 1-.061-.776c.029-.261.107-.511.228-.734 2.706 2.42 4.814 5.55 5.336 9.431z" fill="#10B981"/><path d="M235.654 145.499a15.992 15.992 0 0 1 .062-5.097c.3-1.694 1.145-3.197 2.366-4.209.464 1.248.267 2.691-.062 3.996a20.745 20.745 0 0 1-2.347 5.674M238.299 150.96c-1.609.227-3.005 1.199-4.203 2.442-1.205 1.259-2.043 2.913-2.401 4.738 1.573-.111 2.907-1.385 3.866-2.815.959-1.43 1.64-2.997 2.707-4.334M238.871 151.808a13.547 13.547 0 0 1-.644-5.799c.209-1.964.841-3.838 1.839-5.452.916 3.734.58 7.952-1.195 11.251zM242.363 156.586c-1.467-.103-2.928.291-4.201 1.133-1.273.843-2.302 2.096-2.96 3.604a.698.698 0 0 0-.102.314.737.737 0 0 0 .051.33.522.522 0 0 0 .221.147.47.47 0 0 0 .255.013c1.411-.107 2.664-1.079 3.696-2.189 1.033-1.11 1.934-2.398 3.074-3.357M242.254 156.328c-.753-2.78-.8-5.75-.135-8.56.263-1.101.704-2.26 1.589-2.779a.287.287 0 0 1 .244-.049.375.375 0 0 1 .155.204c.303.769.436 1.613.386 2.455-.051.838-.162 1.67-.332 2.487-.283 1.518-.43 3.152-1.16 4.462a9.435 9.435 0 0 0-.46.981c-.14.333-.14.444-.263.715M251.5 157.909c-.685-2.993.042-6.62 1.685-9.075.12-.178.279-.373.476-.351.306.031.387.493.387.843-.123 3.077-1 6.052-2.529 8.583M252.335 158.562a10.06 10.06 0 0 0 4.927.078c1.628-.383 3.165-1.167 4.504-2.298-1.58-.91-3.384-1.164-5.108-.72-1.705.444-3.264 1.332-4.323 2.922M253.035 156.568c1.774-3.317 5.173-5.483 8.56-5.683-.386 1.585-1.523 2.815-2.799 3.552a14.15 14.15 0 0 1-4.11 1.407c-.545.12-1.296.253-1.651.746M251.677 146.902a32.177 32.177 0 0 0 1.095-5.772c.188-1.972-.162-3.962-1.002-5.696-1.655 3.68-1.821 7.992-.143 11.65M257.253 143.665c1.934-4.04 5.889-7.268 9.887-7.721-1.546 4.409-5.749 7.819-9.887 7.721zM256.031 144.46c2.893.502 5.352 2.624 8.051 3.907a3.196 3.196 0 0 0 1.821.4c.292-.004.575-.11.813-.305.237-.195.416-.469.513-.785a1.86 1.86 0 0 0 .029-.982 1.675 1.675 0 0 0-.466-.823 3.812 3.812 0 0 0-1.318-.919c-2.943-1.407-6.094-1.443-9.191-.59" fill="#10B981"/><path d="M254.361 146.787c.653.213.878.604 1.396 1.11 1.766 1.725 3.856 2.957 6.105 3.601.232.066.538.088.654-.151.116-.24-.027-.467-.159-.657-.982-1.319-2.255-2.311-3.685-2.873-1.407-.6-2.629-1.332-4.311-1.172M252.493 132.756c1.185 1.254 2.585 2.21 4.111 2.806a10.17 10.17 0 0 0 4.748.653.552.552 0 0 0 .387-.164c.224-.28-.047-.711-.306-.941-2.602-2.331-5.757-3.299-8.955-2.354" fill="#10B981"/><path d="M254.713 131.793c1.568-1.324 3.386-2.204 5.307-2.567a10.814 10.814 0 0 1 5.744.476c-1.446 1.541-3.301 2.479-5.267 2.664-1.947.203-3.91.013-5.8-.564M253.823 125.337c-.255-2.984-.088-5.328-.27-8.338 0-.24-.058-.529-.255-.613-.271-.12-.499.262-.588.582a10.923 10.923 0 0 0-.282 4.299 10.434 10.434 0 0 0 1.392 4.004" fill="#10B981"/><path d="M253.653 125.652c1.698-1.257 3.161-2.891 4.304-4.804.851-1.332 1.547-2.935 1.373-4.573a3.699 3.699 0 0 0-1.717.497 4.296 4.296 0 0 0-1.377 1.279 10.56 10.56 0 0 0-1.581 3.654c-.344 1.332-.588 2.664-.99 3.952M257.864 124.32c3.876-1.648 7.464-4.078 10.595-7.175-1.265-.586-2.707-.235-3.979.351-2.872 1.25-5.245 3.665-6.67 6.789M254.813 127.3c1.95.318 3.929.33 5.882.035 1.91-.368 3.712-1.234 5.494-2.096a.652.652 0 0 0 .387-.328.567.567 0 0 0 .007-.292.503.503 0 0 0-.139-.245 1.085 1.085 0 0 0-.468-.253c-1.933-.622-4.029-.329-5.935.408a26.081 26.081 0 0 0-5.228 2.771zM243.658 132.836c-1.334-3.108-1.249-6.7-.097-9.888.812 1.417.913 3.228.774 4.915-.14 1.688-.596 3.428-.623 5.129M238.326 129.75a10.665 10.665 0 0 0-4.864 1.1c-1.537.751-2.92 1.864-4.06 3.265 1.683.233 3.388-.129 4.887-1.039a24.92 24.92 0 0 0 4.188-3.219M234.745 128.374c-1.631-.151-3.197-.386-4.767.169a5.523 5.523 0 0 0-2.154 1.32 6.558 6.558 0 0 0-1.477 2.232 7.665 7.665 0 0 0 4.466-.968 25.592 25.592 0 0 0 3.932-2.735M240.05 128.436c-1.465-1.105-2.973-2.22-4.678-2.664-1.705-.444-3.685-.12-4.876 1.332 1.38.933 3.058 1.044 4.64 1.044 1.581 0 3.569-.023 5.077.59" fill="#10B981"/><path d="M240.058 128.525c-2.505-2.828-3.457-7.903-2.447-11.766 1.978 3.478 2.843 7.637 2.447 11.766zM246.952 120.515c.472-1.261.805-2.584 1.226-3.867.39-1.298.985-2.502 1.756-3.552.78-1.057 1.891-1.721 3.093-1.847a15.443 15.443 0 0 1-2.157 5.392c-1.038 1.606-2.357 2.945-3.871 3.932M245.703 122.185c-.773-1.235-1.685-2.913-2.745-3.836-1.059-.924-2.444-1.483-3.739-1.128.67 1.349 1.606 2.5 2.731 3.362a8.048 8.048 0 0 0 3.753 1.602zM245.955 120.622a23.509 23.509 0 0 1-1.238-4.6 8.103 8.103 0 0 1 .627-4.675c1.376 2.988 1.817 6.216.68 9.324M246.964 111.347c.773-2.962 3.14-5.142 5.688-6.141.316-.147.658-.206.997-.173.17.022.33.1.461.226.13.125.226.292.274.48.093.502-.267.955-.611 1.288-1.992 1.954-4.308 3.423-6.809 4.32zM246.991 108.927c.101-1.909.205-3.845.742-5.657.538-1.811 1.586-3.503 3.094-4.293.259 1.927-.484 3.845-1.377 5.501-.893 1.656-1.972 3.228-2.505 5.075M246.952 110.241c-.645-2.158-.711-4.884-1.836-6.78-.774-1.332-2.046-2.22-2.707-3.6a6.26 6.26 0 0 0 .159 4.089 11.951 11.951 0 0 0 2.084 3.418c.831 1.022 1.546 1.776 2.32 2.873" fill="#10B981"/><path d="M246.964 173.778c-.05 0-.093-14.391-.097-32.142-.004-17.751.035-32.15.086-32.15.05 0 .093 14.39.097 32.15.003 17.76-.035 32.142-.086 32.142z" fill="#263238"/><path d="M257.907 130.665a2.65 2.65 0 0 1-.472.204l-1.299.502c-1.091.444-2.595 1.048-4.227 1.812-1.631.763-3.135 1.443-4.002 2.304a3.39 3.39 0 0 0-.804 1.225c-.124.338-.147.542-.162.538-.016-.005 0-.049 0-.151.019-.142.05-.282.093-.418.16-.5.425-.947.773-1.301a6.965 6.965 0 0 1 1.736-1.243 55.756 55.756 0 0 1 2.285-1.145 54.778 54.778 0 0 1 4.254-1.776c.553-.196 1.005-.342 1.318-.444.166-.054.335-.09.507-.107z" fill="#263238"/><path d="M261.507 120.537a.687.687 0 0 1-.132.16l-.387.444-1.5 1.568-5 5.11c-1.933 1.994-3.634 3.898-4.802 5.328a60.311 60.311 0 0 0-1.361 1.723l-.363.479a.929.929 0 0 1-.136.156s.031-.067.109-.182c.077-.116.185-.289.336-.502.298-.444.746-1.043 1.318-1.776a68.833 68.833 0 0 1 4.78-5.39 861.835 861.835 0 0 1 5.026-5.066l1.547-1.519c.17-.16.313-.293.425-.404a.948.948 0 0 1 .14-.129z" fill="#263238"/><path d="M252.37 129.835c-.055-.022.355-1.106.773-2.473.418-1.368.603-2.518.653-2.509a9.551 9.551 0 0 1-.483 2.575c-.174.59-.377 1.168-.607 1.732a2.997 2.997 0 0 1-.336.675zM246.976 138.551a2.69 2.69 0 0 1-.302-.404l-.773-1.133a499.493 499.493 0 0 0-2.545-3.738c-.997-1.452-1.933-2.749-2.59-3.69l-.774-1.119a3.054 3.054 0 0 1-.27-.444c.119.111.228.236.325.373.201.249.483.617.831 1.075.692.919 1.632 2.22 2.637 3.658a98.265 98.265 0 0 1 2.502 3.779c.313.493.56.888.727 1.176.09.147.168.303.232.467z" fill="#263238"/><path d="M244.574 135.007a5.313 5.313 0 0 1-1.009-2.162 7.156 7.156 0 0 1-.228-2.18h.081c-.035.164-.062.253-.077.249-.016-.005 0-.093 0-.267h.077c.042.719.149 1.43.321 2.123.228.769.507 1.517.835 2.237zM241.473 130.536a3.459 3.459 0 0 0-.703-.466 4.118 4.118 0 0 0-1.934-.177c-.662.058-1.319.18-1.964.364a5.76 5.76 0 0 1-.808.222c.239-.168.5-.29.773-.364a7.899 7.899 0 0 1 1.984-.444 3.74 3.74 0 0 1 2.01.248c.27.115.497.333.642.617zM240.739 129.444c0 .031-.41-.186-1.079-.444a9.5 9.5 0 0 0-5.413-.475c-.696.142-1.114.289-1.126.258a.996.996 0 0 1 .286-.143c.266-.105.538-.193.812-.261a8.454 8.454 0 0 1 5.495.479c.265.116.523.251.773.404.091.046.176.108.252.182zM246.952 124.853a27.502 27.502 0 0 1-.773-3.13 28.126 28.126 0 0 1-.611-3.184c.315 1.026.574 2.073.773 3.135.262 1.044.466 2.106.611 3.179z" fill="#263238"/><path d="M247.003 124.853a16.989 16.989 0 0 0-.87-1.874 8.024 8.024 0 0 0-1.284-1.518c.182.052.352.153.495.293.364.305.68.679.936 1.106.387.581.637 1.268.723 1.993zM246.964 166.105c-.019 0-.058-.346-.197-.954a14.762 14.762 0 0 0-.839-2.496 34.909 34.909 0 0 0-4.443-7.188c-.994-1.301-1.957-2.531-2.772-3.703a26.395 26.395 0 0 1-1.984-3.286 17.385 17.385 0 0 1-1.002-2.433c-.088-.302-.158-.537-.193-.697a1.502 1.502 0 0 1-.054-.248s.108.328.313.914c.298.826.648 1.626 1.048 2.393a28.34 28.34 0 0 0 1.999 3.237c.824 1.163 1.787 2.384 2.78 3.685 2.007 2.589 3.581 5.2 4.424 7.264.337.81.597 1.66.773 2.535.049.239.087.481.112.724.019.083.03.168.035.253zM256.863 153.269a5.72 5.72 0 0 1-.503.355c-.469.304-.918.645-1.346 1.022a16.32 16.32 0 0 0-1.767 1.851 40.884 40.884 0 0 0-1.914 2.562c-1.303 1.878-2.521 3.552-3.252 4.884a16.313 16.313 0 0 0-.815 1.603 5.072 5.072 0 0 1-.287.599s0-.058.047-.169c.046-.111.093-.266.174-.466.228-.565.487-1.113.773-1.643a52.96 52.96 0 0 1 3.221-4.919c.654-.937 1.299-1.816 1.933-2.566a15.266 15.266 0 0 1 1.814-1.834c.438-.37.902-.697 1.388-.977.174-.098.313-.16.387-.204.073-.045.143-.107.147-.098z" fill="#263238"/><path d="M257.056 157.434a6.438 6.438 0 0 1-1.083.186 12.87 12.87 0 0 0-2.598.591 7.38 7.38 0 0 0-2.32 1.403c-.538.475-.793.888-.816.844.04-.106.095-.204.162-.289.17-.246.362-.471.573-.671a6.829 6.829 0 0 1 2.351-1.487c.86-.296 1.748-.476 2.644-.537a5.202 5.202 0 0 1 1.087-.04z" fill="#263238"/><path d="M250.537 159.996c-.058-.036.437-.888.819-2.069.383-1.181.445-2.22.507-2.194.033.224.033.452 0 .675a8.504 8.504 0 0 1-.321 1.59 8.253 8.253 0 0 1-.638 1.461c-.209.35-.344.555-.367.537zM260.068 142.08a1.292 1.292 0 0 1-.178.107l-.514.266a9.634 9.634 0 0 0-.808.444c-.309.191-.669.373-1.048.635l-.599.391c-.205.133-.41.297-.631.444-.44.311-.881.688-1.353 1.074a26.782 26.782 0 0 0-2.83 2.855 29.298 29.298 0 0 0-2.39 3.339c-.321.555-.634 1.075-.885 1.594-.128.253-.263.497-.387.737s-.217.48-.321.702c-.213.444-.363.861-.514 1.225-.151.364-.267.68-.356.941-.089.262-.159.444-.217.6a.965.965 0 0 1-.085.204.843.843 0 0 1 .055-.217c.046-.165.108-.365.181-.618.074-.253.186-.59.329-.959.143-.368.286-.794.491-1.243l.313-.71c.108-.244.244-.489.387-.751.251-.524.561-1.052.881-1.611a27.585 27.585 0 0 1 2.394-3.379 26.644 26.644 0 0 1 2.857-2.864c.48-.386.928-.759 1.373-1.061.224-.156.433-.315.642-.444.209-.129.414-.258.607-.382.387-.249.75-.444 1.067-.604.268-.153.543-.289.824-.408l.53-.236a.542.542 0 0 1 .185-.071z" fill="#263238"/><path d="M252.234 148.114c.072-.291.223-.549.429-.737.484-.479 1.098-.75 1.737-.763a4.242 4.242 0 0 1 1.825.408c.245.09.479.22.692.386a3.567 3.567 0 0 1-.731-.244 4.833 4.833 0 0 0-1.779-.342 2.59 2.59 0 0 0-1.658.666 5.584 5.584 0 0 0-.515.626zM251.063 149.5a6.042 6.042 0 0 0 .386-3.761c.105.157.176.342.205.537.105.459.134.936.085 1.408a4.145 4.145 0 0 1-.367 1.332c-.159.337-.29.501-.309.484z" fill="#263238"/><path d="M238.307 168.17c.27 5.501 1.712 11.1 3.932 16.747h9.667c2.119-5.598 3.46-11.184 3.7-16.747h-17.299z" fill="#455A64"/><path d="M254.04 177.068c0 .058-3.182.107-7.103.107s-7.099-.049-7.099-.107c0-.058 3.178-.103 7.099-.103 3.921 0 7.103.049 7.103.103zM253.816 179.061c0 .058-2.981.107-6.659.107-3.677 0-6.654-.049-6.654-.107 0-.057 2.981-.102 6.654-.102 3.674 0 6.659.045 6.659.102z" fill="#FAFAFA"/><path d="M211.058 69.398H73.645c-3.112 0-5.634 2.896-5.634 6.469v99.962c0 3.573 2.522 6.469 5.633 6.469h137.414c3.112 0 5.634-2.896 5.634-6.469V75.867c0-3.573-2.522-6.47-5.634-6.47z" fill="#455A64"/><path d="M62.2 175.007h161.085v1.976c0 2.096-.726 4.106-2.016 5.589-1.291 1.482-3.042 2.314-4.867 2.314H69.082c-1.825 0-3.576-.832-4.867-2.314-1.29-1.483-2.016-3.493-2.016-5.589v-1.976z" fill="#455A64"/><path d="M212.284 73.882H72.001v95.34h140.283v-95.34zM127.697 173.946l1.995 3.654h28.13l1.856-3.654h-31.981z" fill="#263238"/><path d="M208.421 77.11H76.158c-.698 0-1.264.65-1.264 1.452v88.906c0 .802.566 1.452 1.264 1.452H208.42c.698 0 1.264-.65 1.264-1.452V78.562c0-.802-.566-1.452-1.264-1.452z" fill="#EBEBEB"/><path d="M209.539 169.053H74.747l.147-85.079h134.645v85.079z" fill="#FAFAFA"/><path d="M85.948 80.657c.001.246-.062.486-.18.69a1.127 1.127 0 0 1-.483.458.95.95 0 0 1-.624.072 1.044 1.044 0 0 1-.553-.338 1.305 1.305 0 0 1-.296-.634c-.042-.24-.021-.49.06-.716.082-.227.22-.42.398-.557a.983.983 0 0 1 .6-.209c.141 0 .281.031.412.093.13.061.25.152.35.267.1.115.18.251.234.401.054.15.082.31.082.473zM79.421 80.657c.001.246-.062.486-.18.69a1.128 1.128 0 0 1-.484.459.95.95 0 0 1-.624.071 1.044 1.044 0 0 1-.553-.34 1.305 1.305 0 0 1-.296-.635 1.41 1.41 0 0 1 .063-.716c.082-.227.22-.42.399-.556a.982.982 0 0 1 .6-.207c.142 0 .282.031.412.093.131.062.25.153.35.267.1.115.179.251.233.401.053.15.08.311.08.473zM82.553 80.657c.001.246-.062.486-.18.69a1.128 1.128 0 0 1-.484.459.95.95 0 0 1-.624.071 1.044 1.044 0 0 1-.553-.34 1.305 1.305 0 0 1-.296-.635 1.41 1.41 0 0 1 .063-.716c.082-.227.22-.42.399-.556a.982.982 0 0 1 .6-.207c.142 0 .282.031.412.093.131.062.25.153.35.267.1.115.179.251.233.401.053.15.08.311.08.473zM215.412 173.946c0 .063-32.998.112-73.695.112-40.696 0-73.706-.049-73.706-.112 0-.062 32.994-.111 73.706-.111s73.695.054 73.695.111z" fill="#263238"/><path d="m118.053 117.207 54.841-.586 1.605 42.806-56.786-.466.34-41.754z" fill="#8BAAFF"/><path d="m118.053 117.216 25.907-24.175c.532-.497 1.197-.769 1.883-.769.686 0 1.351.272 1.883.769l25.164 23.585" fill="#8BAAFF"/><path d="m118.053 117.216 25.907-24.175c.532-.497 1.197-.769 1.883-.769.686 0 1.351.272 1.883.769l25.164 23.585" fill="#000" opacity=".3"/><path d="M117.713 158.952c-.066-.075 4.311-5.59 9.783-12.316 5.471-6.727 9.964-12.104 10.034-12.041.069.062-4.312 5.585-9.787 12.316-5.475 6.731-9.96 12.121-10.03 12.041zM174.499 159.427c-.07.076-4.354-5.328-9.57-12.019s-9.388-12.21-9.319-12.281c.07-.071 4.354 5.328 9.574 12.024 5.22 6.695 9.384 12.205 9.315 12.276z" fill="#263238"/><path d="m172.894 116.621-27.492 25.326-27.349-24.74" fill="#000" opacity=".5"/><path d="m120.822 119.543-.124-19.67 48.02-.763.576 20.69-23.896 21.814-24.576-22.071z" fill="#FAFAFA"/><path d="M120.822 119.543s.158.129.456.391l1.307 1.158 4.972 4.44c4.285 3.841 10.44 9.324 17.892 16.02h-.101l23.884-21.831-.034.093c-.113-3.947-.229-8.09-.345-12.303-.081-2.838-.158-5.644-.235-8.392l.1.11-48.016.73.062-.076c.023 6.185.046 11.1.058 14.465v5.204-1.323c0-.888-.023-2.176-.039-3.854-.027-3.379-.07-8.294-.12-14.492v-.071h.062l47.989-.8h.101v.116c.077 2.748.154 5.55.236 8.387.116 4.214.232 8.356.34 12.303v.058l-.039.035-23.911 21.801-.05.049-.051-.049-17.871-16.104-4.934-4.467-1.288-1.172-.425-.426z" fill="#263238"/><path d="M161.147 109.029c0 .062-7.346.183-16.402.267-9.056.085-16.403.102-16.403.04 0-.062 7.347-.182 16.403-.271 9.056-.089 16.402-.103 16.402-.036zM161.155 114.584c0 .062-7.347.186-16.399.271-9.051.085-16.402.102-16.402.036 0-.067 7.347-.183 16.402-.267 9.056-.085 16.399-.103 16.399-.04zM161.167 120.986c0 .067-7.347.187-16.399.271-9.052.085-16.402.103-16.402.036s7.346-.182 16.402-.267c9.056-.084 16.399-.102 16.399-.04zM161.178 127.388c0 .067-7.002.183-15.644.263-8.642.08-15.649.098-15.649.031s7.003-.182 15.649-.262c8.645-.08 15.644-.094 15.644-.032zM155.053 133.023a.578.578 0 0 1-.193.027l-.553.026-2.026.058-6.693.142c-2.614.054-4.984.072-6.697.072H136.312a.674.674 0 0 1-.194-.023.555.555 0 0 1 .194-.026l.549-.027 2.03-.058 6.693-.138c2.614-.058 4.98-.075 6.693-.075H154.86c.065 0 .13.007.193.022zM148.867 138.44c-1.157.12-2.319.161-3.48.124a25.922 25.922 0 0 1-3.48-.106 26.613 26.613 0 0 1 3.48-.125 26.967 26.967 0 0 1 3.48.107zM274.147 184.505c0 .067-57.822.116-129.147.116-71.325 0-129.147-.049-129.147-.116s57.81-.116 129.147-.116c71.336 0 129.147.054 129.147.116zM155.348 98.937c.055 0 .078.257.051.564-.027.306-.094.546-.148.541-.055-.004-.078-.261-.051-.568.028-.306.09-.546.148-.537zM155.862 94.612c.051.364.036.736-.043 1.093-.018.368-.101.73-.244 1.06a5.86 5.86 0 0 1 .287-2.153zM156.62 90.332c.032.369-.004.74-.104 1.092-.04.367-.144.72-.307 1.04a2.975 2.975 0 0 1 .109-1.088 2.93 2.93 0 0 1 .302-1.044zM157.653 86.136a5.67 5.67 0 0 1-.554 2.092c-.004-.37.058-.738.182-1.08.06-.363.187-.708.372-1.012zM158.978 82.043a3.037 3.037 0 0 1-.259 1.056 2.812 2.812 0 0 1-.445.973c.025-.364.113-.72.259-1.044a2.79 2.79 0 0 1 .445-.985zM160.625 78.113a5.563 5.563 0 0 1-.866 1.94c.052-.364.169-.711.344-1.02.24-.538.472-.95.522-.92zM162.613 74.393a2.88 2.88 0 0 1-.445.972c-.278.506-.545.888-.592.857.078-.36.221-.696.422-.986.294-.502.568-.879.615-.843zM164.956 70.956a2.835 2.835 0 0 1-.53.915c-.336.444-.642.803-.688.763-.047-.04.193-.444.533-.91.341-.466.642-.808.685-.768zM167.632 67.861c.038.05-.24.422-.619.835s-.719.71-.773.666c-.055-.044.235-.417.618-.835.383-.417.739-.715.774-.666zM170.624 65.17c.031.054-.286.387-.707.742a2.294 2.294 0 0 1-.824.55c-.035-.048.282-.381.708-.736.237-.25.518-.44.823-.555zM173.903 62.964a4.374 4.374 0 0 1-1.674 1.039c-.027-.058.325-.333.773-.622a2.13 2.13 0 0 1 .901-.417zM177.422 61.321a2.295 2.295 0 0 1-.858.48c-.29.16-.606.25-.928.262.254-.226.546-.389.858-.48.289-.163.606-.252.928-.262zM181.119 60.331a2.165 2.165 0 0 1-.917.294c-.306.112-.628.15-.947.111a3.374 3.374 0 0 1 1.864-.405zM184.912 60.092a2.064 2.064 0 0 1-.948.124c-.319.044-.644.01-.951-.102a2.07 2.07 0 0 1 .948-.13c.32-.042.644-.006.951.108zM188.693 60.603a2.05 2.05 0 0 1-.955-.063 2.07 2.07 0 0 1-.924-.289 4.05 4.05 0 0 1 1.879.352zM192.324 61.85a4.127 4.127 0 0 1-1.798-.72c.322.012.639.096.932.249.314.085.61.245.866.47zM195.707 63.83a2.262 2.262 0 0 1-.873-.444 2.388 2.388 0 0 1-.774-.644c.315.077.613.228.874.444.456.306.804.59.773.644zM198.685 66.53a2.464 2.464 0 0 1-.774-.636c-.386-.39-.68-.754-.645-.803.035-.05.386.23.773.63s.684.764.646.808zM200.564 69.016c-.046.035-.213-.129-.387-.369-.174-.24-.259-.466-.216-.51.042-.045.209.124.387.368.177.244.263.47.216.51zM218.443 95.767a2.173 2.173 0 0 1-.916-.364c-.487-.258-.862-.515-.835-.573.324.052.637.175.92.364.308.125.591.32.831.573zM222.094 97.236a4.278 4.278 0 0 1-1.849-.648 4.22 4.22 0 0 1 1.849.648zM225.91 97.925a2.082 2.082 0 0 1-.974 0 2.102 2.102 0 0 1-.948-.236c.321-.074.65-.074.971 0 .327.005.651.085.951.236zM229.769 97.787c-.304.14-.629.206-.955.196-.323.069-.655.058-.975-.031.306-.138.631-.206.959-.2a2.06 2.06 0 0 1 .971.035zM233.566 96.97c-.281.192-.593.32-.916.373a2.13 2.13 0 0 1-.971.11c.287-.18.602-.294.928-.332.307-.126.634-.177.959-.151zM237.154 95.332c.027.057-.348.31-.835.572a2.122 2.122 0 0 1-.92.356 4.447 4.447 0 0 1 1.755-.928zM240.36 92.859c.035.048-.267.413-.696.785a2.088 2.088 0 0 1-.847.551c-.031-.053.302-.369.727-.733a2.69 2.69 0 0 1 .816-.603zM242.989 89.617c-.105.36-.281.686-.514.955-.344.475-.677.804-.716.76-.038-.045.225-.445.561-.889.337-.444.623-.861.669-.826zM244.799 85.692a2.646 2.646 0 0 1-.267 1.08 2.545 2.545 0 0 1-.518.95c.058-.37.17-.723.332-1.048.103-.354.256-.686.453-.982zM245.535 81.368c.093.363.108.747.043 1.119-.001.38-.084.753-.242 1.088a3.97 3.97 0 0 1 .039-1.11c0-.374.054-.744.16-1.097zM244.957 76.99c.186.313.306.672.349 1.048.104.359.132.74.081 1.114a3.676 3.676 0 0 1-.279-1.06 3.846 3.846 0 0 1-.151-1.102zM243.275 73.012c.043-.04.337.342.607.888.193.305.318.66.364 1.034-.051.031-.275-.395-.538-.919a3.68 3.68 0 0 1-.433-1.003zM240.592 69.842c.313.12.596.328.823.603.41.404.677.804.638.848-.038.045-.386-.28-.773-.674-.387-.396-.719-.724-.688-.777zM237.085 68.039c.33-.036.663.027.966.182.323.085.621.26.87.51a2.73 2.73 0 0 1-.932-.292 2.935 2.935 0 0 1-.904-.4zM233.253 68.115c.281-.202.604-.314.936-.325.323-.085.66-.072.978.036a9.129 9.129 0 0 1-1.934.29h.02zM229.92 70.254c-.043-.04.224-.444.661-.83.245-.259.547-.435.874-.51.027.062-.337.333-.774.697-.436.364-.719.688-.761.643zM228.389 74.242a2.297 2.297 0 0 1 .058-1.124c.045-.38.186-.736.407-1.025-.035.367-.107.73-.214 1.079a4.776 4.776 0 0 1-.251 1.07zM229.143 78.544a2.263 2.263 0 0 1-.468-.986 2.364 2.364 0 0 1-.163-1.11c.159.325.277.673.352 1.035.137.336.231.694.279 1.061zM231.671 81.847a1.915 1.915 0 0 1-.831-.595c-.41-.408-.661-.825-.619-.865.043-.04.356.293.75.692.395.4.731.715.7.768zM235.182 83.654a1.818 1.818 0 0 1-.959-.208 1.88 1.88 0 0 1-.87-.51c.323.039.637.138.932.292.318.083.622.227.897.426zM239.018 84.072a3.12 3.12 0 0 1-1.933-.049 2.66 2.66 0 0 1 .966-.053c.325-.03.652.004.967.102zM242.827 83.264a3.262 3.262 0 0 1-1.872.55c.285-.178.596-.296.917-.35a2.61 2.61 0 0 1 .955-.2z" fill="#263238"/><path d="M246.307 81.421c-.23.268-.505.48-.808.622-.273.208-.579.35-.901.417a4.545 4.545 0 0 1 1.709-1.039zM249.4 78.775c.039.049-.267.404-.681.795a2.505 2.505 0 0 1-.812.617c-.034-.053.275-.409.685-.795.232-.263.507-.473.808-.617zM252.049 75.53c.042.04-.205.443-.553.918-.348.475-.665.813-.704.768-.039-.044.205-.444.549-.919.344-.475.661-.817.708-.768zM254.171 71.826c-.074.367-.213.711-.409 1.013-.279.528-.538.927-.584.888.075-.367.214-.711.41-1.013.274-.52.533-.919.583-.888zM255.741 67.768a3.164 3.164 0 0 1-.259 1.079c-.086.364-.242.7-.456.986.033-.372.124-.734.267-1.07.089-.363.242-.702.448-.995zM256.821 63.492c.02.375-.029.75-.143 1.102a3.06 3.06 0 0 1-.341 1.047c.027-.747.192-1.48.484-2.149zM257.497 59.141c.054.371.038.751-.046 1.115a3.157 3.157 0 0 1-.244 1.078 3.048 3.048 0 0 1 .046-1.114c.019-.374.102-.741.244-1.079zM257.854 54.719c.09.743.041 1.5-.144 2.22a3.26 3.26 0 0 1-.027-1.119c-.009-.376.05-.75.171-1.101zM257.977 50.283c.096.36.124.738.082 1.11a3.01 3.01 0 0 1-.121 1.11 3.313 3.313 0 0 1-.082-1.114c-.024-.374.017-.75.121-1.106zM257.95 45.843c.104.358.144.735.117 1.11.039.373.008.752-.09 1.11a3.19 3.19 0 0 1-.117-1.11 3.237 3.237 0 0 1 .09-1.11zM257.907 43.113c.054 0 .105.11.108.253.004.142-.038.253-.096.257-.059.005-.105-.11-.105-.253 0-.142.023-.257.093-.257z" fill="#263238"/><path d="m266.364 29.929-26.282 3.278 1.925 20.345 26.281-3.279-1.924-20.344z" fill="#8BAAFF"/><path d="m241.995 53.574-1.933-20.353 26.293-3.277 1.934 20.357-26.294 3.273zm-1.902-20.344 1.933 20.321 26.263-3.276-1.934-20.322-26.262 3.277z" fill="#263238"/><path d="M266.471 30.192c-.065.109-.138.21-.22.302l-.661.83-2.471 3.01-8.232 9.867-.066.084-.085-.062-.201-.147-10.162-7.463-3.093-2.287-.827-.635c-.1-.07-.194-.149-.283-.235.109.05.212.112.31.186l.85.59 3.094 2.22 10.211 7.398.202.146h-.151l8.313-9.808 2.525-2.948.692-.79c.078-.095.164-.18.255-.258z" fill="#263238"/><path d="M242.111 53.795c-.054-.04 1.659-3.077 3.824-6.775 2.166-3.699 3.972-6.66 4.026-6.625.054.036-1.655 3.077-3.824 6.776-2.17 3.698-3.972 6.669-4.026 6.624zM258.68 39.072c.05-.053 2.266 2.473 4.949 5.64 2.684 3.165 4.822 5.771 4.776 5.829-.047.058-2.262-2.469-4.95-5.639-2.687-3.17-4.829-5.799-4.775-5.83zM146.342 91.62c.055 0 .136.226.183.528.047.302.035.555-.019.568-.055.014-.137-.226-.183-.532-.047-.307-.035-.555.019-.564zM145.723 87.286c.146.332.232.695.252 1.066.084.359.102.734.054 1.101a2.967 2.967 0 0 1-.252-1.066 3.112 3.112 0 0 1-.054-1.1zM145.17 82.944c.142.334.221.699.233 1.07.076.36.088.735.035 1.101a2.901 2.901 0 0 1-.233-1.07 3.134 3.134 0 0 1-.035-1.101zM144.737 78.588c.131.34.2.708.203 1.08.069.362.069.737 0 1.1a3.054 3.054 0 0 1-.199-1.079 3.041 3.041 0 0 1-.004-1.1zM144.471 74.202c.17.714.208 1.461.109 2.193a5.971 5.971 0 0 1-.109-2.193zM144.432 69.81a6.135 6.135 0 0 1 0 2.22 2.936 2.936 0 0 1-.097-1.096 3.035 3.035 0 0 1 .097-1.123zM144.673 65.433c.071.363.077.739.019 1.105.006.371-.055.74-.179 1.084a2.976 2.976 0 0 1-.023-1.102 3.009 3.009 0 0 1 .183-1.087zM145.244 61.095c.047.368.025.744-.066 1.1a2.949 2.949 0 0 1-.267 1.062 6.116 6.116 0 0 1 .333-2.162zM146.223 56.855c.004.37-.056.739-.178 1.083a3.069 3.069 0 0 1-.368 1.021c-.009-.373.05-.743.174-1.088.059-.365.186-.712.372-1.016zM147.649 52.783c-.034.37-.134.729-.294 1.052-.101.354-.263.68-.476.96a5.74 5.74 0 0 1 .774-2.012h-.004zM149.512 48.956a2.937 2.937 0 0 1-.406.999c-.27.515-.529.888-.58.888.077-.362.216-.702.41-1 .271-.528.53-.923.576-.887zM151.805 45.444c.043.044-.189.444-.518.928-.328.484-.634.821-.68.781.118-.346.295-.662.522-.928.332-.47.638-.821.676-.781zM154.524 42.358c.034.053-.252.422-.638.83-.387.409-.735.697-.774.653-.038-.044.248-.413.638-.826.391-.413.739-.706.774-.657zM157.648 39.836c.027.058-.309.364-.754.688-.254.23-.546.398-.859.493-.03-.049.306-.36.751-.688.256-.228.549-.396.862-.493zM161.128 38.038a2.228 2.228 0 0 1-.855.506c-.287.17-.601.27-.924.293.252-.235.543-.407.855-.506.287-.17.601-.27.924-.293zM163.92 37.248c0 .062-.194.16-.453.218-.259.057-.483.053-.495 0-.011-.054.194-.16.457-.218.262-.058.483-.063.491 0z" fill="#263238"/><path d="m143.351 20.577-6.988 20.751 26.811 11.904 6.987-20.751-26.81-11.904z" fill="#8BAAFF"/><path d="m163.173 53.25-26.819-11.913 6.995-20.762 26.819 11.908-6.995 20.766zm-26.796-11.927 26.796 11.895 6.984-20.73-26.796-11.895-6.984 20.73z" fill="#263238"/><path d="M170.164 32.772a1.712 1.712 0 0 1-.34.164l-1.001.418-3.693 1.492-12.25 4.83-.1.04-.054-.106-.132-.258-6.573-13.04-1.968-3.97-.522-1.087a2.311 2.311 0 0 1-.17-.391c.08.112.151.233.212.36l.569 1.06 2.018 3.912c1.717 3.348 4.06 7.935 6.647 12.996l.131.258-.154-.067 12.288-4.75 3.72-1.4 1.017-.368c.115-.046.234-.077.355-.093z" fill="#263238"/><path d="M136.366 41.617c-.035-.072 2.938-2.02 6.643-4.352 3.704-2.33 6.732-4.164 6.766-4.093.035.07-2.938 2.02-6.643 4.355-3.704 2.336-6.731 4.16-6.766 4.09zM158.777 36.852c.07-.022 1.11 3.686 2.32 8.281 1.21 4.595 2.146 8.347 2.076 8.37-.069.022-1.109-3.681-2.32-8.281-1.21-4.6-2.146-8.33-2.076-8.37zM135.083 96.477c.055 0 .082.258.062.564-.019.306-.085.55-.14.546-.054-.004-.086-.257-.062-.564.023-.306.086-.55.14-.546zM135.179 91.962c.102.365.136.75.102 1.132.03.38-.006.763-.105 1.128a3.218 3.218 0 0 1-.098-1.128 3.342 3.342 0 0 1 .101-1.132zM134.912 87.468c.193.73.255 1.495.183 2.251a3.089 3.089 0 0 1-.191-1.114 3.362 3.362 0 0 1 .008-1.137zM134.258 83.002a3.2 3.2 0 0 1 .287 1.088c.096.366.126.751.089 1.132a3.247 3.247 0 0 1-.286-1.088 3.149 3.149 0 0 1-.09-1.132zM133.187 78.655c.327.663.531 1.396.6 2.153a3.082 3.082 0 0 1-.387-1.043 3.182 3.182 0 0 1-.213-1.11zM131.683 74.486c.222.285.39.619.495.981.165.332.272.7.313 1.079a3.062 3.062 0 0 1-.495-.981 3.176 3.176 0 0 1-.313-1.08zM129.731 70.565c.046-.035.324.364.618.888.197.31.338.662.418 1.035-.05.03-.313-.378-.592-.915a3.034 3.034 0 0 1-.444-1.008zM127.322 67c.042-.044.359.31.707.79.237.27.425.592.553.946-.046.035-.359-.32-.707-.795a2.934 2.934 0 0 1-.553-.941zM124.507 63.856c.034-.048.386.253.796.67.41.418.7.8.661.845a2.569 2.569 0 0 1-.796-.671c-.41-.417-.708-.795-.661-.844zM121.309 61.22c.319.105.617.285.874.528.452.346.796.67.773.723a2.476 2.476 0 0 1-.874-.533c-.46-.342-.804-.666-.773-.719zM117.806 59.168c.33.049.649.174.935.368.315.125.604.322.851.578a2.254 2.254 0 0 1-.936-.369 2.496 2.496 0 0 1-.85-.577zM114.067 57.805c.333-.014.665.048.978.182.329.063.643.202.924.408a2.306 2.306 0 0 1-.978-.182 2.367 2.367 0 0 1-.924-.408zM110.157 57.232a3.52 3.52 0 0 1 1.961.183c-.658.06-1.32 0-1.961-.183zM106.237 57.543a4.25 4.25 0 0 1 1.956-.267 2.185 2.185 0 0 1-.966.25c-.326.08-.662.085-.99.017zM102.44 58.706c.273-.217.582-.369.908-.444.305-.153.634-.231.967-.23a2.368 2.368 0 0 1-.909.443 2.284 2.284 0 0 1-.966.231zM98.898 60.664c-.027-.058.336-.342.82-.64.274-.217.585-.368.912-.443a4.814 4.814 0 0 1-1.732 1.079v.004zM95.758 63.373c-.039-.045.27-.409.688-.813.236-.272.516-.487.824-.635.03.053-.278.417-.692.813-.233.273-.512.49-.82.635zM93.187 66.782c.099-.367.27-.704.499-.985.336-.498.664-.844.703-.804.039.04-.212.444-.545.946-.332.502-.61.879-.657.843zM91.752 69.708c-.05-.026 0-.27.12-.55s.252-.48.302-.444c.05.035 0 .275-.12.55-.12.276-.251.475-.302.444zM67.183 95.905c0-.063.205-.143.468-.183.263-.04.484 0 .491.05.008.048-.197.146-.468.182-.27.035-.487.027-.49-.05zM63.355 95.416c.326-.004.65.051.96.164.323.039.64.138.935.293a2.96 2.96 0 0 1-1.895-.444v-.013zM59.89 93.449c.312.112.605.283.867.506.456.311.824.573.8.635a2.025 2.025 0 0 1-.9-.444c-.465-.31-.797-.644-.766-.697zM57.014 90.483c.042-.04.36.298.735.733s.665.803.63.852c-.035.05-.387-.248-.773-.688-.387-.44-.635-.852-.592-.897zM54.74 86.887c.05-.031.325.355.615.888.205.293.358.63.449.99-.047.04-.321-.35-.615-.866a2.914 2.914 0 0 1-.449-1.012zM53.07 82.877c.213.286.373.618.472.977.155.332.253.696.29 1.07a2.893 2.893 0 0 1-.476-.977 3.15 3.15 0 0 1-.286-1.07zM51.96 78.615c.175.32.292.676.345 1.048.115.353.165.73.147 1.105a2.95 2.95 0 0 1-.344-1.047 3.13 3.13 0 0 1-.148-1.106zM51.288 74.233c.141.34.224.707.244 1.083.08.366.097.746.046 1.119a3.074 3.074 0 0 1-.244-1.083 3.084 3.084 0 0 1-.047-1.12zM50.917 69.806c.187.72.24 1.476.155 2.22a3.094 3.094 0 0 1-.179-1.097 3.081 3.081 0 0 1 .024-1.123zM50.754 66.472c.058 0 .113.244.124.55.012.306-.023.555-.077.56-.055.004-.113-.245-.125-.551-.011-.306.024-.555.078-.56z" fill="#263238"/><path d="m65.315 39.554-32.15 1.738 1.023 24.885 32.151-1.738-1.024-24.885z" fill="#8BAAFF"/><path d="m34.174 66.188-1.021-24.895 32.163-1.74 1.02 24.894-32.162 1.74zm-1.002-24.895 1.02 24.864 32.133-1.74-1.02-24.865-32.133 1.74z" fill="#263238"/><path d="M65.428 39.845a2.324 2.324 0 0 1-.286.346l-.858.95-3.19 3.45L50.444 55.9l-.088.093-.097-.08-.232-.195-11.882-9.937c-1.493-1.27-2.707-2.304-3.58-3.041l-.963-.844a2.209 2.209 0 0 1-.325-.31c.125.074.246.16.36.257l.997.781 3.635 2.957 11.928 9.857.236.196h-.185L60.95 44.4l3.255-3.37.897-.888c.1-.111.208-.211.325-.297z" fill="#263238"/><path d="M34.297 66.472c-.061-.058 2.216-3.601 5.089-7.912 2.873-4.312 5.255-7.762 5.316-7.708.062.053-2.211 3.6-5.084 7.912-2.873 4.311-5.255 7.76-5.32 7.708zM55.378 49.964c.062-.063 2.591 3.197 5.646 7.272 3.054 4.076 5.486 7.433 5.413 7.495-.073.062-2.587-3.197-5.645-7.277-3.059-4.08-5.476-7.428-5.414-7.49z" fill="#263238"/><path d="M90.7 127.943a1.127 1.127 0 0 0-.143-.709.886.886 0 0 0-.522-.414l-.862.067-3.093-1.23a.798.798 0 0 0-.406-.018.863.863 0 0 0-.373.184 1.023 1.023 0 0 0-.269.349 1.181 1.181 0 0 0-.112.448c0 1.017-.387 3.788-1.087 2.917l-.054-.057c-1.017-1.301-2.192-1.932-2.645-1.856a.501.501 0 0 0-.258.153.616.616 0 0 0-.145.289.68.68 0 0 0 .013.333c.031.107.089.202.166.273a.544.544 0 0 0 .186.146c.03 0 .07.044.1.062.428.357.823.764 1.18 1.212.322.39.583.841.773 1.332.205.551.367 1.03.495 1.443l.046 3.255-1.23 15.216s-8.158-9.839-7.969-9.933l.476 15.327 4.942 4.693c.915.874 2.029 1.427 3.21 1.595a5.513 5.513 0 0 0 3.452-.65c1.072-.591 1.975-1.524 2.599-2.687a7.952 7.952 0 0 0 .923-3.874l-.282-19.674.201-2.579.688-5.613zM44.896 149.575l-8.936 23.461-7.053 16.925-5.247 2.025s-4.153 1.385-4.153 2.371 1.095.764 1.095.764c.2 1.474 1.98.639 3.224 0 1.245-.64 4.014-.817 4.014-.817a1.24 1.24 0 0 0-.35.439 1.455 1.455 0 0 0-.043 1.157c.072.184.18.346.316.473.44.355 1.206-.076 1.724-.711s1.856-.928 3.345-1.54c1.489-.613 1.732-2.904 1.732-2.904l17.868-34.574-7.536-7.069z" fill="#FFBE9D"/><path d="m74.53 158.095 2.246 3.406 4.869-12.401s-4.725-6.62-6.454-9.395c-1.728-2.775-2.996-3.232-2.996-3.232s-3.14-1.053-4.706-1.053l-7.757.533-7.876 3.947c-1.935.97-3.583 2.563-4.745 4.587l-7.416 13.679 10.502 5.155 3.523 23.159c.672 3.468 1.264 6.74 4.052 8.339l19.476-21.494-2.281-4.13-.437-11.1z" fill="#8BAAFF"/><path d="M55.908 153.855c.047.036-1.16 2.176-2.68 4.787-1.52 2.61-2.803 4.688-2.845 4.653-.043-.036 1.16-2.176 2.68-4.787 1.519-2.61 2.799-4.688 2.845-4.653zM72.237 175.824a3.58 3.58 0 0 1-.518.356c-.337.213-.831.515-1.446.888a143.906 143.906 0 0 1-4.857 2.748 136.803 136.803 0 0 1-4.938 2.548c-.638.311-1.16.56-1.515.724a3.449 3.449 0 0 1-.569.231c.171-.123.35-.229.538-.315l1.488-.786c1.261-.662 3.001-1.576 4.911-2.611 1.91-1.034 3.631-1.993 4.876-2.664l1.477-.817a3.49 3.49 0 0 1 .553-.302zM55.293 148.847c-.25-.309-.48-.64-.684-.99a15.389 15.389 0 0 0-1.729-2.265 5.99 5.99 0 0 0-2.23-1.505c-.639-.231-1.064-.222-1.064-.266a.684.684 0 0 1 .298-.027c.271.012.54.056.804.133.865.28 1.66.791 2.32 1.492.65.7 1.223 1.487 1.71 2.345.222.338.415.701.575 1.083zM71.31 160.111c.009.083.009.166 0 .249v.701c-.046.862-.151 1.719-.314 2.562-.52 2.804-1.605 5.429-3.167 7.665-1.563 2.236-3.56 4.021-5.83 5.211-.684.358-1.39.655-2.112.888-.255.089-.46.138-.596.173a.756.756 0 0 1-.208.045s.278-.111.773-.302c.708-.271 1.4-.594 2.072-.968 2.231-1.218 4.193-3 5.738-5.212 1.546-2.212 2.635-4.797 3.187-7.562a23.37 23.37 0 0 0 .387-2.535c.034-.577.054-.915.07-.915z" fill="#263238"/><path d="M51.558 172.272c-.035-.222 2.498-15.255 2.498-15.255l-3.82 6.584" fill="#000" opacity=".3"/><path d="M74.031 143.665c.018.085.027.171.027.258 0 .195.023.444.043.746.027.675.07 1.598.12 2.73.096 2.336.232 5.511.386 9.014.155 3.503.263 6.713.321 9.022.031 1.154.05 2.091.058 2.735v.746c.01.085.01.172 0 .257a1.226 1.226 0 0 1-.027-.257c0-.196-.023-.444-.042-.742-.027-.675-.07-1.603-.12-2.73-.097-2.336-.232-5.51-.387-9.018a536.205 536.205 0 0 1-.32-9.022c-.032-1.154-.051-2.087-.059-2.735v-.742a1.137 1.137 0 0 1 0-.262z" fill="#263238"/><path d="M58.487 183.279c-.626-.595-.483-1.811.07-2.495.553-.684 1.376-.964 2.15-1.266 3.7-1.376 7.42-3.321 9.86-6.802.31-.498.679-.946 1.094-1.332.212-.192.464-.315.731-.357a1.33 1.33 0 0 1 .788.118c.747.444.774 1.687.46 2.588-.389 1.106-1.112 2.014-2.037 2.558M74.112 146.334l2.162 14.403-1.686-2.553-.476-11.85z" fill="#000" opacity=".2"/><path d="m94.675 184.167-3.654 14.395 15.571 5.328c.352-1.741-6.817-7.917-6.817-7.917l2.692-9.129-7.792-2.677z" fill="#8BAAFF"/><path d="M95.162 193.54a.613.613 0 0 0-.442.195.802.802 0 0 0-.215.484.808.808 0 0 0 .162.511c.108.14.26.227.422.244a.657.657 0 0 0 .467-.212.855.855 0 0 0 .225-.516.806.806 0 0 0-.218-.512.614.614 0 0 0-.466-.194M91.021 198.562l.418-1.435 14.774 5.63s.604.582.387 1.115l-15.579-5.31z" fill="#fff" opacity=".6"/><path d="M100.05 195.951c-.023.084-.414 0-.862.151-.449.151-.739.444-.8.391-.063-.054.181-.524.726-.698.545-.173.975.08.936.156zM101.485 197.283c0 .093-.387.129-.727.408-.341.28-.53.649-.604.618-.073-.032 0-.542.449-.888.448-.347.901-.222.882-.138zM101.833 199.845c-.078 0-.07-.48.251-.888.321-.409.723-.48.735-.4.011.08-.271.267-.53.608-.259.342-.379.698-.456.68zM100.46 193.797c-.054.067-.387-.173-.808-.284-.422-.111-.816-.071-.835-.16-.02-.088.386-.288.897-.15.51.137.819.537.746.594zM100.638 191.551a1.414 1.414 0 0 1-.774-.271 3.574 3.574 0 0 1-.742-.568 4.148 4.148 0 0 1-.387-.444 1.116 1.116 0 0 1-.178-.289.452.452 0 0 1-.028-.256.412.412 0 0 1 .114-.223.404.404 0 0 1 .184-.095.386.386 0 0 1 .202.01c.1.034.195.083.282.147.153.104.298.222.433.355.23.226.425.493.581.79.168.257.263.567.27.888-.042 0-.147-.319-.433-.759a3.384 3.384 0 0 0-.58-.688 2.83 2.83 0 0 0-.406-.311c-.15-.107-.29-.155-.356-.084-.065.071-.027.035 0 .102.034.078.079.15.132.213a4.809 4.809 0 0 0 1.009 1.003c.402.293.692.431.677.48z" fill="#263238"/><path d="M100.506 191.64a1.673 1.673 0 0 1 .02-.933 3.119 3.119 0 0 1 .699-1.421.696.696 0 0 1 .275-.235.589.589 0 0 1 .34-.049.388.388 0 0 1 .174.138c.046.063.075.14.085.222.014.118.014.237 0 .355a2.292 2.292 0 0 1-.154.604 2.182 2.182 0 0 1-.573.812c-.425.36-.773.356-.773.325 0-.031.294-.129.642-.498.201-.209.36-.467.464-.754.062-.167.103-.344.12-.524.027-.2 0-.373-.062-.373a.598.598 0 0 0-.352.199c-.115.13-.221.269-.317.418a3.59 3.59 0 0 0-.387.843c-.15.515-.154.871-.201.871z" fill="#263238"/><path d="M110.664 162.735c.387 3.321-.595 7.064-1.643 10.212l-6.829 18.417-7.56-1.332s-1.573 2.016-3.588 2.789c-.9.342-3.866 1.012-6.306-1.004 0 0-3.453 5.524-8.893 7.193-5.44 1.669-13.657 2.593-17.64-4.706l18.947-20.975c.386.107 16.329-12.237 24.94-15.047.015 0 7.845-1.652 8.572 4.453z" fill="#263238"/><path d="M94.072 189.961s.031-.026.1-.071l.31-.186c.275-.169.677-.404 1.187-.728a19.122 19.122 0 0 0 1.81-1.279 10.212 10.212 0 0 0 2.045-2.18 8.147 8.147 0 0 0 1.326-3.525 13.397 13.397 0 0 0-.162-4.44c-.256-1.624-.992-3.097-2.084-4.17-1.24-1.043-2.718-1.648-4.254-1.74a11.431 11.431 0 0 0-2.339.022c-.756.092-1.507.24-2.246.444-1.396.413-2.76.955-4.08 1.621-2.525 1.27-4.717 2.637-6.643 3.583a21.63 21.63 0 0 1-4.698 1.798 7.837 7.837 0 0 1-.773.16c-.228.035-.41.075-.564.089l-.349.04h-.12l.12-.032.345-.057c.15-.027.34-.058.56-.111.22-.054.476-.098.774-.178a22.748 22.748 0 0 0 4.64-1.865c1.91-.959 4.094-2.34 6.627-3.627a24.425 24.425 0 0 1 4.106-1.643 15.786 15.786 0 0 1 2.27-.444c.79-.087 1.587-.095 2.378-.022 1.581.092 3.104.717 4.377 1.798a6.218 6.218 0 0 1 1.419 1.98c.333.731.576 1.511.723 2.318.298 1.481.348 3.013.147 4.515a8.361 8.361 0 0 1-1.38 3.592 10.026 10.026 0 0 1-2.096 2.185c-.59.456-1.202.874-1.832 1.252-.519.311-.928.537-1.207.688l-.32.169a.45.45 0 0 1-.117.044z" fill="#455A64"/><path d="M98.813 165.768a26.582 26.582 0 0 1-1.586 2.97c-.53.99-1.115 1.939-1.751 2.842.47-1.029 1-2.022 1.585-2.971a27.302 27.302 0 0 1 1.752-2.841zM93.36 188.496c-.45.164-.909.3-1.372.409-.847.239-2.01.608-3.271 1.114a34.221 34.221 0 0 0-3.163 1.47c-.793.417-1.28.697-1.296.666.097-.096.204-.178.318-.244.212-.147.526-.342.916-.569a24.21 24.21 0 0 1 6.465-2.597 12.3 12.3 0 0 1 1.025-.209c.124-.031.251-.044.379-.04zM102.057 190.157c-.035 0-.124-.391-.445-.933-.409-.713-1.016-1.245-1.723-1.509a2.881 2.881 0 0 0-2.167.057c-.537.222-.82.493-.843.444-.023-.048.054-.088.186-.208.185-.162.388-.297.603-.4a2.835 2.835 0 0 1 2.286-.118c.749.283 1.382.871 1.778 1.654.122.229.217.476.282.733.066.155.066.28.043.28zM69.353 183.279c.054.13.089.27.1.413.058.386.086.776.085 1.168a8.06 8.06 0 0 1-.89 3.712c-.593 1.125-1.509 1.978-2.59 2.415a3.282 3.282 0 0 1-1.005.222.9.9 0 0 1-.387 0c.454-.07.9-.189 1.334-.355 1.028-.462 1.895-1.3 2.467-2.385a8.438 8.438 0 0 0 .92-3.587c.047-.999-.07-1.598-.034-1.603zM60.827 193.238c-.043.04-.244-.16-.433-.444-.19-.284-.29-.59-.24-.622.05-.031.22.191.406.484.185.293.31.542.267.582zM62.416 195.169c-.035.049-.252-.124-.484-.381-.232-.258-.386-.502-.348-.542.04-.04.26.124.488.377.228.253.382.498.344.546zM64.295 196.728c-.027.053-.27-.062-.541-.267-.271-.204-.464-.408-.433-.444.03-.035.278.072.54.267.264.195.461.408.434.444zM66.422 197.776c0 .062-.275 0-.58-.116-.306-.115-.534-.275-.51-.337.022-.062.282 0 .575.12.294.12.53.271.515.333zM68.707 198.189c0 .062-.263.089-.588.053-.325-.035-.576-.111-.568-.173.007-.062.274-.089.587-.053.314.035.569.111.569.173zM71.02 198.047c0 .062-.252.133-.573.16a2.238 2.238 0 0 1-.433 0c-.097 0-.155-.027-.159-.058-.004-.031.05-.062.143-.093.14-.038.282-.062.426-.072.336-.035.587-.004.595.063zM73.296 197.58c0 .063-.228.174-.545.254-.317.08-.576.089-.584.027-.007-.062.233-.178.546-.254.313-.075.572-.098.584-.027zM75.516 196.795c0 .062-.213.204-.518.324-.306.119-.569.159-.584.102-.016-.058.216-.205.518-.324.302-.12.565-.16.584-.102zM77.647 195.756c.027.057-.194.23-.484.381s-.549.231-.572.174c-.023-.058.197-.231.487-.382s.545-.231.569-.173zM79.68 194.472c.027.054-.174.249-.452.444-.278.196-.526.289-.55.236-.022-.054.175-.253.45-.444.274-.191.525-.284.552-.236zM81.587 192.976c.034.053-.151.266-.414.484-.263.218-.499.346-.53.293-.03-.053.155-.271.414-.484.259-.213.503-.342.53-.293zM83.38 191.28c.04.049-.13.284-.386.524-.255.24-.472.4-.506.351-.035-.049.131-.284.386-.524.255-.24.468-.395.507-.351zM85.067 189.451c.038.049-.12.293-.352.541-.232.249-.457.418-.491.373-.035-.044.116-.284.352-.541.236-.258.456-.418.49-.373zM86.9 187.812c.03.054-.151.271-.41.484-.26.213-.495.347-.53.298-.035-.049.15-.267.41-.484.259-.218.499-.346.53-.298zM88.933 186.529c.023.058-.193.236-.475.4-.282.164-.538.248-.565.191-.027-.058.186-.236.476-.4.29-.164.541-.24.564-.191zM91.145 185.739c0 .062-.232.187-.537.271-.306.085-.573.112-.588.054-.016-.058.224-.187.537-.276.314-.089.58-.111.588-.049zM93.457 185.593c0 .066-.266.089-.584.08-.317-.009-.572-.04-.576-.103-.004-.062.255-.133.58-.129.325.005.584.098.58.152zM95.692 186.276c-.027.058-.274-.027-.568-.146-.294-.12-.538-.24-.526-.302.012-.062.282-.045.592.084.309.129.526.306.502.364zM95.201 188.208c-.035-.054.14-.271.344-.538.205-.266.387-.488.422-.444.035.045-.047.324-.27.609-.225.284-.461.421-.496.373zM93.156 189.429c0-.063.205-.222.495-.36.29-.138.549-.204.576-.147.027.058-.197.218-.499.36s-.541.209-.572.147zM90.944 190.245c0-.062.213-.204.518-.324.306-.12.565-.164.584-.102.02.062-.217.204-.518.32-.302.115-.565.164-.584.106zM88.779 191.191c-.023-.058.2-.213.502-.351.302-.137.557-.195.576-.137.02.058-.204.217-.502.355-.298.138-.557.195-.576.133zM86.64 192.252c-.023-.057.198-.226.492-.368.293-.142.552-.218.572-.16.02.058-.197.226-.491.369-.294.142-.553.195-.573.159zM82.317 116.093s2.53-.888 5.89-5.173c3.36-4.284 4.713-9.768 5.158-9.768.444 0 2.32-1.207 6.573 7.664s2.962 11.131 2.231 11.175c-.731.045-5.8-1.119-8.893-.444-3.094.675-6.96 2.869-6.96 2.869l-3.999-6.323z" fill="#455A64"/><path d="m77.179 121.568 1.001 1.842.449.822c.296.545.763.938 1.305 1.099a1.936 1.936 0 0 0 1.606-.234l5.367-2.664-3.754-8.138-5.29 3.809a2.356 2.356 0 0 0-.62.674 2.7 2.7 0 0 0-.348.895 2.877 2.877 0 0 0-.022.98c.048.325.152.636.306.915z" fill="#263238"/><path d="m80.554 124.365 2.015 3.8.858-.355 6.082 4.884 1.358-3.756s-3.48-1.39-4.215-2.722c-.735-1.332 0-1.709 0-1.709l-1.728-1.963-4.37 1.821zM99.663 109.011c2.278 4.809 3.38 9.173 2.46 9.768-.921.595-3.511-2.855-5.8-7.663-2.29-4.809-3.38-9.173-2.46-9.768.92-.595 3.519 2.85 5.8 7.663z" fill="#263238"/><path d="m76.885 124.374 1.461-.666-1.055-1.936-1.067.892.66 1.71zM85.515 123.228l-3.824 3.281-.572-1.083 4.396-2.198z" fill="#455A64"/><path d="m77.29 121.772 1.056 1.936-.301.137-.882-1.967.128-.106zM78.35 122.149a7.884 7.884 0 0 0 1.617-.888 8.217 8.217 0 0 0 1.523-1.079 8.052 8.052 0 0 0-1.616.888 8.26 8.26 0 0 0-1.524 1.079zM77.813 120.986a6.766 6.766 0 0 0 1.457-.857c.488-.29.946-.641 1.365-1.048a13.585 13.585 0 0 0-2.822 1.905zM79.011 123.361a1.16 1.16 0 0 0 .46-.16l.484-.23c.178-.094.363-.218.56-.342.491-.277.948-.624 1.362-1.035a7.605 7.605 0 0 0-1.454.839c-.197.125-.387.258-.55.356-.162.097-.328.19-.46.27-.255.16-.413.271-.401.302zM95.6 108.243s2.134-1.776 3.58 1.581c1.446 3.356-.866 4.133-.866 4.133a24.36 24.36 0 0 1-2.714-5.714z" fill="#455A64"/><path d="M92.959 104.314c.022.223.065.443.127.657.1.417.24 1.021.433 1.776.116.364.248.759.387 1.185l.216.662c.04.111.074.226.112.346.04.12.093.227.14.342l.603 1.452c.05.129.104.253.158.382.055.129.12.248.182.373l.387.759.387.759c.065.12.123.249.193.364.07.116.143.236.209.351l.804 1.332c.066.102.124.209.19.306l.208.289.387.542.708.977c.467.559.854.994 1.12 1.3.133.164.278.312.434.444a4.549 4.549 0 0 0-.387-.51l-1.075-1.332-.669-1.017-.386-.546-.201-.289c-.066-.097-.124-.204-.186-.306l-.773-1.332-.205-.346c-.074-.116-.128-.245-.194-.364l-.386-.755c-.128-.253-.256-.506-.387-.751-.058-.124-.127-.244-.182-.373-.054-.128-.104-.253-.158-.377l-.607-1.434c-.047-.115-.1-.226-.14-.342-.038-.115-.08-.231-.12-.342-.077-.226-.15-.444-.224-.652l-.406-1.173c-.204-.723-.367-1.332-.487-1.736a4.949 4.949 0 0 0-.213-.621z" fill="#263238"/><path d="M87.209 124.516a.676.676 0 0 1 .387.349.85.85 0 0 1 .065.561c-.166.755-.437 1.94-.653 2.664a2.11 2.11 0 0 1-.29.657.558.558 0 0 1-.262.232.476.476 0 0 1-.33.013.543.543 0 0 1-.276-.21.676.676 0 0 1-.118-.355 2.258 2.258 0 0 1 .058-.772c.135-.706.386-1.776.603-2.624a.796.796 0 0 1 .117-.263.687.687 0 0 1 .197-.191.585.585 0 0 1 .502-.061z" fill="#FFBE9D"/><path d="M88.257 125.741c.164.054.303.18.387.35.085.17.108.371.065.56-.166.755-.437 1.941-.657 2.664a2.025 2.025 0 0 1-.29.657.595.595 0 0 1-.256.216.514.514 0 0 1-.317.033.605.605 0 0 1-.276-.219.751.751 0 0 1-.133-.354 2.366 2.366 0 0 1 .054-.772c.139-.702.386-1.776.603-2.624a.75.75 0 0 1 .317-.453.585.585 0 0 1 .503-.062v.004z" fill="#FFBE9D"/><path d="M89.266 126.478c.14.05.259.159.33.307.073.147.093.32.056.484a42.769 42.769 0 0 1-.568 2.304 1.817 1.817 0 0 1-.251.573.482.482 0 0 1-.227.198.407.407 0 0 1-.285.01.469.469 0 0 1-.238-.182.583.583 0 0 1-.1-.306 1.968 1.968 0 0 1 .045-.671c.12-.608.337-1.522.522-2.273a.646.646 0 0 1 .275-.389.508.508 0 0 1 .433-.055h.008z" fill="#FFBE9D"/><path d="M90.414 126.625c.142.049.26.16.333.308a.741.741 0 0 1 .054.486 39.618 39.618 0 0 1-.572 2.318 1.76 1.76 0 0 1-.252.573.483.483 0 0 1-.227.203.408.408 0 0 1-.288.012.474.474 0 0 1-.24-.184.59.59 0 0 1-.1-.311 1.99 1.99 0 0 1 .047-.675c.12-.608.337-1.531.526-2.282a.691.691 0 0 1 .104-.227.598.598 0 0 1 .172-.164.51.51 0 0 1 .436-.053l.007-.004z" fill="#FFBE9D"/><path d="M86.845 128.76c.028-.487.123-.967.283-1.42.097-.478.259-.935.48-1.355a5.098 5.098 0 0 1-.287 1.421 5.177 5.177 0 0 1-.476 1.354zM89.022 129.768c.176-.948.418-1.879.723-2.784a6.875 6.875 0 0 1-.723 2.789v-.005zM87.944 129.608c.176-.951.418-1.885.722-2.792a6.865 6.865 0 0 1-.722 2.792z" fill="#EB996E"/><path d="M107.59 92.064c.043.035-1.547 2.508-3.542 5.519-1.995 3.01-3.658 5.421-3.7 5.381-.043-.04 1.546-2.509 3.538-5.519 1.991-3.01 3.658-5.421 3.704-5.381zM117.964 99.11c.023.058-3.31 1.891-7.447 4.094-4.137 2.202-7.505 3.942-7.528 3.885-.024-.058 3.31-1.892 7.443-4.094 4.133-2.202 7.501-3.943 7.532-3.885zM116.418 113.771c0 .062-2.382-.147-5.305-.471-2.924-.324-5.294-.639-5.29-.701.004-.062 2.382.146 5.309.47 2.927.325 5.293.64 5.286.702z" fill="#263238"/><path d="m55.456 121.994 2.625 17.138c.23 1.434.933 2.711 1.964 3.562 1.03.851 2.309 1.21 3.566 1.003a4.467 4.467 0 0 0 1.828-.715 5.175 5.175 0 0 0 1.441-1.476c.39-.598.67-1.28.826-2.005a6.385 6.385 0 0 0 .08-2.216l-.425-2.948s3.673-1.146 3.29-5.381c-.185-2.043-.865-6.216-1.523-9.973-.372-2.038-1.416-3.834-2.913-5.011-1.497-1.177-3.332-1.645-5.122-1.307a6.365 6.365 0 0 0-2.564 1.113 7.392 7.392 0 0 0-1.98 2.176 8.532 8.532 0 0 0-1.083 2.892 9.036 9.036 0 0 0-.01 3.148z" fill="#FFBE9D"/><path d="M67.369 134.346c-1.72.259-3.467-.067-5.027-.937 0 0 1.458 2.899 5.147 2.011l-.12-1.074z" fill="#EB996E"/><path d="M68.328 121.843a.674.674 0 0 1-.106.443.518.518 0 0 1-.346.232.458.458 0 0 1-.388-.09.553.553 0 0 1-.141-.166.631.631 0 0 1-.075-.215.674.674 0 0 1 .105-.446.521.521 0 0 1 .348-.233.447.447 0 0 1 .389.091.554.554 0 0 1 .14.167c.037.066.062.14.074.217zM68.44 120.817c-.058.089-.499-.2-1.071-.12-.572.08-.963.444-1.032.382-.07-.062 0-.182.185-.355.23-.226.515-.369.816-.409.3-.04.603.03.866.2.201.129.279.253.236.302zM62.926 122.589a.68.68 0 0 1-.106.445.524.524 0 0 1-.346.234.464.464 0 0 1-.39-.091.557.557 0 0 1-.143-.167.645.645 0 0 1-.074-.217.678.678 0 0 1 .106-.444.52.52 0 0 1 .346-.231.46.46 0 0 1 .39.09c.056.043.104.1.142.165a.65.65 0 0 1 .075.216zM62.9 121.656c-.059.085-.496-.199-1.072-.124-.576.076-.963.444-1.032.386-.07-.057.019-.182.19-.359.228-.228.513-.37.815-.404.298-.04.6.029.862.195.194.147.267.306.236.306zM65.474 126.611c.294-.144.602-.248.917-.31.143-.036.278-.089.293-.205a.937.937 0 0 0-.15-.479l-.56-1.208c-.774-1.718-1.374-3.143-1.312-3.179.062-.035.75 1.332 1.547 3.055.19.422.387.826.541 1.216.114.186.165.414.143.64a.44.44 0 0 1-.08.167.378.378 0 0 1-.136.108.847.847 0 0 1-.244.071 3.39 3.39 0 0 1-.959.124zM63.83 127.282c.094 0 .167.684.751 1.119.584.435 1.241.266 1.253.364.011.097-.132.155-.414.2a1.424 1.424 0 0 1-1.044-.262 1.557 1.557 0 0 1-.588-.946c-.054-.293.012-.475.043-.475zM62.79 119.499c-.038.182-.622.173-1.287.35-.665.178-1.187.444-1.291.316-.05-.072.027-.254.232-.444.274-.246.593-.419.932-.507.34-.087.692-.087 1.032 0 .26.071.398.196.383.285zM68.135 119.356c-.086.16-.5.058-.975.111-.475.054-.87.214-.978.071-.047-.066 0-.226.162-.386.22-.206.49-.327.774-.346.28-.031.562.037.808.195.174.133.243.276.209.355z" fill="#263238"/><path d="M69.148 111.746a1.193 1.193 0 0 0-.868-.302 1.233 1.233 0 0 0-.83.422c.151-.289.201-.633.14-.962-.06-.33-.228-.62-.469-.814a1.86 1.86 0 0 0-.817-.358 1.763 1.763 0 0 0-.872.078 5.488 5.488 0 0 0-1.582.888.781.781 0 0 0-.039-.391.666.666 0 0 0-.22-.301 1.304 1.304 0 0 0-.665-.24 4.547 4.547 0 0 0-2.788.719 17.514 17.514 0 0 0-2.579 2.012c-.9.833-1.694 1.807-2.358 2.895l-.031.031c-.546.559-1.006 2.246-.925 3.072.306 3.05 1.188 4.813 1.683 7.699.016.197.082.383.189.537.305.364.855.054 1.16-.328.657-.983 1.004-2.193.982-3.432.035-1.226-.12-2.447-.093-3.672v-.089c.008-.313.033-.624.078-.932.046-.2.498-1.95 1.964-2.22 1.547-.302 4.62 1.429 6.14 1.154 1.52-.275 1.6-1.505 1.6-1.505l.894 2.087a7.23 7.23 0 0 0 .143-2.607 3.08 3.08 0 0 0 .773-1.523 2.23 2.23 0 0 0-.07-1.057 1.969 1.969 0 0 0-.54-.861z" fill="#263238"/><path d="M56.913 123.814c-.065-.022-2.656-.524-2.28 2.358.374 2.881 2.857 1.86 2.849 1.776-.008-.085-.569-4.134-.569-4.134z" fill="#FFBE9D"/><path d="M56.562 126.984s-.04.045-.109.094a.413.413 0 0 1-.332.066 1.151 1.151 0 0 1-.448-.413 1.383 1.383 0 0 1-.206-.617c-.037-.247-.026-.5.031-.741a.634.634 0 0 1 .095-.264.531.531 0 0 1 .191-.18.204.204 0 0 1 .154-.01c.05.017.094.053.125.103.042.075.035.138.05.138.016 0 .047-.058 0-.174a.361.361 0 0 0-.124-.164.318.318 0 0 0-.255-.031.647.647 0 0 0-.25.206.782.782 0 0 0-.137.318c-.074.268-.09.553-.046.83.023.26.112.506.255.708.144.202.336.351.553.429.07.009.14.001.208-.024a.477.477 0 0 0 .179-.123c.07-.08.073-.151.066-.151z" fill="#EB996E"/><path d="M51.195 144.678a.403.403 0 0 1 .22-.04.83.83 0 0 1 .572.328c.119.146.21.318.267.506.057.188.08.388.066.587a7.145 7.145 0 0 1-.294 1.491 2.313 2.313 0 0 0 .089 1.71c.274.55.835.972 1.063 1.74.113.392.119.814.019 1.21a2.09 2.09 0 0 1-.58 1.01 1.683 1.683 0 0 1-1.043.467 3.386 3.386 0 0 1-1.118-.209 1.776 1.776 0 0 0-1.044-.076 1.58 1.58 0 0 0-.773.72 6.053 6.053 0 0 1-.658.945c-.13.142-.283.252-.452.323a1.152 1.152 0 0 1-.526.09 1.77 1.77 0 0 1-.904-.361 2.148 2.148 0 0 1-.642-.815 4.876 4.876 0 0 1-.387-1.812c-.027-.568 0-1.079 0-1.523a8.733 8.733 0 0 0-.085-1.132 6.436 6.436 0 0 0-.236-.932.957.957 0 0 1 .108.222c.092.22.16.453.201.692.072.377.113.76.124 1.146 0 .444 0 .959.05 1.518.018.601.15 1.191.387 1.727.14.295.342.546.587.73.244.185.525.297.816.327a.985.985 0 0 0 .453-.081c.145-.063.276-.159.387-.283a5.86 5.86 0 0 0 .63-.915c.204-.374.512-.659.874-.808.385-.096.786-.07 1.16.076.343.122.7.19 1.06.2.34-.022.666-.166.931-.413.25-.234.431-.548.522-.902a2.095 2.095 0 0 0-.011-1.083c-.19-.679-.735-1.11-1.037-1.709a2.014 2.014 0 0 1-.22-.964c.014-.301.06-.6.139-.888.156-.469.264-.958.32-1.456.02-.184.004-.37-.044-.547a1.408 1.408 0 0 0-.233-.479.845.845 0 0 0-.519-.337c-.162-.014-.24.013-.24 0zM52.258 175.753s.027.107.116.276c.14.24.354.411.6.479.189.062.388.069.58.023.193-.046.373-.146.525-.289.393-.406.654-.955.739-1.554.123-.662.1-1.417.212-2.22.054-.426.175-.836.356-1.212.195-.415.51-.738.89-.915a2.202 2.202 0 0 1 1.24-.129c.422.049.836.16 1.254.222.42.079.851.055 1.264-.071a2.814 2.814 0 0 0 1.129-.719c.324-.335.564-.762.696-1.239.118-.464.11-.958-.023-1.416a2.508 2.508 0 0 0-.627-1.137 2.032 2.032 0 0 0-1.055-.582c-.774-.097-1.47.333-2.2.351a1.87 1.87 0 0 1-1.021-.266 4.78 4.78 0 0 1-.8-.591 4.83 4.83 0 0 0-1.354-.95 1.234 1.234 0 0 0-1.16.089c-.224.131-.4.35-.495.617a3.18 3.18 0 0 0-.062.298.795.795 0 0 1 .024-.311 1.19 1.19 0 0 1 .494-.684c.167-.11.351-.183.542-.213.227-.026.456.003.672.084.513.221.988.539 1.408.942.478.487 1.09.768 1.728.794.358-.034.712-.11 1.056-.226a2.864 2.864 0 0 1 1.16-.142c.429.077.83.293 1.156.621.326.329.565.757.688 1.235a2.9 2.9 0 0 1 .027 1.554 3.133 3.133 0 0 1-.75 1.332c-.346.36-.76.625-1.21.772a2.763 2.763 0 0 1-1.342.071c-.433-.066-.847-.173-1.249-.226a2.05 2.05 0 0 0-1.16.111c-.344.153-.63.443-.804.817-.173.354-.29.74-.348 1.141-.112.786-.1 1.549-.236 2.22a2.912 2.912 0 0 1-.808 1.621c-.166.15-.362.252-.57.295a1.128 1.128 0 0 1-.625-.047.958.958 0 0 1-.354-.2 1.123 1.123 0 0 1-.26-.342.73.73 0 0 1-.043-.284zM65.393 148.851c.07-.153.16-.292.267-.413a1.986 1.986 0 0 1 1.16-.666 1.754 1.754 0 0 1 1.023.137c.324.148.609.392.825.707.276.391.439.87.468 1.372a4.098 4.098 0 0 0 .294 1.545c.133.232.333.403.564.484.252.084.512.13.774.138.27 0 .549 0 .839.044.305.019.6.139.847.346.127.12.227.272.294.444.064.176.09.366.077.555a1.994 1.994 0 0 1-.387 1.004 2.569 2.569 0 0 1-.773.697c-.29.169-.596.306-.893.466-.3.144-.577.34-.824.582-.241.251-.41.581-.483.946-.159.745 0 1.554-.047 2.397a3.467 3.467 0 0 1-.294 1.243c-.089.206-.218.384-.378.522s-.345.232-.542.273a1.247 1.247 0 0 1-.596-.085 1.404 1.404 0 0 1-.514-.359 3.823 3.823 0 0 1-.738-1.034c-.18-.376-.379-.739-.596-1.088a1.8 1.8 0 0 0-.823-.737 1.305 1.305 0 0 0-1.013.075c-.33.16-.645.353-.944.577-.302.228-.623.42-.959.573-.34.142-.7.211-1.063.204a3.087 3.087 0 0 1-1.933-.781c-.542-.456-.919-1.124-1.06-1.878a2.492 2.492 0 0 1 .003-1.083c.08-.354.238-.68.457-.946.228-.23.502-.391.797-.471.274-.075.551-.13.831-.164a2.489 2.489 0 0 0 1.423-.555c.35-.363.616-.821.773-1.332.167-.475.275-.946.418-1.377.12-.406.297-.789.522-1.132.202-.274.427-.524.673-.746.328-.333.729-.555 1.16-.643a.463.463 0 0 1 .227.015.52.52 0 0 1 .202.122.618.618 0 0 0-.425-.089 2.29 2.29 0 0 0-1.11.666c-.24.222-.457.472-.65.746a4.363 4.363 0 0 0-.49 1.106c-.136.444-.24.888-.387 1.385a3.45 3.45 0 0 1-.774 1.39 2.574 2.574 0 0 1-1.496.604c-.53.093-1.121.16-1.547.604a2.077 2.077 0 0 0-.4.866c-.067.323-.062.66.014.981.138.702.492 1.323.997 1.749.53.455 1.169.709 1.83.728a2.39 2.39 0 0 0 .989-.191 5.13 5.13 0 0 0 .928-.559c.276-.218.567-.41.87-.573a1.47 1.47 0 0 1 1.16-.08c.372.156.693.44.92.813.224.356.428.728.611 1.114.183.365.417.694.692.972.127.136.277.24.441.303.164.064.338.086.51.066.167-.034.324-.113.458-.23.135-.118.243-.27.316-.445.157-.356.25-.746.27-1.146.04-.794-.115-1.625.059-2.437.083-.406.272-.773.54-1.052.262-.258.557-.467.875-.618.305-.159.607-.293.89-.444.273-.157.516-.376.714-.643.205-.244.34-.554.387-.888a1.126 1.126 0 0 0-.062-.444 1.028 1.028 0 0 0-.247-.364 1.309 1.309 0 0 0-.774-.307c-.274-.035-.553-.035-.827-.053a2.809 2.809 0 0 1-.808-.155 1.246 1.246 0 0 1-.634-.555 4.177 4.177 0 0 1-.302-1.617 2.548 2.548 0 0 0-.425-1.332 1.995 1.995 0 0 0-.777-.687 1.714 1.714 0 0 0-.971-.161c-.42.066-.813.279-1.125.609a4.143 4.143 0 0 0-.298.39zM58.886 141.357a1.29 1.29 0 0 1-.805.444 2.2 2.2 0 0 1-.982 0 1.687 1.687 0 0 1-1.055-.697 2.864 2.864 0 0 1-.387-1.332 4.07 4.07 0 0 1 .066-1.124c.044-.342.19-.655.413-.888-.124.3-.215.616-.27.942a4.362 4.362 0 0 0-.027 1.07c.03.429.153.843.36 1.203.234.33.565.552.931.626.302.073.614.087.92.04.287-.059.567-.155.836-.284zM75.531 140.224s0 .045-.027.12a1.28 1.28 0 0 1-.15.32 1.743 1.743 0 0 1-.963.737 1.568 1.568 0 0 1-.816 0 2.1 2.1 0 0 1-.824-.506 2.614 2.614 0 0 0-.812-.573.652.652 0 0 0-.465.029.773.773 0 0 0-.358.344 8.548 8.548 0 0 0-.476 1.083c-.154.362-.39.669-.684.888a1.706 1.706 0 0 1-.677.323c-.242.054-.49.05-.732-.009a1.718 1.718 0 0 1-.67-.339 2.017 2.017 0 0 1-.5-.614.96.96 0 0 1-.159-.444s.066.155.22.4c.223.341.526.601.874.75a1.55 1.55 0 0 0 1.25-.057c.397-.195.718-.551.9-1 .138-.384.301-.757.487-1.114a1.09 1.09 0 0 1 .46-.444.797.797 0 0 1 .58-.027c.324.143.622.353.878.622.216.222.47.389.747.488.245.065.5.065.746 0a1.69 1.69 0 0 0 .932-.63c.17-.191.224-.355.24-.347zM78.288 157.656a2.053 2.053 0 0 1-.429-.32 9.26 9.26 0 0 1-1.055-1.057 5.687 5.687 0 0 1-.615-.888 3.234 3.234 0 0 1-.387-1.225 2.708 2.708 0 0 1 .197-1.425 1.74 1.74 0 0 1 .437-.595c.18-.155.37-.294.569-.418.187-.121.36-.27.514-.444.14-.164.242-.365.298-.586.088-.436.101-.889.038-1.332a7.623 7.623 0 0 1-.08-1.278c-.002-.393.127-.772.359-1.061.36-.37.82-.582 1.303-.6a.5.5 0 0 1 .261.035.57.57 0 0 1 .218.169.813.813 0 0 0-.475-.115c-.452.05-.876.27-1.207.626a1.535 1.535 0 0 0-.294.959c.002.415.035.83.097 1.239.076.475.066.963-.03 1.434a1.662 1.662 0 0 1-.345.684 2.541 2.541 0 0 1-.557.466 2.206 2.206 0 0 0-.932.946c-.174.4-.24.852-.19 1.296.11.765.432 1.468.921 2.002.816.977 1.408 1.452 1.384 1.488zM70.203 166.465a.444.444 0 0 1 .178 0c.173-.001.346.011.518.035.64.067 1.262.275 1.833.613.43.251.808.606 1.107 1.041.299.434.512.938.625 1.477a3.01 3.01 0 0 1-.24 1.922 2.512 2.512 0 0 1-.613.798 2.15 2.15 0 0 1-.84.45 1.809 1.809 0 0 1-.94-.058c-.261-.1-.543-.1-.804 0a1.6 1.6 0 0 0-.627.555 5.309 5.309 0 0 0-.413.75 2.893 2.893 0 0 1-1.01 1.332c-.408.243-.88.307-1.326.182a1.672 1.672 0 0 1-.924-.692 2.274 2.274 0 0 1-.356-.862 2.083 2.083 0 0 1-.027-.599.767.767 0 0 1 .039-.204c-.006.262.016.525.066.781.069.296.194.57.367.804.22.299.518.506.85.59.413.105.845.037 1.219-.191.41-.304.73-.742.924-1.256.228-.618.64-1.124 1.16-1.43.299-.113.621-.113.92 0 .277.097.57.116.855.058.276-.076.536-.216.763-.411.228-.196.418-.443.559-.726a2.795 2.795 0 0 0 .228-1.776 3.964 3.964 0 0 0-.583-1.41 3.38 3.38 0 0 0-1.037-1.009 4.806 4.806 0 0 0-1.77-.666c-.453-.063-.705-.063-.7-.098zM62.96 181.152a3.251 3.251 0 0 0-.359-.914 2.042 2.042 0 0 0-.723-.671 1.369 1.369 0 0 0-1.1-.132 1.579 1.579 0 0 0-.895.745 2.418 2.418 0 0 0-.336.972c-.021.336.008.674.085.999 0 0-.066-.075-.128-.244a2.042 2.042 0 0 1-.1-.772 2.54 2.54 0 0 1 .32-1.102c.224-.422.58-.73.996-.857a1.48 1.48 0 0 1 1.236.174c.312.173.578.438.773.768.128.217.212.464.247.724.008.186-.004.31-.015.31zM64.187 187.59s-.035-.208-.174-.546a2.216 2.216 0 0 0-.928-1.092c-.3-.16-.63-.229-.96-.2-.33.029-.648.154-.923.364a3.297 3.297 0 0 0-.774 1.013 3.136 3.136 0 0 1-.44.577.982.982 0 0 1-.677.288 1.533 1.533 0 0 1-.654-.262 1.796 1.796 0 0 1-.506-.541 4.21 4.21 0 0 0-.82-.981 1.29 1.29 0 0 0-1.001-.209 1.903 1.903 0 0 0-.847.404 3.866 3.866 0 0 0-.89 1.176 4.112 4.112 0 0 1-.266.502c.042-.19.109-.373.197-.541a3.68 3.68 0 0 1 .874-1.266c.266-.229.576-.382.904-.444a1.427 1.427 0 0 1 1.13.213c.335.284.628.627.87 1.017.117.193.267.356.442.479.174.124.368.206.57.24.414 0 .716-.386.952-.768a3.54 3.54 0 0 1 .839-1.057c.249-.193.533-.32.83-.37.298-.051.601-.023.889.08.287.102.55.278.77.514.22.235.39.525.5.846.048.143.08.292.097.444.019.067.019.12-.004.12zM67.168 171.482a4.157 4.157 0 0 0-1.114-.564 3.085 3.085 0 0 0-1.299-.08 2.918 2.918 0 0 0-1.47.657 3.118 3.118 0 0 0-.927 1.443 3.645 3.645 0 0 0-.14 1.474c.073.459.211.9.41 1.306 0 0-.096-.089-.216-.298a2.928 2.928 0 0 1-.337-.985 3.686 3.686 0 0 1 .168-1.729 3.217 3.217 0 0 1 .923-1.379 2.958 2.958 0 0 1 1.547-.68c.456-.063.92-.017 1.36.134.297.091.577.242.828.444.193.159.275.248.267.257z" fill="#FAFAFA"/></g><defs><filter id="a" x="-4" y="0" width="298" height="230" filterUnits="userSpaceOnUse" color-interpolation-filters="sRGB"><feFlood flood-opacity="0" result="BackgroundImageFix"/><feColorMatrix in="SourceAlpha" values="0 0 0 0 0 0 0 0 0 0 0 0 0 0 0 0 0 0 127 0" result="hardAlpha"/><feOffset dy="4"/><feGaussianBlur stdDeviation="2"/><feComposite in2="hardAlpha" operator="out"/><feColorMatrix values="0 0 0 0 0 0 0 0 0 0 0 0 0 0 0 0 0 0 0.25 0"/><feBlend in2="BackgroundImageFix" result="effect1_dropShadow_507_1358"/><feBlend in="SourceGraphic" in2="effect1_dropShadow_507_1358" result="shape"/></filter></defs></svg>