<svg width="92" height="77" fill="none" aria-hidden="true" xmlns="http://www.w3.org/2000/svg"><path d="M28.635 28.869c.073 5.534-3.118 10.146-7.13 10.146-4.013 0-7.324-4.427-7.38-9.999-.055-5.571 3.127-10.146 7.14-10.146 4.012 0 7.305 4.418 7.37 9.999Z" fill="#001550"/><path d="M25.683 24.229c.286 2.15-.526 4.04-1.845 4.215-1.319.176-2.573-1.43-2.868-3.588-.295-2.158.526-4.04 1.845-4.215 1.319-.175 2.61 1.43 2.868 3.588Z" fill="#fff"/><path d="M78.51 27.743c.073 5.58-3.119 10.147-7.131 10.193-4.013.046-7.324-4.428-7.38-9.999-.055-5.571 3.118-10.146 7.13-10.146 4.013 0 7.306 4.363 7.38 9.952Z" fill="#001550"/><path d="M75.309 22.541c.286 2.158-.526 4.04-1.845 4.215-1.32.176-2.574-1.43-2.869-3.579-.295-2.149.526-4.04 1.845-4.215 1.32-.175 2.573 1.43 2.869 3.579Z" fill="#fff"/><path d="M75.253 76.4a1.384 1.384 0 0 1-1.356-1.134c-2.36-12.72-13.218-22.074-25.827-22.23h-.341a26.75 26.75 0 0 0-25.735 20.173 1.386 1.386 0 0 1-1.693.982 1.382 1.382 0 0 1-.982-1.693A29.517 29.517 0 0 1 47.7 50.26h.378c13.91.175 25.901 10.479 28.503 24.49a1.382 1.382 0 0 1-1.107 1.614l-.222.037ZM3.942 20.438a3.697 3.697 0 1 1-.489-7.38c.203 0 19.85-2.767 31.63-11.668a3.69 3.69 0 1 1 4.455 5.885C26.19 17.375 5.317 20.253 4.43 20.373l-.489.065ZM88.222 24.92c-.36.003-.717-.05-1.06-.156C69.551 19.479 52.69 7.183 51.98 6.666a3.691 3.691 0 1 1 4.372-5.95c.157.12 16.603 12.075 32.93 16.982a3.69 3.69 0 0 1-1.061 7.223Z" fill="#001550"/></svg>