<svg width="24" height="24" aria-hidden="true" xmlns="http://www.w3.org/2000/svg"><g fill="#434656" fill-rule="nonzero"><circle cx="8.433" cy="20.281" r="1.604"/><circle cx="17.073" cy="20.281" r="1.604"/><path d="M21.656 3.369a.86.86 0 0 0-.687-.321H5.82L5.66 1.97A2.177 2.177 0 0 0 3.482.115H1.008a.87.87 0 1 0 0 1.741h2.475c.23 0 .413.16.436.367L5.912 15.4a2.686 2.686 0 0 0 2.659 2.292h9.533a.87.87 0 1 0 0-1.742H8.571c-.458 0-.848-.344-.94-.802l-.16-1.031h11.71c.413 0 .78-.298.871-.71l1.788-9.305a.778.778 0 0 0-.184-.733Zm-3.185 9.006H7.219L6.073 4.812h13.842l-1.444 7.563Z"/></g></svg>