<svg width="523" height="523" viewBox="0 0 523 523" fill="none" xmlns="http://www.w3.org/2000/svg">
<path d="M338.93 455.89C301.07 453.67 263.21 450.58 225.36 448.36C219.75 448.03 214.01 447.67 208.83 445.49C203.98 443.49 199.91 439.94 195.44 437.16C190.97 434.38 185.59 432.3 180.49 433.6C175.39 434.9 171.31 440.79 173.49 445.6C170.84 437.09 167.99 428.25 161.78 421.86C155.57 415.47 144.92 412.46 137.61 417.56C129.47 423.24 129.46 435.08 130.29 444.98C127.71 437.56 125.01 429.92 119.74 424.09C114.47 418.26 105.94 414.66 98.61 417.47C93.26 419.52 89.51 424.6 87.76 430.06C86.01 435.52 86 441.37 86.21 447.06L86.03 456.18L338.93 455.89Z" fill="#E0E0E0"/>
<path d="M249.62 105.87C250.57 98.9304 240.77 93.2204 233.4 92.6204C229.89 92.3404 226.24 92.8804 222.92 91.7204C215.71 89.2004 212.83 79.8904 205.79 76.9204C200.53 74.7004 194.48 76.6804 189.38 79.2404C184.28 81.8004 179.24 85.0004 173.54 85.4004C168.59 85.7204 163.21 83.8804 158.87 86.3004C155.64 88.1104 154 91.8304 151 94.0004C148 96.1704 144.29 96.6004 140.67 96.8004C137.05 97.0004 133.32 97.0304 130.03 98.5404C126.74 100.05 124.03 103.54 124.7 107.08L249.62 105.87Z" fill="#EBEBEB"/>
<path d="M432.63 58.4302C433.1 55.0602 428.35 52.3002 424.79 52.0102C423.09 51.8702 421.32 52.1302 419.71 51.5702C416.22 50.3602 414.82 45.8502 411.42 44.4102C408.87 43.3402 405.94 44.2902 403.47 45.5302C401 46.7702 398.56 48.3402 395.81 48.5302C393.41 48.6802 390.81 47.7902 388.7 48.9602C387.14 49.8402 386.32 51.6402 384.88 52.7002C383.379 53.6248 381.643 54.097 379.88 54.0602C378.126 54.0133 376.378 54.2983 374.73 54.9002C373.13 55.6302 371.82 57.3102 372.15 59.0302L432.63 58.4302Z" fill="#F5F5F5"/>
<path d="M147.68 69.9103C148.27 65.6303 142.23 62.1103 137.68 61.7503C135.52 61.5703 133.27 61.9003 131.22 61.1903C126.78 59.6403 125.01 53.9003 120.68 52.0803C117.44 50.7103 113.68 51.9303 110.57 53.5103C107.46 55.0903 104.33 57.0803 100.82 57.3003C97.8201 57.5003 94.4501 56.3603 91.8201 57.8503C89.8201 58.9703 88.8201 61.2603 86.9601 62.6103C85.1001 63.9603 82.8201 64.2103 80.6001 64.3303C78.3801 64.4503 76.0001 64.4803 74.0001 65.4103C72.0001 66.3404 70.3001 68.4803 70.7201 70.6703L147.68 69.9103Z" fill="#EBEBEB"/>
<path d="M467.38 456.18C467.38 456.33 370.05 456.44 250.01 456.44C129.97 456.44 32.62 456.33 32.62 456.18C32.62 456.03 129.93 455.92 250.01 455.92C370.09 455.92 467.38 456 467.38 456.18Z" fill="#263238"/>
<path d="M43 178.56C43 178.56 121.87 217.37 143.78 224.88C161.69 231.03 190.48 232.98 207.91 231.1C211.204 230.804 214.463 230.191 217.64 229.27C231.42 224.88 300.9 210.49 300.9 210.49L384 206L382.14 194.69L286.81 200.47C286.81 200.47 231.71 208.11 224 217.2C224 217.2 217.45 226.29 205.89 227.83C194.33 229.37 143.1 217 137.32 211.21C131.54 205.42 130 202.73 113.43 198.88C96.86 195.03 59.49 168.82 59.49 168.82L41 178.07" fill="#AB2795"/>
<path opacity="0.5" d="M43 178.56C43 178.56 121.87 217.37 143.78 224.88C161.69 231.03 190.48 232.98 207.91 231.1C211.204 230.804 214.463 230.191 217.64 229.27C231.42 224.88 300.9 210.49 300.9 210.49L384 206L383.29 201.67L382.14 194.67L286.81 200.45C286.81 200.45 231.71 208.09 224 217.18C224 217.18 217.45 226.27 205.89 227.81C194.33 229.35 143.1 217 137.32 211.21C131.54 205.42 130 202.73 113.43 198.88C96.86 195.03 59.49 168.82 59.49 168.82L41 178.07" fill="black"/>
<path d="M365.45 149.13L256.91 149.6C254.175 149.439 251.501 148.725 249.05 147.5C245.28 145.72 237.29 140.85 234.85 139.35C234.239 138.96 233.504 138.814 232.79 138.94C232.34 139.03 231.99 139.24 232.18 139.7C232.44 140.31 239.18 146.12 239.18 146.12L227.18 142.33C226.85 142.221 226.5 142.185 226.155 142.225C225.809 142.264 225.476 142.379 225.18 142.56C224.91 142.73 224.71 142.96 224.76 143.24C224.84 143.75 232.02 147.16 232.02 147.16L222.91 145.6C222.494 145.518 222.062 145.602 221.708 145.837C221.354 146.071 221.107 146.435 221.02 146.85C221.015 146.937 221.015 147.024 221.02 147.11C221.02 147.96 234.02 152.11 234.02 152.11H222.02C221.715 152.112 221.416 152.19 221.15 152.339C220.884 152.487 220.659 152.701 220.499 152.96C220.338 153.219 220.245 153.514 220.23 153.819C220.214 154.123 220.276 154.427 220.41 154.7C221.09 156.05 239.15 156.52 239.33 158.54C239.51 160.56 234.19 160.98 232.39 163.71C232.134 164.012 231.957 164.372 231.876 164.759C231.794 165.146 231.81 165.547 231.922 165.926C232.034 166.305 232.239 166.65 232.518 166.93C232.797 167.211 233.141 167.417 233.52 167.53C235.36 165.33 242.42 163.53 242.42 163.53L253.42 164.11L356.19 178.75L372.02 168.69L378.11 157.69L365.45 149.13Z" fill="#FFBE9D"/>
<path d="M338.73 148.77L227.9 170.77C225.073 171.156 222.198 170.958 219.45 170.19C215.24 169.12 206.12 165.72 203.32 164.67C202.62 164.39 201.84 164.39 201.14 164.67C200.7 164.85 200.38 165.13 200.67 165.56C200.96 165.99 209.12 170.72 209.12 170.72L196.12 169.24C195.762 169.195 195.398 169.227 195.053 169.334C194.708 169.441 194.39 169.62 194.12 169.86C193.999 169.949 193.907 170.071 193.854 170.211C193.801 170.351 193.789 170.503 193.82 170.65C194.01 171.16 202.02 173.21 202.02 173.21L192.4 173.43C192.181 173.427 191.964 173.468 191.761 173.55C191.558 173.631 191.373 173.752 191.217 173.906C191.061 174.059 190.936 174.242 190.851 174.443C190.766 174.645 190.721 174.861 190.72 175.08C190.714 175.167 190.714 175.253 190.72 175.34C190.94 176.2 205.05 177.9 205.05 177.9L192.82 180.27C192.503 180.328 192.206 180.467 191.958 180.674C191.71 180.881 191.52 181.148 191.406 181.45C191.293 181.752 191.259 182.079 191.309 182.398C191.358 182.716 191.49 183.017 191.69 183.27C192.69 184.51 211.2 181.41 211.79 183.44C212.38 185.47 207.02 186.95 205.72 190.1C205.519 190.459 205.411 190.863 205.404 191.275C205.398 191.686 205.493 192.093 205.683 192.459C205.872 192.824 206.149 193.137 206.489 193.37C206.829 193.602 207.221 193.746 207.63 193.79C209.08 191.17 215.94 187.94 215.94 187.94L227.26 186.36L335.18 180.94L349.37 167.52L353.37 155.03L338.73 148.77Z" fill="#FFBE9D"/>
<path d="M299.17 156.47C298.934 156.548 298.694 156.612 298.45 156.66L296.37 157.13L288.72 158.73L263.41 163.73L238.1 168.73L230.44 170.27L228.35 170.67C228.107 170.726 227.859 170.763 227.61 170.78C227.842 170.686 228.084 170.616 228.33 170.57L230.39 170.07C232.19 169.65 234.8 169.07 238.03 168.37C244.48 166.97 253.42 165.13 263.31 163.19L288.65 158.33L296.33 156.89L298.43 156.52C298.674 156.476 298.922 156.46 299.17 156.47Z" fill="#EB996E"/>
<path d="M371.57 98.4204C371.414 99.4259 370.984 100.369 370.328 101.147C369.672 101.925 368.815 102.507 367.85 102.83C366.75 103.18 365.55 103.17 364.47 103.57C363.39 103.97 362.37 105.02 362.61 106.15C362.78 107 363.56 107.56 364.2 108.15C364.84 108.74 365.42 109.64 365.04 110.42C364.66 111.2 363.39 111.34 362.74 112.04C362.448 112.449 362.303 112.944 362.328 113.445C362.354 113.946 362.548 114.424 362.88 114.8C363.558 115.541 364.348 116.172 365.22 116.67C366.094 117.186 366.732 118.022 367 119" fill="#263238"/>
<path d="M411.05 116.05C414.05 109.87 411.94 102.11 407.41 96.9602C402.88 91.8102 396.32 88.8602 389.74 86.9602C388.79 86.6802 387.62 86.4802 386.95 87.2002C386.694 87.5524 386.569 87.9828 386.596 88.4172C386.624 88.8517 386.802 89.263 387.1 89.5802C387.715 90.1948 388.47 90.6512 389.3 90.9102C386.652 89.4953 383.727 88.6762 380.73 88.5102C379.691 88.4241 378.65 88.6394 377.73 89.1302C377.273 89.3884 376.909 89.785 376.692 90.2631C376.474 90.7411 376.414 91.2759 376.52 91.7902C376.596 92.0337 376.729 92.256 376.906 92.4395C377.083 92.6229 377.301 92.7624 377.542 92.8469C377.783 92.9314 378.04 92.9585 378.293 92.9261C378.546 92.8937 378.788 92.8026 379 92.6602C376.149 92.3278 373.269 92.9806 370.84 94.5102C369.11 95.6002 367.55 97.5102 367.94 99.5102C368.18 100.68 369.04 101.63 369.42 102.77C370.1 104.84 369.06 107.04 368.25 109.08C366.896 112.228 366.389 115.676 366.78 119.08C367.002 120.747 367.584 122.345 368.486 123.764C369.387 125.184 370.586 126.39 372 127.3" fill="#263238"/>
<path d="M398.41 96.3404L397.41 95.9904C394.904 95.2256 392.271 94.971 389.665 95.2415C387.059 95.5121 384.533 96.3023 382.238 97.5655C379.943 98.8288 377.924 100.539 376.301 102.596C374.679 104.653 373.485 107.014 372.79 109.54L360.27 151L382.16 169.52L388.86 152.13C388.86 152.13 399.37 154.26 403.17 144.37C405 139.59 407.98 129.44 410.57 120.22C411.922 115.44 411.42 110.326 409.166 105.899C406.912 101.472 403.071 98.0589 398.41 96.3404Z" fill="#FFBE9D"/>
<path d="M388.93 152C384.311 150.391 380.276 147.443 377.34 143.53C377.34 143.53 377.75 151.81 388 154.58L388.93 152Z" fill="#EB996E"/>
<path d="M387.41 102C386.61 100.2 385.61 96.2902 384.23 94.8802C382.85 93.4702 380.6 93.8802 378.69 94.4402C377.71 94.7181 376.81 95.226 376.065 95.9217C375.321 96.6175 374.753 97.4809 374.41 98.4402C371.74 105.6 371.41 112.37 369.36 119.44C369.188 119.896 369.143 120.391 369.23 120.87C369.59 122.07 370.91 122.5 372.15 122.69C375.2 123.16 376.78 120.94 378.24 118.27C378.741 116.636 379.108 114.964 379.34 113.27C379.545 110.936 380.352 108.696 381.682 106.768C383.012 104.839 384.821 103.29 386.93 102.27L387.41 102Z" fill="#263238"/>
<path d="M374.51 115.28C374.37 115.14 368.43 110.73 366.14 117.61C363.85 124.49 371.21 125.37 371.29 125.17C371.37 124.97 374.51 115.28 374.51 115.28Z" fill="#FFBE9D"/>
<path d="M370.06 121.87C370.06 121.87 369.92 121.87 369.68 121.94C369.355 121.964 369.034 121.864 368.78 121.66C368.431 121.229 368.202 120.713 368.118 120.165C368.034 119.617 368.096 119.056 368.3 118.54C368.478 117.945 368.79 117.398 369.21 116.94C369.345 116.747 369.524 116.59 369.733 116.482C369.942 116.374 370.175 116.318 370.41 116.32C370.561 116.329 370.705 116.391 370.815 116.495C370.924 116.6 370.994 116.74 371.01 116.89C371.01 117.11 370.95 117.23 371.01 117.25C371.07 117.27 371.2 117.19 371.24 116.89C371.256 116.707 371.21 116.524 371.11 116.37C370.967 116.167 370.753 116.024 370.51 115.97C370.208 115.931 369.902 115.97 369.62 116.084C369.338 116.198 369.09 116.383 368.9 116.62C368.41 117.116 368.046 117.724 367.84 118.39C367.43 119.79 367.7 121.33 368.6 121.95C368.769 122.063 368.96 122.138 369.16 122.169C369.36 122.2 369.565 122.187 369.76 122.13C370 122 370.08 121.89 370.06 121.87Z" fill="#EB996E"/>
<path d="M384.74 103.47C388.15 101.18 391.64 102.35 393.96 103.72C396.28 105.09 398.26 107.04 400.65 108.3C403.04 109.56 406.17 110 408.32 108.37C409.07 107.705 409.676 106.894 410.101 105.986C410.526 105.078 410.76 104.092 410.79 103.09C410.956 101.17 410.739 99.2359 410.154 97.3995C409.569 95.5631 408.626 93.8607 407.38 92.3902C406.72 91.6302 405.72 90.8802 404.8 91.2802C403.66 91.7802 403.8 93.4302 404.18 94.6202C404.18 94.6202 392.63 90.2602 385.54 92.6202C378.45 94.9802 384.74 103.47 384.74 103.47Z" fill="#263238"/>
<path d="M389.22 86.7803C389.29 86.7803 389.35 87.2703 389.7 88.1103C390.238 89.2667 390.98 90.3168 391.89 91.2103C393.231 92.5414 394.782 93.6428 396.48 94.4703C397.478 94.9595 398.532 95.3223 399.62 95.5503C400.76 95.8103 401.97 96.0003 403.2 96.3503C404.426 96.6579 405.565 97.2429 406.53 98.0603C407.416 98.848 408.101 99.8352 408.53 100.94C408.916 101.939 409.05 103.017 408.92 104.08C408.76 105.207 408.283 106.265 407.545 107.131C406.807 107.996 405.837 108.635 404.75 108.97C404.405 109.068 404.049 109.122 403.69 109.13C403.45 109.13 403.32 109.13 403.32 109.13C403.32 109.13 403.83 109.07 404.68 108.77C405.863 108.324 406.87 107.506 407.55 106.44C408.022 105.722 408.32 104.904 408.42 104.05C408.522 103.071 408.381 102.082 408.01 101.17C407.603 100.158 406.962 99.2573 406.14 98.5403C405.232 97.7681 404.157 97.217 403 96.9303C401.82 96.5903 400.62 96.4003 399.46 96.1303C398.344 95.8889 397.262 95.5093 396.24 95.0003C394.495 94.1258 392.918 92.9513 391.58 91.5303C390.664 90.58 389.949 89.454 389.48 88.2203C389.372 87.8944 389.291 87.5599 389.24 87.2203C389.21 86.9103 389.2 86.7803 389.22 86.7803Z" fill="#455A64"/>
<path d="M381.55 88.79C381.61 88.79 381.72 89.3 382.1 90.17C382.674 91.3724 383.475 92.4523 384.46 93.35C385.937 94.666 387.67 95.6634 389.55 96.28C391.875 97.027 394.251 97.6019 396.66 98C399.12 98.3786 401.518 99.0848 403.79 100.1C404.817 100.603 405.637 101.448 406.11 102.49C406.462 103.418 406.511 104.433 406.25 105.39C405.847 106.743 404.956 107.897 403.75 108.63C403.436 108.838 403.101 109.012 402.75 109.15C402.51 109.25 402.38 109.28 402.37 109.26C402.36 109.24 402.84 109 403.6 108.44C404.68 107.679 405.462 106.565 405.81 105.29C406.03 104.426 405.963 103.513 405.62 102.69C405.18 101.768 404.435 101.026 403.51 100.59C401.27 99.6313 398.918 98.9593 396.51 98.59C394.07 98.1949 391.665 97.603 389.32 96.82C387.382 96.1521 385.609 95.0781 384.12 93.67C383.129 92.7122 382.355 91.5528 381.85 90.27C381.716 89.9203 381.616 89.5587 381.55 89.19C381.54 88.93 381.53 88.8 381.55 88.79Z" fill="#455A64"/>
<path d="M406.35 126.35C406.09 126.49 405.22 125.2 403.55 124.61C401.88 124.02 400.37 124.42 400.26 124.15C400.15 123.88 400.53 123.74 401.2 123.54C402.1 123.295 403.055 123.337 403.93 123.66C404.796 123.962 405.542 124.533 406.06 125.29C406.43 125.87 406.48 126.29 406.35 126.35Z" fill="#263238"/>
<path d="M390.43 121.47C390.16 121.6 389.3 120.32 387.63 119.73C385.96 119.14 384.44 119.54 384.34 119.27C384.28 119.15 384.6 118.86 385.28 118.66C386.176 118.416 387.126 118.454 388 118.77C388.868 119.079 389.616 119.653 390.14 120.41C390.51 121 390.55 121.41 390.43 121.47Z" fill="#263238"/>
<path d="M392 133.07C392.973 133.105 393.937 133.263 394.87 133.54C395.32 133.65 395.75 133.71 395.92 133.44C396.115 133.015 396.174 132.54 396.09 132.08C396.09 130.91 396.02 129.68 395.98 128.4C395.88 123.16 395.98 118.92 396.17 118.92C396.36 118.92 396.64 123.16 396.75 128.39C396.75 129.68 396.75 130.9 396.75 132.08C396.834 132.686 396.703 133.302 396.38 133.82C396.265 133.949 396.123 134.05 395.964 134.116C395.804 134.182 395.632 134.211 395.46 134.2C395.201 134.176 394.947 134.122 394.7 134.04C393.762 133.833 392.855 133.507 392 133.07Z" fill="#263238"/>
<path d="M386.71 132.48C386.99 132.56 386.35 134.37 387.44 136.2C388.53 138.03 390.53 138.52 390.44 138.78C390.35 139.04 389.89 138.98 389.07 138.71C388.005 138.349 387.102 137.623 386.52 136.66C385.959 135.738 385.78 134.633 386.02 133.58C386.23 132.8 386.59 132.42 386.71 132.48Z" fill="#263238"/>
<path d="M393.13 112.19C392.8 112.58 391.21 111.78 389.18 111.32C387.15 110.86 385.37 110.83 385.25 110.32C385.2 110.08 385.63 109.76 386.42 109.54C387.462 109.303 388.545 109.308 389.585 109.554C390.625 109.8 391.595 110.281 392.42 110.96C393 111.51 393.27 112 393.13 112.19Z" fill="#263238"/>
<path d="M408 119C407.57 119.27 406.57 118.47 405.19 118C403.81 117.53 402.55 117.35 402.43 116.86C402.38 116.62 402.69 116.31 403.33 116.13C404.17 115.946 405.046 116.015 405.847 116.328C406.648 116.641 407.338 117.185 407.83 117.89C408.14 118.45 408.16 118.9 408 119Z" fill="#263238"/>
<path d="M384.52 163.79C385.04 166.53 385.78 185.6 384.37 193.33C381.73 207.69 361.92 239.33 360.63 241.86C359.87 243.34 343.46 280.91 343.46 280.91C343.46 280.91 272.02 258.72 268.46 240.63C268.46 240.63 292.59 222.63 298.55 217.15C299.73 216.05 321.6 178.39 321.6 178.39L334.79 155.59C334.79 155.59 344.99 145.59 350.25 145.59H361.83L384.52 163.79Z" fill="#AB2795"/>
<path opacity="0.4" d="M268.44 240.63C268.44 240.63 276.85 241.29 300.34 254.46C323.83 267.63 330.02 271.46 330.02 271.46L281.85 254.59C281.85 254.59 269.31 247.21 268.44 240.63Z" fill="black"/>
<path d="M349 145.63L335.86 146.8L298.13 154.53L314.43 184.9L356.04 180.9C356.04 180.9 366.12 161.03 362.38 156.71C358.64 152.39 349 145.63 349 145.63Z" fill="#AB2795"/>
<path opacity="0.4" d="M318.09 184.55L346.46 181.68L312.37 194.16L318.09 184.55Z" fill="black"/>
<path d="M354.45 181.48C354.45 181.62 347.03 182.48 337.85 183.29C328.67 184.1 321.2 184.72 321.19 184.58C321.18 184.44 328.61 183.58 337.8 182.77C346.99 181.96 354.44 181.34 354.45 181.48Z" fill="#263238"/>
<path d="M361.79 163.87C361.7 163.87 361.59 162.76 361.11 161.05C359.857 156.556 357.096 152.629 353.29 149.93C351.83 148.93 350.82 148.43 350.86 148.34C351.123 148.384 351.377 148.472 351.61 148.6C352.263 148.881 352.892 149.216 353.49 149.6C357.522 152.204 360.389 156.269 361.49 160.94C361.658 161.636 361.765 162.346 361.81 163.06C361.85 163.329 361.844 163.604 361.79 163.87Z" fill="#263238"/>
<path d="M306.18 218.31C306.659 218.164 307.151 218.067 307.65 218.02C308.65 217.87 309.96 217.62 311.65 217.25C313.34 216.88 315.3 216.36 317.46 215.67C322.139 214.146 326.618 212.065 330.8 209.47C332.72 208.26 334.4 207.1 335.8 206.05C337.2 205 338.24 204.12 338.96 203.49C339.324 203.146 339.715 202.832 340.13 202.55C339.833 202.946 339.498 203.311 339.13 203.64C338.44 204.32 337.4 205.25 336.06 206.34C334.483 207.607 332.837 208.786 331.13 209.87C329.032 211.193 326.854 212.385 324.61 213.44C322.358 214.477 320.043 215.372 317.68 216.12C315.748 216.722 313.785 217.219 311.8 217.61C310.1 217.93 308.72 218.14 307.75 218.22C307.23 218.295 306.705 218.325 306.18 218.31Z" fill="#263238"/>
<path d="M310.15 211.41C310.15 211.24 313.68 211.2 317.89 210.21C322.1 209.22 325.31 207.72 325.37 207.87C324.758 208.325 324.084 208.692 323.37 208.96C319.929 210.443 316.252 211.3 312.51 211.49C311.723 211.569 310.93 211.542 310.15 211.41Z" fill="#263238"/>
<path d="M350 243.59C349.565 243.844 349.11 244.061 348.64 244.24C347.76 244.63 346.45 245.14 344.83 245.73C336.321 248.768 327.398 250.488 318.37 250.83C316.64 250.89 315.24 250.9 314.28 250.83C313.778 250.838 313.277 250.808 312.78 250.74C313.275 250.651 313.778 250.614 314.28 250.63C315.28 250.63 316.64 250.54 318.35 250.43C322.831 250.151 327.29 249.59 331.7 248.75C336.101 247.894 340.443 246.758 344.7 245.35C346.33 244.81 347.65 244.35 348.56 244.02C349.023 243.826 349.506 243.682 350 243.59Z" fill="#263238"/>
<path d="M384.72 191.13L363.86 184C360.86 195.73 352.86 205.4 342.76 214.22L368.58 228.16C373.614 219.281 378.174 210.142 382.24 200.78C383.587 197.72 384.424 194.46 384.72 191.13Z" fill="#F5F5F5"/>
<path d="M368.48 181.68L366.72 187.25L369.57 188.6L371.24 182.69L368.48 181.68Z" fill="#E0E0E0"/>
<path d="M364.15 210.08C365.422 209.948 366.702 209.901 367.98 209.94L372.86 200.19L367.25 197.39L366.05 199.8L368.64 201.1L364.15 210.08Z" fill="#AB2795"/>
<path d="M379.53 206.8H379.67C380.08 205.64 380.54 204.5 381.04 203.38C380.594 203.02 380.111 202.708 379.6 202.45C378.633 201.902 377.546 201.6 376.435 201.572C375.324 201.545 374.223 201.791 373.23 202.29L374.72 204.79C375.238 204.525 375.814 204.39 376.396 204.399C376.979 204.408 377.55 204.559 378.06 204.84C379.13 205.34 379.6 206 379.53 206.8Z" fill="#AB2795"/>
<path d="M370 209.43C368.65 209.65 367.55 209.58 366.23 209.91L365.41 211.51L368.41 213.01L370.24 209.36L370 209.43Z" fill="#AB2795"/>
<path d="M378 210.22H377.82L371.47 212.14L370.47 214.14L374.84 216.32C374.881 216.184 374.931 216.05 374.99 215.92C375.323 215.228 375.704 214.56 376.13 213.92L375.92 213.82L376.26 213.71L378 210.22Z" fill="#AB2795"/>
<path d="M376.18 208.09C375.919 208.229 375.639 208.33 375.35 208.39C374.8 208.56 374.01 208.76 373.02 208.99C370.434 209.574 367.816 210.004 365.18 210.28C362.549 210.552 359.904 210.666 357.26 210.62C356.26 210.62 355.42 210.56 354.85 210.51C354.556 210.514 354.262 210.474 353.98 210.39C355.066 210.276 356.158 210.229 357.25 210.25C359.25 210.2 362.06 210.07 365.13 209.76C368.2 209.45 370.95 208.99 372.94 208.63C374.007 208.382 375.09 208.201 376.18 208.09Z" fill="#263238"/>
<path d="M327.13 276.37C326.58 278.02 283.64 342.47 246.75 355.69L230.75 353.21L145.95 328.21L155.31 304.53L234.6 321.6L271.05 280.31L282.05 251.83L327.13 276.37Z" fill="#FFBE9D"/>
<path d="M150.94 329.65L186.27 340.06L194.59 312.93L155.71 303.73L150.94 329.65Z" fill="#455A64"/>
<path d="M152.32 329.36L151.67 329.47C151.67 329.47 131.04 351.2 126.15 349.47L147.53 299.55L160.61 305.08L159.4 306.73C154.57 313.34 152.52 321.17 152.32 329.36Z" fill="#AB2795"/>
<g opacity="0.6">
<path d="M155.69 309.78C155.75 309.237 155.608 308.691 155.29 308.247C154.973 307.802 154.503 307.49 153.97 307.37C153.43 307.293 152.881 307.425 152.435 307.739C151.988 308.053 151.679 308.526 151.57 309.06C151.506 309.637 151.658 310.216 151.999 310.686C152.339 311.156 152.842 311.482 153.41 311.6C153.976 311.623 154.53 311.429 154.957 311.057C155.385 310.685 155.654 310.164 155.71 309.6" fill="white"/>
</g>
<g opacity="0.6">
<path d="M147.53 299.53L151.53 301.4L129.53 348.56C129.53 348.56 127.61 350.37 126.16 349.45L147.53 299.53Z" fill="white"/>
</g>
<path d="M151.58 330.39C151.34 330.28 151.75 329.01 151.48 327.48C151.21 325.95 150.48 324.87 150.65 324.68C150.82 324.49 152.1 325.47 152.39 327.33C152.68 329.19 151.78 330.54 151.58 330.39Z" fill="#263238"/>
<path d="M147.17 334.7C146.91 334.65 146.95 333.42 146.27 332.15C145.59 330.88 144.61 330.15 144.72 329.94C144.83 329.73 146.28 330.14 147.09 331.73C147.9 333.32 147.41 334.79 147.17 334.7Z" fill="#263238"/>
<path d="M139.63 335C139.68 334.76 141.04 334.94 142.11 336.14C143.18 337.34 143.22 338.7 142.97 338.72C142.72 338.74 142.31 337.72 141.42 336.72C140.53 335.72 139.55 335.24 139.63 335Z" fill="#263238"/>
<path d="M152 329.91C152.13 328.997 152.507 328.136 153.09 327.42C153.637 326.587 154.281 325.821 155.01 325.14C155.443 324.741 155.904 324.373 156.39 324.04C156.663 323.822 156.971 323.65 157.3 323.53C157.541 323.444 157.805 323.441 158.048 323.523C158.291 323.604 158.5 323.766 158.64 323.98C158.76 324.173 158.832 324.392 158.849 324.618C158.867 324.845 158.829 325.072 158.74 325.28C158.614 325.602 158.435 325.899 158.21 326.16C157.852 326.64 157.45 327.085 157.01 327.49C156.27 328.173 155.426 328.733 154.51 329.15C153.705 329.617 152.777 329.826 151.85 329.75C151.85 329.6 152.85 329.37 154.21 328.57C155.018 328.102 155.764 327.534 156.43 326.88C156.81 326.49 157.161 326.073 157.48 325.63C157.85 325.16 158.04 324.71 157.87 324.48C157.7 324.25 157.77 324.37 157.56 324.41C157.323 324.502 157.101 324.626 156.9 324.78C156.441 325.088 156 325.422 155.58 325.78C154.85 326.381 154.18 327.051 153.58 327.78C152.55 329.06 152.08 330 152 329.91Z" fill="#263238"/>
<path d="M151.74 329.44C152.658 329.275 153.604 329.408 154.44 329.82C155.383 330.172 156.259 330.683 157.03 331.33C157.485 331.718 157.901 332.15 158.27 332.62C158.544 332.894 158.742 333.234 158.844 333.608C158.945 333.982 158.948 334.375 158.85 334.75C158.753 334.972 158.594 335.161 158.391 335.294C158.189 335.428 157.952 335.499 157.71 335.5C157.372 335.501 157.035 335.454 156.71 335.36C156.116 335.209 155.549 334.966 155.03 334.64C154.15 334.106 153.418 333.36 152.9 332.47C152.03 330.94 152.17 329.8 152.26 329.81C152.614 330.598 153.011 331.366 153.45 332.11C153.976 332.85 154.659 333.465 155.45 333.91C155.906 334.171 156.398 334.363 156.91 334.48C157.48 334.63 157.99 334.62 158.02 334.4C158.039 334.176 158.009 333.95 157.933 333.738C157.857 333.525 157.737 333.332 157.58 333.17C157.253 332.738 156.888 332.337 156.49 331.97C155.802 331.35 155.031 330.828 154.2 330.42C152.74 329.72 151.72 329.59 151.74 329.44Z" fill="#263238"/>
<path d="M190.37 312.67C190.346 313.013 190.272 313.35 190.15 313.67C189.93 314.42 189.66 315.33 189.35 316.4L186.64 325.4C185.64 328.85 184.64 331.97 183.95 334.4C183.62 335.46 183.34 336.4 183.1 337.12C183.028 337.47 182.903 337.808 182.73 338.12C182.75 337.781 182.81 337.445 182.91 337.12C183.06 336.46 183.29 335.51 183.59 334.35C184.19 332.02 185.08 328.81 186.14 325.3C187.2 321.79 188.22 318.62 189 316.3C189.39 315.16 189.71 314.24 189.95 313.61C190.053 313.282 190.194 312.966 190.37 312.67Z" fill="#FAFAFA"/>
<path d="M187.12 312.67C187.083 313.012 187.005 313.347 186.89 313.67C186.67 314.42 186.41 315.33 186.09 316.4L183.38 325.4C182.38 328.85 181.38 331.97 180.69 334.4L179.85 337.12C179.766 337.467 179.642 337.802 179.48 338.12C179.492 337.781 179.55 337.445 179.65 337.12C179.8 336.46 180.03 335.51 180.34 334.35C180.94 332.02 181.83 328.81 182.88 325.3C183.93 321.79 184.96 318.62 185.74 316.3C186.13 315.16 186.46 314.24 186.74 313.61C186.83 313.283 186.958 312.968 187.12 312.67Z" fill="#FAFAFA"/>
<path d="M333.85 274C335.5 275.1 392.11 332.6 393.21 337C394.31 341.4 414.14 429.5 414.14 429.5L394.87 435C394.87 435 367.87 382.14 367.87 380.49C367.87 378.84 358.73 354.49 358.73 354.49L324.39 324.3L288.59 291.82L333.85 274Z" fill="#FFBE9D"/>
<path d="M420.73 435.84L408.57 401.08L381.68 410.14L396.89 447.08L420.73 435.84Z" fill="#455A64"/>
<path d="M419.69 434.89L420.16 435.35C420.16 435.35 449.84 439.44 451.27 444.43L398.27 456.18L395.12 442.34H397.17C405.36 442.41 412.91 439.51 419.69 434.89Z" fill="#AB2795"/>
<g opacity="0.6">
<path d="M401.82 443.57C401.343 443.839 400.982 444.275 400.807 444.793C400.632 445.312 400.654 445.877 400.87 446.38C401.114 446.872 401.538 447.25 402.054 447.436C402.57 447.623 403.138 447.603 403.64 447.38C404.152 447.096 404.538 446.63 404.724 446.075C404.909 445.52 404.879 444.915 404.64 444.38C404.326 443.9 403.838 443.56 403.279 443.431C402.72 443.302 402.132 443.395 401.64 443.69" fill="white"/>
</g>
<g opacity="0.6">
<path d="M398.26 456.18L397.45 451.86L448.58 442.21C448.58 442.21 451.17 442.71 451.27 444.43L398.26 456.18Z" fill="white"/>
</g>
<path d="M421 434.89C421.05 435.15 419.78 435.55 418.69 436.67C417.6 437.79 417.16 439.02 416.9 438.97C416.64 438.92 416.69 437.34 418.04 435.97C419.39 434.6 421 434.64 421 434.89Z" fill="#263238"/>
<path d="M427 436C427.11 436.23 426.09 436.92 425.45 438.21C424.81 439.5 424.82 440.72 424.56 440.76C424.3 440.8 423.81 439.38 424.63 437.76C425.45 436.14 427 435.71 427 436Z" fill="#263238"/>
<path d="M431.66 441.91C431.44 442.02 430.79 440.8 431.14 439.24C431.49 437.68 432.58 436.84 432.73 437.03C432.88 437.22 432.31 438.15 432.04 439.44C431.77 440.73 431.91 441.83 431.66 441.91Z" fill="#263238"/>
<path d="M420.35 434.87C419.529 435.292 418.612 435.489 417.69 435.44C416.684 435.487 415.676 435.407 414.69 435.2C414.112 435.086 413.544 434.929 412.99 434.73C412.654 434.637 412.337 434.488 412.05 434.29C411.841 434.143 411.685 433.931 411.607 433.688C411.53 433.444 411.534 433.181 411.62 432.94C411.712 432.732 411.85 432.548 412.023 432.401C412.196 432.254 412.4 432.147 412.62 432.09C412.948 432.014 413.285 431.987 413.62 432.01C414.218 432.018 414.815 432.085 415.4 432.21C416.382 432.419 417.326 432.776 418.2 433.27C419.69 434.14 420.32 435.01 420.2 435.08C420.08 435.15 419.33 434.52 417.87 433.85C417.017 433.474 416.12 433.205 415.2 433.05C414.662 432.956 414.116 432.909 413.57 432.91C412.98 432.91 412.5 432.99 412.41 433.27C412.41 433.38 412.41 433.42 412.54 433.56C412.753 433.7 412.986 433.807 413.23 433.88C413.744 434.083 414.272 434.247 414.81 434.37C415.721 434.601 416.652 434.742 417.59 434.79C418.511 434.751 419.433 434.778 420.35 434.87Z" fill="#263238"/>
<path d="M420.09 435.31C420.01 435.37 419.29 434.56 418.82 432.9C418.556 431.924 418.461 430.909 418.54 429.9C418.591 429.301 418.698 428.709 418.86 428.13C418.926 427.748 419.089 427.39 419.334 427.09C419.58 426.791 419.899 426.56 420.26 426.42C420.496 426.373 420.741 426.394 420.966 426.481C421.191 426.567 421.387 426.716 421.53 426.91C421.735 427.193 421.9 427.502 422.02 427.83C422.242 428.4 422.377 429 422.42 429.61C422.493 430.639 422.311 431.669 421.89 432.61C421.16 434.21 420.15 434.76 420.11 434.68C420.541 433.932 420.932 433.161 421.28 432.37C421.574 431.509 421.673 430.594 421.57 429.69C421.511 429.168 421.38 428.656 421.18 428.17C420.97 427.62 420.66 427.17 420.46 427.32C420.26 427.47 419.84 427.9 419.73 428.39C419.566 428.908 419.452 429.441 419.39 429.98C419.285 430.899 419.308 431.828 419.46 432.74C419.73 434.33 420.22 435.24 420.09 435.31Z" fill="#263238"/>
<path d="M383.93 413.72C384.243 413.537 384.58 413.396 384.93 413.3L387.62 412.36L396.5 409.31L405.39 406.25L408.09 405.34C408.412 405.214 408.748 405.124 409.09 405.07C408.801 405.269 408.484 405.424 408.15 405.53C407.53 405.8 406.62 406.16 405.5 406.59C403.26 407.46 400.14 408.59 396.66 409.8C393.18 411.01 390 412 387.7 412.71L384.96 413.5C384.626 413.612 384.281 413.686 383.93 413.72Z" fill="#FAFAFA"/>
<path d="M385.83 416.36C386.144 416.18 386.48 416.043 386.83 415.95L389.51 415L398.4 411.95L407.28 408.89C408.34 408.54 409.28 408.24 409.98 407.98C410.3 407.849 410.636 407.761 410.98 407.72C410.686 407.908 410.37 408.059 410.04 408.17C409.42 408.44 408.51 408.8 407.39 409.24C405.14 410.1 402.02 411.24 398.55 412.45C395.08 413.66 391.91 414.65 389.61 415.35C388.45 415.7 387.52 415.97 386.87 416.14C386.533 416.253 386.184 416.327 385.83 416.36Z" fill="#FAFAFA"/>
<path d="M282.12 251.78C282.12 251.78 251.87 289.78 244.64 292.78C242.33 293.78 250.64 303.47 250.64 303.47L254.75 298.82C267.81 305.69 277.92 314.69 288.32 327.34L306.32 310.4L321.48 330.47L364.63 303.77L343.44 280.95C343.44 280.95 314.89 255.22 289.13 248.32C289.15 248.28 286.17 248.26 282.12 251.78Z" fill="#263238"/>
<path d="M328.42 286C328.321 286.169 328.204 286.327 328.07 286.47L327 287.77C326.05 288.88 324.66 290.46 322.93 292.41C319.46 296.3 314.61 301.62 309.11 307.41C303.61 313.2 298.52 318.26 294.69 321.81C292.77 323.57 291.21 324.99 290.08 325.92L288.78 327C288.638 327.136 288.476 327.251 288.3 327.34C288.421 327.185 288.558 327.045 288.71 326.92L289.94 325.77C291.02 324.77 292.54 323.34 294.43 321.55C298.18 317.94 303.24 312.82 308.73 307.06C314.22 301.3 319.11 296.06 322.64 292.2L326.84 287.67L327.99 286.45C328.118 286.286 328.262 286.135 328.42 286Z" fill="#455A64"/>
<path d="M288.66 326.7C288.66 326.7 288.5 326.58 288.24 326.31L287.14 325.12C286.19 324.12 284.79 322.6 283.02 320.81C281.25 319.02 279.09 316.94 276.62 314.72C274.15 312.5 271.32 310.17 268.26 307.84C265.2 305.51 262.18 303.47 259.38 301.66C256.58 299.85 253.99 298.36 251.78 297.15C249.57 295.94 247.78 294.99 246.51 294.36L245.07 293.62C244.898 293.539 244.734 293.442 244.58 293.33C244.764 293.369 244.943 293.433 245.11 293.52L246.6 294.18C247.89 294.75 249.72 295.65 251.96 296.83C254.2 298.01 256.8 299.49 259.64 301.26C262.48 303.03 265.5 305.11 268.58 307.43C271.66 309.75 274.45 312.13 276.94 314.36C279.43 316.59 281.56 318.71 283.29 320.55C285.02 322.39 286.39 323.9 287.29 324.99L288.29 326.24C288.432 326.378 288.556 326.532 288.66 326.7Z" fill="#455A64"/>
<path d="M305.29 253.58C305.171 253.764 305.037 253.938 304.89 254.1L303.67 255.54L299.14 260.81C295.32 265.26 290.09 271.44 284.45 278.38C278.81 285.32 273.84 291.73 270.27 296.38L266.05 301.9L264.89 303.39C264.759 303.567 264.615 303.734 264.46 303.89C264.557 303.689 264.674 303.498 264.81 303.32C265.09 302.93 265.45 302.41 265.89 301.77C266.84 300.43 268.23 298.51 269.98 296.16C273.47 291.44 278.4 285.01 284.05 278.06C289.7 271.11 295 265 298.86 260.57C300.81 258.37 302.4 256.57 303.52 255.41L304.81 254.03C304.95 253.86 305.111 253.709 305.29 253.58Z" fill="#FAFAFA"/>
<path d="M302 253.38C301.88 253.557 301.746 253.724 301.6 253.88L300.37 255.27L295.8 260.27C291.95 264.53 286.67 270.46 280.98 277.12C275.29 283.78 270.24 290 266.62 294.45L262.35 299.74C261.87 300.33 261.48 300.81 261.17 301.17C261.043 301.345 260.899 301.505 260.74 301.65C260.83 301.454 260.948 301.272 261.09 301.11L262.19 299.62C263.19 298.33 264.56 296.48 266.33 294.22C269.88 289.69 274.87 283.51 280.57 276.84C286.27 270.17 291.57 264.27 295.52 260.07C297.52 257.96 299.08 256.28 300.21 255.13L301.51 253.81C301.652 253.645 301.817 253.5 302 253.38Z" fill="#FAFAFA"/>
<path d="M336.19 320C336.07 320.08 332.31 315 327.79 308.62C323.27 302.24 319.7 297.03 319.79 296.94C319.88 296.85 323.66 301.94 328.19 308.32C332.72 314.7 336.31 320 336.19 320Z" fill="#455A64"/>
<path d="M387.24 209.16C387.13 210.31 385.14 213.08 382.68 214.52C379.934 216.204 377.097 217.733 374.18 219.1C368.63 221.79 325.26 237.34 325.26 237.34L329.08 228.83L328.14 223.27C340.09 220.68 372.91 210.89 381.37 205.27C383.11 204.11 384.27 201.57 382.72 199.81L382.91 199.21C382.91 199.21 383.72 199.03 386.29 203.41C387.224 205.172 387.558 207.191 387.24 209.16Z" fill="#AB2795"/>
<g opacity="0.3">
<path d="M387.24 209.16C387.13 210.31 385.14 213.08 382.68 214.52C379.934 216.204 377.097 217.733 374.18 219.1C368.63 221.79 325.26 237.34 325.26 237.34L329.08 228.83L328.14 223.27C340.09 220.68 372.91 210.89 381.37 205.27C383.11 204.11 384.27 201.57 382.72 199.81L382.91 199.21C382.91 199.21 383.72 199.03 386.29 203.41C387.224 205.172 387.558 207.191 387.24 209.16Z" fill="black"/>
</g>
<path d="M262 229.11L304.07 223.94L309.22 226.73L299.4 238.17C299.4 238.17 246.17 242.63 233.4 250.25C221.16 257.53 217.72 275.89 198.3 277.69C178.88 279.49 129.84 259.08 120.09 263.69L114.31 248.46C114.31 248.46 143.55 249 165.17 256.8C186.79 264.6 193.62 266.36 204.68 256.8C215.74 247.24 225.18 238.1 244.37 233.53C256.08 230.7 262 229.11 262 229.11Z" fill="#AB2795"/>
<g opacity="0.3">
<path d="M262 229.11L304.07 223.94L309.22 226.73L299.4 238.17C299.4 238.17 246.17 242.63 233.4 250.25C221.16 257.53 217.72 275.89 198.3 277.69C178.88 279.49 129.84 259.08 120.09 263.69L114.31 248.46C114.31 248.46 143.55 249 165.17 256.8C186.79 264.6 193.62 266.36 204.68 256.8C215.74 247.24 225.18 238.1 244.37 233.53C256.08 230.7 262 229.11 262 229.11Z" fill="black"/>
</g>
<path d="M225.17 129.93C225.17 130.07 209 130.19 189.06 130.19C169.12 130.19 152.95 130.07 152.95 129.93C152.95 129.79 169.11 129.67 189.06 129.67C209.01 129.67 225.17 129.79 225.17 129.93Z" fill="#455A64"/>
<path d="M178.52 147.13C178.52 147.27 170.63 147.39 160.91 147.39C151.19 147.39 143.3 147.27 143.3 147.13C143.3 146.99 151.18 146.87 160.91 146.87C170.64 146.87 178.52 147 178.52 147.13Z" fill="#455A64"/>
<path d="M202.3 138.78C202.3 138.92 169.96 139.04 130.06 139.04C90.1599 139.04 57.8199 138.92 57.8199 138.78C57.8199 138.64 90.1599 138.52 130.06 138.52C169.96 138.52 202.3 138.63 202.3 138.78Z" fill="#455A64"/>
<path d="M331.37 383.27C331.37 383.42 315.21 383.53 295.26 383.53C275.31 383.53 259.15 383.42 259.15 383.27C259.15 383.12 275.32 383.01 295.26 383.01C315.2 383.01 331.37 383.13 331.37 383.27Z" fill="#455A64"/>
<path d="M308.51 392.12C308.51 392.26 276.16 392.38 236.27 392.38C196.38 392.38 164.02 392.26 164.02 392.12C164.02 391.98 196.36 391.86 236.27 391.86C276.18 391.86 308.51 392 308.51 392.12Z" fill="#455A64"/>
<path d="M75.5501 438.13C76.2001 435.61 74.5501 433.08 72.6901 431.24C70.8301 429.4 68.6201 427.77 67.6901 425.35C66.1201 421.43 68.23 416.35 65.56 413.08C63.99 411.16 61.17 410.51 59.78 408.46C59.1408 407.321 58.717 406.073 58.53 404.78C57.0431 398.265 53.8388 392.268 49.2501 387.41C48.937 393.216 50.1945 398.999 52.89 404.15C53.97 406.21 55.2901 408.22 55.6501 410.51C56.2301 414.24 54.1501 418.08 55.0701 421.74C56.1201 425.93 60.8201 428.74 61.0701 433.04C61.26 436.68 58.0701 439.88 58.3201 443.52C58.5093 445.068 59.0646 446.549 59.94 447.84C62.76 452.52 66.9401 455.75 73.17 455.65L80.85 455.91L75.5501 438.13Z" fill="#AB2795"/>
<g opacity="0.3">
<path d="M75.5501 438.13C76.2001 435.61 74.5501 433.08 72.6901 431.24C70.8301 429.4 68.6201 427.77 67.6901 425.35C66.1201 421.43 68.23 416.35 65.56 413.08C63.99 411.16 61.17 410.51 59.78 408.46C59.1408 407.321 58.717 406.073 58.53 404.78C57.0431 398.265 53.8388 392.268 49.2501 387.41C48.937 393.216 50.1945 398.999 52.89 404.15C53.97 406.21 55.2901 408.22 55.6501 410.51C56.2301 414.24 54.1501 418.08 55.0701 421.74C56.1201 425.93 60.8201 428.74 61.0701 433.04C61.26 436.68 58.0701 439.88 58.3201 443.52C58.5093 445.068 59.0646 446.549 59.94 447.84C62.76 452.52 66.9401 455.75 73.17 455.65L80.85 455.91L75.5501 438.13Z" fill="black"/>
</g>
<path d="M82.3501 456.12C83.0509 456.226 83.765 456.21 84.4601 456.07C85.3129 455.947 86.1507 455.736 86.9601 455.44C88.0617 455.053 89.0896 454.481 90.0001 453.75C90.5599 453.303 90.997 452.722 91.2701 452.06C91.5085 451.32 91.63 450.547 91.6301 449.77C91.6301 448.96 91.6301 448.13 91.8101 447.28C91.9637 446.404 92.2827 445.566 92.7501 444.81C93.6601 443.22 95.1601 441.71 95.6501 439.55C96.0176 437.314 95.9463 435.028 95.4401 432.82C95.0801 430.51 94.7401 428 95.6201 425.6C96.5001 423.2 98.1701 421 99.0001 418.32C99.8301 415.64 99.4501 412.64 99.6301 409.74C99.6826 408.265 100.022 406.815 100.63 405.47C101.25 404.11 102.11 402.83 102.78 401.4C104.15 398.5 104.39 395.22 104.78 392.01C104.96 390.39 105.15 388.75 105.33 387.1C105.446 385.438 105.734 383.792 106.19 382.19C106.709 380.57 107.32 378.98 108.02 377.43C108.39 376.63 108.691 375.8 108.92 374.95C109.049 374.075 109.129 373.194 109.16 372.31C109.261 370.538 109.207 368.762 109 367C108.79 365.22 108.47 363.47 108.28 361.69V361.38V361.03L107.96 361.19C106.332 362.019 104.919 363.213 103.83 364.68C102.759 366.109 101.9 367.685 101.28 369.36C100.187 372.636 99.3869 376.002 98.8901 379.42C98.4106 382.683 97.3397 385.831 95.7301 388.71C94.8901 390.08 93.8701 391.33 92.9801 392.71C92.0101 393.975 91.3337 395.441 91.0001 397C90.5401 400.25 92.3301 403.11 92.0001 406C91.8282 407.419 91.3506 408.783 90.6001 410C89.9001 411.23 89.0801 412.37 88.3001 413.51C87.5055 414.627 86.8159 415.816 86.2401 417.06C85.7016 418.277 85.3833 419.581 85.3001 420.91C85.1101 423.5 85.4801 425.91 85.3001 428.28C85.0821 430.486 84.4368 432.63 83.4001 434.59C82.4701 436.49 81.4001 438.19 80.5701 439.85C80.1426 440.647 79.7555 441.464 79.4101 442.3C79.0986 443.084 78.8707 443.898 78.7301 444.73C78.5158 446.182 78.5158 447.658 78.7301 449.11C78.9289 451.143 79.6869 453.081 80.9201 454.71C81.1126 454.949 81.3232 455.173 81.5501 455.38C81.7004 455.541 81.8681 455.685 82.0501 455.81L82.4901 456.12C81.9437 455.679 81.4443 455.183 81.0001 454.64C79.8192 453.011 79.1005 451.093 78.9201 449.09C78.7424 447.653 78.7727 446.198 79.0101 444.77C79.159 443.96 79.3867 443.166 79.6901 442.4C79.9975 441.583 80.3446 440.782 80.7301 440C81.6001 438.36 82.6401 436.66 83.5901 434.75C84.6719 432.762 85.3515 430.58 85.5901 428.33C85.8001 425.96 85.4401 423.49 85.5901 420.96C85.6704 419.675 85.982 418.414 86.5101 417.24C87.0676 416.024 87.7372 414.862 88.5101 413.77C89.2901 412.63 90.1201 411.49 90.8301 410.23C91.6117 408.968 92.1131 407.552 92.3001 406.08C92.6701 403.02 90.8901 400.14 91.3601 397.08C91.656 395.564 92.2844 394.133 93.2001 392.89C94.0701 391.58 95.1001 390.33 95.9701 388.89C97.6069 385.96 98.7012 382.759 99.2001 379.44C99.6879 376.042 100.481 372.695 101.57 369.44C102.2 367.848 103.052 366.353 104.1 365C105.155 363.588 106.525 362.441 108.1 361.65L107.74 361.45C107.74 361.55 107.74 361.66 107.74 361.76C107.93 363.56 108.25 365.32 108.46 367.08C108.681 368.814 108.748 370.564 108.66 372.31C108.66 373.17 108.56 374.07 108.43 374.88C108.204 375.698 107.913 376.497 107.56 377.27C106.854 378.837 106.236 380.443 105.71 382.08C105.253 383.713 104.965 385.388 104.85 387.08C104.66 388.74 104.48 390.38 104.3 392C103.94 395.22 103.69 398.45 102.38 401.25C101.73 402.64 100.87 403.92 100.23 405.33C99.6162 406.725 99.2767 408.226 99.2301 409.75C99.0701 412.75 99.4501 415.62 98.6501 418.24C97.8501 420.86 96.1801 423.04 95.3301 425.52C94.4801 428 94.8001 430.62 95.1601 432.91C95.6772 435.075 95.7622 437.321 95.4101 439.52C94.9701 441.58 93.5101 443.08 92.5801 444.71C92.0833 445.494 91.7437 446.366 91.5801 447.28C91.4795 448.116 91.4261 448.957 91.4201 449.8C91.4172 450.555 91.3061 451.306 91.0901 452.03C90.8321 452.659 90.4235 453.215 89.9001 453.65C89.0026 454.378 87.9883 454.95 86.9001 455.34C86.1051 455.647 85.2808 455.871 84.4401 456.01C83.9254 456.105 83.4034 456.155 82.8801 456.16L82.3501 456.12Z" fill="#263238"/>
<path d="M106.63 365.6C106.59 365.675 106.563 365.756 106.55 365.84C106.55 366.02 106.45 366.25 106.38 366.53C106.23 367.13 106.05 368.05 105.76 369.19C105.47 370.33 104.76 371.61 104.17 373.19C103.58 374.77 102.92 376.59 102.34 378.64C101.76 380.69 101.23 382.97 100.69 385.4C100.222 388.005 99.3941 390.533 98.2301 392.91C97.6001 394.15 96.8901 395.42 96.3301 396.8C95.7758 398.217 95.4028 399.699 95.2201 401.21C94.8347 404.334 94.284 407.435 93.5701 410.5C92.0301 416.8 90.5701 422.8 89.2201 428.26L85.5801 442.73L83.1701 452.51C82.9001 453.63 82.6901 454.51 82.5401 455.17C82.4801 455.45 82.4301 455.68 82.3801 455.86C82.3665 455.943 82.3665 456.027 82.3801 456.11C82.4193 456.038 82.4463 455.961 82.4601 455.88C82.5201 455.7 82.5801 455.47 82.6601 455.19C82.8401 454.523 83.0801 453.643 83.3801 452.55C84.0001 450.22 84.8701 446.9 85.9501 442.82C87.0301 438.74 88.2901 433.82 89.6901 428.37C91.0901 422.92 92.5201 416.91 94.0801 410.61C94.798 407.532 95.3488 404.418 95.7301 401.28C95.9053 399.808 96.2648 398.363 96.8001 396.98C97.3401 395.63 98.0401 394.37 98.6701 393.11C99.8371 390.696 100.662 388.132 101.12 385.49C101.65 383.05 102.12 380.78 102.71 378.73C103.3 376.68 103.86 374.87 104.45 373.29C105.04 371.71 105.69 370.41 105.98 369.23C106.27 368.05 106.39 367.16 106.51 366.54L106.63 365.84V365.6Z" fill="#263238"/>
<path d="M83.71 456.14C88.71 453.14 90.16 444.14 88.07 438.65C85.98 433.16 82.31 428.22 81.75 422.41C81.31 417.95 82.75 413.36 81.75 409C80.34 403.11 74.59 398.54 74.66 392.49C74.66 389.09 76.66 385.89 76.47 382.49C76.28 378.32 73.09 375.02 71.11 371.35C68.11 365.74 67.88 359.1 66.84 352.8C65.8 346.5 63.41 339.8 57.84 336.67C57.01 342.02 55.61 345.67 56.05 352.92C56.21 355.52 59.23 360.49 59.64 366.19C59.89 369.6 60.06 373.01 60.26 376.42C60.2993 379.749 60.8421 383.053 61.87 386.22C62.78 388.6 64.25 390.76 64.92 393.22C66.2 397.84 64.52 402.84 65.55 407.52C66.42 411.52 69.17 414.9 69.73 418.92C70.51 424.57 66.86 430.44 68.73 435.83C69.66 438.5 71.86 440.65 72.48 443.41C72.97 445.55 72.48 447.82 72.88 449.97C73.58 453.44 80.2 456.13 83.73 455.91" fill="#AB2795"/>
<path d="M59.2001 342C59.189 342.1 59.189 342.2 59.2001 342.3L59.3201 343.18C59.4301 343.95 59.5601 345.08 59.8201 346.55C60.0801 348.02 60.8201 349.68 61.4701 351.68C62.1201 353.68 62.7501 355.98 63.3101 358.55C63.8701 361.12 64.3101 363.98 64.8601 367.04C65.2679 370.348 66.1363 373.583 67.4401 376.65C68.1401 378.25 68.9301 379.86 69.5201 381.57C70.1095 383.327 70.4724 385.151 70.6001 387C70.8793 390.92 71.37 394.823 72.0701 398.69C73.6101 406.61 75.0701 414.15 76.4101 421.02C77.7501 427.89 79.0801 434.02 80.1401 439.2C81.2001 444.38 82.1401 448.53 82.7001 451.46C83.0101 452.87 83.2501 453.99 83.4201 454.78C83.5101 455.14 83.5701 455.42 83.6201 455.64C83.6701 455.86 83.7001 455.94 83.7101 455.93C83.7201 455.92 83.7101 455.83 83.7101 455.63C83.7101 455.43 83.6201 455.12 83.5601 454.76C83.4101 453.96 83.2001 452.84 82.9301 451.42C82.3601 448.48 81.5401 444.3 80.5201 439.13C79.5001 433.96 78.2601 427.77 76.8901 420.93L72.6001 398.61C71.9018 394.752 71.4078 390.86 71.1201 386.95C70.9849 385.06 70.6085 383.195 70.0001 381.4C69.3901 379.66 68.5901 378.04 67.8801 376.45C66.5831 373.435 65.7114 370.255 65.2901 367C64.7701 363.93 64.2901 361.08 63.6701 358.5C63.1456 356.176 62.5048 353.88 61.7501 351.62C61.1101 349.62 60.3301 347.96 60.0301 346.53C59.7301 345.1 59.5801 343.94 59.4401 343.18C59.3701 342.82 59.3201 342.53 59.2701 342.31C59.2623 342.204 59.2387 342.099 59.2001 342Z" fill="#263238"/>
<path d="M333.66 417.33C334.668 417.504 335.63 417.88 336.489 418.435C337.349 418.99 338.087 419.713 338.66 420.56C339.795 422.262 340.524 424.202 340.79 426.23C341.42 430.13 340.34 434.53 338.88 438.23C334.88 436.34 332.88 431.71 331.93 429.29C330.49 425.47 330.21 417.7 333.67 417.36" fill="#AB2795"/>
<path d="M344.3 443.39C343.783 442.372 343.544 441.236 343.607 440.097C343.671 438.957 344.034 437.854 344.66 436.9C345.302 435.955 346.126 435.148 347.085 434.527C348.043 433.905 349.116 433.481 350.24 433.28C350.743 433.131 351.272 433.095 351.79 433.173C352.308 433.25 352.803 433.441 353.24 433.73C353.602 434.066 353.867 434.493 354.007 434.966C354.148 435.439 354.159 435.941 354.04 436.42C353.804 437.395 353.306 438.287 352.6 439C350.33 441.5 347.68 443.5 344.3 443.44" fill="#AB2795"/>
<path d="M343.47 456.1C343.408 455.834 343.371 455.563 343.36 455.29C343.31 454.72 343.24 453.98 343.16 453.09C342.862 450.657 342.96 448.192 343.45 445.79C343.982 443.377 345.149 441.15 346.83 439.34C347.341 438.803 347.915 438.329 348.54 437.93C348.709 437.817 348.886 437.717 349.07 437.63C349.19 437.56 349.25 437.53 349.26 437.54C348.433 438.108 347.666 438.758 346.97 439.48C345.369 441.299 344.254 443.494 343.73 445.86C343.248 448.235 343.123 450.668 343.36 453.08C343.42 454.01 343.46 454.76 343.47 455.29C343.49 455.56 343.49 455.83 343.47 456.1Z" fill="#263238"/>
<path d="M334.4 423.23C334.453 423.336 334.496 423.446 334.53 423.56L334.86 424.51C335.14 425.35 335.53 426.56 336.01 428.05C336.95 431.05 338.2 435.21 339.47 439.83C340.74 444.45 341.8 448.66 342.47 451.72C342.83 453.25 343.11 454.49 343.29 455.34C343.38 455.75 343.45 456.08 343.5 456.34C343.528 456.451 343.545 456.565 343.55 456.68C343.503 456.574 343.466 456.463 343.44 456.35C343.38 456.1 343.29 455.77 343.19 455.35C342.96 454.46 342.65 453.24 342.27 451.75C341.5 448.75 340.41 444.5 339.14 439.88C337.87 435.26 336.66 431.1 335.76 428.09C335.32 426.61 334.97 425.4 334.71 424.53C334.59 424.13 334.5 423.81 334.43 423.53C334.412 423.431 334.402 423.331 334.4 423.23Z" fill="#263238"/>
<path d="M339.45 447.22C338.421 445.037 336.886 443.13 334.973 441.659C333.06 440.188 330.824 439.194 328.45 438.76C327.25 438.55 325.77 438.61 325.11 439.64C324.45 440.67 325.05 442.04 325.79 443.02C327.359 445.038 329.491 446.547 331.917 447.355C334.343 448.163 336.954 448.234 339.42 447.56" fill="#AB2795"/>
<path d="M330 442.2C330.253 442.21 330.504 442.243 330.75 442.3C331 442.35 331.29 442.4 331.63 442.5C331.97 442.6 332.36 442.67 332.77 442.83C333.226 442.982 333.673 443.159 334.11 443.36C334.616 443.58 335.11 443.827 335.59 444.1C337.808 445.359 339.686 447.141 341.06 449.29C341.354 449.754 341.622 450.235 341.86 450.73C342.082 451.16 342.276 451.604 342.44 452.06C342.586 452.429 342.71 452.806 342.81 453.19C342.902 453.475 342.976 453.765 343.03 454.06C343.097 454.305 343.138 454.556 343.15 454.81C343.09 454.81 342.9 453.75 342.25 452.13C342.074 451.689 341.873 451.259 341.65 450.84C341.404 450.356 341.133 449.886 340.84 449.43C340.15 448.389 339.349 447.427 338.45 446.56C337.531 445.713 336.525 444.966 335.45 444.33C334.98 444.054 334.496 443.804 334 443.58C333.577 443.366 333.139 443.182 332.69 443.03C331.07 442.43 330 442.26 330 442.2Z" fill="#263238"/>
</svg>
