<svg width="27" height="28" viewBox="0 0 27 28" fill="none" xmlns="http://www.w3.org/2000/svg">
<path d="M9.65434 15.4643C9.8747 15.0236 9.99906 14.5262 9.99906 14.0003C9.99906 13.4745 9.8747 12.9771 9.65434 12.5363M9.65434 15.4643C9.32456 16.1237 8.78183 16.6524 8.11408 16.9647C7.44632 17.2771 6.69266 17.3549 5.97519 17.1855C5.25771 17.016 4.61845 16.6093 4.16097 16.0312C3.70349 15.4532 3.45459 14.7375 3.45459 14.0003C3.45459 13.2631 3.70349 12.5475 4.16097 11.9694C4.61845 11.3913 5.25771 10.9846 5.97519 10.8152C6.69266 10.6458 7.44632 10.7236 8.11408 11.0359C8.78183 11.3483 9.32456 11.877 9.65434 12.5363M9.65434 15.4643L16.8892 19.0818M9.65434 12.5363L16.8892 8.91888M16.8892 19.0818C16.501 19.8583 16.4371 20.7573 16.7116 21.581C16.9862 22.4047 17.5767 23.0855 18.3532 23.4738C19.1298 23.8621 20.0288 23.926 20.8525 23.6514C21.6761 23.3768 22.357 22.7863 22.7452 22.0098C23.1335 21.2332 23.1974 20.3342 22.9229 19.5106C22.6483 18.6869 22.0578 18.0061 21.2812 17.6178C20.8967 17.4255 20.4781 17.3109 20.0493 17.2804C19.6205 17.2499 19.1899 17.3042 18.782 17.4402C17.9584 17.7147 17.2775 18.3052 16.8892 19.0818ZM16.8892 8.91888C17.0815 9.30332 17.3476 9.64613 17.6723 9.92773C17.9971 10.2093 18.3741 10.4242 18.7819 10.5601C19.1897 10.696 19.6202 10.7502 20.049 10.7197C20.4777 10.6892 20.8963 10.5746 21.2807 10.3823C21.6651 10.1901 22.0079 9.92399 22.2895 9.59925C22.5712 9.27451 22.786 8.89748 22.9219 8.4897C23.0578 8.08192 23.1121 7.65136 23.0816 7.22261C23.0511 6.79386 22.9364 6.37532 22.7442 5.99088C22.3559 5.21447 21.6751 4.6241 20.8515 4.34965C20.028 4.0752 19.1291 4.13915 18.3527 4.52743C17.5763 4.9157 16.9859 5.59651 16.7115 6.42006C16.437 7.24362 16.501 8.14247 16.8892 8.91888Z" stroke="white" stroke-width="2.18182" stroke-linecap="round" stroke-linejoin="round"/>
</svg>
