<svg width="25" height="20" viewBox="0 0 25 24" fill="none" xmlns="http://www.w3.org/2000/svg">
    <path d="M12.055 9.16815L15.252 11.3002C15.389 11.3915 15.5013 11.5162 15.5789 11.6613C15.6566 11.8065 15.6972 11.9685 15.6972 12.1332C15.6972 12.2978 15.6566 12.4598 15.5789 12.605C15.5013 12.7501 15.389 12.8738 15.252 12.9652L12.055 15.0972C11.9044 15.1976 11.7293 15.2553 11.5485 15.2641C11.3677 15.2729 11.1879 15.2324 11.0282 15.147C10.8686 15.0616 10.7352 14.9345 10.6421 14.7792C10.5491 14.6238 10.5 14.4462 10.5 14.2652V10.0022C10.4996 9.82094 10.5485 9.64303 10.6414 9.48743C10.7342 9.33183 10.8677 9.2044 11.0274 9.11875C11.187 9.0331 11.367 8.99245 11.548 9.00115C11.729 9.00986 11.9043 9.06758 12.055 9.16815Z"  stroke-width="2" stroke-linecap="round" stroke-linejoin="round"/>
    <path d="M20.8149 15.4442C21.2672 14.3522 21.5 13.1819 21.5 12C21.5 9.61305 20.5518 7.32387 18.864 5.63604C17.1761 3.94821 14.8869 3 12.5 3C10.1131 3 7.82387 3.94821 6.13604 5.63604C4.44821 7.32387 3.5 9.61305 3.5 12C3.5 13.1819 3.73279 14.3522 4.18508 15.4442C4.63738 16.5361 5.30031 17.5282 6.13604 18.364C6.97177 19.1997 7.96392 19.8626 9.05585 20.3149C10.1478 20.7672 11.3181 21 12.5 21C13.6819 21 14.8522 20.7672 15.9442 20.3149C17.0361 19.8626 18.0282 19.1997 18.864 18.364C19.6997 17.5282 20.3626 16.5361 20.8149 15.4442Z"  stroke-width="2" stroke-linecap="round" stroke-linejoin="round"/>
</svg>
