<svg width="170" height="120" viewBox="0 0 170 120" fill="none" xmlns="http://www.w3.org/2000/svg">
<path opacity="0.85" d="M100.187 1.35797C100.187 1.35797 83.2076 -3.83073 68.3688 7.18232C53.5301 18.1954 52.2423 34.8804 46.5929 48.2084C43.6353 55.1885 36.9892 59.925 32.6178 66.1124C18.6281 85.8981 32.8001 112.626 51.7592 117.391C68.1687 121.532 84.4335 116.299 102.357 101.551C120.28 86.8034 133.421 77.0349 138.393 52.84C143.365 28.645 121.621 9.02298 100.187 1.35797Z" fill="#E3EDFF"/>
<path d="M72.6305 110.952L72.0085 111.873L72.9397 112.489L72.3214 113.514L73.1483 114.229L71.595 115.254L72.4219 115.767L72.2171 116.486L73.044 116.895L72.2171 118.122H46.8578L46.34 116.895L46.9621 116.176L46.0309 115.663L47.4799 115.254L46.5486 114.638L47.5804 114.229L46.2357 113.717L49.6515 112.692L45.8223 112.08L47.0627 102.756L72.2357 107.04L72.6305 110.952Z" fill="white" stroke="#001550" stroke-width="0.8" stroke-miterlimit="10" stroke-linecap="round"/>
<path d="M44.9609 112.026C44.9609 112.026 60.3076 112.701 72.6259 110.961L72.2311 105.022L46.3354 102.574L44.9609 112.026Z" fill="white"/>
<path d="M44.9609 112.026C44.9609 112.026 60.3076 112.701 72.6259 110.961L72.2311 105.022L46.3354 102.574L44.9609 112.026Z" stroke="#001550" stroke-width="0.8" stroke-miterlimit="10" stroke-linecap="round"/>
<path d="M51.0392 104.216L50.5771 109.056" stroke="#001550" stroke-width="0.8" stroke-linecap="round" stroke-linejoin="round"/>
<path d="M54.8579 104.52L54.7051 109.515" stroke="#001550" stroke-width="0.8" stroke-linecap="round" stroke-linejoin="round"/>
<path d="M58.6772 104.972L58.5244 109.816" stroke="#001550" stroke-width="0.8" stroke-linecap="round" stroke-linejoin="round"/>
<path d="M62.1943 106.029V109.966" stroke="#001550" stroke-width="0.8" stroke-linecap="round" stroke-linejoin="round"/>
<path d="M66.3291 106.943L66.4819 109.97" stroke="#001550" stroke-width="0.8" stroke-linecap="round" stroke-linejoin="round"/>
<path d="M70 107.544L70.1528 109.966" stroke="#001550" stroke-width="0.8" stroke-linecap="round" stroke-linejoin="round"/>
<path d="M72.741 100.675C72.741 100.675 52.3209 109.597 44.9717 112.019L46.3462 102.555L66.945 94.1204L72.741 100.675Z" fill="white"/>
<path d="M72.741 100.675C72.741 100.675 52.3209 109.597 44.9717 112.019L46.3462 102.555L66.945 94.1204L72.741 100.675Z" stroke="#001550" stroke-width="0.8" stroke-linecap="round" stroke-linejoin="round"/>
<path d="M52.9605 101.494L72.7323 100.676L68.7988 92.1743L49.3398 92.2775L52.9605 101.494Z" fill="white"/>
<path d="M52.9605 101.494L72.7323 100.676L68.7988 92.1743L49.3398 92.2775L52.9605 101.494Z" stroke="#001550" stroke-width="0.8" stroke-linecap="round" stroke-linejoin="round"/>
<path d="M54.5537 93.6211L56.3909 99.6746" stroke="#001550" stroke-width="0.8" stroke-linecap="round" stroke-linejoin="round"/>
<path d="M58.0664 93.3147L59.9036 99.6742" stroke="#001550" stroke-width="0.8" stroke-linecap="round" stroke-linejoin="round"/>
<path d="M61.5879 93.1658L63.2685 99.223" stroke="#001550" stroke-width="0.8" stroke-linecap="round" stroke-linejoin="round"/>
<path d="M65.2598 93.1658L67.0969 99.0718" stroke="#001550" stroke-width="0.8" stroke-linecap="round" stroke-linejoin="round"/>
<path d="M73.5993 68.3622L79.5219 88.7864L77.1529 89.5606L66.3506 66.3788C66.3506 66.3788 70.448 65.0553 73.5993 68.3622Z" fill="#001550" stroke="#001550" stroke-width="0.8" stroke-linecap="round" stroke-linejoin="round"/>
<path d="M79.5293 88.7997C79.5293 88.7997 81.0602 91.3509 81.0602 92.2025C81.0602 93.0541 78.2889 92.9582 77.0485 93.1463C75.8081 93.3343 73.115 95.1186 71.9975 94.6467C71.9975 94.6467 71.3307 94.2781 71.9975 93.5112C72.6643 92.7444 75.7634 91.2771 77.1751 89.5591L79.5293 88.7997Z" fill="white" stroke="#001550" stroke-width="0.8" stroke-linecap="round" stroke-linejoin="round"/>
<path d="M98.9571 14.2774C98.9571 14.6461 98.525 14.9926 98.4877 15.3576C98.4505 15.7226 98.8006 16.1502 98.7224 16.5078C98.6442 16.8654 98.1525 17.1198 98.037 17.4664C97.9216 17.8129 98.1748 18.3069 98.037 18.6424C97.8992 18.9779 97.3479 19.1217 97.1654 19.4387C96.9829 19.7558 97.1207 20.2867 96.9046 20.5853C96.6886 20.8839 96.1299 20.9097 95.8803 21.1825C95.6307 21.4553 95.6605 22.0047 95.3849 22.2517C95.1092 22.4987 94.5617 22.4102 94.2674 22.6203C93.9731 22.8305 93.8949 23.3798 93.5597 23.5641C93.2244 23.7485 92.7216 23.5641 92.3826 23.7005C92.0436 23.8369 91.8462 24.3641 91.4923 24.4784C91.1385 24.5927 90.6729 24.2904 90.3078 24.3641C89.9428 24.4379 89.6448 24.9024 89.2723 24.9429C88.8998 24.9835 88.5273 24.5743 88.1548 24.5743C87.7823 24.5743 87.3875 24.9651 87.0373 24.9429C86.6872 24.9208 86.3594 24.4416 86.0018 24.3641C85.6442 24.2867 85.1674 24.589 84.8173 24.4747C84.4671 24.3604 84.266 23.848 83.927 23.7005C83.5881 23.5531 83.0666 23.7448 82.7462 23.5641C82.4259 23.3835 82.3402 22.8268 82.0385 22.6203C81.7368 22.4139 81.1892 22.4876 80.921 22.2517C80.6528 22.0157 80.6752 21.4553 80.4293 21.1825C80.1835 20.9097 79.6247 20.8802 79.405 20.5853C79.1852 20.2904 79.3305 19.7558 79.1442 19.4387C78.958 19.1217 78.4216 18.9779 78.2726 18.6424C78.1236 18.3069 78.3732 17.8166 78.2726 17.4664C78.172 17.1161 77.6617 16.8691 77.5872 16.5078C77.5127 16.1465 77.8591 15.7263 77.8219 15.3576C77.7846 14.9889 77.3525 14.6498 77.3525 14.2774C77.3525 13.905 77.7846 13.5401 77.8219 13.1972C77.8591 12.8543 77.509 12.4009 77.5872 12.0433C77.6654 11.6857 78.1571 11.435 78.2726 11.0847C78.3881 10.7345 78.1348 10.2442 78.2726 9.91239C78.4104 9.58059 78.9617 9.43312 79.1442 9.11607C79.3267 8.79901 79.1889 8.26444 79.405 7.96951C79.621 7.67458 80.1798 7.64508 80.4293 7.37227C80.6789 7.09946 80.6491 6.55014 80.9247 6.30314C81.2004 6.05613 81.7479 6.14461 82.0422 5.93447C82.3365 5.72433 82.4147 5.17501 82.7499 4.99068C83.0852 4.80635 83.5881 4.99068 83.927 4.85428C84.266 4.71787 84.4634 4.19067 84.8173 4.07639C85.1711 3.9621 85.6368 4.26441 86.0018 4.18699C86.3668 4.10957 86.6648 3.64873 87.0373 3.61187C87.4098 3.575 87.7823 3.98053 88.1548 3.98053C88.5273 3.98053 88.9221 3.58975 89.2723 3.61187C89.6224 3.63399 89.9502 4.11325 90.3078 4.18699C90.6654 4.26072 91.1422 3.96579 91.4923 4.07639C91.8425 4.18699 92.0436 4.70681 92.3826 4.85428C92.7216 5.00174 93.243 4.80635 93.5634 4.99068C93.8837 5.17501 93.9694 5.72802 94.2711 5.93447C94.5728 6.14092 95.1204 6.0635 95.3886 6.30314C95.6568 6.54277 95.6344 7.09946 95.8803 7.37227C96.1261 7.64508 96.6849 7.67089 96.9046 7.96951C97.1244 8.26813 96.9791 8.79901 97.1654 9.11607C97.3516 9.43312 97.888 9.57321 98.037 9.91239C98.186 10.2516 97.9365 10.7345 98.037 11.0884C98.1376 11.4424 98.6479 11.682 98.7224 12.047C98.7969 12.4119 98.4505 12.8285 98.4877 13.1972C98.525 13.5659 98.9571 13.905 98.9571 14.2774Z" fill="#001550"/>
<path d="M79.7899 28.3982C79.7899 28.3982 76.065 36.5753 74.2026 40.9956C72.3401 45.4159 73.7444 49.1947 74.9475 49.615C76.2103 50.0574 85.3513 46.839 87.5229 46.0058C89.5865 45.2131 89.6088 45.2684 89.6088 45.2684C89.6088 45.2684 89.7578 52.1183 89.7578 52.9293C89.7578 53.7404 88.2679 56.686 88.4169 57.5708C88.5659 58.4557 90.5773 60.1515 96.5297 60.7377C102.482 61.3239 105.909 59.9266 106.501 59.1156C107.094 58.3045 107.097 57.2722 107.097 55.6538C107.097 54.0353 106.278 44.826 105.09 37.5891C103.901 30.3522 100.772 27.2664 99.2825 26.4664C97.7925 25.6664 95.2633 26.7613 92.734 28.4535C90.2048 30.1457 88.7894 33.4637 88.4169 34.3522C88.0444 35.2407 80.9 41.1283 80.3785 41.6444C79.857 42.1606 81.4215 28.9733 81.4215 28.9733L79.7899 28.3982Z" fill="#10B981" stroke="#001550" stroke-width="0.8" stroke-linecap="round" stroke-linejoin="round"/>
<path d="M79.1748 29.7812L81.2235 30.4932" stroke="#001550" stroke-width="0.8" stroke-linecap="round" stroke-linejoin="round"/>
<path d="M80.3921 41.6588C80.2783 42.8498 80.0791 44.0313 79.7959 45.1943L80.3921 41.6588Z" fill="white"/>
<path d="M80.3921 41.6588C80.2783 42.8498 80.0791 44.0313 79.7959 45.1943" stroke="#001550" stroke-width="0.8" stroke-linecap="round" stroke-linejoin="round"/>
<path d="M89.6151 45.2652L88.7207 39.149" stroke="#001550" stroke-width="0.8" stroke-linecap="round" stroke-linejoin="round"/>
<path d="M91.1828 28.7689C91.1828 28.7689 89.0261 33.9302 89.4731 33.9302C89.9201 33.9302 90.8886 32.3081 90.8886 32.3081L92.1513 34.815C92.1513 34.815 92.3748 28.9164 92.2258 28.6989C92.0768 28.4813 91.4808 27.9726 91.1828 28.7689Z" fill="white" stroke="#001550" stroke-width="0.8" stroke-linecap="round" stroke-linejoin="round"/>
<path d="M88.9434 26.3371C88.9434 26.3371 91.2491 29.5039 91.4726 30.3924C91.6961 31.2809 91.9196 35.5538 92.1431 34.8164C92.3666 34.0791 96.6838 26.5656 96.7582 26.197C96.8327 25.8283 95.4918 23.4725 95.4918 23.4725C95.4918 23.4725 92.5118 25.6071 91.1038 25.9758C90.4001 26.1779 89.6751 26.2991 88.9434 26.3371Z" fill="white"/>
<path opacity="0.1" d="M88.9453 26.3378C88.9453 26.3378 91.251 29.5047 91.4745 30.3931C91.698 31.2816 91.9215 35.5545 92.145 34.8172C92.3685 34.0798 96.6857 26.5664 96.7602 26.1977C96.8347 25.829 95.4937 23.4733 95.4937 23.4733C95.4937 23.4733 92.5138 25.6078 91.1058 25.9765C90.402 26.1786 89.6771 26.2998 88.9453 26.3378Z" fill="#001550"/>
<path d="M88.9434 26.3371C88.9434 26.3371 91.2491 29.5039 91.4726 30.3924C91.6961 31.2809 91.9196 35.5538 92.1431 34.8164C92.3666 34.0791 96.6838 26.5656 96.7582 26.197C96.8327 25.8283 95.4918 23.4725 95.4918 23.4725C95.4918 23.4725 92.5118 25.6071 91.1038 25.9758C90.4001 26.1779 89.6751 26.2991 88.9434 26.3371V26.3371Z" stroke="#001550" stroke-width="0.8" stroke-linecap="round" stroke-linejoin="round"/>
<path d="M92.5182 31.4143L92.1455 34.806L93.9342 32.4466L92.5182 31.4143Z" fill="white" stroke="#001550" stroke-width="0.8" stroke-linecap="round" stroke-linejoin="round"/>
<path d="M92.5186 31.416L94.0085 33.5543L99.2197 26.262L97.2082 24.5662L92.5186 31.416Z" fill="white" stroke="#001550" stroke-width="0.8" stroke-linecap="round" stroke-linejoin="round"/>
<path d="M94.376 17.9643C94.376 17.9643 94.7486 16.0509 95.5647 16.1984C96.3808 16.3459 96.31 17.8169 95.8629 18.8491C95.6938 19.279 95.4945 19.6966 95.2666 20.0989L94.376 17.9643Z" fill="white"/>
<path opacity="0.1" d="M94.374 17.9603C94.374 17.9603 94.7467 16.0469 95.5628 16.1944C96.3789 16.3419 96.3081 17.8128 95.8609 18.8451C95.6918 19.2749 95.4926 19.6925 95.2647 20.0949L94.374 17.9603Z" fill="#001550"/>
<path d="M94.376 17.9643C94.376 17.9643 94.7486 16.0509 95.5647 16.1984C96.3808 16.3459 96.31 17.8169 95.8629 18.8491C95.6938 19.279 95.4945 19.6966 95.2666 20.0989L94.376 17.9643Z" stroke="#001550" stroke-width="0.8" stroke-linecap="round" stroke-linejoin="round"/>
<path d="M84.4697 20.837C84.4697 20.837 83.2814 19.731 83.0579 21.2794C82.8344 22.8278 85.3637 23.1228 85.3637 23.1228L84.4697 20.837Z" fill="white"/>
<path opacity="0.1" d="M84.4648 20.8355C84.4648 20.8355 83.2765 19.7295 83.053 21.2779C82.8296 22.8263 85.3588 23.1212 85.3588 23.1212L84.4648 20.8355Z" fill="#001550"/>
<path d="M84.4697 20.837C84.4697 20.837 83.2814 19.731 83.0579 21.2794C82.8344 22.8278 85.3637 23.1228 85.3637 23.1228L84.4697 20.837Z" stroke="#001550" stroke-width="0.8" stroke-linecap="round" stroke-linejoin="round"/>
<path d="M82.7611 16.3382C82.7611 16.3382 86.0353 25.2526 87.231 26.5798C88.4267 27.907 91.6189 28.6406 94.2264 26.6535C96.8338 24.6664 96.0106 22.4544 95.4146 20.6848C94.8186 18.9152 92.3639 12.8027 91.9914 11.9953C91.6189 11.1879 89.8347 10.7419 88.9407 11.4055C88.0467 12.0691 88.4192 12.8801 86.933 13.2488C85.4467 13.6175 83.6588 13.0276 82.8356 14.1336C82.604 14.4525 82.4734 14.8322 82.4601 15.2247C82.4468 15.6172 82.5516 16.0047 82.7611 16.3382Z" fill="white"/>
<path opacity="0.1" d="M82.765 16.3426C82.765 16.3426 86.0392 25.257 87.2349 26.5842C88.4306 27.9114 91.6228 28.645 94.2303 26.6579C96.8377 24.6708 96.0145 22.4588 95.4185 20.6892C94.8226 18.9196 92.3678 12.8071 91.9953 11.9997C91.6228 11.1923 89.8386 10.7462 88.9446 11.4098C88.0506 12.0734 88.4231 12.8845 86.9369 13.2532C85.4506 13.6218 83.6627 13.032 82.8395 14.138C82.6079 14.4569 82.4773 14.8366 82.464 15.2291C82.4507 15.6216 82.5555 16.0091 82.765 16.3426Z" fill="#001550"/>
<path d="M82.7611 16.3382C82.7611 16.3382 86.0353 25.2526 87.231 26.5798C88.4267 27.907 91.6189 28.6406 94.2264 26.6535C96.8338 24.6664 96.0106 22.4544 95.4146 20.6848C94.8186 18.9152 92.3639 12.8027 91.9914 11.9953C91.6189 11.1879 89.8347 10.7419 88.9407 11.4055C88.0467 12.0691 88.4192 12.8801 86.933 13.2488C85.4467 13.6175 83.6588 13.0276 82.8356 14.1336C82.604 14.4525 82.4734 14.8322 82.4601 15.2247C82.4468 15.6172 82.5516 16.0047 82.7611 16.3382V16.3382Z" stroke="#001550" stroke-width="0.8" stroke-linecap="round" stroke-linejoin="round"/>
<path d="M84.1085 19.0677L87.6577 17.7781C87.7977 17.7272 87.9524 17.7335 88.0878 17.7955C88.2232 17.8575 88.3281 17.9702 88.3795 18.1088L88.7646 19.147C88.8172 19.2888 88.8411 19.4395 88.8349 19.5904C88.8286 19.7414 88.7924 19.8896 88.7283 20.0267C88.6642 20.1637 88.5734 20.287 88.4612 20.3893C88.349 20.4917 88.2175 20.5712 88.0742 20.6232L85.6545 21.5025C85.5112 21.5545 85.359 21.5781 85.2065 21.572C85.054 21.5658 84.9042 21.53 84.7657 21.4665C84.6272 21.4031 84.5027 21.3132 84.3993 21.2022C84.2959 21.0911 84.2156 20.9609 84.163 20.8191L83.7778 19.7809C83.7264 19.6423 83.7327 19.4892 83.7954 19.3552C83.8581 19.2212 83.972 19.1173 84.112 19.0664L84.1085 19.0677Z" fill="white" stroke="#001550" stroke-width="0.8" stroke-linecap="round" stroke-linejoin="round"/>
<path d="M89.8663 16.9759L93.4155 15.6863C93.5555 15.6354 93.7102 15.6417 93.8456 15.7037C93.981 15.7657 94.0859 15.8784 94.1373 16.017L94.5225 17.0552C94.6287 17.3416 94.6156 17.658 94.4861 17.9349C94.3567 18.2117 94.1214 18.4263 93.832 18.5314L91.4123 19.4107C91.1229 19.5158 90.8033 19.5029 90.5235 19.3747C90.2438 19.2466 90.027 19.0137 89.9208 18.7273L89.5356 17.6891C89.4842 17.5505 89.4906 17.3974 89.5532 17.2634C89.6159 17.1294 89.7298 17.0255 89.8698 16.9746L89.8663 16.9759Z" fill="white" stroke="#001550" stroke-width="0.8" stroke-linecap="round" stroke-linejoin="round"/>
<path d="M87.5898 17.7984L89.9328 16.9463" stroke="#001550" stroke-width="0.8" stroke-linecap="round" stroke-linejoin="round"/>
<path d="M88.3838 18.1677C88.7306 17.9262 89.1353 17.7786 89.5576 17.7399" stroke="#001550" stroke-width="0.8" stroke-linecap="round" stroke-linejoin="round"/>
<path d="M89.6777 16.173C89.9974 15.7235 90.4411 15.3749 90.9558 15.1688C91.4704 14.9627 92.0342 14.908 92.5794 15.0111" stroke="#001550" stroke-width="0.8" stroke-linecap="round" stroke-linejoin="round"/>
<path d="M87.5332 17.178C87.092 16.8102 86.5273 16.62 85.9511 16.6453C85.3749 16.6706 84.8294 16.9095 84.4229 17.3145" stroke="#001550" stroke-width="0.8" stroke-linecap="round" stroke-linejoin="round"/>
<path d="M88.7568 21.2214C88.7568 21.2214 88.9431 21.9587 89.107 22.0214C89.6769 22.2574 91.5319 21.7928 91.4984 20.967C91.4492 20.6988 91.3575 20.44 91.2265 20.2002" stroke="#001550" stroke-width="0.8" stroke-linecap="round" stroke-linejoin="round"/>
<path d="M89.7334 23.7429C90.1721 23.7704 90.6114 23.6986 91.0179 23.5331C91.4245 23.3676 91.7877 23.1127 92.0801 22.7876" stroke="#001550" stroke-width="0.8" stroke-linecap="round" stroke-linejoin="round"/>
<path d="M77.802 42.387C77.802 42.387 76.7664 53.8599 72.5238 65.3365C68.2811 76.8131 49.3398 92.2787 49.3398 92.2787L52.9605 101.495C52.9605 101.495 66.5192 91.357 72.9372 76.4002C79.3553 61.4433 79.5639 42.6966 79.5639 42.6966L77.802 42.387Z" fill="white"/>
<path opacity="0.1" d="M71.7783 67.0817L74.6018 72.0697C79.3995 58.0604 79.5709 42.6907 79.5709 42.6907L77.809 42.381C77.809 42.381 76.7734 53.8539 72.5308 65.3305C72.311 65.9056 72.0577 66.4918 71.7783 67.0817Z" fill="#001550"/>
<path d="M77.802 42.387C77.802 42.387 76.7664 53.8599 72.5238 65.3365C68.2811 76.8131 49.3398 92.2787 49.3398 92.2787L52.9605 101.495C52.9605 101.495 66.5192 91.357 72.9372 76.4002C79.3553 61.4433 79.5639 42.6966 79.5639 42.6966L77.802 42.387Z" stroke="#001550" stroke-width="0.8" stroke-linecap="round" stroke-linejoin="round"/>
<path d="M60.8156 62.9007C60.8156 62.9007 59.1915 64.4307 59.9663 66.4251C60.7411 68.4196 74.0502 90.477 74.0502 90.477L77.1456 89.7876C77.1456 89.7876 70.9548 69.7173 69.7926 67.2657C68.6305 64.8141 67.703 63.2841 66.9319 62.7458" fill="#001550"/>
<path d="M60.8156 62.9007C60.8156 62.9007 59.1915 64.4307 59.9663 66.4251C60.7411 68.4196 74.0502 90.477 74.0502 90.477L77.1456 89.7876C77.1456 89.7876 70.9548 69.7173 69.7926 67.2657C68.6305 64.8141 67.703 63.2841 66.9319 62.7458" stroke="#001550" stroke-width="0.8" stroke-linecap="round" stroke-linejoin="round"/>
<path d="M74.0617 90.4769C74.0617 90.4769 70.117 93.1572 68.411 93.8466C66.7049 94.536 67.2525 95.3802 68.411 95.3802C69.5694 95.3802 73.9983 94.842 75.8608 94.6134C77.7233 94.3848 78.7253 94.536 78.8035 93.5406C78.8817 92.5452 77.1757 89.559 77.1757 89.559L74.0617 90.4769Z" fill="white" stroke="#001550" stroke-width="0.8" stroke-linecap="round" stroke-linejoin="round"/>
<path d="M81.3584 21.4027C81.3584 21.4027 81.3584 19.4893 81.8054 19.1206C82.2524 18.752 84.4128 17.7197 84.8561 17.9409C85.2994 18.1621 84.9306 18.457 84.6326 18.6782C84.3346 18.8994 82.9378 19.8174 82.9378 19.8174L83.1464 21.9188L81.3584 21.4027Z" fill="white"/>
<path opacity="0.1" d="M81.3604 21.3979C81.3604 21.3979 81.3604 19.4845 81.8073 19.1159C82.2543 18.7472 84.4148 17.7149 84.8581 17.9361C85.3013 18.1573 84.9325 18.4523 84.6346 18.6735C84.3366 18.8947 82.9397 19.8127 82.9397 19.8127L83.1483 21.9141L81.3604 21.3979Z" fill="#001550"/>
<path d="M81.3584 21.4027C81.3584 21.4027 81.3584 19.4893 81.8054 19.1206C82.2524 18.752 84.4128 17.7197 84.8561 17.9409C85.2994 18.1621 84.9306 18.457 84.6326 18.6782C84.3346 18.8994 82.9378 19.8174 82.9378 19.8174L83.1464 21.9188L81.3584 21.4027Z" stroke="#001550" stroke-width="0.8" stroke-linecap="round" stroke-linejoin="round"/>
<path d="M84.7129 23.9731C84.7129 23.9731 85.8304 23.9731 86.0501 23.6818C86.2699 23.3906 87.6146 21.8385 87.6891 21.5436C87.7636 21.2486 87.6891 20.9537 86.8696 21.2486C86.6301 21.3348 86.4126 21.4719 86.2324 21.6502C86.0522 21.8286 85.9137 22.0438 85.8266 22.2809L84.7874 22.3546L84.7129 23.9731Z" fill="white"/>
<path opacity="0.1" d="M84.7148 23.9732C84.7148 23.9732 85.8323 23.9732 86.0521 23.682C86.2719 23.3907 87.6166 21.8386 87.6911 21.5437C87.7656 21.2488 87.6911 20.9538 86.8716 21.2488C86.6321 21.3349 86.4145 21.472 86.2343 21.6503C86.0541 21.8287 85.9156 22.044 85.8286 22.281L84.7893 22.3548L84.7148 23.9732Z" fill="#001550"/>
<path d="M84.7129 23.9731C84.7129 23.9731 85.8304 23.9731 86.0501 23.6818C86.2699 23.3906 87.6146 21.8385 87.6891 21.5436C87.7636 21.2486 87.6891 20.9537 86.8696 21.2486C86.6301 21.3348 86.4126 21.4719 86.2324 21.6502C86.0522 21.8286 85.9137 22.0438 85.8266 22.2809L84.7874 22.3546L84.7129 23.9731Z" stroke="#001550" stroke-width="0.8" stroke-linecap="round" stroke-linejoin="round"/>
<path d="M79.7959 28.4C79.7959 28.4 80.6154 24.2008 80.7644 23.0985C80.9134 21.9962 80.7644 21.4764 81.3604 21.4027C82.358 21.4 83.3543 21.4739 84.3403 21.6239C84.8618 21.6976 85.3833 21.6976 85.2343 22.5087C85.0853 23.3197 85.5323 25.0893 85.0108 25.6018C84.6388 25.9241 84.1641 26.1068 83.6698 26.1179C83.6698 26.1179 83.9678 26.8552 83.0776 27.2976C82.6963 27.504 82.2975 27.6767 81.8856 27.8138L81.4386 28.9898L79.7959 28.4Z" fill="white"/>
<path opacity="0.1" d="M79.7959 28.3935C79.7959 28.3935 80.6154 24.1944 80.7644 23.0921C80.9134 21.9897 80.7644 21.4699 81.3604 21.3962C82.358 21.3935 83.3543 21.4675 84.3403 21.6174C84.8618 21.6911 85.3833 21.6911 85.2343 22.5022C85.0853 23.3133 85.5323 25.0829 85.0108 25.5953C84.6388 25.9177 84.1641 26.1003 83.6698 26.1114C83.6698 26.1114 83.9678 26.8488 83.0776 27.2912C82.6963 27.4976 82.2975 27.6703 81.8856 27.8073L81.4386 28.9834L79.7959 28.3935Z" fill="#001550"/>
<path d="M79.7959 28.4C79.7959 28.4 80.6154 24.2008 80.7644 23.0985C80.9134 21.9962 80.7644 21.4764 81.3604 21.4027C82.358 21.4 83.3543 21.4739 84.3403 21.6239C84.8618 21.6976 85.3833 21.6976 85.2343 22.5087C85.0853 23.3197 85.5323 25.0893 85.0108 25.6018C84.6388 25.9241 84.1641 26.1068 83.6698 26.1179C83.6698 26.1179 83.9678 26.8552 83.0776 27.2976C82.6963 27.504 82.2975 27.6767 81.8856 27.8138L81.4386 28.9898L79.7959 28.4Z" stroke="#001550" stroke-width="0.8" stroke-linecap="round" stroke-linejoin="round"/>
<path d="M83.6668 26.1146L83.5177 24.7136L82.5488 24.5662" stroke="#001550" stroke-width="0.8" stroke-linecap="round" stroke-linejoin="round"/>
<path d="M82.6299 23.2216C82.6299 23.2216 84.6078 23.3211 84.8648 23.4723C85.1219 23.6234 85.1703 25.1239 85.1703 25.1239" stroke="#001550" stroke-width="0.8" stroke-linecap="round" stroke-linejoin="round"/>
<path d="M82.5811 22.2701L85.2258 22.5068" stroke="#001550" stroke-width="0.8" stroke-linecap="round" stroke-linejoin="round"/>
<path d="M96.5405 60.737C91.7428 60.2615 89.5078 59.0707 88.7442 58.1564L88.07 58.9896L88.1482 59.6015C88.1482 59.6015 78.9365 58.2227 71.74 59.067C64.5434 59.9112 60.1927 62.0532 59.8984 64.6597L63.6234 66.3445C69.1176 69.5629 81.3465 70.2523 85.6004 70.5583C89.8543 70.8643 97.9858 70.5583 101.081 70.0975C104.177 69.6367 105.57 68.3353 105.879 65.8062C106.136 63.7196 106.181 60.4863 106.188 59.4209C105.067 60.232 101.793 61.2569 96.5405 60.737Z" fill="#001550" stroke="#001550" stroke-width="0.8" stroke-linecap="round" stroke-linejoin="round"/>
<path d="M72.2841 42.6168C72.2841 42.6168 66.3242 44.5301 64.4617 47.0408L57.1758 34.237C60.7704 33.3261 64.4869 32.9778 68.1904 33.2047C73.9193 33.6471 77.715 37.6287 79.2795 40.2094L72.2841 42.6168Z" fill="white" stroke="#001550" stroke-width="0.8" stroke-linecap="round" stroke-linejoin="round"/>
<path d="M62.8115 35.5018L66.4806 42.16" stroke="#001550" stroke-width="0.8" stroke-linecap="round" stroke-linejoin="round"/>
<path d="M66.3291 34.8914L69.54 40.9449" stroke="#001550" stroke-width="0.8" stroke-linecap="round" stroke-linejoin="round"/>
<path d="M69.8457 34.7427L72.5984 40.0404" stroke="#001550" stroke-width="0.8" stroke-linecap="round" stroke-linejoin="round"/>
<path d="M97.0682 33.6301C97.0682 33.6301 96.2488 35.691 96.3978 36.9481C96.5468 38.2053 96.9937 46.4524 96.9937 46.4524C96.9937 46.4524 90.2218 46.01 87.5399 45.0514C84.8579 44.0929 82.5559 42.9869 82.5559 42.9869L81.96 45.3464C81.96 45.3464 86.7241 49.5455 90.7433 51.1639C94.7625 52.7824 102.499 54.3308 103.408 53.9621C104.317 53.5934 105.122 45.4201 105.047 42.2532C104.973 39.0864 105.122 35.6946 103.632 33.3389" fill="#10B981"/>
<path d="M97.0682 33.6301C97.0682 33.6301 96.2488 35.691 96.3978 36.9481C96.5468 38.2053 96.9937 46.4524 96.9937 46.4524C96.9937 46.4524 90.2218 46.01 87.5399 45.0514C84.8579 44.0929 82.5559 42.9869 82.5559 42.9869L81.96 45.3464C81.96 45.3464 86.7241 49.5455 90.7433 51.1639C94.7625 52.7824 102.499 54.3308 103.408 53.9621C104.317 53.5934 105.122 45.4201 105.047 42.2532C104.973 39.0864 105.122 35.6946 103.632 33.3389" stroke="#001550" stroke-width="0.8" stroke-linecap="round" stroke-linejoin="round"/>
<path d="M84.1989 43.7659L83.584 46.6046" stroke="#001550" stroke-width="0.8" stroke-linecap="round" stroke-linejoin="round"/>
<path d="M96.9824 46.4464C96.9824 46.4464 98.7667 48.581 99.7351 49.1709L96.9824 46.4464Z" fill="white"/>
<path d="M96.9824 46.4464C96.9824 46.4464 98.7667 48.581 99.7351 49.1709" stroke="#001550" stroke-width="0.8" stroke-linecap="round" stroke-linejoin="round"/>
<path d="M82.552 42.9805C81.6758 42.4204 80.8747 41.7528 80.1681 40.9934C79.2033 39.8874 78.6073 39.8874 77.2664 39.8137C75.9254 39.7399 74.5136 38.5639 74.1411 38.6376C73.7686 38.7113 73.6942 39.3749 74.0666 39.7436C74.4391 40.1123 76.3016 41.0708 76.3016 41.0708L72.2861 42.6192C72.4888 42.8473 72.7445 43.0232 73.0311 43.1317C73.5526 43.3529 74.0741 43.1317 74.2976 43.3529C74.5211 43.5741 75.8621 44.0165 76.6778 44.3114C77.4936 44.6063 80.1755 44.1639 80.1755 44.1639L81.9635 45.3437L82.552 42.9805Z" fill="white"/>
<path opacity="0.1" d="M82.5471 42.9805C81.6709 42.4204 80.8698 41.7528 80.1632 40.9934C79.1984 39.8874 78.6024 39.8874 77.2615 39.8137C75.9205 39.7399 74.5088 38.5639 74.1363 38.6376C73.7638 38.7113 73.6893 39.3749 74.0618 39.7436C74.4343 40.1123 76.2967 41.0708 76.2967 41.0708L72.2812 42.6192C72.4839 42.8473 72.7396 43.0232 73.0262 43.1317C73.5477 43.3529 74.0692 43.1317 74.2927 43.3529C74.5162 43.5741 75.8572 44.0165 76.6729 44.3114C77.4887 44.6063 80.1706 44.1639 80.1706 44.1639L81.9586 45.3437L82.5471 42.9805Z" fill="#001550"/>
<path d="M82.552 42.9805C81.6758 42.4204 80.8747 41.7528 80.1681 40.9934C79.2033 39.8874 78.6073 39.8874 77.2664 39.8137C75.9254 39.7399 74.5136 38.5639 74.1411 38.6376C73.7686 38.7113 73.6942 39.3749 74.0666 39.7436C74.4391 40.1123 76.3016 41.0708 76.3016 41.0708L72.2861 42.6192C72.4888 42.8473 72.7445 43.0232 73.0311 43.1317C73.5526 43.3529 74.0741 43.1317 74.2976 43.3529C74.5211 43.5741 75.8621 44.0165 76.6778 44.3114C77.4936 44.6063 80.1755 44.1639 80.1755 44.1639L81.9635 45.3437L82.552 42.9805Z" stroke="#001550" stroke-width="0.8" stroke-linecap="round" stroke-linejoin="round"/>
<path d="M86.8691 19.3178C86.8691 19.5239 86.776 19.6936 86.6584 19.6936C86.5408 19.6936 86.4502 19.5239 86.4502 19.3178C86.4502 19.1116 86.5433 18.9419 86.6584 18.9419C86.7736 18.9419 86.8691 19.1092 86.8691 19.3178Z" fill="#001550" stroke="#001550" stroke-width="0.8" stroke-linecap="round" stroke-linejoin="round"/>
<path d="M91.6396 17.7438C91.6396 17.9499 91.5465 18.1196 91.4289 18.1196C91.3113 18.1196 91.2207 17.9499 91.2207 17.7438C91.2207 17.5377 91.3138 17.3679 91.4289 17.3679C91.5441 17.3679 91.6396 17.5352 91.6396 17.7438Z" fill="#001550" stroke="#001550" stroke-width="0.8" stroke-linecap="round" stroke-linejoin="round"/>
<path d="M78.8389 71.4736C79.5088 72.9922 79.8545 74.6314 79.8545 76.2884C79.8545 77.9454 79.5088 79.5846 78.8389 81.1032H113.201C113.201 81.1032 117.44 80.0636 117.44 76.2663C117.44 76.2663 116.714 72.8856 113.298 71.5547L78.8389 71.4736Z" fill="white" stroke="#001550" stroke-width="0.8" stroke-linecap="round" stroke-linejoin="round"/>
<path opacity="0.25" d="M114.831 72.2773C113.341 71.4736 111.967 71.5584 110.242 71.54H106.994L98.5345 71.5142L82.0927 71.4736C81.8245 71.4736 79.1575 71.6911 79.042 71.4736C79.3376 72.1052 79.5636 72.7665 79.7162 73.446H114.03V80.7972C114.984 80.4552 115.816 79.8435 116.421 79.0381C117.027 78.2326 117.381 77.2689 117.438 76.2663C117.58 74.5962 116.518 73.2912 115.155 72.4543C115.055 72.3953 114.95 72.3326 114.831 72.2773Z" fill="#001550"/>
<path d="M114.04 72.5576V80.1263" stroke="#001550" stroke-width="0.8" stroke-linecap="round" stroke-linejoin="round"/>
<path d="M79.7705 73.8154H85.045" stroke="#001550" stroke-width="0.8" stroke-linecap="round" stroke-linejoin="round"/>
<path d="M79.7666 78.0177H89.6004" stroke="#001550" stroke-width="0.8" stroke-linecap="round" stroke-linejoin="round"/>
<path d="M111.904 82.4202H77.3847C77.2438 82.4286 77.1026 82.4083 76.9698 82.3607C76.837 82.3131 76.7155 82.2391 76.6127 82.1432C76.5099 82.0474 76.428 81.9318 76.372 81.8035C76.316 81.6752 76.2871 81.5369 76.2871 81.3971C76.2871 81.2574 76.316 81.1191 76.372 80.9908C76.428 80.8625 76.5099 80.7468 76.6127 80.651C76.7155 80.5552 76.837 80.4812 76.9698 80.4336C77.1026 80.3859 77.2438 80.3657 77.3847 80.3741H111.904C114.273 80.3741 116.198 78.6045 116.198 76.4293C116.198 74.2542 114.273 72.4846 111.904 72.4846H77.6939C77.4192 72.4846 77.1559 72.3766 76.9617 72.1844C76.7675 71.9922 76.6584 71.7315 76.6584 71.4597C76.6584 71.1879 76.7675 70.9272 76.9617 70.735C77.1559 70.5428 77.4192 70.4348 77.6939 70.4348H111.904C115.412 70.4348 118.269 73.1261 118.269 76.4293C118.269 79.7326 115.412 82.4202 111.904 82.4202Z" fill="#001550"/>
<path d="M115.79 83.3442C115.12 84.8628 114.774 86.502 114.774 88.159C114.774 89.8161 115.12 91.4553 115.79 92.9738H81.4273C81.4273 92.9738 77.1846 91.9489 77.1846 88.159C77.1846 88.159 77.9072 84.7783 81.323 83.4438L115.79 83.3442Z" fill="white" stroke="#001550" stroke-width="0.8" stroke-linecap="round" stroke-linejoin="round"/>
<path opacity="0.25" d="M79.7832 84.1585C81.2732 83.3548 82.6514 83.4211 84.3723 83.4211H87.6205L96.0798 83.3953L112.533 83.3474C112.801 83.3474 115.468 83.5649 115.587 83.3474C115.288 83.9781 115.061 84.6396 114.909 85.3198H80.5953V92.6673C79.6438 92.3289 78.8134 91.7217 78.2069 90.921C77.6005 90.1202 77.2446 89.1611 77.1832 88.1622C77.038 86.4921 78.0996 85.1834 79.4666 84.3465C79.5709 84.2765 79.6789 84.2175 79.7832 84.1585Z" fill="#001550"/>
<path d="M80.4951 84.9648V91.6156" stroke="#001550" stroke-width="0.8" stroke-linecap="round" stroke-linejoin="round"/>
<path d="M114.851 89.9011H105.018" stroke="#001550" stroke-width="0.8" stroke-linecap="round" stroke-linejoin="round"/>
<path d="M80.9062 87.3386H90.6357" stroke="#001550" stroke-width="0.8" stroke-linecap="round" stroke-linejoin="round"/>
<path d="M82.7155 94.3056H117.234C117.509 94.3056 117.772 94.1976 117.967 94.0054C118.161 93.8132 118.27 93.5525 118.27 93.2807C118.27 93.0088 118.161 92.7482 117.967 92.556C117.772 92.3637 117.509 92.2558 117.234 92.2558H82.7155C80.3464 92.2558 78.4207 90.4862 78.4207 88.311C78.4207 86.1359 80.3464 84.3663 82.7155 84.3663H116.925C117.066 84.3747 117.207 84.3544 117.34 84.3068C117.473 84.2592 117.594 84.1852 117.697 84.0894C117.8 83.9935 117.882 83.8779 117.938 83.7496C117.994 83.6213 118.023 83.483 118.023 83.3433C118.023 83.2035 117.994 83.0652 117.938 82.9369C117.882 82.8086 117.8 82.693 117.697 82.5971C117.594 82.5013 117.473 82.4273 117.34 82.3797C117.207 82.3321 117.066 82.3118 116.925 82.3202H82.7155C79.2066 82.3202 76.3496 85.0078 76.3496 88.311C76.3496 91.6143 79.2066 94.3056 82.7155 94.3056Z" fill="#FFC966" stroke="#001550" stroke-width="0.8" stroke-linecap="round" stroke-linejoin="round"/>
<path d="M78.8389 95.2867C79.5088 96.8053 79.8545 98.4445 79.8545 100.102C79.8545 101.759 79.5088 103.398 78.8389 104.916H113.201C113.201 104.916 117.448 103.891 117.448 100.102C117.448 100.102 116.721 96.7209 113.306 95.3863L78.8389 95.2867Z" fill="white" stroke="#001550" stroke-width="0.8" stroke-linecap="round" stroke-linejoin="round"/>
<path opacity="0.25" d="M114.831 96.0978C113.341 95.2941 111.967 95.3605 110.242 95.3605H106.994L98.5349 95.3384L82.082 95.2867C81.8138 95.2867 79.1467 95.5079 79.0312 95.2867C79.3277 95.918 79.5538 96.5794 79.7055 97.2591H114.019V104.607C114.972 104.268 115.804 103.661 116.412 102.859C117.02 102.058 117.377 101.098 117.439 100.098C117.58 98.4278 116.519 97.1227 115.156 96.2821C115.055 96.2158 114.951 96.1752 114.831 96.0978Z" fill="#001550"/>
<path d="M114.04 96.3713V103.944" stroke="#001550" stroke-width="0.8" stroke-linecap="round" stroke-linejoin="round"/>
<path d="M79.7705 97.6384H85.045" stroke="#001550" stroke-width="0.8" stroke-linecap="round" stroke-linejoin="round"/>
<path d="M113.715 99.2748H103.985" stroke="#001550" stroke-width="0.8" stroke-linecap="round" stroke-linejoin="round"/>
<path d="M107.813 101.326H113.922" stroke="#001550" stroke-width="0.8" stroke-linecap="round" stroke-linejoin="round"/>
<path d="M111.904 106.243H77.3851C77.1105 106.243 76.8471 106.135 76.6529 105.943C76.4587 105.751 76.3496 105.49 76.3496 105.218C76.3496 104.947 76.4587 104.686 76.6529 104.494C76.8471 104.301 77.1105 104.194 77.3851 104.194H111.904C114.273 104.194 116.199 102.424 116.199 100.249C116.199 98.0736 114.273 96.3077 111.904 96.3077H77.6943C77.4197 96.3077 77.1563 96.1997 76.9621 96.0075C76.7679 95.8153 76.6588 95.5546 76.6588 95.2828C76.6588 95.011 76.7679 94.7503 76.9621 94.5581C77.1563 94.3659 77.4197 94.2579 77.6943 94.2579H111.904C115.413 94.2579 118.27 96.9455 118.27 100.249C118.27 103.552 115.413 106.243 111.904 106.243Z" fill="#001550"/>
<path d="M115.79 107.164C115.12 108.683 114.774 110.322 114.774 111.979C114.774 113.636 115.12 115.275 115.79 116.794H81.4273C81.4273 116.794 77.1846 115.769 77.1846 111.979C77.1846 111.979 77.9072 108.598 81.323 107.267L115.79 107.164Z" fill="white" stroke="#001550" stroke-width="0.8" stroke-linecap="round" stroke-linejoin="round"/>
<path opacity="0.25" d="M79.7832 107.972C81.2732 107.169 82.6514 107.253 84.3723 107.235H87.6205L96.0798 107.209L112.533 107.161C112.801 107.161 115.468 107.379 115.587 107.161C115.289 107.792 115.062 108.454 114.909 109.134H80.5953V116.489C79.6435 116.149 78.813 115.542 78.2065 114.74C77.6001 113.939 77.2443 112.979 77.1832 111.98C77.038 110.31 78.0996 109.005 79.4666 108.164C79.5709 108.098 79.6789 108.039 79.7832 107.972Z" fill="#001550"/>
<path d="M80.4951 108.785V115.436" stroke="#001550" stroke-width="0.8" stroke-linecap="round" stroke-linejoin="round"/>
<path d="M80.9062 111.161H90.6357" stroke="#001550" stroke-width="0.8" stroke-linecap="round" stroke-linejoin="round"/>
<path d="M86.8071 113.207H80.6982" stroke="#001550" stroke-width="0.8" stroke-linecap="round" stroke-linejoin="round"/>
<path d="M82.7155 118.124H117.234C117.509 118.124 117.772 118.016 117.967 117.823C118.161 117.631 118.27 117.37 118.27 117.099C118.27 116.827 118.161 116.566 117.967 116.374C117.772 116.182 117.509 116.074 117.234 116.074H82.7155C80.3464 116.074 78.4207 114.308 78.4207 112.133C78.4207 109.958 80.3464 108.188 82.7155 108.188H116.925C117.2 108.188 117.463 108.08 117.657 107.888C117.852 107.696 117.961 107.435 117.961 107.163C117.961 106.891 117.852 106.631 117.657 106.438C117.463 106.246 117.2 106.138 116.925 106.138H82.7155C79.2066 106.138 76.3496 108.826 76.3496 112.133C76.3496 115.44 79.2066 118.124 82.7155 118.124Z" fill="#FFC966" stroke="#001550" stroke-width="0.8" stroke-linecap="round" stroke-linejoin="round"/>
</svg>
