<svg width="170" height="120" fill="none" xmlns="http://www.w3.org/2000/svg"><path opacity=".85" d="M100.187 1.358s-16.98-5.189-31.818 5.824C53.53 18.195 52.242 34.88 46.593 48.208c-2.958 6.98-9.604 11.717-13.975 17.904-13.99 19.786.182 46.514 19.141 51.279 16.41 4.141 32.674-1.092 50.598-15.84 17.923-14.748 31.064-24.516 36.036-48.711 4.972-24.195-16.772-43.817-38.206-51.482Z" fill="#E3EDFF"/><path d="m72.63 110.952-.621.921.93.616-.618 1.025.827.715-1.553 1.025.827.513-.205.719.827.409-.827 1.227h-25.36l-.517-1.227.622-.719-.931-.513 1.449-.409-.931-.616 1.031-.409-1.344-.512 3.416-1.025-3.83-.612 1.24-9.324 25.174 4.284.394 3.912Z" fill="#fff" stroke="#001550" stroke-width=".8" stroke-miterlimit="10" stroke-linecap="round"/><path d="M44.96 112.026s15.348.675 27.666-1.065l-.395-5.939-25.896-2.448-1.374 9.452Z" fill="#fff"/><path d="M44.96 112.026s15.348.675 27.666-1.065l-.395-5.939-25.896-2.448-1.374 9.452Z" stroke="#001550" stroke-width=".8" stroke-miterlimit="10" stroke-linecap="round"/><path d="m51.04 104.216-.463 4.84M54.858 104.52l-.153 4.995M58.677 104.972l-.153 4.844M62.194 106.029v3.937M66.33 106.943l.152 3.027M70 107.544l.153 2.422" stroke="#001550" stroke-width=".8" stroke-linecap="round" stroke-linejoin="round"/><path d="M72.741 100.675s-20.42 8.922-27.77 11.344l1.375-9.464 20.599-8.435 5.796 6.555Z" fill="#fff"/><path d="M72.741 100.675s-20.42 8.922-27.77 11.344l1.375-9.464 20.599-8.435 5.796 6.555Z" stroke="#001550" stroke-width=".8" stroke-linecap="round" stroke-linejoin="round"/><path d="m52.96 101.494 19.772-.818-3.933-8.502-19.46.103 3.622 9.217Z" fill="#fff"/><path d="m52.96 101.494 19.772-.818-3.933-8.502-19.46.103 3.622 9.217ZM54.554 93.621l1.837 6.054M58.066 93.315l1.838 6.36M61.588 93.166l1.68 6.057M65.26 93.166l1.837 5.906" stroke="#001550" stroke-width=".8" stroke-linecap="round" stroke-linejoin="round"/><path d="m73.6 68.362 5.922 20.424-2.37.775-10.801-23.182s4.097-1.324 7.248 1.983Z" fill="#001550" stroke="#001550" stroke-width=".8" stroke-linecap="round" stroke-linejoin="round"/><path d="M79.53 88.8s1.53 2.55 1.53 3.403c0 .851-2.771.755-4.011.943-1.24.188-3.934 1.973-5.052 1.5 0 0-.666-.368 0-1.135.667-.767 3.766-2.234 5.178-3.952l2.354-.76Z" fill="#fff" stroke="#001550" stroke-width=".8" stroke-linecap="round" stroke-linejoin="round"/><path d="M98.957 14.277c0 .37-.432.716-.47 1.08-.036.366.314.793.235 1.15-.078.358-.57.613-.685.96-.115.346.138.84 0 1.175-.138.336-.69.48-.872.797-.182.317-.044.848-.26 1.146-.216.299-.775.325-1.025.598-.25.272-.22.822-.495 1.069-.276.247-.823.158-1.118.368-.294.21-.372.76-.707.944-.336.184-.838 0-1.177.137-.34.136-.537.663-.89.777-.355.115-.82-.188-1.185-.114-.365.074-.663.538-1.036.579-.372.04-.745-.369-1.117-.369-.373 0-.767.391-1.118.369-.35-.022-.678-.501-1.035-.579-.358-.077-.835.225-1.185.11-.35-.114-.551-.626-.89-.773-.339-.148-.86.044-1.18-.137-.321-.18-.407-.737-.709-.944-.301-.206-.849-.132-1.117-.368s-.246-.797-.492-1.07c-.246-.272-.804-.302-1.024-.597-.22-.295-.075-.83-.26-1.146-.187-.317-.723-.461-.872-.797-.15-.335.1-.825 0-1.176-.101-.35-.611-.597-.686-.958-.074-.361.272-.782.235-1.15-.037-.37-.47-.708-.47-1.08 0-.373.433-.738.47-1.08.037-.344-.313-.797-.235-1.155.078-.357.57-.608.686-.958.115-.35-.138-.84 0-1.173.137-.331.689-.479.871-.796.183-.317.045-.852.261-1.146.216-.295.775-.325 1.024-.598.25-.273.22-.822.496-1.069.275-.247.823-.158 1.117-.369.294-.21.373-.759.708-.943.335-.185.838 0 1.177-.137.339-.136.536-.663.89-.778.354-.114.82.188 1.185.111.365-.077.663-.538 1.035-.575.373-.037.745.369 1.118.369.372 0 .767-.391 1.117-.37.35.023.678.502 1.036.576.357.074.834-.221 1.184-.11.35.11.552.63.89.777.34.148.861-.048 1.181.137.32.184.406.737.708.943.302.207.85.13 1.118.37.268.239.245.795.491 1.068s.805.299 1.025.598c.22.298.074.829.26 1.146.187.317.723.457.872.796.149.34-.1.822 0 1.176s.61.594.685.959c.075.365-.271.781-.234 1.15.037.369.47.708.47 1.08Z" fill="#001550"/><path d="M79.79 28.398s-3.725 8.177-5.587 12.598c-1.863 4.42-.459 8.199.745 8.619 1.262.442 10.403-2.776 12.575-3.61 2.064-.792 2.086-.737 2.086-.737s.149 6.85.149 7.661c0 .811-1.49 3.757-1.341 4.642.149.885 2.16 2.58 8.113 3.167 5.952.586 9.379-.811 9.971-1.622.593-.812.596-1.844.596-3.462 0-1.619-.819-10.828-2.007-18.065-1.189-7.237-4.318-10.323-5.808-11.123-1.49-.8-4.019.295-6.548 1.987-2.53 1.693-3.945 5.01-4.317 5.9-.373.888-7.517 6.775-8.038 7.291-.522.517 1.042-12.67 1.042-12.67l-1.631-.576Z" fill="#10B981" stroke="#001550" stroke-width=".8" stroke-linecap="round" stroke-linejoin="round"/><path d="m79.175 29.781 2.049.712" stroke="#001550" stroke-width=".8" stroke-linecap="round" stroke-linejoin="round"/><path d="M80.392 41.659a24.99 24.99 0 0 1-.596 3.535l.596-3.535Z" fill="#fff"/><path d="M80.392 41.659a24.99 24.99 0 0 1-.596 3.535M89.615 45.265l-.894-6.116" stroke="#001550" stroke-width=".8" stroke-linecap="round" stroke-linejoin="round"/><path d="M91.183 28.769s-2.157 5.161-1.71 5.161c.447 0 1.416-1.622 1.416-1.622l1.262 2.507s.224-5.899.075-6.116c-.15-.218-.745-.726-1.043.07Z" fill="#fff" stroke="#001550" stroke-width=".8" stroke-linecap="round" stroke-linejoin="round"/><path d="M88.943 26.337s2.306 3.167 2.53 4.055c.223.889.447 5.162.67 4.424.224-.737 4.54-8.25 4.615-8.619.075-.369-1.266-2.724-1.266-2.724s-2.98 2.134-4.388 2.503a9.638 9.638 0 0 1-2.16.361Z" fill="#fff"/><path opacity=".1" d="M88.945 26.338s2.306 3.167 2.53 4.055c.223.889.447 5.161.67 4.424.224-.737 4.54-8.25 4.615-8.62.075-.368-1.266-2.724-1.266-2.724s-2.98 2.135-4.388 2.504a9.64 9.64 0 0 1-2.16.36Z" fill="#001550"/><path d="M88.943 26.337s2.306 3.167 2.53 4.055c.223.889.447 5.162.67 4.424.224-.737 4.54-8.25 4.615-8.619.075-.369-1.266-2.724-1.266-2.724s-2.98 2.134-4.388 2.503a9.638 9.638 0 0 1-2.16.361v0Z" stroke="#001550" stroke-width=".8" stroke-linecap="round" stroke-linejoin="round"/><path d="m92.518 31.414-.373 3.392 1.79-2.36-1.417-1.032Z" fill="#fff" stroke="#001550" stroke-width=".8" stroke-linecap="round" stroke-linejoin="round"/><path d="m92.519 31.416 1.49 2.138 5.21-7.292-2.01-1.696-4.69 6.85Z" fill="#fff" stroke="#001550" stroke-width=".8" stroke-linecap="round" stroke-linejoin="round"/><path d="M94.376 17.964s.373-1.913 1.189-1.766c.816.148.745 1.619.298 2.651-.17.43-.368.848-.596 1.25l-.891-2.135Z" fill="#fff"/><path opacity=".1" d="M94.374 17.96s.373-1.913 1.189-1.766c.816.148.745 1.619.298 2.651-.17.43-.368.848-.596 1.25l-.891-2.135Z" fill="#001550"/><path d="M94.376 17.964s.373-1.913 1.189-1.766c.816.148.745 1.619.298 2.651-.17.43-.368.848-.596 1.25l-.891-2.135Z" stroke="#001550" stroke-width=".8" stroke-linecap="round" stroke-linejoin="round"/><path d="M84.47 20.837s-1.189-1.106-1.412.442c-.224 1.549 2.306 1.844 2.306 1.844l-.894-2.286Z" fill="#fff"/><path opacity=".1" d="M84.465 20.835s-1.189-1.105-1.412.443c-.223 1.548 2.306 1.843 2.306 1.843l-.894-2.285Z" fill="#001550"/><path d="M84.47 20.837s-1.189-1.106-1.412.442c-.224 1.549 2.306 1.844 2.306 1.844l-.894-2.286Z" stroke="#001550" stroke-width=".8" stroke-linecap="round" stroke-linejoin="round"/><path d="M82.761 16.338s3.274 8.915 4.47 10.242c1.196 1.327 4.388 2.06 6.995.074 2.608-1.988 1.785-4.2 1.189-5.97-.596-1.769-3.051-7.881-3.424-8.689-.372-.807-2.156-1.253-3.05-.59-.894.664-.522 1.475-2.008 1.844-1.486.368-3.274-.221-4.097.885a1.97 1.97 0 0 0-.075 2.204Z" fill="#fff"/><path opacity=".1" d="M82.765 16.343s3.274 8.914 4.47 10.241c1.196 1.327 4.388 2.061 6.995.074 2.608-1.987 1.784-4.2 1.188-5.969-.595-1.77-3.05-7.882-3.423-8.69-.372-.807-2.156-1.253-3.05-.59-.894.664-.522 1.475-2.008 1.844s-3.274-.221-4.097.885a1.97 1.97 0 0 0-.075 2.205Z" fill="#001550"/><path d="M82.761 16.338s3.274 8.915 4.47 10.242c1.196 1.327 4.388 2.06 6.995.074 2.608-1.988 1.785-4.2 1.189-5.97-.596-1.769-3.051-7.881-3.424-8.689-.372-.807-2.156-1.253-3.05-.59-.894.664-.522 1.475-2.008 1.844-1.486.368-3.274-.221-4.097.885a1.97 1.97 0 0 0-.075 2.204v0Z" stroke="#001550" stroke-width=".8" stroke-linecap="round" stroke-linejoin="round"/><path d="m84.109 19.068 3.549-1.29a.568.568 0 0 1 .721.33l.386 1.039a1.14 1.14 0 0 1-.304 1.242 1.162 1.162 0 0 1-.387.234l-2.42.88a1.176 1.176 0 0 1-1.255-.3 1.149 1.149 0 0 1-.236-.384l-.385-1.038a.551.551 0 0 1 .334-.715l-.003.002ZM89.866 16.976l3.55-1.29a.568.568 0 0 1 .721.331l.385 1.038a1.14 1.14 0 0 1-.036.88c-.13.277-.365.491-.654.596l-2.42.88c-.29.105-.609.092-.889-.036a1.154 1.154 0 0 1-.602-.648l-.385-1.038a.552.552 0 0 1 .334-.714h-.004Z" fill="#fff" stroke="#001550" stroke-width=".8" stroke-linecap="round" stroke-linejoin="round"/><path d="m87.59 17.798 2.343-.852M88.384 18.168c.347-.242.751-.39 1.174-.428M89.678 16.173c.32-.45.763-.798 1.278-1.004a2.913 2.913 0 0 1 1.623-.158M87.533 17.178a2.313 2.313 0 0 0-3.11.136M88.757 21.221s.186.738.35.8c.57.236 2.425-.228 2.391-1.054a2.564 2.564 0 0 0-.272-.767M89.733 23.743a2.922 2.922 0 0 0 2.347-.955" stroke="#001550" stroke-width=".8" stroke-linecap="round" stroke-linejoin="round"/><path d="M77.802 42.387s-1.036 11.473-5.278 22.95C68.28 76.813 49.34 92.279 49.34 92.279l3.62 9.216S66.52 91.357 72.938 76.4c6.418-14.957 6.627-33.703 6.627-33.703l-1.762-.31Z" fill="#fff"/><path opacity=".1" d="m71.778 67.082 2.824 4.988c4.797-14.01 4.969-29.38 4.969-29.38l-1.762-.309s-1.036 11.473-5.278 22.95a24.76 24.76 0 0 1-.753 1.75Z" fill="#001550"/><path d="M77.802 42.387s-1.036 11.473-5.278 22.95C68.28 76.813 49.34 92.279 49.34 92.279l3.62 9.216S66.52 91.357 72.938 76.4c6.418-14.957 6.627-33.703 6.627-33.703l-1.762-.31Z" stroke="#001550" stroke-width=".8" stroke-linecap="round" stroke-linejoin="round"/><path d="M60.816 62.9s-1.625 1.53-.85 3.525c.775 1.995 14.084 24.052 14.084 24.052l3.096-.69s-6.191-20.07-7.353-22.521c-1.163-2.452-2.09-3.982-2.861-4.52" fill="#001550"/><path d="M60.816 62.9s-1.625 1.53-.85 3.525c.775 1.995 14.084 24.052 14.084 24.052l3.096-.69s-6.191-20.07-7.353-22.521c-1.163-2.452-2.09-3.982-2.861-4.52" stroke="#001550" stroke-width=".8" stroke-linecap="round" stroke-linejoin="round"/><path d="M74.062 90.477s-3.945 2.68-5.651 3.37c-1.706.689-1.159 1.533 0 1.533 1.158 0 5.587-.538 7.45-.767 1.862-.228 2.864-.077 2.942-1.072.079-.996-1.627-3.982-1.627-3.982l-3.114.918Z" fill="#fff" stroke="#001550" stroke-width=".8" stroke-linecap="round" stroke-linejoin="round"/><path d="M81.358 21.403s0-1.914.447-2.282c.447-.369 2.608-1.401 3.051-1.18.443.221.075.516-.223.737-.298.221-1.695 1.14-1.695 1.14l.208 2.1-1.788-.515Z" fill="#fff"/><path opacity=".1" d="M81.36 21.398s0-1.913.447-2.282 2.608-1.401 3.051-1.18c.443.221.075.516-.223.738-.298.22-1.695 1.139-1.695 1.139l.208 2.101-1.788-.516Z" fill="#001550"/><path d="M81.358 21.403s0-1.914.447-2.282c.447-.369 2.608-1.401 3.051-1.18.443.221.075.516-.223.737-.298.221-1.695 1.14-1.695 1.14l.208 2.1-1.788-.515Z" stroke="#001550" stroke-width=".8" stroke-linecap="round" stroke-linejoin="round"/><path d="M84.713 23.973s1.117 0 1.337-.291c.22-.291 1.565-1.843 1.64-2.138.074-.295 0-.59-.82-.295a1.747 1.747 0 0 0-1.043 1.032l-1.04.074-.074 1.618Z" fill="#fff"/><path opacity=".1" d="M84.715 23.973s1.117 0 1.337-.291c.22-.291 1.565-1.843 1.64-2.138.074-.295 0-.59-.82-.295a1.746 1.746 0 0 0-1.043 1.032l-1.04.074-.074 1.618Z" fill="#001550"/><path d="M84.713 23.973s1.117 0 1.337-.291c.22-.291 1.565-1.843 1.64-2.138.074-.295 0-.59-.82-.295a1.747 1.747 0 0 0-1.043 1.032l-1.04.074-.074 1.618Z" stroke="#001550" stroke-width=".8" stroke-linecap="round" stroke-linejoin="round"/><path d="M79.796 28.4s.82-4.2.968-5.301c.15-1.103 0-1.623.596-1.696.998-.003 1.994.07 2.98.22.522.075 1.043.075.894.886-.149.81.298 2.58-.223 3.093a2.121 2.121 0 0 1-1.341.516s.298.737-.592 1.18c-.382.206-.78.379-1.192.516l-.447 1.176-1.643-.59Z" fill="#fff"/><path opacity=".1" d="M79.796 28.393s.82-4.199.968-5.3c.15-1.103 0-1.623.596-1.697.998-.003 1.994.072 2.98.221.522.074 1.043.074.894.885-.149.811.298 2.58-.223 3.093a2.12 2.12 0 0 1-1.341.516s.298.738-.592 1.18a7.43 7.43 0 0 1-1.192.516l-.447 1.176-1.643-.59Z" fill="#001550"/><path d="M79.796 28.4s.82-4.2.968-5.301c.15-1.103 0-1.623.596-1.696.998-.003 1.994.07 2.98.22.522.075 1.043.075.894.886-.149.81.298 2.58-.223 3.093a2.121 2.121 0 0 1-1.341.516s.298.737-.592 1.18c-.382.206-.78.379-1.192.516l-.447 1.176-1.643-.59Z" stroke="#001550" stroke-width=".8" stroke-linecap="round" stroke-linejoin="round"/><path d="m83.667 26.115-.15-1.401-.968-.148M82.63 23.222s1.978.1 2.235.25c.257.151.305 1.652.305 1.652M82.581 22.27l2.645.237" stroke="#001550" stroke-width=".8" stroke-linecap="round" stroke-linejoin="round"/><path d="M96.54 60.737c-4.797-.476-7.032-1.666-7.796-2.58l-.674.833.078.611s-9.212-1.378-16.408-.534c-7.197.844-11.547 2.986-11.842 5.593l3.725 1.684c5.495 3.219 17.724 3.908 21.977 4.214 4.254.306 12.386 0 15.481-.46 3.096-.461 4.489-1.763 4.798-4.292.257-2.086.302-5.32.309-6.385-1.121.811-4.395 1.836-9.648 1.316Z" fill="#001550" stroke="#001550" stroke-width=".8" stroke-linecap="round" stroke-linejoin="round"/><path d="M72.284 42.617s-5.96 1.913-7.822 4.424l-7.286-12.804a35.906 35.906 0 0 1 11.014-1.032c5.73.442 9.525 4.424 11.09 7.004l-6.996 2.408Z" fill="#fff" stroke="#001550" stroke-width=".8" stroke-linecap="round" stroke-linejoin="round"/><path d="m62.812 35.502 3.669 6.658M66.33 34.891l3.21 6.054M69.846 34.743l2.752 5.297" stroke="#001550" stroke-width=".8" stroke-linecap="round" stroke-linejoin="round"/><path d="M97.068 33.63s-.82 2.061-.67 3.318c.149 1.257.596 9.504.596 9.504s-6.772-.442-9.454-1.4c-2.682-.96-4.984-2.065-4.984-2.065l-.596 2.36s4.764 4.198 8.783 5.817c4.02 1.618 11.756 3.167 12.665 2.798.909-.369 1.714-8.542 1.639-11.709-.074-3.167.075-6.558-1.415-8.914" fill="#10B981"/><path d="M97.068 33.63s-.82 2.061-.67 3.318c.149 1.257.596 9.504.596 9.504s-6.772-.442-9.454-1.4c-2.682-.96-4.984-2.065-4.984-2.065l-.596 2.36s4.764 4.198 8.783 5.817c4.02 1.618 11.756 3.167 12.665 2.798.909-.369 1.714-8.542 1.639-11.709-.074-3.167.075-6.558-1.415-8.914M84.199 43.766l-.615 2.839" stroke="#001550" stroke-width=".8" stroke-linecap="round" stroke-linejoin="round"/><path d="M96.982 46.446s1.785 2.135 2.753 2.725l-2.753-2.725Z" fill="#fff"/><path d="M96.982 46.446s1.785 2.135 2.753 2.725" stroke="#001550" stroke-width=".8" stroke-linecap="round" stroke-linejoin="round"/><path d="M82.552 42.98a12.318 12.318 0 0 1-2.384-1.987c-.965-1.106-1.56-1.106-2.902-1.18-1.34-.073-2.752-1.25-3.125-1.175-.372.073-.447.737-.074 1.106.372.368 2.235 1.327 2.235 1.327l-4.016 1.548c.203.228.459.404.745.513.522.22 1.043 0 1.267.22.223.222 1.564.665 2.38.96.816.294 3.498-.148 3.498-.148l1.787 1.18.589-2.364Z" fill="#fff"/><path opacity=".1" d="M82.547 42.98a12.318 12.318 0 0 1-2.384-1.987c-.965-1.106-1.56-1.106-2.901-1.18-1.341-.073-2.753-1.25-3.126-1.175-.372.073-.447.737-.074 1.106.372.368 2.235 1.327 2.235 1.327l-4.016 1.548c.203.228.459.404.745.513.522.22 1.043 0 1.267.22.223.222 1.564.665 2.38.96.816.294 3.498-.148 3.498-.148l1.788 1.18.588-2.364Z" fill="#001550"/><path d="M82.552 42.98a12.318 12.318 0 0 1-2.384-1.987c-.965-1.106-1.56-1.106-2.902-1.18-1.34-.073-2.752-1.25-3.125-1.175-.372.073-.447.737-.074 1.106.372.368 2.235 1.327 2.235 1.327l-4.016 1.548c.203.228.459.404.745.513.522.22 1.043 0 1.267.22.223.222 1.564.665 2.38.96.816.294 3.498-.148 3.498-.148l1.787 1.18.589-2.364Z" stroke="#001550" stroke-width=".8" stroke-linecap="round" stroke-linejoin="round"/><path d="M86.87 19.318c0 .206-.094.376-.212.376-.117 0-.208-.17-.208-.376s.093-.376.208-.376c.116 0 .211.167.211.376ZM91.64 17.744c0 .206-.094.376-.211.376-.118 0-.208-.17-.208-.376s.093-.376.208-.376c.115 0 .21.167.21.376Z" fill="#001550" stroke="#001550" stroke-width=".8" stroke-linecap="round" stroke-linejoin="round"/><path d="M78.839 71.474a11.928 11.928 0 0 1 0 9.63H113.2s4.239-1.04 4.239-4.838c0 0-.726-3.38-4.142-4.711l-34.46-.081Z" fill="#fff" stroke="#001550" stroke-width=".8" stroke-linecap="round" stroke-linejoin="round"/><path opacity=".25" d="M114.831 72.277c-1.49-.803-2.864-.719-4.589-.737h-3.248l-8.46-.026-16.441-.04c-.269 0-2.936.217-3.051 0 .296.631.522 1.292.674 1.972h34.314v7.351a5.172 5.172 0 0 0 2.391-1.759 5.09 5.09 0 0 0 1.017-2.772c.142-1.67-.92-2.975-2.283-3.812-.1-.059-.205-.121-.324-.177Z" fill="#001550"/><path d="M114.04 72.558v7.568M79.77 73.815h5.275M79.767 78.018H89.6" stroke="#001550" stroke-width=".8" stroke-linecap="round" stroke-linejoin="round"/><path d="M111.904 82.42h-34.52a1.046 1.046 0 0 1-.771-.277 1.025 1.025 0 0 1-.326-.746 1.016 1.016 0 0 1 .326-.746 1.037 1.037 0 0 1 .772-.277h34.519c2.369 0 4.294-1.77 4.294-3.945s-1.925-3.944-4.294-3.944h-34.21a1.04 1.04 0 0 1-.732-.3 1.02 1.02 0 0 1 0-1.45c.194-.192.457-.3.732-.3h34.21c3.508 0 6.365 2.691 6.365 5.994 0 3.304-2.857 5.991-6.365 5.991Z" fill="#001550"/><path d="M115.79 83.344a11.926 11.926 0 0 0 0 9.63H81.427s-4.242-1.025-4.242-4.815c0 0 .722-3.38 4.138-4.715l34.467-.1Z" fill="#fff" stroke="#001550" stroke-width=".8" stroke-linecap="round" stroke-linejoin="round"/><path opacity=".25" d="M79.783 84.159c1.49-.804 2.868-.738 4.59-.738h3.248l8.459-.026 16.453-.048c.268 0 2.935.218 3.054 0a9.378 9.378 0 0 0-.678 1.973H80.595v7.347a5.167 5.167 0 0 1-2.388-1.746 5.086 5.086 0 0 1-1.024-2.759c-.145-1.67.917-2.979 2.284-3.816.104-.07.212-.129.316-.188Z" fill="#001550"/><path d="M80.495 84.965v6.65M114.851 89.901h-9.833M80.906 87.339h9.73" stroke="#001550" stroke-width=".8" stroke-linecap="round" stroke-linejoin="round"/><path d="M82.716 94.306h34.518c.275 0 .538-.108.733-.3a1.02 1.02 0 0 0 0-1.45 1.043 1.043 0 0 0-.733-.3H82.716c-2.37 0-4.295-1.77-4.295-3.945s1.925-3.945 4.294-3.945h34.21a1.046 1.046 0 0 0 .772-.277 1.024 1.024 0 0 0 .326-.746 1.016 1.016 0 0 0-.326-.746 1.036 1.036 0 0 0-.772-.277h-34.21c-3.508 0-6.365 2.688-6.365 5.991 0 3.303 2.857 5.995 6.366 5.995Z" fill="#FFC966" stroke="#001550" stroke-width=".8" stroke-linecap="round" stroke-linejoin="round"/><path d="M78.839 95.287a11.928 11.928 0 0 1 0 9.629H113.2s4.247-1.025 4.247-4.814c0 0-.727-3.381-4.142-4.716l-34.467-.1Z" fill="#fff" stroke="#001550" stroke-width=".8" stroke-linecap="round" stroke-linejoin="round"/><path opacity=".25" d="M114.831 96.098c-1.49-.804-2.864-.737-4.589-.737h-3.248l-8.46-.023-16.452-.051c-.268 0-2.935.22-3.05 0 .296.631.522 1.292.674 1.972h34.313v7.348a5.178 5.178 0 0 0 2.393-1.748 5.087 5.087 0 0 0 1.027-2.761c.141-1.67-.92-2.975-2.283-3.816-.101-.066-.205-.107-.325-.184Z" fill="#001550"/><path d="M114.04 96.371v7.573M79.77 97.638h5.275M113.715 99.275h-9.73M107.813 101.326h6.109" stroke="#001550" stroke-width=".8" stroke-linecap="round" stroke-linejoin="round"/><path d="M111.904 106.243H77.385c-.275 0-.538-.108-.732-.3a1.02 1.02 0 0 1 0-1.449c.194-.193.457-.3.732-.3h34.519c2.369 0 4.295-1.77 4.295-3.945s-1.926-3.941-4.295-3.941h-34.21c-.274 0-.538-.108-.732-.3a1.02 1.02 0 0 1 0-1.45c.194-.192.458-.3.732-.3h34.21c3.509 0 6.366 2.688 6.366 5.991 0 3.303-2.857 5.994-6.366 5.994Z" fill="#001550"/><path d="M115.79 107.164a11.929 11.929 0 0 0 0 9.63H81.427s-4.242-1.025-4.242-4.815c0 0 .722-3.381 4.138-4.712l34.467-.103Z" fill="#fff" stroke="#001550" stroke-width=".8" stroke-linecap="round" stroke-linejoin="round"/><path opacity=".25" d="M79.783 107.972c1.49-.803 2.868-.719 4.59-.737h3.248l8.459-.026 16.453-.048c.268 0 2.935.218 3.054 0a9.508 9.508 0 0 0-.678 1.973H80.595v7.355a5.174 5.174 0 0 1-2.388-1.749 5.087 5.087 0 0 1-1.024-2.76c-.145-1.67.917-2.975 2.284-3.816.104-.066.212-.125.316-.192Z" fill="#001550"/><path d="M80.495 108.785v6.651M80.906 111.161h9.73M86.807 113.207h-6.109" stroke="#001550" stroke-width=".8" stroke-linecap="round" stroke-linejoin="round"/><path d="M82.716 118.124h34.518c.275 0 .538-.108.733-.301a1.02 1.02 0 0 0 0-1.449 1.044 1.044 0 0 0-.733-.3H82.716c-2.37 0-4.295-1.766-4.295-3.941s1.925-3.945 4.294-3.945h34.21c.275 0 .538-.108.732-.3a1.017 1.017 0 0 0 0-1.45 1.04 1.04 0 0 0-.732-.3h-34.21c-3.508 0-6.365 2.688-6.365 5.995s2.857 5.991 6.366 5.991Z" fill="#FFC966" stroke="#001550" stroke-width=".8" stroke-linecap="round" stroke-linejoin="round"/></svg>