<svg width="170" height="120" viewBox="0 0 170 120" fill="none" xmlns="http://www.w3.org/2000/svg">
<path opacity="0.7" d="M106.005 7.39031C106.005 7.39031 85.3147 -0.133829 65.1338 11.5164C44.9529 23.1666 34.848 46.5064 26.1833 65.1919C17.5186 83.8774 22.6906 102.973 38.2146 111.761C53.7385 120.549 64.1772 107.803 85.8771 107.315C107.577 106.826 113.43 109.982 131.361 97.7405C149.292 85.499 152.367 56.3143 138.026 34.6223C123.684 12.9303 106.005 7.39031 106.005 7.39031Z" fill="#FFF8EB"/>
<path d="M50 114.871H138.232" stroke="#001550" stroke-width="0.7" stroke-linecap="round" stroke-linejoin="round"/>
<path d="M88.659 37.3995C88.659 37.3995 93.6683 38.3666 94.1953 39.7738C94.7223 41.1809 95.6894 47.5947 95.8659 48.1244C96.0425 48.6541 97.6235 48.2113 98.3271 49.0018C99.0307 49.7924 102.109 53.3972 102.109 53.3972C102.109 53.3972 101.755 51.6396 102.019 48.5618C102.282 45.4839 103.603 37.7499 103.603 35.9054C103.603 34.0609 103.69 31.07 103.69 31.07C103.69 31.07 104.57 23.4229 104.744 22.5428C104.917 21.6626 107.58 22.3309 109.69 23.298C111.801 24.2651 111.337 25.7945 110.986 27.5548C110.636 29.3151 108.699 32.0371 108.699 32.0371C108.699 32.0371 110.019 41.0016 110.283 43.202C110.546 45.4024 111.426 51.5527 111.16 54.1008C110.894 56.6489 108.261 61.9244 107.732 62.7937C107.202 63.663 105.097 65.3445 103.953 64.9044C102.809 64.4644 94.6354 60.4222 93.8448 60.1586C93.0543 59.8951 91.3837 51.9819 90.6801 49.8738C89.9765 47.7658 86.1082 39.149 86.1082 37.9211C86.1082 36.6932 88.0315 37.5734 88.0315 37.5734L88.659 37.3995Z" fill="white" stroke="#001550" stroke-width="0.7" stroke-linecap="round" stroke-linejoin="round"/>
<path d="M101.926 50.3818C101.89 51.3905 101.951 52.4002 102.108 53.3972C102.108 53.3972 99.0306 49.7978 98.327 49.0018C97.6234 48.2059 96.0424 48.6514 95.8658 48.1244C95.6893 47.5974 94.7222 41.1782 94.1952 39.7738C93.6682 38.3693 88.6589 37.3995 88.6589 37.3995L88.0313 37.5734C88.0313 37.5734 86.0972 36.6932 86.0972 37.9238C86.0972 39.1544 89.9655 47.7685 90.6691 49.8766C91.3727 51.9846 93.0433 59.8979 93.8339 60.1614C94.6244 60.4249 102.798 64.4671 103.942 64.9071C105.086 65.3472 107.202 63.6766 107.721 62.7964C108.24 61.9162 110.886 56.6435 111.149 54.1035C111.194 53.6177 111.21 53.1296 111.195 52.642C105.979 53.0033 103.271 51.6043 101.926 50.3818Z" fill="#FFBD14" stroke="#001550" stroke-width="0.7" stroke-linecap="round" stroke-linejoin="round"/>
<path d="M104.57 20.4347C104.57 20.4347 104.298 23.7734 104.48 24.3004C104.662 24.8274 109.579 27.9921 109.93 27.6417C110.28 27.2913 111.6 24.1265 111.426 23.7734C111.253 23.4202 107.031 21.3122 106.591 20.9617C106.151 20.6113 105.271 20.4347 104.57 20.4347Z" fill="white" stroke="#001550" stroke-width="0.7" stroke-linecap="round" stroke-linejoin="round"/>
<path d="M106.591 20.9618L105.887 25.2675" stroke="#001550" stroke-width="0.7" stroke-linecap="round" stroke-linejoin="round"/>
<path d="M108.699 22.2793L107.468 26.5877" stroke="#001550" stroke-width="0.7" stroke-linecap="round" stroke-linejoin="round"/>
<path d="M110.546 23.3333L109.139 27.3782" stroke="#001550" stroke-width="0.7" stroke-linecap="round" stroke-linejoin="round"/>
<path d="M104.393 31.8686C104.393 31.8686 101.315 29.3205 101.315 28.1769C101.315 27.0332 101.142 22.9041 101.587 22.4721C102.033 22.0402 107.835 21.9451 107.39 22.9122C106.944 23.8793 104.488 24.3167 104.488 24.3167C104.488 24.3167 107.917 26.3405 106.776 29.6791" fill="white"/>
<path d="M104.393 31.8686C104.393 31.8686 101.315 29.3205 101.315 28.1769C101.315 27.0332 101.142 22.9041 101.587 22.4721C102.033 22.0402 107.835 21.9451 107.39 22.9122C106.944 23.8793 104.488 24.3167 104.488 24.3167C104.488 24.3167 107.917 26.3405 106.776 29.6791" stroke="#001550" stroke-width="0.7" stroke-linecap="round" stroke-linejoin="round"/>
<path d="M96.7 114.995L95.2629 93.8572L56.4165 93.4117C55.4874 98.6954 55.3842 112.028 55.3706 114.995H96.7Z" fill="#10B981" stroke="#001550" stroke-width="0.7" stroke-linecap="round" stroke-linejoin="round"/>
<path d="M94.2198 78.8294H93.8775L92.4377 69.6692C92.4377 69.6692 95.6976 57.6268 95.0755 55.7823C94.4534 53.9378 92.1742 46.8177 92.1742 46.8177L91.3837 41.3684C91.0306 39.9612 89.8896 37.8532 88.6672 37.4131C87.4447 36.973 82.248 35.4789 81.9845 33.8083C81.8351 32.5759 81.8589 31.3287 82.0551 30.1029L73.0906 26.8431C73.0906 26.8431 73.6176 31.6785 73.6176 32.8194C73.6176 32.8194 69.7519 34.4901 66.6741 35.4572C63.5963 36.4243 60.0892 37.0464 59.2091 37.5734C58.3289 38.1004 59.7524 45.3943 59.7524 48.559C59.7524 51.7238 62.0234 73.7033 62.0234 73.7033C62.0234 73.7033 59.4726 78.517 58.0029 82.1599C57.7666 82.4587 56.6447 84.0614 56.1149 87.9081C55.52 92.2246 55.0718 93.8627 55.0718 93.8627C55.0718 93.8627 58.3479 95.7969 65.0442 97.1388C71.7404 98.4808 89.7646 97.5843 96.0127 94.1506L94.2198 78.8294Z" fill="#FFBD14" stroke="#001550" stroke-width="0.7" stroke-linecap="round" stroke-linejoin="round"/>
<path d="M70.1974 53.9242L82.6935 73.9668C82.6935 73.9668 86.7384 64.209 87.7924 58.9362C88.8464 53.6634 89.2865 51.99 89.2865 51.99L86.2983 49.0915L89.9031 47.4208C89.9031 47.4208 87.3523 40.3008 85.9479 37.4864C85.7007 36.9947 85.4779 36.5655 85.2742 36.1879C83.6768 35.5305 82.1311 34.6884 81.9899 33.7947C81.84 32.567 81.8619 31.3245 82.0551 30.1029L73.0905 26.8431C73.0905 26.8431 73.6175 31.6785 73.6175 32.8194C73.6175 32.8194 72.2592 33.4116 70.4853 34.0962L68.4316 48.2901L74.2423 49.7978L70.1974 53.9242Z" fill="#001550" stroke="#001550" stroke-width="0.7" stroke-linecap="round" stroke-linejoin="round"/>
<path d="M82.8701 74.7573C82.8701 74.7573 84.3642 64.1221 84.3642 59.1997C84.3642 54.2773 84.0925 42.5854 83.9241 39.7738C83.8071 38.2238 83.5746 36.6847 83.2287 35.1692C82.5496 34.74 82.066 34.2755 81.9899 33.7947C81.8401 32.567 81.862 31.3245 82.0551 30.1029L73.0906 26.8431C73.0906 26.8431 73.6176 31.6785 73.6176 32.8194C73.6176 32.8194 77.8391 54.6196 78.98 58.5749C80.121 62.5302 82.8701 74.7573 82.8701 74.7573Z" fill="white" stroke="#001550" stroke-width="0.7" stroke-linecap="round" stroke-linejoin="round"/>
<path d="M81.9791 30.7277C81.9981 30.5756 82.0144 30.456 82.028 30.3447L81.7183 29.9671L73.0906 26.8512C73.0906 26.8512 73.3894 29.5922 73.5388 31.4367C76.0788 31.4748 80.6969 30.8961 81.9791 30.7277Z" fill="#001550" stroke="#001550" stroke-width="0.7" stroke-linecap="round" stroke-linejoin="round"/>
<path d="M84.3504 59.1997C84.3504 55.1602 84.1738 46.5733 84.0135 42.0611C83.1443 44.506 81.8702 47.4806 80.7537 47.6843C79.7024 47.8745 77.4477 45.2747 75.614 42.8679C76.8745 49.1567 78.3822 56.4506 78.9961 58.5831C80.1316 62.5383 82.8699 74.7573 82.8699 74.7573C82.8699 74.7573 84.3504 64.1221 84.3504 59.1997Z" fill="#10B981" stroke="#001550" stroke-width="0.7" stroke-linecap="round" stroke-linejoin="round"/>
<path d="M85.6683 13.8417C85.6683 13.8417 84.9674 12.0841 82.5062 9.26976C80.045 6.45543 74.4191 5.13791 70.5535 6.3685C66.6878 7.59909 64.4847 9.97334 62.9906 11.9075C61.4965 13.8417 60.706 17.9735 60.1763 19.0276C59.6466 20.0816 60.0024 23.6864 61.5834 25.0936C63.1645 26.5007 64.7482 27.6417 65.7153 27.2016C66.6824 26.7615 67.0328 25.6206 67.0328 25.6206L68.6166 26.0607C69.1724 26.3863 69.7617 26.6514 70.3742 26.8512C70.95 27.0042 71.5559 27.0042 72.1318 26.8512C72.1318 26.8512 73.3623 28.4322 74.8483 29.0488C76.3342 29.6655 81.368 30.8064 82.585 31.07C83.802 31.3335 85.2227 30.6299 85.8448 29.4889C86.4669 28.348 86.4615 25.8841 87.0754 23.5995C87.6894 21.3149 86.8038 19.2911 86.6353 18.4109C86.4669 17.5307 85.6683 13.8417 85.6683 13.8417Z" fill="white" stroke="#001550" stroke-width="0.7" stroke-linecap="round" stroke-linejoin="round"/>
<path d="M70.0237 22.9041C70.0237 22.9041 71.6047 23.6077 71.6047 22.6324C71.6047 21.6572 70.9908 19.9159 70.9908 19.9159L70.0237 22.9041Z" fill="#001550" stroke="#001550" stroke-width="0.7" stroke-linecap="round" stroke-linejoin="round"/>
<path d="M85.6683 13.8417C85.6683 13.8417 84.9674 12.0841 82.5062 9.26976C80.045 6.45543 74.4191 5.13791 70.5535 6.3685C66.6878 7.59909 64.4847 9.97334 62.9906 11.9075C61.4965 13.8417 60.706 17.9735 60.1763 19.0276C59.6466 20.0816 60.0024 23.6864 61.5834 25.0936C63.1645 26.5007 64.7482 27.6417 65.7153 27.2016C66.6824 26.7615 67.0328 25.6206 67.0328 25.6206L68.6166 26.0607C68.6166 26.0607 68.7605 26.1449 68.986 26.2644C70.1215 23.0996 74.8401 12.2607 85.6683 13.8417Z" fill="#10B981" stroke="#001550" stroke-width="0.7" stroke-linecap="round" stroke-linejoin="round"/>
<path d="M81.0989 8.12613C79.6918 8.12613 75.2095 8.0392 71.1646 14.7192C67.1196 21.3991 68.6165 26.0607 68.6165 26.0607C68.6165 26.0607 65.2751 14.4557 68.5268 10.5004" stroke="#001550" stroke-width="0.7" stroke-linecap="round" stroke-linejoin="round"/>
<path d="M67.9126 25.7076C67.9126 25.7076 65.2748 18.938 66.8586 13.2251C68.4423 7.51221 76.8799 5.84154 80.2185 7.52036" stroke="#001550" stroke-width="0.7" stroke-linecap="round" stroke-linejoin="round"/>
<path d="M64.8349 9.70985C63.7271 11.1363 62.9873 12.8134 62.6808 14.5933C62.3743 16.3731 62.5104 18.2011 63.0773 19.9159C64.4844 24.4009 67.0325 25.6206 67.0325 25.6206C66.2832 25.4399 65.5548 25.1813 64.8593 24.8491C63.0012 23.9717 60.6514 22.2331 60.866 19.1145C60.866 19.1145 61.0426 17.7073 61.7462 18.8428C62.4497 19.9784 61.9227 22.6243 64.4627 24.2922" stroke="#001550" stroke-width="0.7" stroke-linecap="round" stroke-linejoin="round"/>
<path d="M84.3503 17.6204C84.3503 17.6204 84.4373 19.378 85.4044 20.1712C86.3714 20.9645 87.1647 21.5757 86.7246 22.2793C86.2845 22.9828 85.1409 23.1594 85.1409 23.1594" stroke="#001550" stroke-width="0.7" stroke-linecap="round" stroke-linejoin="round"/>
<path d="M84.967 24.917C84.32 25.1426 83.6324 25.2277 82.95 25.1668C82.2675 25.1059 81.6059 24.9004 81.009 24.5639C81.009 24.5639 81.009 27.1147 82.3293 27.2016C83.6495 27.2885 84.967 24.917 84.967 24.917Z" fill="#001550" stroke="#001550" stroke-width="0.7" stroke-linecap="round" stroke-linejoin="round"/>
<path d="M84.6601 25.406C84.8529 25.1207 84.967 24.917 84.967 24.917C84.32 25.1426 83.6324 25.2277 82.95 25.1668C82.2675 25.1059 81.6059 24.9004 81.009 24.5639C81.009 24.5639 82.1147 26.5496 84.6601 25.406Z" fill="white" stroke="#001550" stroke-width="0.7" stroke-linecap="round" stroke-linejoin="round"/>
<path d="M80.9224 19.5981C80.9224 20.1088 80.7268 20.5217 80.4823 20.5217C80.2378 20.5217 80.0422 20.1088 80.0422 19.5981C80.0422 19.0874 80.2405 18.6745 80.4823 18.6745C80.7241 18.6745 80.9224 19.101 80.9224 19.5981Z" fill="#001550"/>
<path d="M86.0213 18.7206C86.0213 19.2286 85.823 19.6415 85.5812 19.6415C85.3394 19.6415 85.1411 19.2286 85.1411 18.7206C85.1411 18.2126 85.3394 17.797 85.5812 17.797C85.823 17.797 86.0213 18.2099 86.0213 18.7206Z" fill="#001550"/>
<path d="M81.8893 17.0934C81.249 16.9325 80.5773 16.9454 79.9437 17.1307C79.31 17.3159 78.7372 17.6669 78.2844 18.1474" stroke="#001550" stroke-width="0.7" stroke-linecap="round" stroke-linejoin="round"/>
<path d="M84.5271 16.743C84.5271 16.743 84.8775 15.7759 85.8446 16.1263" stroke="#001550" stroke-width="0.7" stroke-linecap="round" stroke-linejoin="round"/>
<path d="M82.5985 17.9355L82.8701 20.1088C82.8815 20.2008 82.8575 20.2938 82.8031 20.3689C82.7486 20.444 82.6677 20.4957 82.5767 20.5135L78.4802 21.3285C78.4292 21.3382 78.3768 21.3371 78.3263 21.3253C78.2758 21.3136 78.2282 21.2914 78.1868 21.2602C78.1454 21.229 78.1109 21.1894 78.0857 21.1441C78.0604 21.0988 78.0449 21.0487 78.0401 20.9971L77.8418 18.7532C77.8336 18.6617 77.86 18.5705 77.9159 18.4976C77.9717 18.4246 78.0529 18.3753 78.1433 18.3593L82.1747 17.6123C82.224 17.6038 82.2745 17.6056 82.323 17.6176C82.3716 17.6295 82.4172 17.6513 82.457 17.6816C82.4967 17.712 82.5298 17.7502 82.5541 17.7939C82.5785 17.8375 82.5936 17.8858 82.5985 17.9355V17.9355Z" stroke="#001550" stroke-width="0.7" stroke-linecap="round" stroke-linejoin="round"/>
<path d="M88.2488 16.8897L88.5204 19.0629C88.5312 19.1552 88.5071 19.2482 88.4528 19.3236C88.3985 19.399 88.318 19.4514 88.227 19.4704L85.2742 20.1142C85.2231 20.1243 85.1706 20.1236 85.1199 20.112C85.0692 20.1004 85.0215 20.0782 84.98 20.047C84.9384 20.0157 84.904 19.976 84.8788 19.9305C84.8537 19.8849 84.8384 19.8346 84.8341 19.7828L84.6358 17.5389C84.6268 17.4477 84.6526 17.3565 84.708 17.2835C84.7634 17.2105 84.8443 17.161 84.9346 17.145L87.825 16.5719C87.8738 16.5642 87.9236 16.5664 87.9715 16.5783C88.0194 16.5902 88.0645 16.6116 88.104 16.6413C88.1435 16.6709 88.1767 16.7082 88.2015 16.7508C88.2264 16.7935 88.2425 16.8407 88.2488 16.8897V16.8897Z" stroke="#001550" stroke-width="0.7" stroke-linecap="round" stroke-linejoin="round"/>
<path d="M82.7695 19.0276C82.7695 19.0276 83.8235 18.0605 84.701 18.851" stroke="#001550" stroke-width="0.7" stroke-linecap="round" stroke-linejoin="round"/>
<path d="M77.9341 19.9947L71.428 21.2252" stroke="#001550" stroke-width="0.7" stroke-linecap="round" stroke-linejoin="round"/>
<path d="M107.661 41.2325C113.507 45.291 121.972 52.8702 126.853 65.0267" stroke="#001550" stroke-width="0.7" stroke-linecap="round" stroke-linejoin="round"/>
<path d="M101.277 37.4946C101.277 37.4946 103.94 38.6491 107.661 41.2325" stroke="#001550" stroke-width="0.7" stroke-linecap="round" stroke-linejoin="round"/>
<path d="M102.173 37.3565C102.443 36.3101 101.504 35.1636 100.076 34.7956C98.6488 34.4277 97.2729 34.9777 97.0032 36.024C96.7335 37.0704 97.6722 38.2169 99.0999 38.5848C100.528 38.9528 101.903 38.4028 102.173 37.3565Z" fill="#001550" stroke="#001550" stroke-width="0.7" stroke-linecap="round" stroke-linejoin="round"/>
<path d="M128.902 79.4243H73.2317V115H128.902V79.4243Z" fill="white" stroke="#001550" stroke-width="0.7" stroke-linecap="round" stroke-linejoin="round"/>
<path d="M128.901 79.4243H94.0701V115H128.901V79.4243Z" fill="#BCCDFF" stroke="#001550" stroke-width="0.7" stroke-linecap="round" stroke-linejoin="round"/>
<path d="M128.611 79.8554H72.793V87.0911H128.611V79.8554Z" fill="#001550" stroke="#001550" stroke-width="0.7" stroke-linecap="round" stroke-linejoin="round"/>
<path d="M138.132 85.9956V63.8531H93.1411L65.7883 80.6984V85.9956H138.132Z" fill="white" stroke="#001550" stroke-width="0.7" stroke-linecap="round" stroke-linejoin="round"/>
<path d="M138.116 63.8531H104.17V85.9956H138.116V63.8531Z" fill="#BCCDFF" stroke="#001550" stroke-width="0.7" stroke-linecap="round" stroke-linejoin="round"/>
<path d="M65.1012 36.3455C65.1012 36.3455 61.1378 36.4324 59.209 37.136C57.2803 37.8396 55.6069 38.717 55.6069 39.5075C55.6069 40.298 55.5173 48.6514 55.1668 51.1886C54.8164 53.7259 54.1128 60.9464 53.6727 61.65C53.2326 62.3536 52.1325 62.7828 52.5291 65.0104C52.5943 65.3798 52.8007 66.154 52.8007 66.154C52.6432 66.8474 52.5523 67.5541 52.5291 68.2648C52.5291 69.2319 53.0561 70.6363 53.0561 70.6363C53.0561 70.6363 53.7597 72.4836 54.2867 72.7471C54.8137 73.0106 57.2749 75.2082 62.2869 76.0884C67.2989 76.9685 71.5231 77.2293 71.5231 77.2293C72.2083 77.9631 73.0493 78.534 73.9843 78.9C74.9415 79.3121 75.9447 79.6076 76.9725 79.7802C76.9725 79.7802 80.3138 80.8342 80.6642 80.8342H81.2809C81.2809 80.8342 82.2453 80.8342 82.5984 80.4837C82.9515 80.1333 81.7182 79.7802 80.6642 77.9329C80.0588 76.8861 79.5304 75.7966 79.0832 74.6731C79.0832 74.6731 81.0147 75.1132 81.7182 75.4636C82.4218 75.814 84.7064 77.2212 84.9781 76.5176C85.2497 75.814 85.1519 75.9037 84.538 75.287C83.9241 74.6704 79.526 71.2448 79.526 71.2448C79.526 71.2448 84.538 69.8376 85.3285 69.3976C86.119 68.9575 85.5051 68.6967 84.2745 68.7836C82.0766 69.0203 79.901 69.4318 77.7684 70.0142C76.0977 70.5412 73.6365 72.3885 72.7591 72.7308C71.8817 73.073 66.0764 69.2156 65.3756 68.1588C64.6747 67.1021 64.3188 66.4909 64.3188 66.4909C64.3188 66.4909 64.9355 65.6976 65.0224 65.0837C65.1093 64.4698 63.9684 63.5 63.9684 63.5C63.9684 63.5 64.4954 62.7095 64.4954 62.1824C64.5099 61.9078 64.4488 61.6343 64.3188 61.3919L64.6693 53.3972L65.0197 50.4959" fill="#FFBD14"/>
<path d="M65.1012 36.3455C65.1012 36.3455 61.1378 36.4324 59.209 37.136C57.2803 37.8396 55.6069 38.717 55.6069 39.5075C55.6069 40.298 55.5173 48.6514 55.1668 51.1886C54.8164 53.7259 54.1128 60.9464 53.6727 61.65C53.2326 62.3536 52.1325 62.7828 52.5291 65.0104C52.5943 65.3798 52.8007 66.154 52.8007 66.154C52.6432 66.8474 52.5523 67.5541 52.5291 68.2648C52.5291 69.2319 53.0561 70.6363 53.0561 70.6363C53.0561 70.6363 53.7597 72.4836 54.2867 72.7471C54.8137 73.0106 57.2749 75.2082 62.2869 76.0884C67.2989 76.9685 71.5231 77.2293 71.5231 77.2293C72.2083 77.9631 73.0493 78.534 73.9843 78.9C74.9415 79.3121 75.9447 79.6076 76.9725 79.7802C76.9725 79.7802 80.3138 80.8342 80.6642 80.8342H81.2809C81.2809 80.8342 82.2453 80.8342 82.5984 80.4837C82.9515 80.1333 81.7182 79.7802 80.6642 77.9329C80.0588 76.8861 79.5304 75.7966 79.0832 74.6731C79.0832 74.6731 81.0147 75.1132 81.7182 75.4636C82.4218 75.814 84.7064 77.2212 84.9781 76.5176C85.2497 75.814 85.1519 75.9037 84.538 75.287C83.9241 74.6704 79.526 71.2448 79.526 71.2448C79.526 71.2448 84.538 69.8376 85.3285 69.3976C86.119 68.9575 85.5051 68.6967 84.2745 68.7836C82.0766 69.0203 79.901 69.4318 77.7684 70.0142C76.0977 70.5412 73.6365 72.3885 72.7591 72.7308C71.8817 73.073 66.0764 69.2156 65.3756 68.1588C64.6747 67.1021 64.3188 66.4909 64.3188 66.4909C64.3188 66.4909 64.9355 65.6976 65.0224 65.0837C65.1093 64.4698 63.9684 63.5 63.9684 63.5C63.9684 63.5 64.4954 62.7095 64.4954 62.1824C64.5099 61.9078 64.4488 61.6343 64.3188 61.3919L64.6693 53.3972L65.0197 50.4959" stroke="#001550" stroke-width="0.7" stroke-linecap="round" stroke-linejoin="round"/>
<path d="M84.2637 68.7809C82.0657 69.0176 79.8901 69.4291 77.7576 70.0115C76.0869 70.5385 73.6257 72.3858 72.7483 72.7281C71.8708 73.0704 66.0656 69.2129 65.3647 68.1561C65.0061 67.6128 64.7399 67.1999 64.5661 66.9147H64.4846C64.4846 66.9147 61.1432 64.8936 58.5951 66.3007C56.047 67.7079 54.9033 71.0656 55.7047 73.0867C55.8267 73.3949 55.9923 73.684 56.1964 73.9451C58.0925 75.0012 60.1565 75.7226 62.2978 76.0776C67.307 76.955 71.534 77.2185 71.534 77.2185C72.2192 77.9523 73.0602 78.5232 73.9952 78.8892C74.9523 79.3013 75.9556 79.5968 76.9833 79.7693C76.9833 79.7693 80.3247 80.8233 80.6751 80.8233H81.2918C81.2918 80.8233 82.2561 80.8233 82.6093 80.4729C82.9624 80.1225 81.7291 79.7693 80.6751 77.9221C80.0697 76.8753 79.5413 75.7858 79.0941 74.6622C79.0941 74.6622 81.0255 75.1023 81.7291 75.4528C82.4327 75.8032 84.7173 77.2104 84.989 76.5068C85.2606 75.8032 85.1628 75.8928 84.5489 75.2762C83.935 74.6595 79.5369 71.234 79.5369 71.234C79.5369 71.234 84.5489 69.8268 85.3394 69.3867C86.1299 68.9466 85.4942 68.694 84.2637 68.7809Z" fill="white" stroke="#001550" stroke-width="0.7" stroke-linecap="round" stroke-linejoin="round"/>
<path d="M73.802 77.6586C73.802 77.6586 75.5596 79.1527 76.9668 79.7693L73.802 77.6586Z" fill="white"/>
<path d="M73.802 77.6586C73.802 77.6586 75.5596 79.1527 76.9668 79.7693" stroke="#001550" stroke-width="0.7" stroke-linecap="round" stroke-linejoin="round"/>
<path d="M76.5269 76.7811C76.5269 76.7811 78.6376 80.0409 80.6587 80.8233" stroke="#001550" stroke-width="0.7" stroke-linecap="round" stroke-linejoin="round"/>
</svg>
