<svg width="170" height="120" fill="none" xmlns="http://www.w3.org/2000/svg"><path opacity=".7" d="M106.005 7.39s-20.69-7.524-40.871 4.126-30.286 34.99-38.95 53.676c-8.665 18.685-3.493 37.781 12.03 46.569 15.525 8.788 25.963-3.958 47.663-4.446 21.7-.489 27.553 2.667 45.484-9.575 17.931-12.241 21.006-41.426 6.665-63.118C123.684 12.93 106.005 7.39 106.005 7.39Z" fill="#FFF8EB"/><path d="M50 114.871h88.232" stroke="#001550" stroke-width=".7" stroke-linecap="round" stroke-linejoin="round"/><path d="M88.659 37.4s5.01.967 5.536 2.374c.527 1.407 1.494 7.82 1.67 8.35.178.53 1.759.087 2.462.878.704.79 3.782 4.395 3.782 4.395s-.354-1.757-.09-4.835c.263-3.078 1.584-10.812 1.584-12.657 0-1.844.087-4.835.087-4.835s.88-7.647 1.054-8.527c.173-.88 2.836-.212 4.946.755 2.111.967 1.647 2.497 1.296 4.257-.35 1.76-2.287 4.482-2.287 4.482s1.32 8.965 1.584 11.165c.263 2.2 1.143 8.35.877 10.899-.266 2.548-2.899 7.823-3.428 8.693-.53.869-2.635 2.55-3.779 2.11-1.144-.44-9.318-4.482-10.108-4.745-.79-.264-2.461-8.177-3.165-10.285-.704-2.108-4.572-10.725-4.572-11.953 0-1.228 1.923-.348 1.923-.348l.628-.173Z" fill="#fff" stroke="#001550" stroke-width=".7" stroke-linecap="round" stroke-linejoin="round"/><path d="M101.926 50.382a15.769 15.769 0 0 0 .182 3.015s-3.077-3.6-3.781-4.395c-.704-.796-2.285-.35-2.461-.878-.177-.527-1.144-6.946-1.67-8.35-.528-1.405-5.537-2.374-5.537-2.374l-.628.173s-1.934-.88-1.934.35c0 1.231 3.869 9.846 4.572 11.954.704 2.108 2.374 10.02 3.165 10.284.79.264 8.964 4.306 10.108 4.746 1.144.44 3.26-1.23 3.779-2.11.519-.88 3.165-6.153 3.428-8.694.045-.485.061-.973.046-1.461-5.216.361-7.924-1.038-9.269-2.26Z" fill="#FFBD14" stroke="#001550" stroke-width=".7" stroke-linecap="round" stroke-linejoin="round"/><path d="M104.57 20.435s-.272 3.338-.09 3.865c.182.527 5.099 3.692 5.45 3.342.35-.35 1.67-3.515 1.496-3.869-.173-.353-4.395-2.46-4.835-2.811-.44-.35-1.32-.527-2.021-.527Z" fill="#fff" stroke="#001550" stroke-width=".7" stroke-linecap="round" stroke-linejoin="round"/><path d="m106.591 20.962-.704 4.305M108.699 22.28l-1.231 4.308M110.546 23.333l-1.407 4.045" stroke="#001550" stroke-width=".7" stroke-linecap="round" stroke-linejoin="round"/><path d="M104.393 31.869s-3.078-2.549-3.078-3.692c0-1.144-.173-5.273.272-5.705.446-.432 6.248-.527 5.803.44-.446.967-2.902 1.405-2.902 1.405s3.429 2.023 2.288 5.362" fill="#fff"/><path d="M104.393 31.869s-3.078-2.549-3.078-3.692c0-1.144-.173-5.273.272-5.705.446-.432 6.248-.527 5.803.44-.446.967-2.902 1.405-2.902 1.405s3.429 2.023 2.288 5.362" stroke="#001550" stroke-width=".7" stroke-linecap="round" stroke-linejoin="round"/><path d="m96.7 114.995-1.437-21.138-38.847-.445c-.929 5.283-1.032 18.616-1.045 21.583H96.7Z" fill="#10B981" stroke="#001550" stroke-width=".7" stroke-linecap="round" stroke-linejoin="round"/><path d="M94.22 78.83h-.343l-1.44-9.16s3.26-12.043 2.639-13.888c-.623-1.844-2.902-8.964-2.902-8.964l-.79-5.45c-.353-1.407-1.494-3.515-2.717-3.955-1.222-.44-6.419-1.934-6.683-3.605a13.31 13.31 0 0 1 .071-3.705l-8.964-3.26s.527 4.835.527 5.976c0 0-3.866 1.671-6.944 2.638-3.078.967-6.585 1.59-7.465 2.116-.88.527.543 7.821.543 10.986 0 3.165 2.271 25.144 2.271 25.144s-2.55 4.814-4.02 8.457c-.236.299-1.358 1.901-1.888 5.748-.595 4.317-1.043 5.955-1.043 5.955s3.276 1.934 9.972 3.276c6.696 1.342 24.72.445 30.969-2.988L94.22 78.829Z" fill="#FFBD14" stroke="#001550" stroke-width=".7" stroke-linecap="round" stroke-linejoin="round"/><path d="m70.197 53.924 12.496 20.043s4.045-9.758 5.1-15.03c1.053-5.274 1.493-6.947 1.493-6.947l-2.988-2.898 3.605-1.671s-2.55-7.12-3.955-9.935c-.247-.491-.47-.92-.674-1.298-1.597-.657-3.143-1.5-3.284-2.393-.15-1.228-.128-2.47.065-3.692l-8.965-3.26s.528 4.835.528 5.976c0 0-1.359.593-3.133 1.277L68.432 48.29l5.81 1.508-4.045 4.126Z" fill="#001550" stroke="#001550" stroke-width=".7" stroke-linecap="round" stroke-linejoin="round"/><path d="M82.87 74.757s1.494-10.635 1.494-15.557c0-4.923-.272-16.615-.44-19.426a31.27 31.27 0 0 0-.695-4.605c-.68-.429-1.163-.893-1.24-1.374-.149-1.228-.127-2.47.066-3.692l-8.964-3.26s.527 4.835.527 5.976c0 0 4.221 21.8 5.362 25.756 1.141 3.955 3.89 16.182 3.89 16.182Z" fill="#fff" stroke="#001550" stroke-width=".7" stroke-linecap="round" stroke-linejoin="round"/><path d="M81.98 30.728c.018-.152.034-.272.048-.383l-.31-.378-8.627-3.116s.298 2.741.448 4.586c2.54.038 7.158-.54 8.44-.71Z" fill="#001550" stroke="#001550" stroke-width=".7" stroke-linecap="round" stroke-linejoin="round"/><path d="M84.35 59.2c0-4.04-.176-12.627-.337-17.139-.869 2.445-2.143 5.42-3.26 5.623-1.05.19-3.305-2.41-5.139-4.816 1.26 6.289 2.768 13.583 3.382 15.715 1.136 3.955 3.874 16.174 3.874 16.174s1.48-10.635 1.48-15.557Z" fill="#10B981" stroke="#001550" stroke-width=".7" stroke-linecap="round" stroke-linejoin="round"/><path d="M85.668 13.842s-.7-1.758-3.162-4.572c-2.461-2.815-8.087-4.132-11.953-2.901-3.865 1.23-6.068 3.604-7.562 5.539-1.495 1.934-2.285 6.066-2.815 7.12-.53 1.054-.174 4.658 1.407 6.066 1.581 1.407 3.165 2.548 4.132 2.108.967-.44 1.318-1.581 1.318-1.581l1.584.44c.555.325 1.145.59 1.757.79a3.422 3.422 0 0 0 1.758 0s1.23 1.581 2.716 2.198c1.486.617 6.52 1.757 7.737 2.021 1.217.264 2.638-.44 3.26-1.581.622-1.141.617-3.605 1.23-5.89.614-2.284-.271-4.308-.44-5.188-.168-.88-.967-4.57-.967-4.57Z" fill="#fff" stroke="#001550" stroke-width=".7" stroke-linecap="round" stroke-linejoin="round"/><path d="M70.024 22.904s1.58.704 1.58-.272c0-.975-.613-2.716-.613-2.716l-.967 2.988Z" fill="#001550" stroke="#001550" stroke-width=".7" stroke-linecap="round" stroke-linejoin="round"/><path d="M85.668 13.842s-.7-1.758-3.162-4.572c-2.461-2.815-8.087-4.132-11.953-2.901-3.865 1.23-6.068 3.604-7.562 5.539-1.495 1.934-2.285 6.066-2.815 7.12-.53 1.054-.174 4.658 1.407 6.066 1.581 1.407 3.165 2.548 4.132 2.108.967-.44 1.318-1.581 1.318-1.581l1.584.44s.143.084.369.203c1.135-3.164 5.854-14.003 16.682-12.422Z" fill="#10B981" stroke="#001550" stroke-width=".7" stroke-linecap="round" stroke-linejoin="round"/><path d="M81.099 8.126c-1.407 0-5.89-.087-9.934 6.593-4.045 6.68-2.549 11.342-2.549 11.342s-3.34-11.605-.09-15.56" stroke="#001550" stroke-width=".7" stroke-linecap="round" stroke-linejoin="round"/><path d="M67.913 25.708s-2.638-6.77-1.054-12.483c1.583-5.713 10.02-7.383 13.36-5.705M64.835 9.71a11.007 11.007 0 0 0-1.758 10.206c1.407 4.485 3.956 5.705 3.956 5.705-.75-.181-1.478-.44-2.174-.772-1.858-.877-4.208-2.616-3.993-5.735 0 0 .177-1.407.88-.271.704 1.135.177 3.781 2.717 5.45M84.35 17.62s.087 1.758 1.054 2.551c.967.794 1.76 1.405 1.32 2.108-.44.704-1.583.88-1.583.88" stroke="#001550" stroke-width=".7" stroke-linecap="round" stroke-linejoin="round"/><path d="M84.967 24.917a4.824 4.824 0 0 1-3.958-.353s0 2.55 1.32 2.638c1.32.086 2.638-2.285 2.638-2.285Z" fill="#001550" stroke="#001550" stroke-width=".7" stroke-linecap="round" stroke-linejoin="round"/><path d="M84.66 25.406a7.64 7.64 0 0 0 .307-.489 4.824 4.824 0 0 1-3.958-.353s1.106 1.986 3.651.842Z" fill="#fff" stroke="#001550" stroke-width=".7" stroke-linecap="round" stroke-linejoin="round"/><path d="M80.922 19.598c0 .51-.195.924-.44.924-.244 0-.44-.413-.44-.924 0-.51.198-.924.44-.924s.44.427.44.924ZM86.021 18.72c0 .509-.198.922-.44.922s-.44-.413-.44-.921.198-.924.44-.924.44.413.44.924Z" fill="#001550"/><path d="M81.89 17.093a3.71 3.71 0 0 0-3.606 1.054M84.527 16.743s.35-.967 1.318-.617M82.599 17.936l.271 2.173a.367.367 0 0 1-.293.404l-4.097.815a.371.371 0 0 1-.44-.33l-.198-2.245a.366.366 0 0 1 .301-.394l4.032-.747a.362.362 0 0 1 .38.182c.023.043.039.092.043.142v0ZM88.249 16.89l.271 2.173a.372.372 0 0 1-.293.407l-2.953.644a.37.37 0 0 1-.44-.331l-.198-2.244a.363.363 0 0 1 .299-.394l2.89-.573a.369.369 0 0 1 .424.318v0ZM82.77 19.028s1.053-.967 1.931-.177M77.934 19.995l-6.506 1.23M107.661 41.233c5.846 4.058 14.311 11.637 19.192 23.794M101.277 37.495s2.663 1.154 6.384 3.738" stroke="#001550" stroke-width=".7" stroke-linecap="round" stroke-linejoin="round"/><path d="M102.173 37.356c.27-1.046-.669-2.192-2.097-2.56-1.427-.368-2.803.182-3.073 1.228s.67 2.193 2.097 2.56c1.428.369 2.803-.181 3.073-1.228Z" fill="#001550" stroke="#001550" stroke-width=".7" stroke-linecap="round" stroke-linejoin="round"/><path d="M128.902 79.424h-55.67V115h55.67V79.424Z" fill="#fff" stroke="#001550" stroke-width=".7" stroke-linecap="round" stroke-linejoin="round"/><path d="M128.901 79.424h-34.83V115h34.83V79.424Z" fill="#BCCDFF" stroke="#001550" stroke-width=".7" stroke-linecap="round" stroke-linejoin="round"/><path d="M128.611 79.855H72.793v7.236h55.818v-7.236Z" fill="#001550" stroke="#001550" stroke-width=".7" stroke-linecap="round" stroke-linejoin="round"/><path d="M138.132 85.996V63.853h-44.99L65.787 80.698v5.298h72.344Z" fill="#fff" stroke="#001550" stroke-width=".7" stroke-linecap="round" stroke-linejoin="round"/><path d="M138.116 63.853H104.17v22.143h33.946V63.853Z" fill="#BCCDFF" stroke="#001550" stroke-width=".7" stroke-linecap="round" stroke-linejoin="round"/><path d="M65.101 36.346s-3.963.086-5.892.79c-1.929.704-3.602 1.581-3.602 2.371 0 .791-.09 9.144-.44 11.682-.35 2.537-1.054 9.757-1.494 10.461-.44.704-1.54 1.133-1.144 3.36.065.37.272 1.144.272 1.144-.158.693-.249 1.4-.272 2.11 0 .968.527 2.372.527 2.372s.704 1.848 1.23 2.111c.528.264 2.989 2.461 8 3.341 5.013.88 9.237 1.141 9.237 1.141a6.717 6.717 0 0 0 2.461 1.671c.958.412 1.96.708 2.989.88 0 0 3.34 1.054 3.691 1.054h.617s.964 0 1.317-.35-.88-.704-1.934-2.551a24.919 24.919 0 0 1-1.58-3.26s1.93.44 2.634.79c.704.351 2.988 1.758 3.26 1.055.272-.704.174-.614-.44-1.231-.614-.617-5.012-4.042-5.012-4.042s5.012-1.407 5.803-1.847c.79-.44.176-.701-1.054-.614a41.607 41.607 0 0 0-6.507 1.23c-1.67.527-4.132 2.374-5.009 2.717-.877.342-6.683-3.515-7.383-4.572-.701-1.057-1.057-1.668-1.057-1.668s.617-.793.703-1.407c.087-.614-1.054-1.584-1.054-1.584s.527-.79.527-1.318a1.505 1.505 0 0 0-.176-.79l.35-7.995.35-2.901" fill="#FFBD14"/><path d="M65.101 36.346s-3.963.086-5.892.79c-1.929.704-3.602 1.581-3.602 2.371 0 .791-.09 9.144-.44 11.682-.35 2.537-1.054 9.757-1.494 10.461-.44.704-1.54 1.133-1.144 3.36.065.37.272 1.144.272 1.144-.158.693-.249 1.4-.272 2.11 0 .968.527 2.372.527 2.372s.704 1.848 1.23 2.111c.528.264 2.989 2.461 8 3.341 5.013.88 9.237 1.141 9.237 1.141a6.717 6.717 0 0 0 2.461 1.671c.958.412 1.96.708 2.989.88 0 0 3.34 1.054 3.691 1.054h.617s.964 0 1.317-.35-.88-.704-1.934-2.551a24.919 24.919 0 0 1-1.58-3.26s1.93.44 2.634.79c.704.351 2.988 1.758 3.26 1.055.272-.704.174-.614-.44-1.231-.614-.617-5.012-4.042-5.012-4.042s5.012-1.407 5.803-1.847c.79-.44.176-.701-1.054-.614a41.607 41.607 0 0 0-6.507 1.23c-1.67.527-4.132 2.374-5.009 2.717-.877.342-6.683-3.515-7.383-4.572-.701-1.057-1.057-1.668-1.057-1.668s.617-.793.703-1.407c.087-.614-1.054-1.584-1.054-1.584s.527-.79.527-1.318a1.505 1.505 0 0 0-.176-.79l.35-7.995.35-2.901" stroke="#001550" stroke-width=".7" stroke-linecap="round" stroke-linejoin="round"/><path d="M84.264 68.78a41.602 41.602 0 0 0-6.506 1.231c-1.671.528-4.132 2.375-5.01 2.717-.877.342-6.682-3.515-7.383-4.572a44.835 44.835 0 0 1-.799-1.241h-.081s-3.342-2.021-5.89-.614c-2.548 1.407-3.692 4.765-2.89 6.786.122.308.287.597.491.858a18.887 18.887 0 0 0 6.102 2.133c5.009.877 9.236 1.14 9.236 1.14a6.717 6.717 0 0 0 2.461 1.671c.957.412 1.96.708 2.988.88 0 0 3.342 1.054 3.692 1.054h.617s.964 0 1.317-.35-.88-.704-1.934-2.55a24.914 24.914 0 0 1-1.58-3.26s1.93.44 2.634.79c.704.35 2.988 1.757 3.26 1.054.272-.704.174-.614-.44-1.23-.614-.618-5.012-4.043-5.012-4.043s5.012-1.407 5.802-1.847c.79-.44.155-.693-1.075-.606Z" fill="#fff" stroke="#001550" stroke-width=".7" stroke-linecap="round" stroke-linejoin="round"/><path d="M73.802 77.659s1.758 1.494 3.165 2.11l-3.165-2.11Z" fill="#fff"/><path d="M73.802 77.659s1.758 1.494 3.165 2.11M76.527 76.781s2.11 3.26 4.132 4.042" stroke="#001550" stroke-width=".7" stroke-linecap="round" stroke-linejoin="round"/></svg>