<svg width="170" height="121" fill="none" xmlns="http://www.w3.org/2000/svg"><path opacity=".7" d="M103.196 3.013S80.621-5.752 59.03 6.618c-21.59 12.37-31.962 37.82-40.91 58.19-8.95 20.37-2.903 41.507 14.107 51.538 17.01 10.03 28.018-3.763 51.501-3.802 23.483-.04 29.894 3.579 49.023-9.493 19.13-13.073 21.782-45.118 5.754-69.326-16.028-24.208-35.309-30.712-35.309-30.712Z" fill="#FFF5E3"/><path d="M100.851 37.858s2.057 1.19 4.767 4.115c2.709 2.925 4.223 11.806 1.189 13.538-3.034 1.733-4.873-1.623-4.873.974s2.925 4.118-.331 6.824c-3.256 2.707-10.183 2.491-11.048-2.272-.864-4.764 3.031-7.692 3.68-10.832.65-3.14-.215-9.316.434-11.697.65-2.382 2.608-2.505 6.182-.65Z" fill="#001550" stroke="#001550" stroke-width=".8" stroke-linecap="round" stroke-linejoin="round"/><path d="M52.017 8.548s-.822-.662-1.263-.662c-.44 0-.632.556-1.265 1.05-.633.493-1.58.738-1.014.993a1.832 1.832 0 0 0 1.836-.308c.506-.434.506-.185.884-.126l.381.063.44-1.01Z" stroke="#001550" stroke-width=".8" stroke-linecap="round" stroke-linejoin="round"/><path d="M51.003 9.966s-1.706-.308-1.836.185a.993.993 0 0 0 .332 1.114c.27.147.584.19.884.122l.62-1.421Z" stroke="#001550" stroke-width=".8" stroke-linecap="round" stroke-linejoin="round"/><path d="M49.045 10.523s-.948.37-.696 1.05c.252.679 1.325.801 1.325.801l.381-.801a2.1 2.1 0 0 1-1.01-1.05v0Z" stroke="#001550" stroke-width=".8" stroke-linecap="round" stroke-linejoin="round"/><path d="M48.41 11.82c-.141.243-.186.529-.127.803.126.37.885.679.885.679l.507-.928s-1.203-.308-1.266-.553Z" stroke="#001550" stroke-width=".8" stroke-linecap="round" stroke-linejoin="round"/><path d="M48.283 12.623s-.44.248-.252.616a1.066 1.066 0 0 0 .756.437l.377-.37s-.818-.435-.88-.683Z" stroke="#001550" stroke-width=".8" stroke-linecap="round" stroke-linejoin="round"/><path d="M93.267 36.533s-4.224-3.03-5.963-4.005c-1.74-.974-5.632-1.626-5.632-1.626l-9.858-7.255s-5.847-4.333-8.772-5.962c-2.925-1.63-7.907-4.97-7.907-4.97l-2.81-4.008-3.14 5.413 5.3 1.193s9.872 8.775 12.353 11.05c2.482 2.276 4.333 3.035 4.333 3.035s4.877 4.873 6.934 6.496c2.057 1.623 3.03 2.057 3.03 2.057s-.215 4.658-.662 6.393c-.447 1.736-1.083 3.14-2.057 3.465a5.123 5.123 0 0 1-1.298.332s-.663 6.39 1.514 9.855c2.176 3.465 6.933 3.359 8.231 3.359 1.299 0 4.224-3.9 4.224-3.9s3.034-1.192 4.224-2.275c1.189-1.083 3.19-5.77 3.19-5.77 2.251.566 4.562.867 6.883.897 3.575 0 8.557-1.842 8.557-1.842s6.824 0 10.073-.974c3.25-.973 11.697-3.898 11.697-3.898s3.031.864 5.416.758c2.386-.106 4.439-.331 5.089-.662a1.85 1.85 0 0 0 .868-.974.84.84 0 0 0 .662-.332c.154-.241.294-.491.421-.748 0 0 .54 0 .54-.434s-1.623-1.083-1.623-1.083 1.841-.663 1.083-.865c-.759-.202-7.149-.331-7.149-.331s-.215-.543.663-.759c.877-.215 2.275-1.192 1.626-1.298l-.662-.11a7.465 7.465 0 0 1-1.948.663c-.673.077-1.31.34-1.842.758-.434.332-2.706 2.6-2.706 2.6a34.042 34.042 0 0 1-7.258.865c-4.439.11-5.963 0-8.772.544-2.809.543-5.741 1.182-5.741 1.182l-7.692.434s-3.031-.11-3.79-.331c-.758-.222-2.272-.663-4.223-2.6a45.19 45.19 0 0 0-4.658-3.9l-.748-.437Z" fill="#fff" stroke="#001550" stroke-width=".8" stroke-linecap="round" stroke-linejoin="round"/><path d="m147.096 40.118-2.925.109M148.178 41.635l-4.115-.216M147.094 42.718l-2.601.11M144.171 39.793l.325 3.468M141.142 39.687a4.812 4.812 0 0 1-.219 1.189c-.215.759-2.597.868-2.597.868M113.956 48.459l6.065-1.624M98.517 49.403l.927-1.918M81.134 37.95l2.057 1.303M82.98 37.086l.433 2.925" stroke="#001550" stroke-width=".8" stroke-linecap="round" stroke-linejoin="round"/><path d="M95.107 43.801s.662-1.623 1.517-3.465c.855-1.842 2.057-1.732 2.491-1.517.434.215 2.057.759 2.491.331.434-.427 2.597-3.899 2.597-3.899s1.083 0 1.411-.54l-.867-2.275s.662-.663.662-1.299v-1.733s.434-2.385.434-2.924c0-.54-2.166-1.193-4.333-.22-2.166.975-8.232 3.47-8.881 4.97-.65 1.5-.868 4.876-.868 4.876s-.331 1.408-.974 3.465" fill="#fff"/><path d="M95.107 43.801s.662-1.623 1.517-3.465c.855-1.842 2.057-1.732 2.491-1.517.434.215 2.057.759 2.491.331.434-.427 2.597-3.899 2.597-3.899s1.083 0 1.411-.54l-.867-2.275s.662-.663.662-1.299v-1.733s.434-2.385.434-2.924c0-.54-2.166-1.193-4.333-.22-2.166.975-8.232 3.47-8.881 4.97-.65 1.5-.868 4.876-.868 4.876s-.331 1.408-.974 3.465" stroke="#001550" stroke-width=".8" stroke-linecap="round" stroke-linejoin="round"/><path d="M96.733 32.227s-.331-2.71-1.732-2.06c-1.401.649-1.19 2.71-.759 3.358.43.65 1.193.54-.215 1.408-1.408.868-2.707 1.408-3.684 0-.977-1.408-2.706-4.333-.662-7.798s6.608-6.294 10.507-5.962c3.899.33 3.79 1.838 3.79 1.838s2.706-1.732 4.548 1.193 1.083 4.548.331 4.548-1.083-.865-1.083-.865-.54 1.084-1.083 1.299a4.138 4.138 0 0 1-1.299.218l-.331-2.166s-3.249-.543-3.683.755c-.434 1.299-.663 2.925-1.948 3.575a6.786 6.786 0 0 1-2.697.659Z" fill="#001550" stroke="#001550" stroke-width=".8" stroke-linecap="round" stroke-linejoin="round"/><path d="m103.646 32.614-.002-.002.002.002Zm-.001-.586.002-.003-.002.003Z" fill="#001550" stroke="#001550" stroke-width=".8"/><path d="M102.691 31.021s.759-1.083 1.842 0M101.285 35.354a1.495 1.495 0 0 0 1.408.974" stroke="#001550" stroke-width=".8" stroke-linecap="round" stroke-linejoin="round"/><path d="m99.117 38.819-2.71-2.491.434 3.465s.643-1.733 2.276-.974Z" fill="#001550" stroke="#001550" stroke-width=".8" stroke-linecap="round" stroke-linejoin="round"/><path d="m77.131 48.127-.977-.109a13.171 13.171 0 0 0-5.632-3.25c-3.355-.864-8.447.332-8.447.332s-5.631-3.14-9.315-5.523c-3.684-2.381-7.688-4.548-7.688-4.548s4.004-8.232 4.657-12.565c.653-4.332 1.514-7.132 2.057-8.125.543-.994 1.083-2.058 1.083-2.058s2.167.865 2.922.106c.755-.758.434-3.465.543-4.332.11-.868.332-3.247.332-4.224V2.413s.662-1.189-.216-.974c-.878.216-1.408.974-1.842 1.623-.433.65-2.381 4.97-3.792 7.258-1.412 2.29-5.632 9.1-8.338 13.864-2.707 4.763-4.555 10.845-5.532 13.012-.978 2.166-.106 4.223.33 4.548.438.325 5.632 5.74 10.075 8.447 4.442 2.707 6.933 4.658 8.34 5.201 1.409.543 5.417 3.465 5.847 4.969.431 1.504-1.732 9.53-.105 14.837 1.626 5.307 2.057 8.99 1.947 11.048-.109 2.057-1.623 4.548-1.623 8.447 0 3.899 1.948 10.932 2.167 12.131.218 1.199 1.083 5.631 1.083 7.148 0 1.518-.434 4.969-.219 5.417.216.447 2.925.758 3.793.54a9.194 9.194 0 0 1 2.382-.434c.865 0 3.031.331 4.333.331s2.491.109 2.597-.331c.106-.441-1.083-.974-1.514-1.084-.43-.109-3.144-1.083-4.442-2.597-1.299-1.514-2.707-2.925-3.031-3.793-.325-.868.331-11.478.758-15.052.428-3.575.974-7.583 1.19-8.557.215-.974 1.192-3.034 1.732-7.042.54-4.009 1.408-14.947 1.517-15.812.172-.913.393-1.817.663-2.706 0 0 6.39-1.192 7.907-1.192 1.517 0 3.684-.11 4.767-.663 1.083-.553 1.299-2.276.106-3.574-1.193-1.299-4.969-3.035-6.294-5.3a20.97 20.97 0 0 0-2.166-3.25l-1.955-.746Z" fill="#fff" stroke="#001550" stroke-width=".8" stroke-linecap="round" stroke-linejoin="round"/><path d="m76.518 48.065-.364-.04a13.171 13.171 0 0 0-5.632-3.25c-3.355-.864-8.447.331-8.447.331s-5.631-3.14-9.315-5.522c-3.684-2.382-7.688-4.548-7.688-4.548s4.004-8.232 4.657-12.565c.146-.994.305-1.875.467-2.696a14.669 14.669 0 0 0-3.869-2.124c-1.325 2.22-2.73 4.558-3.856 6.543-2.71 4.767-4.548 10.832-5.525 12.999-.978 2.166-.106 4.223.33 4.548.438.324 5.632 5.74 10.075 8.447 4.442 2.706 6.933 4.657 8.34 5.2 1.409.544 5.417 3.466 5.847 4.97.431 1.504-1.732 9.53-.105 14.837 1.626 5.307 2.057 8.99 1.947 11.048-.109 2.057-1.623 4.548-1.623 8.447 0 3.899 1.948 10.931 2.167 12.131.03.172.076.414.129.702 2.216.45 3.78.192 4.86-.282.162-3.567.493-8.159.751-10.269.431-3.574.974-7.582 1.19-8.556.215-.974 1.192-3.035 1.732-7.043s1.408-14.947 1.517-15.811c.172-.914.393-1.817.663-2.707 0 0 .89-.168 2.087-.374-2.978-5.499-1.203-11.962-.335-14.416Z" fill="#001550" stroke="#001550" stroke-width=".8" stroke-linecap="round" stroke-linejoin="round"/><path d="M96.88 52.666c1.634-4.048.935-4.943.935-6.374 0-2.166.109-6.065.109-6.065l-.126-.192-.331-.282a18.813 18.813 0 0 1-.855 4.591c-.758 2.163-2.6 3.465-5.525 1.408-2.925-2.057-.865-5.416-.865-5.416s1.146-3.644 1.107-5.151l-1.17-.805c.027 1.375-.1 4.084-1.345 5.963-1.732 2.597-3.683 4.223-5.74 3.899a9.017 9.017 0 0 1-2.439-.739c-.05.331-.102.613-.162.848-.434 1.733-1.083 3.14-2.057 3.465a5.12 5.12 0 0 1-1.299.331s-.662 6.39 1.514 9.855c2.177 3.465 6.933 3.36 8.232 3.36 1.299 0 4.224-3.9 4.224-3.9s3.034-1.192 4.223-2.275c.696-.633 1.236-1.71 1.57-2.521Z" fill="#10B981" stroke="#001550" stroke-width=".8" stroke-linecap="round" stroke-linejoin="round"/><path d="M81.68 48.568s.107 3.031 3.141 3.68" stroke="#001550" stroke-width=".8" stroke-linecap="round" stroke-linejoin="round"/></svg>