<svg width="170" height="122" fill="none" xmlns="http://www.w3.org/2000/svg"><path opacity=".5" d="M131.103 41.279c-5.027-12.552-14.875-23.412-27.371-28.667-13.174-5.546-31.777-7.44-43.804 1.606-8.474 6.369-9.479 18.008-9.119 27.736.179 4.802.784 9.568 1.272 14.35.25 2.49 1.074 6.002.018 8.421-2.87 6.543-23.806 13.372-14.914 28.163 6.25 10.396 23.587 13.425 34.534 14.235 17.38 1.285 35.899-3.238 48.725-15.451 13.988-13.308 17.777-32.613 10.659-50.393Z" fill="#D9E3FF"/><path d="m93.71 79.038-.004.336a68.5 68.5 0 0 0 0 1.378c.006.503.02 1.013.047 1.405.014.195.033.368.057.499.012.064.027.128.049.184.01.027.026.062.05.095.022.03.067.083.144.11.03.01.077.022.121.032l.096.023.097.023a18.497 18.497 0 0 1 2.573.796c1.517.594 3.306 1.547 4.582 3.024 1.318 1.526 2.45 2.734 3.351 3.627.897.888 1.575 1.474 1.981 1.742.214.14.479.26.739.368l.24.099c.185.075.364.148.535.228.244.114.442.227.576.352.13.12.185.232.185.352 0 .67-.228 1.151-.628 1.998l-.202.429c-.139.299-.229.626-.305.953l-.089.404c-.041.195-.083.39-.134.591-.166.659-.407 1.28-.949 1.78-.594.547-1.093.979-1.503 1.263-.205.142-.38.241-.526.3-.148.06-.249.071-.314.06-.033-.005-.043-.013-.044-.014l-.003-.003-.008-.015c-.016-.043-.027-.138-.001-.319.044-.306.169-.733.337-1.308l.089-.305c.213-.733.426-1.845.575-2.799.075-.478.134-.92.169-1.262.017-.17.029-.318.033-.433.002-.058.003-.11.001-.156a.566.566 0 0 0-.024-.149l-.01-.028-.016-.025a5.102 5.102 0 0 0-2.151-1.865l-.009-.004c-.239-.1-1.011-.513-2.073-1.1a418.073 418.073 0 0 1-3.693-2.077 953.49 953.49 0 0 1-5.792-3.315 12.974 12.974 0 0 1-1.816-1.306c-.634-.546-1.174-1.13-1.405-1.627-.246-.525-.644-1.854-.987-3.076a120.684 120.684 0 0 1-.495-1.823c1.498.51 3.122.652 4.403.662a19.47 19.47 0 0 0 2.15-.104Z" fill="#fff" stroke="#001550" stroke-width=".5"/><path d="M86.793 78.079s1.107 4.309 1.618 5.406c.511 1.097 2.3 2.45 3.322 3.043 1.023.594 10.565 6.082 11.588 6.507a4.859 4.859 0 0 1 2.046 1.773c.087.252-.341 3.212-.758 4.647-.416 1.435-.682 2.198-.17 2.281.511.082 1.363-.59 2.553-1.687 1.189-1.097 1.023-2.705 1.534-3.806.512-1.1.853-1.687.853-2.532s-1.618-1.1-2.387-1.608c-.769-.507-2.652-2.28-5.281-5.323-2.629-3.043-7.326-3.885-7.576-3.971-.25-.087-.17-4.054-.17-4.054s-4.02.59-7.172-.676Z" stroke="#001550" stroke-width=".5" stroke-linecap="round" stroke-linejoin="round"/><path d="M106.985 92.103a15.903 15.903 0 0 1-1.993-1.766 4.968 4.968 0 0 1-1.242 2.916 4.807 4.807 0 0 1 1.617 1.555c.087.252-.341 3.212-.758 4.647-.416 1.435-.681 2.198-.17 2.281.511.082 1.364-.59 2.553-1.687 1.19-1.097 1.023-2.705 1.534-3.806.512-1.1.853-1.687.853-2.532s-1.625-1.1-2.394-1.608Z" fill="#fff" stroke="#001550" stroke-width=".5" stroke-linecap="round" stroke-linejoin="round"/><path d="M109.371 93.711c0-.654-.966-.954-1.758-1.288.081.411.01.838-.201 1.202-.216.349-.515.64-.872.846-.357.207-.76.322-1.173.337.087.252-.341 3.212-.758 4.647-.416 1.435-.682 2.198-.17 2.281.511.082 1.364-.59 2.553-1.687 1.189-1.097 1.023-2.705 1.534-3.806.512-1.1.845-1.687.845-2.532Z" fill="#001550" stroke="#001550" stroke-width=".5" stroke-linecap="round" stroke-linejoin="round"/><path d="m100.509 79.373.165-.08.444 2.132.02.094.078.056.147-.201-.147.202h.001l.003.003.014.01.055.04.208.151.754.546c.629.455 1.482 1.068 2.377 1.701.841.596 1.436 1.54 1.954 2.58.193.386.372.778.549 1.167l.181.395c.236.512.476 1.01.739 1.445.534.882 1.455 1.77 2.285 2.423.417.328.818.601 1.146.79.164.094.315.17.443.22.065.025.128.045.189.058.055.011.125.02.196.007a2.802 2.802 0 0 1 2.107.542l.005.005c.379.272.54.749.591 1.33.025.286.022.584.013.872l-.011.28c-.007.187-.015.368-.015.527 0 .243.016.485.034.748.051.782.114 1.74-.2 3.429-.21 1.132-.479 1.866-.826 2.314-.33.428-.744.611-1.315.611-.265 0-.425-.077-.532-.185-.114-.115-.195-.293-.244-.542-.088-.457-.05-1.048-.011-1.665l.014-.217v-.008a24.598 24.598 0 0 0-.256-4.27l-.003-.023-.008-.022a.363.363 0 0 0-.054-.098.898.898 0 0 0-.053-.064 2.714 2.714 0 0 0-.142-.14 13.283 13.283 0 0 0-.453-.393c-.258-.218-.582-.483-.944-.78l-.499-.41c-1.13-.931-2.484-2.066-3.453-3.027-.999-.99-3.15-2.526-5.113-3.894l-1.023-.712c-.606-.42-1.169-.81-1.647-1.15-.37-.261-.688-.491-.932-.678a4.179 4.179 0 0 1-.477-.4 1.215 1.215 0 0 1-.19-.348 4.862 4.862 0 0 1-.188-.606 15.269 15.269 0 0 1-.286-1.563 31.928 31.928 0 0 1-.194-1.819c1.193-.12 2.394-.503 3.309-.862.491-.194.904-.381 1.195-.52Z" fill="#fff" stroke="#001550" stroke-width=".5"/><path opacity=".1" d="m100.509 79.373.165-.08.444 2.132.02.094.078.056.147-.201-.147.202h.001l.003.003.014.01.055.04.208.151.754.546c.629.455 1.482 1.068 2.377 1.701.841.596 1.436 1.54 1.954 2.58.193.386.372.778.549 1.167l.181.395c.236.512.476 1.01.739 1.445.534.882 1.455 1.77 2.285 2.423.417.328.818.601 1.146.79.164.094.315.17.443.22.065.025.128.045.189.058.055.011.125.02.196.007a2.802 2.802 0 0 1 2.107.542l.005.005c.379.272.54.749.591 1.33.025.286.022.584.013.872l-.011.28c-.007.187-.015.368-.015.527 0 .243.016.485.034.748.051.782.114 1.74-.2 3.429-.21 1.132-.479 1.866-.826 2.314-.33.428-.744.611-1.315.611-.265 0-.425-.077-.532-.185-.114-.115-.195-.293-.244-.542-.088-.457-.05-1.048-.011-1.665l.014-.217v-.008a24.598 24.598 0 0 0-.256-4.27l-.003-.023-.008-.022a.363.363 0 0 0-.054-.098.898.898 0 0 0-.053-.064 2.714 2.714 0 0 0-.142-.14 13.283 13.283 0 0 0-.453-.393c-.258-.218-.582-.483-.944-.78l-.499-.41c-1.13-.931-2.484-2.066-3.453-3.027-.999-.99-3.15-2.526-5.113-3.894l-1.023-.712c-.606-.42-1.169-.81-1.647-1.15-.37-.261-.688-.491-.932-.678a4.179 4.179 0 0 1-.477-.4 1.215 1.215 0 0 1-.19-.348 4.862 4.862 0 0 1-.188-.606 15.269 15.269 0 0 1-.286-1.563 31.928 31.928 0 0 1-.194-1.819c1.193-.12 2.394-.503 3.309-.862.491-.194.904-.381 1.195-.52Z" fill="#fff" stroke="#001550" stroke-width=".5"/><path d="M95.737 80.528s.258 3.971.94 4.73c.682.76 7.243 4.903 9.201 6.845 1.959 1.943 5.452 4.565 5.539 4.817.206 1.398.291 2.813.254 4.226-.084 1.352-.254 2.874 1.022 2.874 1.277 0 1.963-.845 2.387-3.13.424-2.284.17-3.294.17-4.222 0-.928.258-2.536-.681-3.212a3.047 3.047 0 0 0-2.3-.59c-.428.082-2.981-1.69-4.004-3.381-1.023-1.69-1.705-4.396-3.493-5.662a328.44 328.44 0 0 1-3.409-2.45l-.511-2.453s-2.64 1.44-5.115 1.608Z" stroke="#001550" stroke-width=".5" stroke-linecap="round" stroke-linejoin="round"/><path d="M103.799 83.132c-1.364-.973-2.436-1.758-2.436-1.758l-.087-.421c-1.193.886-3.258 2.111-5.304 1.86.152 1.025.38 2.088.697 2.445.488.435 1.007.833 1.554 1.191.655.034 4.193.064 5.576-3.317Z" fill="#001550" stroke="#001550" stroke-width=".5" stroke-linecap="round" stroke-linejoin="round"/><path d="M114.569 93.456a3.045 3.045 0 0 0-2.3-.59 2.096 2.096 0 0 1-.943-.428 3.282 3.282 0 0 1-.845 2.287c-.273.297-.519.541-.739.752.592.445 1.152.93 1.675 1.454.207 1.399.291 2.813.254 4.226-.084 1.353-.254 2.874 1.022 2.874 1.277 0 1.963-.845 2.387-3.129.424-2.284.17-3.295.17-4.223 0-.928.258-2.543-.681-3.223Z" fill="#fff" stroke="#001550" stroke-width=".5" stroke-linecap="round" stroke-linejoin="round"/><path d="M115.08 100.898c.428-2.28.17-3.295.17-4.223 0-.928.258-2.536-.682-3.212a3.054 3.054 0 0 0-2.299-.59s1.193.421 1.364 1.435c.17 1.015-.087 2.367-.853 2.788a1.163 1.163 0 0 1-1.363-.169c.206 1.399.291 2.813.254 4.226-.084 1.353-.254 2.874 1.022 2.874 1.277 0 1.951-.852 2.387-3.129Z" fill="#001550" stroke="#001550" stroke-width=".5" stroke-linecap="round" stroke-linejoin="round"/><path d="m102.949 78.393.064.243a38.056 38.056 0 0 1-1.827 1.005c-1.127.58-2.481 1.196-3.467 1.4a9.616 9.616 0 0 1-3.963-.196v-1.729l-.452.672a1.145 1.145 0 0 1-.435.21c-.396.103-1.12.152-2.375-.138-1.247-.287-2.609-.909-3.668-1.465a26.782 26.782 0 0 1-1.66-.95l-.024-.015a142.553 142.553 0 0 1-.167-4.179 66.75 66.75 0 0 1-.012-3.293c.013-.496.036-.943.071-1.314.036-.376.083-.658.138-.832.276-.868.153-1.724.012-2.524l-.036-.207c-.132-.739-.255-1.428-.138-2.12.132-.782.597-2.197 1.038-3.437a85.401 85.401 0 0 1 .754-2.033c2.56.904 5.517.851 7.842.573a29.023 29.023 0 0 0 2.98-.518 23.82 23.82 0 0 0 .967-.241l.146.364c.14.357.33.853.532 1.416.404 1.13.844 2.505 1.01 3.537.256 1.582.22 2.816.187 3.922-.01.352-.02.69-.02 1.023 0 .195.045.517.116.913.072.403.175.902.297 1.46.245 1.115.572 2.474.898 3.788.326 1.316.652 2.588.896 3.532l.296 1.133Z" fill="#001550" stroke="#001550" stroke-width=".5"/><path d="m94.12 82.809-2.095-13.213" stroke="#001550" stroke-width=".5"/><path d="M86.657 57.172s-1.621 4.133-1.894 5.748c-.273 1.615.682 3.208.17 4.816-.51 1.608-.033 9.836-.033 9.836s2.98 1.942 5.538 2.532c2.557.59 3.068-.17 3.068-.17v1.102a9.868 9.868 0 0 0 4.258.251c2.046-.42 5.539-2.532 5.539-2.532s-2.607-9.835-2.607-11.188c0-1.352.171-2.874-.17-4.985-.341-2.112-1.788-5.58-1.788-5.58s-6.97 2.112-12.08.17Z" stroke="#001550" stroke-width=".5" stroke-linecap="round" stroke-linejoin="round"/><path d="M97.992 64.436c.19-2.249-.532-5.288-.943-6.772l-.179.036c.403 1.452 1.128 4.5.942 6.72l.18.016Zm0 0c-.065.784.05 1.96.26 3.282a60.57 60.57 0 0 0 .864 4.263 74.88 74.88 0 0 0 1.03 3.905c.162.546.313 1.02.445 1.396.129.368.245.657.338.821.237.435.434.891.588 1.362l-.162.085m-3.363-15.114 3.363 15.114m0 0a8.009 8.009 0 0 0-.579-1.35l-.004-.006c-.081-.141-.196-.414-.336-.805a29.385 29.385 0 0 1-.462-1.431 70.702 70.702 0 0 1-1.05-3.985 59.968 59.968 0 0 1-.86-4.315c-.21-1.347-.313-2.496-.251-3.237l3.542 15.129ZM102.366 79.03a30.956 30.956 0 0 0-1.517-4.279v-.002c-.693-1.544-1.24-3.711-1.592-5.792-.353-2.082-.507-4.046-.425-5.181l3.534 15.255Zm0 0 .163-.09a51.757 51.757 0 0 0-1.896-5.617c-1.368-3.051-1.783-7.247-1.618-9.553.062-.856-.078-2.038-.286-3.226a59.021 59.021 0 0 0-.65-3.097l-.181.05 4.468 21.534Z" fill="#fff" stroke="#fff" stroke-width=".5"/><path d="m103.973 44.88-1.723-.89M102.844 43.82l-1.364.507" stroke="#001550" stroke-width=".5" stroke-linecap="round" stroke-linejoin="round"/><path d="m103.958 44.868-.185-.168h-.001l-.001.002-.004.005-.018.019-.067.074-.25.271a78.41 78.41 0 0 1-.835.888c-.661.691-1.454 1.49-2.005 1.952-.328.275-.598.744-.822 1.262-.227.526-.42 1.136-.576 1.727a22.347 22.347 0 0 0-.527 2.588c-.02.173.014.436.06.704.049.28.119.602.19.915l.084.37.113.497c.027.124.049.232.064.318.017.091.022.143.022.162 0 .082-.08.344-.402.657-.313.304-.837.639-1.669.868-.856.236-2.36.575-3.819.826-.729.125-1.444.227-2.059.284-.621.057-1.119.065-1.426.012-.645-.112-1.536-.48-2.312-.894a9.438 9.438 0 0 1-1.004-.61 3.543 3.543 0 0 1-.33-.262.82.82 0 0 1-.153-.17c-.097-.173-.093-.451.004-.888.044-.197.103-.409.167-.64l.012-.045c.068-.245.14-.509.2-.782.122-.553.24-1.9.358-3.407.036-.46.071-.938.107-1.415.083-1.098.165-2.198.248-3.098.115-1.241.82-2.864 1.517-4.201a30.95 30.95 0 0 1 1.323-2.286l.022-.034.006-.008.001-.002.088-.133-.083-.136-.213.13.213-.13-.002-.002-.005-.009-.02-.032-.077-.127a240.275 240.275 0 0 1-1.208-2.004c-.72-1.207-1.563-2.643-2.064-3.576-.5-.93-1.415-2.864-2.214-4.677-.4-.905-.769-1.778-1.041-2.478a17.3 17.3 0 0 1-.326-.897 2.573 2.573 0 0 1-.125-.488c-.01-.156.041-.37.181-.658.138-.285.35-.616.624-1.002.36-.504.816-1.08 1.338-1.742.279-.352.576-.729.889-1.131.875-1.128 2.578-2.762 4.078-4.124a112.891 112.891 0 0 1 2.543-2.24l.164-.14.043-.036.01-.009.004-.002-.16-.192.16.191.094-.078-.005-.122a3.585 3.585 0 0 1 .387-1.75c.1-.172.331-.431.65-.745.317-.31.7-.653 1.082-.987.177-.156.356-.311.527-.46.192-.165.374-.323.53-.461.151-.133.284-.253.39-.354.092-.088.176-.172.23-.242.249-.241.569-.398.914-.447l.102-.015.062-.082.001-.001.003-.004.012-.015.044-.058a28.747 28.747 0 0 1 .584-.735c.023-.028.04-.032.063-.032.035 0 .088.014.156.05a1.071 1.071 0 0 1 .228.16l.013.013.002.002.103.103.14-.04a1.66 1.66 0 0 1 .576-.055c.004.006.01.015.015.027.027.055.05.137.067.234a2.418 2.418 0 0 1 .032.348v.364l.321-.095h.001l.011-.003a.563.563 0 0 1 .179-.012c.041.006.056.018.061.023.001.001.023.023.023.105 0 0-.001.011-.011.04a.797.797 0 0 1-.05.116 3.25 3.25 0 0 1-.211.35c-.183.268-.429.583-.679.886a28.987 28.987 0 0 1-.913 1.05l-.063.069-.017.018-.004.004v.002h-.001l.183.17-.183-.17-.636.686.893-.277.002-.001.009-.003.033-.01a3.867 3.867 0 0 1 .483-.102c.11-.014.201-.017.264-.01a.27.27 0 0 1-.028.031c-.053.051-.138.106-.265.175l-.146.077c-.225.116-.51.264-.755.473-.25.214-.44.508-.596.747l-.102.155a1.547 1.547 0 0 1-.25.305c-.073.063-.134.086-.196.086-.182 0-.429.064-.684.147-.266.086-.572.205-.885.335-.602.25-1.243.547-1.686.753l-.052.024c-.15.07-.3.193-.442.338a5.146 5.146 0 0 0-.45.54c-.309.417-.64.947-.969 1.513-.645 1.114-1.29 2.39-1.734 3.269l-.023.044c-.432.856-1.22 1.927-1.908 2.793a40.39 40.39 0 0 1-1.234 1.475l-.02.022-.004.005-.001.001-.119.133.086.155.219-.12-.22.12.002.002.003.005.011.021a18.482 18.482 0 0 0 .27.466c.207.356.55.93 1.084 1.81.52.856.94 1.932 1.233 2.804a23.08 23.08 0 0 1 .421 1.402l.022.084.005.021.001.006v.001l.022.087.071.053c.9.68 1.842 1.301 2.821 1.862a62.256 62.256 0 0 0 2.984 1.626l.045.023.012.006.003.001h.001l.11-.223-.11.224.029.014.032.007h.006l.017.004.068.015.25.053c.213.045.508.11.837.185.662.15 1.453.344 1.997.517.543.173 1.38.507 2.087.802a70.112 70.112 0 0 1 1.172.498l.074.032.019.009.004.002h.002l.101-.228-.101.228.048.022h.074a5.247 5.247 0 0 1 .33.013c.224.013.539.04.901.094.729.109 1.627.323 2.359.742.712.408 1.054.92 1.307 1.477.091.2.168.4.248.606l.108.277c.121.302.257.614.447.912.353.557 1.242 1.983 2.043 3.27l1.056 1.7.333.535.091.148.024.039.007.01.001.002h.001l.212-.131m-8.258-3.032.194-.157.002.002.007.008.027.033a54.413 54.413 0 0 0 .489.588c.327.388.781.917 1.29 1.484 1.025 1.143 2.252 2.415 3.115 3.014.651.452 1.314 1.016 1.923 1.534.234.199.46.39.673.567.392.323.742.591 1.041.768.15.088.278.15.386.183a.47.47 0 0 0 .23.026.432.432 0 0 0 .091-.058c.062-.048.14-.12.232-.215.184-.192.409-.464.665-.799a41.438 41.438 0 0 0 1.753-2.538c1.252-1.939 2.52-4.118 3.016-5.19.425-.92.721-1.729.966-2.396l.123-.335c.133-.36.255-.675.38-.93.123-.249.261-.468.44-.609.093-.073.222-.243.37-.499.143-.247.29-.546.425-.85.272-.61.49-1.213.544-1.405 0 .002.004-.015.006-.06.003-.041.004-.095.003-.161a9.388 9.388 0 0 0-.024-.501 39.096 39.096 0 0 0-.127-1.366 89.306 89.306 0 0 0-.202-1.712l-.002-.018-.331-.15-.015-.006-.014-.009-.396-.245a11.226 11.226 0 0 0-.448.078 48.653 48.653 0 0 0-.337 2.538l-.03.358-.007.1-.002.027-.001.006v.002l-.249-.018.249.018-.008.107-.082.068-1.068.883-.381.314-.028-.493-.11-1.93a.833.833 0 0 0-.103-.048.288.288 0 0 0-.094-.021.626.626 0 0 0-.018.078c-.01.063-.018.146-.024.248-.01.175-.013.386-.016.614l-.001.114c-.004.268-.01.553-.03.81-.02.245-.054.491-.127.675a3.666 3.666 0 0 0-.059 2.013c.127.297.211.61.25.93l.005.043-.009.042a5.67 5.67 0 0 1-1.241 2.464l-.003.004c-.478.533-1.697 1.83-2.793 2.99-.548.581-1.067 1.13-1.449 1.532l-.457.481-.126.133-.032.034-.009.01-.002.001-.001.001-.181-.172m-8.258-3.032-.185-.168.195-.215.184.226-.194.157Zm8.258 3.032.181.172-.223.235-.17-.275.212-.132ZM99.666 8.347l.002.001a.006.006 0 0 1-.002-.001Z" fill="#fff" stroke="#001550" stroke-width=".5"/><path opacity=".1" d="m103.958 44.868-.185-.168h-.001l-.001.002-.004.005-.018.019-.067.074-.25.271a78.41 78.41 0 0 1-.835.888c-.661.691-1.454 1.49-2.005 1.952-.328.275-.598.744-.822 1.262-.227.526-.42 1.136-.576 1.727a22.347 22.347 0 0 0-.527 2.588c-.02.173.014.436.06.704.049.28.119.602.19.915l.084.37.113.497c.027.124.049.232.064.318.017.091.022.143.022.162 0 .082-.08.344-.402.657-.313.304-.837.639-1.669.868-.856.236-2.36.575-3.819.826-.729.125-1.444.227-2.059.284-.621.057-1.119.065-1.426.012-.645-.112-1.536-.48-2.312-.894a9.438 9.438 0 0 1-1.004-.61 3.543 3.543 0 0 1-.33-.262.82.82 0 0 1-.153-.17c-.097-.173-.093-.451.004-.888.044-.197.103-.409.167-.64l.012-.045c.068-.245.14-.509.2-.782.122-.553.24-1.9.358-3.407.036-.46.071-.938.107-1.415.083-1.098.165-2.198.248-3.098.115-1.241.82-2.864 1.517-4.201a30.95 30.95 0 0 1 1.323-2.286l.022-.034.006-.008.001-.002.088-.133-.083-.136-.213.13.213-.13-.002-.002-.005-.009-.02-.032-.077-.127a240.275 240.275 0 0 1-1.208-2.004c-.72-1.207-1.563-2.643-2.064-3.576-.5-.93-1.415-2.864-2.214-4.677-.4-.905-.769-1.778-1.041-2.478a17.3 17.3 0 0 1-.326-.897 2.573 2.573 0 0 1-.125-.488c-.01-.156.041-.37.181-.658.138-.285.35-.616.624-1.002.36-.504.816-1.08 1.338-1.742.279-.352.576-.729.889-1.131.875-1.128 2.578-2.762 4.078-4.124a112.891 112.891 0 0 1 2.543-2.24l.164-.14.043-.036.01-.009.004-.002-.16-.192.16.191.094-.078-.005-.122a3.585 3.585 0 0 1 .387-1.75c.1-.172.331-.431.65-.745.317-.31.7-.653 1.082-.987.177-.156.356-.311.527-.46.192-.165.374-.323.53-.461.151-.133.284-.253.39-.354.092-.088.176-.172.23-.242.249-.241.569-.398.914-.447l.102-.015.062-.082.001-.001.003-.004.012-.015.044-.058a28.747 28.747 0 0 1 .584-.735c.023-.028.04-.032.063-.032.035 0 .088.014.156.05a1.071 1.071 0 0 1 .228.16l.013.013.002.002.103.103.14-.04a1.66 1.66 0 0 1 .576-.055c.004.006.01.015.015.027.027.055.05.137.067.234a2.418 2.418 0 0 1 .032.348v.364l.321-.095h.001l.011-.003a.563.563 0 0 1 .179-.012c.041.006.056.018.061.023.001.001.023.023.023.105 0 0-.001.011-.011.04a.797.797 0 0 1-.05.116 3.25 3.25 0 0 1-.211.35c-.183.268-.429.583-.679.886a28.987 28.987 0 0 1-.913 1.05l-.063.069-.017.018-.004.004v.002h-.001l.183.17-.183-.17-.636.686.893-.277.002-.001.009-.003.033-.01a3.867 3.867 0 0 1 .483-.102c.11-.014.201-.017.264-.01a.27.27 0 0 1-.028.031c-.053.051-.138.106-.265.175l-.146.077c-.225.116-.51.264-.755.473-.25.214-.44.508-.596.747l-.102.155a1.547 1.547 0 0 1-.25.305c-.073.063-.134.086-.196.086-.182 0-.429.064-.684.147-.266.086-.572.205-.885.335-.602.25-1.243.547-1.686.753l-.052.024c-.15.07-.3.193-.442.338a5.146 5.146 0 0 0-.45.54c-.309.417-.64.947-.969 1.513-.645 1.114-1.29 2.39-1.734 3.269l-.023.044c-.432.856-1.22 1.927-1.908 2.793a40.39 40.39 0 0 1-1.234 1.475l-.02.022-.004.005-.001.001-.119.133.086.155.219-.12-.22.12.002.002.003.005.011.021a18.482 18.482 0 0 0 .27.466c.207.356.55.93 1.084 1.81.52.856.94 1.932 1.233 2.804a23.08 23.08 0 0 1 .421 1.402l.022.084.005.021.001.006v.001l.022.087.071.053c.9.68 1.842 1.301 2.821 1.862a62.256 62.256 0 0 0 2.984 1.626l.045.023.012.006.003.001h.001l.11-.223-.11.224.029.014.032.007h.006l.017.004.068.015.25.053c.213.045.508.11.837.185.662.15 1.453.344 1.997.517.543.173 1.38.507 2.087.802a70.112 70.112 0 0 1 1.172.498l.074.032.019.009.004.002h.002l.101-.228-.101.228.048.022h.074a5.247 5.247 0 0 1 .33.013c.224.013.539.04.901.094.729.109 1.627.323 2.359.742.712.408 1.054.92 1.307 1.477.091.2.168.4.248.606l.108.277c.121.302.257.614.447.912.353.557 1.242 1.983 2.043 3.27l1.056 1.7.333.535.091.148.024.039.007.01.001.002h.001l.212-.131m-8.258-3.032.194-.157.002.002.007.008.027.033a54.413 54.413 0 0 0 .489.588c.327.388.781.917 1.29 1.484 1.025 1.143 2.252 2.415 3.115 3.014.651.452 1.314 1.016 1.923 1.534.234.199.46.39.673.567.392.323.742.591 1.041.768.15.088.278.15.386.183a.47.47 0 0 0 .23.026.432.432 0 0 0 .091-.058c.062-.048.14-.12.232-.215.184-.192.409-.464.665-.799a41.438 41.438 0 0 0 1.753-2.538c1.252-1.939 2.52-4.118 3.016-5.19.425-.92.721-1.729.966-2.396l.123-.335c.133-.36.255-.675.38-.93.123-.249.261-.468.44-.609.093-.073.222-.243.37-.499.143-.247.29-.546.425-.85.272-.61.49-1.213.544-1.405 0 .002.004-.015.006-.06.003-.041.004-.095.003-.161a9.388 9.388 0 0 0-.024-.501 39.096 39.096 0 0 0-.127-1.366 89.306 89.306 0 0 0-.202-1.712l-.002-.018-.331-.15-.015-.006-.014-.009-.396-.245a11.226 11.226 0 0 0-.448.078 48.653 48.653 0 0 0-.337 2.538l-.03.358-.007.1-.002.027-.001.006v.002l-.249-.018.249.018-.008.107-.082.068-1.068.883-.381.314-.028-.493-.11-1.93a.833.833 0 0 0-.103-.048.288.288 0 0 0-.094-.021.626.626 0 0 0-.018.078c-.01.063-.018.146-.024.248-.01.175-.013.386-.016.614l-.001.114c-.004.268-.01.553-.03.81-.02.245-.054.491-.127.675a3.666 3.666 0 0 0-.059 2.013c.127.297.211.61.25.93l.005.043-.009.042a5.67 5.67 0 0 1-1.241 2.464l-.003.004c-.478.533-1.697 1.83-2.793 2.99-.548.581-1.067 1.13-1.449 1.532l-.457.481-.126.133-.032.034-.009.01-.002.001-.001.001-.181-.172m-8.258-3.032-.185-.168.195-.215.184.226-.194.157Zm8.258 3.032.181.172-.223.235-.17-.275.212-.132ZM99.666 8.347l.002.001a.006.006 0 0 1-.002-.001Z" fill="#fff" stroke="#001550" stroke-width=".5"/><path d="M96.143 35.822s-1.307-.647-3.03-1.65a26.594 26.594 0 0 1-2.796-1.844s-.644-2.63-1.713-4.388c-1.068-1.758-1.363-2.296-1.363-2.296s2.314-2.588 3.204-4.35c.89-1.762 2.61-5.177 3.5-5.59.89-.414 2.652-1.236 3.202-1.236.549 0 .757-.883 1.307-1.353.549-.47 1.303-.586 1.303-1 0-.412-1.137-.06-1.137-.06s2.016-2.174 2.016-2.704c0-.53-.595-.353-.595-.353s0-.823-.296-.883a1.91 1.91 0 0 0-.712.06s-.534-.53-.83-.177c-.295.353-.651.823-.651.823a1.9 1.9 0 0 0-1.068.53c-.296.413-2.966 2.472-3.44 3.295a3.836 3.836 0 0 0-.417 1.878s-5.099 4.294-6.879 6.59c-1.78 2.295-3.144 3.82-3.084 4.703.061.883 2.728 6.763 3.736 8.64 1.007 1.88 3.382 5.764 3.382 5.764s-2.67 4.057-2.909 6.646c-.239 2.588-.473 6.826-.708 7.89-.235 1.062-.656 2.002-.356 2.531.299.53 2.606 1.822 3.974 2.06 1.367.236 5.682-.65 7.413-1.128 1.731-.477 2.254-1.413 2.254-1.766s-.595-2.408-.534-2.938c.06-.53.712-4.47 1.837-5.413 1.125-.943 3.205-3.235 3.205-3.235s3.201 3.941 4.981 5.177c1.781 1.236 3.618 3.295 4.448 3.118.829-.176 4.924-6.762 5.932-8.941 1.007-2.179 1.303-3.757 1.837-4.178.534-.42 1.307-2.468 1.424-2.881.118-.413-.356-4.058-.356-4.058l-.458-.206-.474-.293s-.416.056-.655.116c-.239.06-.473 3.235-.473 3.235l-1.069.883-.117-2.059s-.474-.353-.652-.06c-.178.293 0 2.002-.238 2.588a3.92 3.92 0 0 0-.061 2.18c.122.28.202.576.239.879a5.421 5.421 0 0 1-1.186 2.355c-.951 1.06-4.864 5.177-4.864 5.177s-2.849-4.59-3.557-5.707c-.708-1.115-.655-2.472-2.197-3.355-1.542-.882-3.735-.882-3.735-.882s-2.273-1-3.383-1.353c-1.11-.353-3.201-.781-3.201-.781Z" stroke="#001550" stroke-width=".3" stroke-linecap="round" stroke-linejoin="round"/><path d="m96.143 35.833-.112.224-.002-.001-.004-.003-.02-.01-.073-.037a61.447 61.447 0 0 1-1.186-.624c-1.409.65-2.578 1.861-3.407 2.94a15.52 15.52 0 0 0-1.233 1.875l-.065.12-.016.03-.003.007-.001.002-.007.013-.007.012-.002.002-.006.009-.021.033a19.016 19.016 0 0 0-.387.622 30.88 30.88 0 0 0-.937 1.664c-.697 1.338-1.402 2.96-1.517 4.201-.083.9-.165 2-.248 3.098-.035.478-.071.955-.107 1.416-.117 1.506-.236 2.853-.358 3.407-.06.273-.132.536-.2.782l-.012.045c-.064.23-.122.443-.166.64-.098.437-.102.715-.005.888a.819.819 0 0 0 .152.17c.085.077.196.165.33.261.27.192.62.405 1.005.61.776.415 1.667.783 2.312.894.307.053.805.046 1.427-.011a27.42 27.42 0 0 0 2.059-.285c1.459-.25 2.962-.59 3.819-.825.831-.23 1.356-.564 1.668-.868.323-.314.402-.575.402-.657 0-.02-.005-.07-.022-.162a8.748 8.748 0 0 0-.064-.318c-.033-.15-.072-.318-.113-.497l-.085-.37c-.07-.313-.14-.636-.188-.915-.047-.269-.08-.53-.06-.704a22.32 22.32 0 0 1 .526-2.588c.157-.591.35-1.202.576-1.727.218-.505.48-.962.797-1.24-1.364-.093-2.652-.833-3.465-1.844-.956-1.188-1.291-2.802-.267-4.212 1.388-1.916 3.799-3.323 5.148-4.006-.745-.32-1.981-.838-2.729-1.071-.556-.173-1.348-.359-2.005-.503a58.824 58.824 0 0 0-1.079-.224l-.067-.013-.017-.003-.004-.001h-.001l.047-.246Zm0 0-.112.224.03.015.034.006.048-.245Z" fill="#10B981" stroke="#001550" stroke-width=".5"/><path d="M97.052 42.047c1.538-2.123 4.387-3.622 5.542-4.167-.489-.214-2.273-.991-3.25-1.296-1.137-.353-3.201-.751-3.201-.751s-.542-.27-1.387-.729c-3.03 1.322-4.958 5.14-4.958 5.14s-2.671 4.057-2.91 6.645c-.238 2.589-.473 6.827-.708 7.89-.235 1.063-.655 2.002-.356 2.532.3.53 2.606 1.822 3.974 2.059 1.367.236 5.682-.65 7.413-1.127 1.731-.477 2.254-1.413 2.254-1.766s-.595-2.408-.534-2.938c.06-.53.712-4.47 1.837-5.414.148-.124.311-.27.485-.428-3.03.3-6.08-3.062-4.201-5.65Z" stroke="#001550" stroke-width=".5" stroke-linecap="round" stroke-linejoin="round"/><path d="M122.239 33.117a.993.993 0 0 0-.378.902c0 .676.087 2.453.087 2.453M121.66 32.899a1.18 1.18 0 0 0-.307.661v2.63M121.175 32.685a2.74 2.74 0 0 0-.337.916l-.152 2.394" stroke="#001550" stroke-width=".4" stroke-linecap="round" stroke-linejoin="round"/><path d="m120.402 35.995 1.773.687M119.789 40.168a2.496 2.496 0 0 1 .049-.943c.28-.439.616-.84 1-1.194M98.636 12.056l-1.273.586s-2.103-.451-2.78.789M100.056 8.998l-2.466 2.63M99.048 8.175l-2.595 3.058M97.567 8.821l-2.136 2.243M95.203 11.064l2.898.733M93.525 79.935l-1.587-11.86M91.854 69.002l-3.151-2.618M92.025 69.596l-2.3-.676" stroke="#001550" stroke-width=".5" stroke-linecap="round" stroke-linejoin="round"/><path d="m95.73 34.35-.05-.027-.003-.002-.013-.006a7.869 7.869 0 0 1-.229-.13 8.318 8.318 0 0 1-.548-.35 3.914 3.914 0 0 1-.54-.442c-.155-.159-.211-.27-.217-.326-.01-.11.013-.326.068-.625.053-.288.13-.625.21-.956.073-.296.148-.585.212-.83l.023-.087c.066-.254.121-.468.137-.564.025-.155.065-.352.114-.588v-.004c.049-.237.104-.509.158-.805.036-.203.195-.396.408-.576a4.39 4.39 0 0 1 .305-.23l.025-.017c.08-.055.168-.117.222-.171.167-.165.17-.406.163-.551a3.886 3.886 0 0 0-.017-.215l-.002-.026a2.084 2.084 0 0 1-.013-.193c0-.052.025-.13.141-.292.074-.101.166-.213.28-.352.068-.08.142-.171.226-.274.435-.504.98-.903 1.594-1.168a4.451 4.451 0 0 1 1.953-.358h.004c.946.024 1.947.571 2.719 1.388.771.817 1.277 1.864 1.277 2.836 0 .977-.455 1.827-.928 2.444a6.084 6.084 0 0 1-.915.954l-.006.005c-1.531.888-2.123 1.853-2.308 2.719a3.63 3.63 0 0 0-.049 1.138c.013.131.03.254.044.36l.009.065c.017.125.027.216.027.284 0 .203.036.386.071.537l.027.116c.024.1.041.171.048.237a.22.22 0 0 1-.002.07c-.001.007-.002.008-.003.009-.009.01-.061.05-.249.075l-.215.03c-.516.07-1.488.2-2.435.298-.552.057-1.09.101-1.522.115a5.653 5.653 0 0 1-.546-.004.876.876 0 0 1-.25-.04.086.086 0 0 1-.015-.01.156.156 0 0 1 .002-.052c.016-.097.08-.24.192-.436.063-.11.129-.216.198-.328l.176-.29a3.75 3.75 0 0 0 .332-.68 1.775 1.775 0 0 0-.256-1.63l-.034-.045Zm-.613 3.46h.001Z" fill="#fff" stroke="#001550" stroke-width=".5"/><path opacity=".1" d="m102.525 31.846-.009.008c-1.524.882-2.106 1.837-2.288 2.688-.09.42-.079.804-.048 1.122a8.648 8.648 0 0 0 .054.423c.016.125.027.219.027.29 0 .198.035.377.069.527l.027.112c.024.101.042.178.049.248.008.085-.008.107-.019.118-.02.021-.086.064-.278.09l-.215.029c-.515.07-1.488.202-2.436.299-.552.056-1.092.101-1.526.115a5.698 5.698 0 0 1-.55-.004.89.89 0 0 1-.269-.045c-.032-.016-.037-.028-.04-.032-.003-.01-.009-.033 0-.083.017-.107.086-.258.198-.453.063-.11.129-.218.198-.33.057-.092.115-.187.176-.29a3.7 3.7 0 0 0 .327-.668 1.724 1.724 0 0 0-.248-1.585l-.027-.036-.04-.021h-.001l-.003-.003-.013-.006-.05-.028a8.563 8.563 0 0 1-.732-.455 3.97 3.97 0 0 1-.547-.448c-.156-.16-.224-.282-.23-.357-.012-.116.013-.34.067-.638.053-.29.13-.627.212-.96.073-.295.148-.585.212-.83l.022-.087c.067-.255.12-.466.136-.559.026-.156.066-.353.114-.59l.001-.004c.049-.237.104-.508.157-.804.04-.221.21-.424.426-.605.105-.088.212-.165.308-.232l.025-.018c.08-.056.165-.115.216-.166.15-.148.154-.367.148-.513a3.808 3.808 0 0 0-.017-.213l-.002-.025a2.12 2.12 0 0 1-.013-.198c0-.068.033-.158.15-.32.075-.104.169-.217.284-.357.067-.081.142-.171.224-.274a4.5 4.5 0 0 1 3.588-1.544h.003c.963.025 1.976.581 2.754 1.405.777.823 1.291 1.882 1.291 2.87 0 .992-.462 1.853-.938 2.474a6.275 6.275 0 0 1-.866.915c-.025.022-.045.038-.058.048Z" fill="#fff" stroke="#001550" stroke-width=".4"/><path d="M102.628 32.02s1.959-1.503 1.959-3.61c0-2.108-2.175-4.422-4.239-4.475a4.703 4.703 0 0 0-2.063.379c-.65.28-1.227.703-1.688 1.236-.435.541-.704.808-.704 1.079 0 .27.106.646-.057.807-.163.162-.924.541-1.03 1.127-.106.587-.22 1.079-.273 1.402-.053.323-.708 2.532-.652 3.125.057.594 1.682 1.454 1.682 1.454a1.53 1.53 0 0 1 .22 1.402c-.273.807-1.303 1.833-.758 2.1.546.266 4.292-.267 5.111-.376.818-.109.325-.594.325-1.292 0-.7-.822-2.634 2.167-4.358Z" stroke="#001550" stroke-width=".5" stroke-linecap="round" stroke-linejoin="round"/><path d="M101.42 30.45s1.303-.917 1.413.052c.045.388-.042.78-.248 1.112a1.749 1.749 0 0 1-.889.721c-.594.214-.867-.54-.867-.54M95.946 29.217 95.62 29s-.22-.646.273-.913c.398-.259.762-.567 1.083-.916.11-.162-.542-.865-.704-.647M96.162 29c.176.133.38.226.598.27a.333.333 0 0 0 .334-.151.325.325 0 0 0 .045-.12M95.783 29.916s.436.323 1.792-.053" stroke="#001550" stroke-width=".5" stroke-linecap="round" stroke-linejoin="round"/><mask id="a" fill="#fff"><path d="M98.87 27.173c-.068.23-.216.376-.33.354-.113-.023-.155-.245-.086-.474.068-.229.216-.376.333-.353.117.023.151.248.083.473Z"/></mask><path d="M98.87 27.173c-.068.23-.216.376-.33.354-.113-.023-.155-.245-.086-.474.068-.229.216-.376.333-.353.117.023.151.248.083.473Z" fill="#263238"/><path d="m98.87 27.173-.478-.144v.002l.478.142Zm-.479-.142c-.016.053-.035.073-.03.068a.2.2 0 0 1 .061-.04.355.355 0 0 1 .216-.023l-.195.981c.306.06.535-.116.641-.227.124-.13.213-.298.266-.474l-.959-.285Zm.247.005c.131.026.21.106.244.157a.227.227 0 0 1 .039.083c0 .004-.004-.028.012-.08l-.959-.285c-.052.176-.07.37-.037.547.024.129.127.484.507.559l.194-.98Zm.295.16c.016-.053.034-.072.029-.067a.198.198 0 0 1-.062.04.348.348 0 0 1-.207.022l.188-.982c-.301-.058-.529.112-.64.226-.125.13-.214.3-.267.476l.959.285Zm-.24-.005a.388.388 0 0 1-.25-.16.232.232 0 0 1-.038-.087c0-.003.003.03-.013.085l.957.29a1.21 1.21 0 0 0 .042-.541c-.021-.128-.12-.494-.51-.569l-.188.982Z" fill="#001550" mask="url(#a)"/><mask id="b" fill="#fff"><path d="M96.487 27.222c-.064.23-.215.376-.33.353-.113-.022-.154-.244-.086-.473.068-.23.216-.376.333-.353.118.022.152.244.084.473Z"/></mask><path d="M96.487 27.222c-.064.23-.215.376-.33.353-.113-.022-.154-.244-.086-.473.068-.23.216-.376.333-.353.118.022.152.244.084.473Z" fill="#263238"/><path d="m96.487 27.222-.479-.142-.002.007.481.135Zm-.48-.135c-.014.048-.031.065-.026.06a.2.2 0 0 1 .06-.04.353.353 0 0 1 .214-.022l-.194.98c.304.061.533-.114.64-.225.126-.13.217-.301.268-.482l-.963-.271Zm.248-.002c.131.026.21.106.245.157a.227.227 0 0 1 .038.083c0 .004-.004-.028.012-.08l-.958-.286c-.053.177-.07.37-.037.548.023.128.126.483.506.559l.194-.981Zm.295.16c.016-.053.034-.073.03-.067a.198.198 0 0 1-.063.04.348.348 0 0 1-.207.022l.188-.982c-.301-.058-.529.112-.64.226-.125.13-.214.3-.266.475l.958.286Zm-.24-.005a.388.388 0 0 1-.248-.16c-.034-.05-.04-.087-.04-.089 0-.004.004.03-.014.089l.959.285a1.22 1.22 0 0 0 .041-.54c-.022-.132-.122-.493-.51-.567l-.188.982Z" fill="#001550" mask="url(#b)"/><path d="M97.9 26.576s1.137-.864 2.122.109M94.859 33.853s2.337.485 3.151.214a5.41 5.41 0 0 0 1.137-.484" stroke="#001550" stroke-width=".5" stroke-linecap="round" stroke-linejoin="round"/><path d="M98.145 7.617c0 3.543-2.896 6.418-6.472 6.418-3.577 0-6.473-2.875-6.473-6.418 0-3.542 2.896-6.417 6.472-6.417 3.577 0 6.473 2.875 6.473 6.417Z" fill="#FFBD14" stroke="#001550" stroke-width=".4"/><path d="M91.672 14.235c3.686 0 6.673-2.963 6.673-6.618C98.345 3.963 95.358 1 91.673 1 87.987 1 85 3.963 85 7.617c0 3.655 2.987 6.618 6.672 6.618Z" stroke="#001550" stroke-width=".5" stroke-linecap="round" stroke-linejoin="round"/><path d="M97.063 11.509c.096-.478.144-.963.143-1.45a7.478 7.478 0 0 0-.885-3.52 7.55 7.55 0 0 0-2.442-2.7 7.648 7.648 0 0 0-7.057-.771" stroke="#001550" stroke-width=".5" stroke-linecap="round" stroke-linejoin="round"/><path d="M86.397 11.623c3.568 2.03 8.397.329 10.789-3.798.377-.653.68-1.345.901-2.064" stroke="#001550" stroke-width=".5" stroke-linecap="round" stroke-linejoin="round"/><path d="M85.123 8.454c1.319.707 2.843.687 4.563.605 1.405-.06 6.296-1.263 6.697 1.09.23 1.311-1.499 2.891-3.252 3.895M91.673 1a4.64 4.64 0 0 1 2.162.645c.655.39 1.203.934 1.594 1.585.844 1.296 1.56 3.709 2.781 5.33" stroke="#001550" stroke-width=".5" stroke-linecap="round" stroke-linejoin="round"/><path d="M73.281 43.77a7.104 7.104 0 0 0-3.56-1.578c-.788-.131-.929-.751-1.637-.826-2.273-.3-4.701.3-5.978 3.005-1.276 2.705.152 5.61 2.55 6.406 1.42.473 4.606.698 4.606.698l4.02-7.705Z" fill="#fff" stroke="#001550" stroke-width=".5" stroke-linecap="round" stroke-linejoin="round"/><path d="M68.307 45.765c-.901-.894.898-1.022.64-1.405-.257-.383-1.412-.376-2.185-.376-.55 0-.447-.45-.114-1.074l.114-.075a3.28 3.28 0 0 0 .379-.73l.026-.037a.422.422 0 0 0 .076-.263c.12-.412.182-.84.182-1.27 0-1.404-3.478-1.149-3.607-.375l-.128.751s-1.671.894-1.929 2.044c-.204.913.485.778.777.684a5.834 5.834 0 0 0-.413.729c-1.273 2.7.152 5.609 2.55 6.405 1.42.473 4.606.699 4.606.699l1.788-3.43c-.583-.755-1.996-1.518-2.762-2.277Z" fill="#001550" stroke="#001550" stroke-width=".5" stroke-linecap="round" stroke-linejoin="round"/><path d="M68.28 45.07s-.586-.5-1.075.402 1.959 1.199 2.743 1.1c.784-.097-.197-1.1-.197-1.1" fill="#fff"/><path d="M68.28 45.07s-.586-.5-1.075.402 1.959 1.199 2.743 1.1c.784-.097-.197-1.1-.197-1.1" stroke="#001550" stroke-width=".5" stroke-linecap="round" stroke-linejoin="round"/><path d="m72.309 94.084-.076.217c-.126.355-.317.854-.576 1.43-.518 1.156-1.303 2.61-2.371 3.83-2.17 2.476-8.442 8.206-9.116 8.81-.182.163-.314.324-.385.512-.072.192-.07.382-.04.579.022.148.063.321.109.515l.04.167c.063.271.134.6.196 1.019.124.856.567 1.843.985 2.775l.063.142c.221.494.433.973.594 1.423.161.452.266.859.283 1.208.019.374.004.672-.04.898-.045.229-.115.357-.185.424-.06.057-.143.091-.285.074-.151-.017-.358-.093-.628-.252-1.577-.941-2.204-2.009-2.602-2.687-.096-.163-.178-.304-.258-.415l-.003-.004c-.587-.785-1.24-1.321-1.781-1.766a19.327 19.327 0 0 1-.284-.236c-.6-.504-.957-.893-.992-1.462-.04-.66.022-1.059.236-1.476.225-.438.62-.905 1.298-1.685 1.346-1.549 3.96-4.821 5.57-8.02.773-1.538 1.977-2.667 2.997-3.414.51-.373.97-.648 1.301-.83a8.948 8.948 0 0 1 .495-.252l.026-.012.006-.003h.002l.09-.04.04-.09.823-1.909c.903.375 2.06.502 2.996.538a17.283 17.283 0 0 0 1.472-.008Z" fill="#fff" stroke="#001550" stroke-width=".5"/><path d="m67.713 93.222-.925 2.141s-3.356 1.458-4.951 4.629c-1.595 3.17-4.194 6.424-5.535 7.968-1.34 1.544-1.678 1.969-1.594 3.34.083 1.371 1.761 1.799 3.106 3.599.379.53.92 1.968 2.936 3.171 1.136.672 1.59.169 1.515-1.372-.076-1.54-1.678-3.858-1.928-5.571-.25-1.713-.67-1.969 0-2.57.67-.601 6.955-6.341 9.137-8.832 2.182-2.49 3.186-5.913 3.186-5.913s-3.186.278-4.947-.59Z" stroke="#001550" stroke-width=".5" stroke-linecap="round" stroke-linejoin="round"/><path d="m55.977 111.476-.198-.029v.003l-.002.007-.004.029-.016.111-.057.402c-.047.336-.11.795-.173 1.283-.126.969-.254 2.076-.254 2.564s.108 1.317.212 2.082l.035.258c.04.293.079.572.11.816.04.318.063.562.063.698 0 .289-.042.566-.161.765-.11.183-.294.32-.646.32-.052 0-.15-.027-.3-.11a3.691 3.691 0 0 1-.498-.347 11.794 11.794 0 0 1-1.225-1.171c-.42-.455-.827-.947-1.153-1.397-.33-.456-.567-.853-.662-1.124-.097-.276-.174-.722-.229-1.268a22.217 22.217 0 0 1-.095-1.797c-.02-1.262.044-2.507.164-3.083.048-.228.225-.447.511-.652.282-.202.644-.371 1.008-.508a9.282 9.282 0 0 1 1.394-.392l.022-.004.006-.001h.001l.022-.004.02-.009-.077-.184.077.184h.002l.005-.003.018-.007.07-.031a15.554 15.554 0 0 0 1.101-.533c.662-.349 1.476-.835 2.042-1.369.284-.268.675-.729 1.129-1.283.185-.226.38-.468.585-.721.303-.375.626-.775.965-1.184 1.132-1.372 2.397-2.809 3.512-3.65a41.474 41.474 0 0 1 5.257-3.24l.065-.033.028-.067 1.007-2.385.01-.024.004-.025v-.002l.002-.008.005-.033a15.592 15.592 0 0 1 .45-1.968c.155-.512.35-1.022.582-1.416.238-.404.488-.64.735-.689.31-.063.793-.076 1.357-.049.56.027 1.184.094 1.771.184.588.091 1.13.206 1.528.328.2.061.354.122.458.178a.488.488 0 0 1 .1.067l.002.002c.002.04 0 .113-.013.222a6.27 6.27 0 0 1-.073.443c-.066.34-.162.748-.262 1.143a51.254 51.254 0 0 1-.371 1.388l-.026.093-.007.024-.002.007v.001l-.002.003-.003.012-.013.043a58.441 58.441 0 0 1-.866 2.678c-.252.717-.533 1.461-.812 2.088-.284.637-.552 1.123-.771 1.347-.224.23-.658.51-1.253.838-.517.286-1.138.6-1.813.941l-.282.142c-1.562.79-3.364 1.719-4.765 2.758-1.378 1.023-3.74 2.566-5.762 3.857-1.01.644-1.934 1.225-2.605 1.644-.335.21-.608.379-.796.496l-.217.134-.057.035-.014.009-.004.002v.001h-.001l.105.17Zm0 0-.198-.029.013-.092.08-.049.105.17Zm20.692-20.511Z" fill="#fff" stroke="#001550" stroke-width=".4"/><path d="m69.474 94.334-1.008 2.385a41.639 41.639 0 0 0-5.284 3.258c-2.273 1.713-5.118 5.823-6.209 6.852-1.09 1.03-3.178 1.905-3.178 1.905s-2.853.515-3.103 1.713-.253 5.057.167 6.255c.42 1.199 3.19 4.283 4.027 4.283.837 0 1.008-.684 1.008-1.285 0-.601-.421-2.911-.421-3.854 0-.943.504-4.37.504-4.37s6.701-4.132 9.47-6.187c2.77-2.055 7.148-3.686 8.137-4.7.989-1.014 2.516-6.255 2.516-6.255s.837-2.912.757-3.426c-.08-.515-4.11-1.127-5.45-.857-1.342.27-1.933 4.283-1.933 4.283Z" stroke="#001550" stroke-width=".5" stroke-linecap="round" stroke-linejoin="round"/><path d="m74.931 93.789.202-.942-.634.725-2.004 2.288-.085-.016a41.385 41.385 0 0 1-2.355-.55c-.286-.077-.659-.257-1.069-.495a16.982 16.982 0 0 1-1.224-.797 28.825 28.825 0 0 1-1.258-.944l.037-.092a205.367 205.367 0 0 0 1.194-2.962c.668-1.694 1.39-3.601 1.563-4.353.332-1.454.523-2.466.073-3.657-.2-.528-.428-1.575-.552-2.722-.126-1.148-.143-2.357.058-3.215.204-.872.78-2.265 1.316-3.456a66.247 66.247 0 0 1 .925-1.965 223.445 223.445 0 0 1 1.664.411c1.061.267 2.382.608 3.427.907 1.098.315 2.438.267 3.485.149a17.034 17.034 0 0 0 1.576-.255l.025.163c.042.28.106.687.191 1.201 1.1 6.736-.394 13.013-1.934 19.488-.324 1.364-.651 2.738-.956 4.126h-1.057c-.076 0-.318-.032-.669-.09-.34-.056-.754-.131-1.158-.206a143.125 143.125 0 0 1-1.315-.251l.534-2.49Z" fill="#001550" stroke="#001550" stroke-width=".5"/><path d="M70.982 70.346S69.054 74.201 68.633 76c-.42 1.8.084 4.97.504 6.083.42 1.112.25 2.055-.083 3.512-.334 1.458-2.853 7.54-2.853 7.54s2.516 2.055 3.789 2.401c1.272.346 2.598.597 2.598.597l2.099-2.396-.587 2.738s3.03.601 3.44.601h1.257c1.746-8.013 4.288-15.62 2.936-23.905-.17-1.025-.254-1.626-.254-1.626s-3.102.77-5.201.169c-2.099-.601-5.296-1.368-5.296-1.368Z" stroke="#001550" stroke-width=".5" stroke-linecap="round" stroke-linejoin="round"/><path d="m87.449 50.371-.2-.002V50.388l-.001.054-.003.207a308.556 308.556 0 0 1-.065 3.149c-.05 1.825-.128 3.845-.244 4.676-.229 1.65-1.195 3.55-1.554 4.239-.12.22-.31.395-.54.5-.231.106-.49.134-.739.082a4.998 4.998 0 0 1-.488-.158c-.229-.082-.5-.184-.76-.285-.259-.1-.507-.198-.69-.271l-.184-.074a9.512 9.512 0 0 0-1.153-3.94l-.001-.003c-.548-.962-.938-1.769-1.16-2.321a5.438 5.438 0 0 1-.164-.455c.15.072.297.15.441.232l.003.001a30.646 30.646 0 0 1 3.286 2.08l.212.153.092-.245-.187-.07.187.07v-.002l.002-.004.007-.018.026-.07.097-.26c.083-.223.198-.537.33-.904.261-.732.588-1.674.845-2.51a217.001 217.001 0 0 0 1.103-3.725l.087-.302.023-.082.006-.02.002-.006v-.001l-.192-.056m1.576.323-.2-.015v-.003l.001-.01.003-.033.01-.123.031-.392c.024-.29.053-.624.073-.774a4.069 4.069 0 0 0-.222-1.634c-.133-.305-.253-.811-.357-1.272l-.05-.224c-.087-.39-.16-.72-.222-.881a1.174 1.174 0 0 1-.034-.103l.017.145.006.043.001.011v.004l-.385.096v-.001l-.002-.003-.004-.012-.018-.048a11.866 11.866 0 0 0-.287-.702 5.36 5.36 0 0 0-.272-.54 1.375 1.375 0 0 0-.122-.177.415.415 0 0 0-.035-.037.574.574 0 0 0-.018.161l.657 1.578-.353.186.168-.109-.168.109v-.001l-.002-.003-.008-.011-.028-.044-.1-.157c-.085-.131-.2-.31-.32-.5-.241-.377-.51-.805-.612-.985a2.013 2.013 0 0 0-.35-.447 1.202 1.202 0 0 0-.13-.109l.013.051c.034.137.087.29.137.435l.065.191c.056.17.209.544.353.884.07.168.138.325.188.44l.059.137.016.037.005.01v.003l-.182.08.183-.08-.32.226a6.517 6.517 0 0 1-.895-1.039l-.01-.015-.008-.017a9.753 9.753 0 0 0-.57-1.088.1.1 0 0 0-.037.029c-.049.055-.104.19-.042.398.073.246.274.716.462 1.137a41.413 41.413 0 0 0 .324.704l.021.046.006.011.001.003v.001l-.18.086.18-.086.122.256-.28.03h-.005l-.019.002-.068.013a.831.831 0 0 0-.182.06c-.06.03-.078.054-.082.061v.01c.001.01.007.033.03.07.069.11.147.254.231.408l.018.034c.093.17.193.353.302.532.224.369.458.68.684.812.165.097.334.26.489.434.157.177.312.379.447.568a11.583 11.583 0 0 1 .436.658l.026.044.007.011.002.003v.001h.001l-.172.103m1.576.323-.2-.003v-.012l.2.015Zm-1.576-.323.172-.102.044.074-.024.083-.192-.055Zm-2.724-6.442Zm.95-.406v.002-.002Zm2.227.753.002.002-.002-.002Z" fill="#fff" stroke="#001550" stroke-width=".4"/><path d="M80.043 55.845a30.838 30.838 0 0 1 3.307 2.092s.792-2.092 1.303-3.756c.512-1.665 1.22-4.133 1.22-4.133s-.788-1.326-1.337-1.65c-.55-.322-1.027-1.408-1.303-1.852-.277-.443.473-.522.473-.522s-.67-1.409-.826-1.93c-.155-.523.235-.846.432-.606.221.363.419.74.591 1.127.253.365.544.703.868 1.007 0 0-.512-1.168-.63-1.529-.117-.36-.378-1.007-.158-1.007s.59.376.788.726c.197.349 1.064 1.69 1.064 1.69l-.67-1.612s-.038-.522.276-.402c.315.12.868 1.65.868 1.65s-.197-1.405.075-1.368c.273.038.16.752.319 1.169.159.417.379 1.81.629 2.374a4.27 4.27 0 0 1 .234 1.728c-.038.282-.117 1.33-.117 1.33s-.08 6.44-.314 8.13c-.235 1.69-1.22 3.622-1.576 4.305a1.375 1.375 0 0 1-.634.588 1.39 1.39 0 0 1-.863.096c-.379-.079-2.273-.845-2.273-.845a9.313 9.313 0 0 0-1.136-3.983c-1.102-1.934-1.576-3.26-1.341-3.182.25.108.494.23.731.365Z" stroke="#001550" stroke-width=".4" stroke-linecap="round" stroke-linejoin="round"/><path d="m83.706 46.024.906 1.206s1.34.203 1.894 1.127" fill="#fff"/><path d="m83.706 46.024.906 1.206s1.34.203 1.894 1.127M84.218 45.743l2.166-.042" stroke="#001550" stroke-width=".5" stroke-linecap="round" stroke-linejoin="round"/><path d="m75.43 48.602-.187-.073-.042.107.072.09.156-.124Zm0 0-.187-.073v-.001l.002-.004.006-.015.023-.06a96.75 96.75 0 0 0 .405-1.065c.263-.702.617-1.662.979-2.694a72.35 72.35 0 0 0 1.026-3.123c.297-.992.514-1.855.577-2.414.13-1.16.572-4.543.98-7.634a3567.823 3567.823 0 0 1 .717-5.408l.048-.36.002-.014a1.591 1.591 0 0 0-1.253-.285l-.003.007-.125.274a494.862 494.862 0 0 0-1.862 4.114c-1.051 2.352-2.155 4.887-2.403 5.687-.355 1.151-.368 2.014-.379 2.776-.004.3-.008.584-.033.864a3.007 3.007 0 0 1-.153.601c-.083.251-.198.556-.332.892-.27.675-.622 1.49-.98 2.288a118.985 118.985 0 0 1-1.586 3.404c-.04.08-.127.207-.235.361a54.317 54.317 0 0 1-.422.594c-.333.467-.756 1.07-1.183 1.74-.86 1.348-1.72 2.945-1.93 4.271-.213 1.36-.254 2.458-.2 3.298.053.845.201 1.415.353 1.726.077.157.293.492.595.94.2.296.433.634.678.992l.37.538c.75 1.095 1.539 2.27 1.8 2.848.266.59.402 1.388.474 2.144.073.76.081 1.5.081 1.98 0 .273-.082.595-.183.916-.058.184-.128.383-.197.58-.05.142-.1.283-.144.416-.11.33-.195.632-.22.884-.026.256.017.41.1.495.124.126.393.307.784.516.384.206.868.43 1.403.647 1.072.434 2.336.835 3.407 1.007 1.09.174 2.102.3 2.933.288.84-.012 1.435-.164 1.755-.485a7.48 7.48 0 0 0 1.626-3.328c.081-.5.145-2.064.145-3.841 0-1.777-.064-3.736-.23-5.007-.163-1.24-.98-2.9-1.833-4.38a58.003 58.003 0 0 0-1.3-2.134c-.298-.471-.533-.845-.636-1.049-.1-.199-.36-.583-.704-1.06a69.835 69.835 0 0 0-1.159-1.544 149.489 149.489 0 0 0-1.425-1.823l-.096-.12-.025-.032-.006-.008-.002-.002.156-.125Z" fill="#fff" stroke="#001550" stroke-width=".4"/><path d="M78.615 25.279s-3.94 8.566-4.444 10.196c-.503 1.63-.337 2.739-.42 3.682-.083.943-2.77 6.597-3.03 7.112-.262.514-3.357 4.282-3.789 7.025-.432 2.742-.166 4.456.17 5.143.338.688 2.937 4.196 3.44 5.312.504 1.116.538 3.085.538 4.043 0 .958-1.174 2.829-.587 3.43.587.6 3.523 1.878 5.705 2.227 2.182.35 4.11.511 4.868-.259a7.679 7.679 0 0 0 1.674-3.426c.17-1.03.254-6.342-.083-8.911-.337-2.57-3.353-6.763-3.788-7.627-.436-.864-3.44-4.624-3.44-4.624s2.77-7.112 3.03-9.426c.262-2.315 1.762-13.525 1.762-13.525a1.79 1.79 0 0 0-1.606-.372Z" stroke="#001550" stroke-width=".5" stroke-linecap="round" stroke-linejoin="round"/><path d="M73.735 56.938c.358-.411.65-.988.89-1.622.24-.637.432-1.346.58-2.032.296-1.368.424-2.665.424-3.15v-.959l.12.151c.287.366.676.862 1.078 1.386.402.523.817 1.072 1.158 1.544.345.477.605.861.705 1.06.103.204.338.578.635 1.049l.103.163c.349.554.775 1.237 1.198 1.972.852 1.48 1.67 3.138 1.833 4.379.166 1.27.23 3.23.23 5.007 0 1.777-.064 3.342-.145 3.842a7.48 7.48 0 0 1-1.626 3.327c-.32.32-.916.473-1.755.485-.83.012-1.844-.114-2.933-.288-1.071-.172-2.336-.573-3.407-1.007a15.012 15.012 0 0 1-1.403-.647c-.391-.21-.66-.39-.784-.516-.084-.086-.126-.239-.1-.495.025-.251.11-.553.22-.883.044-.134.094-.275.144-.417.069-.197.139-.396.197-.58.101-.32.183-.643.183-.915 0-.48-.003-1.219-.07-1.98-.065-.756-.196-1.555-.463-2.145-.26-.578-1.05-1.753-1.8-2.848l-.369-.538c-.245-.358-.478-.696-.678-.993-.302-.447-.518-.782-.595-.94-.152-.309-.296-.88-.348-1.724-.051-.84-.011-1.94.196-3.3.129-.843.526-1.8 1.022-2.733-.017.452-.022.982.003 1.527.043.952.18 1.976.528 2.718.436.938 1.305 1.87 2.245 2.373.471.252.974.403 1.459.38a1.824 1.824 0 0 0 1.325-.651Z" fill="#10B981" stroke="#001550" stroke-width=".4"/><path d="M73.584 56.806c-1.345 1.545-3.86-.255-4.697-2.054-.66-1.41-.546-3.968-.462-5.016-.686 1.165-1.3 2.446-1.47 3.558-.417 2.742-.167 4.456.17 5.143.338.688 2.936 4.196 3.44 5.312.504 1.116.515 3.085.515 4.043 0 .958-1.174 2.829-.587 3.43.587.6 3.523 1.878 5.705 2.227 2.182.35 4.11.511 4.868-.259a7.679 7.679 0 0 0 1.674-3.426c.17-1.03.254-6.342-.083-8.911-.337-2.57-3.353-6.763-3.788-7.627-.436-.864-3.44-4.624-3.44-4.624v1.532c0 .932-.504 5.132-1.845 6.672Z" stroke="#001550" stroke-width=".5" stroke-linecap="round" stroke-linejoin="round"/><path d="M50.692 110.462c-.254 1.198-.254 5.057.167 6.255.42 1.199 3.19 4.283 4.027 4.283.837 0 1.007-.684 1.007-1.285 0-.601-.42-2.911-.42-3.854 0-.834.379-3.614.485-4.242a4.394 4.394 0 0 0-.989-.128c-.758 0-.837 1.03-1.34.087-.505-.943.166-2.829.166-2.829s-2.853.515-3.103 1.713Z" fill="#fff" stroke="#001550" stroke-width=".7" stroke-linecap="round" stroke-linejoin="round"/><path d="m78.573 25.422-.246-2.326s.163.083 0-.21-2.818-4.527-2.818-4.527a.198.198 0 0 1 .096-.285.203.203 0 0 1 .112-.012c.33 0 1.284 1.127 1.284 1.127s-.292-.973.042-.718c.446.45.862.93 1.242 1.436 0 0-.166-.752 0-.718.167.034.993 1.905.993 1.905s1.326 2.07 1.409 2.254c.071.19.1.392.083.594 0 .21-.58 2.201-.58 2.201a1.675 1.675 0 0 0-1.618-.721Z" fill="#fff" stroke="#001550" stroke-width=".5" stroke-linecap="round" stroke-linejoin="round"/><path d="M78.327 23.085a5.669 5.669 0 0 0-.428-1.503c-.246-.376-1.326-1.566-.621-1.608.704-.041 1.08 1.394 1.325 1.777.247.383 1.618.845 1.656 1.604.008.357.05.711.125 1.06" fill="#fff"/><path d="M78.327 23.085a5.669 5.669 0 0 0-.428-1.503c-.246-.376-1.326-1.566-.621-1.608.704-.041 1.08 1.394 1.325 1.777.247.383 1.618.845 1.656 1.604.008.357.05.711.125 1.06M77.001 19.204l.58.804M78.285 19.922l.455.89" stroke="#001550" stroke-width=".5" stroke-linecap="round" stroke-linejoin="round"/><path d="M78.615 25.279s-3.239 7.044-4.22 9.573c1.182-.087 2.989.048 4.42 1.333.531-4.132 1.395-10.564 1.395-10.564a1.792 1.792 0 0 0-1.595-.342Z" fill="#10B981" stroke="#001550" stroke-width=".5" stroke-linecap="round" stroke-linejoin="round"/></svg>