<svg width="170" height="122" viewBox="0 0 170 122" fill="none" xmlns="http://www.w3.org/2000/svg">
<path opacity="0.5" d="M131.103 41.2785C126.076 28.7266 116.228 17.8675 103.732 12.6121C90.5583 7.06551 71.955 5.17163 59.928 14.2178C51.4541 20.5868 50.4493 32.2262 50.8094 41.9538C50.988 46.756 51.5933 51.5222 52.0805 56.3035C52.3317 58.7946 53.1549 62.3063 52.0987 64.7254C49.2296 71.2684 28.2929 78.0966 37.1845 92.8875C43.4341 103.284 60.7724 106.313 71.7189 107.123C89.0996 108.408 107.618 103.885 120.444 91.6719C134.432 78.3637 138.221 59.0587 131.103 41.2785Z" fill="#D9E3FF"/>
<path d="M93.7098 79.0381C93.7086 79.132 93.7072 79.2456 93.7059 79.3739C93.7024 79.7482 93.7002 80.2486 93.7059 80.7523C93.7116 81.2549 93.7252 81.765 93.7535 82.1568C93.7675 82.3516 93.7857 82.5247 93.81 82.6555C93.822 82.7196 93.8373 82.7843 93.8588 82.8396C93.8695 82.867 93.8853 82.9016 93.9091 82.9349C93.9312 82.9658 93.9764 83.0184 94.0533 83.045C94.0832 83.0553 94.1304 83.0668 94.1742 83.0773C94.2011 83.0837 94.2335 83.0913 94.2701 83.0999C94.2999 83.1068 94.3324 83.1145 94.3669 83.1226C94.5231 83.1595 94.7347 83.2107 94.9897 83.2792C95.4999 83.416 96.1834 83.6217 96.9397 83.9182C98.4568 84.5131 100.246 85.4656 101.522 86.9431C102.84 88.4686 103.972 89.6775 104.873 90.57C105.77 91.4583 106.448 92.0436 106.854 92.3119C107.068 92.4528 107.333 92.5715 107.593 92.6802C107.674 92.7139 107.754 92.7467 107.833 92.779C108.018 92.8542 108.197 92.9275 108.368 93.007C108.612 93.1205 108.81 93.2345 108.944 93.3585C109.074 93.4782 109.129 93.5906 109.129 93.7111C109.129 94.3811 108.901 94.8624 108.501 95.709C108.438 95.8422 108.371 95.9844 108.299 96.1379C108.16 96.437 108.07 96.7642 107.994 97.0915C107.963 97.2289 107.934 97.3624 107.905 97.4951C107.864 97.6905 107.822 97.8843 107.771 98.0862C107.605 98.745 107.364 99.3653 106.822 99.8651C106.228 100.413 105.729 100.845 105.319 101.129C105.114 101.271 104.939 101.37 104.793 101.429C104.645 101.489 104.544 101.5 104.479 101.489C104.446 101.484 104.436 101.476 104.435 101.475C104.434 101.474 104.433 101.474 104.432 101.472C104.431 101.47 104.428 101.465 104.424 101.457C104.408 101.414 104.397 101.319 104.423 101.138C104.467 100.832 104.592 100.405 104.76 99.8301C104.789 99.7327 104.819 99.631 104.849 99.5251C105.062 98.7919 105.275 97.6804 105.424 96.7264C105.499 96.2482 105.558 95.8051 105.593 95.4641C105.61 95.294 105.622 95.1462 105.626 95.0309C105.628 94.9734 105.629 94.9206 105.627 94.8752C105.625 94.8376 105.621 94.7793 105.603 94.7263L105.593 94.6978L105.577 94.6725C105.053 93.8608 104.307 93.2142 103.426 92.8079L103.426 92.8077L103.417 92.804C103.178 92.7047 102.406 92.2914 101.344 91.7038C100.291 91.1209 98.971 90.377 97.6506 89.6274C95.0099 88.1283 92.3693 86.6081 91.8587 86.3118C91.3608 86.0228 90.6706 85.5452 90.0434 85.0057C89.4093 84.4603 88.8695 83.8768 88.6376 83.3793C88.3925 82.8536 87.9939 81.5254 87.6512 80.303C87.4814 79.6973 87.3274 79.1255 87.2159 78.7052C87.1944 78.6241 87.1745 78.5488 87.1564 78.4798C88.6543 78.9909 90.2778 79.1318 91.5589 79.1417C92.2673 79.1472 92.876 79.1126 93.308 79.0766C93.467 79.0633 93.6022 79.0498 93.7098 79.0381Z" fill="white" stroke="#001550" stroke-width="0.5"/>
<path d="M86.7935 78.0788C86.7935 78.0788 87.8996 82.3879 88.411 83.4849C88.9224 84.5819 90.7104 85.9344 91.7332 86.528C92.756 87.1216 102.298 92.6103 103.321 93.0349C104.159 93.4214 104.868 94.0365 105.367 94.8081C105.454 95.0598 105.026 98.0202 104.609 99.4553C104.193 100.89 103.927 101.653 104.439 101.736C104.95 101.818 105.802 101.146 106.992 100.049C108.181 98.9519 108.015 97.344 108.526 96.2432C109.038 95.1425 109.379 94.5564 109.379 93.7111C109.379 92.8658 107.761 92.6103 106.992 92.1032C106.223 91.596 104.34 89.8228 101.711 86.7797C99.0823 83.7366 94.3849 82.8951 94.1349 82.8087C93.8849 82.7223 93.9645 78.755 93.9645 78.755C93.9645 78.755 89.9452 79.3449 86.7935 78.0788Z" stroke="#001550" stroke-width="0.5" stroke-linecap="round" stroke-linejoin="round"/>
<path d="M106.985 92.1032C106.272 91.5708 105.605 90.9801 104.992 90.3374C104.908 91.4172 104.472 92.4405 103.75 93.2527C104.405 93.6371 104.959 94.1702 105.367 94.8081C105.454 95.0598 105.026 98.0202 104.609 99.4553C104.193 100.89 103.928 101.653 104.439 101.736C104.95 101.818 105.803 101.146 106.992 100.049C108.182 98.9519 108.015 97.344 108.526 96.2432C109.038 95.1424 109.379 94.5564 109.379 93.7111C109.379 92.8658 107.754 92.6103 106.985 92.1032Z" fill="white" stroke="#001550" stroke-width="0.5" stroke-linecap="round" stroke-linejoin="round"/>
<path d="M109.371 93.7111C109.371 93.0574 108.405 92.7568 107.613 92.4225C107.694 92.8341 107.623 93.2608 107.412 93.6247C107.196 93.974 106.897 94.2649 106.54 94.4714C106.183 94.6778 105.78 94.7935 105.367 94.8081C105.454 95.0598 105.026 98.0202 104.609 99.4553C104.193 100.89 103.927 101.653 104.439 101.736C104.95 101.818 105.803 101.146 106.992 100.049C108.181 98.9519 108.015 97.3439 108.526 96.2432C109.038 95.1424 109.371 94.5564 109.371 93.7111Z" fill="#001550" stroke="#001550" stroke-width="0.5" stroke-linecap="round" stroke-linejoin="round"/>
<path d="M100.509 79.3732C100.569 79.3441 100.624 79.3171 100.674 79.2926L101.118 81.4246L101.138 81.5188L101.216 81.5755L101.363 81.3736L101.216 81.5755L101.216 81.5756L101.216 81.5758L101.217 81.5764L101.22 81.579L101.234 81.5892L101.289 81.629L101.497 81.7805C101.677 81.9114 101.936 82.099 102.251 82.3262C102.88 82.7806 103.733 83.3935 104.628 84.0271C105.469 84.6226 106.064 85.5678 106.582 86.6063C106.775 86.9928 106.954 87.3853 107.131 87.7738C107.191 87.9063 107.252 88.0383 107.312 88.1695C107.548 88.6814 107.788 89.1785 108.051 89.6141C108.585 90.4965 109.506 91.3844 110.336 92.0368C110.753 92.3645 111.154 92.6385 111.482 92.827C111.646 92.9209 111.797 92.9965 111.925 93.0466C111.99 93.0716 112.053 93.0922 112.114 93.1048C112.169 93.1162 112.239 93.125 112.31 93.1125C112.679 93.0578 113.056 93.0775 113.417 93.1702C113.78 93.2632 114.12 93.428 114.417 93.6544L114.417 93.6545L114.422 93.6586C114.801 93.9313 114.962 94.4078 115.013 94.9892C115.038 95.2754 115.035 95.5726 115.026 95.8614C115.023 95.9547 115.019 96.0486 115.015 96.1412C115.008 96.3281 115 96.5093 115 96.6678C115 96.9112 115.016 97.1535 115.034 97.4157C115.085 98.1979 115.148 99.1563 114.834 100.845C114.624 101.977 114.355 102.711 114.008 103.159C113.678 103.587 113.264 103.77 112.693 103.77C112.428 103.77 112.268 103.693 112.161 103.585C112.047 103.47 111.966 103.292 111.917 103.043C111.829 102.586 111.867 101.995 111.906 101.378C111.911 101.306 111.916 101.234 111.92 101.161L111.92 101.161L111.92 101.153C111.959 99.7247 111.873 98.2962 111.664 96.8829L111.661 96.8598L111.653 96.8377C111.637 96.7928 111.613 96.7578 111.599 96.7398C111.583 96.7179 111.564 96.6962 111.546 96.6759C111.508 96.6352 111.46 96.588 111.404 96.5364C111.292 96.4326 111.137 96.2989 110.951 96.1426C110.693 95.9255 110.369 95.6596 110.007 95.3623C109.847 95.2312 109.68 95.0941 109.508 94.9523C108.378 94.0217 107.024 92.8875 106.055 91.9257C105.056 90.9357 102.905 89.4003 100.942 88.0318C100.593 87.7885 100.249 87.5502 99.9185 87.3205C99.3134 86.9008 98.7503 86.5101 98.2715 86.1708C97.9015 85.9085 97.5845 85.6788 97.3396 85.4918C97.0886 85.3002 96.9302 85.1659 96.863 85.0911C96.8069 85.0287 96.7414 84.9156 96.6731 84.7444C96.6064 84.5772 96.5435 84.3715 96.4851 84.1382C96.3682 83.6719 96.2735 83.1145 96.1992 82.5746C96.1251 82.0358 96.072 81.5198 96.0374 81.1381C96.0238 80.9875 96.013 80.858 96.005 80.7565C97.198 80.6368 98.3985 80.2532 99.3136 79.8936C99.805 79.7005 100.218 79.5128 100.509 79.3732Z" fill="white" stroke="#001550" stroke-width="0.5"/>
<path opacity="0.1" d="M100.509 79.3732C100.569 79.3441 100.624 79.3171 100.674 79.2926L101.118 81.4246L101.138 81.5188L101.216 81.5755L101.363 81.3736L101.216 81.5755L101.216 81.5756L101.216 81.5758L101.217 81.5764L101.22 81.579L101.234 81.5892L101.289 81.629L101.497 81.7805C101.677 81.9114 101.936 82.099 102.251 82.3262C102.88 82.7806 103.733 83.3935 104.628 84.0271C105.469 84.6226 106.064 85.5678 106.582 86.6063C106.775 86.9928 106.954 87.3853 107.131 87.7738C107.191 87.9063 107.252 88.0383 107.312 88.1695C107.548 88.6814 107.788 89.1785 108.051 89.6141C108.585 90.4965 109.506 91.3844 110.336 92.0368C110.753 92.3645 111.154 92.6385 111.482 92.827C111.646 92.9209 111.797 92.9965 111.925 93.0466C111.99 93.0716 112.053 93.0922 112.114 93.1048C112.169 93.1162 112.239 93.125 112.31 93.1125C112.679 93.0578 113.056 93.0775 113.417 93.1702C113.78 93.2632 114.12 93.428 114.417 93.6544L114.417 93.6545L114.422 93.6586C114.801 93.9313 114.962 94.4078 115.013 94.9892C115.038 95.2754 115.035 95.5726 115.026 95.8614C115.023 95.9547 115.019 96.0486 115.015 96.1412C115.008 96.3281 115 96.5093 115 96.6678C115 96.9112 115.016 97.1535 115.034 97.4157C115.085 98.1979 115.148 99.1563 114.834 100.845C114.624 101.977 114.355 102.711 114.008 103.159C113.678 103.587 113.264 103.77 112.693 103.77C112.428 103.77 112.268 103.693 112.161 103.585C112.047 103.47 111.966 103.292 111.917 103.043C111.829 102.586 111.867 101.995 111.906 101.378C111.911 101.306 111.916 101.234 111.92 101.161L111.92 101.161L111.92 101.153C111.959 99.7247 111.873 98.2962 111.664 96.8829L111.661 96.8598L111.653 96.8377C111.637 96.7928 111.613 96.7578 111.599 96.7398C111.583 96.7179 111.564 96.6962 111.546 96.6759C111.508 96.6352 111.46 96.588 111.404 96.5364C111.292 96.4326 111.137 96.2989 110.951 96.1426C110.693 95.9255 110.369 95.6596 110.007 95.3623C109.847 95.2312 109.68 95.0941 109.508 94.9523C108.378 94.0217 107.024 92.8875 106.055 91.9257C105.056 90.9357 102.905 89.4003 100.942 88.0318C100.593 87.7885 100.249 87.5502 99.9185 87.3205C99.3134 86.9008 98.7503 86.5101 98.2715 86.1708C97.9015 85.9085 97.5845 85.6788 97.3396 85.4918C97.0886 85.3002 96.9302 85.1659 96.863 85.0911C96.8069 85.0287 96.7414 84.9156 96.6731 84.7444C96.6064 84.5772 96.5435 84.3715 96.4851 84.1382C96.3682 83.6719 96.2735 83.1145 96.1992 82.5746C96.1251 82.0358 96.072 81.5198 96.0374 81.1381C96.0238 80.9875 96.013 80.858 96.005 80.7565C97.198 80.6368 98.3985 80.2532 99.3136 79.8936C99.805 79.7005 100.218 79.5128 100.509 79.3732Z" fill="white" stroke="#001550" stroke-width="0.5"/>
<path d="M95.7375 80.5283C95.7375 80.5283 95.9951 84.4993 96.677 85.2582C97.3589 86.0171 103.92 90.1609 105.878 92.1032C107.837 94.0455 111.33 96.6678 111.417 96.9195C111.623 98.3185 111.708 99.7325 111.671 101.146C111.587 102.498 111.417 104.02 112.693 104.02C113.97 104.02 114.656 103.175 115.08 100.89C115.504 98.6063 115.25 97.5957 115.25 96.6678C115.25 95.7398 115.508 94.1319 114.569 93.4557C114.245 93.2089 113.875 93.0294 113.48 92.928C113.084 92.8267 112.673 92.8055 112.269 92.8658C111.841 92.9485 109.288 91.1752 108.265 89.4847C107.242 87.7941 106.56 85.0891 104.772 83.8231C102.984 82.557 101.363 81.3736 101.363 81.3736L100.852 78.9204C100.852 78.9204 98.2112 80.3592 95.7375 80.5283Z" stroke="#001550" stroke-width="0.5" stroke-linecap="round" stroke-linejoin="round"/>
<path d="M103.799 83.1318C102.435 82.1588 101.363 81.3736 101.363 81.3736L101.276 80.9528C100.083 81.8394 98.018 83.0642 95.9724 82.8124C96.1239 83.8381 96.3512 84.9013 96.6694 85.2582C97.1568 85.6927 97.6759 86.0907 98.2226 86.4491C98.8779 86.4829 102.416 86.513 103.799 83.1318Z" fill="#001550" stroke="#001550" stroke-width="0.5" stroke-linecap="round" stroke-linejoin="round"/>
<path d="M114.569 93.4557C114.245 93.2088 113.875 93.0294 113.48 92.928C113.084 92.8267 112.673 92.8055 112.269 92.8658C111.923 92.8039 111.599 92.6566 111.326 92.4375C111.349 93.2792 111.047 94.0979 110.481 94.7255C110.208 95.0223 109.962 95.2665 109.742 95.4768C110.334 95.9219 110.894 96.4077 111.417 96.9307C111.624 98.3297 111.708 99.7438 111.671 101.157C111.587 102.51 111.417 104.031 112.693 104.031C113.97 104.031 114.656 103.186 115.08 100.902C115.504 98.6176 115.25 97.607 115.25 96.679C115.25 95.7511 115.508 94.1356 114.569 93.4557Z" fill="white" stroke="#001550" stroke-width="0.5" stroke-linecap="round" stroke-linejoin="round"/>
<path d="M115.08 100.898C115.508 98.6175 115.25 97.6032 115.25 96.6753C115.25 95.7473 115.508 94.1394 114.568 93.4631C114.245 93.2163 113.875 93.0369 113.479 92.9355C113.084 92.8342 112.673 92.813 112.269 92.8733C112.269 92.8733 113.462 93.2941 113.633 94.3084C113.803 95.3228 113.546 96.6753 112.78 97.096C112.565 97.2158 112.316 97.264 112.071 97.2335C111.825 97.2031 111.596 97.0957 111.417 96.927C111.623 98.326 111.708 99.74 111.671 101.153C111.587 102.506 111.417 104.027 112.693 104.027C113.97 104.027 114.644 103.175 115.08 100.898Z" fill="#001550" stroke="#001550" stroke-width="0.5" stroke-linecap="round" stroke-linejoin="round"/>
<path d="M102.949 78.3933L103.013 78.6364C102.915 78.6942 102.774 78.7757 102.601 78.8743C102.244 79.0775 101.747 79.3528 101.186 79.641C100.059 80.2206 98.7045 80.8373 97.7193 81.0412C96.3983 81.252 95.0482 81.1848 93.7564 80.8447V79.9347V79.1164L93.3037 79.7881C93.3028 79.7891 93.3015 79.7905 93.2998 79.7923C93.2916 79.8008 93.2735 79.8179 93.2425 79.8397C93.181 79.8831 93.0651 79.9474 92.8683 79.9984C92.4726 80.101 91.7489 80.1496 90.4941 79.8602C89.2471 79.5725 87.8851 78.9513 86.8262 78.3952C86.2987 78.1182 85.8502 77.8593 85.5339 77.6699C85.3758 77.5752 85.2508 77.4979 85.1656 77.4445C85.1574 77.4393 85.1495 77.4344 85.1421 77.4297C85.1389 77.3718 85.1347 77.2952 85.1298 77.2018C85.1178 76.9742 85.1011 76.6471 85.0828 76.2495C85.0461 75.4541 85.0025 74.3774 84.9748 73.2508C84.9472 72.1236 84.9356 70.9493 84.9626 69.9582C84.9761 69.4624 84.9992 69.0152 85.0343 68.6441C85.0699 68.2684 85.1166 67.9862 85.172 67.812C85.4482 66.9435 85.3247 66.0878 85.1842 65.2876C85.1721 65.2184 85.1598 65.1497 85.1477 65.0814C85.0159 64.3423 84.893 63.6531 85.0098 62.9615C85.1419 62.1793 85.6071 60.7635 86.0481 59.5239C86.2671 58.9084 86.4777 58.343 86.6336 57.9314C86.7012 57.7527 86.7585 57.6031 86.8017 57.4911C89.3612 58.3951 92.3192 58.3422 94.6436 58.064C95.8449 57.9202 96.8847 57.7152 97.6246 57.5461C97.9946 57.4615 98.2899 57.3859 98.4933 57.3312C98.5287 57.3217 98.5614 57.3128 98.5912 57.3046C98.6291 57.3984 98.6786 57.5217 98.7366 57.6692C98.8769 58.0255 99.0675 58.5224 99.2686 59.0847C99.6726 60.2144 100.113 61.5905 100.279 62.6216C100.535 64.2037 100.499 65.4383 100.466 66.5444C100.456 66.8959 100.446 67.2345 100.446 67.5671C100.446 67.7615 100.491 68.084 100.562 68.4802C100.634 68.8832 100.737 69.3819 100.859 69.9395C101.104 71.055 101.431 72.4137 101.757 73.7284C102.083 75.0435 102.409 76.3161 102.653 77.2598C102.776 77.7317 102.877 78.1215 102.949 78.3933Z" fill="#001550" stroke="#001550" stroke-width="0.5"/>
<path d="M94.12 82.8087L92.0251 69.5959" stroke="#001550" stroke-width="0.5"/>
<path d="M86.6574 57.1719C86.6574 57.1719 85.036 61.3045 84.7633 62.9199C84.4905 64.5354 85.4451 66.1283 84.9337 67.7362C84.4223 69.3441 84.8996 77.5717 84.8996 77.5717C84.8996 77.5717 87.8809 79.514 90.438 80.1038C92.995 80.6936 93.5064 79.9347 93.5064 79.9347V81.0355C94.8898 81.4288 96.3436 81.5147 97.7643 81.2872C99.8099 80.8664 103.303 78.7551 103.303 78.7551C103.303 78.7551 100.696 68.9196 100.696 67.5671C100.696 66.2147 100.867 64.6931 100.526 62.5818C100.185 60.4704 98.7378 57.0029 98.7378 57.0029C98.7378 57.0029 91.7676 59.1142 86.6574 57.1719Z" stroke="#001550" stroke-width="0.5" stroke-linecap="round" stroke-linejoin="round"/>
<path d="M97.9923 64.4357L97.9923 64.4354C98.1824 62.1874 97.4603 59.1483 97.049 57.6644C96.9907 57.6764 96.9312 57.6885 96.8703 57.7005C97.2727 59.1518 97.9978 62.2004 97.8125 64.4208L97.9923 64.4357ZM97.9923 64.4357C97.927 65.2197 98.0419 66.3962 98.2525 67.7184C98.4641 69.0472 98.7761 70.5446 99.1156 71.9807C99.4551 73.4171 99.8228 74.7952 100.146 75.8862C100.308 76.4315 100.459 76.9067 100.591 77.2823C100.72 77.6501 100.836 77.9394 100.929 78.103C101.166 78.5383 101.363 78.9941 101.517 79.4648L101.355 79.5499M97.9923 64.4357L101.355 79.5499M101.355 79.5499C101.204 79.0835 101.01 78.6315 100.776 78.1999L100.776 78.1999L100.772 78.1941C100.691 78.0527 100.576 77.7804 100.436 77.3895C100.298 77.0038 100.141 76.5173 99.9736 75.9576C99.6392 74.8386 99.2658 73.4342 98.9238 71.9733C98.5816 70.5121 98.2716 68.9976 98.0633 67.6576C97.854 66.3115 97.7507 65.1619 97.8125 64.4209L101.355 79.5499Z" fill="white" stroke="white" stroke-width="0.5"/>
<path d="M102.366 79.0306C101.966 77.5695 101.459 76.1393 100.849 74.7511L100.849 74.7494C100.156 73.2051 99.6096 71.0376 99.2569 68.9572C98.904 66.8754 98.7505 64.9109 98.8317 63.7756C98.8317 63.7756 98.8317 63.7755 98.8317 63.7755L102.366 79.0306ZM102.366 79.0306L102.529 78.94C102.005 77.0335 101.372 75.158 100.633 73.3229C99.2651 70.2717 98.8498 66.0764 99.0148 63.7699L99.0149 63.7697C99.0769 62.9141 98.9371 61.7322 98.7291 60.544C98.5281 59.3956 98.2675 58.2623 98.079 57.4471L97.898 57.4961L102.366 79.0306Z" fill="white" stroke="white" stroke-width="0.5"/>
<path d="M103.973 44.8794L102.25 43.9891" stroke="#001550" stroke-width="0.5" stroke-linecap="round" stroke-linejoin="round"/>
<path d="M102.844 43.82L101.48 44.3272" stroke="#001550" stroke-width="0.5" stroke-linecap="round" stroke-linejoin="round"/>
<path d="M103.958 44.8682L103.773 44.7002L103.773 44.7002L103.772 44.7005L103.771 44.7017L103.767 44.7066L103.749 44.7257L103.682 44.7997C103.623 44.8639 103.538 44.9567 103.432 45.0711C103.22 45.3 102.926 45.6149 102.597 45.9591C101.936 46.6505 101.143 47.4497 100.592 47.9112C100.264 48.1863 99.9938 48.6551 99.7703 49.173C99.5433 49.699 99.3508 50.3095 99.1936 50.9003C98.8795 52.0812 98.6991 53.2108 98.6674 53.488C98.6476 53.6615 98.6809 53.9238 98.7273 54.192C98.7757 54.4713 98.8456 54.7941 98.9163 55.1067C98.945 55.2336 98.9736 55.3581 99.0012 55.4779C99.0423 55.6565 99.081 55.8245 99.1137 55.9742C99.1409 56.0984 99.163 56.206 99.1783 56.2921C99.1945 56.3835 99.1999 56.4346 99.1999 56.4543C99.1999 56.5361 99.1204 56.7976 98.7978 57.1115C98.4854 57.4154 97.961 57.7499 97.1295 57.979C96.2731 58.2151 94.7698 58.5543 93.3105 58.8049C92.5812 58.9301 91.8665 59.0325 91.2515 59.089C90.6296 59.1461 90.132 59.1539 89.8251 59.1008C89.1803 58.9892 88.2893 58.6214 87.5127 58.2071C87.1271 58.0013 86.7776 57.7883 86.5087 57.5966C86.3741 57.5007 86.2627 57.4123 86.1782 57.3349C86.0903 57.2543 86.0444 57.1973 86.0264 57.1654C85.9286 56.9923 85.9327 56.714 86.0304 56.2769C86.0745 56.08 86.133 55.868 86.1966 55.6373L86.209 55.5924C86.2767 55.3467 86.3487 55.083 86.4089 54.8102C86.5311 54.2569 86.6497 52.9091 86.7668 51.4029C86.8026 50.9425 86.8384 50.4653 86.8742 49.9879C86.9566 48.8898 87.0391 47.7902 87.1221 46.8898C87.2365 45.649 87.9419 44.0261 88.639 42.6888C88.9848 42.0256 89.3233 41.4422 89.5755 41.0246C89.7015 40.8159 89.8058 40.6488 89.8785 40.5341C89.9148 40.4768 89.9432 40.4326 89.9624 40.4029L89.9842 40.3693L89.9897 40.3609L89.991 40.3589L89.9913 40.3585L89.9913 40.3584L90.0786 40.2259L89.9958 40.0905L89.7825 40.2209L89.9958 40.0905L89.9957 40.0904L89.9954 40.0898L89.9941 40.0877L89.989 40.0794L89.969 40.0466L89.892 39.9203C89.8252 39.8106 89.7286 39.6517 89.6095 39.4551C89.3712 39.0619 89.0432 38.5181 88.6836 37.9157C87.9637 36.7094 87.1207 35.2733 86.62 34.3397C86.1207 33.4091 85.2052 31.4765 84.4057 29.6633C84.0063 28.7575 83.6374 27.8848 83.365 27.1849C83.2287 26.8347 83.1175 26.5302 83.0389 26.2878C82.9576 26.0368 82.9191 25.8757 82.914 25.8C82.9032 25.6436 82.9553 25.4299 83.0953 25.1417C83.2334 24.8574 83.4444 24.5255 83.7194 24.1403C84.0795 23.6359 84.5351 23.0594 85.0573 22.3985C85.3359 22.0459 85.6335 21.6693 85.9457 21.2668C86.8206 20.1388 88.5244 18.5051 90.0236 17.143C90.7704 16.4644 91.4618 15.8573 91.9666 15.4197C92.219 15.201 92.4246 15.0247 92.5671 14.9032C92.6383 14.8424 92.6938 14.7954 92.7313 14.7635L92.7741 14.7274L92.7849 14.7182L92.7876 14.716L92.7883 14.7154L92.7884 14.7153L92.6274 14.524L92.7885 14.7152L92.8816 14.6368L92.8773 14.5152C92.8558 13.9089 92.9887 13.307 93.2638 12.7651C93.3646 12.5928 93.5951 12.3336 93.9148 12.0203C94.2312 11.7103 94.6143 11.3666 94.9955 11.0327C95.1729 10.8772 95.3522 10.7218 95.5234 10.5736C95.7151 10.4075 95.8965 10.2503 96.0536 10.1118C96.204 9.97917 96.3373 9.8591 96.4431 9.75825C96.5353 9.67033 96.6187 9.58579 96.6725 9.51589C96.9216 9.27475 97.2419 9.11789 97.5873 9.0686L97.6891 9.05408L97.7512 8.97216L97.7512 8.97215L97.7513 8.9721L97.7515 8.97187L97.7522 8.97092L97.7551 8.96704L97.7667 8.95179L97.8107 8.89436C97.8483 8.84523 97.9017 8.77603 97.9642 8.69588C98.0895 8.53515 98.2503 8.33208 98.3953 8.15878C98.4185 8.13112 98.4351 8.12696 98.4579 8.12696C98.493 8.12696 98.5462 8.14099 98.6142 8.1762C98.6794 8.20997 98.7411 8.25423 98.7881 8.29221C98.8111 8.31077 98.8294 8.32684 98.8416 8.33788L98.8548 8.35012L98.8572 8.35243L98.8573 8.35253L98.8574 8.35262L98.8574 8.35265L98.8575 8.35276L98.8576 8.3529L98.9604 8.45485L99.1005 8.41569C99.2876 8.36341 99.4824 8.34442 99.676 8.3595C99.68 8.36575 99.6852 8.37473 99.6913 8.3873C99.7179 8.44214 99.7407 8.52413 99.7576 8.62146C99.7739 8.71576 99.7824 8.81049 99.7867 8.88294C99.7888 8.91879 99.7899 8.94834 99.7904 8.96858L99.7908 8.99141L99.7909 8.99676L99.7909 8.99768V8.99775V8.99779V8.99781V8.99788V9.33268L100.111 9.23777L100.111 9.23769L100.111 9.23767L100.111 9.23753L100.112 9.23744L100.112 9.23739L100.112 9.23735L100.123 9.23459C100.134 9.23207 100.15 9.22863 100.171 9.22565C100.213 9.21938 100.26 9.21679 100.302 9.2229C100.343 9.22901 100.358 9.24065 100.363 9.24552L100.363 9.2456C100.364 9.24731 100.386 9.26864 100.386 9.35082C100.386 9.35044 100.386 9.35025 100.386 9.35025C100.386 9.35024 100.385 9.36248 100.375 9.39062C100.366 9.42048 100.349 9.45927 100.325 9.5073C100.277 9.60359 100.205 9.72182 100.114 9.85656C99.9314 10.1254 99.6853 10.44 99.4352 10.7427C99.1859 11.0446 98.9362 11.3306 98.7485 11.5414C98.6547 11.6467 98.5766 11.733 98.5221 11.7929L98.4589 11.862L98.4424 11.88L98.4382 11.8845L98.4372 11.8855L98.437 11.8858L98.4369 11.8859L98.6203 12.0558L98.4369 11.8859L97.8011 12.5721L98.6944 12.2945L98.6944 12.2945L98.6945 12.2945L98.6947 12.2944L98.6965 12.2939L98.7046 12.2914L98.7376 12.2818C98.7665 12.2736 98.8083 12.2621 98.8585 12.2496C98.96 12.2242 99.0918 12.1954 99.2205 12.1788C99.3317 12.1645 99.4225 12.1618 99.4852 12.1692C99.4783 12.1783 99.4691 12.1886 99.4569 12.2003C99.4041 12.2512 99.3191 12.3057 99.192 12.3746C99.1474 12.3988 99.0981 12.4244 99.0456 12.4517C98.8208 12.5683 98.5352 12.7165 98.2912 12.9252C98.0409 13.1391 97.8502 13.4332 97.6955 13.6717C97.6596 13.7271 97.6256 13.7795 97.5932 13.8273C97.5005 13.9641 97.4213 14.0654 97.3429 14.1324C97.2697 14.195 97.2092 14.2177 97.1467 14.2177C96.9654 14.2177 96.7183 14.2816 96.4625 14.365C96.1973 14.4515 95.8911 14.57 95.5783 14.6998C94.9762 14.9496 94.3354 15.2471 93.8922 15.4529L93.8404 15.4769C93.6891 15.5472 93.54 15.6704 93.3979 15.8151C93.2529 15.9626 93.1016 16.1467 92.9475 16.355C92.6391 16.7717 92.3075 17.3015 91.9793 17.8676C91.3335 18.9816 90.6888 20.2578 90.2448 21.1365L90.2223 21.1811C89.7897 22.0374 89.0026 23.1079 88.3136 23.9742C87.9708 24.4051 87.6556 24.7814 87.4262 25.0499C87.3114 25.1842 87.2182 25.2914 87.1538 25.3649C87.1216 25.4017 87.0966 25.43 87.0797 25.4491L87.0606 25.4706L87.0558 25.476L87.0546 25.4773L87.0543 25.4776L87.0543 25.4777L86.9363 25.6097L87.0216 25.7648L87.2406 25.6443L87.0216 25.7648L87.0216 25.7649L87.0217 25.765L87.0219 25.7654L87.0227 25.7669L87.0257 25.7722L87.0374 25.7931C87.0479 25.8118 87.0639 25.8402 87.0863 25.8796C87.1313 25.9584 87.2021 26.0813 87.3062 26.2591C87.5144 26.6146 87.8561 27.1896 88.3907 28.0696C88.9105 28.925 89.3316 30.0014 89.6241 30.8727C89.7698 31.3066 89.8825 31.6862 89.9587 31.9571C89.9967 32.0925 90.0257 32.2006 90.045 32.2746C90.0547 32.3116 90.0619 32.34 90.0668 32.3591L90.0722 32.3805L90.0734 32.3858L90.0737 32.387L90.0738 32.3872L90.0738 32.3873L90.095 32.4737L90.1661 32.5273C91.0659 33.2062 92.0082 33.828 92.9872 34.3889C93.8522 34.8922 94.6126 35.3061 95.157 35.5941C95.4293 35.7382 95.6476 35.8509 95.7981 35.9277C95.8733 35.9661 95.9316 35.9955 95.9712 36.0154L96.0163 36.0379L96.0279 36.0437L96.0309 36.0452L96.0317 36.0456L96.0319 36.0457L96.032 36.0457L96.1428 35.8217L96.032 36.0458L96.061 36.0601L96.0927 36.0666L96.0927 36.0666L96.093 36.0666L96.0941 36.0669L96.0985 36.0678L96.116 36.0714L96.1837 36.0855C96.2427 36.0978 96.3283 36.1158 96.4346 36.1386C96.6471 36.184 96.942 36.2484 97.2714 36.3237C97.9326 36.4748 98.7239 36.6682 99.268 36.8413C99.8114 37.0142 100.648 37.3483 101.355 37.6426C101.708 37.7891 102.026 37.9246 102.255 38.0235C102.37 38.073 102.463 38.1132 102.527 38.1411L102.601 38.1733L102.62 38.1816L102.624 38.1837L102.626 38.1842L102.626 38.1844L102.626 38.1844L102.727 37.9556L102.626 38.1844L102.674 38.2056H102.727H102.727H102.727L102.727 38.2056L102.731 38.2056L102.748 38.2057C102.764 38.2059 102.787 38.2064 102.817 38.2072C102.878 38.2088 102.967 38.2122 103.078 38.2189C103.302 38.2323 103.617 38.2593 103.979 38.3132C104.708 38.4217 105.606 38.6365 106.338 39.0554C107.05 39.4633 107.392 39.975 107.645 40.5321C107.736 40.7318 107.813 40.9311 107.893 41.1378C107.928 41.2286 107.964 41.3208 108.001 41.4151C108.122 41.7174 108.258 42.0285 108.448 42.3273C108.801 42.884 109.69 44.3095 110.491 45.5971C110.891 46.2406 111.269 46.8493 111.547 47.2971L111.88 47.8324L111.971 47.98L111.995 48.0186L112.002 48.0284L112.003 48.0309L112.003 48.0316L112.004 48.0317L112.216 47.9M103.958 44.8682L104.152 44.7106L104.152 44.7107L104.152 44.7112L104.154 44.7132L104.161 44.7215L104.188 44.7544C104.211 44.7833 104.246 44.8259 104.292 44.8807C104.382 44.9903 104.514 45.1484 104.677 45.3421C105.004 45.7295 105.458 46.2587 105.967 46.8262C106.992 47.9687 108.219 49.2409 109.082 49.8398C109.733 50.292 110.396 50.8562 111.005 51.3742C111.239 51.5729 111.465 51.7648 111.678 51.941C112.07 52.2636 112.42 52.5323 112.719 52.7093C112.869 52.7975 112.997 52.8582 113.105 52.8922C113.214 52.9265 113.288 52.9288 113.335 52.9188C113.334 52.919 113.334 52.9189 113.335 52.9183C113.341 52.9158 113.37 52.9031 113.426 52.8598C113.488 52.8117 113.566 52.7405 113.658 52.6446C113.842 52.4532 114.067 52.1815 114.323 51.8465C114.834 51.1776 115.451 50.2759 116.076 49.3079C117.328 47.3693 118.596 45.1901 119.092 44.1171C119.517 43.1984 119.813 42.3891 120.058 41.7218C120.1 41.6059 120.141 41.4942 120.181 41.387C120.314 41.0277 120.436 40.7119 120.561 40.4579C120.684 40.2084 120.822 39.989 121.001 39.848C121.094 39.7748 121.223 39.6051 121.371 39.3493C121.514 39.1023 121.661 38.8028 121.796 38.499C122.068 37.8889 122.286 37.2856 122.34 37.0945C122.34 37.0956 122.344 37.0792 122.346 37.0341C122.349 36.993 122.35 36.9392 122.349 36.8729C122.347 36.7406 122.339 36.5698 122.325 36.3719C122.297 35.9769 122.25 35.4862 122.198 35.006C122.146 34.5262 122.091 34.059 122.048 33.7116C122.027 33.538 122.009 33.3944 121.996 33.2942L121.994 33.2759L121.663 33.1267L121.648 33.12L121.634 33.1114L121.238 32.8661C121.199 32.8719 121.149 32.8794 121.094 32.8883C120.995 32.9042 120.885 32.9236 120.79 32.9436C120.789 32.9469 120.788 32.9503 120.787 32.9539C120.762 33.0312 120.736 33.1478 120.708 33.2977C120.654 33.595 120.603 33.9905 120.559 34.3896C120.515 34.7875 120.479 35.184 120.453 35.4814C120.44 35.63 120.43 35.7537 120.423 35.8401L120.416 35.9403L120.414 35.9665L120.413 35.9732L120.413 35.9748L120.413 35.9752L120.413 35.9753L120.164 35.9569L120.413 35.9753L120.405 36.0817L120.323 36.1496L119.255 37.0325L118.874 37.3471L118.846 36.854L118.736 34.9235C118.704 34.9061 118.668 34.8888 118.633 34.8757C118.587 34.8589 118.556 34.8545 118.539 34.8546C118.536 34.8642 118.529 34.888 118.521 34.9333C118.511 34.9964 118.503 35.0793 118.497 35.1809C118.487 35.3559 118.484 35.5665 118.481 35.795C118.481 35.8325 118.48 35.8704 118.48 35.9088C118.476 36.177 118.47 36.4623 118.45 36.7187C118.43 36.9642 118.396 37.21 118.323 37.3939C118.116 38.0468 118.095 38.7438 118.264 39.4072C118.391 39.7041 118.475 40.0173 118.514 40.3376L118.519 40.3801L118.51 40.422C118.306 41.3321 117.88 42.1783 117.269 42.8863L117.266 42.89L117.266 42.89C116.788 43.4226 115.569 44.7196 114.473 45.8804C113.925 46.4615 113.406 47.0094 113.024 47.4121L112.567 47.8931L112.441 48.0256L112.409 48.0603L112.4 48.0692L112.398 48.0714L112.397 48.072L112.397 48.0721L112.216 47.9M103.958 44.8682L103.773 44.7002L103.968 44.4846L104.152 44.7106L103.958 44.8682ZM112.216 47.9L112.397 48.0722L112.174 48.3068L112.004 48.0318L112.216 47.9ZM99.6662 8.34687C99.6662 8.34683 99.6667 8.3472 99.6676 8.34814C99.6666 8.34739 99.6662 8.34692 99.6662 8.34687Z" fill="white" stroke="#001550" stroke-width="0.5"/>
<path opacity="0.1" d="M103.958 44.8682L103.773 44.7002L103.773 44.7002L103.772 44.7005L103.771 44.7017L103.767 44.7066L103.749 44.7257L103.682 44.7997C103.623 44.8639 103.538 44.9567 103.432 45.0711C103.22 45.3 102.926 45.6149 102.597 45.9591C101.936 46.6505 101.143 47.4497 100.592 47.9112C100.264 48.1863 99.9938 48.6551 99.7703 49.173C99.5433 49.699 99.3508 50.3095 99.1936 50.9003C98.8795 52.0812 98.6991 53.2108 98.6674 53.488C98.6476 53.6615 98.6809 53.9238 98.7273 54.192C98.7757 54.4713 98.8456 54.7941 98.9163 55.1067C98.945 55.2336 98.9736 55.3581 99.0012 55.4779C99.0423 55.6565 99.081 55.8245 99.1137 55.9742C99.1409 56.0984 99.163 56.206 99.1783 56.2921C99.1945 56.3835 99.1999 56.4346 99.1999 56.4543C99.1999 56.5361 99.1204 56.7976 98.7978 57.1115C98.4854 57.4154 97.961 57.7499 97.1295 57.979C96.2731 58.2151 94.7698 58.5543 93.3105 58.8049C92.5812 58.9301 91.8665 59.0325 91.2515 59.089C90.6296 59.1461 90.132 59.1539 89.8251 59.1008C89.1803 58.9892 88.2893 58.6214 87.5127 58.2071C87.1271 58.0013 86.7776 57.7883 86.5087 57.5966C86.3741 57.5007 86.2627 57.4123 86.1782 57.3349C86.0903 57.2543 86.0444 57.1973 86.0264 57.1654C85.9286 56.9923 85.9327 56.714 86.0304 56.2769C86.0745 56.08 86.133 55.868 86.1966 55.6373L86.209 55.5924C86.2767 55.3467 86.3487 55.083 86.4089 54.8102C86.5311 54.2569 86.6497 52.9091 86.7668 51.4029C86.8026 50.9425 86.8384 50.4653 86.8742 49.9879C86.9566 48.8898 87.0391 47.7902 87.1221 46.8898C87.2365 45.649 87.9419 44.0261 88.639 42.6888C88.9848 42.0256 89.3233 41.4422 89.5755 41.0246C89.7015 40.8159 89.8058 40.6488 89.8785 40.5341C89.9148 40.4768 89.9432 40.4326 89.9624 40.4029L89.9842 40.3693L89.9897 40.3609L89.991 40.3589L89.9913 40.3585L89.9913 40.3584L90.0786 40.2259L89.9958 40.0905L89.7825 40.2209L89.9958 40.0905L89.9957 40.0904L89.9954 40.0898L89.9941 40.0877L89.989 40.0794L89.969 40.0466L89.892 39.9203C89.8252 39.8106 89.7286 39.6517 89.6095 39.4551C89.3712 39.0619 89.0432 38.5181 88.6836 37.9157C87.9637 36.7094 87.1207 35.2733 86.62 34.3397C86.1207 33.4091 85.2052 31.4765 84.4057 29.6633C84.0063 28.7575 83.6374 27.8848 83.365 27.1849C83.2287 26.8347 83.1175 26.5302 83.0389 26.2878C82.9576 26.0368 82.9191 25.8757 82.914 25.8C82.9032 25.6436 82.9553 25.4299 83.0953 25.1417C83.2334 24.8574 83.4444 24.5255 83.7194 24.1403C84.0795 23.6359 84.5351 23.0594 85.0573 22.3985C85.3359 22.0459 85.6335 21.6693 85.9457 21.2668C86.8206 20.1388 88.5244 18.5051 90.0236 17.143C90.7704 16.4644 91.4618 15.8573 91.9666 15.4197C92.219 15.201 92.4246 15.0247 92.5671 14.9032C92.6383 14.8424 92.6938 14.7954 92.7313 14.7635L92.7741 14.7274L92.7849 14.7182L92.7876 14.716L92.7883 14.7154L92.7884 14.7153L92.6274 14.524L92.7885 14.7152L92.8816 14.6368L92.8773 14.5152C92.8558 13.9089 92.9887 13.307 93.2638 12.7651C93.3646 12.5928 93.5951 12.3336 93.9148 12.0203C94.2312 11.7103 94.6143 11.3666 94.9955 11.0327C95.1729 10.8772 95.3522 10.7218 95.5234 10.5736C95.7151 10.4075 95.8965 10.2503 96.0536 10.1118C96.204 9.97917 96.3373 9.8591 96.4431 9.75825C96.5353 9.67033 96.6187 9.58579 96.6725 9.51589C96.9216 9.27475 97.2419 9.11789 97.5873 9.0686L97.6891 9.05408L97.7512 8.97216L97.7512 8.97215L97.7513 8.9721L97.7515 8.97187L97.7522 8.97092L97.7551 8.96704L97.7667 8.95179L97.8107 8.89436C97.8483 8.84523 97.9017 8.77603 97.9642 8.69588C98.0895 8.53515 98.2503 8.33208 98.3953 8.15878C98.4185 8.13112 98.4351 8.12696 98.4579 8.12696C98.493 8.12696 98.5462 8.14099 98.6142 8.1762C98.6794 8.20997 98.7411 8.25423 98.7881 8.29221C98.8111 8.31077 98.8294 8.32684 98.8416 8.33788L98.8548 8.35012L98.8572 8.35243L98.8573 8.35253L98.8574 8.35262L98.8574 8.35265L98.8575 8.35276L98.8576 8.3529L98.9604 8.45485L99.1005 8.41569C99.2876 8.36341 99.4824 8.34442 99.676 8.3595C99.68 8.36575 99.6852 8.37473 99.6913 8.3873C99.7179 8.44214 99.7407 8.52413 99.7576 8.62146C99.7739 8.71576 99.7824 8.81049 99.7867 8.88294C99.7888 8.91879 99.7899 8.94834 99.7904 8.96858L99.7908 8.99141L99.7909 8.99676L99.7909 8.99768V8.99775V8.99779V8.99781V8.99788V9.33268L100.111 9.23777L100.111 9.23769L100.111 9.23767L100.111 9.23753L100.112 9.23744L100.112 9.23739L100.112 9.23735L100.123 9.23459C100.134 9.23207 100.15 9.22863 100.171 9.22565C100.213 9.21938 100.26 9.21679 100.302 9.2229C100.343 9.22901 100.358 9.24065 100.363 9.24552L100.363 9.2456C100.364 9.24731 100.386 9.26864 100.386 9.35082C100.386 9.35044 100.386 9.35025 100.386 9.35025C100.386 9.35024 100.385 9.36248 100.375 9.39062C100.366 9.42048 100.349 9.45927 100.325 9.5073C100.277 9.60359 100.205 9.72182 100.114 9.85656C99.9314 10.1254 99.6853 10.44 99.4352 10.7427C99.1859 11.0446 98.9362 11.3306 98.7485 11.5414C98.6547 11.6467 98.5766 11.733 98.5221 11.7929L98.4589 11.862L98.4424 11.88L98.4382 11.8845L98.4372 11.8855L98.437 11.8858L98.4369 11.8859L98.6203 12.0558L98.4369 11.8859L97.8011 12.5721L98.6944 12.2945L98.6944 12.2945L98.6945 12.2945L98.6947 12.2944L98.6965 12.2939L98.7046 12.2914L98.7376 12.2818C98.7665 12.2736 98.8083 12.2621 98.8585 12.2496C98.96 12.2242 99.0918 12.1954 99.2205 12.1788C99.3317 12.1645 99.4225 12.1618 99.4852 12.1692C99.4783 12.1783 99.4691 12.1886 99.4569 12.2003C99.4041 12.2512 99.3191 12.3057 99.192 12.3746C99.1474 12.3988 99.0981 12.4244 99.0456 12.4517C98.8208 12.5683 98.5352 12.7165 98.2912 12.9252C98.0409 13.1391 97.8502 13.4332 97.6955 13.6717C97.6596 13.7271 97.6256 13.7795 97.5932 13.8273C97.5005 13.9641 97.4213 14.0654 97.3429 14.1324C97.2697 14.195 97.2092 14.2177 97.1467 14.2177C96.9654 14.2177 96.7183 14.2816 96.4625 14.365C96.1973 14.4515 95.8911 14.57 95.5783 14.6998C94.9762 14.9496 94.3354 15.2471 93.8922 15.4529L93.8404 15.4769C93.6891 15.5472 93.54 15.6704 93.3979 15.8151C93.2529 15.9626 93.1016 16.1467 92.9475 16.355C92.6391 16.7717 92.3075 17.3015 91.9793 17.8676C91.3335 18.9816 90.6888 20.2578 90.2448 21.1365L90.2223 21.1811C89.7897 22.0374 89.0026 23.1079 88.3136 23.9742C87.9708 24.4051 87.6556 24.7814 87.4262 25.0499C87.3114 25.1842 87.2182 25.2914 87.1538 25.3649C87.1216 25.4017 87.0966 25.43 87.0797 25.4491L87.0606 25.4706L87.0558 25.476L87.0546 25.4773L87.0543 25.4776L87.0543 25.4777L86.9363 25.6097L87.0216 25.7648L87.2406 25.6443L87.0216 25.7648L87.0216 25.7649L87.0217 25.765L87.0219 25.7654L87.0227 25.7669L87.0257 25.7722L87.0374 25.7931C87.0479 25.8118 87.0639 25.8402 87.0863 25.8796C87.1313 25.9584 87.2021 26.0813 87.3062 26.2591C87.5144 26.6146 87.8561 27.1896 88.3907 28.0696C88.9105 28.925 89.3316 30.0014 89.6241 30.8727C89.7698 31.3066 89.8825 31.6862 89.9587 31.9571C89.9967 32.0925 90.0257 32.2006 90.045 32.2746C90.0547 32.3116 90.0619 32.34 90.0668 32.3591L90.0722 32.3805L90.0734 32.3858L90.0737 32.387L90.0738 32.3872L90.0738 32.3873L90.095 32.4737L90.1661 32.5273C91.0659 33.2062 92.0082 33.828 92.9872 34.3889C93.8522 34.8922 94.6126 35.3061 95.157 35.5941C95.4293 35.7382 95.6476 35.8509 95.7981 35.9277C95.8733 35.9661 95.9316 35.9955 95.9712 36.0154L96.0163 36.0379L96.0279 36.0437L96.0309 36.0452L96.0317 36.0456L96.0319 36.0457L96.032 36.0457L96.1428 35.8217L96.032 36.0458L96.061 36.0601L96.0927 36.0666L96.0927 36.0666L96.093 36.0666L96.0941 36.0669L96.0985 36.0678L96.116 36.0714L96.1837 36.0855C96.2427 36.0978 96.3283 36.1158 96.4346 36.1386C96.6471 36.184 96.942 36.2484 97.2714 36.3237C97.9326 36.4748 98.7239 36.6682 99.268 36.8413C99.8114 37.0142 100.648 37.3483 101.355 37.6426C101.708 37.7891 102.026 37.9246 102.255 38.0235C102.37 38.073 102.463 38.1132 102.527 38.1411L102.601 38.1733L102.62 38.1816L102.624 38.1837L102.626 38.1842L102.626 38.1844L102.626 38.1844L102.727 37.9556L102.626 38.1844L102.674 38.2056H102.727H102.727H102.727L102.727 38.2056L102.731 38.2056L102.748 38.2057C102.764 38.2059 102.787 38.2064 102.817 38.2072C102.878 38.2088 102.967 38.2122 103.078 38.2189C103.302 38.2323 103.617 38.2593 103.979 38.3132C104.708 38.4217 105.606 38.6365 106.338 39.0554C107.05 39.4633 107.392 39.975 107.645 40.5321C107.736 40.7318 107.813 40.9311 107.893 41.1378C107.928 41.2286 107.964 41.3208 108.001 41.4151C108.122 41.7174 108.258 42.0285 108.448 42.3273C108.801 42.884 109.69 44.3095 110.491 45.5971C110.891 46.2406 111.269 46.8493 111.547 47.2971L111.88 47.8324L111.971 47.98L111.995 48.0186L112.002 48.0284L112.003 48.0309L112.003 48.0316L112.004 48.0317L112.216 47.9M103.958 44.8682L104.152 44.7106L104.152 44.7107L104.152 44.7112L104.154 44.7132L104.161 44.7215L104.188 44.7544C104.211 44.7833 104.246 44.8259 104.292 44.8807C104.382 44.9903 104.514 45.1484 104.677 45.3421C105.004 45.7295 105.458 46.2587 105.967 46.8262C106.992 47.9687 108.219 49.2409 109.082 49.8398C109.733 50.292 110.396 50.8562 111.005 51.3742C111.239 51.5729 111.465 51.7648 111.678 51.941C112.07 52.2636 112.42 52.5323 112.719 52.7093C112.869 52.7975 112.997 52.8582 113.105 52.8922C113.214 52.9265 113.288 52.9288 113.335 52.9188C113.334 52.919 113.334 52.9189 113.335 52.9183C113.341 52.9158 113.37 52.9031 113.426 52.8598C113.488 52.8117 113.566 52.7405 113.658 52.6446C113.842 52.4532 114.067 52.1815 114.323 51.8465C114.834 51.1776 115.451 50.2759 116.076 49.3079C117.328 47.3693 118.596 45.1901 119.092 44.1171C119.517 43.1984 119.813 42.3891 120.058 41.7218C120.1 41.6059 120.141 41.4942 120.181 41.387C120.314 41.0277 120.436 40.7119 120.561 40.4579C120.684 40.2084 120.822 39.989 121.001 39.848C121.094 39.7748 121.223 39.6051 121.371 39.3493C121.514 39.1023 121.661 38.8028 121.796 38.499C122.068 37.8889 122.286 37.2856 122.34 37.0945C122.34 37.0956 122.344 37.0792 122.346 37.0341C122.349 36.993 122.35 36.9392 122.349 36.8729C122.347 36.7406 122.339 36.5698 122.325 36.3719C122.297 35.9769 122.25 35.4862 122.198 35.006C122.146 34.5262 122.091 34.059 122.048 33.7116C122.027 33.538 122.009 33.3944 121.996 33.2942L121.994 33.2759L121.663 33.1267L121.648 33.12L121.634 33.1114L121.238 32.8661C121.199 32.8719 121.149 32.8794 121.094 32.8883C120.995 32.9042 120.885 32.9236 120.79 32.9436C120.789 32.9469 120.788 32.9503 120.787 32.9539C120.762 33.0312 120.736 33.1478 120.708 33.2977C120.654 33.595 120.603 33.9905 120.559 34.3896C120.515 34.7875 120.479 35.184 120.453 35.4814C120.44 35.63 120.43 35.7537 120.423 35.8401L120.416 35.9403L120.414 35.9665L120.413 35.9732L120.413 35.9748L120.413 35.9752L120.413 35.9753L120.164 35.9569L120.413 35.9753L120.405 36.0817L120.323 36.1496L119.255 37.0325L118.874 37.3471L118.846 36.854L118.736 34.9235C118.704 34.9061 118.668 34.8888 118.633 34.8757C118.587 34.8589 118.556 34.8545 118.539 34.8546C118.536 34.8642 118.529 34.888 118.521 34.9333C118.511 34.9964 118.503 35.0793 118.497 35.1809C118.487 35.3559 118.484 35.5665 118.481 35.795C118.481 35.8325 118.48 35.8704 118.48 35.9088C118.476 36.177 118.47 36.4623 118.45 36.7187C118.43 36.9642 118.396 37.21 118.323 37.3939C118.116 38.0468 118.095 38.7438 118.264 39.4072C118.391 39.7041 118.475 40.0173 118.514 40.3376L118.519 40.3801L118.51 40.422C118.306 41.3321 117.88 42.1783 117.269 42.8863L117.266 42.89L117.266 42.89C116.788 43.4226 115.569 44.7196 114.473 45.8804C113.925 46.4615 113.406 47.0094 113.024 47.4121L112.567 47.8931L112.441 48.0256L112.409 48.0603L112.4 48.0692L112.398 48.0714L112.397 48.072L112.397 48.0721L112.216 47.9M103.958 44.8682L103.773 44.7002L103.968 44.4846L104.152 44.7106L103.958 44.8682ZM112.216 47.9L112.397 48.0722L112.174 48.3068L112.004 48.0318L112.216 47.9ZM99.6662 8.34687C99.6662 8.34683 99.6667 8.3472 99.6676 8.34814C99.6666 8.34739 99.6662 8.34692 99.6662 8.34687Z" fill="white" stroke="#001550" stroke-width="0.5"/>
<path d="M96.1428 35.8217C96.1428 35.8217 94.8359 35.1755 93.1123 34.1724C92.1421 33.6166 91.2084 33.0005 90.3166 32.3278C90.3166 32.3278 89.6727 29.698 88.6044 27.9398C87.5361 26.1816 87.2406 25.6443 87.2406 25.6443C87.2406 25.6443 89.5552 23.0558 90.4454 21.2939C91.3357 19.5319 93.0555 16.1169 93.9457 15.7037C94.8359 15.2904 96.5974 14.4677 97.1467 14.4677C97.696 14.4677 97.9043 13.5848 98.4536 13.1152C99.0029 12.6456 99.7568 12.5291 99.7568 12.1159C99.7568 11.7026 98.6203 12.0558 98.6203 12.0558C98.6203 12.0558 100.636 9.88054 100.636 9.35082C100.636 8.82111 100.041 8.99768 100.041 8.99768C100.041 8.99768 100.041 8.17492 99.7454 8.11481C99.5063 8.08984 99.2646 8.11024 99.0332 8.17492C99.0332 8.17492 98.4991 7.64521 98.2036 7.99835C97.9081 8.3515 97.552 8.8211 97.552 8.8211C97.1477 8.8788 96.7729 9.06462 96.4838 9.35082C96.1883 9.76408 93.5176 11.8228 93.0441 12.6456C92.7477 13.2269 92.6044 13.873 92.6274 14.524C92.6274 14.524 87.5285 18.8181 85.7481 21.1135C83.9677 23.409 82.6039 24.9343 82.6645 25.8171C82.7252 26.7 85.392 32.5795 86.3997 34.4579C87.4073 36.3363 89.7825 40.2209 89.7825 40.2209C89.7825 40.2209 87.1118 44.2783 86.8732 46.8668C86.6345 49.4553 86.3997 53.693 86.1648 54.7562C85.9299 55.8194 85.5095 56.7586 85.8087 57.2884C86.108 57.8181 88.415 59.1104 89.7825 59.3471C91.15 59.5838 95.4648 58.6972 97.1959 58.22C98.9271 57.7429 99.4499 56.8075 99.4499 56.4543C99.4499 56.1012 98.8552 54.0462 98.9158 53.5165C98.9764 52.9868 99.6279 49.0458 100.753 48.1028C101.878 47.1599 103.958 44.8682 103.958 44.8682C103.958 44.8682 107.159 48.8091 108.939 50.0451C110.72 51.2811 112.557 53.3399 113.387 53.1633C114.216 52.9867 118.311 46.401 119.319 44.222C120.326 42.043 120.622 40.4651 121.156 40.0444C121.69 39.6236 122.463 37.5761 122.58 37.1629C122.698 36.7496 122.224 33.1054 122.224 33.1054L121.766 32.8988L121.292 32.6058C121.292 32.6058 120.876 32.6621 120.637 32.7222C120.398 32.7824 120.164 35.9569 120.164 35.9569L119.095 36.8398L118.978 34.781C118.978 34.781 118.504 34.4279 118.326 34.7209C118.148 35.0139 118.326 36.7233 118.088 37.3094C117.862 38.0156 117.841 38.7708 118.027 39.4883C118.149 39.7685 118.229 40.0646 118.266 40.3675C118.071 41.2372 117.664 42.0461 117.08 42.723C116.129 43.7824 112.216 47.9 112.216 47.9C112.216 47.9 109.367 43.3091 108.659 42.1933C107.951 41.0775 108.004 39.7213 106.462 38.8384C104.92 37.9556 102.727 37.9556 102.727 37.9556C102.727 37.9556 100.454 36.9562 99.3438 36.6031C98.2339 36.2499 96.1428 35.8217 96.1428 35.8217Z" stroke="#001550" stroke-width="0.3" stroke-linecap="round" stroke-linejoin="round"/>
<path d="M96.1428 35.8329L96.0311 36.0566L96.0311 36.0566L96.031 36.0565L96.0307 36.0564L96.0294 36.0557L96.0245 36.0533L96.0055 36.0437L95.9317 36.0064C95.8672 35.9736 95.7725 35.9251 95.6514 35.8624C95.4302 35.7477 95.1208 35.5852 94.746 35.3828C93.3372 36.0326 92.1683 37.2433 91.3388 38.3221C90.9153 38.8728 90.5848 39.3831 90.3604 39.7555C90.2483 39.9415 90.1628 40.0928 90.1057 40.1971C90.0771 40.2492 90.0556 40.2896 90.0414 40.3166L90.0255 40.347L90.0218 40.3543L90.0209 40.356L90.0208 40.3562L90.0208 40.3563L90.0208 40.3563L90.0144 40.369L90.0065 40.3809L90.0065 40.3809L90.0064 40.381L90.0061 40.3815L90.0048 40.3835L89.9994 40.3918L89.9776 40.4254C89.9583 40.4552 89.93 40.4994 89.8936 40.5567C89.821 40.6714 89.7167 40.8384 89.5907 41.0471C89.3385 41.4647 88.9999 42.0481 88.6542 42.7113C87.957 44.0486 87.2517 45.6716 87.1373 46.9123C87.0543 47.8128 86.9718 48.9123 86.8894 50.0104C86.8536 50.4879 86.8178 50.965 86.782 51.4255C86.6648 52.9316 86.5463 54.2795 86.4241 54.8327C86.3638 55.1055 86.2919 55.3693 86.2242 55.6149L86.2117 55.66C86.1481 55.8906 86.0896 56.1026 86.0456 56.2995C85.9478 56.7366 85.9438 57.0149 86.0415 57.1879C86.0596 57.2198 86.1054 57.2769 86.1934 57.3574C86.2779 57.4349 86.3892 57.5233 86.5238 57.6192C86.7927 57.8108 87.1423 58.0239 87.5279 58.2296C88.3045 58.644 89.1955 59.0117 89.8403 59.1233C90.1472 59.1764 90.6448 59.1687 91.2666 59.1116C91.8817 59.0551 92.5964 58.9526 93.3257 58.8274C94.785 58.5769 96.2883 58.2376 97.1447 58.0016C97.9762 57.7724 98.5005 57.438 98.813 57.1341C99.1356 56.8202 99.2151 56.5586 99.2151 56.4769C99.2151 56.4572 99.2097 56.4061 99.1935 56.3146C99.1782 56.2285 99.156 56.121 99.1289 55.9968C99.0961 55.8471 99.0574 55.679 99.0163 55.5004C98.9888 55.3806 98.9601 55.2562 98.9314 55.1293C98.8607 54.8167 98.7909 54.4939 98.7425 54.2146C98.696 53.9464 98.6627 53.6841 98.6826 53.5106C98.7143 53.2334 98.8946 52.1037 99.2088 50.9229C99.366 50.332 99.5585 49.7215 99.7855 49.1955C100.003 48.6914 100.265 48.2338 100.582 47.9561C99.2177 47.8633 97.9303 47.1234 97.1167 46.112C96.161 44.9241 95.8259 43.3105 96.8496 41.9001C98.2378 39.9842 100.649 38.5767 101.998 37.8939C101.253 37.5734 100.017 37.0556 99.2695 36.823C98.7125 36.6499 97.9215 36.464 97.2639 36.3204C96.9362 36.2489 96.6439 36.1884 96.4335 36.1457C96.3283 36.1244 96.2437 36.1075 96.1854 36.096L96.1185 36.0829L96.1012 36.0795L96.0969 36.0787L96.0958 36.0785L96.0956 36.0784L96.0955 36.0784L96.1428 35.8329ZM96.1428 35.8329L96.0312 36.0566L96.0618 36.0719L96.0955 36.0784L96.1428 35.8329Z" fill="#10B981" stroke="#001550" stroke-width="0.5"/>
<path d="M97.052 42.0468C98.59 39.9242 101.439 38.4252 102.594 37.8804C102.105 37.6663 100.321 36.8886 99.3438 36.5843C98.2074 36.2312 96.1428 35.8329 96.1428 35.8329C96.1428 35.8329 95.6011 35.5624 94.7564 35.1041C91.7258 36.4265 89.7977 40.2435 89.7977 40.2435C89.7977 40.2435 87.127 44.3009 86.8884 46.8894C86.6497 49.4779 86.4148 53.7156 86.18 54.7788C85.9451 55.842 85.5246 56.7812 85.8239 57.3109C86.1231 57.8406 88.4301 59.133 89.7977 59.3697C91.1652 59.6063 95.4799 58.7197 97.2111 58.2426C98.9423 57.7655 99.4651 56.83 99.4651 56.4769C99.4651 56.1237 98.8703 54.0687 98.9309 53.539C98.9915 53.0093 99.6431 49.0684 100.768 48.1254C100.916 48.0014 101.079 47.8549 101.253 47.6971C98.2225 47.9977 95.1731 44.6353 97.052 42.0468Z" stroke="#001550" stroke-width="0.5" stroke-linecap="round" stroke-linejoin="round"/>
<path d="M122.239 33.1167C122.104 33.2228 121.999 33.3612 121.932 33.5189C121.866 33.6767 121.841 33.8485 121.861 34.0183C121.861 34.6946 121.948 36.4716 121.948 36.4716" stroke="#001550" stroke-width="0.4" stroke-linecap="round" stroke-linejoin="round"/>
<path d="M121.66 32.8988C121.49 33.0819 121.383 33.3132 121.353 33.56V36.1898" stroke="#001550" stroke-width="0.4" stroke-linecap="round" stroke-linejoin="round"/>
<path d="M121.175 32.6847C121.009 32.968 120.894 33.2784 120.838 33.6014C120.815 33.9771 120.686 35.9945 120.686 35.9945" stroke="#001550" stroke-width="0.4" stroke-linecap="round" stroke-linejoin="round"/>
<path d="M120.402 35.9945L122.175 36.682" stroke="#001550" stroke-width="0.5" stroke-linecap="round" stroke-linejoin="round"/>
<path d="M119.789 40.1684C119.745 39.8538 119.762 39.5338 119.838 39.2254C120.118 38.7861 120.454 38.3846 120.838 38.0307" stroke="#001550" stroke-width="0.5" stroke-linecap="round" stroke-linejoin="round"/>
<path d="M98.6356 12.0558L97.3628 12.6418C97.3628 12.6418 95.2604 12.191 94.5823 13.4308" stroke="#001550" stroke-width="0.5" stroke-linecap="round" stroke-linejoin="round"/>
<path d="M100.056 8.99769L97.5898 11.6275" stroke="#001550" stroke-width="0.5" stroke-linecap="round" stroke-linejoin="round"/>
<path d="M99.0483 8.17492L96.4534 11.233" stroke="#001550" stroke-width="0.5" stroke-linecap="round" stroke-linejoin="round"/>
<path d="M97.5674 8.82109L95.4309 11.0639" stroke="#001550" stroke-width="0.5" stroke-linecap="round" stroke-linejoin="round"/>
<path d="M95.2034 11.064L98.1013 11.7966" stroke="#001550" stroke-width="0.5" stroke-linecap="round" stroke-linejoin="round"/>
<path d="M93.5252 79.9347L91.938 68.0743" stroke="#001550" stroke-width="0.5" stroke-linecap="round" stroke-linejoin="round"/>
<path d="M91.8544 69.0022L88.7026 66.3837" stroke="#001550" stroke-width="0.5" stroke-linecap="round" stroke-linejoin="round"/>
<path d="M92.0253 69.5958L89.7258 68.9196" stroke="#001550" stroke-width="0.5" stroke-linecap="round" stroke-linejoin="round"/>
<path d="M95.7304 34.3499L95.6804 34.3234L95.6803 34.3234L95.6803 34.3233L95.6796 34.323L95.6766 34.3214L95.664 34.3146C95.6528 34.3085 95.6361 34.2994 95.6146 34.2875C95.5716 34.2637 95.5097 34.2288 95.4351 34.185C95.2855 34.0972 95.0866 33.9748 94.887 33.8351C94.686 33.6945 94.4918 33.5415 94.347 33.3933C94.1916 33.2342 94.1357 33.123 94.1303 33.0666C94.1198 32.9576 94.1429 32.7408 94.1977 32.4422C94.2507 32.1537 94.3276 31.8173 94.4088 31.4856C94.4812 31.19 94.5564 30.901 94.6202 30.6557C94.6279 30.626 94.6354 30.5971 94.6428 30.5688C94.7088 30.3147 94.764 30.1005 94.7797 30.0052C94.8051 29.8504 94.8453 29.6534 94.8936 29.4166L94.8944 29.4127C94.9427 29.1761 94.9981 28.904 95.0517 28.6079C95.0885 28.4047 95.2469 28.2116 95.4605 28.032C95.5635 27.9455 95.6694 27.8699 95.7651 27.8027C95.7734 27.7969 95.7818 27.7909 95.7904 27.7849C95.8692 27.7298 95.958 27.6675 96.0122 27.6138C96.1786 27.4488 96.1814 27.2084 96.1754 27.0629C96.1723 26.9898 96.1649 26.9141 96.1583 26.8475C96.1574 26.8388 96.1566 26.8303 96.1558 26.8219C96.1483 26.7452 96.1429 26.6824 96.1429 26.6286C96.1429 26.5774 96.1678 26.4986 96.2844 26.3375C96.358 26.2358 96.4499 26.1244 96.5647 25.9854C96.6316 25.9044 96.7062 25.8139 96.7895 25.7105C97.2248 25.2069 97.7698 24.8077 98.3837 24.5433C98.9988 24.2783 99.6668 24.1557 100.337 24.1847L100.337 24.1847L100.341 24.1849C101.287 24.2089 102.288 24.756 103.06 25.5732C103.831 26.3898 104.337 27.4368 104.337 28.4094C104.337 29.3859 103.882 30.2356 103.409 30.8528C103.174 31.1596 102.939 31.4035 102.762 31.5704C102.674 31.6537 102.601 31.7175 102.551 31.76C102.526 31.7812 102.507 31.7971 102.494 31.8074L102.488 31.8123C100.957 32.6999 100.365 33.6648 100.18 34.531C100.088 34.9589 100.099 35.3483 100.131 35.6691C100.144 35.8004 100.161 35.9229 100.175 36.0291C100.178 36.0514 100.181 36.0731 100.184 36.094C100.201 36.2193 100.211 36.3097 100.211 36.3777C100.211 36.5808 100.247 36.764 100.282 36.915C100.292 36.9575 100.301 36.9958 100.309 37.0306C100.333 37.1302 100.35 37.2023 100.357 37.2684C100.36 37.3078 100.358 37.3289 100.355 37.3388C100.354 37.3448 100.353 37.3457 100.352 37.3468C100.352 37.3469 100.352 37.347 100.352 37.3471C100.343 37.3562 100.291 37.3971 100.103 37.4222C100.045 37.4299 99.9724 37.4397 99.8879 37.4512C99.3719 37.5211 98.3999 37.6528 97.4528 37.75C96.9013 37.8067 96.363 37.8511 95.9309 37.865C95.7146 37.872 95.5296 37.8711 95.3852 37.8612C95.2296 37.8505 95.1555 37.831 95.1353 37.8211C95.1269 37.817 95.1222 37.8139 95.1197 37.8119C95.1186 37.8063 95.1168 37.7906 95.122 37.7593C95.1381 37.662 95.2025 37.5184 95.3144 37.3227C95.3773 37.2127 95.4426 37.1068 95.5116 36.9949C95.5678 36.9037 95.6265 36.8086 95.6881 36.7042C95.8162 36.4876 95.9429 36.2536 96.0199 36.0258C96.1124 35.7537 96.1375 35.4634 96.093 35.1796C96.0484 34.8957 95.9356 34.6267 95.7642 34.3954L95.7304 34.3499ZM95.1174 37.8097C95.1175 37.8097 95.1179 37.8101 95.1185 37.8109C95.1176 37.8101 95.1174 37.8097 95.1174 37.8097Z" fill="white" stroke="#001550" stroke-width="0.5"/>
<path opacity="0.1" d="M102.525 31.8464L102.516 31.8537C100.992 32.7362 100.41 33.6911 100.228 34.5415C100.138 34.9624 100.149 35.3462 100.18 35.6641C100.193 35.7945 100.21 35.9158 100.225 36.022C100.228 36.0444 100.231 36.0662 100.234 36.0873C100.25 36.2122 100.261 36.3058 100.261 36.3777C100.261 36.5751 100.296 36.7539 100.33 36.9038C100.34 36.9444 100.349 36.9816 100.357 37.0159C100.381 37.117 100.399 37.1939 100.406 37.2637C100.414 37.3489 100.398 37.3707 100.387 37.3818C100.367 37.4034 100.301 37.4462 100.109 37.4718C100.051 37.4795 99.979 37.4893 99.8945 37.5007C99.3786 37.5706 98.4056 37.7025 97.4576 37.7998C96.9057 37.8564 96.3661 37.901 95.9323 37.915C95.7151 37.922 95.5283 37.9212 95.3815 37.9111C95.2258 37.9004 95.1429 37.8806 95.1131 37.866C95.0812 37.8505 95.0758 37.838 95.0739 37.8336C95.0702 37.8249 95.0641 37.8014 95.0724 37.7512C95.0901 37.6441 95.1588 37.4935 95.2708 37.2978C95.3336 37.188 95.4 37.0803 95.4695 36.9674C95.5259 36.876 95.5844 36.7811 95.6448 36.6788C95.7726 36.4627 95.8971 36.2324 95.9723 36.0098C96.0622 35.7453 96.0866 35.4632 96.0433 35.1873C96.0001 34.9114 95.8904 34.65 95.7238 34.4252L95.6968 34.3888L95.6567 34.3676L95.6567 34.3676L95.6567 34.3676L95.6566 34.3675L95.6559 34.3671L95.6528 34.3655L95.64 34.3586C95.6287 34.3524 95.6118 34.3432 95.5901 34.3312C95.5468 34.3072 95.4845 34.2721 95.4095 34.2281C95.2592 34.1399 95.0591 34.0167 94.8581 33.8761C94.656 33.7346 94.4589 33.5796 94.311 33.4282C94.1546 33.2682 94.0874 33.1461 94.0803 33.0713C94.0691 32.9545 94.0936 32.7311 94.1483 32.4331C94.2015 32.1432 94.2787 31.8058 94.36 31.4737C94.4325 31.1777 94.5078 30.8884 94.5716 30.6431C94.5793 30.6135 94.5868 30.5845 94.5941 30.5562C94.6605 30.3006 94.7149 30.0895 94.7301 29.9971C94.7557 29.8413 94.796 29.6436 94.8442 29.4076L94.8452 29.4027C94.8935 29.1661 94.9488 28.8945 95.0023 28.599C95.0423 28.3778 95.2124 28.1751 95.4281 27.9938C95.5328 27.9057 95.6404 27.8291 95.7361 27.7618C95.7443 27.756 95.7526 27.7502 95.761 27.7443C95.8409 27.6883 95.9259 27.6288 95.9767 27.5783C96.1261 27.4302 96.1313 27.211 96.1252 27.065C96.1222 26.9934 96.1149 26.9192 96.1083 26.8525C96.1074 26.8438 96.1066 26.8352 96.1058 26.8268C96.0983 26.7503 96.0927 26.6852 96.0927 26.6286C96.0927 26.5606 96.126 26.4707 96.2436 26.3082C96.3181 26.2053 96.4117 26.0919 96.5274 25.9518C96.5943 25.8707 96.6686 25.7806 96.7509 25.6785C97.1912 25.1688 97.7426 24.7649 98.3637 24.4974C98.9857 24.2294 99.6612 24.1054 100.339 24.1348L100.342 24.1349C101.305 24.1594 102.318 24.7154 103.096 25.5389C103.873 26.3619 104.387 27.4206 104.387 28.4094C104.387 29.4014 103.925 30.2616 103.449 30.8833C103.212 31.1926 102.974 31.4384 102.797 31.6067C102.708 31.6908 102.634 31.7552 102.583 31.7982C102.558 31.8197 102.538 31.8358 102.525 31.8464Z" fill="white" stroke="#001550" stroke-width="0.4"/>
<path d="M102.628 32.0197C102.628 32.0197 104.587 30.517 104.587 28.4094C104.587 26.3018 102.412 23.9875 100.348 23.9349C99.6401 23.9043 98.9346 24.0338 98.2848 24.3137C97.635 24.5936 97.058 25.0165 96.5975 25.5504C96.1619 26.0914 95.8929 26.3581 95.8929 26.6286C95.8929 26.8991 95.999 27.2748 95.8361 27.4363C95.6732 27.5979 94.9118 27.9773 94.8057 28.5634C94.6997 29.1495 94.586 29.6416 94.533 29.9647C94.4799 30.2878 93.8246 32.4968 93.8814 33.0904C93.9382 33.684 95.5634 34.5443 95.5634 34.5443C95.7108 34.7432 95.8077 34.9744 95.846 35.2183C95.8842 35.4622 95.8626 35.7117 95.7831 35.9456C95.5103 36.7533 94.4799 37.779 95.0254 38.0457C95.5709 38.3124 99.3174 37.779 100.136 37.67C100.954 37.5611 100.461 37.0764 100.461 36.3777C100.461 35.6789 99.6394 33.7441 102.628 32.0197Z" stroke="#001550" stroke-width="0.5" stroke-linecap="round" stroke-linejoin="round"/>
<path d="M101.42 30.4493C101.42 30.4493 102.723 29.5326 102.833 30.5019C102.878 30.8896 102.791 31.2813 102.585 31.6138C102.379 31.9464 102.066 32.2005 101.696 32.3353C101.102 32.5494 100.829 31.7943 100.829 31.7943" stroke="#001550" stroke-width="0.5" stroke-linecap="round" stroke-linejoin="round"/>
<path d="M95.9457 29.2171L95.6199 28.9992C95.6199 28.9992 95.4002 28.353 95.8926 28.0863C96.2911 27.827 96.6551 27.519 96.9761 27.1696C97.0859 27.0081 96.4344 26.3055 96.2715 26.5234" stroke="#001550" stroke-width="0.5" stroke-linecap="round" stroke-linejoin="round"/>
<path d="M96.1619 28.9992C96.3381 29.1333 96.5428 29.2258 96.7604 29.2697C96.8032 29.2767 96.8469 29.2752 96.8892 29.2654C96.9314 29.2555 96.9712 29.2375 97.0064 29.2124C97.0416 29.1873 97.0714 29.1555 97.0942 29.1189C97.117 29.0823 97.1323 29.0416 97.1392 28.9992" stroke="#001550" stroke-width="0.5" stroke-linecap="round" stroke-linejoin="round"/>
<path d="M95.783 29.9159C95.783 29.9159 96.2186 30.239 97.5748 29.8633" stroke="#001550" stroke-width="0.5" stroke-linecap="round" stroke-linejoin="round"/>
<mask id="path-44-inside-1_2559_97771" fill="white">
    <path d="M98.8703 27.1734C98.8021 27.4025 98.6544 27.5491 98.5408 27.5265C98.4271 27.504 98.3854 27.2823 98.4536 27.0531C98.5218 26.824 98.6696 26.6775 98.787 26.7C98.9044 26.7225 98.9385 26.948 98.8703 27.1734Z"/>
</mask>
<path d="M98.8703 27.1734C98.8021 27.4025 98.6544 27.5491 98.5408 27.5265C98.4271 27.504 98.3854 27.2823 98.4536 27.0531C98.5218 26.824 98.6696 26.6775 98.787 26.7C98.9044 26.7225 98.9385 26.948 98.8703 27.1734Z" fill="#263238"/>
<path d="M98.8703 27.1734L98.3917 27.0286L98.3911 27.0308L98.8703 27.1734ZM98.3911 27.0308C98.3753 27.0837 98.3565 27.1037 98.361 27.099C98.3635 27.0963 98.3824 27.0768 98.4224 27.0585C98.4638 27.0395 98.5409 27.0168 98.638 27.0361L98.4435 28.017C98.7493 28.0776 98.9782 27.9006 99.0841 27.7897C99.208 27.66 99.2971 27.4922 99.3496 27.316L98.3911 27.0308ZM98.638 27.0361C98.769 27.0621 98.8474 27.1419 98.8824 27.1931C98.9145 27.2401 98.9204 27.2748 98.9206 27.2762C98.9214 27.2801 98.9172 27.2483 98.9329 27.1957L97.9744 26.9106C97.9218 27.0872 97.9045 27.2808 97.9374 27.4584C97.9611 27.5865 98.0635 27.9416 98.4435 28.017L98.638 27.0361ZM98.9329 27.1957C98.9486 27.1428 98.9672 27.1236 98.962 27.129C98.9591 27.1321 98.94 27.1515 98.9002 27.1694C98.8587 27.1881 98.7849 27.2087 98.6927 27.191L98.8812 26.209C98.5797 26.1511 98.352 26.3208 98.2417 26.4354C98.1162 26.5657 98.0268 26.7344 97.9744 26.9106L98.9329 27.1957ZM98.6927 27.191C98.5613 27.1658 98.4808 27.0854 98.4438 27.0301C98.4107 26.9808 98.4053 26.9442 98.4052 26.9435C98.4047 26.9408 98.4081 26.9746 98.3917 27.0286L99.3489 27.3181C99.4008 27.1467 99.4212 26.9552 99.3914 26.7778C99.3699 26.6498 99.2713 26.2838 98.8812 26.209L98.6927 27.191Z" fill="#001550" mask="url(#path-44-inside-1_2559_97771)"/>
<mask id="path-46-inside-2_2559_97771" fill="white">
    <path d="M96.4875 27.2222C96.4231 27.4514 96.2716 27.5979 96.1579 27.5754C96.0443 27.5528 96.0026 27.3312 96.0708 27.102C96.139 26.8728 96.2867 26.7263 96.4042 26.7489C96.5216 26.7714 96.5557 26.993 96.4875 27.2222Z"/>
</mask>
<path d="M96.4875 27.2222C96.4231 27.4514 96.2716 27.5979 96.1579 27.5754C96.0443 27.5528 96.0026 27.3312 96.0708 27.102C96.139 26.8728 96.2867 26.7263 96.4042 26.7489C96.5216 26.7714 96.5557 26.993 96.4875 27.2222Z" fill="#263238"/>
<path d="M96.4875 27.2222L96.0082 27.0796L96.0062 27.0869L96.4875 27.2222ZM96.0062 27.0869C95.9928 27.1346 95.9756 27.152 95.981 27.1464C95.9839 27.1434 96.0026 27.1244 96.0418 27.1066C96.0818 27.0884 96.1582 27.0657 96.2552 27.0849L96.0607 28.0658C96.3648 28.1261 96.5941 27.9513 96.7014 27.84C96.8271 27.7094 96.9179 27.539 96.9689 27.3575L96.0062 27.0869ZM96.2552 27.0849C96.3862 27.1109 96.4646 27.1907 96.4996 27.2419C96.5317 27.2889 96.5376 27.3237 96.5378 27.3251C96.5385 27.3289 96.5344 27.2971 96.5501 27.2446L95.5916 26.9594C95.539 27.1361 95.5216 27.3296 95.5546 27.5073C95.5783 27.6354 95.6808 27.9904 96.0607 28.0658L96.2552 27.0849ZM96.5501 27.2446C96.5658 27.1916 96.5844 27.1724 96.5792 27.1778C96.5763 27.1809 96.5572 27.2003 96.5174 27.2182C96.4759 27.2369 96.402 27.2576 96.3099 27.2399L96.4984 26.2578C96.1968 26.1999 95.9692 26.3697 95.8588 26.4842C95.7334 26.6146 95.644 26.7832 95.5916 26.9594L96.5501 27.2446ZM96.3099 27.2399C96.1811 27.2152 96.1005 27.1369 96.0623 27.0805C96.0285 27.0304 96.0227 26.9929 96.0224 26.9913C96.0218 26.9873 96.0256 27.0215 96.0083 27.0796L96.9668 27.3648C97.0177 27.1937 97.0385 27.0025 97.0085 26.8247C96.9862 26.6929 96.8857 26.3322 96.4984 26.2578L96.3099 27.2399Z" fill="#001550" mask="url(#path-46-inside-2_2559_97771)"/>
<path d="M97.9004 26.576C97.9004 26.576 99.0368 25.7119 100.022 26.685" stroke="#001550" stroke-width="0.5" stroke-linecap="round" stroke-linejoin="round"/>
<path d="M94.8586 33.8531C94.8586 33.8531 97.1959 34.3377 98.0104 34.0672C98.4067 33.9495 98.7881 33.7869 99.1469 33.5826" stroke="#001550" stroke-width="0.5" stroke-linecap="round" stroke-linejoin="round"/>
<path d="M98.145 7.61737C98.145 11.16 95.2487 14.0347 91.6725 14.0347C88.0963 14.0347 85.2 11.16 85.2 7.61737C85.2 4.07472 88.0963 1.2 91.6725 1.2C95.2487 1.2 98.145 4.07472 98.145 7.61737Z" fill="#FFBD14" stroke="#001550" stroke-width="0.4"/>
<path d="M91.6725 14.2347C95.3576 14.2347 98.345 11.272 98.345 7.61737C98.345 3.9627 95.3576 1 91.6725 1C87.9874 1 85 3.9627 85 7.61737C85 11.272 87.9874 14.2347 91.6725 14.2347Z" stroke="#001550" stroke-width="0.5" stroke-linecap="round" stroke-linejoin="round"/>
<path d="M97.0629 11.509C97.1585 11.0314 97.2065 10.5457 97.2063 10.0588C97.205 8.83161 96.9012 7.62337 96.3214 6.53929C95.7415 5.45521 94.9032 4.52816 93.8795 3.83888C92.8557 3.1496 91.6776 2.719 90.4476 2.58459C89.2177 2.45017 87.9733 2.61602 86.8228 3.06768" stroke="#001550" stroke-width="0.5" stroke-linecap="round" stroke-linejoin="round"/>
<path d="M86.397 11.6227C89.9647 13.6538 94.7939 11.9518 97.186 7.82453C97.5632 7.17219 97.8654 6.48 98.0872 5.76092" stroke="#001550" stroke-width="0.5" stroke-linecap="round" stroke-linejoin="round"/>
<path d="M85.123 8.45418C86.442 9.16101 87.9657 9.1407 89.6861 9.05945C91.091 8.99852 95.9817 7.7961 96.3832 10.1481C96.6125 11.4602 94.884 13.0404 93.1309 14.0438" stroke="#001550" stroke-width="0.5" stroke-linecap="round" stroke-linejoin="round"/>
<path d="M91.6729 1C92.4362 1.03406 93.1791 1.25568 93.8347 1.64495C94.4903 2.03422 95.0382 2.57895 95.429 3.23016C96.2728 4.52601 96.9896 6.93898 98.2102 8.55981" stroke="#001550" stroke-width="0.5" stroke-linecap="round" stroke-linejoin="round"/>
<path d="M73.2813 43.7702C72.2668 42.9238 71.033 42.3771 69.7204 42.1923C68.9325 42.0608 68.7923 41.441 68.0839 41.3658C65.811 41.0653 63.3828 41.6664 62.1062 44.3713C60.8296 47.0762 62.2577 49.9803 64.6556 50.7768C66.0762 51.2501 69.262 51.4755 69.262 51.4755L73.2813 43.7702Z" fill="white" stroke="#001550" stroke-width="0.5" stroke-linecap="round" stroke-linejoin="round"/>
<path d="M68.3074 45.7651C67.4058 44.871 69.2052 44.7433 68.9476 44.3601C68.69 43.9769 67.5346 43.9844 66.7618 43.9844C66.2125 43.9844 66.3148 43.5335 66.6482 42.9099L66.7618 42.8348C66.9182 42.6084 67.0455 42.3636 67.1406 42.1059L67.1671 42.0684C67.221 41.9914 67.2476 41.8989 67.2429 41.8054C67.3637 41.3928 67.4249 40.9652 67.4247 40.5356C67.4247 39.1305 63.9472 39.386 63.8184 40.1599L63.6896 40.9113C63.6896 40.9113 62.019 41.8054 61.7614 42.955C61.5569 43.8679 62.2463 43.7327 62.538 43.6387C62.383 43.8716 62.245 44.1152 62.1251 44.3676C60.8523 47.0687 62.2766 49.9766 64.6745 50.773C66.0951 51.2464 69.2809 51.4718 69.2809 51.4718L71.069 48.0418C70.4856 47.2866 69.0726 46.524 68.3074 45.7651Z" fill="#001550" stroke="#001550" stroke-width="0.5" stroke-linecap="round" stroke-linejoin="round"/>
<path d="M68.2809 45.0701C68.2809 45.0701 67.6937 44.5705 67.2051 45.4721C66.7164 46.3738 69.1635 46.6706 69.9477 46.5729C70.7318 46.4752 69.7507 45.4721 69.7507 45.4721" fill="white"/>
<path d="M68.2809 45.0701C68.2809 45.0701 67.6937 44.5705 67.2051 45.4721C66.7164 46.3738 69.1635 46.6706 69.9477 46.5729C70.7318 46.4752 69.7507 45.4721 69.7507 45.4721" stroke="#001550" stroke-width="0.5" stroke-linecap="round" stroke-linejoin="round"/>
<path d="M72.309 94.0841C72.2871 94.1486 72.2619 94.2213 72.2334 94.3014C72.107 94.6561 71.9157 95.1554 71.657 95.7318C71.1386 96.8871 70.3542 98.3407 69.2859 99.5602C67.1159 102.037 60.8439 107.767 60.17 108.371C59.9882 108.534 59.856 108.695 59.7849 108.883C59.7128 109.075 59.715 109.265 59.7444 109.462C59.7665 109.61 59.8076 109.783 59.854 109.977C59.8669 110.031 59.8802 110.087 59.8937 110.144C59.9569 110.415 60.0284 110.744 60.0895 111.163C60.2144 112.019 60.657 113.006 61.0746 113.938C61.0959 113.985 61.1171 114.032 61.1381 114.08C61.3592 114.574 61.5705 115.053 61.7316 115.503C61.8932 115.955 61.9982 116.362 62.0154 116.711C62.0338 117.085 62.0191 117.383 61.9748 117.609C61.9298 117.838 61.8597 117.966 61.7897 118.033C61.7297 118.09 61.647 118.124 61.5054 118.107C61.3539 118.09 61.1474 118.014 60.8772 117.855C59.3004 116.914 58.6733 115.846 58.2748 115.168C58.1791 115.005 58.0966 114.864 58.0173 114.753L58.0174 114.753L58.0142 114.749C57.4271 113.964 56.7746 113.428 56.233 112.983C56.1342 112.902 56.0391 112.824 55.9488 112.747C55.3494 112.243 54.9918 111.854 54.9572 111.285C54.9171 110.625 54.9794 110.226 55.1934 109.809C55.418 109.371 55.8135 108.904 56.4912 108.124C57.8367 106.575 60.4515 103.303 62.0603 100.104C62.8338 98.5662 64.0385 97.4372 65.0584 96.69C65.5672 96.3172 66.0271 96.0417 66.359 95.8597C66.5248 95.7688 66.6585 95.7013 66.75 95.6569C66.7957 95.6347 66.8309 95.6183 66.8543 95.6076L66.8803 95.5958L66.8864 95.5931L66.8877 95.5925L66.8877 95.5925L66.8878 95.5924L66.8879 95.5924L66.9785 95.5531L67.0177 95.4623L67.8413 93.5542C68.7444 93.9286 69.9001 94.056 70.8371 94.0919C71.3533 94.1117 71.8132 94.104 72.1441 94.0913C72.2033 94.089 72.2584 94.0866 72.309 94.0841Z" fill="white" stroke="#001550" stroke-width="0.5"/>
<path d="M67.7125 93.2218L66.7881 95.3632C66.7881 95.3632 63.4318 96.8208 61.837 99.9916C60.2422 103.162 57.6435 106.416 56.3025 107.96C54.9615 109.504 54.6243 109.929 54.7077 111.3C54.791 112.671 56.4692 113.099 57.814 114.899C58.1928 115.429 58.7345 116.867 60.7498 118.07C61.8862 118.742 62.3408 118.239 62.2651 116.698C62.1893 115.158 60.5869 112.84 60.3369 111.127C60.0869 109.414 59.6664 109.158 60.3369 108.557C61.0074 107.956 67.292 102.216 69.4739 99.7249C71.6559 97.2341 72.6598 93.8116 72.6598 93.8116C72.6598 93.8116 69.474 94.0896 67.7125 93.2218Z" stroke="#001550" stroke-width="0.5" stroke-linecap="round" stroke-linejoin="round"/>
<path d="M55.9769 111.476L55.779 111.447L55.779 111.447L55.7789 111.448L55.7786 111.45L55.7775 111.457L55.7733 111.486L55.7573 111.597C55.7434 111.693 55.7237 111.83 55.7001 111.999C55.6528 112.335 55.5897 112.794 55.5266 113.282C55.4013 114.251 55.273 115.358 55.273 115.846C55.273 116.334 55.3807 117.163 55.4851 117.928C55.497 118.015 55.5088 118.101 55.5205 118.186C55.5607 118.479 55.5989 118.758 55.6294 119.002C55.6691 119.32 55.6935 119.564 55.6935 119.7C55.6935 119.989 55.6513 120.266 55.532 120.465C55.4229 120.648 55.2382 120.785 54.8859 120.785C54.8336 120.785 54.7356 120.758 54.5865 120.675C54.4435 120.596 54.2748 120.478 54.0877 120.328C53.7142 120.029 53.2838 119.613 52.8632 119.157C52.443 118.702 52.0364 118.21 51.7098 117.76C51.3798 117.304 51.1427 116.907 51.0478 116.636C50.951 116.36 50.8741 115.914 50.8195 115.368C50.7653 114.826 50.7344 114.2 50.7242 113.571C50.7039 112.309 50.768 111.064 50.8881 110.488C50.9357 110.26 51.1133 110.041 51.3991 109.836C51.6814 109.634 52.0431 109.465 52.4074 109.328C52.7701 109.193 53.1266 109.093 53.3932 109.027C53.5262 108.994 53.6363 108.97 53.7128 108.954C53.751 108.946 53.7808 108.94 53.8008 108.936L53.8234 108.932L53.8289 108.931L53.8302 108.931L53.8304 108.931L53.8304 108.931L53.8304 108.931L53.852 108.927L53.8722 108.918L53.7949 108.734L53.8723 108.918L53.8724 108.918L53.8728 108.918L53.8741 108.918L53.8789 108.915L53.8973 108.908C53.9134 108.901 53.9368 108.891 53.967 108.877C54.0272 108.851 54.1142 108.812 54.2218 108.763C54.437 108.663 54.7353 108.52 55.0683 108.344C55.73 107.995 56.5444 107.509 57.1104 106.975C57.3942 106.707 57.7847 106.246 58.2387 105.692C58.4236 105.466 58.6192 105.224 58.8238 104.971C59.1271 104.596 59.4503 104.196 59.7885 103.787C60.921 102.415 62.1861 100.978 63.3008 100.137C64.9693 98.9286 66.7267 97.8454 68.5584 96.897L68.6226 96.8638L68.6507 96.7972L69.6583 94.4116L69.6682 94.3882L69.672 94.363L69.672 94.3629L69.672 94.3625L69.6723 94.3605L69.6735 94.3525L69.6786 94.3199C69.6831 94.2912 69.69 94.2488 69.6993 94.1945C69.7178 94.0859 69.7457 93.93 69.7835 93.742C69.859 93.3655 69.9734 92.8623 70.1285 92.352C70.2843 91.8399 70.4785 91.3302 70.7108 90.9358C70.9489 90.5316 71.1987 90.2969 71.4456 90.2471C71.7556 90.1845 72.2386 90.1709 72.8027 90.1981C73.3625 90.2251 73.9875 90.2916 74.5741 90.3825C75.1617 90.4735 75.7046 90.5881 76.1019 90.7098C76.3018 90.771 76.4564 90.8315 76.5596 90.8876C76.6115 90.9158 76.6428 90.9389 76.6595 90.9548C76.6602 90.9555 76.6609 90.9562 76.6616 90.9568C76.6644 90.9977 76.6618 91.0703 76.6489 91.179C76.6344 91.301 76.6093 91.4516 76.5761 91.6218C76.5098 91.9619 76.4136 92.3701 76.3143 92.7649C76.2151 93.1591 76.1133 93.5377 76.0363 93.8178C75.9978 93.9578 75.9656 94.0732 75.9429 94.1534L75.9166 94.2462L75.9097 94.2704L75.908 94.2765L75.9076 94.2779L75.9075 94.2781L75.9074 94.2784L75.9074 94.2785L75.9073 94.2787L75.9065 94.2815L75.9033 94.2926L75.8904 94.3362C75.8791 94.3746 75.8623 94.4311 75.8405 94.5034C75.797 94.6481 75.7338 94.8561 75.6547 95.1089C75.4966 95.6146 75.2756 96.2991 75.024 97.0147C74.7722 97.7309 74.4907 98.4754 74.2117 99.1024C73.9284 99.7388 73.66 100.225 73.441 100.449C73.2172 100.679 72.7832 100.959 72.1884 101.287C71.6709 101.573 71.0502 101.887 70.375 102.228C70.282 102.275 70.1881 102.322 70.0932 102.37C68.531 103.16 66.7286 104.089 65.3281 105.128C63.95 106.151 61.5882 107.694 59.566 108.985C58.556 109.629 57.6324 110.21 56.9612 110.629C56.6257 110.839 56.3533 111.008 56.1648 111.125L55.9476 111.259L55.8911 111.294L55.8767 111.303L55.8731 111.305L55.8722 111.306L55.8719 111.306L55.9769 111.476ZM55.9769 111.476L55.779 111.447L55.7925 111.355L55.8719 111.306L55.9769 111.476ZM76.6687 90.9649C76.6687 90.9649 76.6685 90.9646 76.6682 90.9641L76.6687 90.9649Z" fill="white" stroke="#001550" stroke-width="0.4"/>
<path d="M69.4741 94.3338L68.4664 96.7194C66.6254 97.6727 64.8589 98.7615 63.1819 99.9766C60.909 101.69 58.0641 105.8 56.9731 106.829C55.8821 107.859 53.7949 108.734 53.7949 108.734C53.7949 108.734 50.9424 109.249 50.6924 110.447C50.4423 111.645 50.4386 115.504 50.859 116.702C51.2795 117.901 54.0487 120.985 54.8859 120.985C55.723 120.985 55.8935 120.301 55.8935 119.7C55.8935 119.099 55.473 116.789 55.473 115.846C55.473 114.903 55.9769 111.476 55.9769 111.476C55.9769 111.476 62.6781 107.344 65.4473 105.289C68.2164 103.234 72.5955 101.603 73.5843 100.589C74.573 99.5746 76.0996 94.3338 76.0996 94.3338C76.0996 94.3338 76.9368 91.4223 76.8572 90.9076C76.7777 90.3929 72.7471 89.7805 71.4061 90.051C70.065 90.3215 69.4741 94.3338 69.4741 94.3338Z" stroke="#001550" stroke-width="0.5" stroke-linecap="round" stroke-linejoin="round"/>
<path d="M74.9314 93.7889L75.1332 92.8472L74.4988 93.5718L72.495 95.8604C72.4698 95.8554 72.4416 95.8498 72.4105 95.8435C72.2673 95.8147 72.063 95.7727 71.8191 95.7199C71.3308 95.6143 70.6858 95.466 70.0551 95.2947C69.7694 95.2172 69.3965 95.0375 68.9864 94.799C68.5803 94.5628 68.1531 94.278 67.7625 94.0019C67.3723 93.7261 67.0211 93.4607 66.7674 93.2642C66.6608 93.1816 66.5715 93.1113 66.5039 93.0576L66.5415 92.9662C66.6112 92.7968 66.711 92.5533 66.8318 92.2565C67.0734 91.6629 67.3991 90.8562 67.7352 90.0037C68.4032 88.3098 69.1256 86.403 69.2976 85.6511C69.6302 84.1966 69.8212 83.1846 69.3711 81.9943C69.1715 81.4665 68.9434 80.4194 68.8185 79.2722C68.6934 78.1239 68.6764 76.9152 68.8769 76.0572C69.0808 75.1846 69.6576 73.7923 70.1934 72.601C70.4596 72.0092 70.7128 71.4731 70.8995 71.085C70.9899 70.8971 71.0646 70.744 71.1176 70.6361C71.2046 70.6572 71.3187 70.6849 71.4551 70.7182C71.7872 70.7994 72.2519 70.9138 72.7821 71.047C73.8432 71.3136 75.1639 71.6547 76.2091 71.9541C77.307 72.2685 78.6474 72.2214 79.6936 72.103C80.2206 72.0434 80.6806 71.9648 81.0092 71.901C81.1089 71.8817 81.1966 71.8637 81.2705 71.848C81.2776 71.8961 81.2858 71.9505 81.2949 72.0108C81.3372 72.2904 81.4008 72.6981 81.4862 73.212C82.5858 79.9479 81.0925 86.2252 79.5522 92.6998C79.2276 94.0645 78.9008 95.4379 78.5959 96.8263H77.5394C77.4626 96.8263 77.2209 96.7936 76.87 96.7357C76.5309 96.6798 76.1156 96.605 75.7118 96.53C75.3083 96.455 74.9174 96.38 74.6273 96.3237C74.541 96.307 74.4636 96.2919 74.3975 96.279L74.9314 93.7889Z" fill="#001550" stroke="#001550" stroke-width="0.5"/>
<path d="M70.9821 70.3462C70.9821 70.3462 69.0539 74.2008 68.6334 76.0003C68.2129 77.7999 68.7168 80.9706 69.1372 82.0827C69.5577 83.1947 69.3873 84.1377 69.0539 85.5953C68.7205 87.053 66.2014 93.1354 66.2014 93.1354C66.2014 93.1354 68.7168 95.1904 69.9896 95.536C71.2624 95.8816 72.5883 96.1333 72.5883 96.1333L74.6869 93.7365L74.0997 96.4752C74.0997 96.4752 77.1303 97.0763 77.5394 97.0763H78.7971C80.5434 89.0629 83.0853 81.4553 81.7329 73.1714C81.5624 72.1458 81.4791 71.5447 81.4791 71.5447C81.4791 71.5447 78.3766 72.3148 76.2779 71.7137C74.1793 71.1126 70.9821 70.3462 70.9821 70.3462Z" stroke="#001550" stroke-width="0.5" stroke-linecap="round" stroke-linejoin="round"/>
<path d="M87.4489 50.371L87.2489 50.3686L87.2489 50.3688L87.2489 50.3697L87.2489 50.3732L87.2487 50.387L87.248 50.4411L87.2451 50.6481C87.2424 50.8273 87.2384 51.0852 87.2329 51.4C87.2217 52.0297 87.2045 52.8868 87.1799 53.7966C87.1305 55.6223 87.052 57.6417 86.9364 58.4733C86.7072 60.1231 85.7411 62.0228 85.3823 62.7118C85.2611 62.9315 85.0716 63.1071 84.8416 63.2122C84.611 63.3176 84.352 63.3464 84.1034 63.2942L84.1031 63.2942C84.0247 63.2778 83.8492 63.2205 83.615 63.1364C83.3863 63.0542 83.1158 62.9517 82.8559 62.8512C82.5963 62.7508 82.3484 62.6528 82.1653 62.5798C82.0926 62.5509 82.0303 62.5259 81.9814 62.5064C81.8888 61.1262 81.4955 59.7818 80.8283 58.5662L80.8283 58.5662L80.8267 58.5634C80.2787 57.6014 79.8891 56.7945 79.6665 56.2416C79.5923 56.0572 79.5384 55.9051 79.5031 55.7872C79.6527 55.8592 79.7998 55.9363 79.944 56.0185L79.944 56.0185L79.9471 56.0202C81.0857 56.6433 82.1832 57.3377 83.2327 58.0992L83.4446 58.2529L83.5372 58.0081L83.3501 57.9373L83.5372 58.0081L83.5372 58.008L83.5373 58.0077L83.5378 58.0065L83.5395 58.0019L83.5463 57.9839L83.5724 57.9143C83.5952 57.8536 83.6282 57.7651 83.6694 57.6538C83.7518 57.4311 83.867 57.1168 83.9982 56.7504C84.2604 56.0182 84.5874 55.0757 84.8444 54.2392C85.1006 53.4057 85.4058 52.3715 85.6469 51.5462C85.7675 51.1334 85.8721 50.7727 85.9465 50.5151L86.0338 50.2126L86.0572 50.1313L86.0632 50.1103L86.0648 50.1049L86.0652 50.1036L86.0653 50.1032L86.0653 50.1031L85.8731 50.0479M87.4489 50.371L87.2495 50.3559L87.2495 50.3558L87.2495 50.3557L87.2496 50.3551L87.2497 50.3528L87.2504 50.3439L87.253 50.3101L87.2626 50.1872C87.2706 50.0843 87.2818 49.9442 87.2941 49.7952C87.3182 49.5042 87.3475 49.1713 87.3673 49.0209C87.4057 48.4669 87.3302 47.911 87.1454 47.3867C87.012 47.0823 86.8917 46.5757 86.7879 46.1148C86.7707 46.0387 86.7541 45.9639 86.7378 45.8912C86.6509 45.5014 86.5772 45.1708 86.5158 45.0099C86.503 44.9764 86.4918 44.9418 86.482 44.9067C86.4886 44.9667 86.4947 45.0168 86.4992 45.0523L86.5048 45.0954L86.5063 45.1065L86.5066 45.1092L86.5067 45.1098L86.5068 45.1099L86.5068 45.1099L86.5068 45.11L86.5066 45.11L86.1207 45.2057L86.1206 45.2057L86.1206 45.2057L86.1206 45.2057L86.1206 45.2056L86.1203 45.2049L86.1192 45.2018L86.1147 45.1895L86.097 45.1419C86.0816 45.1006 86.0591 45.0413 86.0311 44.9697C85.975 44.8263 85.8973 44.6346 85.8103 44.4398C85.7227 44.2439 85.6279 44.0499 85.5379 43.8997C85.4927 43.8244 85.4516 43.7649 85.4162 43.7232C85.4009 43.7052 85.3892 43.6934 85.381 43.6859C85.3802 43.6885 85.3794 43.6914 85.3787 43.6944C85.369 43.7318 85.3647 43.7768 85.3636 43.8165C85.3632 43.828 85.3632 43.8383 85.3633 43.8471L86.0198 45.4253L85.6672 45.6107L85.8352 45.5021L85.6672 45.6107L85.6672 45.6107L85.6671 45.6105L85.6666 45.6097L85.6647 45.6068L85.6574 45.5955L85.6295 45.5522L85.5283 45.3953C85.4438 45.264 85.3291 45.0851 85.2081 44.8953C84.9679 44.5184 84.6983 44.0903 84.5965 43.9098C84.5079 43.7527 84.3782 43.5871 84.2475 43.463C84.2016 43.4194 84.1577 43.3829 84.1175 43.3544C84.1211 43.3703 84.1251 43.3872 84.1297 43.4053C84.1644 43.5418 84.217 43.6944 84.2671 43.8396C84.2899 43.9058 84.3122 43.9705 84.332 44.0314C84.3875 44.2018 84.5408 44.5753 84.6845 44.9152C84.7555 45.0832 84.8229 45.24 84.8725 45.3548L84.9319 45.4916L84.9482 45.5291L84.9525 45.5389L84.9536 45.5413L84.9538 45.542L84.9539 45.5421L84.9539 45.5421L84.7707 45.6223L84.9539 45.5421L84.6337 45.7681C84.2995 45.454 83.9995 45.1059 83.7388 44.7294L83.7281 44.714L83.7205 44.6969C83.5539 44.3227 83.3637 43.9592 83.1512 43.6086C83.1451 43.6109 83.1315 43.6177 83.1139 43.6375C83.0651 43.6926 83.0104 43.8288 83.0721 44.0363C83.1453 44.2823 83.3457 44.7523 83.5341 45.1729C83.6271 45.3805 83.7153 45.572 83.7803 45.7116C83.8128 45.7814 83.8395 45.8382 83.858 45.8775L83.8794 45.9227L83.885 45.9345L83.8864 45.9374L83.8867 45.9382L83.8868 45.9383L83.8868 45.9384L83.7062 46.0243L83.8868 45.9384L84.0083 46.1937L83.7276 46.2232L83.7275 46.2232L83.7273 46.2232L83.7273 46.2232L83.7271 46.2232L83.727 46.2232L83.723 46.2237L83.7045 46.2263C83.6879 46.2288 83.6639 46.2329 83.6358 46.239C83.5775 46.2517 83.51 46.2712 83.4539 46.2987C83.3935 46.3284 83.3755 46.3531 83.3724 46.3601C83.3723 46.3601 83.3723 46.3602 83.3723 46.3602C83.3719 46.3609 83.3709 46.363 83.3719 46.3703C83.3732 46.3802 83.3789 46.4031 83.4024 46.4407C83.4705 46.5498 83.5491 46.6941 83.633 46.8481C83.6391 46.8593 83.6452 46.8705 83.6513 46.8818C83.7436 47.0511 83.8444 47.2348 83.953 47.414C84.1766 47.7829 84.4109 48.0931 84.6372 48.2263C84.8021 48.3232 84.971 48.4857 85.1259 48.6597C85.2835 48.8367 85.4381 49.039 85.5732 49.2282C85.7086 49.4178 85.8263 49.5968 85.91 49.7282C85.9519 49.794 85.9855 49.848 86.0086 49.8858L86.0353 49.9297L86.0424 49.9414L86.0443 49.9445L86.0448 49.9454L86.0449 49.9456L86.045 49.9457L85.8731 50.0479M87.4489 50.371L87.2489 50.3685L87.2491 50.3558L87.4489 50.371ZM85.8731 50.0479L86.045 49.9458L86.0891 50.02L86.0653 50.1031L85.8731 50.0479ZM83.1486 43.6064C83.1486 43.6063 83.1489 43.6064 83.1494 43.6068L83.1486 43.6064ZM84.0987 43.2005C84.0987 43.2005 84.0986 43.2011 84.0984 43.2023L84.0987 43.2005ZM86.3263 43.9531C86.3263 43.953 86.3267 43.9535 86.3276 43.9547C86.3267 43.9538 86.3263 43.9531 86.3263 43.9531Z" fill="white" stroke="#001550" stroke-width="0.4"/>
<path d="M80.0431 55.8448C81.1891 56.4719 82.2937 57.1708 83.3501 57.9373C83.3501 57.9373 84.1419 55.8448 84.6533 54.1805C85.1647 52.5162 85.8731 50.0479 85.8731 50.0479C85.8731 50.0479 85.0851 48.7218 84.5358 48.3987C83.9865 48.0756 83.5092 46.9898 83.2327 46.5465C82.9562 46.1032 83.7062 46.0243 83.7062 46.0243C83.7062 46.0243 83.0357 44.6155 82.8804 44.0933C82.7251 43.5711 83.1153 43.248 83.3122 43.4884C83.5332 43.8513 83.7305 44.2278 83.9032 44.6155C84.1559 44.9804 84.4467 45.3179 84.7707 45.6223C84.7707 45.6223 84.2593 44.454 84.1419 44.0933C84.0244 43.7326 83.763 43.0865 83.9828 43.0865C84.2025 43.0865 84.5737 43.4621 84.7707 43.8115C84.9677 44.1609 85.8352 45.5021 85.8352 45.5021L85.1647 43.8904C85.1647 43.8904 85.1268 43.3682 85.4412 43.4884C85.7556 43.6087 86.3087 45.1377 86.3087 45.1377C86.3087 45.1377 86.1117 43.7326 86.3844 43.7702C86.6572 43.8078 86.5436 44.5216 86.7027 44.9386C86.8618 45.3556 87.0815 46.7494 87.3315 47.3129C87.5279 47.867 87.6079 48.4552 87.5664 49.0411C87.5285 49.3228 87.4489 50.371 87.4489 50.371C87.4489 50.371 87.3694 56.8103 87.1345 58.5009C86.8996 60.1914 85.9147 62.1225 85.5586 62.8062C85.4166 63.0647 85.1943 63.2709 84.9248 63.3941C84.6552 63.5173 84.3527 63.5509 84.0623 63.49C83.6835 63.4111 81.7894 62.6447 81.7894 62.6447C81.7146 61.2498 81.3263 59.8892 80.653 58.6624C79.5506 56.7276 79.0771 55.4015 79.3119 55.4803C79.5623 55.5882 79.8064 55.7099 80.0431 55.8448Z" stroke="#001550" stroke-width="0.4" stroke-linecap="round" stroke-linejoin="round"/>
<path d="M83.7063 46.0243L84.6117 47.2303C84.6117 47.2303 85.9527 47.4332 86.5058 48.3573" fill="white"/>
<path d="M83.7063 46.0243L84.6117 47.2303C84.6117 47.2303 85.9527 47.4332 86.5058 48.3573" stroke="#001550" stroke-width="0.5" stroke-linecap="round" stroke-linejoin="round"/>
<path d="M84.2175 45.7429L86.3844 45.7012" stroke="#001550" stroke-width="0.5" stroke-linecap="round" stroke-linejoin="round"/>
<path d="M75.4291 48.6015L75.2428 48.529L75.201 48.6363L75.2729 48.7264L75.4291 48.6015ZM75.4291 48.6015L75.2428 48.5289L75.2429 48.5287L75.2432 48.5277L75.2447 48.5239L75.2506 48.5087L75.2737 48.449C75.294 48.3965 75.3238 48.3192 75.3619 48.2199C75.4379 48.0213 75.547 47.7349 75.6786 47.3839C75.942 46.6819 76.2958 45.722 76.6576 44.6902C77.0196 43.6581 77.3891 42.5554 77.6842 41.5674C77.9805 40.5755 78.1978 39.7122 78.2609 39.1531C78.3919 37.9937 78.8326 34.6101 79.2401 31.5192C79.444 29.9732 79.6397 28.4995 79.7844 27.4123C79.8568 26.8687 79.9164 26.4217 79.958 26.1106L80.006 25.7508L80.0079 25.7367C79.833 25.6069 79.6325 25.5141 79.4189 25.4646C79.2007 25.4141 78.9746 25.4101 78.7554 25.4524L78.7524 25.459L78.6266 25.7335C78.5179 25.9707 78.3621 26.3116 78.1736 26.7257C77.7965 27.5539 77.2885 28.6751 76.7648 29.8472C75.7138 32.1993 74.6099 34.7336 74.3625 35.5341C74.0067 36.6855 73.9943 37.5482 73.9834 38.3099C73.979 38.6099 73.975 38.8942 73.9502 39.1744C73.9375 39.3183 73.879 39.53 73.7973 39.7752C73.7136 40.0263 73.5993 40.3305 73.4648 40.6675C73.1957 41.342 72.8427 42.1561 72.485 42.955C71.7699 44.5519 71.0316 46.0975 70.8988 46.3591C70.8583 46.4387 70.772 46.5665 70.6641 46.7205C70.5896 46.8268 70.4996 46.9528 70.3983 47.0946C70.3487 47.164 70.2964 47.2372 70.2419 47.3137C69.9088 47.7814 69.4863 48.3831 69.0589 49.0533C68.199 50.4017 67.3387 51.9986 67.1298 53.325C66.9158 54.6841 66.8753 55.7832 66.9287 56.6234C66.9824 57.4677 67.13 58.0384 67.2823 58.3489C67.3591 58.5056 67.5754 58.8407 67.8774 59.2883C68.0774 59.5848 68.31 59.9234 68.5555 60.2809C68.6764 60.4568 68.8003 60.6372 68.9251 60.8195C69.6744 61.9142 70.4636 63.0886 70.7247 63.6669C70.9907 64.2561 71.1274 65.0545 71.1994 65.8106C71.2718 66.5715 71.2803 67.3107 71.2803 67.7916C71.2803 68.0643 71.1981 68.3864 71.0967 68.7074C71.0387 68.8911 70.9689 69.0901 70.9 69.2866C70.8501 69.4291 70.8006 69.5703 70.7563 69.7035C70.6467 70.0334 70.5613 70.3355 70.5362 70.5867C70.5105 70.8432 70.5526 70.9962 70.6362 71.0818C70.7597 71.2082 71.029 71.3886 71.4198 71.5978C71.8041 71.8035 72.2877 72.0275 72.8228 72.2445C73.8945 72.6793 75.1587 73.0804 76.2297 73.2519C77.3194 73.4264 78.3323 73.5516 79.1633 73.5396C80.0021 73.5276 80.5984 73.3756 80.9185 73.0548C81.7316 72.0973 82.2902 70.9535 82.5436 69.7275C82.6254 69.2278 82.689 67.663 82.689 65.8859C82.689 64.1094 82.6254 62.1499 82.4586 60.8787C82.2959 59.6381 81.4782 57.9793 80.6265 56.4996C80.2034 55.7646 79.7768 55.082 79.4278 54.5276C79.3929 54.4721 79.3587 54.4178 79.3252 54.3648C79.0282 53.8935 78.7931 53.5204 78.6902 53.3163C78.5898 53.1171 78.3305 52.7333 77.9855 52.2563C77.6443 51.7845 77.2292 51.2352 76.827 50.7117C76.4249 50.1885 76.0363 49.6921 75.7482 49.3264C75.6042 49.1436 75.4853 48.9935 75.4024 48.8892L75.3065 48.7686L75.2814 48.7371L75.275 48.729L75.2734 48.727L75.273 48.7265L75.2729 48.7264L75.4291 48.6015Z" fill="white" stroke="#001550" stroke-width="0.4"/>
<path d="M78.615 25.2789C78.615 25.2789 74.6753 33.8446 74.1715 35.4751C73.6676 37.1055 73.8343 38.2138 73.751 39.1568C73.6676 40.0998 70.9818 45.7538 70.7204 46.2685C70.4591 46.7832 67.3641 50.5513 66.9323 53.2938C66.5004 56.0364 66.7656 57.7495 67.1027 58.437C67.4399 59.1245 70.0386 62.6334 70.5424 63.7492C71.0462 64.865 71.0803 66.8336 71.0803 67.7916C71.0803 68.7496 69.906 70.6205 70.4931 71.2216C71.0803 71.8227 74.0161 73.1 76.1981 73.4494C78.3801 73.7988 80.3083 73.9603 81.0659 73.1902C81.9043 72.205 82.48 71.0269 82.7403 69.7639C82.9108 68.7345 82.9941 63.4223 82.657 60.8526C82.3198 58.283 79.3044 54.0903 78.8688 53.2262C78.4331 52.3622 75.4291 48.6015 75.4291 48.6015C75.4291 48.6015 78.1983 41.4898 78.4597 39.1756C78.721 36.8613 80.2212 25.6509 80.2212 25.6509C80.0034 25.4653 79.7436 25.3346 79.464 25.2698C79.1844 25.2051 78.8931 25.2082 78.615 25.2789Z" stroke="#001550" stroke-width="0.5" stroke-linecap="round" stroke-linejoin="round"/>
<path d="M73.735 56.9379L73.735 56.9379C74.0929 56.5268 74.3859 55.9502 74.6253 55.3158C74.8657 54.6788 75.0569 53.9701 75.205 53.2844C75.5005 51.9164 75.629 50.6186 75.629 50.1343V49.1755C75.6664 49.2228 75.7062 49.2732 75.7481 49.3264C76.0362 49.6921 76.4248 50.1885 76.8269 50.7117C77.2291 51.2352 77.6442 51.7845 77.9854 52.2563C78.3304 52.7333 78.5897 53.1171 78.6901 53.3163C78.793 53.5204 79.0281 53.8935 79.3252 54.3648C79.3586 54.4179 79.3928 54.4722 79.4277 54.5276C79.7767 55.082 80.2033 55.7646 80.6264 56.4996C81.4781 57.9793 82.2958 59.6381 82.4586 60.8787C82.6253 62.1499 82.6889 64.1094 82.6889 65.8859C82.6889 67.663 82.6253 69.2278 82.5435 69.7275C82.2901 70.9535 81.7315 72.0974 80.9184 73.0549C80.5983 73.3756 80.002 73.5276 79.1632 73.5397C78.3322 73.5516 77.3193 73.4264 76.2296 73.2519C75.1586 73.0804 73.8944 72.6793 72.8227 72.2446C72.2876 72.0275 71.804 71.8035 71.4197 71.5978C71.0289 71.3887 70.7596 71.2082 70.6361 71.0818C70.5525 70.9962 70.5104 70.8432 70.5361 70.5867C70.5612 70.3356 70.6466 70.0335 70.7562 69.7035C70.8005 69.5703 70.85 69.4291 70.8999 69.2866C70.9688 69.0901 71.0386 68.8911 71.0966 68.7074C71.198 68.3864 71.2802 68.0644 71.2802 67.7916C71.2802 67.3122 71.2774 66.573 71.2108 65.8121C71.1446 65.0561 71.0137 64.2569 70.7473 63.6669C70.4862 63.0886 69.697 61.9142 68.9477 60.8195C68.823 60.6373 68.699 60.4568 68.5782 60.2809C68.3326 59.9234 68.1 59.5848 67.9 59.2883C67.598 58.8407 67.3818 58.5056 67.3049 58.3489C67.153 58.0391 67.0089 57.4689 66.9571 56.6238C66.9055 55.7832 66.946 54.6837 67.1526 53.3241C67.2819 52.4805 67.6788 51.5249 68.1748 50.5907C68.1578 51.0434 68.1525 51.5729 68.1776 52.1178C68.2214 53.0696 68.3587 54.0943 68.7055 54.8359C69.1421 55.7744 70.0106 56.7067 70.9509 57.2093C71.4224 57.4612 71.9251 57.6122 72.4099 57.5897C72.901 57.5669 73.362 57.3661 73.735 56.9379Z" fill="#10B981" stroke="#001550" stroke-width="0.4"/>
<path d="M73.5842 56.8065C72.2394 58.3506 69.7241 56.5511 68.8869 54.7515C68.2277 53.3427 68.3414 50.7843 68.4247 49.7361C67.7391 50.9007 67.1254 52.1818 66.9549 53.2939C66.5382 56.0364 66.7882 57.7495 67.1254 58.437C67.4625 59.1245 70.0612 62.6334 70.565 63.7492C71.0689 64.865 71.0802 66.8336 71.0802 67.7916C71.0802 68.7496 69.9059 70.6205 70.493 71.2216C71.0802 71.8227 74.016 73.1 76.198 73.4494C78.38 73.7988 80.3082 73.9603 81.0658 73.1902C81.9042 72.205 82.4799 71.0269 82.7402 69.7639C82.9107 68.7346 82.994 63.4224 82.6569 60.8527C82.3197 58.283 79.3043 54.0903 78.8687 53.2262C78.433 52.3622 75.429 48.6015 75.429 48.6015V50.1343C75.429 51.066 74.9252 55.2662 73.5842 56.8065Z" stroke="#001550" stroke-width="0.5" stroke-linecap="round" stroke-linejoin="round"/>
<path d="M50.6922 110.462C50.4384 111.66 50.4384 115.519 50.8589 116.717C51.2794 117.916 54.0485 121 54.8857 121C55.7229 121 55.8934 120.316 55.8934 119.715C55.8934 119.114 55.4729 116.804 55.4729 115.861C55.4729 115.027 55.8517 112.247 55.9578 111.619C55.6343 111.539 55.3025 111.496 54.9691 111.491C54.2114 111.491 54.1319 112.521 53.6281 111.578C53.1242 110.635 53.7947 108.749 53.7947 108.749C53.7947 108.749 50.9422 109.264 50.6922 110.462Z" fill="white" stroke="#001550" stroke-width="0.7" stroke-linecap="round" stroke-linejoin="round"/>
<path d="M78.5732 25.4217L78.327 23.0962C78.327 23.0962 78.4899 23.1789 78.327 22.8858C78.1641 22.5928 75.5086 18.3588 75.5086 18.3588C75.4892 18.326 75.4796 18.2884 75.4811 18.2503C75.4826 18.2123 75.495 18.1755 75.517 18.1443C75.5389 18.1131 75.5694 18.0887 75.6048 18.0742C75.6402 18.0596 75.6791 18.0554 75.7169 18.062C76.0465 18.062 77.0011 19.1891 77.0011 19.1891C77.0011 19.1891 76.7094 18.2161 77.0428 18.4715C77.4894 18.9213 77.9046 19.4008 78.2853 19.9066C78.2853 19.9066 78.1186 19.1553 78.2853 19.1891C78.452 19.2229 79.2778 21.0938 79.2778 21.0938C79.2778 21.0938 80.6036 23.1638 80.687 23.3479C80.7582 23.5374 80.7866 23.74 80.7703 23.9415C80.7703 24.1519 80.1907 26.143 80.1907 26.143C80.0172 25.8837 79.7732 25.6783 79.487 25.5507C79.2008 25.423 78.884 25.3783 78.5732 25.4217Z" fill="white" stroke="#001550" stroke-width="0.5" stroke-linecap="round" stroke-linejoin="round"/>
<path d="M78.327 23.0849C78.2544 22.5669 78.1104 22.0613 77.8989 21.5822C77.6527 21.2065 76.5731 20.0156 77.2777 19.9743C77.9823 19.9329 78.3573 21.368 78.6035 21.7512C78.8498 22.1344 80.2211 22.5965 80.2589 23.3554C80.2671 23.7117 80.309 24.0664 80.384 24.4149" fill="white"/>
<path d="M78.327 23.0849C78.2544 22.5669 78.1104 22.0613 77.8989 21.5822C77.6527 21.2065 76.5731 20.0156 77.2777 19.9743C77.9823 19.9329 78.3573 21.368 78.6035 21.7512C78.8498 22.1344 80.2211 22.5965 80.2589 23.3554C80.2671 23.7117 80.309 24.0664 80.384 24.4149" stroke="#001550" stroke-width="0.5" stroke-linecap="round" stroke-linejoin="round"/>
<path d="M77.0012 19.2041L77.5808 20.0081" stroke="#001550" stroke-width="0.5" stroke-linecap="round" stroke-linejoin="round"/>
<path d="M78.2854 19.9217L78.74 20.8121" stroke="#001550" stroke-width="0.5" stroke-linecap="round" stroke-linejoin="round"/>
<path d="M78.615 25.279C78.615 25.279 75.3762 32.3231 74.395 34.8515C75.5769 34.765 77.3839 34.9003 78.8158 36.1851C79.3462 32.0526 80.2099 25.6208 80.2099 25.6208C79.9906 25.4422 79.7315 25.318 79.4542 25.2585C79.1768 25.1991 78.8891 25.2061 78.615 25.279Z" fill="#10B981" stroke="#001550" stroke-width="0.5" stroke-linecap="round" stroke-linejoin="round"/>
</svg>
