<svg width="171" height="120" viewBox="0 0 171 120" fill="none" xmlns="http://www.w3.org/2000/svg"><path opacity=".7" d="M98.534 4.517S76.895-4.103 56.058 7.7C35.22 19.501 25.078 44.016 16.337 63.632c-8.741 19.617-3.074 40.076 13.207 49.881s26.957-3.444 49.529-3.322c22.572.122 28.709 3.661 47.185-8.837 18.477-12.498 21.245-43.435 6.004-66.929-15.24-23.494-33.728-29.908-33.728-29.908Z" fill="#E7F1EA"/><path d="m141.216 41.064.113.384h-.004l-.012.005-.049.014-.19.057-.727.22c-.627.19-1.525.468-2.608.815a196.07 196.07 0 0 0-8.027 2.749c-2.959 1.092-5.959 2.308-8.321 3.5-1.181.597-2.192 1.182-2.955 1.737-.778.567-1.241 1.062-1.408 1.463-.817 1.962-.872 3.684-.725 4.91.067.563.177 1.021.275 1.351l.173-.18c.395-.405.959-.958 1.634-1.544 1.341-1.162 3.162-2.492 4.999-3.035.928-.276 2.054-.366 3.252-.399a75.31 75.31 0 0 1 1.871-.02h.078c.616 0 1.243-.002 1.873-.015 2.644-.056 5.252-.33 7.183-1.632.329-.222.702-.463 1.107-.725 4.683-3.03 13.804-8.93 12.176-21.681-.224-1.759-.544-2.821-.894-3.379-.172-.273-.328-.388-.448-.432-.112-.04-.249-.039-.436.046-.407.185-.913.706-1.485 1.547-.558.822-1.138 1.888-1.709 3.077-1.141 2.375-2.23 5.195-3.034 7.427a123.28 123.28 0 0 0-1.228 3.573l-.069.214-.018.055-.004.014-.001.004-.382-.12Zm0 0 .113.384.204-.06.065-.203-.382-.121ZM105.148 59.11a8.604 8.604 0 0 1-.976 1.706l.018-.169c.105-1.036.086-2.375-.302-3.646-.391-1.278-1.162-2.505-2.568-3.258-1.4-.75-3.368-.998-6.088-.452-1.084.219-2.002.728-2.732 1.286a7.329 7.329 0 0 1 2.302-1.921c1.923-1.009 4.578-1.215 7.901.65 1.649.925 2.418 1.946 2.708 2.916.291.977.118 1.974-.263 2.888Z" fill="#001550" stroke="#001550" stroke-width=".8"/><path opacity=".2" d="M84.458 107.685h-.001c-16.752 1.061-34.274-4.145-46.046-16.03-11.778-11.89-16.867-31.828-8.753-46.36 7.154-12.808 24.741-25.973 46.23-32.456 21.472-6.479 46.768-6.262 69.329 7.594 3.441 2.116 5.159 5.043 5.585 8.241.428 3.213-.446 6.732-2.261 10.005-3.638 6.56-10.97 11.983-18.751 11.875h-.006a16.031 16.031 0 0 0-12.043 5.453l-.002.003c-1.496 1.735-2.367 4.186-2.411 6.54-.044 2.353.742 4.677 2.649 6.076l.001.001c5.909 4.3 7.476 13.092 4.685 19.956-2.789 6.861-9.108 11.847-16.026 14.689-6.92 2.843-14.662 3.95-22.18 4.413Zm5.816-48.956c.32 3.418 3.633 5.852 7.505 5.915l-.074.073 1.117-.105c4.312-.402 7.681-3.64 7.332-7.37-.348-3.73-4.257-6.28-8.563-5.877-4.308.402-7.666 3.64-7.317 7.364Z" fill="#fff" stroke="#001550" stroke-width=".8"/><path d="M145.426 20.092C100.066-7.766 43.748 19.25 29.308 45.101c-8.223 14.725-3.05 34.854 8.82 46.836 11.868 11.983 29.512 17.214 46.354 16.148 7.535-.465 15.327-1.576 22.307-4.443 6.979-2.867 13.402-7.915 16.245-14.908 2.842-6.993 1.271-15.998-4.821-20.43-3.54-2.598-3.03-8.716-.171-12.033a15.635 15.635 0 0 1 11.743-5.317c15.927.22 29.808-22.148 15.641-30.862Zm-46.63 44.112c-4.163.394-7.802-2.076-8.124-5.512-.321-3.436 2.794-6.54 6.956-6.929 4.162-.39 7.806 2.076 8.128 5.517.322 3.441-2.803 6.545-6.97 6.934l.01-.01Z" fill="#FFC966" stroke="#001550" stroke-width=".8" stroke-miterlimit="10"/><path d="M98.557 51.867a8.263 8.263 0 0 0-.917.047h-.005l.01.117m.912-.164-7.745 6.822v-.002c-.308-3.288 2.675-6.383 6.823-6.773l.01.117m.912-.164v.124a9.007 9.007 0 0 0-.911.04m.91-.164-.91.164" fill="#001550" stroke="#001550" stroke-width=".8"/><path d="M65.601 86.217c1.895-3.11 5.063-5.883 8.678-7.688 3.617-1.805 7.642-2.623 11.245-1.882h.001c5.358 1.088 8.705 4.08 9.525 7.39.812 3.278-.813 7.07-5.834 9.883a38.765 38.765 0 0 1-14.483 4.693c-1.808.209-3.75.218-5.493-.182-1.742-.4-3.26-1.2-4.27-2.591v-.001c-1.953-2.68-1.196-6.628.631-9.622ZM54.027 79.173c-1.694.191-3.503.204-5.135-.158-1.63-.362-3.058-1.09-4.035-2.362-1.003-1.316-1.27-2.948-1.026-4.602.244-1.656.997-3.308 1.992-4.616 1.901-2.486 4.803-4.6 8.003-5.897 3.202-1.296 6.664-1.759 9.688-.992 4.324 1.108 7.007 3.647 7.645 6.4.631 2.72-.699 5.836-4.806 8.212a32.034 32.034 0 0 1-12.326 4.015Z" fill="#10B981" stroke="#001550" stroke-width=".8"/><path opacity=".2" d="M54.027 79.173c-1.694.191-3.503.204-5.135-.158-1.63-.362-3.058-1.09-4.035-2.362-1.003-1.316-1.27-2.948-1.026-4.602.244-1.656.997-3.308 1.992-4.616 1.901-2.486 4.803-4.6 8.003-5.897 3.202-1.296 6.664-1.759 9.688-.992 4.324 1.108 7.007 3.647 7.645 6.4.631 2.72-.699 5.836-4.806 8.212a32.034 32.034 0 0 1-12.326 4.015Z" fill="#fff" stroke="#001550" stroke-width=".8"/><path d="M54.47 55.308h-.002c-3.194.353-6.673.048-8.573-2.273-1.047-1.286-1.294-2.895-.99-4.495.306-1.604 1.162-3.169 2.275-4.308 1.844-1.886 4.47-3.364 7.267-4.157 2.799-.794 5.73-.891 8.184-.065 3.288 1.107 5.313 3.197 5.773 5.402.454 2.174-.582 4.625-3.778 6.554a25.218 25.218 0 0 1-10.156 3.342Z" fill="#10B981" stroke="#001550" stroke-width=".8"/><path opacity=".4" d="M54.47 55.308h-.002c-3.194.353-6.673.048-8.573-2.273-1.047-1.286-1.294-2.895-.99-4.495.306-1.604 1.162-3.169 2.275-4.308 1.844-1.886 4.47-3.364 7.267-4.157 2.799-.794 5.73-.891 8.184-.065 3.288 1.107 5.313 3.197 5.773 5.402.454 2.174-.582 4.625-3.778 6.554a25.218 25.218 0 0 1-10.156 3.342Z" fill="#fff" stroke="#001550" stroke-width=".8"/><path d="M70.527 34.467a18.56 18.56 0 0 0 7.997-2.666c2.28-1.464 3.027-3.274 2.746-4.923-.287-1.68-1.661-3.328-3.908-4.388-1.904-.897-4.337-1.17-6.746-.878-2.407.292-4.747 1.142-6.465 2.443a7.175 7.175 0 0 0-2.574 3.986c-.36 1.548-.121 3.145.964 4.401l7.986 2.025Zm0 0h-.006m.006 0h-.006m0 0c-2.964.32-6.172.068-7.98-2.025l7.98 2.025Z" fill="#10B981" stroke="#001550" stroke-width=".8"/><path opacity=".6" d="M70.527 34.467a18.56 18.56 0 0 0 7.997-2.666c2.28-1.464 3.027-3.274 2.746-4.923-.287-1.68-1.661-3.328-3.908-4.388-1.904-.897-4.337-1.17-6.746-.878-2.407.292-4.747 1.142-6.465 2.443a7.175 7.175 0 0 0-2.574 3.986c-.36 1.548-.121 3.145.964 4.401l7.986 2.025Zm0 0h-.006m.006 0h-.006m0 0c-2.964.32-6.172.068-7.98-2.025l7.98 2.025Z" fill="#fff" stroke="#001550" stroke-width=".8"/><path d="m88.63 23.12-.002-.002c-1.129-1.215-1.375-2.823-.97-4.337.405-1.521 1.458-2.91 2.87-3.646 1.538-.797 3.586-1.052 5.617-.837 2.031.215 3.99.895 5.345 1.908 1.23.925 1.974 2.13 2.089 3.315.114 1.165-.372 2.384-1.753 3.391h-.001c-1.637 1.197-3.719 1.751-5.822 1.975-2.725.285-5.657.097-7.374-1.768Z" fill="#10B981" stroke="#001550" stroke-width=".8"/><path opacity=".8" d="m88.63 23.12-.002-.002c-1.129-1.215-1.375-2.823-.97-4.337.405-1.521 1.458-2.91 2.87-3.646 1.538-.797 3.586-1.052 5.617-.837 2.031.215 3.99.895 5.345 1.908 1.23.925 1.974 2.13 2.089 3.315.114 1.165-.372 2.384-1.753 3.391h-.001c-1.637 1.197-3.719 1.751-5.822 1.975-2.725.285-5.657.097-7.374-1.768Z" fill="#fff" stroke="#001550" stroke-width=".8"/><path d="M113.808 17.573c1.354-.368 3.2-.11 4.899.591 1.7.702 3.153 1.808 3.784 3.03.697 1.375.569 3.178-.472 4.215-.879.867-2.229 1.125-3.619 1.266-2.498.25-5.168.126-6.794-1.522-1.172-1.19-1.434-2.857-.986-4.357.449-1.503 1.597-2.792 3.188-3.223Z" fill="#fff" stroke="#001550" stroke-width=".8"/><path d="M107.257 35.873 90.35 40.604l-.113 2.182 2.22 4.54.34 1.285 22.927-4.68-8.467-8.058Z" fill="#fff" stroke="#001550" stroke-width=".8" stroke-linecap="round" stroke-linejoin="round"/><path d="m107.257 35.873 6.178 8.552s1.127.785 2.165.328c1.038-.456 1.173-1.372-1.773-5.098-2.946-3.727-4.252-4.714-4.252-4.714s-1.844-1.412-2.318.932Z" fill="#fff" stroke="#001550" stroke-width=".8" stroke-linecap="round" stroke-linejoin="round"/><path d="m92.419 41.023.034.025.037.017.006.003.034.018c.032.018.083.047.148.091.131.087.32.228.535.44.429.423.969 1.131 1.364 2.255l.004.012c.341.877.366 1.845.072 2.739a2.42 2.42 0 0 1-1.909 1.594 2.546 2.546 0 0 1-2.074-.903 5.308 5.308 0 0 1-1.088-2.284l-.003-.013-.004-.013a5.513 5.513 0 0 1-.143-2.29 2.611 2.611 0 0 1 1.122-1.774 1.66 1.66 0 0 1 1.865.083Z" fill="#001550" stroke="#001550" stroke-width=".8"/><path d="M91.13 44.372c.097.943-.258 1.754-.794 1.812-.536.058-1.05-.666-1.147-1.608-.097-.943.253-1.759.789-1.817.536-.058 1.05.65 1.152 1.613Z" fill="#fff" stroke="#001550" stroke-width=".8" stroke-linecap="round" stroke-linejoin="round"/><path d="M88.883 46.347c.537-.056.893-.867.794-1.81-.098-.945-.614-1.665-1.15-1.61-.538.057-.893.868-.795 1.812.099.944.614 1.664 1.151 1.608Z" fill="#fff" stroke="#001550" stroke-width=".8" stroke-linecap="round" stroke-linejoin="round"/><path d="M88.474 44.646c.028.269-.01.5-.075.652a.357.357 0 0 1-.095.146c-.02-.008-.068-.036-.134-.126a1.294 1.294 0 0 1-.214-.615 1.353 1.353 0 0 1 .076-.65.377.377 0 0 1 .094-.147.39.39 0 0 1 .131.128c.1.136.19.352.217.612Z" fill="#001550" stroke="#001550" stroke-width=".8"/><path d="m97.162 45.304 8.479-.767-8.479.767Z" fill="#fff"/><path d="m97.162 45.304 8.479-.767" stroke="#001550" stroke-width=".8" stroke-linecap="round" stroke-linejoin="round"/><path d="M115.243 43.145a.833.833 0 1 0 .273.856l-.806-.397a8.824 8.824 0 0 0-.136.324" fill="#fff"/><path d="M115.243 43.145a.833.833 0 1 0 .273.856l-.806-.397a8.824 8.824 0 0 0-.136.324" stroke="#001550" stroke-width=".8" stroke-linecap="round" stroke-linejoin="round"/><path d="m100.736 42.847.34.002a6.693 6.693 0 0 0 4.779-1.703" fill="#fff"/><path d="m100.736 42.847.34.002a6.693 6.693 0 0 0 4.779-1.703" stroke="#001550" stroke-width=".8" stroke-linecap="round" stroke-linejoin="round"/><path d="M98.152 42.484c.38.085.761.16 1.141.22l-1.14-.22Z" fill="#fff"/><path d="M98.152 42.484c.38.085.761.16 1.141.22" stroke="#001550" stroke-width=".8" stroke-linecap="round" stroke-linejoin="round"/><path d="m95.956 41.898 1.125.3-1.125-.3Z" fill="#fff"/><path d="m95.956 41.898 1.125.3" stroke="#001550" stroke-width=".8" stroke-linecap="round" stroke-linejoin="round"/><path d="M107.475 37.08a8.751 8.751 0 0 1 3.375 5.608l-3.375-5.609Z" fill="#fff"/><path d="M107.475 37.08a8.751 8.751 0 0 1 3.375 5.608" stroke="#001550" stroke-width=".8" stroke-linecap="round" stroke-linejoin="round"/><path d="M87.683 44.698c.092.906.059 1.82-.102 2.719-.06.339-.154.667-.298.93-.142.26-.318.429-.537.505-.288.1-.603.01-.898-.264a1.953 1.953 0 0 1-.576-1.095 3.09 3.09 0 0 1 1.494-2.984l-.503 1.039 1.15-.688.27-.162Z" fill="#001550" stroke="#001550" stroke-width=".8"/><path d="M97.107 38.817s1.895 1.47 2.505 4.876l.61 3.408 5.821-1.192s.162-6.48-2.721-8.018c-2.883-1.539-.964-.645-.964-.645l-5.251 1.57Z" fill="#FFC966" stroke="#001550" stroke-width=".8" stroke-miterlimit="10"/><path d="m133.504 26.103-10.359 10.026.772 1.622 3.376 2.411.752.793 14.724-12.345-9.265-2.507Z" fill="#fff" stroke="#001550" stroke-width=".8" stroke-linecap="round" stroke-linejoin="round"/><path d="m133.506 26.103 7.811 3.759a2.06 2.06 0 0 0 1.687-.606c.571-.738.314-1.45-3.269-2.993-3.584-1.543-4.916-1.742-4.916-1.742s-1.892-.296-1.313 1.582Z" fill="#fff" stroke="#001550" stroke-width=".8" stroke-linecap="round" stroke-linejoin="round"/><path d="m124.806 35.687.044.007.042-.004h.032c.027 0 .073 0 .134.006.122.01.307.037.538.104.462.133 1.119.426 1.845 1.08l.008.007c.576.49.965 1.164 1.102 1.908a1.928 1.928 0 0 1-.726 1.829 2.03 2.03 0 0 1-1.789.142 4.29 4.29 0 0 1-1.652-1.207l-.01-.01-.009-.01a4.419 4.419 0 0 1-.981-1.569 2.064 2.064 0 0 1 .117-1.649 1.285 1.285 0 0 1 1.305-.634Z" fill="#001550" stroke="#001550" stroke-width=".8"/><path d="M125.186 38.542c.444.646.506 1.372.139 1.622-.368.25-1.029-.069-1.463-.715-.433-.646-.505-1.367-.133-1.617s1.019.069 1.457.71Z" fill="#fff" stroke="#001550" stroke-width=".8" stroke-linecap="round" stroke-linejoin="round"/><path d="M124.208 39.215c.438.64.505 1.367.138 1.617s-1.029-.069-1.462-.71c-.433-.641-.506-1.373-.138-1.622.367-.25 1.018.068 1.462.715Z" fill="#fff" stroke="#001550" stroke-width=".8" stroke-linecap="round" stroke-linejoin="round"/><path d="M123.317 39.824c.117.172.172.34.181.46a.437.437 0 0 1 .001.072.423.423 0 0 1-.066-.026 1.004 1.004 0 0 1-.362-.337 1.035 1.035 0 0 1-.185-.464.544.544 0 0 1-.001-.068.416.416 0 0 1 .065.026c.108.052.246.164.367.337Zm.172.571.002-.003-.002.003Zm.047-.034h.003-.003Zm-.642-.942-.002.003.002-.003Zm-.047.036h-.004.004Z" fill="#001550" stroke="#001550" stroke-width=".8"/><path d="M142.123 28.23a.684.684 0 1 0 .511.518l-.736.026c0 .098-.001.19.024.289" fill="#fff"/><path d="M142.123 28.23a.684.684 0 1 0 .511.518l-.736.026c0 .098-.001.19.024.289" stroke="#001550" stroke-width=".8" stroke-linecap="round" stroke-linejoin="round"/><path d="M134.144 26.89a7.21 7.21 0 0 1 4.615 2.728l-4.615-2.728Z" fill="#fff"/><path d="M134.144 26.89a7.21 7.21 0 0 1 4.615 2.728" stroke="#001550" stroke-width=".8" stroke-linecap="round" stroke-linejoin="round"/><path d="M132.746 31.055c.516-.187 1.031-.348 1.48-.504l-1.48.504Z" fill="#fff"/><path d="M132.746 31.055c.516-.187 1.031-.348 1.48-.504" stroke="#001550" stroke-width=".8" stroke-linecap="round" stroke-linejoin="round"/><path d="M125.221 34.125a71.179 71.179 0 0 1 6.056-2.534l-6.056 2.534Z" fill="#fff"/><path d="M125.221 34.125a71.179 71.179 0 0 1 6.056-2.534" stroke="#001550" stroke-width=".8" stroke-linecap="round" stroke-linejoin="round"/><path d="m132.689 36.569 4.41-4.954-4.41 4.954Z" fill="#fff"/><path d="m132.689 36.569 4.41-4.954" stroke="#001550" stroke-width=".8" stroke-linecap="round" stroke-linejoin="round"/><path d="M127.308 32.105c.518-.511 4.878-.302 5.398 1.972l.499 2.274 4.415-3.44s1.403-4.218-6.249-4.763l-4.063 3.957Z" fill="#001550" stroke="#001550" stroke-width=".8" stroke-miterlimit="10"/><path d="M113.278 62.489c-.003.599.043 1.196.138 1.787.494 2.985 2.181 5.616 3.842 8.15 1.662 2.534 3.369 5.14 3.92 8.12.552 2.98-.357 6.438-2.947 8" stroke="#001550" stroke-width=".8" stroke-linecap="round" stroke-linejoin="round"/></svg>