<svg width="171" height="120" viewBox="0 0 171 120" fill="none" xmlns="http://www.w3.org/2000/svg">
<path opacity="0.7" d="M98.5343 4.51726C98.5343 4.51726 76.8951 -4.10314 56.0577 7.69906C35.2203 19.5013 25.0774 44.0162 16.3366 63.6324C7.59593 83.2485 13.2631 103.708 29.5441 113.513C45.825 123.318 56.5009 110.069 79.0727 110.191C101.645 110.313 107.782 113.852 126.258 101.354C144.735 88.8564 147.503 57.9192 132.262 34.4252C117.022 10.9313 98.5343 4.51726 98.5343 4.51726Z" fill="#E7F1EA"/>
<path d="M141.216 41.064C141.329 41.4477 141.329 41.4478 141.329 41.4478L141.328 41.448L141.325 41.4489L141.313 41.4525L141.264 41.4669L141.074 41.5237C140.906 41.5737 140.661 41.6476 140.347 41.7433C139.72 41.9345 138.822 42.2124 137.739 42.5585C135.573 43.251 132.668 44.2162 129.712 45.3079C126.753 46.4004 123.753 47.6159 121.391 48.8082C120.21 49.4047 119.199 49.9901 118.436 50.5455C117.658 51.1116 117.195 51.6074 117.028 52.0085C116.211 53.9703 116.156 55.6918 116.303 56.9189C116.37 57.481 116.48 57.9394 116.578 58.2692C116.631 58.2132 116.689 58.1533 116.751 58.0898C117.146 57.6836 117.71 57.1312 118.385 56.5455C119.726 55.3832 121.547 54.0531 123.384 53.5095C124.312 53.2345 125.438 53.1438 126.636 53.1112C127.238 53.0948 127.867 53.0931 128.507 53.0918L128.585 53.0917C129.201 53.0905 129.828 53.0893 130.458 53.0759C133.102 53.0197 135.71 52.7462 137.641 51.444C137.97 51.2221 138.343 50.9813 138.748 50.7189C143.431 47.6892 152.552 41.7886 150.924 29.0376C150.7 27.279 150.38 26.217 150.03 25.6592C149.858 25.3862 149.702 25.2708 149.582 25.2273C149.47 25.1868 149.333 25.1881 149.146 25.2732C148.739 25.4583 148.233 25.9788 147.661 26.8195C147.103 27.6419 146.523 28.7083 145.952 29.8966C144.811 32.2717 143.722 35.092 142.918 37.3243C142.516 38.4392 142.185 39.4051 141.956 40.092C141.841 40.4354 141.751 40.709 141.69 40.8966C141.66 40.9903 141.637 41.0626 141.621 41.1113L141.603 41.1664L141.599 41.1803L141.598 41.1837L141.598 41.1845C141.598 41.1847 141.598 41.1847 141.216 41.064ZM141.216 41.064L141.329 41.4477L141.533 41.3877L141.598 41.1847L141.216 41.064Z" fill="#001550" stroke="#001550" stroke-width="0.8"/>
<path d="M105.148 59.1101C104.882 59.7498 104.521 60.3333 104.172 60.8161C104.178 60.7607 104.184 60.7044 104.19 60.6473C104.295 59.6111 104.276 58.2717 103.888 57.0006C103.497 55.723 102.726 54.4964 101.32 53.7429C99.9201 52.9929 97.9523 52.7445 95.232 53.2911L95.2317 53.2912C94.1479 53.5098 93.2297 54.0189 92.5002 54.5766C93.0991 53.8276 93.8709 53.1443 94.8025 52.6557C96.7249 51.6473 99.3801 51.4407 102.703 53.3056C104.352 54.2308 105.121 55.2517 105.411 56.222C105.702 57.1991 105.529 58.1963 105.148 59.1101Z" fill="#001550" stroke="#001550" stroke-width="0.8"/>
<path opacity="0.2" d="M84.4576 107.685L84.4569 107.685C67.705 108.746 50.1826 103.54 38.4113 91.6559C26.6334 79.7651 21.5435 59.8267 29.6576 45.2958C36.812 32.4875 54.3991 19.3218 75.8877 12.8387C97.3603 6.36032 122.656 6.57727 145.217 20.4331C148.658 22.5495 150.376 25.4764 150.802 28.6741C151.23 31.8866 150.356 35.4062 148.541 38.6793C144.903 45.2388 137.571 50.6619 129.79 50.5543L129.784 50.5543C127.505 50.5548 125.251 51.0415 123.175 51.9817C121.098 52.922 119.246 54.2942 117.741 56.0069L117.739 56.0098C116.243 57.7452 115.372 60.196 115.328 62.5494C115.284 64.9026 116.07 67.2267 117.977 68.6261L117.978 68.6271C123.887 72.9269 125.454 81.7186 122.663 88.5829C119.874 95.4441 113.555 100.43 106.637 103.272C99.7163 106.115 91.9752 107.222 84.4576 107.685ZM90.2742 58.7295C90.5944 62.1471 93.9069 64.5812 97.779 64.6437L97.7048 64.7168L98.8223 64.6125C103.134 64.2099 106.503 60.9724 106.154 57.2426C105.806 53.5127 101.897 50.9622 97.5908 51.3647C93.2831 51.7674 89.9254 55.0055 90.2742 58.7295Z" fill="white" stroke="#001550" stroke-width="0.8"/>
<path d="M145.426 20.0922C100.066 -7.76592 43.7479 19.2502 29.3084 45.1007C21.0855 59.8263 26.2583 79.9548 38.1271 91.9374C49.9959 103.92 67.6401 109.151 84.4822 108.085C92.0173 107.62 99.809 106.509 106.789 103.642C113.768 100.775 120.191 95.7265 123.034 88.7336C125.876 81.7407 124.305 72.736 118.213 68.3036C114.673 65.7057 115.183 59.5878 118.042 56.2709C119.509 54.6009 121.315 53.2629 123.34 52.3461C125.365 51.4293 127.562 50.9548 129.785 50.9543C145.712 51.1745 159.593 28.8056 145.426 20.0922ZM98.7955 64.204C94.6331 64.5982 90.9944 62.1283 90.6725 58.6922C90.3506 55.2562 93.4656 52.1521 97.628 51.763C101.79 51.3739 105.434 53.8387 105.756 57.2799C106.078 60.7211 102.953 63.8252 98.7852 64.2142L98.7955 64.204Z" fill="#FFC966" stroke="#001550" stroke-width="0.8" stroke-miterlimit="10"/>
<path d="M98.5566 51.8674C98.2517 51.8658 97.9457 51.881 97.6399 51.9135L97.6351 51.914C97.635 51.914 97.6349 51.914 97.6348 51.914L97.6457 52.0309M98.5566 51.8674L90.812 58.6892C90.8119 58.6885 90.8118 58.6878 90.8118 58.687C90.5038 55.3986 93.4871 52.3039 97.6346 51.9141L97.6457 52.0309M98.5566 51.8674L98.5572 51.9907C98.2529 51.9887 97.9487 52.0021 97.6457 52.0309M98.5566 51.8674L97.6457 52.0309" fill="#001550" stroke="#001550" stroke-width="0.8"/>
<path d="M65.6014 86.217L65.6016 86.2167C67.496 83.1061 70.6637 80.3338 74.2793 78.529C77.8961 76.7238 81.9205 75.9062 85.524 76.6471L85.525 76.6473C90.8826 77.7355 94.2303 80.7267 95.0501 84.037C95.862 87.3155 94.237 91.1072 89.2163 93.9201L89.2162 93.9201C84.7462 96.4263 79.8236 98.0213 74.7332 98.6129C72.9255 98.8215 70.9837 98.8307 69.2398 98.4307C67.4982 98.0313 65.9807 97.2308 64.9703 95.8396L64.9699 95.839C63.0168 93.1594 63.7742 89.2114 65.6014 86.217Z" fill="#10B981" stroke="#001550" stroke-width="0.8"/>
<path d="M54.0269 79.1726L54.0263 79.1727C52.3332 79.3642 50.5238 79.3769 48.8916 79.0149C47.262 78.6535 45.8341 77.925 44.8568 76.6529C43.8539 75.3366 43.5878 73.7051 43.8312 72.0514C44.0751 70.3948 44.8283 68.7428 45.8232 67.4354C47.7243 64.9491 50.6258 62.8344 53.8262 61.5382C57.0278 60.2415 60.4904 59.779 63.5138 60.5458C67.8378 61.654 70.521 64.1931 71.1592 66.9456C71.79 69.6663 70.4604 72.7822 66.3529 75.1576C62.5608 77.322 58.3662 78.6883 54.0269 79.1726Z" fill="#10B981" stroke="#001550" stroke-width="0.8"/>
<path opacity="0.2" d="M54.0269 79.1726L54.0263 79.1727C52.3332 79.3642 50.5238 79.3769 48.8916 79.0149C47.262 78.6535 45.8341 77.925 44.8568 76.6529C43.8539 75.3366 43.5878 73.7051 43.8312 72.0514C44.0751 70.3948 44.8283 68.7428 45.8232 67.4354C47.7243 64.9491 50.6258 62.8344 53.8262 61.5382C57.0278 60.2415 60.4904 59.779 63.5138 60.5458C67.8378 61.654 70.521 64.1931 71.1592 66.9456C71.79 69.6663 70.4604 72.7822 66.3529 75.1576C62.5608 77.322 58.3662 78.6883 54.0269 79.1726Z" fill="white" stroke="#001550" stroke-width="0.8"/>
<path d="M54.4698 55.3078L54.4675 55.308C51.2742 55.6611 47.795 55.3557 45.8947 53.0346C44.848 51.7494 44.6011 50.1399 44.9054 48.5404C45.2106 46.9361 46.0673 45.3711 47.1796 44.232C49.0237 42.3455 51.6505 40.8678 54.4474 40.0748C57.2457 39.2815 60.1766 39.1838 62.6311 40.0104L62.6312 40.0105C65.9186 41.1166 67.9435 43.2068 68.404 45.4122C68.8578 47.5857 67.8222 50.0373 64.6261 51.9664C61.5184 53.7933 58.0552 54.9327 54.4698 55.3078Z" fill="#10B981" stroke="#001550" stroke-width="0.8"/>
<path opacity="0.4" d="M54.4698 55.3078L54.4675 55.308C51.2742 55.6611 47.795 55.3557 45.8947 53.0346C44.848 51.7494 44.6011 50.1399 44.9054 48.5404C45.2106 46.9361 46.0673 45.3711 47.1796 44.232C49.0237 42.3455 51.6505 40.8678 54.4474 40.0748C57.2457 39.2815 60.1766 39.1838 62.6311 40.0104L62.6312 40.0105C65.9186 41.1166 67.9435 43.2068 68.404 45.4122C68.8578 47.5857 67.8222 50.0373 64.6261 51.9664C61.5184 53.7933 58.0552 54.9327 54.4698 55.3078Z" fill="white" stroke="#001550" stroke-width="0.8"/>
<path d="M70.5266 34.4668L70.5266 34.4668C73.3616 34.2034 76.098 33.2913 78.524 31.8011C80.8036 30.3365 81.5511 28.5268 81.2697 26.8777C80.9831 25.1986 79.6088 23.5505 77.3617 22.4904C75.4578 21.5929 73.0245 21.3206 70.6164 21.6122C68.2093 21.9036 65.869 22.7537 64.1514 24.0547C62.8957 25.0114 61.9375 26.4864 61.577 28.0408C61.2178 29.5891 61.4556 31.1858 62.5405 32.442L70.5266 34.4668ZM70.5266 34.4668L70.5208 34.4674M70.5266 34.4668L70.5208 34.4674M70.5208 34.4674C67.5571 34.7863 64.3492 34.5345 62.5406 32.4421L70.5208 34.4674Z" fill="#10B981" stroke="#001550" stroke-width="0.8"/>
<path opacity="0.6" d="M70.5266 34.4668L70.5266 34.4668C73.3616 34.2034 76.098 33.2913 78.524 31.8011C80.8036 30.3365 81.5511 28.5268 81.2697 26.8777C80.9831 25.1986 79.6088 23.5505 77.3617 22.4904C75.4578 21.5929 73.0245 21.3206 70.6164 21.6122C68.2093 21.9036 65.869 22.7537 64.1514 24.0547C62.8957 25.0114 61.9375 26.4864 61.577 28.0408C61.2178 29.5891 61.4556 31.1858 62.5405 32.442L70.5266 34.4668ZM70.5266 34.4668L70.5208 34.4674M70.5266 34.4668L70.5208 34.4674M70.5208 34.4674C67.5571 34.7863 64.3492 34.5345 62.5406 32.4421L70.5208 34.4674Z" fill="white" stroke="#001550" stroke-width="0.8"/>
<path d="M88.6293 23.1193L88.6281 23.118C87.4991 21.903 87.2533 20.2952 87.6572 18.7807C88.0627 17.26 89.1163 15.8702 90.5285 15.1353C92.0657 14.3384 94.1139 14.0827 96.1453 14.2978C98.176 14.5128 100.135 15.1926 101.49 16.2065C102.72 17.131 103.464 18.3354 103.579 19.5209C103.693 20.6858 103.207 21.9052 101.826 22.9121L101.825 22.9123C100.188 24.1087 98.1065 24.6634 96.0027 24.8874C93.2776 25.1722 90.3462 24.9839 88.6293 23.1193Z" fill="#10B981" stroke="#001550" stroke-width="0.8"/>
<path opacity="0.8" d="M88.6293 23.1193L88.6281 23.118C87.4991 21.903 87.2533 20.2952 87.6572 18.7807C88.0627 17.26 89.1163 15.8702 90.5285 15.1353C92.0657 14.3384 94.1139 14.0827 96.1453 14.2978C98.176 14.5128 100.135 15.1926 101.49 16.2065C102.72 17.131 103.464 18.3354 103.579 19.5209C103.693 20.6858 103.207 21.9052 101.826 22.9121L101.825 22.9123C100.188 24.1087 98.1065 24.6634 96.0027 24.8874C93.2776 25.1722 90.3462 24.9839 88.6293 23.1193Z" fill="white" stroke="#001550" stroke-width="0.8"/>
<path d="M113.808 17.573L113.808 17.5729C115.162 17.205 117.008 17.4623 118.707 18.164C120.407 18.8664 121.86 19.9718 122.491 21.1939C123.188 22.5692 123.06 24.3721 122.019 25.4088C121.14 26.2762 119.79 26.5342 118.4 26.6746C115.902 26.9255 113.232 26.8006 111.606 25.1533C110.434 23.963 110.172 22.2962 110.62 20.7957C111.069 19.2927 112.217 18.0039 113.808 17.573Z" fill="white" stroke="#001550" stroke-width="0.8"/>
<path d="M107.257 35.8731L90.3495 40.6041L90.237 42.7863L92.4563 47.3265L92.7978 48.6107L115.724 43.9304L107.257 35.8731Z" fill="white" stroke="#001550" stroke-width="0.8" stroke-linecap="round" stroke-linejoin="round"/>
<path d="M107.257 35.8731L113.435 44.4247C113.435 44.4247 114.562 45.2097 115.6 44.7533C116.638 44.2969 116.773 43.3814 113.827 39.6549C110.881 35.9283 109.575 34.9414 109.575 34.9414C109.575 34.9414 107.731 33.5287 107.257 35.8731Z" fill="white" stroke="#001550" stroke-width="0.8" stroke-linecap="round" stroke-linejoin="round"/>
<path d="M92.4188 41.0227L92.453 41.0483L92.4899 41.0651L92.4955 41.0679C92.5019 41.0711 92.5135 41.0771 92.5298 41.086C92.5622 41.1039 92.6131 41.1335 92.6785 41.177C92.8092 41.2638 92.9978 41.4054 93.2128 41.6175C93.6417 42.0403 94.1815 42.7483 94.577 43.8722L94.5768 43.8722L94.5814 43.8842C94.9221 44.7612 94.9474 45.7294 94.653 46.6229C94.5079 47.0389 94.2521 47.4073 93.913 47.6886C93.5779 47.9667 93.174 48.1491 92.7441 48.2169C92.355 48.2363 91.9665 48.1661 91.6087 48.0117C91.246 47.8551 90.9248 47.6162 90.6704 47.314C90.1287 46.6516 89.7551 45.868 89.5816 45.0301L89.5788 45.0168L89.5752 45.0037C89.3675 44.2589 89.3187 43.4788 89.4321 42.714C89.4864 42.3558 89.6147 42.0128 89.8088 41.7068C90.0018 41.4026 90.2556 41.1417 90.5543 40.9403C90.8365 40.7661 91.1645 40.6803 91.496 40.6943C91.8296 40.7084 92.1513 40.8229 92.4188 41.0227Z" fill="#001550" stroke="#001550" stroke-width="0.8"/>
<path d="M91.1303 44.3724C91.2269 45.315 90.8715 46.1258 90.3358 46.184C89.8001 46.2422 89.2851 45.5181 89.1885 44.5756C89.0919 43.633 89.4422 42.817 89.9779 42.7589C90.5136 42.7007 91.0287 43.4093 91.1303 44.3724Z" fill="white" stroke="#001550" stroke-width="0.8" stroke-linecap="round" stroke-linejoin="round"/>
<path d="M88.8831 46.3474C89.4202 46.2914 89.7758 45.4804 89.6773 44.5362C89.5788 43.5919 89.0635 42.8718 88.5263 42.9278C87.9892 42.9839 87.6336 43.7948 87.7321 44.7391C87.8306 45.6834 88.3459 46.4034 88.8831 46.3474Z" fill="white" stroke="#001550" stroke-width="0.8" stroke-linecap="round" stroke-linejoin="round"/>
<path d="M88.4737 44.6461C88.5017 44.915 88.4631 45.1459 88.3986 45.2977C88.3574 45.3946 88.3206 45.4314 88.3036 45.4444C88.2835 45.4357 88.2362 45.4079 88.1704 45.3177C88.0721 45.1831 87.9835 44.9674 87.9559 44.7033C87.928 44.4355 87.9673 44.2047 88.0325 44.0524C88.0725 43.9589 88.1084 43.9209 88.1262 43.9063C88.1473 43.9166 88.1937 43.9464 88.2574 44.0336C88.357 44.1699 88.4463 44.3861 88.4737 44.6461Z" fill="#001550" stroke="#001550" stroke-width="0.8"/>
<path d="M97.1624 45.304L105.641 44.5372L97.1624 45.304Z" fill="white"/>
<path d="M97.1624 45.304L105.641 44.5372" stroke="#001550" stroke-width="0.8" stroke-linecap="round" stroke-linejoin="round"/>
<path d="M115.243 43.1446C115.105 43.0293 114.932 42.962 114.752 42.9528C114.572 42.9437 114.394 42.9931 114.245 43.0938C114.095 43.1944 113.982 43.3409 113.923 43.5111C113.863 43.6814 113.861 43.8663 113.915 44.0381C113.97 44.21 114.079 44.3595 114.226 44.4642C114.372 44.569 114.549 44.6233 114.729 44.6191C114.91 44.6149 115.084 44.5524 115.225 44.4409C115.367 44.3294 115.469 44.175 115.516 44.0008L114.71 43.6043C114.663 43.712 114.616 43.8198 114.574 43.9276" fill="white"/>
<path d="M115.243 43.1446C115.105 43.0293 114.932 42.962 114.752 42.9528C114.572 42.9437 114.394 42.9931 114.245 43.0938C114.095 43.1944 113.982 43.3409 113.923 43.5111C113.863 43.6814 113.861 43.8663 113.915 44.0381C113.97 44.21 114.079 44.3595 114.226 44.4642C114.372 44.569 114.549 44.6233 114.729 44.6191C114.91 44.6149 115.084 44.5524 115.225 44.4409C115.367 44.3294 115.469 44.175 115.516 44.0008L114.71 43.6043C114.663 43.712 114.616 43.8198 114.574 43.9276" stroke="#001550" stroke-width="0.8" stroke-linecap="round" stroke-linejoin="round"/>
<path d="M100.736 42.8467L101.076 42.849C102.831 42.9305 104.547 42.3189 105.855 41.1461" fill="white"/>
<path d="M100.736 42.8467L101.076 42.849C102.831 42.9305 104.547 42.3189 105.855 41.1461" stroke="#001550" stroke-width="0.8" stroke-linecap="round" stroke-linejoin="round"/>
<path d="M98.1523 42.4844C98.5327 42.5693 98.913 42.6439 99.2935 42.7031L98.1523 42.4844Z" fill="white"/>
<path d="M98.1523 42.4844C98.5327 42.5693 98.913 42.6439 99.2935 42.7031" stroke="#001550" stroke-width="0.8" stroke-linecap="round" stroke-linejoin="round"/>
<path d="M95.9561 41.8979L97.0812 42.1989L95.9561 41.8979Z" fill="white"/>
<path d="M95.9561 41.8979L97.0812 42.1989" stroke="#001550" stroke-width="0.8" stroke-linecap="round" stroke-linejoin="round"/>
<path d="M107.475 37.0792C109.283 38.4417 110.493 40.452 110.85 42.6878L107.475 37.0792Z" fill="white"/>
<path d="M107.475 37.0792C109.283 38.4417 110.493 40.452 110.85 42.6878" stroke="#001550" stroke-width="0.8" stroke-linecap="round" stroke-linejoin="round"/>
<path d="M87.6825 44.6982C87.7755 45.6037 87.7418 46.5187 87.5814 47.4167L87.5814 47.4168C87.521 47.7556 87.4267 48.0845 87.2827 48.3472C87.1405 48.6066 86.9647 48.7759 86.7457 48.8523C86.4578 48.9523 86.1434 48.8626 85.8481 48.588C85.5521 48.3127 85.3322 47.8952 85.2724 47.4931C85.1924 46.7416 85.3906 45.9867 85.8296 45.3713C86.0807 45.0192 86.4006 44.7268 86.7664 44.5094L86.2633 45.5479L87.4129 44.8596L87.6825 44.6982Z" fill="#001550" stroke="#001550" stroke-width="0.8"/>
<path d="M97.1067 38.8166C97.1067 38.8166 99.0017 40.2863 99.612 43.6934L100.222 47.1006L106.043 45.9092C106.043 45.9092 106.205 39.4286 103.322 37.8905C100.439 36.3524 102.358 37.2456 102.358 37.2456L97.1067 38.8166Z" fill="#FFC966" stroke="#001550" stroke-width="0.8" stroke-miterlimit="10"/>
<path d="M133.504 26.1028L123.145 36.1291L123.917 37.7508L127.293 40.1623L128.045 40.955L142.769 28.6104L133.504 26.1028Z" fill="white" stroke="#001550" stroke-width="0.8" stroke-linecap="round" stroke-linejoin="round"/>
<path d="M133.506 26.1027L141.317 29.862C141.625 29.8946 141.938 29.8571 142.23 29.7521C142.522 29.647 142.787 29.4773 143.004 29.2555C143.575 28.518 143.318 27.8058 139.735 26.263C136.151 24.7202 134.819 24.5207 134.819 24.5207C134.819 24.5207 132.927 24.2249 133.506 26.1027Z" fill="white" stroke="#001550" stroke-width="0.8" stroke-linecap="round" stroke-linejoin="round"/>
<path d="M124.806 35.687L124.85 35.6937L124.892 35.6904L124.895 35.6903C124.9 35.6901 124.91 35.6898 124.924 35.6898C124.951 35.6898 124.997 35.6909 125.058 35.6961C125.18 35.7065 125.365 35.7332 125.596 35.7999C126.058 35.9327 126.715 36.2264 127.441 36.8795L127.441 36.8796L127.449 36.8867C128.025 37.377 128.414 38.051 128.551 38.7949C128.606 39.1396 128.567 39.4928 128.437 39.8167C128.308 40.1358 128.097 40.4145 127.825 40.6239C127.56 40.7817 127.263 40.8772 126.956 40.9029C126.643 40.9291 126.328 40.8821 126.036 40.7657C125.396 40.5023 124.829 40.0884 124.384 39.5589L124.374 39.5482L124.365 39.5381C123.931 39.0907 123.597 38.5564 123.384 37.9703C123.289 37.7015 123.25 37.4157 123.271 37.1311C123.291 36.8481 123.369 36.5723 123.501 36.321C123.629 36.0969 123.821 35.9165 124.053 35.8032C124.286 35.6892 124.549 35.6486 124.806 35.687Z" fill="#001550" stroke="#001550" stroke-width="0.8"/>
<path d="M125.186 38.5418C125.63 39.1881 125.692 39.9143 125.325 40.164C124.957 40.4138 124.296 40.0953 123.862 39.4491C123.429 38.8028 123.357 38.0817 123.729 37.832C124.101 37.5823 124.748 37.9006 125.186 38.5418Z" fill="white" stroke="#001550" stroke-width="0.8" stroke-linecap="round" stroke-linejoin="round"/>
<path d="M124.208 39.2147C124.646 39.8559 124.713 40.5821 124.346 40.8318C123.979 41.0815 123.317 40.7631 122.884 40.122C122.451 39.4809 122.378 38.7495 122.746 38.4998C123.113 38.25 123.764 38.5684 124.208 39.2147Z" fill="white" stroke="#001550" stroke-width="0.8" stroke-linecap="round" stroke-linejoin="round"/>
<path d="M123.317 39.8243C123.434 39.9958 123.489 40.1643 123.498 40.2843C123.501 40.3154 123.5 40.3386 123.499 40.3556C123.483 40.351 123.461 40.3431 123.433 40.3296C123.326 40.2776 123.189 40.1657 123.071 39.9931C122.953 39.8201 122.897 39.6502 122.886 39.5292C122.884 39.4998 122.884 39.4774 122.885 39.4608C122.901 39.4655 122.923 39.4734 122.95 39.4866C123.058 39.5389 123.196 39.6511 123.317 39.8243ZM123.489 40.3952C123.489 40.3951 123.49 40.3941 123.491 40.3923C123.49 40.3944 123.489 40.3952 123.489 40.3952ZM123.536 40.3615C123.538 40.361 123.539 40.361 123.539 40.3611C123.539 40.3612 123.538 40.3614 123.536 40.3615ZM122.894 39.4192C122.894 39.4193 122.894 39.4204 122.892 39.4224C122.893 39.4201 122.894 39.4191 122.894 39.4192ZM122.847 39.4545C122.845 39.455 122.843 39.4551 122.843 39.455C122.843 39.4549 122.844 39.4546 122.847 39.4545Z" fill="#001550" stroke="#001550" stroke-width="0.8"/>
<path d="M142.123 28.2301C141.979 28.196 141.827 28.2099 141.691 28.2696C141.555 28.3293 141.442 28.4316 141.369 28.5611C141.297 28.6906 141.268 28.8402 141.288 28.9875C141.307 29.1347 141.374 29.2714 141.479 29.3772C141.583 29.4829 141.719 29.5518 141.866 29.5735C142.013 29.5953 142.163 29.5686 142.293 29.4976C142.424 29.4266 142.528 29.3151 142.589 29.18C142.651 29.0448 142.667 28.8933 142.634 28.7483L141.898 28.7742C141.898 28.872 141.897 28.9646 141.922 29.0626" fill="white"/>
<path d="M142.123 28.2301C141.979 28.196 141.827 28.2099 141.691 28.2696C141.555 28.3293 141.442 28.4316 141.369 28.5611C141.297 28.6906 141.268 28.8402 141.288 28.9875C141.307 29.1347 141.374 29.2714 141.479 29.3772C141.583 29.4829 141.719 29.5518 141.866 29.5735C142.013 29.5953 142.163 29.5686 142.293 29.4976C142.424 29.4266 142.528 29.3151 142.589 29.18C142.651 29.0448 142.667 28.8933 142.634 28.7483L141.898 28.7742C141.898 28.872 141.897 28.9646 141.922 29.0626" stroke="#001550" stroke-width="0.8" stroke-linecap="round" stroke-linejoin="round"/>
<path d="M134.144 26.8895C135.976 27.1718 137.628 28.149 138.759 29.6182L134.144 26.8895Z" fill="white"/>
<path d="M134.144 26.8895C135.976 27.1718 137.628 28.149 138.759 29.6182" stroke="#001550" stroke-width="0.8" stroke-linecap="round" stroke-linejoin="round"/>
<path d="M132.746 31.0553C133.262 30.8683 133.777 30.7071 134.226 30.5506L132.746 31.0553Z" fill="white"/>
<path d="M132.746 31.0553C133.262 30.8683 133.777 30.7071 134.226 30.5506" stroke="#001550" stroke-width="0.8" stroke-linecap="round" stroke-linejoin="round"/>
<path d="M125.221 34.1249C127.499 33.0539 129.553 32.2131 131.277 31.5914L125.221 34.1249Z" fill="white"/>
<path d="M125.221 34.1249C127.499 33.0539 129.553 32.2131 131.277 31.5914" stroke="#001550" stroke-width="0.8" stroke-linecap="round" stroke-linejoin="round"/>
<path d="M132.689 36.569L137.099 31.6151L132.689 36.569Z" fill="white"/>
<path d="M132.689 36.569L137.099 31.6151" stroke="#001550" stroke-width="0.8" stroke-linecap="round" stroke-linejoin="round"/>
<path d="M127.308 32.1053C127.826 31.594 132.186 31.8034 132.706 34.0773L133.205 36.3511L137.62 32.9108C137.62 32.9108 139.023 28.6934 131.371 28.1478L127.308 32.1053Z" fill="#001550" stroke="#001550" stroke-width="0.8" stroke-miterlimit="10"/>
<path d="M113.278 62.489C113.275 63.0876 113.321 63.6854 113.416 64.2764C113.91 67.2606 115.597 69.8924 117.258 72.4262C118.92 74.96 120.627 77.5662 121.178 80.5457C121.73 83.5251 120.821 86.9838 118.231 88.5469" stroke="#001550" stroke-width="0.8" stroke-linecap="round" stroke-linejoin="round"/>
</svg>
