<svg width="170" height="120" viewBox="0 0 170 120" fill="none" xmlns="http://www.w3.org/2000/svg">
<path opacity="0.7" d="M140.274 42.7472C135.623 26.3818 123.202 13.3781 107.212 7.57602C101.254 5.43154 95.0993 3.87524 88.8374 2.92936C63.0965 -1.03002 50.0829 15.9032 48.7456 25.4231C47.4084 34.943 36.3595 35.1074 30.916 49.4632C25.4725 63.8191 19.2122 96.8214 61.1118 111.837C103.012 126.853 120.983 114.746 125.797 104.74C130.61 94.7346 132.727 86.9204 140.317 64.8077C142.874 57.3446 142.237 49.6575 140.274 42.7472Z" fill="#E3EDFF"/>
<path d="M58.7274 58.1139C53.2718 60.7975 48.7365 65.0751 45.2577 70.0227C42.0845 74.5322 38.8414 80.3669 37.991 85.8888C37.575 88.5908 37.3357 91.4548 37.5566 93.1261C37.7775 94.7974 47.183 99.8665 64.0615 102.329C80.94 104.792 100.738 104.151 108.049 101.729C115.36 99.3069 129.654 94.6391 131.715 90.8769C133.777 87.1147 130.316 73.7886 124.39 67.2654C113.453 55.2167 102.88 51.5061 88.5859 50.9686C74.2917 50.4311 58.7274 58.1139 58.7274 58.1139Z" fill="#001550" stroke="#001550" stroke-miterlimit="10"/>
<path d="M61.556 64.7145C62.4616 64.7145 62.6346 65.0274 62.7083 65.1636C63.5439 66.684 61.9131 69.71 60.5584 70.472C60.2469 70.6088 59.908 70.6718 59.5682 70.656C58.5374 70.656 57.4588 70.2548 56.9471 69.6805C56.8327 69.5618 56.7469 69.4185 56.6965 69.2615C56.6461 69.1045 56.6323 68.9381 56.6563 68.7749C56.903 66.6324 59.0307 65.3587 59.3731 65.1636C60.0716 64.8967 60.8089 64.745 61.556 64.7145ZM61.556 62.8739C60.5458 62.9068 59.5492 63.1161 58.6111 63.4923C58.6111 63.4923 55.239 65.1784 54.8488 68.554C54.5543 71.1125 57.3189 72.4782 59.5792 72.4782C60.2343 72.498 60.8837 72.3524 61.4677 72.0549C63.5439 70.888 65.749 66.8644 64.3243 64.2691C63.728 63.1905 62.6383 62.8739 61.5671 62.8739H61.556Z" fill="#001550" stroke="#001550" stroke-miterlimit="10"/>
<path d="M63.3113 78.3092C65.406 78.3092 67.9607 79.6565 68.789 82.2334C69.724 85.1305 68.0528 88.1233 65.8882 89.0841C65.3248 89.3328 64.7149 89.4583 64.0991 89.4523C60.7566 89.4523 57.5134 86.279 57.4398 83.8163C57.3809 81.9499 59.1589 80.135 59.8473 79.605C60.7905 78.8246 61.96 78.3689 63.1825 78.3055H63.3113V78.3092ZM63.3113 76.4649H63.1346C61.5192 76.5376 59.9702 77.1288 58.7172 78.1509C58.5147 78.3092 55.5071 80.7277 55.6028 83.8605C55.7133 87.5012 59.9651 91.2708 64.0918 91.2708C64.9664 91.2758 65.8322 91.0951 66.6318 90.7407C69.6541 89.3786 71.734 85.3992 70.5266 81.6554C69.459 78.3423 66.2269 76.4612 63.304 76.4612L63.3113 76.4649Z" fill="#001550" stroke="#001550" stroke-miterlimit="10"/>
<path d="M70.1196 66.787C70.0902 66.9637 70.057 67.1551 70.0239 67.3612C69.5858 70.0633 69.5674 70.4535 69.6227 70.9689C69.7081 71.7649 69.9389 72.5385 70.3037 73.2512C70.1281 73.2511 69.9534 73.2263 69.7846 73.1776C68.7392 72.8463 67.944 71.0241 68.1907 69.4964C68.3416 68.6926 68.7483 67.9591 69.3502 67.4054C69.5863 67.1751 69.844 66.968 70.1196 66.787ZM71.478 64.3463C70.5577 64.3463 69.0668 65.1194 68.0692 66.0986C67.1818 66.9244 66.5896 68.0184 66.3832 69.2129C66.015 71.4585 67.1489 74.2672 69.2361 74.9225C69.5942 75.0309 69.9664 75.0855 70.3405 75.0845C71.2939 75.0845 72.2179 74.7458 72.483 74.1421C72.8511 73.3175 71.6547 72.699 71.4449 70.7701C71.4191 70.5161 71.4117 70.2657 71.8351 67.6557C72.2474 65.112 72.3505 64.777 72.0964 64.5414C71.9242 64.3999 71.704 64.33 71.4817 64.3463H71.478Z" fill="#001550" stroke="#001550" stroke-miterlimit="10"/>
<path d="M70.3741 58.0661C71.0662 58.0661 71.6773 58.5299 71.7215 58.7213C71.7215 59.0269 70.8085 59.9766 69.5348 60.5251C69.0935 60.7369 68.6213 60.8773 68.1359 60.9411C68.1994 60.4879 68.3323 60.0471 68.5298 59.6343C68.6587 59.3729 69.3471 58.0661 70.3704 58.0661H70.3741ZM70.3704 56.2255C68.1617 56.2255 67.0389 58.5262 66.899 58.8207C66.8033 59.0085 65.721 61.2908 66.7665 62.3253C67.1117 62.6322 67.5644 62.7897 68.0255 62.7633C68.8034 62.7174 69.5655 62.5237 70.2711 62.1927C71.5595 61.6406 73.9228 60.0687 73.5142 58.3017C73.2308 57.0685 71.7215 56.2365 70.3999 56.2255H70.3704Z" fill="#001550" stroke="#001550" stroke-miterlimit="10"/>
<path d="M50.9518 70.4977C50.7604 71.3554 50.4585 72.769 51.4561 73.9985C52.4537 75.228 53.963 75.2648 54.9533 75.2796C55.141 75.2796 55.384 75.2796 55.5791 75.3053L55.5533 75.3826C55.4797 75.6072 55.1079 75.9422 53.7642 76.2551C53.3293 76.3626 52.8833 76.4194 52.4353 76.4244C51.7193 76.4604 51.0161 76.2251 50.4658 75.7655C49.6891 75.0661 49.575 74.039 49.5087 73.4242C49.4057 72.5039 49.3504 71.5615 49.8769 71.0314C50.1761 70.7576 50.5458 70.5728 50.9444 70.4977H50.9518ZM51.2904 68.6313C50.2833 68.6482 49.3191 69.0423 48.5884 69.7356C47.3847 70.932 47.5761 72.6806 47.6792 73.6267C47.7638 74.3629 47.9368 75.968 49.2363 77.1312C50.122 77.8925 51.2607 78.2944 52.4279 78.2577C53.0148 78.2532 53.5992 78.1803 54.1692 78.0405C54.9349 77.8638 56.7939 77.4331 57.2835 75.9643C57.3314 75.8207 57.6516 74.8599 57.1547 74.1458C56.2528 72.8463 53.8415 74.0353 52.8697 72.85C51.9788 71.7456 53.4697 70.008 52.612 69.0877C52.4337 68.9269 52.2247 68.8039 51.9976 68.7261C51.7704 68.6483 51.5299 68.6173 51.2904 68.6349V68.6313Z" fill="#001550" stroke="#001550" stroke-miterlimit="10"/>
<path d="M44.2391 79.2001L44.3312 79.4209C44.6675 80.4252 45.3499 81.2772 46.2564 81.8248C46.8049 82.1442 47.4225 82.3261 48.0566 82.3549C48.2657 82.351 48.472 82.4044 48.6529 82.5095C48.9348 82.6258 49.1865 82.8045 49.3892 83.0322C49.1781 83.4001 48.9111 83.733 48.5977 84.0188C48.0801 84.5699 47.3936 84.9326 46.6467 85.0496C46.4704 85.0798 46.2917 85.0945 46.1129 85.0937C45.5472 85.1023 44.9907 84.9504 44.5079 84.6557C43.7896 84.1671 43.2842 83.4234 43.0943 82.5758C42.6967 81.2468 42.7261 80.3081 43.2084 79.7891C43.4874 79.4948 43.8473 79.2898 44.2428 79.2001H44.2391ZM44.3459 77.3594C43.3926 77.4203 42.5002 77.8493 41.8574 78.5559C40.4475 80.0983 41.1211 82.4138 41.3383 83.0985C41.6552 84.3781 42.4442 85.4906 43.5471 86.2128C44.3233 86.6844 45.2156 86.9305 46.1239 86.9233C46.8325 86.923 47.5337 86.7794 48.1853 86.501C48.8369 86.2226 49.4255 85.8153 49.9156 85.3036C50.4862 84.7219 51.4102 83.7869 51.2114 82.7083C51.0126 81.6297 49.9377 81.1106 49.5254 80.8898C48.421 80.3081 48.0529 80.7315 47.1878 80.2419C45.8441 79.4614 46.2196 78.0331 45.1116 77.5178C44.8744 77.4111 44.617 77.3571 44.3569 77.3594H44.3459Z" fill="#001550" stroke="#001550" stroke-miterlimit="10"/>
<path d="M53.2816 88.3959H53.3331C53.5466 88.4364 53.9074 88.7346 54.224 89.3126C54.3012 89.4513 54.3689 89.5952 54.4265 89.7433C54.1014 89.7598 53.7778 89.7992 53.4583 89.8611C52.8675 89.9636 52.2914 90.1379 51.7428 90.3801C51.0836 90.6768 50.4846 91.0924 49.9758 91.606C49.9288 91.4334 49.9077 91.2547 49.9133 91.0759C49.939 90.3985 50.9771 89.7138 51.8165 89.1653C52.365 88.7972 52.9908 88.3923 53.289 88.3923L53.2816 88.3959ZM53.289 86.5516C52.4496 86.5516 51.6876 87.0523 50.8152 87.6266C49.6593 88.3849 48.1499 89.3788 48.091 90.9986C48.0358 92.4932 49.0408 94.1129 49.9022 94.1129C50.6716 94.1129 50.8299 92.7877 52.4975 92.0367C52.9123 91.8554 53.3473 91.7244 53.7933 91.6465C54.1211 91.5849 54.4537 91.5528 54.7872 91.5508C55.3026 91.5508 55.6523 91.6318 55.8916 91.6318C55.9575 91.6388 56.0241 91.6324 56.0874 91.6127C56.1508 91.5931 56.2094 91.5608 56.2597 91.5176C57.0217 90.8182 55.8916 86.9971 53.6644 86.5885C53.5432 86.5646 53.4199 86.5522 53.2963 86.5516H53.289Z" fill="#001550" stroke="#001550" stroke-miterlimit="10"/>
<path d="M58.5965 94.2342C59.0083 94.6852 59.5099 95.045 60.069 95.2907C60.5862 95.5141 61.1437 95.6294 61.7072 95.6294C62.3427 95.6101 62.9718 95.496 63.5735 95.2907C63.8754 95.1844 64.1896 95.1176 64.5086 95.0919C64.7955 95.1069 65.0697 95.2155 65.289 95.4011C65.238 95.6089 65.1664 95.8112 65.0755 96.0049C64.8796 96.5059 64.5203 96.9262 64.0558 97.1976C63.8349 97.3191 63.5883 97.3816 62.8483 97.3816C62.5391 97.3816 62.1747 97.3816 61.744 97.3596C60.1095 97.3117 59.561 97.2823 58.9426 96.9362C58.4456 96.6638 57.9891 96.384 57.8713 95.9644C57.7241 95.4416 58.1364 94.8416 58.2689 94.6428C58.4014 94.444 58.4934 94.3336 58.5744 94.2342H58.5965ZM58.6959 92.1801C57.7351 92.1801 57.0209 93.2292 56.7596 93.6084C56.4982 93.9875 55.7288 95.114 56.1117 96.465C56.4467 97.6504 57.4848 98.2246 58.0554 98.5412C59.0972 99.1118 60.0175 99.1413 61.6888 99.1891C62.1268 99.1891 62.506 99.2112 62.841 99.2112C63.5637 99.2662 64.2877 99.1237 64.9356 98.7989C65.7539 98.327 66.3922 97.5967 66.7505 96.7227C66.9787 96.1926 67.2732 95.4969 67.0118 94.7753C66.8739 94.4739 66.6762 94.2036 66.4306 93.9809C66.1851 93.7581 65.8969 93.5876 65.5835 93.4795C65.2407 93.3362 64.8728 93.2623 64.5012 93.2623C63.4815 93.2623 62.6422 93.7998 61.6998 93.7998C61.3842 93.8009 61.0719 93.7357 60.7832 93.6084C59.6788 93.1335 59.6162 92.1874 58.707 92.1801H58.6959Z" fill="#001550" stroke="#001550" stroke-miterlimit="10"/>
<path d="M77.3068 75.4564C77.3473 75.6662 77.3768 75.8687 77.3989 76.049C77.5572 77.3853 77.2369 78.8357 76.6258 79.5793C76.4905 79.7541 76.3185 79.897 76.122 79.9981C75.9254 80.0993 75.7091 80.1561 75.4883 80.1647H75.3447C74.2882 80.1647 73.2906 79.2407 73.0734 78.0811C73.1691 78.0811 73.2759 78.0811 73.3863 78.0811H73.4563C74.1017 78.0654 74.7352 77.9035 75.309 77.6076C75.8829 77.3118 76.3822 76.8896 76.7694 76.373C76.985 76.0851 77.1632 75.7709 77.2995 75.4379L77.3068 75.4564ZM77.1964 72.5555H77.1633C76.9079 72.5948 76.6681 72.703 76.4696 72.8684C76.2711 73.0338 76.1215 73.2502 76.0368 73.4943C75.8307 73.9655 75.7497 74.4882 75.5141 74.9483C75.4546 75.0631 75.3856 75.1727 75.3079 75.276C75.0862 75.5695 74.8014 75.8095 74.4745 75.9783C74.1477 76.1472 73.7871 76.2405 73.4194 76.2515H73.379C73.1176 76.2515 72.8489 76.2147 72.5875 76.2147C72.3968 76.2088 72.2067 76.2401 72.0279 76.3067C71.3359 76.5828 71.1297 77.481 71.2365 78.2173C71.5236 80.2493 73.2464 81.9832 75.3374 81.9832H75.6171C78.6026 81.766 79.5008 78.302 79.2063 75.8282C79.0922 74.8453 78.8382 73.8293 78.1903 73.0967C78.0701 72.9446 77.9198 72.819 77.7488 72.7278C77.5777 72.6365 77.3897 72.5817 77.1964 72.5666V72.5555Z" fill="#001550" stroke="#001550" stroke-miterlimit="10"/>
<path d="M79.4076 65.5022C80.3534 65.5304 81.2617 65.8781 81.9845 66.4888C82.9747 67.2803 83.5306 68.4583 83.6411 69.9897C83.6963 70.7774 83.7662 71.753 83.3466 72.1211C83.0687 72.3353 82.7254 72.4472 82.3747 72.4377C82.1609 72.4506 81.9481 72.3993 81.7636 72.2904C81.673 72.1602 81.6046 72.0159 81.5612 71.8634C81.258 70.9218 80.6322 70.1175 79.7942 69.5921C78.9422 69.1176 77.9741 68.8919 77.0001 68.9405H76.7903C76.329 68.941 75.869 68.9879 75.4172 69.0804C75.6094 68.5334 75.8717 68.0138 76.1976 67.5343C76.5657 66.9821 77.3719 65.8372 78.8002 65.5648C79.0027 65.5252 79.2086 65.5054 79.415 65.5059L79.4076 65.5022ZM79.415 63.6653C79.0939 63.6649 78.7735 63.6944 78.4579 63.7536C76.297 64.1659 75.1448 65.8041 74.6956 66.4814C73.4735 68.2411 72.9066 70.7517 73.6575 71.267C73.7466 71.3302 73.8539 71.3625 73.9631 71.3591C74.5005 71.3591 75.3141 70.748 76.7903 70.748H76.9007C77.5928 70.748 78.2296 70.748 78.8481 71.1382C80.0187 71.845 79.6727 72.9788 80.6629 73.7335C81.1651 74.0806 81.7644 74.2597 82.3747 74.2452C83.1712 74.2558 83.9454 73.9817 84.5577 73.4721C85.6621 72.5039 85.5443 70.9652 85.4633 69.8387C85.4191 69.1982 85.2424 66.7318 83.1294 65.0531C82.0799 64.1905 80.773 63.7022 79.415 63.6653Z" fill="#001550" stroke="#001550" stroke-miterlimit="10"/>
<path d="M65.6145 56.866C64.9835 56.906 64.3626 57.0439 63.7739 57.2746C63.1333 57.5028 61.1565 58.2096 61.1749 59.4833C61.2205 59.8944 61.3967 60.28 61.6776 60.5835C61.9586 60.8869 62.3295 61.0923 62.7358 61.1693C62.8267 61.187 62.9192 61.1957 63.0119 61.1951C63.6855 61.1951 64.2267 60.757 64.6795 60.3926C65.8133 59.4796 66.8588 57.7936 66.3692 57.1494C66.27 57.0472 66.1488 56.9689 66.0149 56.9204C65.8809 56.8719 65.7377 56.8546 65.5961 56.8697L65.6145 56.866Z" fill="#001550" stroke="#001550" stroke-miterlimit="10"/>
<path d="M58.3099 60.1201C58.1528 60.1201 57.9945 60.1275 57.835 60.1422C55.6263 60.3668 53.9108 62.2552 53.2924 64.037C53.2629 64.1253 52.7586 65.6052 53.1635 65.8518C53.1949 65.8731 53.2324 65.8834 53.2703 65.8813C53.5464 65.8813 54.1096 65.3953 55.8876 63.9081C57.9455 62.1853 58.2252 61.9755 58.7443 61.6994C59.7787 61.1509 60.445 61.0515 60.4303 60.7938C60.4119 60.4735 59.3995 60.1201 58.3099 60.1201Z" fill="#001550" stroke="#001550" stroke-miterlimit="10"/>
<path d="M41.1354 89.5702C41.8394 89.9867 42.6047 90.2898 43.403 90.4684C43.6092 90.5126 43.8006 90.5494 43.981 90.5752C43.8499 90.7456 43.7005 90.9011 43.5355 91.039C43.3018 91.2794 43.0042 91.448 42.6778 91.5249C42.2287 91.5249 41.5734 90.6378 41.1354 89.5702ZM39.453 86.1687C39.385 86.1679 39.3179 86.1844 39.2579 86.2166C38.5953 86.5516 38.8898 88.3959 39.1291 89.3309C39.4972 90.7298 40.6936 93.303 42.6336 93.3545H42.6889C43.6202 93.3545 44.327 92.7618 44.7098 92.4452C45.7553 91.5728 46.6315 89.9751 46.1345 89.2021C45.7958 88.672 45.1001 88.9701 43.8006 88.683C41.2753 88.1198 40.2151 86.1687 39.453 86.1687Z" fill="#001550" stroke="#001550" stroke-miterlimit="10"/>
<path d="M81.5631 55.5886C82.4355 55.5566 83.2885 55.8505 83.9559 56.4132C84.5321 56.9515 84.8789 57.6911 84.9241 58.4784C84.9535 59.9988 83.6908 61.3719 83.0393 61.4234C82.8208 61.2672 82.6163 61.0923 82.4282 60.9007C81.4232 59.8578 80.149 59.1137 78.7469 58.7508C78.1298 58.5935 77.4953 58.5144 76.8585 58.5152H76.7554C77.2233 57.6436 77.9063 56.9061 78.7396 56.3727C79.5885 55.8677 80.5569 55.5983 81.5447 55.5923L81.5631 55.5886ZM81.5447 53.7517C80.2309 53.7652 78.9446 54.1299 77.8193 54.8082C75.5259 56.2145 74.0939 59.1374 74.8338 60.1276C74.9178 60.2323 75.0272 60.3136 75.1516 60.3639C75.276 60.4142 75.4112 60.4317 75.5443 60.4147C75.8903 60.4147 76.3321 60.3411 76.8953 60.3411C77.3818 60.3389 77.8667 60.3983 78.3383 60.5178C81.0514 61.1988 81.4158 63.2456 83.0503 63.2456H83.1387C84.8983 63.1683 86.8199 60.8418 86.772 58.46C86.715 57.1743 86.1559 55.9622 85.2149 55.0843C84.2117 54.2065 82.914 53.7397 81.5815 53.7775L81.5447 53.7517Z" fill="#001550" stroke="#001550" stroke-miterlimit="10"/>
<path d="M77.3249 85.7232C77.4603 85.7241 77.595 85.7414 77.7262 85.7748C78.0776 85.8848 78.3926 86.088 78.6377 86.3629C78.8827 86.6377 79.0486 86.9739 79.1177 87.3356C79.3496 88.532 78.2968 89.7579 77.2403 90.0156C77.0542 90.0573 76.8641 90.0783 76.6733 90.0781C76.4169 90.0895 76.1608 90.0476 75.9213 89.9551C75.6818 89.8626 75.4641 89.7215 75.2818 89.5407C74.6855 88.8707 74.8879 87.6264 75.418 86.8607C75.631 86.541 75.9127 86.2729 76.2427 86.0761C76.5726 85.8792 76.9424 85.7587 77.3249 85.7232ZM77.3249 83.8826C75.8524 83.8826 74.5861 84.8287 73.9087 85.8116C72.9921 87.1479 72.6498 89.3161 73.9087 90.7444C74.2616 91.1214 74.6906 91.419 75.1672 91.6177C75.6438 91.8163 76.1572 91.9114 76.6733 91.8967C77.0092 91.8978 77.344 91.8595 77.671 91.7826C79.6993 91.2893 81.3301 89.1284 80.9178 86.9785C80.7833 86.2779 80.4571 85.6283 79.9756 85.1019C79.494 84.5755 78.8759 84.1929 78.19 83.9967C77.9082 83.9195 77.6171 83.8811 77.3249 83.8826Z" fill="#001550" stroke="#001550" stroke-miterlimit="10"/>
<path d="M71.5387 92.9532C71.6812 92.9499 71.8229 92.9762 71.9547 93.0305C71.9202 93.2884 71.8391 93.5379 71.7154 93.7668C71.5197 94.2075 71.1588 94.5538 70.7104 94.7313C70.6184 94.7644 70.4748 94.8123 70.3423 94.8454C70.3234 94.4938 70.3851 94.1425 70.5227 93.8183C70.5227 93.8183 70.8908 93.0232 71.4099 92.9569H71.5387V92.9532ZM71.5387 91.1163C71.4157 91.1173 71.2928 91.1247 71.1706 91.1384C69.6318 91.3335 68.9361 92.8502 68.833 93.0858C68.3728 94.1386 68.2808 95.8246 69.2232 96.4615C69.4872 96.6314 69.7965 96.7174 70.1104 96.7081C70.5174 96.6903 70.9189 96.607 71.2994 96.4615C71.7574 96.2909 72.1769 96.0309 72.5334 95.6966C72.8898 95.3622 73.1762 94.9602 73.3756 94.5141C73.5928 94.0282 74.0751 92.9496 73.5045 92.0477C73.2785 91.7402 72.9793 91.494 72.6341 91.3314C72.2889 91.1688 71.9086 91.0948 71.5277 91.1163H71.5387Z" fill="#001550" stroke="#001550" stroke-miterlimit="10"/>
<path d="M88.6202 71.3407C89.2018 71.3407 90.1921 71.9223 90.597 72.6733C91.0792 73.5715 90.6669 74.7937 90.4718 75.379C90.3417 75.7953 90.1246 76.1793 89.835 76.5055C89.3105 77.1466 88.8849 77.8625 88.5723 78.6295C88.1497 79.6169 87.9138 80.6741 87.8766 81.7475C87.8766 81.8837 87.8582 82.0604 87.8434 82.1525C87.3471 82.4926 86.7503 82.6548 86.1501 82.6126C85.0899 82.6126 84.1254 82.2224 83.7978 81.6592C83.6734 81.427 83.6028 81.1697 83.5914 80.9066C83.5799 80.6434 83.6278 80.381 83.7315 80.1388C83.9045 79.7707 84.2358 79.6087 85.0052 79.2664C85.9807 78.8357 87.317 78.2467 87.9502 76.6196C88.2299 75.8896 88.2762 75.0909 88.0827 74.3335C87.9767 73.8993 87.9654 73.4473 88.0496 73.0083C88.2005 72.0659 88.3625 71.51 88.5318 71.348C88.5624 71.3447 88.5933 71.3447 88.6239 71.348L88.6202 71.3407ZM88.6239 69.5074C88.2927 69.5014 87.9652 69.5772 87.6704 69.7283C86.636 70.2768 86.393 71.7824 86.2421 72.7138C85.9402 74.5838 86.6433 74.9225 86.2421 75.9569C85.5279 77.7976 83.0578 77.3521 82.0897 79.329C81.8548 79.8423 81.7441 80.4037 81.7665 80.9678C81.7889 81.5318 81.9437 82.0827 82.2185 82.5758C82.9548 83.8495 84.5966 84.4385 86.1537 84.4385C87.398 84.4385 88.5907 84.0704 89.2276 83.3525C90.0669 82.4175 89.3196 81.5929 90.2657 79.329C91.0019 77.5546 91.6646 77.5877 92.2131 75.9569C92.4744 75.1728 93.0671 73.3985 92.2131 71.8045C91.5063 70.4903 89.9233 69.5074 88.6239 69.5074Z" fill="#001550" stroke="#001550" stroke-miterlimit="10"/>
<path d="M94.7583 61.1473C95.7854 61.1473 96.5731 61.4381 97.0996 62.0123C97.3155 62.223 97.4878 62.4741 97.6066 62.7514C97.7253 63.0287 97.7882 63.3268 97.7916 63.6284C97.6996 64.9021 95.7449 65.9365 94.3865 66.2642C93.9042 66.38 93.41 66.4393 92.914 66.4409C92.4536 66.4682 91.9923 66.4046 91.5565 66.2536C91.1206 66.1027 90.7188 65.8673 90.3739 65.5611C89.9101 65.1119 89.3101 64.199 89.4389 63.7204C89.5677 63.2419 91.066 62.4762 92.5054 61.7657C92.8818 61.5547 93.279 61.3832 93.6907 61.254C94.0404 61.1791 94.397 61.1421 94.7546 61.1436L94.7583 61.1473ZM94.7546 59.303C94.2507 59.3002 93.7481 59.3546 93.2564 59.4649C92.7144 59.6211 92.192 59.8385 91.6992 60.1128C89.4904 61.1951 88.0179 61.9166 87.6756 63.2272C87.197 64.9757 88.9677 66.7317 89.1002 66.8605C90.1381 67.8137 91.5094 68.3202 92.9177 68.2705C93.5574 68.2686 94.1947 68.1933 94.8172 68.0459C96.5695 67.6189 99.4371 66.2053 99.6028 63.7609C99.7169 62.1817 98.642 61.0037 98.4358 60.7791C97.9593 60.29 97.3854 59.9062 96.7513 59.6526C96.1173 59.399 95.437 59.2811 94.7546 59.3066V59.303Z" fill="#001550" stroke="#001550" stroke-miterlimit="10"/>
<path d="M86.4281 88.3997C86.4709 88.9243 86.5471 89.4456 86.6563 89.9605C86.7172 90.2734 86.7984 90.5821 86.8993 90.8845C86.9471 91.0318 86.9913 91.1716 87.0576 91.4514C87.381 92.5368 87.5057 93.6716 87.4257 94.8013C87.1754 96.7487 86.8036 96.9475 86.7594 96.9622C86.74 96.9668 86.7198 96.9668 86.7005 96.9622C86.2274 96.8839 85.7916 96.657 85.4562 96.3143C85.0071 95.8763 84.8341 94.3706 84.5691 92.0919C84.3666 90.347 84.4917 90.0746 84.5506 89.9421C84.8478 89.3975 85.3107 88.9616 85.8722 88.6978C86.0894 88.5727 86.2808 88.4733 86.4428 88.3923L86.4281 88.3997ZM87.2858 86.2645C86.4318 86.2645 85.2869 86.9235 84.9556 87.1149C84.0583 87.5658 83.3303 88.2939 82.8794 89.1911C82.6364 89.7323 82.5112 90.336 82.7505 92.3055C83.0929 95.2504 83.2659 96.7229 84.1788 97.6248C84.8509 98.3056 85.7466 98.7201 86.7005 98.7918C86.9518 98.7951 87.2015 98.7514 87.4367 98.663C88.8577 98.1108 89.1301 95.9867 89.2553 95.0296C89.3739 93.6758 89.2416 92.3117 88.865 91.006C88.6847 90.2697 88.6221 90.2697 88.4748 89.5777C88.0589 87.5787 88.4454 86.8683 87.9558 86.4633C87.7675 86.3221 87.5355 86.2517 87.3005 86.2645H87.2858Z" fill="#001550" stroke="#001550" stroke-miterlimit="10"/>
<path d="M77.9027 95.935C78.3822 96.5549 78.7989 97.2208 79.147 97.9229C79.3679 98.3757 79.8317 99.3181 79.7507 99.5132C79.644 99.7672 78.6206 100.043 78.234 100.146C77.5668 100.348 76.8765 100.463 76.1799 100.489C75.5651 100.489 75.1455 100.356 74.9246 100.095C74.7799 99.9079 74.6814 99.6894 74.6372 99.4571C74.5931 99.2249 74.6045 98.9855 74.6706 98.7585C74.7295 98.729 74.8326 98.6849 74.9099 98.6554C76.2186 98.1646 77.2896 97.1911 77.9027 95.935ZM77.3726 93.3176C77.2978 93.3174 77.2233 93.3285 77.1518 93.3508C76.4155 93.5827 76.8131 94.8233 75.5946 96.0749C74.5602 97.1461 73.7061 96.8295 73.1318 97.7609C72.5171 98.7511 72.7306 100.319 73.5184 101.265C74.1994 102.079 75.2081 102.318 76.1799 102.318C77.037 102.294 77.8872 102.158 78.7089 101.913C79.6918 101.648 80.9802 101.302 81.4367 100.227C81.8453 99.2628 81.3521 98.2615 80.7851 97.113C80.0489 95.6405 78.488 93.3176 77.3726 93.3176Z" fill="#001550" stroke="#001550" stroke-miterlimit="10"/>
<path d="M101.307 95.1692C101.33 95.1658 101.354 95.1658 101.377 95.1692C101.745 95.4269 102.021 97.065 101.333 98.1142C101.071 98.5191 100.71 98.7068 99.4294 99.248C97.8167 99.9212 96.0857 100.265 94.3382 100.26H94.04C95.0668 99.8486 96.026 99.2852 96.8856 98.589C97.4518 98.1354 97.9534 97.6065 98.3765 97.0172C98.571 96.7389 98.8055 96.4908 99.0723 96.2809C99.8785 95.6404 100.817 95.1765 101.307 95.1765V95.1692ZM101.307 93.3359C99.8343 93.3359 98.1483 94.6722 97.9348 94.8415C96.8635 95.6919 96.9593 96.1705 95.726 97.1754C94.7912 97.911 93.7381 98.4824 92.6117 98.8651C89.6667 100.01 87.7304 99.8149 87.6825 100.293C87.6347 100.772 89.5231 101.398 90.9257 101.718C92.0458 101.969 93.1905 102.092 94.3382 102.086C96.3299 102.092 98.3026 101.699 100.14 100.93C101.458 100.374 102.271 100.017 102.864 99.1118C104.031 97.3264 103.736 94.3262 102.216 93.531C101.934 93.3915 101.622 93.3208 101.307 93.3249V93.3359Z" fill="#001550" stroke="#001550" stroke-miterlimit="10"/>
<path d="M93.5884 83.4005C94.0094 83.4056 94.4244 83.5009 94.8054 83.6799C95.1864 83.859 95.5246 84.1177 95.7972 84.4386C96.0732 84.8067 96.0953 85.4325 96.0917 87.2473C96.0917 89.7175 96.0622 90.6046 95.51 91.2341C95.0131 91.7907 94.3211 92.1348 93.5774 92.1949C93.4426 92.2006 93.3086 92.1727 93.1872 92.1139C92.819 91.9336 92.635 91.3077 92.5282 90.9691C92.3368 90.3801 92.392 89.9935 92.6313 88.6131C92.6976 88.2229 92.7749 87.7848 92.8558 87.2694C93.0988 85.6902 93.1835 84.6337 93.224 83.9342C93.224 83.7612 93.2534 83.5661 93.2681 83.4299C93.371 83.4086 93.476 83.3988 93.5811 83.4005H93.5884ZM93.5811 81.5598C92.9945 81.5351 92.4165 81.7075 91.9392 82.0494C91.2324 82.609 91.6226 83.1538 91.03 86.9786C90.6618 89.3788 90.3452 90.2034 90.7723 91.5213C90.9526 92.0771 91.3134 93.1999 92.3294 93.73C92.711 93.9246 93.1343 94.0232 93.5626 94.0171C94.1926 93.9876 94.8102 93.8324 95.3792 93.5605C95.9482 93.2887 96.457 92.9057 96.8758 92.4342C97.9102 91.2562 97.9102 89.8573 97.9139 87.2437C97.9139 85.2411 97.9139 84.2398 97.2623 83.3489C96.8188 82.7977 96.2586 82.3517 95.6221 82.043C94.9855 81.7343 94.2885 81.5705 93.5811 81.5635V81.5598Z" fill="#001550" stroke="#001550" stroke-miterlimit="10"/>
<path d="M99.5417 71.5725C100.465 71.6042 101.381 71.7552 102.266 72.0216C103.396 72.3198 105.104 72.7579 105.41 73.6855C105.689 74.5212 105.086 75.6992 104.581 76.2366C104.205 75.9217 103.799 75.6431 103.37 75.4047C102.546 74.9408 101.415 74.3003 100.156 74.3003C99.7722 74.2994 99.3904 74.3616 99.0263 74.4844C97.6716 74.9482 97.1599 76.0526 96.858 76.7115C96.795 76.8578 96.7238 77.0004 96.6445 77.1385H96.5967C96.2902 77.1228 95.9993 76.9989 95.7757 76.7888C95.5384 76.4109 95.4492 75.9585 95.5254 75.5188C95.6275 74.2826 96.2056 73.1344 97.1378 72.3161C97.8288 71.7954 98.6812 71.5347 99.5453 71.5799L99.5417 71.5725ZM99.5453 69.7392C98.2616 69.6993 97.0041 70.108 95.9893 70.8952C93.7805 72.6806 92.9522 76.417 94.4321 78.0331C95.0021 78.6184 95.7798 78.9557 96.5967 78.9718C96.8785 78.9747 97.158 78.9196 97.4176 78.8098C98.6618 78.2687 98.4042 76.6305 99.6263 76.2329C99.7996 76.1754 99.9812 76.1468 100.164 76.1483C100.944 76.1483 101.784 76.6232 102.479 77.0134C103.771 77.7496 103.841 78.2908 104.427 78.3092H104.463C105.848 78.3092 107.909 75.3642 107.151 73.1149C106.532 71.2743 104.29 70.6706 102.733 70.262C101.696 69.9544 100.623 69.7836 99.5417 69.754L99.5453 69.7392Z" fill="#001550" stroke="#001550" stroke-miterlimit="10"/>
<path d="M94.755 54.3739C96.025 54.3739 97.1588 54.7678 98.8779 55.3678C100.693 56.001 101.337 56.5348 101.433 56.6894C101.674 57.0335 101.794 57.4477 101.775 57.8674C101.607 57.9805 101.406 58.0337 101.204 58.0183C101.094 58.0187 100.984 58.0051 100.877 57.9778C100.671 57.9189 100.568 57.8122 100.188 57.2673C99.7246 56.5937 99.0252 55.5813 97.5674 55.2353C97.3073 55.1703 97.0404 55.1369 96.7723 55.1359C96.1971 55.1541 95.6323 55.2946 95.1157 55.5482C94.5237 55.8055 93.907 56.0016 93.2751 56.1335C92.653 56.2912 92.0189 56.397 91.3793 56.4501C91.3304 56.4565 91.2809 56.4565 91.232 56.4501C91.1356 56.3091 91.0722 56.1481 91.0467 55.9792C91.0212 55.8103 91.0342 55.6378 91.0848 55.4746C91.2725 54.9923 92.2517 54.6389 94.004 54.4291C94.2594 54.4001 94.5163 54.3854 94.7734 54.3849L94.755 54.3739ZM94.7734 52.5443C94.4448 52.5457 94.1166 52.5666 93.7905 52.6069C92.6162 52.7468 90.0503 53.0523 89.373 54.8156C88.9754 55.8537 89.281 57.2857 90.1534 57.93C90.508 58.1862 90.9384 58.3159 91.3756 58.2981C92.1453 58.2497 92.9085 58.1264 93.6543 57.93C95.6605 57.5029 96.106 56.9765 96.787 56.9765C96.9109 56.9782 97.0343 56.993 97.1551 57.0207C98.727 57.3888 98.6607 59.2626 100.398 59.7485C100.665 59.8199 100.94 59.8558 101.216 59.8552C101.601 59.8728 101.985 59.802 102.338 59.6483C102.692 59.4945 103.005 59.2618 103.255 58.9681C103.991 57.9668 103.476 56.4906 102.994 55.7249C102.817 55.4378 102.239 54.6205 99.4927 53.6487C97.6963 53.0229 96.3452 52.5443 94.766 52.5443H94.7734Z" fill="#001550" stroke="#001550" stroke-miterlimit="10"/>
<path d="M108.061 62.9878C109.526 62.9909 110.972 63.3283 112.287 63.9743C113.557 64.6038 114.128 64.9094 114.466 65.5315C114.765 66.0947 114.956 67.1218 114.165 68.8446C113.787 69.6723 113.249 70.4168 112.582 71.0349C112.456 70.7957 112.309 70.468 112.213 70.2214C111.643 68.9219 110.781 66.9635 108.587 66.0984C108.209 65.9435 107.807 65.8574 107.398 65.8444C106.759 65.8007 106.122 65.7208 105.492 65.6051C104.645 65.4652 103.651 65.2959 103.032 65.1413C103.229 64.7809 103.477 64.451 103.769 64.1621C104.807 63.1277 106.364 63.0577 107.737 63.0099H108.079L108.061 62.9878ZM108.079 61.1692H107.663C106.136 61.2318 104.019 61.3128 102.473 62.8589C101.718 63.5952 100.695 65.1192 101.177 66.1021C101.505 66.7721 102.742 66.9893 105.201 67.3979C107.524 67.7881 107.373 67.5709 107.925 67.7881C110.689 68.8925 110.41 72.6805 112.206 72.9786C112.278 72.9901 112.351 72.9963 112.423 72.9971C113.841 72.9971 115.284 70.7883 115.84 69.6066C116.116 69.0176 117.187 66.7132 116.101 64.6738C115.479 63.5068 114.455 62.9988 113.115 62.3399C111.548 61.5693 109.826 61.1664 108.079 61.1619V61.1692Z" fill="#001550" stroke="#001550" stroke-miterlimit="10"/>
<path d="M107.096 57.779C107.15 57.7795 107.205 57.7857 107.258 57.7974C107.157 57.8564 107.043 57.8905 106.926 57.8968C106.906 57.8994 106.885 57.8994 106.864 57.8968L106.812 57.8563C106.876 57.8282 106.943 57.8072 107.011 57.7937H107.096V57.779ZM107.096 55.9531C106.973 55.9536 106.85 55.9622 106.728 55.9789C106.628 55.9789 105.178 56.2329 104.909 57.4072C104.707 58.2907 105.307 59.119 105.947 59.4834C106.242 59.6493 106.574 59.7355 106.912 59.7338C107.304 59.7242 107.689 59.627 108.039 59.4493C108.388 59.2716 108.694 59.0179 108.933 58.7067C109.081 58.5269 109.192 58.3194 109.259 58.0963C109.326 57.8731 109.348 57.6389 109.323 57.4072C109.157 56.5458 108.09 55.9531 107.081 55.9531H107.096Z" fill="#001550" stroke="#001550" stroke-miterlimit="10"/>
<path d="M122.667 70.3319C122.873 70.3268 123.075 70.3903 123.241 70.5123C123.543 70.7516 123.503 71.3443 123.492 71.4915L122.969 71.0571C122.814 70.9246 122.483 70.6485 122.233 70.435C122.36 70.362 122.506 70.3263 122.652 70.3319H122.667ZM122.652 68.4913C122.325 68.4859 122 68.5471 121.697 68.6711C121.393 68.7951 121.119 68.9794 120.889 69.2128C120.685 69.4392 120.533 69.7073 120.443 69.9985C120.354 70.2897 120.329 70.597 120.37 70.8988C120.451 71.2669 120.653 71.4952 121.798 72.456C123.293 73.715 123.598 73.888 123.805 73.888H123.874C124.684 73.7776 125.181 72.5812 125.303 71.8118C125.332 71.6093 125.557 70.019 124.394 69.0877C123.902 68.7058 123.297 68.5009 122.674 68.506L122.652 68.4913Z" fill="#001550" stroke="#001550" stroke-miterlimit="10"/>
<path d="M117.795 74.2561H117.868C118.177 74.3574 118.438 74.5665 118.605 74.8451C118.823 75.1327 118.927 75.4904 118.899 75.8501C118.725 76.1819 118.48 76.471 118.181 76.6968C117.725 77.1114 117.185 77.4228 116.598 77.6098C116.263 77.745 115.92 77.8605 115.571 77.9558C115.3 77.6229 115.156 77.2037 115.166 76.7741C115.188 75.9532 116.053 75.3016 116.521 74.9335C116.93 74.6206 117.441 74.2341 117.776 74.2341L117.795 74.2561ZM117.776 72.3934C116.827 72.3934 116.039 72.9898 115.413 73.461C114.787 73.9322 113.377 75.0034 113.337 76.7042C113.311 77.8785 113.926 79.3289 115.026 79.6896C115.183 79.7425 115.347 79.7686 115.512 79.767C116.107 79.7078 116.688 79.5498 117.231 79.2994C118.052 79.0303 118.805 78.5884 119.44 78.0036C119.981 77.4919 120.519 76.9876 120.688 76.2219C121.031 74.7016 119.79 72.6879 118.144 72.4229C118.023 72.4041 117.9 72.3942 117.776 72.3934Z" fill="#001550" stroke="#001550" stroke-miterlimit="10"/>
<path d="M109.951 77.7571C109.99 77.8141 110.025 77.8731 110.058 77.9338C110.276 78.4563 110.285 79.0427 110.084 79.5719C109.826 80.3081 109.263 81.0738 108.309 81.9647C107.362 82.9225 106.209 83.6514 104.937 84.0961C104.499 84.2279 104.044 84.2961 103.586 84.2986C102.949 84.3155 102.32 84.1481 101.775 83.8164C101.431 83.6009 101.155 83.2929 100.978 82.9277C100.8 82.5625 100.73 82.1547 100.774 81.7512H100.8C101.168 81.7512 101.573 81.7917 102.003 81.8322C102.533 81.88 103.082 81.9279 103.66 81.9279C104.649 81.9557 105.631 81.7435 106.52 81.3094C107.809 80.6468 108.681 79.4688 109.38 78.508C109.583 78.2356 109.774 77.9742 109.951 77.7718V77.7571ZM109.833 75.7876C109.618 75.7862 109.405 75.8421 109.219 75.9496C108.997 76.0936 108.802 76.274 108.641 76.4833C107.787 77.4773 106.947 79.0418 105.696 79.6934C105.065 79.9935 104.372 80.1362 103.675 80.1094C102.699 80.1094 101.694 79.9327 100.774 79.9327C100.428 79.9224 100.084 79.9917 99.7688 80.1351C99.3959 80.3737 99.1315 80.7491 99.0325 81.1806C98.5908 82.7414 99.4191 84.4937 100.781 85.3698C101.622 85.8916 102.596 86.16 103.586 86.1429C104.224 86.142 104.857 86.0478 105.467 85.8631C107.007 85.3346 108.405 84.4622 109.557 83.312C110.55 82.466 111.325 81.3926 111.814 80.183C112.175 79.1883 112.133 78.0915 111.696 77.1276C111.585 76.9021 111.445 76.6917 111.28 76.5018C111.102 76.2869 110.882 76.1107 110.633 75.9841C110.384 75.8575 110.112 75.7831 109.833 75.7655V75.7876Z" fill="#001550" stroke="#001550" stroke-miterlimit="10"/>
<path d="M115.55 83.5182C115.627 83.5142 115.705 83.5142 115.782 83.5182C115.73 83.7317 115.664 83.9784 115.612 84.1735C115.244 85.5908 115.023 86.3049 114.35 87.0375C112.999 88.51 111.107 88.51 110.485 88.51H110.437C110.235 88.5269 110.031 88.4954 109.844 88.4179C109.708 88.3506 109.584 88.2624 109.476 88.1566C110.166 87.767 110.82 87.3174 111.431 86.8129C112.214 86.165 112.894 85.4016 113.448 84.549C113.779 84.063 113.853 83.9636 114.184 83.8127C114.618 83.6097 115.09 83.5029 115.568 83.4998L115.55 83.5182ZM115.568 81.6592C114.804 81.6603 114.05 81.8313 113.36 82.1598C111.887 82.8961 112.167 83.7943 110.245 85.403C108.57 86.8056 107.51 86.824 107.392 87.7406C107.274 88.6572 108.173 89.6548 109.078 90.0745C109.506 90.265 109.972 90.3544 110.44 90.3359H110.507C111.243 90.3359 113.82 90.3027 115.697 88.2597C116.706 87.1553 117.004 86.0509 117.383 84.6263C117.681 83.5219 117.832 82.9108 117.516 82.4175C117.199 81.9243 116.411 81.6555 115.554 81.6555L115.568 81.6592Z" fill="#001550" stroke="#001550" stroke-miterlimit="10"/>
<path d="M123.154 81.1364C123.232 81.1308 123.311 81.1308 123.389 81.1364C124.173 81.2321 124.987 81.7733 125.035 82.2408C125.083 82.7083 124.232 83.4114 123.441 83.7354C122.987 83.9113 122.506 84.0048 122.02 84.0114C121.799 84.0114 121.265 83.9857 121.089 83.7317C120.842 83.382 121.059 82.4948 121.534 81.8911C121.73 81.6506 121.977 81.4566 122.257 81.323C122.537 81.1893 122.843 81.1193 123.154 81.118V81.1364ZM123.154 79.2774C122.57 79.2789 121.994 79.4101 121.468 79.6616C120.941 79.9131 120.477 80.2785 120.109 80.7315C119.288 81.7512 118.729 83.5255 119.59 84.7551C120.142 85.5465 121.081 85.8153 122.02 85.8153C122.743 85.8102 123.458 85.6704 124.129 85.403C125.149 84.987 127.034 83.7832 126.857 82.0309C126.699 80.4627 124.994 79.4541 123.61 79.3031C123.459 79.2853 123.306 79.2767 123.154 79.2774Z" fill="#001550" stroke="#001550" stroke-miterlimit="10"/>
<path d="M126.235 75.0109C125.4 75.0109 124.487 75.5925 124.395 76.2183C124.303 76.8441 125.131 77.1497 126.471 78.9461C127.174 79.8775 127.524 80.3413 127.638 80.8898C127.936 82.3108 126.949 82.9844 127.38 84.1366C127.63 84.814 128.297 85.4472 128.816 85.4472C128.856 85.4526 128.897 85.4526 128.937 85.4472C129.836 85.2594 130.38 83.0065 130.104 81.1659C129.997 80.4517 129.515 79.5241 128.547 77.6613C127.413 75.4821 127.045 75.1692 126.6 75.0661C126.479 75.0392 126.355 75.0256 126.232 75.0256L126.235 75.0109Z" fill="#001550" stroke="#001550" stroke-miterlimit="10"/>
<path d="M119.86 90.4499C119.77 90.9631 119.572 91.4511 119.279 91.8819C118.774 92.5777 117.979 92.8391 116.076 93.4133C115.574 93.5629 115.06 93.6736 114.541 93.7446C114.907 93.6211 115.263 93.4723 115.609 93.2992C116.506 92.8542 117.301 92.2274 117.942 91.4586C118.218 91.0812 118.604 90.7994 119.047 90.6524C119.314 90.5592 119.589 90.489 119.868 90.4426L119.86 90.4499ZM120.332 88.5725C119.682 88.592 119.039 88.7163 118.428 88.9406C116.536 89.618 116.764 90.6819 114.795 91.6647C112.999 92.563 111.913 92.1286 111.162 93.2219C110.794 93.7741 110.543 94.6392 110.904 95.1693C111.048 95.3865 111.39 95.6883 112.98 95.6883C114.208 95.6914 115.429 95.5166 116.606 95.1693C118.627 94.5582 119.871 94.1827 120.759 92.9605C121.216 92.2975 121.526 91.5445 121.668 90.7518C121.83 89.9493 121.937 89.4376 121.668 89.0621C121.399 88.6866 120.902 88.5762 120.324 88.5762L120.332 88.5725Z" fill="#001550" stroke="#001550" stroke-miterlimit="10"/>
<path d="M103.495 89.2572C103.355 89.5102 103.159 89.7277 102.921 89.893C102.684 90.0583 102.412 90.1669 102.126 90.2106C102.225 89.9677 102.378 89.751 102.575 89.5774C102.843 89.3812 103.163 89.2697 103.495 89.2572ZM103.595 87.4166C102.807 87.412 102.042 87.6712 101.419 88.1528C100.414 88.97 99.7992 90.6524 100.513 91.5248C100.685 91.7089 100.895 91.8523 101.128 91.9447C101.362 92.037 101.614 92.076 101.864 92.0586C102.531 92.0464 103.182 91.8625 103.757 91.5248C104.979 90.7886 105.892 89.0989 105.314 88.1528C105.012 87.6632 104.342 87.4166 103.595 87.4166Z" fill="#001550" stroke="#001550" stroke-miterlimit="10"/>
<path d="M107.575 94.8675H107.641C108.01 94.9485 108.433 95.7731 108.415 96.5424C108.415 96.8406 108.26 97.7131 107.851 97.8824C107.767 97.9162 107.677 97.9325 107.586 97.9303C107.425 97.9312 107.268 97.8879 107.13 97.8051C106.965 97.6358 106.837 97.4344 106.753 97.2134C106.669 96.9923 106.632 96.7564 106.644 96.5203C106.617 96.2568 106.644 95.9907 106.723 95.7378C106.801 95.4848 106.929 95.2502 107.1 95.0478C107.24 94.9472 107.404 94.8861 107.575 94.8711V94.8675ZM107.575 93.0305C106.991 93.0485 106.428 93.2479 105.963 93.6011C104.384 94.8748 104.431 98.1659 106.092 99.3107C106.534 99.606 107.054 99.7624 107.586 99.7598C107.919 99.7621 108.25 99.6983 108.558 99.5721C110.163 98.8984 110.24 96.7633 110.244 96.5866C110.277 95.1877 109.508 93.406 108.035 93.0821C107.883 93.0474 107.728 93.0301 107.572 93.0305H107.575Z" fill="#001550" stroke="#001550" stroke-miterlimit="10"/>
<path d="M127.233 88.532C127.638 88.565 128.019 88.7397 128.308 89.0253C127.516 89.7224 126.677 90.3644 125.797 90.9469L125.19 91.3739C125.297 91.1457 125.422 90.9101 125.558 90.6561C126.191 89.5959 126.791 88.5909 127.126 88.5393H127.218L127.233 88.532ZM127.218 86.6987C127.095 86.6995 126.972 86.7093 126.85 86.7282C125.669 86.9122 125.039 87.9651 123.994 89.7137C123.444 90.637 123.05 91.6443 122.827 92.6955C122.584 93.6783 122.459 94.168 122.698 94.3851C122.796 94.4662 122.921 94.507 123.048 94.4993C123.942 94.4993 125.823 93.163 126.85 92.4378C129.169 90.7923 130.329 89.9713 130.222 88.9332C130.108 87.7884 128.602 86.6987 127.226 86.6987H127.218Z" fill="#001550" stroke="#001550" stroke-miterlimit="10"/>
<path d="M68.8208 99.6825H68.8797C68.9602 99.7918 69.0155 99.9175 69.0417 100.051C68.7584 100.007 68.4807 99.9333 68.2134 99.8298C68.4035 99.7381 68.61 99.6855 68.8208 99.6752V99.6825ZM68.8208 97.8346C67.3152 97.8346 65.5482 99.2076 65.5997 100.08C65.6292 100.607 66.336 100.96 66.8992 101.247C67.6318 101.614 68.4304 101.83 69.2478 101.884C69.4864 101.901 69.7257 101.864 69.9481 101.776C70.1705 101.688 70.3703 101.552 70.5326 101.376C71.2357 100.529 70.8602 98.799 69.881 98.1327C69.5656 97.9292 69.1961 97.8253 68.8208 97.8346Z" fill="#001550" stroke="#001550" stroke-miterlimit="10"/>
<path d="M45.7946 95.4197H45.9492C46.2996 95.4895 46.6205 95.6641 46.8695 95.9204C46.4414 95.7835 46.0232 95.6174 45.6179 95.4234C45.6767 95.4197 45.7357 95.4197 45.7946 95.4234V95.4197ZM45.7946 93.5828C44.4362 93.5828 42.9711 94.3705 42.9011 95.1583C42.7833 96.4836 46.5823 98.2763 50.1163 98.2763H50.2967C50.9078 98.2763 54.0847 98.2101 54.4491 96.848C54.6811 95.9977 53.7828 94.7276 52.7631 94.5141C52.6725 94.4938 52.5799 94.4839 52.487 94.4847C51.633 94.4847 51.2207 95.3792 50.039 95.4234H49.9544C48.3788 95.4234 47.9223 93.7963 46.1443 93.6049C46.0302 93.6049 45.9124 93.5864 45.7762 93.5864L45.7946 93.5828Z" fill="#001550" stroke="#001550" stroke-miterlimit="10"/>
<path d="M82.5681 47.3967C80.9051 51.2999 77.8613 54.4529 74.0192 56.2525C72.4381 56.9966 70.742 57.4666 69.0034 57.6426C63.0812 58.2217 56.8781 55.0188 54.1964 49.7047C53.6417 48.5935 53.2487 47.4086 53.0293 46.1862C52.6411 44.0544 52.7401 41.8625 53.3189 39.7745C53.5925 38.7586 53.9811 37.7773 54.4773 36.8496C56.8259 32.5375 61.1148 30.5769 65.7715 29.6705C68.8586 29.0681 72.0239 28.7757 74.9952 27.7505C76.2752 27.3074 77.5639 26.6906 78.3632 25.5988C79.7387 23.7309 79.0466 20.7075 76.9992 19.6215C76.2557 19.2595 75.4473 19.0498 74.6216 19.0047C73.692 18.9149 72.7305 18.9091 71.8125 18.7383C71.4708 18.6746 71.0943 18.5558 70.9437 18.246C70.7005 17.7565 71.1812 17.2179 71.6474 16.9341C74.1959 15.3674 77.7521 15.8365 79.9588 17.855C82.1656 19.8735 82.9648 23.2183 82.1221 26.0882C81.2794 28.9581 78.9192 31.2807 76.1043 32.2942C72.9188 33.4381 69.3654 33.0124 66.1654 34.0839C64.1468 34.7299 62.4044 36.0366 61.2191 37.7937C60.6387 38.6729 60.2571 39.6681 60.1011 40.71C59.945 41.7519 60.0182 42.8153 60.3156 43.8259C61.2162 46.6263 63.9355 48.4595 66.7185 49.4151C69.3434 50.2842 72.1296 50.5539 74.8724 50.2046C77.6152 49.8553 80.2448 48.8958 82.5681 47.3967Z" fill="#10B981" stroke="#001550" stroke-width="0.8" stroke-miterlimit="10"/>
<path d="M75.2017 54.7697C75.2017 54.7697 74.7007 55.4126 74.0202 56.2495C72.439 56.9936 70.743 57.4636 69.0044 57.6396C63.0821 58.2187 56.879 55.0158 54.1973 49.7017C53.6429 48.5914 53.2499 47.4075 53.0303 46.186C54.0468 48.691 56.3259 50.6169 58.5789 52.0388C63.0937 54.8884 68.9146 54.176 71.1706 53.9385C72.5667 53.8145 73.9685 54.1035 75.2017 54.7697Z" fill="white" stroke="#001550" stroke-width="0.8" stroke-miterlimit="10"/>
<path d="M64.2099 54.8046C64.8412 54.8423 65.3278 55.2998 65.2959 55.8327C65.2641 56.3656 64.7167 56.7652 64.0999 56.7304C63.483 56.6957 62.9849 56.2352 63.0139 55.7024C63.0429 55.1695 63.5815 54.7554 64.2099 54.8046Z" fill="white" stroke="#001550" stroke-width="0.8" stroke-miterlimit="10"/>
<path d="M60.9247 53.6924C61.5039 53.898 61.8601 54.4743 61.6835 54.9782C61.5068 55.4821 60.8842 55.7195 60.2876 55.511C59.691 55.3025 59.3522 54.7262 59.526 54.2252C59.6997 53.7242 60.3282 53.4839 60.9247 53.6924Z" fill="white" stroke="#001550" stroke-width="0.8" stroke-miterlimit="10"/>
<path d="M57.6257 51.7696C58.1238 52.1547 58.2628 52.8092 57.9385 53.2176C57.6141 53.6259 56.9423 53.6664 56.4442 53.2813C55.9461 52.8961 55.8042 52.2387 56.1314 51.8333C56.4586 51.4279 57.1276 51.3815 57.6257 51.7696Z" fill="white" stroke="#001550" stroke-width="0.8" stroke-miterlimit="10"/>
<path d="M55.2199 50.0231C55.3093 50.1213 55.3688 50.243 55.3915 50.3739C55.4141 50.5048 55.399 50.6395 55.3477 50.762C55.2965 50.8846 55.2114 50.99 55.1023 51.0659C54.9933 51.1417 54.8649 51.1849 54.7321 51.1903C54.5994 51.1957 54.4679 51.1631 54.353 51.0963C54.2382 51.0296 54.1448 50.9314 54.0838 50.8134C54.0228 50.6954 53.9967 50.5624 54.0087 50.4301C54.0206 50.2978 54.0701 50.1717 54.1513 50.0665C54.2879 49.9204 54.4767 49.8338 54.6767 49.8257C54.8766 49.8176 55.0718 49.8885 55.2199 50.0231Z" fill="white" stroke="#001550" stroke-width="0.8" stroke-miterlimit="10"/>
<path d="M73.3005 30.0644C67.5983 31.9641 60.7783 29.2738 55.1023 36.7946C54.3962 37.7168 53.7977 38.7166 53.3184 39.7745C53.5919 38.7586 53.9806 37.7773 54.4767 36.8496C56.8254 32.5375 61.1143 30.577 65.771 29.6705C68.8581 29.0682 72.0234 28.7757 74.9946 27.7505C76.2746 27.3074 77.5633 26.6906 78.3626 25.5988C79.7382 23.7309 79.046 20.7075 76.9986 19.6216C76.2551 19.2595 75.4467 19.0498 74.621 19.0047C75.8026 18.7644 78.8231 18.495 79.9583 21.6111C81.3744 25.5554 78.9997 28.1617 73.3005 30.0644Z" fill="white" stroke="#001550" stroke-width="0.8" stroke-miterlimit="10"/>
<path d="M66.8089 29.3461C66.9402 29.3671 67.0628 29.4251 67.1622 29.5134C67.2617 29.6017 67.3338 29.7165 67.3702 29.8444C67.4065 29.9723 67.4056 30.1079 67.3675 30.2353C67.3294 30.3627 67.2557 30.4766 67.1551 30.5635C67.0545 30.6504 66.9311 30.7067 66.7995 30.7259C66.668 30.7451 66.5337 30.7263 66.4124 30.6717C66.2912 30.6172 66.188 30.5291 66.1151 30.4179C66.0422 30.3067 66.0026 30.177 66.001 30.044C66.0165 29.8447 66.1101 29.6596 66.2614 29.5289C66.4127 29.3982 66.6095 29.3325 66.8089 29.3461Z" fill="white" stroke="#001550" stroke-width="0.8" stroke-miterlimit="10"/>
<path d="M70.5228 28.9175C70.6548 28.9385 70.778 28.9968 70.878 29.0856C70.9779 29.1743 71.0504 29.2898 71.0869 29.4184C71.1234 29.5469 71.1224 29.6833 71.0839 29.8113C71.0455 29.9393 70.9712 30.0536 70.8699 30.1408C70.7686 30.228 70.6445 30.2844 70.5122 30.3034C70.3799 30.3224 70.2449 30.3031 70.1232 30.2479C70.0014 30.1926 69.8981 30.1038 69.8252 29.9917C69.7523 29.8797 69.713 29.7491 69.7119 29.6155C69.7282 29.4159 69.8224 29.2308 69.9742 29.1002C70.1259 28.9695 70.323 28.9039 70.5228 28.9175Z" fill="white" stroke="#001550" stroke-width="0.8" stroke-miterlimit="10"/>
<path d="M74.096 28.0604C74.228 28.0813 74.3513 28.1397 74.4512 28.2284C74.5512 28.3171 74.6237 28.4326 74.6602 28.5612C74.6966 28.6898 74.6956 28.8261 74.6571 28.9541C74.6187 29.0821 74.5444 29.1965 74.4431 29.2836C74.3418 29.3708 74.2177 29.4272 74.0854 29.4462C73.9531 29.4652 73.8181 29.4459 73.6964 29.3907C73.5747 29.3355 73.4713 29.2466 73.3984 29.1345C73.3256 29.0225 73.2863 28.8919 73.2852 28.7583C73.3014 28.5587 73.3957 28.3736 73.5474 28.243C73.6992 28.1124 73.8963 28.0467 74.096 28.0604Z" fill="white" stroke="#001550" stroke-width="0.8" stroke-miterlimit="10"/>
<path d="M77.3315 26.4241C77.4571 26.3786 77.593 26.3699 77.7234 26.3991C77.8537 26.4283 77.973 26.4942 78.0672 26.5889C78.1614 26.6836 78.2265 26.8033 78.255 26.9338C78.2834 27.0643 78.274 27.2002 78.2277 27.3256C78.1815 27.4509 78.1004 27.5604 77.9941 27.6412C77.8877 27.722 77.7604 27.7707 77.6273 27.7815C77.4941 27.7924 77.3607 27.765 77.2426 27.7025C77.1245 27.6401 77.0267 27.5452 76.9608 27.429C76.8778 27.2465 76.8702 27.0386 76.9396 26.8504C77.009 26.6623 77.1498 26.5091 77.3315 26.4241Z" fill="white" stroke="#001550" stroke-width="0.8" stroke-miterlimit="10"/>
<path d="M63.0006 29.8211C63.1314 29.7943 63.2672 29.8055 63.3919 29.8533C63.5166 29.9011 63.625 29.9836 63.7044 30.0909C63.7838 30.1983 63.8309 30.3261 63.8401 30.4593C63.8493 30.5925 63.8203 30.7256 63.7564 30.8429C63.6926 30.9602 63.5965 31.0568 63.4796 31.1213C63.3627 31.1858 63.2298 31.2156 63.0965 31.2071C62.9633 31.1986 62.8352 31.1523 62.7274 31.0735C62.6196 30.9947 62.5365 30.8867 62.488 30.7623C62.4322 30.5695 62.4548 30.3625 62.5508 30.1863C62.6468 30.01 62.8084 29.8788 63.0006 29.8211Z" fill="white" stroke="#001550" stroke-width="0.8" stroke-miterlimit="10"/>
<path d="M59.6093 32.3103C60.0287 32.1479 60.2577 31.7293 60.1206 31.3753C59.9836 31.0213 59.5325 30.8659 59.113 31.0283C58.6936 31.1906 58.4646 31.6092 58.6016 31.9633C58.7387 32.3173 59.1898 32.4726 59.6093 32.3103Z" fill="white" stroke="#001550" stroke-width="0.8" stroke-miterlimit="10"/>
<path d="M56.8561 32.9632C56.9869 32.936 57.1228 32.9467 57.2477 32.9941C57.3726 33.0415 57.4814 33.1236 57.5612 33.2308C57.641 33.338 57.6885 33.4657 57.6981 33.599C57.7077 33.7323 57.679 33.8655 57.6154 33.983C57.5517 34.1005 57.4558 34.1974 57.339 34.2622C57.2221 34.327 57.0892 34.3571 56.9558 34.3488C56.8224 34.3405 56.6942 34.2943 56.5862 34.2156C56.4782 34.1368 56.395 34.0289 56.3464 33.9044C56.2897 33.712 56.3115 33.505 56.407 33.3286C56.5025 33.1523 56.664 33.0209 56.8561 32.9632Z" fill="white" stroke="#001550" stroke-width="0.8" stroke-miterlimit="10"/>
<path d="M78.5677 23.9192C78.6508 23.8155 78.7618 23.7377 78.8876 23.6949C79.0134 23.6522 79.1488 23.6462 79.2779 23.6778C79.407 23.7094 79.5244 23.7771 79.6163 23.8731C79.7082 23.9691 79.7708 24.0893 79.7967 24.2196C79.8226 24.3499 79.8108 24.485 79.7626 24.6088C79.7144 24.7326 79.6319 24.8402 79.5247 24.9187C79.4175 24.9973 79.2902 25.0436 79.1576 25.0522C79.025 25.0609 78.8926 25.0315 78.7762 24.9675C78.6101 24.8556 78.495 24.6826 78.456 24.4863C78.4169 24.2899 78.4571 24.0861 78.5677 23.9192Z" fill="white" stroke="#001550" stroke-width="0.8" stroke-miterlimit="10"/>
<path d="M87.9341 40.0677C89.4244 39.8156 90.4234 38.3751 90.1655 36.8501C89.9076 35.3251 88.4904 34.2933 87.0001 34.5453C85.5099 34.7974 84.5108 36.2379 84.7688 37.7629C85.0267 39.2878 86.4439 40.3197 87.9341 40.0677Z" fill="white" stroke="#001550" stroke-width="0.8" stroke-miterlimit="10"/>
<path d="M149.771 89.582C149.722 90.1489 149.557 90.6998 149.288 91.2009C148.344 92.9848 146.609 93.9752 144.84 94.731C140.587 96.5392 135.938 97.2118 131.347 96.6829C131.27 96.6754 131.198 96.6394 131.146 96.5819C131.093 96.5243 131.065 96.4493 131.065 96.3716C131.065 96.2939 131.093 96.2189 131.146 96.1613C131.198 96.1038 131.27 96.0678 131.347 96.0603C136.111 95.568 140.887 94.343 144.243 90.9547C144.537 90.6642 144.715 90.2756 144.741 89.8629C144.79 88.8233 143.785 88.415 142.943 88.1254C141.105 87.4586 139.364 86.552 137.765 85.4292C136.398 84.4707 135.048 83.1733 134.924 81.5081C134.805 79.8922 135.871 78.4644 136.757 77.1062C137.895 75.3542 139.47 72.6899 139.899 70.1936C140.238 68.2099 139.856 66.3333 137.962 65.0996C135.312 63.362 131.654 63.2317 128.605 63.3852C125.689 63.5329 122.879 64.6189 119.984 64.9027C119.209 64.9853 118.428 64.994 117.652 64.9287C114.568 64.6391 111.455 63.4142 108.727 62.0009C107.644 61.4386 106.594 60.8149 105.582 60.133C102.246 57.8684 98.704 54.3932 100.853 50.866C100.375 51.6508 111.716 55.7515 112.836 55.9571C118.495 56.9967 124.689 54.4483 130.426 54.9058C130.953 54.9464 131.479 55.0004 132.005 55.068C136.768 55.6675 141.338 57.3269 144.359 61.3204C149.183 67.6915 143.664 73.8135 141.066 79.6315C139.563 82.9937 142.963 83.6569 145.517 84.6531C147.689 85.4785 149.977 86.9496 149.771 89.582Z" fill="#10B981" stroke="#001550" stroke-width="0.8" stroke-miterlimit="10"/>
<path d="M140.276 69.377C140.187 69.6621 140.063 69.9346 139.905 70.1879C140.244 68.2041 139.861 66.3275 137.967 65.0939C135.318 63.3563 131.66 63.226 128.611 63.3795C125.694 63.5271 122.885 64.6131 119.989 64.8969C115.59 63.4345 110.586 61.7751 105.588 60.1273C102.252 57.8627 98.7099 54.3875 100.859 50.8602C100.381 51.645 111.721 55.7457 112.842 55.9513C118.501 56.991 124.695 54.4425 130.432 54.9001C130.959 54.9406 131.485 54.9947 132.01 55.0623C131.142 55.9484 130.134 57.269 130.218 58.494C130.357 60.5877 133.149 61.7056 135.526 62.1255C137.904 62.5454 141.532 65.4674 140.276 69.377Z" fill="#001550" stroke="#001550" stroke-width="0.8" stroke-miterlimit="10"/>
<path d="M143.355 74.1611C143.104 74.1586 142.857 74.0971 142.634 73.9816C141.36 73.4545 139.596 73.4342 138.91 74.6303C138.429 75.4701 138.716 76.5561 139.246 77.3641C139.776 78.172 140.528 78.812 141.076 79.6113C142.787 82.0874 142.121 85.7479 139.955 87.8387C137.789 89.9296 134.47 90.5436 131.534 89.8891C130.706 89.707 129.906 89.4148 129.156 89.0203C127.708 88.2587 126.483 87.1032 125.895 85.5886C123.94 80.5815 129.567 75.0357 127.841 69.9504C127.381 68.5951 126.437 67.4541 125.362 66.51C123.837 65.173 122.046 64.1751 120.106 63.5822C119.733 63.4664 119.353 63.3679 118.971 63.2926C117.39 62.9509 115.756 62.8785 114.167 62.5831C113.822 62.5223 113.477 62.4499 113.139 62.3601C110.584 61.6882 108.378 60.2055 106.336 58.4882C105.383 57.686 104.468 56.8346 103.57 55.989C102.769 55.2798 102.056 54.4778 101.445 53.5998C100.897 52.731 100.576 51.8043 100.883 50.8834C101.217 51.0335 101.543 51.2017 101.859 51.3873C103.388 52.2561 104.813 53.455 106.576 54.0864C108.854 54.8522 111.209 55.3659 113.599 55.6183C115.742 55.8876 117.923 56.0788 120.066 56.4118C122.568 56.797 125.018 57.3704 127.285 58.4737C130.181 59.887 132.704 62.1892 134.085 65.1055C135.466 68.0217 135.623 71.5606 134.227 74.471C133.358 76.2868 131.936 77.8071 131.163 79.6663C130.39 81.5256 130.517 84.0421 132.22 85.1136C133.726 86.0606 135.773 85.4293 137.143 84.2825C137.899 83.6483 138.565 82.7621 138.504 81.7775C138.438 80.7234 137.577 79.9212 137.036 79.0119C136.533 78.1618 136.3 77.179 136.367 76.1936C136.435 75.2081 136.801 74.2664 137.415 73.4932C138.03 72.72 138.865 72.1517 139.81 71.8634C140.755 71.5752 141.765 71.5807 142.706 71.8791C143.248 72.05 143.795 72.357 144.015 72.8782C144.235 73.3995 143.92 74.1119 143.355 74.1611Z" fill="#10B981" stroke="#001550" stroke-width="0.8" stroke-miterlimit="10"/>
<path d="M130.08 71.7574C129.249 79.9529 124.971 81.259 126.634 85.8925C127.132 87.1643 128.008 88.2528 129.144 89.0115C127.696 88.2499 126.471 87.0944 125.884 85.5798C123.929 80.5727 129.556 75.0269 127.83 69.9416C127.369 68.5834 126.419 67.4395 125.342 66.4925C123.817 65.1555 122.025 64.1576 120.086 63.5647L119.744 61.4275C119.744 61.4275 130.911 63.5618 130.08 71.7574Z" fill="white" stroke="#001550" stroke-width="0.8" stroke-miterlimit="10"/>
<path d="M124.93 64.5147C125.271 64.9809 125.303 65.5369 124.999 65.7628C124.695 65.9887 124.171 65.7918 123.841 65.3255C123.511 64.8593 123.467 64.3033 123.771 64.0803C124.075 63.8573 124.588 64.0513 124.93 64.5147Z" fill="white" stroke="#001550" stroke-width="0.8" stroke-miterlimit="10"/>
<path d="M125.352 66.4926C123.827 65.1556 122.036 64.1576 120.096 63.5647C119.723 63.4489 119.343 63.3504 118.961 63.2752C117.38 62.9334 115.747 62.861 114.157 62.5656L106.338 58.4708C105.385 57.6686 104.47 56.8172 103.572 55.9715C102.771 55.2624 102.057 54.4603 101.446 53.5824L101.86 51.3699C103.389 52.2387 104.814 53.4376 106.578 54.0689C108.856 54.8347 111.211 55.3484 113.601 55.6009C115.744 55.8702 117.924 56.0613 120.067 56.3944C119.416 57.2284 119.407 58.3897 121.86 59.7537C125.092 61.5463 125.483 64.5754 125.352 66.4926Z" fill="#001550" stroke="#001550" stroke-width="0.8" stroke-miterlimit="10"/>
<path d="M127.619 66.7648C127.963 67.231 127.995 67.7871 127.691 68.0129C127.387 68.2388 126.863 68.0419 126.533 67.5757C126.203 67.1094 126.159 66.5534 126.46 66.3304C126.762 66.1074 127.277 66.3014 127.619 66.7648Z" fill="white" stroke="#001550" stroke-width="0.8" stroke-miterlimit="10"/>
<path d="M129.14 69.9389C129.384 70.463 129.3 71.0162 128.958 71.1754C128.616 71.3347 128.141 71.0335 127.901 70.5094C127.66 69.9852 127.742 69.435 128.083 69.2757C128.425 69.1164 128.903 69.4147 129.14 69.9389Z" fill="white" stroke="#001550" stroke-width="0.8" stroke-miterlimit="10"/>
<path d="M128.878 73.9006C128.829 74.4797 128.484 74.9141 128.107 74.8823C127.731 74.8504 127.467 74.3581 127.528 73.7818C127.589 73.2055 127.922 72.7682 128.299 72.8001C128.675 72.832 128.927 73.3387 128.878 73.9006Z" fill="white" stroke="#001550" stroke-width="0.8" stroke-miterlimit="10"/>
<path d="M127.742 77.8854C127.586 78.4414 127.163 78.8063 126.801 78.7049C126.439 78.6036 126.271 78.0678 126.43 77.5118C126.59 76.9558 127.01 76.5909 127.372 76.6951C127.734 76.7994 127.887 77.3294 127.742 77.8854Z" fill="white" stroke="#001550" stroke-width="0.8" stroke-miterlimit="10"/>
<path d="M126.606 81.5015C126.764 80.9461 126.598 80.4122 126.235 80.309C125.872 80.2059 125.449 80.5725 125.292 81.1279C125.134 81.6833 125.3 82.2172 125.663 82.3203C126.026 82.4235 126.449 82.0569 126.606 81.5015Z" fill="white" stroke="#001550" stroke-width="0.8" stroke-miterlimit="10"/>
<path d="M74.4968 57.9408C74.4968 57.9408 67.9664 61.08 64.61 63.6082C64.203 63.9185 63.7743 64.1991 63.3271 64.448C60.7497 65.8728 59.0816 65.0272 56.0292 64.1034C53.6343 63.3736 51.4247 62.2036 49.1513 61.2625C47.0257 60.3937 44.8422 59.7073 42.398 59.7855C40.2729 59.8621 38.1975 60.4495 36.3475 61.498C34.4975 62.5465 32.9273 64.0252 31.7698 65.8091C29.398 69.4725 29.4907 73.773 33.6001 76.0753C37.4459 78.227 36.3338 83.3702 36.8262 86.9757C37.2866 90.3523 40.9703 91.5802 43.5795 91.7337C46.1888 91.8872 46.3423 93.729 42.5051 94.4965C39.5368 95.093 36.2296 92.9153 34.7005 90.5C32.8297 87.5433 34.9901 83.9378 32.9311 81.233C31.7148 79.6344 29.6731 78.754 28.0746 77.6101C27.869 77.4624 27.6691 77.3061 27.478 77.141C20.6377 71.2043 27.2174 60.1852 33.3742 56.765C40.8631 52.6122 50.6225 53.2378 58.4705 55.9629C60.5453 56.6853 62.7424 56.9907 64.9356 56.8614C67.1288 56.7322 69.2748 56.171 71.2504 55.2099C74.0537 53.6953 74.4968 57.9408 74.4968 57.9408Z" fill="#10B981" stroke="#001550" stroke-width="0.8" stroke-miterlimit="10"/>
<path d="M67.2142 58.3434L63.3105 64.4481C60.7331 65.8729 59.065 65.0272 56.0127 64.1034C53.6177 63.3737 51.4081 62.2037 49.1348 61.2625C51.1243 61.5521 53.9334 61.8562 56.0387 61.694C59.6703 61.4044 64.9786 59.3193 64.9786 59.3193L67.2142 58.3434Z" fill="#001550" stroke="#001550" stroke-width="0.8" stroke-miterlimit="10"/>
<path d="M80.267 49.8381C80.2656 49.8573 80.2656 49.8767 80.267 49.896C79.9311 52.7051 79.0797 55.769 76.6615 57.2256C75.1412 58.1408 73.2733 58.2045 71.5444 57.7151C70.8055 57.5052 70.0968 57.2005 69.4361 56.8086C67.2555 55.5141 65.6222 53.4928 64.0468 51.509C62.0196 48.9548 59.7405 46.0965 56.2277 45.8851C49.9898 45.5144 48.2059 50.6402 46.2395 55.4649C45.5532 57.1475 44.8437 58.7924 43.9227 60.1535C40.2536 65.5342 27.2565 76.6865 21.3545 68.0044C19.2955 64.9752 19.562 60.9209 22.3044 58.4072C24.3084 56.5712 23.8074 58.2421 22.3044 60.4141C20.8014 62.5861 21.8034 68.433 26.9843 67.9436C32.1652 67.4542 38.0121 61.9287 39.5151 57.9207C41.6958 52.1056 42.0664 45.8127 47.7396 42.0798C53.7777 38.1094 60.5629 39.9368 66.1232 43.5683C70.4932 46.4324 75.0195 49.8815 80.267 49.8381Z" fill="#10B981" stroke="#001550" stroke-width="0.8" stroke-miterlimit="10"/>
<path d="M71.5412 57.715C70.8023 57.5052 70.0936 57.2005 69.4329 56.8086C67.2523 55.5141 65.619 53.4927 64.0436 51.509C62.0164 48.9547 59.7373 46.0964 56.2245 45.885C49.9866 45.5144 48.2027 50.6402 46.2363 55.4649C46.6128 53.8055 47.832 49.1546 50.1459 46.4555C52.9955 43.131 57.2728 42.8935 60.7161 45.0307C64.1594 47.1679 70.5768 54.7698 72.0103 55.601C72.5577 55.9311 72.1928 56.7941 71.5412 57.715Z" fill="white" stroke="#001550" stroke-width="0.8" stroke-miterlimit="10"/>
<path d="M67.0198 52.1171C67.4774 52.5515 67.5527 53.2175 67.1849 53.6027C66.8171 53.9879 66.1511 53.9502 65.6935 53.5158C65.2359 53.0814 65.1606 52.4154 65.5284 52.0302C65.8962 51.645 66.5623 51.6827 67.0198 52.1171Z" fill="white" stroke="#001550" stroke-width="0.8" stroke-miterlimit="10"/>
<path d="M64.1976 48.4044C64.6551 48.8388 64.7304 49.502 64.3627 49.89C63.9949 50.2781 63.3288 50.2375 62.8712 49.8032C62.4137 49.3688 62.3384 48.7027 62.7062 48.3146C63.074 47.9266 63.7429 47.97 64.1976 48.4044Z" fill="white" stroke="#001550" stroke-width="0.8" stroke-miterlimit="10"/>
<path d="M61.1377 45.6184C61.5953 46.0528 61.6677 46.7189 61.3028 47.104C60.9379 47.4892 60.2661 47.4515 59.8085 47.0172C59.3509 46.5828 59.2785 45.9167 59.6434 45.5315C60.0083 45.1464 60.6715 45.184 61.1377 45.6184Z" fill="white" stroke="#001550" stroke-width="0.8" stroke-miterlimit="10"/>
<path d="M56.8986 44.1388C57.5299 44.1388 58.0367 44.579 58.0338 45.1118C58.0309 45.6447 57.5155 46.0704 56.8755 46.0675C56.2355 46.0646 55.7374 45.6273 55.7402 45.0974C55.7431 44.5674 56.2673 44.1359 56.8986 44.1388Z" fill="white" stroke="#001550" stroke-width="0.8" stroke-miterlimit="10"/>
<path d="M52.4052 44.6687C52.571 44.6149 52.7487 44.6096 52.9174 44.6534C53.0861 44.6971 53.2389 44.7882 53.3576 44.9158C53.4763 45.0435 53.5561 45.2023 53.5876 45.3738C53.6191 45.5452 53.601 45.7221 53.5354 45.8836C53.4698 46.0451 53.3594 46.1845 53.2173 46.2854C53.0751 46.3863 52.9071 46.4445 52.7331 46.4531C52.559 46.4618 52.386 46.4206 52.2346 46.3343C52.0831 46.248 51.9594 46.1203 51.8781 45.9661C51.7792 45.7238 51.7789 45.4525 51.8774 45.21C51.9759 44.9676 52.1653 44.7733 52.4052 44.6687Z" fill="white" stroke="#001550" stroke-width="0.8" stroke-miterlimit="10"/>
<path d="M49.4873 47.8862C49.5926 47.8068 49.7184 47.7593 49.8499 47.749C49.9814 47.7388 50.113 47.7663 50.2294 47.8284C50.3457 47.8905 50.4419 47.9845 50.5066 48.0994C50.5714 48.2143 50.6019 48.3453 50.5947 48.4769C50.5875 48.6086 50.5428 48.7355 50.4659 48.8426C50.389 48.9498 50.2831 49.0327 50.1607 49.0817C50.0383 49.1307 49.9044 49.1437 49.7748 49.1191C49.6452 49.0946 49.5254 49.0336 49.4293 48.9432C49.2987 48.7945 49.2315 48.6005 49.2423 48.4028C49.2532 48.2052 49.3411 48.0197 49.4873 47.8862Z" fill="white" stroke="#001550" stroke-width="0.8" stroke-miterlimit="10"/>
<path d="M120.078 72.8667C120.639 69.7477 117.364 64.9665 112.925 64.4974C108.485 64.0282 99.2151 66.3884 99.2151 66.3884C99.2151 66.3884 109.325 65.7571 111.885 68.6502C113.741 70.7439 114.567 72.6089 114.39 73.5733H114.32C108.94 73.6544 104.839 70.2574 99.0993 71.077C93.3595 71.8965 90.7155 75.1313 91.118 77.952C91.118 77.952 94.764 74.0048 98.7488 75.056C102.734 76.1073 105.447 76.9934 109.945 78.5515C114.442 80.1095 118.598 79.8517 120.564 78.4501C122.53 77.0484 122.646 75.1748 122.646 73.4169C122.646 72.441 121.76 72.5539 120.078 72.8667Z" fill="#001550" stroke="#001550" stroke-width="0.8" stroke-miterlimit="10"/>
<path d="M71.7986 60.3995C67.4546 61.219 60.652 67.4019 60.0149 69.7592C59.3778 72.1165 57.8574 75.0414 57.8574 75.0414C57.8574 75.0414 63.186 69.7563 69.4586 66.843C75.7313 63.9296 79.5221 66.1856 79.5221 66.1856C79.5221 66.1856 76.1338 59.577 71.7986 60.3995Z" fill="#001550" stroke="#001550" stroke-width="0.8" stroke-miterlimit="10"/>
<path d="M127.708 47.5646C126.601 49.725 124.69 51.0919 122.466 51.7985C121.47 52.1169 120.439 52.3114 119.396 52.3777C117.766 52.4877 114.858 51.3959 113.459 50.5098C112.359 49.8118 108.977 47.5153 107.586 47.3706C105.49 47.1505 103.393 49.8032 103.329 51.5205C103.205 54.9174 113.013 57.0546 115.304 57.9813C120.948 60.2634 124.887 64.5465 123.934 71.1087C123.393 74.8474 121.284 76.7066 118.51 77.4393C113.674 78.7193 106.816 76.5705 102.739 74.9777C101.044 74.3145 99.3011 73.5645 97.4853 73.6832C95.7523 73.8456 94.1505 74.6766 93.0198 76C92.0178 77.1323 91.3372 78.6064 91.427 80.1209C91.4414 80.3442 91.4733 80.5659 91.5226 80.7841C91.7433 81.6999 92.2335 82.5285 92.9299 83.163C93.6263 83.7974 94.4969 84.2085 95.4292 84.3432C97.6301 84.6039 99.915 83.0198 100.387 80.8333C100.421 80.6484 100.525 80.4835 100.677 80.3729C100.735 80.3252 100.804 80.2909 100.877 80.2724C100.95 80.2538 101.026 80.2515 101.101 80.2656C101.175 80.2796 101.245 80.3098 101.306 80.3538C101.368 80.3979 101.419 80.4548 101.456 80.5206C101.718 80.8292 101.914 81.1885 102.031 81.5762C102.148 81.9638 102.184 82.3715 102.136 82.7736C101.87 84.8993 100.161 86.1851 98.3339 86.799C96.8677 87.2792 95.3026 87.3734 93.7895 87.0726C92.2763 86.7718 90.8662 86.0861 89.6952 85.0817C85.8523 81.6703 86.2201 75.386 89.9559 72.0499C92.9068 69.4117 97.161 68.6616 101.097 69.0873C105.032 69.5131 108.768 70.9697 112.501 72.2729C113.133 72.5424 113.815 72.6766 114.502 72.6667C115.185 72.6059 115.886 72.1831 116.048 71.5084C116.12 71.0688 116.048 70.6178 115.843 70.2226C114.951 68.1954 112.898 66.8951 110.76 66.3565C108.623 65.8178 106.382 65.9394 104.184 66.0871C99.776 66.3767 95.3192 66.7735 91.1519 68.2243C84.2016 70.6367 74.141 80.677 82.2207 87.7084C84.1755 89.4054 90.6451 90.9924 93.2254 91.2935C99.3735 92.0146 118.174 88.5279 124.172 89.9151C124.264 89.9364 124.346 89.9873 124.406 90.0599C124.467 90.1326 124.501 90.2231 124.505 90.3174C124.509 90.4118 124.482 90.5048 124.428 90.5822C124.374 90.6597 124.296 90.7173 124.206 90.7462C118.704 92.4461 98.2006 95.8373 92.4029 95.6693C88.2472 95.5593 81.714 94.0389 78.2822 91.6932C75.3689 89.7037 73.9383 85.5335 73.556 82.0265C73.1738 78.5195 74.196 74.9227 76.1392 71.9775C76.8864 70.8423 78.0679 69.9735 78.5284 68.6587C79.2437 66.6113 77.4453 64.7492 75.7454 63.9094C73.0261 62.5656 69.2584 62.9566 67.0575 65.1112C66.6115 65.5427 66.1714 65.98 65.7312 66.4173C60.5184 71.63 56.0239 78.0619 49.9772 82.3219C48.6061 83.3099 47.0164 83.9518 45.3436 84.1927C34.1768 85.6841 28.3704 67.9753 38.8654 63.5068C41.3443 62.4527 44.3677 62.696 46.5599 64.2772C48.7522 65.8583 49.9192 68.7775 49.2792 71.3954C47.811 69.2466 46.1661 66.9501 43.4149 66.5679C42.1481 66.4115 40.8656 66.6857 39.7735 67.3465C38.6815 68.0073 37.8434 69.0162 37.3942 70.211C35.4366 75.2615 41.2285 80.2657 46.0821 79.0089C50.3855 77.891 52.7428 72.9129 55.1117 69.5883L55.2594 69.3827C57.7644 65.8699 60.3186 62.3253 63.1972 59.105C65.9136 56.0671 69.6204 54.4251 73.1883 52.6354C76.8922 50.7791 80.5816 48.7259 83.466 45.6996C86.2896 42.737 85.9913 43.0932 86.889 41.5902C88.4702 38.9375 88.4094 32.468 91.1055 28.738C93.8017 25.008 97.6852 21.4401 102.246 20.3107C107.54 19.0046 113.118 19.8763 118.073 22.0078C130.563 27.3798 130.661 41.7929 127.708 47.5646Z" fill="#10B981" stroke="#001550" stroke-width="0.8" stroke-miterlimit="10"/>
<path d="M117.858 25.1325C117.768 25.7262 116.905 26.0824 115.932 25.9347C114.959 25.787 114.244 25.1817 114.334 24.5881C114.424 23.9944 115.289 23.6382 116.262 23.7888C117.236 23.9394 117.951 24.5417 117.858 25.1325Z" fill="#001550"/>
<path d="M116.402 30.4438C116.402 30.7855 115.916 31.0635 115.316 31.0635C114.717 31.0635 114.23 30.7739 114.23 30.4438C114.23 30.1137 114.717 29.8212 115.316 29.8212C115.916 29.8212 116.402 30.0992 116.402 30.4438Z" fill="#001550"/>
<path d="M104.906 24.8806C105.094 25.1702 104.845 25.6654 104.347 25.9985C103.849 26.3315 103.29 26.3692 103.099 26.0825C102.908 25.7958 103.16 25.2977 103.658 24.9646C104.156 24.6316 104.715 24.5939 104.906 24.8806Z" fill="#001550"/>
<path d="M119.578 40.2088C120.819 40.2088 121.826 39.3064 121.826 38.1932C121.826 37.08 120.819 36.1776 119.578 36.1776C118.337 36.1776 117.331 37.08 117.331 38.1932C117.331 39.3064 118.337 40.2088 119.578 40.2088Z" fill="#001550"/>
<path d="M111.602 21.6053C111.602 21.9471 111.185 22.2251 110.673 22.2251C110.16 22.2251 109.743 21.9355 109.743 21.6053C109.743 21.2752 110.157 20.9856 110.673 20.9856C111.188 20.9856 111.602 21.2636 111.602 21.6053Z" fill="#001550"/>
<path d="M118.508 77.4336C113.672 78.7136 106.814 76.5648 102.737 74.972C101.043 74.3089 99.2993 73.5588 97.4835 73.6775C95.7504 73.84 94.1487 74.6709 93.0179 75.9943C92.0159 77.1266 91.3354 78.6007 91.4251 80.1152C91.4395 80.3385 91.4715 80.5602 91.5207 80.7784C91.1709 79.8778 91.0331 78.9086 91.1182 77.9462C91.3556 75.3398 93.2554 72.6002 98.6477 72.4902C104.04 72.3801 109.4 76.5214 115.244 77.4133C116.324 77.592 117.426 77.5989 118.508 77.4336Z" fill="white" stroke="#001550" stroke-width="0.8" stroke-miterlimit="10"/>
<path d="M108.262 76.281C108.215 76.6777 107.752 76.9499 107.222 76.892C106.692 76.8341 106.301 76.4605 106.353 76.0638C106.405 75.667 106.863 75.3948 107.393 75.4527C107.923 75.5106 108.305 75.8842 108.262 76.281Z" fill="white" stroke="#001550" stroke-width="0.8" stroke-miterlimit="10"/>
<path d="M104.969 74.9141C104.925 75.3109 104.459 75.586 103.929 75.5252C103.399 75.4644 103.008 75.0937 103.06 74.6969C103.112 74.3002 103.573 74.028 104.1 74.0859C104.627 74.1438 105.015 74.5174 104.969 74.9141Z" fill="white" stroke="#001550" stroke-width="0.8" stroke-miterlimit="10"/>
<path d="M101.352 73.7905C101.308 74.1873 100.842 74.4595 100.312 74.3987C99.782 74.3379 99.391 73.9701 99.4431 73.5733C99.4953 73.1766 99.9528 72.9015 100.483 72.9623C101.013 73.0231 101.392 73.3938 101.352 73.7905Z" fill="white" stroke="#001550" stroke-width="0.8" stroke-miterlimit="10"/>
<path d="M97.7344 73.6658C97.7749 74.0626 97.3753 74.4274 96.8453 74.4796C96.3154 74.5317 95.8549 74.2537 95.8144 73.8569C95.7738 73.4602 96.1735 73.0924 96.7034 73.0403C97.2334 72.9882 97.6967 73.2691 97.7344 73.6658Z" fill="white" stroke="#001550" stroke-width="0.8" stroke-miterlimit="10"/>
<path d="M94.7302 74.3668C94.9763 74.6825 94.8402 75.2038 94.4232 75.5252C94.0062 75.8467 93.4646 75.8698 93.2156 75.5571C92.9665 75.2443 93.1055 74.723 93.5226 74.3987C93.9396 74.0743 94.4724 74.0541 94.7302 74.3668Z" fill="white" stroke="#001550" stroke-width="0.8" stroke-miterlimit="10"/>
<path d="M122.458 51.8014C121.462 52.1198 120.431 52.3143 119.388 52.3806C117.757 52.4906 114.85 51.3989 113.451 50.5127C112.351 49.8148 108.968 47.5183 107.578 47.3735C105.481 47.1534 103.385 49.8061 103.321 51.5234C103.321 51.5234 102.887 50.504 103.428 48.723C104.28 45.9226 108.43 45.4129 109.495 43.3771C110.561 41.3412 109.602 38.9636 109.602 38.9636C109.602 38.9636 111.893 41.5294 110.966 44.3154C110.04 47.1013 112.16 49.0879 114.812 50.4142C117.465 51.7406 118.525 51.8622 120.781 51.8622C121.351 51.8651 121.925 51.8391 122.458 51.8014Z" fill="#001550" stroke="#001550" stroke-width="0.8" stroke-miterlimit="10"/>
<path d="M89.3096 33.1342L86.822 34.4229L85.374 39.2736L86.1357 42.7806C86.1357 42.7806 87.9398 42.4765 89.4284 38.6799" fill="#10B981"/>
<path d="M89.3096 33.1342L86.822 34.4229L85.374 39.2736L86.1357 42.7806C86.1357 42.7806 87.9398 42.4765 89.4284 38.6799" stroke="#001550" stroke-width="0.8" stroke-miterlimit="10"/>
<path d="M105.742 45.2431C107.596 44.6053 108.57 42.5484 107.916 40.6488C107.263 38.7491 105.23 37.7262 103.376 38.3639C101.522 39.0017 100.548 41.0586 101.202 42.9582C101.855 44.8579 103.888 45.8808 105.742 45.2431Z" fill="white" stroke="#001550" stroke-width="0.8" stroke-miterlimit="10"/>
<path d="M107.921 40.6519C107.78 40.2463 107.571 39.8681 107.301 39.5341C107.096 39.4182 106.861 39.5022 106.595 39.6383C106.172 39.8555 106.264 40.7504 104.906 41.3614C103.548 41.9725 102.673 42.1289 102.114 41.5381C101.686 41.0834 101.246 41.8885 101.043 42.2939C101.137 42.9344 101.398 43.5389 101.799 44.0471C102.2 44.5553 102.727 44.9494 103.328 45.1899C103.363 45.0864 103.388 44.9797 103.403 44.8713C103.481 44.2748 103.403 43.8693 104.411 43.2409C105.259 42.7081 107.197 42.9339 108.014 42.7486C108.188 42.0556 108.156 41.3268 107.921 40.6519Z" fill="#001550" stroke="#001550" stroke-width="0.8" stroke-miterlimit="10"/>
<path d="M83.8525 61.5579C85.5003 59.0789 88.4079 54.6249 89.6445 52.2358C90.3134 50.95 90.9824 49.5686 91.5558 48.3407" stroke="#001550" stroke-width="0.8" stroke-miterlimit="10"/>
<path d="M78.2715 53.1972C80.1505 52.0638 81.9484 50.801 83.6522 49.418" stroke="#001550" stroke-width="0.8" stroke-miterlimit="10"/>
<path d="M98.1396 53.3566C98.3923 54.769 98.9792 56.1005 99.8512 57.24C101.105 58.8792 103.06 60.0578 104.774 60.8426" stroke="#001550" stroke-width="0.8" stroke-miterlimit="10"/>
</svg>
