<svg width="170" height="120" fill="none" xmlns="http://www.w3.org/2000/svg"><path opacity=".7" d="M140.274 42.747c-4.651-16.365-17.072-29.369-33.062-35.171a97.067 97.067 0 0 0-18.375-4.647C63.097-1.03 50.083 15.903 48.746 25.423c-1.338 9.52-12.387 9.684-17.83 24.04-5.444 14.356-11.704 47.358 30.196 62.374 41.9 15.016 59.871 2.909 64.685-7.097 4.813-10.005 6.93-17.82 14.52-39.932 2.557-7.463 1.92-15.15-.043-22.06Z" fill="#E3EDFF"/><path d="M58.727 58.114c-5.455 2.684-9.99 6.961-13.47 11.909-3.172 4.51-6.416 10.344-7.266 15.866-.416 2.702-.655 5.566-.434 7.237.22 1.671 9.626 6.74 26.504 9.203 16.879 2.463 36.677 1.822 43.988-.6s21.605-7.09 23.666-10.852c2.062-3.762-1.399-17.088-7.325-23.612-10.937-12.048-21.51-15.759-35.804-16.296-14.294-.538-29.859 7.145-29.859 7.145Z" fill="#001550" stroke="#001550" stroke-miterlimit="10"/><path d="M61.556 64.715c.906 0 1.079.312 1.152.449.836 1.52-.795 4.546-2.15 5.308-.311.137-.65.2-.99.184-1.03 0-2.11-.401-2.62-.976a1.08 1.08 0 0 1-.292-.905c.247-2.143 2.375-3.416 2.717-3.611a6.905 6.905 0 0 1 2.183-.45Zm0-1.841a8.67 8.67 0 0 0-2.945.618s-3.372 1.686-3.762 5.062c-.295 2.558 2.47 3.924 4.73 3.924a3.9 3.9 0 0 0 1.889-.423c2.076-1.167 4.281-5.19 2.856-7.786-.596-1.079-1.686-1.395-2.757-1.395h-.011ZM63.311 78.31c2.095 0 4.65 1.346 5.478 3.923.935 2.897-.736 5.89-2.9 6.851a4.326 4.326 0 0 1-1.79.368c-3.342 0-6.586-3.173-6.66-5.636-.058-1.866 1.72-3.681 2.408-4.211a5.694 5.694 0 0 1 3.335-1.3h.13v.004Zm0-1.845h-.176a7.524 7.524 0 0 0-4.418 1.686c-.202.158-3.21 2.577-3.114 5.71.11 3.64 4.362 7.41 8.489 7.41a6.181 6.181 0 0 0 2.54-.53c3.022-1.362 5.102-5.342 3.895-9.086-1.068-3.313-4.3-5.194-7.223-5.194l.007.004ZM70.12 66.787c-.03.177-.063.368-.096.574-.438 2.702-.457 3.093-.401 3.608a6.54 6.54 0 0 0 .68 2.282c-.175 0-.35-.025-.518-.073-1.046-.332-1.841-2.154-1.594-3.682a3.792 3.792 0 0 1 1.16-2.09c.235-.23.493-.438.769-.619Zm1.358-2.44c-.92 0-2.411.772-3.409 1.752a5.544 5.544 0 0 0-1.686 3.114c-.368 2.246.766 5.054 2.853 5.71.358.108.73.162 1.105.162.953 0 1.877-.34 2.142-.943.368-.825-.828-1.443-1.038-3.372-.026-.254-.033-.504.39-3.114.412-2.544.516-2.879.261-3.115a.868.868 0 0 0-.614-.195h-.004ZM70.374 58.066c.692 0 1.303.464 1.348.655 0 .306-.913 1.256-2.187 1.804a4.626 4.626 0 0 1-1.4.416c.064-.453.197-.894.395-1.307.129-.261.817-1.568 1.84-1.568h.004Zm-.004-1.84c-2.208 0-3.331 2.3-3.471 2.595-.096.188-1.178 2.47-.133 3.504.346.307.798.465 1.26.438a6.14 6.14 0 0 0 2.245-.57c1.288-.552 3.652-2.124 3.243-3.891-.283-1.233-1.792-2.066-3.114-2.077h-.03ZM50.952 70.498c-.192.857-.493 2.271.504 3.5.998 1.23 2.507 1.267 3.497 1.282.188 0 .431 0 .626.025l-.026.078c-.073.224-.445.56-1.789.872-.435.108-.88.164-1.329.17a2.85 2.85 0 0 1-1.97-.66c-.776-.699-.89-1.726-.956-2.34-.103-.921-.159-1.864.368-2.394.3-.273.669-.458 1.067-.533h.008Zm.338-1.867a4.024 4.024 0 0 0-2.702 1.105c-1.203 1.196-1.012 2.945-.909 3.89.085.737.258 2.342 1.557 3.505a4.671 4.671 0 0 0 3.192 1.127 7.553 7.553 0 0 0 1.741-.218c.766-.176 2.625-.607 3.114-2.076.048-.143.369-1.104-.128-1.818-.902-1.3-3.313-.11-4.285-1.296-.891-1.104.6-2.842-.258-3.762a1.778 1.778 0 0 0-1.322-.453v-.004ZM44.24 79.2l.091.22a4.465 4.465 0 0 0 1.925 2.405c.549.32 1.166.501 1.8.53.21-.004.416.05.597.154.282.117.534.296.736.523a4.09 4.09 0 0 1-.791.987 3.398 3.398 0 0 1-1.951 1.03 3.08 3.08 0 0 1-.534.045 2.993 2.993 0 0 1-1.605-.438 3.42 3.42 0 0 1-1.414-2.08c-.397-1.33-.368-2.268.114-2.787a2.05 2.05 0 0 1 1.035-.589h-.004Zm.106-1.84c-.953.06-1.846.49-2.489 1.196-1.41 1.542-.736 3.858-.519 4.543a5.224 5.224 0 0 0 2.21 3.114 4.888 4.888 0 0 0 2.576.71 5.252 5.252 0 0 0 3.792-1.62c.57-.581 1.494-1.516 1.295-2.595-.198-1.078-1.273-1.597-1.686-1.818-1.104-.582-1.472-.159-2.337-.648-1.344-.78-.968-2.209-2.076-2.724a1.8 1.8 0 0 0-.755-.159h-.011ZM53.282 88.396h.051c.214.04.574.339.891.917.077.138.145.282.203.43a6.94 6.94 0 0 0-.969.118 7.365 7.365 0 0 0-1.715.52 5.89 5.89 0 0 0-1.767 1.225 1.803 1.803 0 0 1-.063-.53c.026-.677 1.064-1.362 1.904-1.91.548-.369 1.174-.774 1.472-.774l-.007.004Zm.007-1.844c-.84 0-1.601.5-2.474 1.075-1.156.758-2.665 1.752-2.724 3.372-.055 1.494.95 3.114 1.811 3.114.77 0 .928-1.325 2.596-2.076.414-.182.85-.313 1.295-.39.328-.062.66-.094.994-.096.516 0 .865.08 1.105.08a.486.486 0 0 0 .368-.113c.762-.7-.368-4.52-2.596-4.93a1.952 1.952 0 0 0-.368-.036h-.007ZM58.596 94.234c.412.451.914.811 1.473 1.057a4.131 4.131 0 0 0 1.638.338 6.38 6.38 0 0 0 1.867-.338c.301-.107.616-.173.935-.2.287.016.56.125.78.31-.051.208-.123.41-.213.604a2.389 2.389 0 0 1-1.02 1.193c-.221.121-.468.184-1.208.184-.309 0-.673 0-1.104-.022-1.635-.048-2.183-.078-2.801-.424-.497-.272-.954-.552-1.072-.972-.147-.522.265-1.122.398-1.321.132-.199.224-.31.305-.409h.023Zm.1-2.054c-.96 0-1.675 1.05-1.936 1.428-.262.38-1.031 1.506-.648 2.857.335 1.185 1.373 1.76 1.943 2.076 1.042.57 1.962.6 3.634.648.438 0 .817.022 1.152.022a3.997 3.997 0 0 0 2.095-.412 4.263 4.263 0 0 0 1.814-2.076c.229-.53.523-1.226.262-1.948a2.446 2.446 0 0 0-1.428-1.296 2.806 2.806 0 0 0-1.083-.217c-1.02 0-1.859.538-2.801.538a2.252 2.252 0 0 1-.917-.192c-1.104-.475-1.167-1.42-2.076-1.428h-.011ZM77.307 75.456c.04.21.07.413.092.593.158 1.336-.162 2.787-.773 3.53a1.511 1.511 0 0 1-1.138.586h-.143c-1.057 0-2.054-.924-2.272-2.084h.383a4.269 4.269 0 0 0 3.843-2.643l.008.018Zm-.11-2.9h-.034a1.421 1.421 0 0 0-1.126.938c-.206.472-.287.994-.523 1.454-.06.115-.128.225-.206.328a2.457 2.457 0 0 1-1.889.975h-.04c-.261 0-.53-.036-.791-.036-.191-.006-.381.025-.56.092-.692.276-.898 1.174-.791 1.91.287 2.032 2.01 3.766 4.1 3.766h.28c2.986-.217 3.884-3.681 3.59-6.155-.115-.983-.369-1.999-1.017-2.731a1.406 1.406 0 0 0-.994-.53v-.011Z" fill="#001550" stroke="#001550" stroke-miterlimit="10"/><path d="M79.408 65.502a4.186 4.186 0 0 1 2.576.987c.99.791 1.547 1.97 1.657 3.5.055.788.125 1.764-.294 2.132a1.525 1.525 0 0 1-.972.317 1.075 1.075 0 0 1-.611-.148 1.436 1.436 0 0 1-.203-.427 4.2 4.2 0 0 0-1.767-2.27A5.209 5.209 0 0 0 77 68.94h-.21c-.461.001-.921.048-1.373.14a6.704 6.704 0 0 1 .78-1.546c.369-.552 1.175-1.697 2.603-1.97.203-.039.409-.059.615-.058l-.007-.004Zm.007-1.837c-.321 0-.642.03-.957.089-2.161.412-3.313 2.05-3.762 2.727-1.222 1.76-1.79 4.27-1.038 4.786.089.063.196.096.305.092.538 0 1.351-.611 2.827-.611h.11c.693 0 1.33 0 1.948.39 1.17.707.825 1.84 1.815 2.596a2.89 2.89 0 0 0 1.712.511c.796.01 1.57-.263 2.183-.773 1.104-.968.986-2.507.905-3.633-.044-.64-.22-3.107-2.334-4.786a6.111 6.111 0 0 0-3.714-1.388ZM65.615 56.866a6.103 6.103 0 0 0-1.841.409c-.64.228-2.617.935-2.6 2.208a1.934 1.934 0 0 0 1.562 1.686c.09.018.183.027.276.026.673 0 1.215-.438 1.668-.802 1.133-.913 2.179-2.6 1.69-3.244a.94.94 0 0 0-.774-.28l.019-.003ZM58.31 60.12c-.157 0-.316.008-.475.022-2.209.225-3.924 2.113-4.543 3.895-.03.088-.533 1.568-.129 1.815a.173.173 0 0 0 .107.03c.276 0 .84-.487 2.618-1.974 2.058-1.723 2.337-1.933 2.856-2.209 1.035-.548 1.701-.648 1.686-.905-.018-.32-1.03-.674-2.12-.674ZM41.135 89.57a7.797 7.797 0 0 0 2.846 1.005c-.131.17-.28.326-.446.464-.233.24-.53.409-.857.486-.45 0-1.105-.887-1.543-1.955Zm-1.682-3.401a.403.403 0 0 0-.195.048c-.663.335-.368 2.179-.129 3.114.368 1.399 1.565 3.972 3.505 4.023h.055c.931 0 1.638-.592 2.02-.909 1.046-.872 1.922-2.47 1.425-3.243-.338-.53-1.034-.232-2.333-.519-2.526-.563-3.586-2.514-4.348-2.514ZM81.563 55.589a3.512 3.512 0 0 1 2.393.824c.576.539.923 1.278.968 2.065.03 1.52-1.233 2.894-1.885 2.945a4.628 4.628 0 0 1-.61-.522 7.84 7.84 0 0 0-3.682-2.15 7.607 7.607 0 0 0-1.888-.236h-.104a5.802 5.802 0 0 1 1.985-2.142 5.553 5.553 0 0 1 2.805-.78l.018-.004Zm-.018-1.837a7.363 7.363 0 0 0-3.726 1.056c-2.293 1.407-3.725 4.33-2.985 5.32a.784.784 0 0 0 .71.287c.346 0 .788-.074 1.351-.074.487-.002.972.057 1.443.177 2.713.68 3.078 2.728 4.712 2.728h.089c1.76-.078 3.68-2.404 3.633-4.786a4.914 4.914 0 0 0-1.557-3.376 5.29 5.29 0 0 0-3.633-1.306l-.037-.026ZM77.325 85.723c.135.001.27.018.401.052a2.036 2.036 0 0 1 1.392 1.56c.232 1.197-.821 2.423-1.878 2.68a2.58 2.58 0 0 1-.567.063 1.858 1.858 0 0 1-1.391-.537c-.596-.67-.394-1.915.136-2.68a2.577 2.577 0 0 1 1.907-1.138Zm0-1.84c-1.473 0-2.739.946-3.416 1.929-.917 1.336-1.26 3.504 0 4.932a3.645 3.645 0 0 0 2.764 1.153c.336 0 .671-.038.998-.114 2.028-.494 3.66-2.655 3.247-4.805a3.858 3.858 0 0 0-2.728-2.981 3.212 3.212 0 0 0-.865-.114ZM71.539 92.953a1.03 1.03 0 0 1 .416.078 2.148 2.148 0 0 1-.24.736c-.195.44-.556.787-1.005.964a4.107 4.107 0 0 1-.368.114 2.311 2.311 0 0 1 .18-1.027s.369-.795.888-.861h.129v-.004Zm0-1.837a3.565 3.565 0 0 0-.368.022c-1.54.195-2.235 1.712-2.338 1.948-.46 1.053-.552 2.739.39 3.376.264.17.573.255.887.246a3.793 3.793 0 0 0 1.19-.246 3.684 3.684 0 0 0 2.076-1.948c.217-.486.7-1.564.128-2.466a2.293 2.293 0 0 0-1.976-.932h.01ZM88.62 71.34c.582 0 1.572.582 1.977 1.333.482.898.07 2.12-.125 2.706-.13.416-.347.8-.637 1.126a8.304 8.304 0 0 0-1.263 2.124 8.69 8.69 0 0 0-.695 3.118c0 .137-.019.313-.034.406a2.665 2.665 0 0 1-1.693.46c-1.06 0-2.025-.39-2.352-.954a1.755 1.755 0 0 1-.067-1.52c.174-.368.505-.53 1.274-.873.976-.43 2.312-1.02 2.945-2.646.28-.73.326-1.53.133-2.287a3.114 3.114 0 0 1-.033-1.325c.15-.942.313-1.498.482-1.66a.43.43 0 0 1 .092 0l-.004-.007Zm.004-1.833a2.01 2.01 0 0 0-.954.221c-1.034.549-1.277 2.054-1.428 2.986-.302 1.87.401 2.209 0 3.243-.714 1.84-3.184 1.395-4.152 3.372a3.595 3.595 0 0 0 .129 3.247c.736 1.274 2.378 1.863 3.935 1.863 1.244 0 2.437-.369 3.074-1.086.839-.935.092-1.76 1.038-4.024.736-1.774 1.399-1.741 1.947-3.372.261-.784.854-2.558 0-4.152-.707-1.315-2.29-2.298-3.59-2.298ZM94.758 61.147c1.027 0 1.815.291 2.342.865a2.296 2.296 0 0 1 .692 1.616c-.092 1.274-2.047 2.308-3.406 2.636a6.396 6.396 0 0 1-1.472.177 3.512 3.512 0 0 1-2.54-.88c-.464-.45-1.064-1.362-.935-1.84.129-.48 1.627-1.245 3.066-1.955a6.253 6.253 0 0 1 1.186-.512 4.98 4.98 0 0 1 1.064-.11l.003.003Zm-.003-1.844a6.675 6.675 0 0 0-1.499.162 7.435 7.435 0 0 0-1.557.648c-2.209 1.082-3.681 1.804-4.023 3.114-.479 1.749 1.292 3.505 1.424 3.634a5.364 5.364 0 0 0 3.818 1.41 8.351 8.351 0 0 0 1.9-.225c1.752-.427 4.62-1.84 4.785-4.285.114-1.58-.961-2.757-1.167-2.982a4.884 4.884 0 0 0-3.681-1.472v-.004ZM86.428 88.4c.043.524.12 1.046.228 1.56.061.313.142.622.243.925a6.3 6.3 0 0 1 .159.566 9.405 9.405 0 0 1 .368 3.35c-.25 1.948-.622 2.147-.667 2.161a.127.127 0 0 1-.058 0 2.257 2.257 0 0 1-1.245-.648c-.449-.438-.622-1.943-.887-4.222-.202-1.745-.077-2.017-.018-2.15a2.92 2.92 0 0 1 1.321-1.244c.217-.125.409-.225.57-.306l-.014.008Zm.858-2.136c-.854 0-2 .66-2.33.85a4.67 4.67 0 0 0-2.077 2.077c-.243.541-.368 1.145-.129 3.114.343 2.945.516 4.418 1.429 5.32a3.96 3.96 0 0 0 2.522 1.167c.25.003.5-.04.736-.129 1.42-.552 1.693-2.676 1.818-3.633a11.042 11.042 0 0 0-.39-4.024c-.18-.736-.243-.736-.39-1.428-.416-2-.03-2.71-.52-3.115a1.002 1.002 0 0 0-.654-.198h-.015ZM77.903 95.935c.48.62.896 1.286 1.244 1.988.22.453.685 1.395.604 1.59-.107.254-1.13.53-1.517.633a8.135 8.135 0 0 1-2.054.343c-.615 0-1.035-.133-1.255-.394a1.501 1.501 0 0 1-.254-1.337c.058-.029.162-.073.239-.103a5.466 5.466 0 0 0 2.993-2.72Zm-.53-2.617c-.075 0-.15.01-.221.033-.737.232-.339 1.472-1.557 2.724-1.035 1.071-1.889.754-2.463 1.686-.615.99-.401 2.558.386 3.504.681.814 1.69 1.053 2.662 1.053a9.812 9.812 0 0 0 2.529-.405c.983-.265 2.271-.611 2.728-1.686.408-.964-.085-1.966-.652-3.114-.736-1.472-2.297-3.795-3.412-3.795ZM101.307 95.17a.241.241 0 0 1 .07 0c.368.257.644 1.895-.044 2.944-.262.405-.623.593-1.904 1.134a13.119 13.119 0 0 1-5.09 1.012h-.299a11.053 11.053 0 0 0 2.846-1.671 7.97 7.97 0 0 0 1.49-1.572c.195-.278.43-.526.696-.736.806-.64 1.745-1.105 2.235-1.105v-.007Zm0-1.834c-1.473 0-3.159 1.336-3.372 1.505-1.072.85-.976 1.33-2.209 2.334a10.496 10.496 0 0 1-3.114 1.69c-2.945 1.145-4.882.95-4.93 1.428-.047.479 1.841 1.105 3.244 1.425a15.24 15.24 0 0 0 3.412.368 14.911 14.911 0 0 0 5.802-1.156c1.318-.556 2.131-.913 2.724-1.818 1.167-1.786.872-4.786-.648-5.581a1.993 1.993 0 0 0-.909-.206v.01ZM93.588 83.4a2.946 2.946 0 0 1 2.21 1.039c.275.368.297.994.294 2.808 0 2.47-.03 3.358-.582 3.987-.497.557-1.189.9-1.933.96a.816.816 0 0 1-.39-.08c-.368-.18-.552-.806-.659-1.145-.191-.589-.136-.975.103-2.356.067-.39.144-.828.225-1.344.243-1.579.328-2.635.368-3.335 0-.173.03-.368.044-.504a1.43 1.43 0 0 1 .313-.03h.007Zm-.007-1.84a2.63 2.63 0 0 0-1.642.49c-.707.559-.316 1.104-.909 4.929-.368 2.4-.685 3.224-.258 4.542.18.556.541 1.679 1.557 2.209.382.195.805.293 1.234.287a4.726 4.726 0 0 0 3.313-1.583c1.034-1.178 1.034-2.577 1.038-5.19 0-2.003 0-3.004-.652-3.895a4.786 4.786 0 0 0-3.68-1.785v-.004ZM99.542 71.573c.923.031 1.839.182 2.724.449 1.13.298 2.838.736 3.144 1.663.279.836-.324 2.014-.829 2.552a7.749 7.749 0 0 0-1.211-.832c-.824-.464-1.955-1.105-3.214-1.105a3.51 3.51 0 0 0-1.13.184c-1.354.464-1.866 1.569-2.168 2.228a4.167 4.167 0 0 1-.214.426h-.047a1.296 1.296 0 0 1-.821-.35 1.808 1.808 0 0 1-.25-1.27 4.786 4.786 0 0 1 1.612-3.202 3.681 3.681 0 0 1 2.407-.736l-.003-.007Zm.003-1.834a5.522 5.522 0 0 0-3.556 1.156c-2.209 1.786-3.037 5.522-1.557 7.138.57.585 1.348.923 2.165.939.282.003.561-.052.82-.162 1.245-.541.987-2.18 2.21-2.577.173-.058.354-.086.537-.085.78 0 1.62.475 2.315.865 1.292.737 1.362 1.278 1.948 1.296h.036c1.385 0 3.446-2.945 2.688-5.194-.619-1.84-2.861-2.444-4.418-2.853a12.418 12.418 0 0 0-3.191-.508l.003-.015ZM94.755 54.374c1.27 0 2.404.394 4.123.994 1.815.633 2.459 1.167 2.555 1.321.241.344.361.759.342 1.178a.9.9 0 0 1-.571.151c-.11 0-.22-.013-.327-.04-.206-.06-.309-.166-.689-.71-.463-.674-1.163-1.687-2.62-2.033a3.33 3.33 0 0 0-.796-.1 4.05 4.05 0 0 0-1.656.413 9.474 9.474 0 0 1-1.84.585c-.623.158-1.257.264-1.897.317a.567.567 0 0 1-.147 0 1.135 1.135 0 0 1-.147-.975c.188-.483 1.167-.836 2.919-1.046a6.94 6.94 0 0 1 .77-.044l-.019-.011Zm.018-1.83a8.302 8.302 0 0 0-.983.063c-1.174.14-3.74.445-4.417 2.209-.398 1.038-.092 2.47.78 3.114.355.256.785.386 1.223.368.77-.048 1.532-.172 2.278-.368 2.007-.427 2.452-.953 3.133-.953.124.001.247.016.368.044 1.572.368 1.506 2.242 3.243 2.727.267.072.542.108.818.107a2.523 2.523 0 0 0 2.039-.887c.736-1.001.221-2.477-.261-3.243-.177-.287-.755-1.105-3.501-2.076-1.797-.626-3.148-1.105-4.727-1.105h.007ZM108.061 62.988a9.633 9.633 0 0 1 4.226.986c1.27.63 1.841.935 2.179 1.557.299.564.49 1.59-.301 3.314a6.886 6.886 0 0 1-1.583 2.19 8.761 8.761 0 0 1-.369-.814c-.57-1.3-1.432-3.258-3.626-4.123a3.42 3.42 0 0 0-1.189-.254 16.965 16.965 0 0 1-1.906-.239c-.847-.14-1.841-.31-2.46-.464.197-.36.445-.69.737-.979 1.038-1.034 2.595-1.104 3.968-1.152h.342l-.018-.022Zm.018-1.819h-.416c-1.527.063-3.644.144-5.19 1.69-.755.736-1.778 2.26-1.296 3.243.328.67 1.565.887 4.024 1.296 2.323.39 2.172.173 2.724.39 2.764 1.105 2.485 4.892 4.281 5.19.072.012.145.018.217.02 1.418 0 2.861-2.21 3.417-3.391.276-.59 1.347-2.894.261-4.933-.622-1.167-1.646-1.675-2.986-2.334a11.478 11.478 0 0 0-5.036-1.178v.007ZM107.096 57.779a.79.79 0 0 1 .162.018.737.737 0 0 1-.394.1l-.052-.04a.962.962 0 0 1 .199-.063h.085v-.015Zm0-1.826c-.123 0-.246.01-.368.026-.1 0-1.55.254-1.819 1.428-.202.884.398 1.712 1.038 2.076.295.166.627.253.965.25a2.632 2.632 0 0 0 2.021-1.026 1.755 1.755 0 0 0 .39-1.3c-.166-.861-1.233-1.454-2.242-1.454h.015ZM122.667 70.332a.93.93 0 0 1 .574.18c.302.24.262.832.251.98l-.523-.435c-.155-.132-.486-.409-.736-.622a.783.783 0 0 1 .419-.103h.015Zm-.015-1.84a2.417 2.417 0 0 0-1.763.72 2.1 2.1 0 0 0-.519 1.687c.081.368.283.596 1.428 1.557 1.495 1.259 1.8 1.432 2.007 1.432h.069c.81-.11 1.307-1.307 1.429-2.076.029-.203.254-1.793-.909-2.724a2.766 2.766 0 0 0-1.72-.582l-.022-.015ZM117.795 74.256h.073c.309.101.57.31.737.59.218.287.322.644.294 1.004-.174.332-.419.621-.718.847a4.288 4.288 0 0 1-1.583.913c-.335.135-.678.25-1.027.346a1.806 1.806 0 0 1-.405-1.182c.022-.82.887-1.472 1.355-1.84.409-.313.92-.7 1.255-.7l.019.022Zm-.019-1.863c-.949 0-1.737.597-2.363 1.068-.626.471-2.036 1.542-2.076 3.243-.026 1.175.589 2.625 1.689 2.986.157.053.321.079.486.077a5.376 5.376 0 0 0 1.719-.468 6.035 6.035 0 0 0 2.209-1.295c.541-.512 1.079-1.016 1.248-1.782.343-1.52-.898-3.534-2.544-3.8a2.502 2.502 0 0 0-.368-.029Z" fill="#001550" stroke="#001550" stroke-miterlimit="10"/><path d="M109.951 77.757c.039.057.074.116.107.177.218.522.227 1.109.026 1.638-.258.736-.821 1.502-1.775 2.393a8.847 8.847 0 0 1-3.372 2.131 4.78 4.78 0 0 1-1.351.203 3.315 3.315 0 0 1-1.811-.483 2.16 2.16 0 0 1-1.001-2.065h.026c.368 0 .773.04 1.203.081.53.048 1.079.096 1.657.096a6.128 6.128 0 0 0 2.86-.619c1.289-.662 2.161-1.84 2.86-2.801.203-.272.394-.534.571-.736v-.015Zm-.118-1.97a1.214 1.214 0 0 0-.614.163 2.326 2.326 0 0 0-.578.533c-.854.994-1.694 2.559-2.945 3.21-.631.3-1.324.443-2.021.416-.976 0-1.981-.176-2.901-.176-.346-.01-.69.059-1.005.202a1.69 1.69 0 0 0-.737 1.046c-.441 1.56.387 3.313 1.749 4.189.841.522 1.815.79 2.805.773.638-.001 1.271-.095 1.881-.28 1.54-.528 2.938-1.4 4.09-2.551a8.1 8.1 0 0 0 2.257-3.129 4.052 4.052 0 0 0-.118-3.055 2.922 2.922 0 0 0-.416-.626 2.041 2.041 0 0 0-1.447-.736v.022ZM115.55 83.518c.077-.004.155-.004.232 0-.052.214-.118.46-.17.656-.368 1.417-.589 2.13-1.262 2.863-1.351 1.473-3.243 1.473-3.865 1.473h-.048a1.274 1.274 0 0 1-.593-.092 1.435 1.435 0 0 1-.368-.261c.69-.39 1.344-.84 1.955-1.344a10.035 10.035 0 0 0 2.017-2.264c.331-.486.405-.585.736-.736.434-.203.906-.31 1.384-.313l-.018.018Zm.018-1.859a5.153 5.153 0 0 0-2.208.5c-1.473.737-1.193 1.635-3.115 3.244-1.675 1.403-2.735 1.421-2.853 2.338-.118.916.781 1.914 1.686 2.334.428.19.894.28 1.362.26h.067c.736 0 3.313-.032 5.19-2.075 1.009-1.105 1.307-2.21 1.686-3.634.298-1.104.449-1.715.133-2.209-.317-.493-1.105-.761-1.962-.761l.014.003ZM123.154 81.136c.078-.005.157-.005.235 0 .784.096 1.598.637 1.646 1.105.048.467-.803 1.17-1.594 1.494-.454.176-.935.27-1.421.276-.221 0-.755-.025-.931-.28-.247-.349-.03-1.236.445-1.84a2.098 2.098 0 0 1 1.62-.773v.018Zm0-1.859a3.932 3.932 0 0 0-3.045 1.454c-.821 1.02-1.38 2.794-.519 4.024.552.791 1.491 1.06 2.43 1.06a5.807 5.807 0 0 0 2.109-.412c1.02-.416 2.905-1.62 2.728-3.372-.158-1.568-1.863-2.577-3.247-2.728a3.757 3.757 0 0 0-.456-.026Z" fill="#001550" stroke="#001550" stroke-miterlimit="10"/><path d="M126.235 75.01c-.835 0-1.748.582-1.84 1.208-.092.626.736.932 2.076 2.728.703.931 1.053 1.395 1.167 1.944.298 1.42-.689 2.094-.258 3.247.25.677.917 1.31 1.436 1.31.04.006.081.006.121 0 .899-.188 1.443-2.44 1.167-4.281-.107-.714-.589-1.642-1.557-3.505-1.134-2.179-1.502-2.492-1.947-2.595a1.7 1.7 0 0 0-.368-.04l.003-.015ZM119.86 90.45a3.675 3.675 0 0 1-.581 1.432c-.505.696-1.3.957-3.203 1.531-.502.15-1.016.26-1.535.332a8.356 8.356 0 0 0 1.068-.446 7.209 7.209 0 0 0 2.333-1.84c.276-.378.662-.66 1.105-.807.267-.093.542-.163.821-.21l-.008.008Zm.472-1.877c-.65.019-1.293.143-1.904.368-1.892.677-1.664 1.74-3.633 2.724-1.796.898-2.882.464-3.633 1.557-.368.552-.619 1.417-.258 1.947.144.218.486.52 2.076.52a12.697 12.697 0 0 0 3.626-.52c2.021-.61 3.265-.986 4.153-2.209a5.646 5.646 0 0 0 .909-2.208c.162-.803.269-1.314 0-1.69-.269-.375-.766-.486-1.344-.486l.008-.003ZM103.495 89.257a1.884 1.884 0 0 1-1.369.954c.099-.243.252-.46.449-.634.268-.196.588-.307.92-.32Zm.1-1.84a3.522 3.522 0 0 0-2.176.736c-1.005.817-1.62 2.5-.906 3.372a1.689 1.689 0 0 0 1.351.534 3.876 3.876 0 0 0 1.893-.534c1.222-.736 2.135-2.426 1.557-3.372-.302-.49-.972-.736-1.719-.736ZM107.575 94.868h.066c.369.08.792.905.774 1.674 0 .299-.155 1.171-.564 1.34a.666.666 0 0 1-.265.048.875.875 0 0 1-.456-.125 1.726 1.726 0 0 1-.486-1.285 1.966 1.966 0 0 1 .456-1.473c.14-.1.304-.16.475-.176v-.003Zm0-1.837a2.807 2.807 0 0 0-1.612.57c-1.579 1.274-1.532 4.565.129 5.71.442.295.962.451 1.494.449a2.52 2.52 0 0 0 .972-.188c1.605-.674 1.682-2.809 1.686-2.985.033-1.4-.736-3.181-2.209-3.505a2.054 2.054 0 0 0-.463-.051h.003ZM127.233 88.532a1.73 1.73 0 0 1 1.075.493 23.091 23.091 0 0 1-2.511 1.922l-.607.427c.107-.228.232-.464.368-.718.633-1.06 1.233-2.065 1.568-2.117h.092l.015-.007Zm-.015-1.833c-.123 0-.246.01-.368.03-1.181.183-1.811 1.236-2.856 2.985a9.8 9.8 0 0 0-1.167 2.981c-.243.983-.368 1.473-.129 1.69a.501.501 0 0 0 .35.114c.894 0 2.775-1.336 3.802-2.061 2.319-1.646 3.479-2.467 3.372-3.505-.114-1.145-1.62-2.234-2.996-2.234h-.008ZM68.82 99.683h.06a.92.92 0 0 1 .162.368 3.988 3.988 0 0 1-.829-.221c.19-.092.397-.144.608-.155v.008Zm0-1.848c-1.505 0-3.272 1.373-3.22 2.245.03.527.736.88 1.3 1.167a6.148 6.148 0 0 0 2.348.637 1.595 1.595 0 0 0 1.285-.508c.703-.847.327-2.577-.652-3.243a1.87 1.87 0 0 0-1.06-.298ZM45.795 95.42h.154c.35.07.672.244.92.5a9.843 9.843 0 0 1-1.251-.497c.059-.003.118-.003.177 0v-.003Zm0-1.837c-1.359 0-2.824.788-2.894 1.575-.118 1.326 3.681 3.118 7.215 3.118h.18c.612 0 3.789-.066 4.153-1.428.232-.85-.666-2.12-1.686-2.334-.09-.02-.183-.03-.276-.03-.854 0-1.266.895-2.448.94h-.085c-1.575 0-2.032-1.628-3.81-1.82-.114 0-.232-.018-.368-.018l.019-.003Z" fill="#001550" stroke="#001550" stroke-miterlimit="10"/><path d="M82.568 47.397a17.242 17.242 0 0 1-8.549 8.855 15.428 15.428 0 0 1-5.016 1.39c-5.922.58-12.125-2.623-14.807-7.937a13.033 13.033 0 0 1-1.167-3.519 14.367 14.367 0 0 1 .29-6.411 13.823 13.823 0 0 1 1.158-2.925c2.349-4.313 6.638-6.273 11.295-7.18 3.087-.602 6.252-.894 9.223-1.92 1.28-.443 2.569-1.06 3.368-2.151 1.376-1.868.684-4.892-1.364-5.977a6.204 6.204 0 0 0-2.377-.617c-.93-.09-1.891-.096-2.81-.267-.341-.063-.718-.182-.868-.492-.243-.49.237-1.028.703-1.312 2.549-1.567 6.105-1.098 8.312.921 2.207 2.018 3.006 5.363 2.163 8.233s-3.203 5.193-6.018 6.206c-3.185 1.144-6.739.718-9.939 1.79a9.435 9.435 0 0 0-4.946 3.71 7.24 7.24 0 0 0-.903 6.032c.9 2.8 3.62 4.633 6.403 5.59a18.504 18.504 0 0 0 15.85-2.02Z" fill="#10B981" stroke="#001550" stroke-width=".8" stroke-miterlimit="10"/><path d="M75.202 54.77s-.501.643-1.182 1.48a15.429 15.429 0 0 1-5.016 1.39c-5.922.579-12.125-2.624-14.807-7.938a13.032 13.032 0 0 1-1.167-3.516c1.017 2.505 3.296 4.43 5.549 5.853 4.515 2.85 10.336 2.137 12.592 1.9a7.15 7.15 0 0 1 4.03.83Z" fill="#fff" stroke="#001550" stroke-width=".8" stroke-miterlimit="10"/><path d="M64.21 54.805c.631.037 1.118.495 1.086 1.028-.032.533-.58.932-1.196.897-.617-.034-1.115-.495-1.086-1.028.029-.532.567-.947 1.196-.897ZM60.925 53.692c.579.206.935.782.759 1.286-.177.504-.8.741-1.396.533-.597-.209-.936-.785-.762-1.286.174-.5.802-.741 1.399-.533ZM57.626 51.77c.498.385.637 1.04.313 1.448-.325.408-.997.448-1.495.063-.498-.385-.64-1.042-.313-1.448.328-.405.997-.451 1.495-.063ZM55.22 50.023a.698.698 0 1 1-1.069.043.762.762 0 0 1 1.069-.043ZM73.3 30.064c-5.702 1.9-12.522-.79-18.198 6.73a15.262 15.262 0 0 0-1.784 2.98 13.823 13.823 0 0 1 1.159-2.924c2.348-4.313 6.637-6.273 11.294-7.18 3.087-.602 6.252-.894 9.224-1.92 1.28-.443 2.568-1.06 3.368-2.151 1.375-1.868.683-4.892-1.364-5.977a6.203 6.203 0 0 0-2.378-.617c1.182-.24 4.202-.51 5.337 2.606 1.416 3.944-.958 6.55-6.657 8.453Z" fill="#fff" stroke="#001550" stroke-width=".8" stroke-miterlimit="10"/><path d="M66.809 29.346a.698.698 0 1 1-.808.698.758.758 0 0 1 .808-.698ZM70.523 28.918a.7.7 0 1 1-.811.698.761.761 0 0 1 .81-.698ZM74.096 28.06a.7.7 0 1 1-.81.698.761.761 0 0 1 .81-.698ZM77.332 26.424a.7.7 0 1 1-.371 1.005.761.761 0 0 1 .37-1.005ZM63 29.821a.7.7 0 1 1-.512.941.761.761 0 0 1 .513-.94ZM59.61 32.31c.419-.162.648-.58.51-.935-.136-.354-.587-.51-1.007-.347-.42.163-.648.581-.511.935.137.354.588.51 1.007.347ZM56.856 32.963a.701.701 0 1 1-.51.941.759.759 0 0 1 .51-.94ZM78.568 23.92a.698.698 0 1 1 .208 1.047.759.759 0 0 1-.208-1.048ZM87.934 40.068c1.49-.252 2.49-1.693 2.231-3.218-.257-1.525-1.675-2.557-3.165-2.305-1.49.252-2.49 1.693-2.231 3.218.258 1.525 1.675 2.557 3.165 2.305Z" fill="#fff" stroke="#001550" stroke-width=".8" stroke-miterlimit="10"/><path d="M149.771 89.582a4.186 4.186 0 0 1-.483 1.619c-.944 1.784-2.679 2.774-4.448 3.53a26.68 26.68 0 0 1-13.493 1.952.312.312 0 0 1 0-.623c4.764-.492 9.54-1.717 12.896-5.105.294-.29.472-.68.498-1.092.049-1.04-.956-1.448-1.798-1.738a22.163 22.163 0 0 1-5.178-2.696c-1.367-.958-2.717-2.256-2.841-3.92-.119-1.617.947-3.045 1.833-4.403 1.138-1.752 2.713-4.416 3.142-6.912.339-1.984-.043-3.86-1.937-5.094-2.65-1.738-6.308-1.868-9.357-1.715-2.916.148-5.726 1.234-8.621 1.518-.775.082-1.556.091-2.332.026-3.084-.29-6.197-1.515-8.925-2.928a32.093 32.093 0 0 1-3.145-1.868c-3.336-2.265-6.878-5.74-4.729-9.267-.478.785 10.863 4.886 11.983 5.091 5.659 1.04 11.853-1.509 17.59-1.051.527.04 1.053.094 1.579.162 4.763.6 9.333 2.259 12.354 6.252 4.824 6.372-.695 12.494-3.293 18.312-1.503 3.362 1.897 4.025 4.451 5.021 2.172.825 4.46 2.297 4.254 4.929Z" fill="#10B981" stroke="#001550" stroke-width=".8" stroke-miterlimit="10"/><path d="M140.276 69.377a3.503 3.503 0 0 1-.371.81c.339-1.983-.044-3.86-1.938-5.093-2.649-1.738-6.307-1.868-9.356-1.714-2.917.147-5.726 1.233-8.622 1.517a6215.808 6215.808 0 0 0-14.401-4.77c-3.336-2.264-6.878-5.74-4.729-9.267-.478.785 10.862 4.886 11.983 5.091 5.659 1.04 11.853-1.508 17.59-1.05.527.04 1.053.094 1.578.161-.868.886-1.876 2.207-1.792 3.432.139 2.094 2.931 3.212 5.308 3.632 2.378.42 6.006 3.341 4.75 7.251Z" fill="#001550" stroke="#001550" stroke-width=".8" stroke-miterlimit="10"/><path d="M143.355 74.161a1.603 1.603 0 0 1-.721-.18c-1.274-.526-3.038-.547-3.724.65-.481.84-.194 1.925.336 2.733s1.282 1.448 1.83 2.247c1.711 2.476 1.045 6.137-1.121 8.228-2.166 2.09-5.485 2.705-8.421 2.05a9.485 9.485 0 0 1-2.378-.869c-1.448-.761-2.673-1.917-3.261-3.431-1.955-5.007 3.672-10.553 1.946-15.639-.46-1.355-1.404-2.496-2.479-3.44a14.321 14.321 0 0 0-5.256-2.928 11.037 11.037 0 0 0-1.135-.29c-1.581-.341-3.215-.413-4.804-.709-.345-.06-.69-.133-1.028-.223-2.555-.672-4.761-2.154-6.803-3.872-.953-.802-1.868-1.653-2.766-2.499a13.457 13.457 0 0 1-2.125-2.39c-.548-.868-.869-1.795-.562-2.716.334.15.66.319.976.504 1.529.87 2.954 2.068 4.717 2.7a32.875 32.875 0 0 0 7.023 1.531c2.143.27 4.324.46 6.467.794 2.502.385 4.952.958 7.219 2.062 2.896 1.413 5.419 3.715 6.8 6.632 1.381 2.916 1.538 6.455.142 9.365-.869 1.816-2.291 3.336-3.064 5.195-.773 1.86-.646 4.376 1.057 5.448 1.506.947 3.553.315 4.923-.832.756-.634 1.422-1.52 1.361-2.504-.066-1.055-.927-1.857-1.468-2.766a4.884 4.884 0 0 1-.669-2.818 4.88 4.88 0 0 1 6.339-4.315c.542.171 1.089.478 1.309 1 .22.52-.095 1.233-.66 1.282Z" fill="#10B981" stroke="#001550" stroke-width=".8" stroke-miterlimit="10"/><path d="M130.08 71.757c-.831 8.196-5.109 9.502-3.446 14.135a6.68 6.68 0 0 0 2.51 3.12c-1.448-.762-2.673-1.918-3.26-3.432-1.955-5.007 3.672-10.553 1.946-15.638-.461-1.359-1.411-2.502-2.488-3.45a14.33 14.33 0 0 0-5.256-2.927l-.342-2.137s11.167 2.134 10.336 10.33Z" fill="#fff" stroke="#001550" stroke-width=".8" stroke-miterlimit="10"/><path d="M124.93 64.515c.341.466.373 1.022.069 1.248-.304.226-.828.029-1.158-.438-.33-.466-.374-1.022-.07-1.245.304-.223.817-.029 1.159.435Z" fill="#fff" stroke="#001550" stroke-width=".8" stroke-miterlimit="10"/><path d="M125.352 66.493a14.322 14.322 0 0 0-5.256-2.928 11.011 11.011 0 0 0-1.135-.29c-1.581-.342-3.214-.414-4.804-.71l-7.819-4.094c-.953-.802-1.868-1.654-2.766-2.5a13.462 13.462 0 0 1-2.126-2.389l.414-2.212c1.529.869 2.954 2.068 4.718 2.699a32.881 32.881 0 0 0 7.023 1.532c2.143.27 4.323.46 6.466.793-.651.834-.66 1.996 1.793 3.36 3.232 1.792 3.623 4.821 3.492 6.739Z" fill="#001550" stroke="#001550" stroke-width=".8" stroke-miterlimit="10"/><path d="M127.619 66.765c.344.466.376 1.022.072 1.248-.304.226-.828.029-1.158-.437-.33-.467-.374-1.023-.073-1.246.302-.223.817-.029 1.159.435ZM129.14 69.939c.244.524.16 1.077-.182 1.236-.342.16-.817-.141-1.057-.666-.241-.524-.159-1.074.182-1.233.342-.16.82.139 1.057.663ZM128.878 73.9c-.049.58-.394 1.014-.771.982-.376-.032-.64-.524-.579-1.1.061-.576.394-1.014.771-.982.376.032.628.539.579 1.1ZM127.742 77.885c-.156.556-.579.921-.941.82-.362-.101-.53-.637-.371-1.193.16-.556.58-.921.942-.817.362.104.515.634.37 1.19ZM126.606 81.501c.158-.555-.008-1.089-.371-1.192-.363-.103-.786.264-.943.819-.158.555.008 1.09.371 1.192.363.104.786-.263.943-.819Z" fill="#fff" stroke="#001550" stroke-width=".8" stroke-miterlimit="10"/><path d="M74.497 57.94s-6.53 3.14-9.887 5.668c-.407.31-.836.591-1.283.84-2.577 1.425-4.245.58-7.298-.345-2.395-.73-4.604-1.9-6.878-2.84-2.125-.87-4.309-1.556-6.753-1.477a13.238 13.238 0 0 0-10.628 6.023c-2.372 3.663-2.28 7.964 1.83 10.266 3.846 2.152 2.734 7.295 3.226 10.9.46 3.377 4.144 4.605 6.754 4.759 2.609.153 2.762 1.995-1.075 2.763-2.968.596-6.275-1.582-7.805-3.997-1.87-2.957.29-6.562-1.769-9.267-1.216-1.599-3.258-2.479-4.856-3.623a8.484 8.484 0 0 1-.597-.469c-6.84-5.937-.26-16.956 5.896-20.376 7.49-4.153 17.248-3.527 25.096-.802a16.677 16.677 0 0 0 12.78-.753c2.804-1.515 3.247 2.73 3.247 2.73Z" fill="#10B981" stroke="#001550" stroke-width=".8" stroke-miterlimit="10"/><path d="m67.214 58.343-3.904 6.105c-2.577 1.425-4.245.58-7.297-.345-2.395-.73-4.605-1.9-6.878-2.84 1.99.29 4.798.593 6.904.431 3.631-.29 8.94-2.375 8.94-2.375l2.235-.976Z" fill="#001550" stroke="#001550" stroke-width=".8" stroke-miterlimit="10"/><path d="M80.267 49.838a.4.4 0 0 0 0 .058c-.336 2.81-1.187 5.873-3.605 7.33-1.52.915-3.389.979-5.118.49a8.9 8.9 0 0 1-2.108-.907c-2.18-1.295-3.814-3.316-5.39-5.3-2.026-2.554-4.306-5.413-7.818-5.624-6.238-.37-8.022 4.755-9.989 9.58-.686 1.682-1.395 3.327-2.316 4.688-3.67 5.381-16.667 16.533-22.569 7.851-2.058-3.029-1.792-7.083.95-9.597 2.004-1.836 1.503-.165 0 2.007s-.5 8.019 4.68 7.53c5.181-.49 11.028-6.015 12.531-10.023 2.18-5.815 2.551-12.108 8.225-15.841 6.038-3.97 12.823-2.143 18.383 1.488 4.37 2.864 8.896 6.314 14.144 6.27Z" fill="#10B981" stroke="#001550" stroke-width=".8" stroke-miterlimit="10"/><path d="M71.541 57.715a8.895 8.895 0 0 1-2.108-.906c-2.18-1.295-3.814-3.316-5.39-5.3-2.027-2.554-4.306-5.413-7.819-5.624-6.237-.37-8.021 4.755-9.988 9.58.377-1.66 1.596-6.31 3.91-9.01 2.85-3.324 7.127-3.561 10.57-1.424 3.443 2.137 9.86 9.739 11.294 10.57.548.33.183 1.193-.469 2.114Z" fill="#fff" stroke="#001550" stroke-width=".8" stroke-miterlimit="10"/><path d="M67.02 52.117c.457.434.533 1.1.165 1.486-.368.385-1.034.347-1.492-.087-.457-.435-.532-1.1-.165-1.486.368-.385 1.034-.347 1.492.087ZM64.198 48.404c.457.435.532 1.098.165 1.486-.368.388-1.034.347-1.492-.087-.457-.434-.533-1.1-.165-1.488.368-.388 1.037-.345 1.492.09ZM61.138 45.618c.457.435.53 1.1.165 1.486-.365.385-1.037.348-1.494-.087-.458-.434-.53-1.1-.166-1.486.365-.385 1.029-.347 1.495.087ZM56.899 44.139c.63 0 1.138.44 1.135.973-.003.533-.518.958-1.158.956-.64-.003-1.139-.44-1.136-.97.003-.53.527-.962 1.159-.96ZM52.405 44.669a.915.915 0 1 1-.527 1.297 1.002 1.002 0 0 1 .527-1.297ZM49.487 47.886a.692.692 0 1 1-.058 1.057.756.756 0 0 1 .058-1.057Z" fill="#fff" stroke="#001550" stroke-width=".8" stroke-miterlimit="10"/><path d="M120.078 72.867c.561-3.12-2.714-7.9-7.153-8.37-4.44-.469-13.71 1.891-13.71 1.891s10.11-.63 12.67 2.262c1.856 2.094 2.682 3.959 2.505 4.923h-.07c-5.38.081-9.481-3.316-15.22-2.496-5.74.82-8.384 4.054-7.982 6.875 0 0 3.646-3.947 7.63-2.896 3.986 1.051 6.699 1.937 11.197 3.496 4.497 1.557 8.653 1.3 10.619-.102 1.966-1.402 2.082-3.275 2.082-5.033 0-.976-.886-.863-2.568-.55ZM71.799 60.4c-4.344.819-11.147 7.002-11.784 9.36-.637 2.356-2.158 5.281-2.158 5.281s5.329-5.285 11.602-8.198c6.272-2.913 10.063-.657 10.063-.657s-3.388-6.609-7.723-5.787Z" fill="#001550" stroke="#001550" stroke-width=".8" stroke-miterlimit="10"/><path d="M127.708 47.565c-1.107 2.16-3.018 3.527-5.242 4.233-.996.319-2.027.513-3.07.58-1.63.11-4.538-.982-5.937-1.868-1.1-.698-4.482-2.995-5.873-3.14-2.096-.22-4.193 2.433-4.257 4.15-.124 3.397 9.684 5.535 11.975 6.461 5.644 2.282 9.583 6.565 8.63 13.128-.541 3.738-2.65 5.598-5.424 6.33-4.836 1.28-11.694-.868-15.771-2.461-1.695-.663-3.438-1.413-5.254-1.295A6.695 6.695 0 0 0 93.02 76c-1.002 1.132-1.683 2.606-1.593 4.12.014.224.046.446.096.664a4.712 4.712 0 0 0 3.906 3.56c2.201.26 4.486-1.324 4.958-3.51a.734.734 0 0 1 .29-.461.515.515 0 0 1 .629-.02.513.513 0 0 1 .15.168 2.947 2.947 0 0 1 .68 2.253c-.266 2.125-1.975 3.411-3.802 4.025a8.977 8.977 0 0 1-8.639-1.717c-3.843-3.412-3.475-9.696.26-13.032 2.952-2.638 7.206-3.388 11.142-2.963 3.935.426 7.671 1.883 11.404 3.186.632.27 1.314.404 2.001.394.683-.061 1.384-.484 1.546-1.159.072-.44 0-.89-.205-1.285-.892-2.028-2.945-3.328-5.083-3.867-2.137-.538-4.378-.417-6.576-.269-4.408.29-8.865.686-13.032 2.137-6.95 2.413-17.011 12.453-8.931 19.484 1.954 1.697 8.424 3.284 11.004 3.585 6.149.722 24.949-2.765 30.947-1.378a.429.429 0 0 1 .333.402.43.43 0 0 1-.299.43c-5.502 1.7-26.005 5.09-31.803 4.922-4.156-.11-10.689-1.63-14.12-3.976-2.914-1.99-4.345-6.16-4.727-9.666-.382-3.508.64-7.104 2.583-10.05.747-1.135 1.929-2.004 2.39-3.318.715-2.048-1.084-3.91-2.784-4.75-2.719-1.343-6.487-.952-8.688 1.202-.445.432-.886.869-1.326 1.306-5.213 5.213-9.707 11.645-15.754 15.905a10.481 10.481 0 0 1-4.633 1.87c-11.167 1.492-16.974-16.217-6.479-20.685 2.48-1.054 5.503-.811 7.695.77s3.36 4.5 2.72 7.118c-1.469-2.148-3.114-4.445-5.865-4.827a5.688 5.688 0 0 0-6.02 3.643c-1.958 5.05 3.833 10.055 8.687 8.798 4.303-1.118 6.66-6.096 9.03-9.42l.147-.206c2.505-3.513 5.06-7.058 7.938-10.278 2.717-3.038 6.423-4.68 9.991-6.47 3.704-1.856 7.394-3.91 10.278-6.935 2.824-2.963 2.525-2.607 3.423-4.11 1.581-2.653 1.52-9.122 4.217-12.852 2.696-3.73 6.58-7.298 11.14-8.427 5.294-1.306 10.872-.435 15.827 1.697 12.49 5.372 12.588 19.785 9.635 25.557Z" fill="#10B981" stroke="#001550" stroke-width=".8" stroke-miterlimit="10"/><path d="M117.858 25.133c-.09.593-.953.95-1.926.802-.973-.148-1.688-.753-1.598-1.347.09-.594.955-.95 1.928-.8.974.151 1.689.754 1.596 1.345ZM116.402 30.444c0 .341-.486.62-1.086.62-.599 0-1.086-.29-1.086-.62s.487-.623 1.086-.623c.6 0 1.086.278 1.086.623ZM104.906 24.88c.188.29-.061.785-.559 1.119-.498.332-1.057.37-1.248.084-.191-.287.061-.785.559-1.118.498-.333 1.057-.371 1.248-.084ZM119.578 40.209c1.241 0 2.248-.903 2.248-2.016s-1.007-2.015-2.248-2.015c-1.241 0-2.247.902-2.247 2.015s1.006 2.016 2.247 2.016ZM111.602 21.605c0 .342-.417.62-.929.62-.513 0-.93-.29-.93-.62s.414-.62.93-.62c.515 0 .929.279.929.62Z" fill="#001550"/><path d="M118.508 77.434c-4.836 1.28-11.694-.87-15.771-2.462-1.694-.663-3.438-1.413-5.253-1.294a6.696 6.696 0 0 0-4.466 2.316c-1.002 1.133-1.683 2.607-1.593 4.121.014.224.047.445.096.663-.35-.9-.488-1.87-.403-2.832.238-2.606 2.137-5.346 7.53-5.456 5.392-.11 10.752 4.031 16.596 4.923 1.08.179 2.182.186 3.264.02Z" fill="#fff" stroke="#001550" stroke-width=".8" stroke-miterlimit="10"/><path d="M108.262 76.281c-.047.397-.51.669-1.04.611-.53-.058-.921-.431-.869-.828.052-.397.51-.67 1.04-.611.53.058.912.431.869.828ZM104.969 74.914c-.044.397-.51.672-1.04.611-.53-.06-.921-.431-.869-.828.052-.397.513-.669 1.04-.611.527.058.915.431.869.828ZM101.352 73.79c-.044.397-.51.67-1.04.609-.53-.061-.921-.429-.869-.826.052-.396.51-.671 1.04-.61.53.06.909.43.869.828ZM97.734 73.666c.04.397-.359.761-.889.814-.53.052-.99-.226-1.03-.623-.041-.397.359-.765.888-.817.53-.052.994.23 1.031.626ZM94.73 74.367c.246.316.11.837-.307 1.158-.417.322-.958.345-1.207.032-.25-.313-.11-.834.307-1.158.417-.325.95-.345 1.207-.032Z" fill="#fff" stroke="#001550" stroke-width=".8" stroke-miterlimit="10"/><path d="M122.458 51.801c-.996.319-2.027.513-3.07.58-1.631.11-4.538-.982-5.937-1.868-1.1-.698-4.483-2.995-5.873-3.14-2.097-.22-4.193 2.433-4.257 4.15 0 0-.434-1.019.107-2.8.852-2.8 5.002-3.31 6.067-5.346 1.066-2.036.107-4.413.107-4.413s2.291 2.565 1.364 5.351c-.926 2.786 1.194 4.773 3.846 6.1 2.653 1.326 3.713 1.447 5.969 1.447.57.003 1.144-.023 1.677-.06Z" fill="#001550" stroke="#001550" stroke-width=".8" stroke-miterlimit="10"/><path d="m89.31 33.134-2.488 1.289-1.448 4.85.762 3.508s1.804-.304 3.292-4.101" fill="#10B981"/><path d="m89.31 33.134-2.488 1.289-1.448 4.85.762 3.508s1.804-.304 3.292-4.101" stroke="#001550" stroke-width=".8" stroke-miterlimit="10"/><path d="M105.742 45.243c1.854-.638 2.828-2.695 2.174-4.594-.653-1.9-2.686-2.923-4.54-2.285-1.854.638-2.828 2.695-2.174 4.594.653 1.9 2.686 2.923 4.54 2.285Z" fill="#fff" stroke="#001550" stroke-width=".8" stroke-miterlimit="10"/><path d="M107.921 40.652a3.72 3.72 0 0 0-.62-1.118c-.205-.116-.44-.032-.706.104-.423.218-.331 1.112-1.689 1.723s-2.233.768-2.792.177c-.428-.455-.868.35-1.071.756a3.697 3.697 0 0 0 2.285 2.896c.035-.104.06-.21.075-.319.078-.596 0-1.002 1.008-1.63.848-.533 2.786-.307 3.603-.492a3.663 3.663 0 0 0-.093-2.097Z" fill="#001550" stroke="#001550" stroke-width=".8" stroke-miterlimit="10"/><path d="M83.853 61.558c1.647-2.48 4.555-6.933 5.791-9.322a104.17 104.17 0 0 0 1.912-3.895M78.272 53.197a47.315 47.315 0 0 0 5.38-3.779M98.14 53.357a8.998 8.998 0 0 0 1.711 3.883c1.254 1.64 3.209 2.818 4.923 3.603" stroke="#001550" stroke-width=".8" stroke-miterlimit="10"/></svg>