<svg width="170" height="121" viewBox="0 0 170 121" fill="none" xmlns="http://www.w3.org/2000/svg"><path opacity=".8" d="M76.93 1.682C59.507 4.824 42.126 16.961 31.643 31.37 22.617 43.773 19.75 58.695 21.478 72.232c1.997 15.707 9.924 30.341 22.641 39.411 3.344 2.387 6.536 4.754 10.408 6.469 15.885 7.045 31.255-7.886 40.335-7.999 7.645-.097 11.218 7.85 18.235 9.352 18.944 4.054 40.637-22.332 41.002-41.89.406-22.771-34.007-83.676-77.168-75.893Z" fill="#FFF5E3"/><path d="M82.535 109.497c12.936-2.1 21.721-14.289 19.621-27.225-2.1-12.936-14.289-21.72-27.225-19.62-12.935 2.1-21.72 14.288-19.62 27.224 2.1 12.936 14.289 21.72 27.224 19.621Z" stroke="#001550" stroke-miterlimit="10"/><path d="M87.69 95.03c4.948-4.947 4.948-12.969 0-17.917-4.947-4.947-12.969-4.947-17.916 0-4.948 4.948-4.948 12.97 0 17.917 4.947 4.948 12.969 4.948 17.917 0Z" stroke="#001550" stroke-miterlimit="10"/><path d="M51.126 67.372a33.343 33.343 0 1 0 36.679-13.388" stroke="#001550" stroke-miterlimit="10"/><path d="M81.499 37.431s1.212-.832 1.462-1.875c.25-1.043-2.669-1.345-3.18-1.512-.51-.166-1.187.458-1.323 1.168-.135.71-.332 1.304-.105 1.47.228.167 2.38.783 3.146.75Z" fill="#fff" stroke="#001550" stroke-miterlimit="10"/><path d="M77.116 39.004s3.548 1.823 4.758.713c1.21-1.11.02-2.066-.805-2.713a18.641 18.641 0 0 0-2.189-1.387l-1.764 3.387Z" fill="#fff" stroke="#001550" stroke-miterlimit="10"/><mask id="a" fill="#fff"><path d="m78.496 84.443.244 1.629.125-1.676-.369.047Z"/></mask><path d="m78.496 84.443.244 1.629.125-1.676-.369.047Z" fill="#001550"/><path d="m78.496 84.443-.127-.992-1.013.13.151 1.01.99-.148Zm.244 1.629-.989.148 1.986-.074-.997-.075Zm.125-1.676.997.074.091-1.221-1.215.155.127.992Zm-1.358.195.244 1.629 1.978-.297-.244-1.628-1.978.296Zm2.23 1.555.125-1.676-1.994-.148-.125 1.675 1.994.149Zm-.999-2.742-.369.047.254 1.984.369-.047-.254-1.984Z" fill="#001550" mask="url(#a)"/><path d="M79.389 67.985c.332 3.402.344 6.829.033 10.233l-.572 6.28a.19.19 0 0 1-.355-.066L75.28 51.21l2.472-.241 1.637 17.016ZM54.401 67.377l1.656 1.712 18.29-18.286-1.66-1.712-18.286 18.286Z" fill="#001550" stroke="#001550" stroke-miterlimit="10"/><path d="m55.057 61.764-1.004-1.028-.786.767 1.004 1.028.786-.767Z" fill="#10B981" stroke="#001550" stroke-miterlimit="10"/><path d="m54.684 60.595-.767-.786-1.572 1.535.768.786 1.572-1.535ZM54.84 66.811l-5.421 3.52 3.65-5.334 10.4-10.156 1.773 1.815L54.84 66.81Z" fill="#10B981" stroke="#001550" stroke-miterlimit="10"/><path d="m54.84 66.811-1.77-1.814-3.651 5.335 5.42-3.52Z" fill="#fff" stroke="#001550" stroke-miterlimit="10"/><path d="m51.08 69.253-.54-.555-1.121 1.634 1.662-1.08Z" fill="#001550" stroke="#001550" stroke-miterlimit="10"/><path d="M55.841 61.582a1.268 1.268 0 0 0-1.778 1.737l2.241 3.481 2.963-2.893-3.426-2.325Zm.713 3.962-1.734-2.358c-.252-.344-.277-.738-.07-.944.209-.205.606-.166.941.095l2.317 1.789-1.454 1.418Z" fill="#fff" stroke="#001550" stroke-miterlimit="10"/><path d="m77.775 47.168-2.732-.896 2.774-6.405a.79.79 0 0 1 1.41-.074.79.79 0 0 1 .082.565l-1.534 6.81Z" fill="#10B981" stroke="#001550" stroke-miterlimit="10"/><path d="M73.976 45.218h.832a5.881 5.881 0 0 1 3.576 1.235l.674.521-.833 2.552a10.347 10.347 0 0 1-1.464 2.869l-.7.962-.302 1.11h-.202a4.802 4.802 0 0 1-2.846-.938l-.37-.277.39-1.185.06-1.387a10.4 10.4 0 0 1 .322-2.147l.863-3.315Z" fill="#10B981" stroke="#001550" stroke-miterlimit="10"/><path d="M75.67 47.74a.744.744 0 1 1-1.412-.469.744.744 0 0 1 1.412.469ZM77.84 48.45a.747.747 0 1 1-1.42-.463.747.747 0 0 1 1.42.463Z" fill="#001550" stroke="#001550" stroke-miterlimit="10"/><path d="M121.383 11.977s-4.566 3.307-8.3 3.778c-3.734.472-16.525.993-21.443 2.22-4.919 1.226-14.043 4.912-17.344 7.212-3.3 2.3-3.065 3.606-2.796 6.524.27 2.919 2.27 6.017 2.27 6.017s-1.79 4.597-1.19 5.357c.598.76 2.66.214 3.955-1.437 1.296-1.65 3.457-7.068 5.864-9.856 2.408-2.788 5.615-3.329 7.002-3.545 1.387-.217 3.853.885 3.922 3.262a5.778 5.778 0 0 1-2.86 5.27c-1.75 1.03-9.55 2.994-11.096 4.841-1.545 1.848 1.404 3.474 3.554 3.238 2.15-.236 3.883-1.465 7.035-2.774a36.008 36.008 0 0 1 10.43-2.516c3.282-.244 10.697-.735 14.048-4.064 3.351-3.33 6.244-7.28 8.982-8.736 2.738-1.456 6.211-2.863 6.211-2.863l-8.244-11.928Z" fill="#fff" stroke="#001550" stroke-miterlimit="10"/><path d="M122.954 26.455c-.795.459-1.59 1.106-2.384 1.848l-3.106-10.535 5.49 8.687Z" fill="#001550" stroke="#001550"/><path d="M82.266 21.578s-7.696 5.956-8.564 8.025c-.868 2.07.072 8.122.072 8.122s3.606-8.141 5.351-10.302c1.745-2.161 6.622-5.826 6.622-5.826" stroke="#001550" stroke-miterlimit="10"/><path d="m115.62 14.881 8.475 16.708 7.168-3.756-7.165-17.23-8.478 4.278Z" fill="#fff" stroke="#001550" stroke-miterlimit="10"/><path d="M126.155 28.01a.831.831 0 1 1-1.574-.536.831.831 0 0 1 1.574.537Z" fill="#fff" stroke="#001550" stroke-miterlimit="10"/><path d="M146.573 22.851s-11.527 5.826-12.4 6.494a2.515 2.515 0 0 1-2.858.1c-.782-.533-9.509-18.736-9.509-18.736s-.277-1.129 0-1.98C122.083 7.876 133.277 1 133.277 1" fill="#fff"/><path d="M146.573 22.851s-11.527 5.826-12.4 6.494a2.515 2.515 0 0 1-2.858.1c-.782-.533-9.509-18.736-9.509-18.736s-.277-1.129 0-1.98C122.083 7.876 133.277 1 133.277 1" stroke="#001550" stroke-miterlimit="10"/></svg>