<svg width="170" height="120" viewBox="0 0 170 120" fill="none" xmlns="http://www.w3.org/2000/svg"><path opacity=".7" d="M17.794 78.303s2.374 20.328 19.699 29.043c17.325 8.716 34.263.306 49.823-1.698 8.151-1.05 15.717 2.965 23.711 3.816 25.558 2.728 45.555-27.28 41.912-49.392-3.15-19.144-15.434-32.674-37.783-42.358C92.806 8.031 77.434.334 51.513 9.345c-25.92 9.011-35.621 42.639-33.72 68.958Z" fill="#E7F1EA"/><path d="M63.895 56.993s-2.033-3.89-2.4-6.284c-.367-2.395-2.033-9.445-3.517-12.779-1.483-3.333-8.69-7.578-10-7.395-1.312.183-4.068 7.223-3.89 10.173.178 2.95 3.517 6.84 4.445 8.134.928 1.295 3.145 8.334 4.623 10.556 1.477 2.223 1.666 3.145 1.666 3.145l9.073-5.55Z" fill="#FFC966"/><path d="M63.895 56.993s-2.033-3.89-2.4-6.284c-.367-2.395-2.033-9.445-3.517-12.779-1.483-3.333-8.69-7.578-10-7.395-1.312.183-4.068 7.223-3.89 10.173.178 2.95 3.517 6.84 4.445 8.134.928 1.295 3.145 8.334 4.623 10.556 1.477 2.223 1.666 3.145 1.666 3.145l9.073-5.55Z" stroke="#001550" stroke-width=".8" stroke-linecap="round" stroke-linejoin="round"/><path d="M46.693 38.874s-5.556-1.477-7.023-1.11c-1.467.366-.744 2.222 1.295 2.777 1.099.266 2.138.737 3.061 1.39l1.85 2.777" fill="#FFC966"/><path d="M46.693 38.874s-5.556-1.477-7.023-1.11c-1.467.366-.744 2.222 1.295 2.777 1.099.266 2.138.737 3.061 1.39l1.85 2.777" stroke="#001550" stroke-width=".8" stroke-linecap="round" stroke-linejoin="round"/><path d="M47.99 28.152h4.444v18.184a1.79 1.79 0 0 1-1.789 1.79h-.861a1.79 1.79 0 0 1-1.79-1.79V28.152h-.005Z" fill="#fff" stroke="#001550" stroke-width=".8" stroke-linecap="round" stroke-linejoin="round"/><path d="M53.258 27.407h-6.1v1.667h6.1v-1.667Z" fill="#fff" stroke="#001550" stroke-width=".8" stroke-linecap="round" stroke-linejoin="round"/><path d="M47.159 27.407s-2.495-.556-2.495 1.85 1.85 2.961 3.334 1.295c1.483-1.667.55-3.328-.84-3.145Z" fill="#FFC966" stroke="#001550" stroke-width=".8" stroke-linecap="round" stroke-linejoin="round"/><path d="M60.01 43.864s-1.478-6.84-2.584-9.612c-1.105-2.773-4.256-5.362-5-6.112-.745-.75-1.478 2.223-.922 3.14.555.916 1.666 3.144 1.666 3.144s-1.85 7.95.556 9.8" fill="#FFC966"/><path d="M60.01 43.864s-1.478-6.84-2.584-9.612c-1.105-2.773-4.256-5.362-5-6.112-.745-.75-1.478 2.223-.922 3.14.555.916 1.666 3.144 1.666 3.144s-1.85 7.95.556 9.8" stroke="#001550" stroke-width=".8" stroke-linecap="round" stroke-linejoin="round"/><path d="M47.254 35.174s-3.7-.366-4.067.928c-.367 1.295.367 2.034 1.478 2.034s3.89.555 4.067-.74c.178-1.294-.183-2.405-1.478-2.222Z" fill="#FFC966" stroke="#001550" stroke-width=".8" stroke-linecap="round" stroke-linejoin="round"/><path d="M47.625 32.03s-3.7-.367-4.072.928c-.372 1.294.372 2.033 1.483 2.033 1.111 0 3.89.556 4.067-.739.178-1.294-.183-2.406-1.478-2.222Z" fill="#FFC966" stroke="#001550" stroke-width=".8" stroke-linecap="round" stroke-linejoin="round"/><path d="M63.526 54.592 52.614 61.06s4.067 7.4 6.29 13.684c2.222 6.284 6.667 18.123 14.05 17.934 7.385-.188 14.24-9.611 14.24-9.611l-8.506-24.78-7.584 10.356-7.578-14.05Z" fill="#fff"/><path d="M63.525 54.592 52.613 61.06s4.067 7.4 6.29 13.684c2.222 6.284 6.667 18.123 14.05 17.934 7.385-.188 14.24-9.611 14.24-9.611l-8.506-24.78-7.584 10.356-7.578-14.05Z" fill="#10B981" stroke="#001550" stroke-width=".8" stroke-linecap="round" stroke-linejoin="round"/><path d="M63.526 54.592 52.614 61.06s4.067 7.4 6.29 13.684c2.222 6.284 6.667 18.123 14.05 17.934 7.385-.188 14.24-9.611 14.24-9.611l-8.506-24.78-7.584 10.356-7.578-14.05Z" stroke="#001550" stroke-width=".8" stroke-linecap="round" stroke-linejoin="round"/><path d="M98.63 36.074s8.64 1.545 13.635 3.945c4.995 2.4 11.912 6.99 14.868 16.235 2.956 9.245 1.478 52.942 1.478 52.942H82.758s2.222-19.107.183-27.78c-2.04-8.672-4.267-8.75-5.478-15.112-3.612-18.907 6.561-32.263 21.168-30.23Z" fill="#10B981"/><path d="M112.835 109.524c2.462-6.484 6.573-21.835 6.573-21.835s-14.262-3.522-16.301-10c-2.039-6.479 2.411-20.391 2.411-20.391S94.773 73.966 93.295 76.561c-1.478 2.594-9.634-25.93-12.412-32.597a.553.553 0 0 0-.039-.084c-3.644 5.434-5.133 13.268-3.383 22.407 1.21 6.362 3.444 6.423 5.478 15.113 2.033 8.69-.183 28.107-.183 28.107l30.079.017Z" fill="#10B981"/><path d="M98.63 36.074s8.64 1.545 13.635 3.945c4.995 2.4 11.912 6.99 14.868 16.235 2.956 9.245 1.478 52.942 1.478 52.942H82.758s2.222-19.107.183-27.78c-2.04-8.672-4.267-8.75-5.478-15.112-3.612-18.907 6.561-32.263 21.168-30.23Z" stroke="#001550" stroke-width=".8" stroke-linecap="round" stroke-linejoin="round"/><path d="m79.525 59.31 1.85 1.227-1.439 3.084s1.667 5.75 3.49 9.24a132.422 132.422 0 0 0 3.694 6.572s5.956-6.573 8.623-10.679c2.667-4.105 5.139-9.034 5.139-9.034l-2.467-2.055 5.134-3.29s1.944-10.7 1.111-16.956c-3.284-.856-6.028-1.345-6.028-1.345-8.562-1.194-14.568 2.012-18.113 6.162l-.788 2.283a32.119 32.119 0 0 0-.823 8.218c.092 2.2.298 4.394.617 6.572v0Z" stroke="#001550" stroke-width=".8" stroke-linecap="round" stroke-linejoin="round"/><path d="M81.893 45.92s-.2 9.845.783 14.967c.983 5.123 4.728 12.995 4.728 12.995s6.112-12.011 8.668-18.706c2.555-6.695 2.555-19.102 2.555-19.102l-13.784-1.183-2.95 11.028Z" fill="#fff" stroke="#001550" stroke-width=".8" stroke-linecap="round" stroke-linejoin="round"/><path d="m83.756 57.604 2.761 4.367-1.378 6.206 2.267 5.711 2.328-5.711-.917-5.973 2.756-5.75-4.367-4.823-3.45 5.973Z" fill="#001550" stroke="#001550" stroke-width=".8" stroke-linecap="round" stroke-linejoin="round"/><path d="m87.176 56.542 6.667 4.445s4.444-10.14 5-15.65c.375-3.08.308-6.197-.2-9.257l-8.873-1.006-7.873 10.829.784 14.984 4.495-4.345Z" fill="#fff" stroke="#001550" stroke-width=".8" stroke-linecap="round" stroke-linejoin="round"/><path d="m78.346 46.314 8.823 10.228 5.556-18.89-2.956-8.861s-1.967 8.667-5.512 11.623a46.024 46.024 0 0 0-5.911 5.9ZM60.487 84.984l-7.49-13.335V62.5a1.261 1.261 0 0 0-.46-2.44h-7.823a1.261 1.261 0 0 0-.461 2.44v8.833L36.747 85.04a3.423 3.423 0 0 0 3.05 5h17.679a3.43 3.43 0 0 0 3.011-5.055Z" fill="#fff" stroke="#001550" stroke-width=".8" stroke-linecap="round" stroke-linejoin="round"/><path d="M56.277 80.233c-2.895.906-6.467 1.417-9.384-.039a15.109 15.109 0 0 0-5.056-1.667l-3.139 5.728a2.86 2.86 0 0 0 2.545 4.162h14.762a2.86 2.86 0 0 0 2.522-4.206l-2.25-3.978Z" fill="#fff" stroke="#001550" stroke-width=".8" stroke-linecap="round" stroke-linejoin="round"/><path d="m60.487 84.984-7.49-13.335V62.5a1.261 1.261 0 0 0-.46-2.44h-7.823a1.261 1.261 0 0 0-.461 2.44v8.833L36.747 85.04a3.423 3.423 0 0 0 3.05 5h17.679a3.43 3.43 0 0 0 3.011-5.055Z" fill="#fff" stroke="#001550" stroke-width=".8" stroke-linecap="round" stroke-linejoin="round"/><path d="M56.277 80.233c-2.895.906-6.467 1.417-9.384-.039a15.109 15.109 0 0 0-5.056-1.667l-3.139 5.728a2.86 2.86 0 0 0 2.545 4.162h14.762a2.86 2.86 0 0 0 2.522-4.206l-2.25-3.978Z" fill="#001550" stroke="#001550" stroke-width=".8" stroke-linecap="round" stroke-linejoin="round"/><path d="m74.064 79.366-5.917-5.728s-.373-2.222-1.112-2.778a23.712 23.712 0 0 1-1.85-1.667s-4.445-8.89-6.284-11.467a7.166 7.166 0 0 0-6.289-3.14c-1.667.184-8.89.74-9.612 2.4-.227.512.74 2.034.74 2.034s-1.85.928-1.479 2.59c.373 1.66 1.112 1.85 1.112 1.85s-2.223 1.666-1.478 2.96a2.895 2.895 0 0 0 1.85 1.479s-1.478 1.666.183 2.222c1.154.371 2.326.68 3.512.928 0 0 2.033 5.173 3.889 5.361 1.37.163 2.727.41 4.067.74 0 0 3.7 7.578 6.667 11.111 2.967 3.534 8.334 3.89 8.334 3.89l3.667-12.785Z" fill="#FFC966"/><path d="m74.064 79.366-5.917-5.728s-.373-2.222-1.112-2.778a23.712 23.712 0 0 1-1.85-1.667s-4.445-8.89-6.284-11.467a7.166 7.166 0 0 0-6.289-3.14c-1.667.184-8.89.74-9.612 2.4-.227.512.74 2.034.74 2.034s-1.85.928-1.479 2.59c.373 1.66 1.112 1.85 1.112 1.85s-2.223 1.666-1.478 2.96a2.895 2.895 0 0 0 1.85 1.479s-1.478 1.666.183 2.222c1.154.371 2.326.68 3.512.928 0 0 2.033 5.173 3.889 5.361 1.37.163 2.727.41 4.067.74 0 0 3.7 7.578 6.667 11.111 2.967 3.534 8.334 3.89 8.334 3.89l3.667-12.785ZM43.74 59.026l6.656-.367M43.371 63.465l5.362-.367M43.74 67.904l4.067-.372" stroke="#001550" stroke-width=".8" stroke-linecap="round" stroke-linejoin="round"/><path d="M108.635 47.564s-2.955 6.473-3.511 11.668c-.556 5.194-7.578 25.051-7.578 25.051s-14.24-3.972-18.307-5.083a36.045 36.045 0 0 1-7.9-3.417l-8.274 14.94s23.019 13.451 33.37 15.112c10.35 1.661 12.045 2.022 17.04-2.423 4.994-4.444 12.728-34.03 12.728-34.03" fill="#10B981"/><path d="M108.635 47.564s-2.955 6.473-3.511 11.668c-.556 5.194-7.578 25.051-7.578 25.051s-14.24-3.972-18.307-5.083a36.045 36.045 0 0 1-7.9-3.417l-8.274 14.94s23.019 13.451 33.37 15.112c10.35 1.661 12.045 2.022 17.04-2.423 4.994-4.444 12.728-34.03 12.728-34.03" stroke="#001550" stroke-width=".8" stroke-linecap="round" stroke-linejoin="round"/><path d="M67.516 18.545s-.984 7.879.589 14.968c1.572 7.09 4.533 16.151 6.7 16.346 2.167.194 13.39-7.284 14.179-11.029.789-3.745.783-5.317.783-10.045a92.25 92.25 0 0 0-.589-11.618c-.394-2.955-2.166-6.111-7.484-5.317-5.317.795-12.212 2.956-14.178 6.695Z" fill="#fff"/><path d="M67.516 18.545s-.984 7.879.589 14.968c1.572 7.09 4.533 16.151 6.7 16.346 2.167.194 13.39-7.284 14.179-11.029.789-3.745.783-5.317.783-10.045a92.25 92.25 0 0 0-.589-11.618c-.394-2.955-2.166-6.111-7.484-5.317-5.317.795-12.212 2.956-14.178 6.695Z" stroke="#001550" stroke-width=".8" stroke-linecap="round" stroke-linejoin="round"/><path d="M78.736 6.339c-6.495.783-14.573 5.711-18.118 9.056-3.544 3.345 6.306 1.183 6.306 1.183l-2.778 4.923s4.14-1.578 7.684-3.15c3.545-1.572 12.779-2.561 12.779-2.561l-3.94 4.333 5.907 1.184s-.912 3.661-.056 4.667c-.089 4.155-.322 9.723-.928 10.69-.983 1.577-2.778 1.577-9.445.983-5.556-.49-6.5.91-6.667 1.41 1.594 5.557 3.661 10.657 5.284 10.802 2.16.2 13.39-7.284 14.178-11.029.79-3.745.784-5.317.784-10.045 0-1.561 0-3.023-.067-4.4.267-.3.49-.523.661-.523.59 0 1.773.79 1.773.79s.983-7.09.983-11.224c0-4.133-7.84-7.878-14.34-7.09Z" fill="#001550" stroke="#001550" stroke-width=".8" stroke-linecap="round" stroke-linejoin="round"/><path d="m72.047 41.392 3.94-.59" stroke="#fff" stroke-width=".8" stroke-linecap="round" stroke-linejoin="round"/><path d="M70.667 31.546s-2.562 4.134-1.573 4.923c.99.789 4.328.589 4.328.589" fill="#fff"/><path d="M70.667 31.546s-2.562 4.134-1.573 4.923c.99.789 4.328.589 4.328.589" stroke="#001550" stroke-width=".8" stroke-linecap="round" stroke-linejoin="round"/><path d="M66.534 27.407s-1.578 2.167-1.578 3.545c0 1.378 3.745 4.333 3.745 4.333s1.178-4.528 2.778-3.544c1.6.983 1.966 2.778 3.739 2.778 1.772 0 7.484-1.378 8.473-3.15.989-1.773 1.378-5.117 1.378-5.117l5.906-1.378-.195-1.773-24.246 4.306Z" fill="#fff" stroke="#001550" stroke-width=".8" stroke-linecap="round" stroke-linejoin="round"/><path d="m90.757 23.08-24.03 3.333s-1.378.983-.194.983c1.183 0 24.224-4.317 24.224-4.317Z" fill="#001550" stroke="#001550" stroke-width=".8" stroke-linecap="round" stroke-linejoin="round"/><path d="M75.39 30.974c.29 0 .527-.542.527-1.211 0-.67-.236-1.212-.528-1.212-.291 0-.528.543-.528 1.212 0 .669.237 1.21.528 1.21ZM69.642 31.374c.292 0 .528-.542.528-1.211 0-.67-.236-1.211-.528-1.211-.291 0-.528.542-.528 1.21 0 .67.237 1.212.528 1.212Z" fill="#001550"/><path d="M73.787 24.179s.967-2.022 3.8-1.617M70.405 24.746a2.605 2.605 0 0 0-2.667.083" stroke="#001550" stroke-width=".8" stroke-linecap="round" stroke-linejoin="round"/><path d="M88.196 27.802s0-7.09 2.95-6.112c2.95.978 1.384 7.684.79 9.062-.595 1.378-3.15 1.183-3.15 1.183" fill="#fff"/><path d="M88.196 27.802s0-7.09 2.95-6.112c2.95.978 1.384 7.684.79 9.062-.595 1.378-3.15 1.183-3.15 1.183" stroke="#001550" stroke-width=".8" stroke-linecap="round" stroke-linejoin="round"/><path d="M91.976 24.201a1.071 1.071 0 0 0-1.612-.339c-1.055.695-.355 3.156-.355 3.156s1.5-.283 1.311.845c-.189 1.128-.861.933-.861.933M149.74 109.169H29.056" stroke="#001550" stroke-width=".8" stroke-linecap="round" stroke-linejoin="round"/></svg>