<svg width="170" height="120" viewBox="0 0 170 120" fill="none" xmlns="http://www.w3.org/2000/svg">
<path opacity="0.7" d="M17.7938 78.3028C17.7938 78.3028 20.1677 98.6306 37.4926 107.346C54.8176 116.062 71.7561 107.652 87.3161 105.648C95.4672 104.598 103.033 108.613 111.027 109.464C136.585 112.192 156.582 82.1838 152.939 60.0717C149.789 40.9278 137.505 27.3978 115.156 17.7143C92.806 8.03083 77.4342 0.334162 51.5134 9.34507C25.5926 18.356 15.892 51.9839 17.7938 78.3028Z" fill="#E7F1EA"/>
<path d="M63.8953 56.9926C63.8953 56.9926 61.8618 53.1034 61.4951 50.7088C61.1284 48.3142 59.4616 41.2637 57.9782 37.9301C56.4947 34.5966 49.2887 30.3518 47.9775 30.5352C46.6662 30.7185 43.9105 37.7579 44.0883 40.7081C44.2661 43.6583 47.6052 47.5475 48.533 48.842C49.4609 50.1366 51.6777 57.1759 53.1556 59.3983C54.6335 61.6207 54.8224 62.543 54.8224 62.543L63.8953 56.9926Z" fill="#FFC966"/>
<path d="M63.8953 56.9926C63.8953 56.9926 61.8618 53.1034 61.4951 50.7088C61.1284 48.3142 59.4616 41.2637 57.9782 37.9301C56.4947 34.5966 49.2887 30.3518 47.9775 30.5352C46.6662 30.7185 43.9105 37.7579 44.0883 40.7081C44.2661 43.6583 47.6052 47.5475 48.533 48.842C49.4609 50.1366 51.6777 57.1759 53.1556 59.3983C54.6335 61.6207 54.8224 62.543 54.8224 62.543L63.8953 56.9926Z" stroke="#001550" stroke-width="0.8" stroke-linecap="round" stroke-linejoin="round"/>
<path d="M46.6929 38.8745C46.6929 38.8745 41.137 37.3966 39.6702 37.7633C38.2034 38.13 38.9257 39.9857 40.9647 40.5413C42.0638 40.8065 43.1026 41.2778 44.0261 41.9303L45.8762 44.7082" fill="#FFC966"/>
<path d="M46.6929 38.8745C46.6929 38.8745 41.137 37.3966 39.6702 37.7633C38.2034 38.13 38.9257 39.9857 40.9647 40.5413C42.0638 40.8065 43.1026 41.2778 44.0261 41.9303L45.8762 44.7082" stroke="#001550" stroke-width="0.8" stroke-linecap="round" stroke-linejoin="round"/>
<path d="M47.9893 28.1516H52.434V46.3362C52.434 46.5712 52.3877 46.8038 52.2978 47.0209C52.2079 47.2379 52.0761 47.4351 51.91 47.6013C51.7439 47.7674 51.5467 47.8992 51.3296 47.9891C51.1126 48.079 50.8799 48.1253 50.645 48.1253H49.7838C49.5489 48.1253 49.3163 48.079 49.0992 47.9891C48.8821 47.8992 48.6849 47.7674 48.5188 47.6013C48.3527 47.4351 48.2209 47.2379 48.131 47.0209C48.0411 46.8038 47.9948 46.5712 47.9948 46.3362V28.1516H47.9893Z" fill="white" stroke="#001550" stroke-width="0.8" stroke-linecap="round" stroke-linejoin="round"/>
<path d="M53.2577 27.407H47.1572V29.0738H53.2577V27.407Z" fill="white" stroke="#001550" stroke-width="0.8" stroke-linecap="round" stroke-linejoin="round"/>
<path d="M47.1587 27.4069C47.1587 27.4069 44.6641 26.8513 44.6641 29.257C44.6641 31.6628 46.5142 32.2184 47.9976 30.5516C49.4811 28.8848 48.5477 27.2236 47.1587 27.4069Z" fill="#FFC966" stroke="#001550" stroke-width="0.8" stroke-linecap="round" stroke-linejoin="round"/>
<path d="M60.0098 43.8637C60.0098 43.8637 58.5319 37.0243 57.4263 34.2519C56.3206 31.4795 53.1704 28.8904 52.4259 28.1403C51.6814 27.3903 50.948 30.3627 51.5036 31.2795C52.0592 32.1962 53.1704 34.4241 53.1704 34.4241C53.1704 34.4241 51.3203 42.3747 53.726 44.2248" fill="#FFC966"/>
<path d="M60.0098 43.8637C60.0098 43.8637 58.5319 37.0243 57.4263 34.2519C56.3206 31.4795 53.1704 28.8904 52.4259 28.1403C51.6814 27.3903 50.948 30.3627 51.5036 31.2795C52.0592 32.1962 53.1704 34.4241 53.1704 34.4241C53.1704 34.4241 51.3203 42.3747 53.726 44.2248" stroke="#001550" stroke-width="0.8" stroke-linecap="round" stroke-linejoin="round"/>
<path d="M47.2541 35.1743C47.2541 35.1743 43.5538 34.8076 43.1871 36.1022C42.8204 37.3967 43.5538 38.1356 44.665 38.1356C45.7762 38.1356 48.5542 38.6912 48.732 37.3967C48.9097 36.1021 48.5486 34.991 47.2541 35.1743Z" fill="#FFC966" stroke="#001550" stroke-width="0.8" stroke-linecap="round" stroke-linejoin="round"/>
<path d="M47.6254 32.0296C47.6254 32.0296 43.9252 31.663 43.5529 32.9575C43.1807 34.252 43.9252 34.991 45.0364 34.991C46.1475 34.991 48.9255 35.5466 49.1033 34.252C49.2811 32.9575 48.92 31.8463 47.6254 32.0296Z" fill="#FFC966" stroke="#001550" stroke-width="0.8" stroke-linecap="round" stroke-linejoin="round"/>
<path d="M63.5261 54.5924L52.6143 61.0595C52.6143 61.0595 56.6812 68.4601 58.9036 74.7438C61.126 81.0276 65.5707 92.8673 72.9546 92.6784C80.3385 92.4895 87.1945 83.0667 87.1945 83.0667L78.6883 58.2871L71.1045 68.6434L63.5261 54.5924Z" fill="white"/>
<path d="M63.5252 54.5924L52.6133 61.0595C52.6133 61.0595 56.6802 68.4601 58.9026 74.7438C61.125 81.0276 65.5698 92.8673 72.9536 92.6784C80.3375 92.4895 87.1935 83.0667 87.1935 83.0667L78.6874 58.2871L71.1035 68.6434L63.5252 54.5924Z" fill="#10B981" stroke="#001550" stroke-width="0.8" stroke-linecap="round" stroke-linejoin="round"/>
<path d="M63.5261 54.5924L52.6143 61.0595C52.6143 61.0595 56.6812 68.4601 58.9036 74.7438C61.126 81.0276 65.5707 92.8673 72.9546 92.6784C80.3385 92.4895 87.1945 83.0667 87.1945 83.0667L78.6883 58.2871L71.1045 68.6434L63.5261 54.5924Z" stroke="#001550" stroke-width="0.8" stroke-linecap="round" stroke-linejoin="round"/>
<path d="M98.6308 36.0743C98.6308 36.0743 107.27 37.6189 112.265 40.019C117.26 42.4192 124.177 47.0084 127.133 56.2535C130.089 65.4986 128.611 109.196 128.611 109.196H82.7575C82.7575 109.196 84.9798 90.0893 82.9408 81.4164C80.9018 72.7436 78.6738 72.6658 77.4626 66.3042C73.8513 47.3973 84.0242 34.0408 98.6308 36.0743Z" fill="#10B981"/>
<path d="M112.835 109.524C115.297 103.04 119.408 87.689 119.408 87.689C119.408 87.689 105.146 84.1666 103.107 77.6883C101.068 71.2101 105.518 57.298 105.518 57.298C105.518 57.298 94.773 73.9658 93.2951 76.5605C91.8173 79.1551 83.6611 50.6308 80.8831 43.9637C80.8725 43.9349 80.8595 43.907 80.8443 43.8804C77.1996 49.3141 75.7105 57.148 77.4607 66.2875C78.6719 72.6491 80.9054 72.7102 82.9389 81.3997C84.9723 90.0892 82.7555 109.507 82.7555 109.507L112.835 109.524Z" fill="#10B981"/>
<path d="M98.6308 36.0743C98.6308 36.0743 107.27 37.6189 112.265 40.019C117.26 42.4192 124.177 47.0084 127.133 56.2535C130.089 65.4986 128.611 109.196 128.611 109.196H82.7575C82.7575 109.196 84.9798 90.0893 82.9408 81.4164C80.9018 72.7436 78.6738 72.6658 77.4626 66.3042C73.8513 47.3973 84.0242 34.0408 98.6308 36.0743Z" stroke="#001550" stroke-width="0.8" stroke-linecap="round" stroke-linejoin="round"/>
<path d="M79.5249 59.3094L81.375 60.5372L79.9361 63.6208C79.9361 63.6208 81.6028 69.3712 83.4252 72.8604C85.2475 76.3495 87.1199 79.433 87.1199 79.433C87.1199 79.433 93.0759 72.8603 95.7427 68.7545C98.4096 64.6487 100.882 59.7205 100.882 59.7205L98.4151 57.6648L103.549 54.3757C103.549 54.3757 105.493 43.6749 104.66 37.4189C101.376 36.5633 98.6318 36.0744 98.6318 36.0744C90.0701 34.8799 84.0641 38.0857 80.5194 42.236L79.7305 44.5194C79.1039 47.2117 78.8276 49.9736 78.9082 52.7367C78.9998 54.9368 79.2057 57.1306 79.5249 59.3094V59.3094Z" stroke="#001550" stroke-width="0.8" stroke-linecap="round" stroke-linejoin="round"/>
<path d="M81.8927 45.9194C81.8927 45.9194 81.6927 55.7646 82.6761 60.8872C83.6595 66.0097 87.4042 73.8825 87.4042 73.8825C87.4042 73.8825 93.5157 61.8706 96.0715 55.1756C98.6272 48.4807 98.6272 36.0743 98.6272 36.0743L84.8429 34.8909L81.8927 45.9194Z" fill="white" stroke="#001550" stroke-width="0.8" stroke-linecap="round" stroke-linejoin="round"/>
<path d="M83.7559 57.6036L86.5172 61.9706L85.1393 68.1766L87.4061 73.8881L89.7341 68.1766L88.8173 62.204L91.5731 56.4536L87.2061 51.631L83.7559 57.6036Z" fill="#001550" stroke="#001550" stroke-width="0.8" stroke-linecap="round" stroke-linejoin="round"/>
<path d="M87.1756 56.5425L93.8428 60.9873C93.8428 60.9873 98.2875 50.8477 98.8431 45.3362C99.218 42.257 99.1507 39.1401 98.6431 36.08L89.7703 35.0743L81.8975 45.9029L82.6809 60.8873L87.1756 56.5425Z" fill="white" stroke="#001550" stroke-width="0.8" stroke-linecap="round" stroke-linejoin="round"/>
<path d="M78.3457 46.314L87.1686 56.5425L92.7245 37.6523L89.7687 28.7905C89.7687 28.7905 87.8019 37.4578 84.2572 40.4136C82.112 42.1971 80.1333 44.1721 78.3457 46.314Z" fill="white" stroke="#001550" stroke-width="0.8" stroke-linecap="round" stroke-linejoin="round"/>
<path d="M60.4874 84.9835L52.9979 71.6492V62.4985C53.274 62.3929 53.5042 62.1936 53.6484 61.9355C53.7925 61.6774 53.8414 61.3768 53.7864 61.0863C53.7315 60.7959 53.5763 60.5339 53.3479 60.3462C53.1195 60.1585 52.8324 60.0571 52.5368 60.0595H44.714C44.4184 60.0571 44.1313 60.1585 43.9029 60.3462C43.6745 60.5339 43.5193 60.7959 43.4644 61.0863C43.4094 61.3768 43.4583 61.6774 43.6024 61.9355C43.7465 62.1936 43.9768 62.3929 44.2529 62.4985V71.3325L36.7468 85.039C36.4752 85.5617 36.3432 86.1456 36.3633 86.7343C36.3835 87.3229 36.5553 87.8964 36.862 88.3993C37.1687 88.9021 37.6001 89.3172 38.1142 89.6046C38.6284 89.8919 39.208 90.0417 39.797 90.0394H57.476C58.0689 90.0384 58.6515 89.8837 59.1667 89.5904C59.682 89.297 60.1123 88.875 60.4157 88.3656C60.7191 87.8562 60.8852 87.2768 60.8978 86.684C60.9103 86.0912 60.7689 85.5053 60.4874 84.9835Z" fill="white" stroke="#001550" stroke-width="0.8" stroke-linecap="round" stroke-linejoin="round"/>
<path d="M56.2772 80.233C53.3825 81.1386 49.8101 81.6498 46.8932 80.1941C45.3198 79.3436 43.608 78.7793 41.8373 78.5273L38.6982 84.2555C38.4758 84.6914 38.369 85.177 38.3879 85.666C38.4067 86.1549 38.5507 86.6309 38.8059 87.0483C39.0612 87.4658 39.4193 87.8108 39.8459 88.0504C40.2725 88.29 40.7535 88.4162 41.2428 88.4169H56.0049C56.4986 88.4164 56.9837 88.2881 57.4131 88.0446C57.8425 87.8011 58.2016 87.4506 58.4555 87.0273C58.7094 86.6039 58.8494 86.1221 58.862 85.6286C58.8746 85.1352 58.7593 84.6468 58.5273 84.2111L56.2772 80.233Z" fill="white" stroke="#001550" stroke-width="0.8" stroke-linecap="round" stroke-linejoin="round"/>
<path d="M60.4874 84.9835L52.9979 71.6492V62.4985C53.274 62.3929 53.5042 62.1936 53.6484 61.9355C53.7925 61.6774 53.8414 61.3768 53.7864 61.0863C53.7315 60.7959 53.5763 60.5339 53.3479 60.3462C53.1195 60.1585 52.8324 60.0571 52.5368 60.0595H44.714C44.4184 60.0571 44.1313 60.1585 43.9029 60.3462C43.6745 60.5339 43.5193 60.7959 43.4644 61.0863C43.4094 61.3768 43.4583 61.6774 43.6024 61.9355C43.7465 62.1936 43.9768 62.3929 44.2529 62.4985V71.3325L36.7468 85.039C36.4752 85.5617 36.3432 86.1456 36.3633 86.7343C36.3835 87.3229 36.5553 87.8964 36.862 88.3993C37.1687 88.9021 37.6001 89.3172 38.1142 89.6046C38.6284 89.8919 39.208 90.0417 39.797 90.0394H57.476C58.0689 90.0384 58.6515 89.8837 59.1667 89.5904C59.682 89.297 60.1123 88.875 60.4157 88.3656C60.7191 87.8562 60.8852 87.2768 60.8978 86.684C60.9103 86.0912 60.7689 85.5053 60.4874 84.9835Z" fill="white" stroke="#001550" stroke-width="0.8" stroke-linecap="round" stroke-linejoin="round"/>
<path d="M56.2772 80.233C53.3825 81.1386 49.8101 81.6498 46.8932 80.1941C45.3198 79.3436 43.608 78.7793 41.8373 78.5273L38.6982 84.2555C38.4758 84.6914 38.369 85.177 38.3879 85.666C38.4067 86.1549 38.5507 86.6309 38.8059 87.0483C39.0612 87.4658 39.4193 87.8108 39.8459 88.0504C40.2725 88.29 40.7535 88.4162 41.2428 88.4169H56.0049C56.4986 88.4164 56.9837 88.2881 57.4131 88.0446C57.8425 87.8011 58.2016 87.4506 58.4555 87.0273C58.7094 86.6039 58.8494 86.1221 58.862 85.6286C58.8746 85.1352 58.7593 84.6468 58.5273 84.2111L56.2772 80.233Z" fill="#001550" stroke="#001550" stroke-width="0.8" stroke-linecap="round" stroke-linejoin="round"/>
<path d="M74.0637 79.3662L68.1466 73.6381C68.1466 73.6381 67.7744 71.4157 67.0354 70.8601C66.3899 70.3373 65.7724 69.7809 65.1853 69.1933C65.1853 69.1933 60.7405 60.3038 58.9015 57.7258C58.2111 56.7064 57.2697 55.8821 56.1681 55.3323C55.0665 54.7825 53.8418 54.5257 52.6122 54.5867C50.9454 54.77 43.7226 55.3256 43.0004 56.9869C42.7726 57.498 43.7393 59.0203 43.7393 59.0203C43.7393 59.0203 41.8892 59.9482 42.2614 61.6094C42.6337 63.2706 43.3726 63.4595 43.3726 63.4595C43.3726 63.4595 41.1502 65.1263 41.8947 66.4209C42.0815 66.7837 42.3429 67.1029 42.6618 67.3576C42.9806 67.6123 43.3497 67.7967 43.7449 67.8987C43.7449 67.8987 42.267 69.5655 43.9282 70.1211C45.0815 70.4921 46.2536 70.8018 47.4396 71.049C47.4396 71.049 49.4731 76.2216 51.3287 76.4105C52.6983 76.5732 54.0565 76.82 55.3957 77.1494C55.3957 77.1494 59.096 84.7277 62.0628 88.2613C65.0297 91.7949 70.3968 92.1505 70.3968 92.1505L74.0637 79.3662Z" fill="#FFC966"/>
<path d="M74.0637 79.3662L68.1466 73.638C68.1466 73.638 67.7744 71.4157 67.0354 70.8601C66.3899 70.3373 65.7724 69.7809 65.1853 69.1933C65.1853 69.1933 60.7405 60.3038 58.9015 57.7258C58.2111 56.7064 57.2697 55.8821 56.1681 55.3323C55.0665 54.7825 53.8418 54.5257 52.6122 54.5867C50.9454 54.77 43.7226 55.3256 43.0004 56.9869C42.7726 57.498 43.7393 59.0203 43.7393 59.0203C43.7393 59.0203 41.8892 59.9482 42.2614 61.6094C42.6337 63.2706 43.3726 63.4595 43.3726 63.4595C43.3726 63.4595 41.1502 65.1263 41.8947 66.4209C42.0815 66.7837 42.3429 67.1029 42.6618 67.3576C42.9806 67.6123 43.3497 67.7967 43.7449 67.8987C43.7449 67.8987 42.267 69.5655 43.9282 70.1211C45.0815 70.4921 46.2536 70.8018 47.4396 71.049C47.4396 71.049 49.4731 76.2216 51.3287 76.4105C52.6983 76.5732 54.0565 76.82 55.3957 77.1494C55.3957 77.1494 59.096 84.7277 62.0628 88.2613C65.0297 91.7949 70.3968 92.1505 70.3968 92.1505L74.0637 79.3662Z" stroke="#001550" stroke-width="0.8" stroke-linecap="round" stroke-linejoin="round"/>
<path d="M43.7402 59.026L50.3963 58.6593" stroke="#001550" stroke-width="0.8" stroke-linecap="round" stroke-linejoin="round"/>
<path d="M43.3711 63.4651L48.7326 63.0984" stroke="#001550" stroke-width="0.8" stroke-linecap="round" stroke-linejoin="round"/>
<path d="M43.7402 67.9045L47.8072 67.5322" stroke="#001550" stroke-width="0.8" stroke-linecap="round" stroke-linejoin="round"/>
<path d="M108.635 47.5641C108.635 47.5641 105.68 54.0368 105.124 59.2316C104.568 64.4264 97.5457 84.2834 97.5457 84.2834C97.5457 84.2834 83.3058 80.3109 79.2388 79.1997C76.4783 78.3804 73.8258 77.2332 71.3382 75.7827L63.0654 90.7227C63.0654 90.7227 86.0837 104.174 96.4345 105.835C106.785 107.496 108.48 107.857 113.475 103.412C118.469 98.9677 126.203 69.3823 126.203 69.3823" fill="#10B981"/>
<path d="M108.635 47.5641C108.635 47.5641 105.68 54.0368 105.124 59.2316C104.568 64.4264 97.5457 84.2834 97.5457 84.2834C97.5457 84.2834 83.3058 80.3109 79.2388 79.1997C76.4783 78.3804 73.8258 77.2332 71.3382 75.7827L63.0654 90.7227C63.0654 90.7227 86.0837 104.174 96.4345 105.835C106.785 107.496 108.48 107.857 113.475 103.412C118.469 98.9677 126.203 69.3823 126.203 69.3823" stroke="#001550" stroke-width="0.8" stroke-linecap="round" stroke-linejoin="round"/>
<path d="M67.5156 18.5453C67.5156 18.5453 66.5322 26.4237 68.1046 33.513C69.6769 40.6024 72.6382 49.6642 74.805 49.8586C76.9718 50.0531 88.1949 42.5748 88.9838 38.8301C89.7728 35.0854 89.7672 33.513 89.7672 28.7849C89.8155 24.9039 89.6188 21.0237 89.1783 17.1674C88.7838 14.2117 87.0115 11.0559 81.6944 11.8504C76.3774 12.6449 69.4824 14.8062 67.5156 18.5453Z" fill="white"/>
<path d="M67.5156 18.5453C67.5156 18.5453 66.5322 26.4237 68.1046 33.513C69.6769 40.6024 72.6382 49.6642 74.805 49.8586C76.9718 50.0531 88.1949 42.5748 88.9838 38.8301C89.7728 35.0854 89.7672 33.513 89.7672 28.7849C89.8155 24.9039 89.6188 21.0237 89.1783 17.1674C88.7838 14.2117 87.0115 11.0559 81.6944 11.8504C76.3774 12.6449 69.4824 14.8062 67.5156 18.5453Z" stroke="#001550" stroke-width="0.8" stroke-linecap="round" stroke-linejoin="round"/>
<path d="M78.7362 6.33891C72.2412 7.1223 64.1629 12.0504 60.6182 15.3951C57.0735 18.7398 66.9242 16.5785 66.9242 16.5785L64.1462 21.5011C64.1462 21.5011 68.2854 19.9232 71.8301 18.3509C75.3748 16.7785 84.6088 15.7896 84.6088 15.7896L80.6696 20.1232L86.5756 21.3066C86.5756 21.3066 85.6644 24.968 86.52 25.9736C86.4312 30.1295 86.1978 35.6966 85.5922 36.6633C84.6088 38.2412 82.8142 38.2412 76.1471 37.6467C70.5911 37.1578 69.6466 38.5579 69.4799 39.0579C71.0745 44.6139 73.1413 49.7142 74.7637 49.8587C76.9249 50.0587 88.1535 42.5748 88.9424 38.8301C89.7314 35.0854 89.7258 33.5131 89.7258 28.7849C89.7258 27.2237 89.7258 25.7625 89.6592 24.3846C89.9258 24.0846 90.1481 23.8624 90.3203 23.8624C90.9092 23.8624 92.0927 24.6513 92.0927 24.6513C92.0927 24.6513 93.0761 17.5619 93.0761 13.4283C93.0761 9.29467 85.2366 5.54996 78.7362 6.33891Z" fill="#001550" stroke="#001550" stroke-width="0.8" stroke-linecap="round" stroke-linejoin="round"/>
<path d="M72.0469 41.3915L75.9861 40.8026" stroke="white" stroke-width="0.8" stroke-linecap="round" stroke-linejoin="round"/>
<path d="M70.6666 31.5463C70.6666 31.5463 68.1053 35.6799 69.0943 36.4688C70.0832 37.2578 73.4224 37.0578 73.4224 37.0578" fill="white"/>
<path d="M70.6666 31.5463C70.6666 31.5463 68.1053 35.6799 69.0943 36.4688C70.0832 37.2578 73.4224 37.0578 73.4224 37.0578" stroke="#001550" stroke-width="0.8" stroke-linecap="round" stroke-linejoin="round"/>
<path d="M66.5339 27.4072C66.5339 27.4072 64.9561 29.574 64.9561 30.9519C64.9561 32.3298 68.7008 35.2855 68.7008 35.2855C68.7008 35.2855 69.8786 30.7574 71.4787 31.7408C73.0789 32.7242 73.4455 34.5188 75.2179 34.5188C76.9902 34.5188 82.7018 33.1409 83.6907 31.3686C84.6797 29.5962 85.0686 26.2515 85.0686 26.2515L90.9746 24.8737L90.7801 23.1013L66.5339 27.4072Z" fill="white" stroke="#001550" stroke-width="0.8" stroke-linecap="round" stroke-linejoin="round"/>
<path d="M90.7566 23.0791L66.7271 26.4127C66.7271 26.4127 65.3492 27.3961 66.5326 27.3961C67.716 27.3961 90.7566 23.0791 90.7566 23.0791Z" fill="#001550" stroke="#001550" stroke-width="0.8" stroke-linecap="round" stroke-linejoin="round"/>
<path d="M75.3892 30.9739C75.6807 30.9739 75.917 30.4316 75.917 29.7627C75.917 29.0938 75.6807 28.5515 75.3892 28.5515C75.0976 28.5515 74.8613 29.0938 74.8613 29.7627C74.8613 30.4316 75.0976 30.9739 75.3892 30.9739Z" fill="#001550"/>
<path d="M69.6421 31.3741C69.9336 31.3741 70.1699 30.8318 70.1699 30.1629C70.1699 29.4939 69.9336 28.9517 69.6421 28.9517C69.3506 28.9517 69.1143 29.4939 69.1143 30.1629C69.1143 30.8318 69.3506 31.3741 69.6421 31.3741Z" fill="#001550"/>
<path d="M73.7871 24.179C73.7871 24.179 74.7538 22.1566 77.5874 22.5622" stroke="#001550" stroke-width="0.8" stroke-linecap="round" stroke-linejoin="round"/>
<path d="M70.4051 24.7457C69.9944 24.5179 69.5297 24.4054 69.0602 24.4201C68.5908 24.4348 68.134 24.576 67.7383 24.829" stroke="#001550" stroke-width="0.8" stroke-linecap="round" stroke-linejoin="round"/>
<path d="M88.1963 27.8016C88.1963 27.8016 88.1963 20.7122 91.1465 21.69C94.0967 22.6679 92.5299 29.3739 91.9355 30.7518C91.341 32.1296 88.7852 31.9352 88.7852 31.9352" fill="white"/>
<path d="M88.1963 27.8016C88.1963 27.8016 88.1963 20.7122 91.1465 21.69C94.0967 22.6679 92.5299 29.3739 91.9355 30.7518C91.341 32.1296 88.7852 31.9352 88.7852 31.9352" stroke="#001550" stroke-width="0.8" stroke-linecap="round" stroke-linejoin="round"/>
<path d="M91.9756 24.2013C91.902 24.0626 91.7987 23.9418 91.6732 23.8474C91.5477 23.7529 91.403 23.6873 91.2493 23.6549C91.0956 23.6226 90.9367 23.6244 90.7838 23.6603C90.6309 23.6961 90.4877 23.7651 90.3644 23.8624C89.3088 24.5569 90.0088 27.0182 90.0088 27.0182C90.0088 27.0182 91.5089 26.7348 91.32 27.8627C91.1311 28.9906 90.4588 28.7961 90.4588 28.7961" stroke="#001550" stroke-width="0.8" stroke-linecap="round" stroke-linejoin="round"/>
<path d="M149.74 109.169L29.0557 109.169" stroke="#001550" stroke-width="0.8" stroke-linecap="round" stroke-linejoin="round"/>
</svg>
