<svg width="170" height="120" viewBox="0 0 170 120" fill="none" xmlns="http://www.w3.org/2000/svg">
<path opacity="0.5" d="M140.274 42.7472C135.623 26.3818 123.202 13.3781 107.212 7.57602C101.254 5.43154 95.0993 3.87524 88.8374 2.92936C63.0965 -1.03002 50.0829 15.9032 48.7456 25.4231C47.4084 34.943 36.3595 35.1074 30.916 49.4632C25.4725 63.8191 19.2122 96.8214 61.1118 111.837C103.012 126.853 120.983 114.746 125.797 104.74C130.61 94.7346 132.727 86.9204 140.317 64.8077C142.874 57.3446 142.237 49.6575 140.274 42.7472Z" fill="#D9E3FF"/>
<path d="M58.7274 58.1138C53.2718 60.7974 48.7365 65.075 45.2577 70.0226C42.0845 74.5321 38.8414 80.3669 37.991 85.8887C37.575 88.5908 37.3357 91.4548 37.5566 93.1261C37.7775 94.7973 47.183 99.8664 64.0615 102.329C80.94 104.792 100.738 104.151 108.049 101.729C115.36 99.3069 129.654 94.639 131.715 90.8768C133.777 87.1146 130.316 73.7885 124.39 67.2654C113.453 55.2167 102.88 51.506 88.5859 50.9685C74.2917 50.4311 58.7274 58.1138 58.7274 58.1138Z" fill="#001550" stroke="#001550" stroke-miterlimit="10"/>
<path d="M61.556 64.7144C62.4616 64.7144 62.6346 65.0273 62.7083 65.1635C63.5439 66.6839 61.9131 69.7098 60.5584 70.4718C60.2469 70.6086 59.908 70.6716 59.5682 70.6559C58.5374 70.6559 57.4588 70.2547 56.9471 69.6804C56.8327 69.5617 56.7469 69.4184 56.6965 69.2614C56.6461 69.1044 56.6323 68.9379 56.6563 68.7748C56.903 66.6323 59.0307 65.3586 59.3731 65.1635C60.0716 64.8965 60.8089 64.7449 61.556 64.7144ZM61.556 62.8738C60.5458 62.9067 59.5492 63.116 58.6111 63.4922C58.6111 63.4922 55.239 65.1782 54.8488 68.5539C54.5543 71.1124 57.3189 72.4781 59.5792 72.4781C60.2343 72.4978 60.8837 72.3522 61.4677 72.0548C63.5439 70.8878 65.749 66.8642 64.3243 64.269C63.728 63.1904 62.6383 62.8738 61.5671 62.8738H61.556Z" fill="#001550" stroke="#001550" stroke-miterlimit="10"/>
<path d="M63.3118 78.3091C65.4064 78.3091 67.9612 79.6564 68.7895 82.2333C69.7245 85.1304 68.0533 88.1233 65.8887 89.0841C65.3253 89.3327 64.7154 89.4582 64.0996 89.4522C60.757 89.4522 57.5139 86.279 57.4402 83.8162C57.3813 81.9498 59.1594 80.135 59.8478 79.6049C60.7909 78.8245 61.9605 78.3689 63.183 78.3054H63.3118V78.3091ZM63.3118 76.4648H63.1351C61.5197 76.5375 59.9707 77.1287 58.7176 78.1508C58.5152 78.3091 55.5076 80.7277 55.6033 83.8604C55.7137 87.5011 59.9656 91.2707 64.0922 91.2707C64.9669 91.2757 65.8327 91.0951 66.6323 90.7406C69.6546 89.3786 71.7345 85.3992 70.527 81.6553C69.4595 78.3422 66.2274 76.4611 63.3045 76.4611L63.3118 76.4648Z" fill="#001550" stroke="#001550" stroke-miterlimit="10"/>
<path d="M70.1196 66.7869C70.0902 66.9636 70.057 67.1551 70.0239 67.3612C69.5858 70.0632 69.5674 70.4534 69.6227 70.9688C69.7081 71.7649 69.9389 72.5385 70.3037 73.2512C70.1281 73.251 69.9534 73.2263 69.7846 73.1776C68.7392 72.8463 67.944 71.024 68.1907 69.4963C68.3416 68.6925 68.7483 67.9591 69.3502 67.4054C69.5863 67.1751 69.844 66.968 70.1196 66.7869ZM71.478 64.3463C70.5577 64.3463 69.0668 65.1193 68.0692 66.0985C67.1818 66.9244 66.5896 68.0184 66.3832 69.2129C66.015 71.4584 67.1489 74.2672 69.2361 74.9225C69.5942 75.0309 69.9664 75.0855 70.3405 75.0844C71.2939 75.0844 72.2179 74.7458 72.483 74.142C72.8511 73.3174 71.6547 72.699 71.4449 70.77C71.4191 70.516 71.4117 70.2657 71.8351 67.6557C72.2474 65.112 72.3505 64.777 72.0964 64.5414C71.9242 64.3999 71.704 64.33 71.4817 64.3463H71.478Z" fill="#001550" stroke="#001550" stroke-miterlimit="10"/>
<path d="M70.3741 58.066C71.0662 58.066 71.6773 58.5299 71.7215 58.7213C71.7215 59.0268 70.8085 59.9766 69.5348 60.5251C69.0935 60.7369 68.6213 60.8773 68.1359 60.9411C68.1994 60.4878 68.3323 60.0471 68.5298 59.6342C68.6587 59.3729 69.3471 58.066 70.3704 58.066H70.3741ZM70.3704 56.2254C68.1617 56.2254 67.0389 58.5262 66.899 58.8207C66.8033 59.0084 65.721 61.2908 66.7665 62.3252C67.1117 62.6321 67.5644 62.7896 68.0255 62.7633C68.8034 62.7173 69.5655 62.5237 70.2711 62.1927C71.5595 61.6405 73.9228 60.0686 73.5142 58.3016C73.2308 57.0684 71.7215 56.2364 70.3999 56.2254H70.3704Z" fill="#001550" stroke="#001550" stroke-miterlimit="10"/>
<path d="M50.9515 70.4976C50.7601 71.3553 50.4582 72.7689 51.4559 73.9984C52.4535 75.228 53.9628 75.2648 54.953 75.2795C55.1408 75.2795 55.3837 75.2795 55.5788 75.3053L55.5531 75.3826C55.4795 75.6071 55.1076 75.9421 53.764 76.255C53.329 76.3625 52.8831 76.4193 52.4351 76.4244C51.7191 76.4603 51.0158 76.225 50.4656 75.7654C49.6889 75.066 49.5747 74.0389 49.5085 73.4241C49.4054 72.5038 49.3502 71.5614 49.8766 71.0313C50.1759 70.7575 50.5456 70.5727 50.9442 70.4976H50.9515ZM51.2902 68.6312C50.283 68.6481 49.3189 69.0422 48.5882 69.7355C47.3844 70.9319 47.5758 72.6805 47.6789 73.6266C47.7636 74.3629 47.9366 75.9679 49.2361 77.1311C50.1217 77.8924 51.2604 78.2943 52.4277 78.2576C53.0146 78.2531 53.5989 78.1802 54.1689 78.0404C54.9346 77.8637 56.7937 77.433 57.2833 75.9642C57.3311 75.8206 57.6514 74.8598 57.1544 74.1457C56.2525 72.8462 53.8413 74.0352 52.8695 72.8499C51.9786 71.7455 53.4695 70.0079 52.6118 69.0876C52.4335 68.9268 52.2244 68.8038 51.9973 68.726C51.7702 68.6482 51.5296 68.6172 51.2902 68.6349V68.6312Z" fill="#001550" stroke="#001550" stroke-miterlimit="10"/>
<path d="M44.2396 79.1999L44.3316 79.4208C44.668 80.4251 45.3504 81.2771 46.2569 81.8247C46.8054 82.1441 47.423 82.326 48.0571 82.3548C48.2662 82.3508 48.4725 82.4043 48.6534 82.5094C48.9352 82.6257 49.187 82.8044 49.3897 83.0321C49.1786 83.4 48.9115 83.7328 48.5982 84.0187C48.0806 84.5698 47.3941 84.9325 46.6471 85.0494C46.4708 85.0796 46.2922 85.0944 46.1134 85.0936C45.5477 85.1022 44.9912 84.9503 44.5083 84.6555C43.7901 84.1669 43.2847 83.4233 43.0948 82.5756C42.6972 81.2467 42.7266 80.308 43.2089 79.7889C43.4878 79.4946 43.8478 79.2897 44.2433 79.1999H44.2396ZM44.3464 77.3593C43.3931 77.4201 42.5007 77.8492 41.8579 78.5557C40.4479 80.0982 41.1216 82.4137 41.3388 83.0984C41.6557 84.378 42.4447 85.4905 43.5475 86.2127C44.3238 86.6843 45.2161 86.9303 46.1244 86.9232C46.833 86.9229 47.5342 86.7792 48.1858 86.5009C48.8374 86.2225 49.426 85.8152 49.9161 85.3034C50.4867 84.7218 51.4107 83.7868 51.2119 82.7082C51.0131 81.6296 49.9382 81.1105 49.5259 80.8896C48.4215 80.308 48.0534 80.7313 47.1883 80.2417C45.8446 79.4613 46.2201 78.033 45.1121 77.5176C44.8749 77.411 44.6174 77.357 44.3574 77.3593H44.3464Z" fill="#001550" stroke="#001550" stroke-miterlimit="10"/>
<path d="M53.2821 88.3958H53.3336C53.5471 88.4363 53.9079 88.7345 54.2245 89.3125C54.3017 89.4512 54.3694 89.5952 54.4269 89.7432C54.1019 89.7597 53.7783 89.7991 53.4588 89.861C52.868 89.9635 52.2919 90.1378 51.7433 90.38C51.0841 90.6768 50.4851 91.0923 49.9763 91.6059C49.9293 91.4333 49.9082 91.2546 49.9137 91.0758C49.9395 90.3984 50.9776 89.7137 51.8169 89.1652C52.3654 88.7971 52.9913 88.3922 53.2894 88.3922L53.2821 88.3958ZM53.2894 86.5515C52.4501 86.5515 51.6881 87.0522 50.8156 87.6265C49.6597 88.3848 48.1504 89.3787 48.0915 90.9985C48.0363 92.4931 49.0413 94.1128 49.9027 94.1128C50.6721 94.1128 50.8304 92.7876 52.498 92.0366C52.9128 91.8554 53.3478 91.7244 53.7938 91.6464C54.1215 91.5848 54.4542 91.5527 54.7877 91.5507C55.3031 91.5507 55.6528 91.6317 55.8921 91.6317C55.958 91.6387 56.0246 91.6323 56.0879 91.6127C56.1512 91.593 56.2099 91.5607 56.2602 91.5175C57.0222 90.8181 55.8921 86.997 53.6649 86.5884C53.5437 86.5645 53.4204 86.5521 53.2968 86.5515H53.2894Z" fill="#001550" stroke="#001550" stroke-miterlimit="10"/>
<path d="M58.5963 94.2341C59.0081 94.6851 59.5097 95.045 60.0688 95.2906C60.586 95.5141 61.1435 95.6293 61.7069 95.6293C62.3424 95.6101 62.9715 95.4959 63.5733 95.2906C63.8751 95.1844 64.1894 95.1176 64.5083 95.0919C64.7953 95.1068 65.0694 95.2155 65.2888 95.4011C65.2377 95.6089 65.1662 95.8111 65.0752 96.0048C64.8793 96.5058 64.52 96.9261 64.0555 97.1975C63.8347 97.319 63.588 97.3816 62.8481 97.3816C62.5389 97.3816 62.1744 97.3816 61.7437 97.3595C60.1093 97.3116 59.5608 97.2822 58.9423 96.9362C58.4453 96.6637 57.9889 96.384 57.8711 95.9643C57.7238 95.4416 58.1361 94.8415 58.2686 94.6427C58.4012 94.444 58.4932 94.3335 58.5742 94.2341H58.5963ZM58.6957 92.18C57.7349 92.18 57.0207 93.2291 56.7593 93.6083C56.498 93.9875 55.7286 95.1139 56.1114 96.465C56.4464 97.6503 57.4845 98.2246 58.0551 98.5412C59.0969 99.1118 60.0172 99.1412 61.6885 99.1891C62.1266 99.1891 62.5057 99.2112 62.8407 99.2112C63.5634 99.2661 64.2874 99.1236 64.9354 98.7989C65.7536 98.327 66.392 97.5967 66.7502 96.7226C66.9784 96.1925 67.2729 95.4968 67.0116 94.7753C66.8736 94.4738 66.6759 94.2035 66.4304 93.9808C66.1849 93.7581 65.8967 93.5875 65.5833 93.4795C65.2404 93.3361 64.8726 93.2623 64.501 93.2623C63.4813 93.2623 62.642 93.7997 61.6996 93.7997C61.384 93.8008 61.0717 93.7356 60.7829 93.6083C59.6786 93.1334 59.616 92.1874 58.7067 92.18H58.6957Z" fill="#001550" stroke="#001550" stroke-miterlimit="10"/>
<path d="M77.3063 75.4563C77.3468 75.6661 77.3763 75.8686 77.3984 76.049C77.5567 77.3853 77.2364 78.8357 76.6253 79.5793C76.49 79.754 76.318 79.897 76.1215 79.9981C75.9249 80.0992 75.7087 80.156 75.4878 80.1646H75.3442C74.2877 80.1646 73.2901 79.2406 73.0729 78.081C73.1686 78.081 73.2754 78.081 73.3858 78.081H73.4558C74.1012 78.0653 74.7347 77.9034 75.3085 77.6076C75.8824 77.3117 76.3817 76.8896 76.7689 76.3729C76.9846 76.085 77.1627 75.7708 77.299 75.4379L77.3063 75.4563ZM77.1959 72.5555H77.1628C76.9074 72.5948 76.6676 72.7029 76.4691 72.8683C76.2706 73.0337 76.121 73.2501 76.0363 73.4942C75.8302 73.9654 75.7492 74.4881 75.5136 74.9483C75.4541 75.063 75.3851 75.1726 75.3074 75.2759C75.0857 75.5694 74.8009 75.8094 74.474 75.9783C74.1472 76.1471 73.7867 76.2404 73.419 76.2514H73.3785C73.1171 76.2514 72.8484 76.2146 72.587 76.2146C72.3963 76.2088 72.2062 76.24 72.0275 76.3067C71.3354 76.5828 71.1292 77.481 71.236 78.2172C71.5231 80.2493 73.2459 81.9831 75.3369 81.9831H75.6167C78.6021 81.7659 79.5004 78.3019 79.2059 75.8281C79.0917 74.8452 78.8377 73.8292 78.1898 73.0966C78.0697 72.9445 77.9193 72.8189 77.7483 72.7277C77.5772 72.6365 77.3892 72.5816 77.1959 72.5665V72.5555Z" fill="#001550" stroke="#001550" stroke-miterlimit="10"/>
<path d="M79.4081 65.5022C80.3539 65.5304 81.2622 65.8781 81.985 66.4888C82.9752 67.2803 83.5311 68.4583 83.6415 69.9897C83.6968 70.7774 83.7667 71.753 83.347 72.1211C83.0692 72.3353 82.7259 72.4472 82.3752 72.4377C82.1614 72.4506 81.9486 72.3993 81.7641 72.2904C81.6735 72.1602 81.6051 72.0159 81.5616 71.8634C81.2585 70.9218 80.6327 70.1175 79.7946 69.5921C78.9427 69.1176 77.9746 68.8919 77.0006 68.9405H76.7908C76.3295 68.941 75.8695 68.9879 75.4177 69.0804C75.6099 68.5334 75.8722 68.0138 76.1981 67.5343C76.5662 66.9821 77.3724 65.8372 78.8007 65.5648C79.0032 65.5252 79.2091 65.5054 79.4155 65.5059L79.4081 65.5022ZM79.4155 63.6653C79.0944 63.6649 78.7739 63.6944 78.4584 63.7536C76.2975 64.1659 75.1452 65.8041 74.6961 66.4814C73.474 68.2411 72.9071 70.7517 73.658 71.267C73.7471 71.3302 73.8544 71.3625 73.9636 71.3591C74.501 71.3591 75.3146 70.748 76.7908 70.748H76.9012C77.5933 70.748 78.2301 70.748 78.8486 71.1382C80.0192 71.845 79.6732 72.9788 80.6634 73.7335C81.1656 74.0806 81.7649 74.2597 82.3752 74.2452C83.1717 74.2558 83.9459 73.9817 84.5582 73.4721C85.6625 72.5039 85.5447 70.9652 85.4638 69.8387C85.4196 69.1982 85.2429 66.7318 83.1298 65.0531C82.0804 64.1905 80.7734 63.7022 79.4155 63.6653Z" fill="#001550" stroke="#001550" stroke-miterlimit="10"/>
<path d="M65.6143 56.8659C64.9833 56.906 64.3623 57.0438 63.7736 57.2745C63.1331 57.5028 61.1563 58.2096 61.1747 59.4833C61.2202 59.8943 61.3964 60.2799 61.6774 60.5834C61.9583 60.8869 62.3292 61.0923 62.7355 61.1693C62.8265 61.187 62.919 61.1956 63.0116 61.1951C63.6853 61.1951 64.2264 60.757 64.6792 60.3926C65.813 59.4796 66.8585 57.7936 66.3689 57.1494C66.2697 57.0472 66.1486 56.9688 66.0146 56.9204C65.8807 56.8719 65.7375 56.8545 65.5959 56.8696L65.6143 56.8659Z" fill="#001550" stroke="#001550" stroke-miterlimit="10"/>
<path d="M58.3099 60.1201C58.1528 60.1201 57.9945 60.1274 57.835 60.1421C55.6263 60.3667 53.9108 62.2552 53.2924 64.0369C53.2629 64.1252 52.7586 65.6051 53.1635 65.8517C53.1949 65.873 53.2324 65.8833 53.2703 65.8812C53.5464 65.8812 54.1096 65.3953 55.8876 63.9081C57.9455 62.1852 58.2252 61.9754 58.7443 61.6993C59.7787 61.1508 60.445 61.0514 60.4303 60.7937C60.4119 60.4734 59.3995 60.1201 58.3099 60.1201Z" fill="#001550" stroke="#001550" stroke-miterlimit="10"/>
<path d="M41.1351 89.5701C41.8392 89.9866 42.6044 90.2897 43.4028 90.4683C43.6089 90.5125 43.8003 90.5493 43.9807 90.5751C43.8496 90.7455 43.7003 90.901 43.5353 91.0389C43.3015 91.2793 43.0039 91.4479 42.6776 91.5248C42.2284 91.5248 41.5732 90.6377 41.1351 89.5701ZM39.4528 86.1686C39.3848 86.1678 39.3176 86.1843 39.2577 86.2165C38.5951 86.5515 38.8896 88.3958 39.1288 89.3308C39.497 90.7297 40.6934 93.3029 42.6334 93.3544H42.6886C43.62 93.3544 44.3268 92.7617 44.7096 92.4451C45.7551 91.5727 46.6312 89.975 46.1342 89.202C45.7956 88.6719 45.0998 88.9701 43.8003 88.6829C41.275 88.1197 40.2148 86.1686 39.4528 86.1686Z" fill="#001550" stroke="#001550" stroke-miterlimit="10"/>
<path d="M81.5628 55.5886C82.4352 55.5565 83.2883 55.8505 83.9556 56.4132C84.5319 56.9515 84.8786 57.6911 84.9238 58.4784C84.9533 59.9987 83.6906 61.3718 83.039 61.4233C82.8206 61.2671 82.6161 61.0922 82.4279 60.9006C81.4229 59.8578 80.1488 59.1137 78.7467 58.7508C78.1296 58.5935 77.4951 58.5143 76.8582 58.5152H76.7552C77.2231 57.6435 77.9061 56.906 78.7393 56.3727C79.5883 55.8676 80.5566 55.5982 81.5444 55.5923L81.5628 55.5886ZM81.5444 53.7516C80.2306 53.7651 78.9443 54.1299 77.819 54.8082C75.5256 56.2144 74.0936 59.1373 74.8335 60.1275C74.9175 60.2322 75.0269 60.3135 75.1513 60.3638C75.2757 60.4141 75.4109 60.4316 75.544 60.4147C75.8901 60.4147 76.3318 60.3411 76.895 60.3411C77.3816 60.3389 77.8664 60.3982 78.3381 60.5178C81.0512 61.1988 81.4156 63.2456 83.0501 63.2456H83.1384C84.898 63.1682 86.8197 60.8417 86.7718 58.4599C86.7148 57.1742 86.1557 55.9622 85.2146 55.0843C84.2114 54.2064 82.9138 53.7397 81.5813 53.7774L81.5444 53.7516Z" fill="#001550" stroke="#001550" stroke-miterlimit="10"/>
<path d="M77.3249 85.7232C77.4603 85.724 77.595 85.7413 77.7262 85.7747C78.0776 85.8847 78.3926 86.0879 78.6377 86.3628C78.8827 86.6377 79.0486 86.9739 79.1177 87.3355C79.3496 88.532 78.2968 89.7578 77.2403 90.0155C77.0542 90.0573 76.8641 90.0783 76.6733 90.0781C76.4169 90.0894 76.1608 90.0475 75.9213 89.955C75.6818 89.8625 75.4641 89.7214 75.2818 89.5406C74.6855 88.8706 74.8879 87.6264 75.418 86.8607C75.631 86.5409 75.9127 86.2728 76.2427 86.076C76.5726 85.8792 76.9424 85.7586 77.3249 85.7232ZM77.3249 83.8825C75.8524 83.8825 74.5861 84.8286 73.9087 85.8115C72.9921 87.1478 72.6498 89.3161 73.9087 90.7444C74.2616 91.1213 74.6906 91.419 75.1672 91.6176C75.6438 91.8163 76.1572 91.9114 76.6733 91.8966C77.0092 91.8978 77.344 91.8595 77.671 91.7825C79.6993 91.2892 81.3301 89.1283 80.9178 86.9785C80.7833 86.2778 80.4571 85.6282 79.9756 85.1018C79.494 84.5754 78.8759 84.1929 78.19 83.9967C77.9082 83.9195 77.6171 83.8811 77.3249 83.8825Z" fill="#001550" stroke="#001550" stroke-miterlimit="10"/>
<path d="M71.5382 92.9531C71.6807 92.9498 71.8224 92.9761 71.9542 93.0304C71.9197 93.2883 71.8386 93.5378 71.7149 93.7667C71.5192 94.2074 71.1583 94.5537 70.7099 94.7312C70.6179 94.7643 70.4743 94.8122 70.3418 94.8453C70.3229 94.4937 70.3846 94.1424 70.5222 93.8182C70.5222 93.8182 70.8903 93.0231 71.4094 92.9568H71.5382V92.9531ZM71.5382 91.1162C71.4152 91.1172 71.2923 91.1246 71.1701 91.1383C69.6313 91.3334 68.9356 92.8501 68.8325 93.0857C68.3723 94.1385 68.2803 95.8245 69.2227 96.4614C69.4867 96.6313 69.796 96.7173 70.1099 96.708C70.5169 96.6902 70.9184 96.6069 71.2989 96.4614C71.7569 96.2908 72.1764 96.0308 72.5329 95.6965C72.8894 95.3621 73.1757 94.9602 73.3751 94.514C73.5923 94.0281 74.0746 92.9495 73.504 92.0476C73.278 91.7401 72.9788 91.4939 72.6336 91.3313C72.2885 91.1687 71.9081 91.0947 71.5272 91.1162H71.5382Z" fill="#001550" stroke="#001550" stroke-miterlimit="10"/>
<path d="M88.6207 71.3406C89.2023 71.3406 90.1926 71.9222 90.5975 72.6732C91.0797 73.5714 90.6674 74.7936 90.4723 75.3789C90.3422 75.7953 90.1251 76.1792 89.8355 76.5054C89.311 77.1465 88.8854 77.8624 88.5728 78.6295C88.1502 79.6169 87.9143 80.6741 87.8771 81.7475C87.8771 81.8837 87.8586 82.0604 87.8439 82.1524C87.3476 82.4925 86.7508 82.6547 86.1506 82.6126C85.0904 82.6126 84.1259 82.2224 83.7982 81.6591C83.6739 81.4269 83.6033 81.1697 83.5919 80.9065C83.5804 80.6433 83.6283 80.3809 83.732 80.1388C83.905 79.7706 84.2363 79.6087 85.0057 79.2663C85.9812 78.8356 87.3175 78.2466 87.9507 76.6195C88.2304 75.8896 88.2767 75.0908 88.0832 74.3335C87.9772 73.8992 87.9659 73.4472 88.0501 73.0082C88.201 72.0658 88.363 71.5099 88.5323 71.348C88.5629 71.3446 88.5938 71.3446 88.6243 71.348L88.6207 71.3406ZM88.6243 69.5074C88.2932 69.5013 87.9657 69.5772 87.6709 69.7282C86.6365 70.2767 86.3935 71.7824 86.2426 72.7137C85.9407 74.5838 86.6438 74.9225 86.2426 75.9569C85.5284 77.7975 83.0583 77.3521 82.0901 79.3289C81.8553 79.8422 81.7446 80.4036 81.767 80.9677C81.7894 81.5318 81.9442 82.0826 82.219 82.5757C82.9552 83.8495 84.5971 84.4385 86.1542 84.4385C87.3985 84.4385 88.5912 84.0703 89.2281 83.3525C90.0674 82.4174 89.3201 81.5929 90.2662 79.3289C91.0024 77.5545 91.665 77.5877 92.2135 75.9569C92.4749 75.1728 93.0676 73.3984 92.2135 71.8044C91.5068 70.4902 89.9238 69.5074 88.6243 69.5074Z" fill="#001550" stroke="#001550" stroke-miterlimit="10"/>
<path d="M94.7583 61.1472C95.7854 61.1472 96.5731 61.438 97.0996 62.0123C97.3155 62.2229 97.4878 62.4741 97.6066 62.7514C97.7253 63.0287 97.7882 63.3267 97.7916 63.6284C97.6996 64.9021 95.7449 65.9365 94.3865 66.2641C93.9042 66.38 93.41 66.4393 92.914 66.4408C92.4536 66.4682 91.9923 66.4045 91.5565 66.2536C91.1206 66.1026 90.7188 65.8673 90.3739 65.561C89.9101 65.1119 89.3101 64.199 89.4389 63.7204C89.5677 63.2418 91.066 62.4762 92.5054 61.7657C92.8818 61.5547 93.279 61.3832 93.6907 61.254C94.0404 61.1791 94.397 61.142 94.7546 61.1435L94.7583 61.1472ZM94.7546 59.3029C94.2507 59.3002 93.7481 59.3545 93.2564 59.4649C92.7144 59.6211 92.192 59.8384 91.6992 60.1128C89.4904 61.1951 88.0179 61.9166 87.6756 63.2271C87.197 64.9757 88.9677 66.7317 89.1002 66.8605C90.1381 67.8137 91.5094 68.3202 92.9177 68.2704C93.5574 68.2686 94.1947 68.1933 94.8172 68.0459C96.5695 67.6188 99.4371 66.2052 99.6028 63.7609C99.7169 62.1817 98.642 61.0037 98.4358 60.7791C97.9593 60.29 97.3854 59.9062 96.7513 59.6526C96.1173 59.399 95.437 59.2811 94.7546 59.3066V59.3029Z" fill="#001550" stroke="#001550" stroke-miterlimit="10"/>
<path d="M86.4281 88.3995C86.4709 88.9242 86.5471 89.4455 86.6563 89.9604C86.7172 90.2733 86.7984 90.582 86.8993 90.8844C86.9471 91.0316 86.9913 91.1715 87.0576 91.4513C87.381 92.5366 87.5057 93.6715 87.4257 94.8012C87.1754 96.7486 86.8036 96.9474 86.7594 96.9621C86.74 96.9666 86.7198 96.9666 86.7005 96.9621C86.2274 96.8838 85.7916 96.6569 85.4562 96.3142C85.0071 95.8761 84.8341 94.3705 84.5691 92.0918C84.3666 90.3469 84.4917 90.0745 84.5506 89.942C84.8478 89.3973 85.3107 88.9615 85.8722 88.6977C86.0894 88.5726 86.2808 88.4732 86.4428 88.3922L86.4281 88.3995ZM87.2858 86.2644C86.4318 86.2644 85.2869 86.9234 84.9556 87.1148C84.0583 87.5657 83.3303 88.2938 82.8794 89.191C82.6364 89.7322 82.5112 90.3359 82.7505 92.3053C83.0929 95.2503 83.2659 96.7228 84.1788 97.6247C84.8509 98.3054 85.7466 98.7199 86.7005 98.7917C86.9518 98.795 87.2015 98.7513 87.4367 98.6628C88.8577 98.1107 89.1301 95.9866 89.2553 95.0294C89.3739 93.6757 89.2416 92.3116 88.865 91.0059C88.6847 90.2696 88.6221 90.2696 88.4748 89.5775C88.0589 87.5786 88.4454 86.8681 87.9558 86.4632C87.7675 86.322 87.5355 86.2516 87.3005 86.2644H87.2858Z" fill="#001550" stroke="#001550" stroke-miterlimit="10"/>
<path d="M77.9032 95.9349C78.3826 96.5548 78.7994 97.2207 79.1475 97.9228C79.3684 98.3756 79.8322 99.318 79.7512 99.5131C79.6444 99.7671 78.6211 100.043 78.2345 100.146C77.5673 100.348 76.8769 100.463 76.1804 100.489C75.5656 100.489 75.146 100.356 74.9251 100.095C74.7803 99.9078 74.6819 99.6893 74.6377 99.457C74.5936 99.2248 74.605 98.9854 74.6711 98.7584C74.73 98.729 74.8331 98.6848 74.9104 98.6553C76.2191 98.1645 77.2901 97.191 77.9032 95.9349ZM77.3731 93.3175C77.2982 93.3173 77.2238 93.3285 77.1522 93.3507C76.416 93.5826 76.8136 94.8232 75.5951 96.0748C74.5607 97.146 73.7066 96.8294 73.1323 97.7608C72.5176 98.751 72.7311 100.319 73.5189 101.265C74.1999 102.079 75.2086 102.318 76.1804 102.318C77.0375 102.294 77.8877 102.158 78.7094 101.913C79.6923 101.648 80.9807 101.302 81.4372 100.227C81.8458 99.2627 81.3525 98.2614 80.7856 97.1129C80.0494 95.6404 78.4885 93.3175 77.3731 93.3175Z" fill="#001550" stroke="#001550" stroke-miterlimit="10"/>
<path d="M101.307 95.1691C101.33 95.1658 101.354 95.1658 101.377 95.1691C101.745 95.4268 102.021 97.065 101.333 98.1141C101.071 98.5191 100.71 98.7068 99.4294 99.248C97.8167 99.9212 96.0857 100.265 94.3382 100.26H94.04C95.0668 99.8486 96.026 99.2852 96.8856 98.589C97.4518 98.1353 97.9534 97.6065 98.3765 97.0171C98.571 96.7389 98.8055 96.4908 99.0723 96.2809C99.8785 95.6403 100.817 95.1765 101.307 95.1765V95.1691ZM101.307 93.3359C99.8343 93.3359 98.1483 94.6722 97.9348 94.8415C96.8635 95.6919 96.9593 96.1704 95.726 97.1754C94.7912 97.911 93.7381 98.4824 92.6117 98.8651C89.6667 100.01 87.7304 99.8149 87.6825 100.293C87.6347 100.772 89.5231 101.398 90.9257 101.718C92.0458 101.969 93.1905 102.092 94.3382 102.086C96.3299 102.092 98.3026 101.699 100.14 100.93C101.458 100.374 102.271 100.017 102.864 99.1117C104.031 97.3263 103.736 94.3261 102.216 93.531C101.934 93.3914 101.622 93.3208 101.307 93.3248V93.3359Z" fill="#001550" stroke="#001550" stroke-miterlimit="10"/>
<path d="M93.5884 83.4004C94.0094 83.4055 94.4244 83.5008 94.8054 83.6799C95.1864 83.8589 95.5246 84.1176 95.7972 84.4385C96.0732 84.8066 96.0953 85.4324 96.0917 87.2473C96.0917 89.7174 96.0622 90.6045 95.51 91.234C95.0131 91.7907 94.3211 92.1347 93.5774 92.1948C93.4426 92.2005 93.3086 92.1726 93.1872 92.1139C92.819 91.9335 92.635 91.3077 92.5282 90.969C92.3368 90.38 92.392 89.9935 92.6313 88.613C92.6976 88.2228 92.7749 87.7847 92.8558 87.2693C93.0988 85.6901 93.1835 84.6336 93.224 83.9341C93.224 83.7611 93.2534 83.566 93.2681 83.4298C93.371 83.4085 93.476 83.3987 93.5811 83.4004H93.5884ZM93.5811 81.5597C92.9945 81.535 92.4165 81.7074 91.9392 82.0494C91.2324 82.6089 91.6226 83.1537 91.03 86.9785C90.6618 89.3787 90.3452 90.2033 90.7723 91.5212C90.9526 92.077 91.3134 93.1998 92.3294 93.7299C92.711 93.9245 93.1343 94.0231 93.5626 94.017C94.1926 93.9875 94.8102 93.8323 95.3792 93.5604C95.9482 93.2886 96.457 92.9056 96.8758 92.4341C97.9102 91.2561 97.9102 89.8573 97.9139 87.2436C97.9139 85.241 97.9139 84.2397 97.2623 83.3488C96.8188 82.7976 96.2586 82.3516 95.6221 82.0429C94.9855 81.7342 94.2885 81.5704 93.5811 81.5634V81.5597Z" fill="#001550" stroke="#001550" stroke-miterlimit="10"/>
<path d="M99.5421 71.5725C100.466 71.6042 101.381 71.7552 102.266 72.0216C103.396 72.3198 105.104 72.7579 105.41 73.6855C105.69 74.5212 105.086 75.6992 104.582 76.2366C104.205 75.9217 103.8 75.6431 103.371 75.4047C102.546 74.9408 101.416 74.3003 100.157 74.3003C99.7727 74.2994 99.3909 74.3616 99.0268 74.4844C97.6721 74.9482 97.1604 76.0526 96.8585 76.7115C96.7955 76.8578 96.7242 77.0004 96.645 77.1385H96.5971C96.2907 77.1228 95.9998 76.9989 95.7762 76.7888C95.5389 76.4109 95.4497 75.9585 95.5259 75.5188C95.628 74.2826 96.2061 73.1344 97.1383 72.3161C97.8293 71.7954 98.6817 71.5347 99.5458 71.5799L99.5421 71.5725ZM99.5458 69.7392C98.2621 69.6993 97.0046 70.108 95.9897 70.8952C93.781 72.6806 92.9527 76.417 94.4326 78.0331C95.0026 78.6184 95.7803 78.9557 96.5971 78.9718C96.879 78.9747 97.1584 78.9196 97.4181 78.8098C98.6623 78.2687 98.4046 76.6305 99.6268 76.2329C99.8001 76.1754 99.9817 76.1468 100.164 76.1483C100.945 76.1483 101.784 76.6232 102.48 77.0134C103.772 77.7496 103.842 78.2908 104.427 78.3092H104.464C105.848 78.3092 107.91 75.3642 107.151 73.1149C106.533 71.2743 104.291 70.6706 102.734 70.262C101.697 69.9544 100.624 69.7836 99.5421 69.754L99.5458 69.7392Z" fill="#001550" stroke="#001550" stroke-miterlimit="10"/>
<path d="M94.755 54.3738C96.025 54.3738 97.1588 54.7677 98.8779 55.3678C100.693 56.0009 101.337 56.5347 101.433 56.6893C101.674 57.0334 101.794 57.4476 101.775 57.8673C101.607 57.9805 101.406 58.0336 101.204 58.0182C101.094 58.0186 100.984 58.005 100.877 57.9777C100.671 57.9188 100.568 57.8121 100.188 57.2673C99.7246 56.5936 99.0252 55.5813 97.5674 55.2352C97.3073 55.1703 97.0404 55.1369 96.7723 55.1358C96.1971 55.154 95.6323 55.2945 95.1157 55.5481C94.5237 55.8054 93.907 56.0015 93.2751 56.1335C92.653 56.2911 92.0189 56.397 91.3793 56.45C91.3304 56.4564 91.2809 56.4564 91.232 56.45C91.1356 56.309 91.0722 56.1481 91.0467 55.9791C91.0212 55.8102 91.0342 55.6377 91.0848 55.4745C91.2725 54.9923 92.2517 54.6389 94.004 54.429C94.2594 54.4001 94.5163 54.3853 94.7734 54.3849L94.755 54.3738ZM94.7734 52.5443C94.4448 52.5456 94.1166 52.5665 93.7905 52.6068C92.6162 52.7467 90.0503 53.0523 89.373 54.8156C88.9754 55.8537 89.281 57.2857 90.1534 57.9299C90.508 58.1862 90.9384 58.3158 91.3756 58.298C92.1453 58.2496 92.9085 58.1263 93.6543 57.9299C95.6605 57.5029 96.106 56.9765 96.787 56.9765C96.9109 56.9781 97.0343 56.9929 97.1551 57.0206C98.727 57.3887 98.6607 59.2625 100.398 59.7484C100.665 59.8199 100.94 59.8558 101.216 59.8552C101.601 59.8728 101.985 59.802 102.338 59.6482C102.692 59.4944 103.005 59.2617 103.255 58.968C103.991 57.9667 103.476 56.4905 102.994 55.7248C102.817 55.4377 102.239 54.6205 99.4927 53.6486C97.6963 53.0228 96.3452 52.5443 94.766 52.5443H94.7734Z" fill="#001550" stroke="#001550" stroke-miterlimit="10"/>
<path d="M108.061 62.9877C109.527 62.9909 110.972 63.3283 112.287 63.9743C113.557 64.6038 114.128 64.9093 114.467 65.5315C114.765 66.0947 114.956 67.1218 114.165 68.8446C113.787 69.6723 113.249 70.4168 112.582 71.0349C112.457 70.7956 112.309 70.468 112.214 70.2214C111.643 68.9219 110.782 66.9635 108.588 66.0984C108.21 65.9434 107.807 65.8574 107.399 65.8444C106.759 65.8006 106.122 65.7208 105.492 65.6051C104.645 65.4652 103.651 65.2959 103.033 65.1413C103.229 64.7808 103.477 64.451 103.769 64.1621C104.807 63.1276 106.364 63.0577 107.737 63.0098H108.08L108.061 62.9877ZM108.08 61.1692H107.664C106.136 61.2318 104.019 61.3128 102.473 62.8589C101.719 63.5951 100.695 65.1192 101.177 66.1021C101.505 66.772 102.742 66.9892 105.201 67.3979C107.524 67.7881 107.373 67.5709 107.925 67.7881C110.69 68.8924 110.41 72.6804 112.206 72.9786C112.278 72.9901 112.351 72.9963 112.424 72.997C113.841 72.997 115.284 70.7883 115.84 69.6066C116.116 69.0176 117.187 66.7131 116.101 64.6737C115.479 63.5068 114.456 62.9988 113.116 62.3398C111.548 61.5693 109.826 61.1664 108.08 61.1618V61.1692Z" fill="#001550" stroke="#001550" stroke-miterlimit="10"/>
<path d="M107.096 57.779C107.151 57.7794 107.205 57.7856 107.258 57.7974C107.157 57.8563 107.043 57.8904 106.927 57.8968C106.906 57.8994 106.885 57.8994 106.864 57.8968L106.813 57.8563C106.876 57.8282 106.943 57.8072 107.011 57.7937H107.096V57.779ZM107.096 55.9531C106.973 55.9536 106.85 55.9622 106.728 55.9788C106.629 55.9788 105.178 56.2328 104.909 57.4072C104.707 58.2907 105.307 59.1189 105.947 59.4834C106.242 59.6492 106.574 59.7355 106.912 59.7337C107.304 59.7242 107.689 59.627 108.039 59.4493C108.389 59.2715 108.694 59.0178 108.933 58.7066C109.081 58.5268 109.192 58.3193 109.259 58.0962C109.326 57.8731 109.348 57.6388 109.323 57.4072C109.158 56.5457 108.09 55.9531 107.081 55.9531H107.096Z" fill="#001550" stroke="#001550" stroke-miterlimit="10"/>
<path d="M122.667 70.3319C122.873 70.3268 123.075 70.3903 123.242 70.5123C123.543 70.7516 123.503 71.3443 123.492 71.4915L122.969 71.0571C122.815 70.9246 122.483 70.6485 122.233 70.435C122.36 70.362 122.506 70.3263 122.653 70.3319H122.667ZM122.653 68.4913C122.325 68.4859 122 68.5471 121.697 68.6711C121.394 68.7951 121.119 68.9794 120.889 69.2128C120.685 69.4392 120.533 69.7073 120.444 69.9985C120.354 70.2897 120.329 70.597 120.37 70.8988C120.451 71.2669 120.654 71.4952 121.798 72.456C123.293 73.715 123.599 73.888 123.805 73.888H123.875C124.685 73.7776 125.182 72.5812 125.303 71.8118C125.332 71.6093 125.557 70.019 124.394 69.0877C123.902 68.7058 123.297 68.5009 122.675 68.506L122.653 68.4913Z" fill="#001550" stroke="#001550" stroke-miterlimit="10"/>
<path d="M117.795 74.256H117.869C118.177 74.3573 118.439 74.5664 118.605 74.845C118.823 75.1326 118.928 75.4903 118.9 75.85C118.726 76.1818 118.481 76.4709 118.182 76.6967C117.726 77.1113 117.186 77.4227 116.599 77.6097C116.263 77.7449 115.921 77.8604 115.572 77.9557C115.3 77.6228 115.156 77.2036 115.167 76.774C115.189 75.9531 116.054 75.3015 116.521 74.9334C116.93 74.6205 117.442 74.234 117.777 74.234L117.795 74.256ZM117.777 72.3933C116.827 72.3933 116.039 72.9897 115.413 73.4609C114.788 73.9321 113.378 75.0033 113.337 76.7041C113.311 77.8784 113.926 79.3288 115.027 79.6896C115.183 79.7424 115.348 79.7685 115.513 79.7669C116.108 79.7077 116.689 79.5497 117.232 79.2993C118.052 79.0302 118.806 78.5884 119.441 78.0035C119.982 77.4919 120.519 76.9875 120.689 76.2218C121.031 74.7015 119.79 72.6878 118.145 72.4228C118.023 72.404 117.9 72.3941 117.777 72.3933Z" fill="#001550" stroke="#001550" stroke-miterlimit="10"/>
<path d="M109.951 77.757C109.989 77.8141 110.025 77.8731 110.058 77.9337C110.276 78.4563 110.285 79.0427 110.083 79.5719C109.826 80.3081 109.262 81.0738 108.309 81.9647C107.362 82.9224 106.209 83.6514 104.937 84.0961C104.499 84.2279 104.044 84.296 103.586 84.2986C102.948 84.3155 102.32 84.1481 101.775 83.8163C101.431 83.6009 101.154 83.2929 100.977 82.9277C100.8 82.5624 100.73 82.1547 100.774 81.7512H100.799C101.167 81.7512 101.572 81.7917 102.003 81.8322C102.533 81.88 103.082 81.9279 103.66 81.9279C104.649 81.9557 105.63 81.7435 106.52 81.3094C107.808 80.6468 108.681 79.4688 109.38 78.508C109.583 78.2356 109.774 77.9742 109.951 77.7718V77.757ZM109.833 75.7876C109.617 75.7862 109.405 75.8421 109.218 75.9495C108.997 76.0935 108.801 76.274 108.64 76.4833C107.786 77.4773 106.947 79.0418 105.695 79.6934C105.065 79.9934 104.372 80.1362 103.674 80.1093C102.699 80.1093 101.694 79.9326 100.774 79.9326C100.427 79.9224 100.084 79.9917 99.7685 80.1351C99.3956 80.3737 99.1313 80.7491 99.0323 81.1806C98.5905 82.7414 99.4188 84.4937 100.781 85.3698C101.622 85.8916 102.596 86.16 103.586 86.1429C104.223 86.142 104.857 86.0478 105.467 85.8631C107.007 85.3346 108.405 84.4621 109.557 83.312C110.55 82.466 111.324 81.3925 111.814 80.183C112.175 79.1882 112.133 78.0915 111.696 77.1275C111.584 76.902 111.445 76.6917 111.28 76.5017C111.102 76.2868 110.881 76.1107 110.633 75.984C110.384 75.8574 110.112 75.783 109.833 75.7655V75.7876Z" fill="#001550" stroke="#001550" stroke-miterlimit="10"/>
<path d="M115.55 83.5181C115.627 83.5141 115.704 83.5141 115.782 83.5181C115.73 83.7316 115.664 83.9783 115.612 84.1734C115.244 85.5906 115.023 86.3048 114.35 87.0374C112.999 88.5099 111.106 88.5099 110.484 88.5099H110.436C110.234 88.5268 110.031 88.4952 109.844 88.4178C109.708 88.3505 109.584 88.2623 109.476 88.1565C110.165 87.7669 110.82 87.3173 111.43 86.8128C112.214 86.1649 112.894 85.4015 113.448 84.5488C113.779 84.0629 113.853 83.9635 114.184 83.8126C114.617 83.6095 115.09 83.5028 115.568 83.4997L115.55 83.5181ZM115.568 81.6591C114.804 81.6601 114.049 81.8311 113.359 82.1597C111.887 82.896 112.167 83.7942 110.245 85.4029C108.57 86.8054 107.51 86.8239 107.392 87.7405C107.274 88.6571 108.172 89.6547 109.078 90.0744C109.506 90.2649 109.972 90.3543 110.44 90.3357H110.506C111.243 90.3357 113.819 90.3026 115.697 88.2595C116.706 87.1552 117.004 86.0508 117.383 84.6262C117.681 83.5218 117.832 82.9107 117.515 82.4174C117.199 81.9241 116.411 81.6554 115.553 81.6554L115.568 81.6591Z" fill="#001550" stroke="#001550" stroke-miterlimit="10"/>
<path d="M123.154 81.1364C123.232 81.1308 123.311 81.1308 123.39 81.1364C124.174 81.2321 124.987 81.7732 125.035 82.2407C125.083 82.7083 124.233 83.4114 123.441 83.7353C122.988 83.9113 122.506 84.0048 122.02 84.0114C121.799 84.0114 121.265 83.9857 121.089 83.7317C120.842 83.3819 121.059 82.4948 121.534 81.891C121.73 81.6506 121.977 81.4566 122.257 81.3229C122.537 81.1893 122.844 81.1193 123.154 81.118V81.1364ZM123.154 79.2774C122.57 79.2789 121.995 79.4101 121.468 79.6616C120.941 79.9131 120.477 80.2785 120.11 80.7314C119.289 81.7511 118.729 83.5255 119.59 84.755C120.143 85.5465 121.081 85.8152 122.02 85.8152C122.743 85.8102 123.458 85.6704 124.129 85.4029C125.149 84.9869 127.034 83.7832 126.857 82.0309C126.699 80.4627 124.995 79.454 123.61 79.3031C123.459 79.2853 123.306 79.2767 123.154 79.2774Z" fill="#001550" stroke="#001550" stroke-miterlimit="10"/>
<path d="M126.236 75.0108C125.4 75.0108 124.487 75.5924 124.395 76.2182C124.303 76.844 125.131 77.1496 126.471 78.946C127.174 79.8774 127.524 80.3412 127.638 80.8897C127.936 82.3107 126.95 82.9843 127.381 84.1366C127.631 84.8139 128.297 85.4471 128.816 85.4471C128.857 85.4525 128.897 85.4525 128.938 85.4471C129.836 85.2593 130.381 83.0064 130.105 81.1658C129.998 80.4516 129.516 79.524 128.548 77.6613C127.414 75.482 127.046 75.1691 126.6 75.066C126.479 75.0391 126.356 75.0255 126.232 75.0255L126.236 75.0108Z" fill="#001550" stroke="#001550" stroke-miterlimit="10"/>
<path d="M119.861 90.4498C119.771 90.9629 119.572 91.451 119.279 91.8818C118.775 92.5776 117.98 92.8389 116.077 93.4132C115.574 93.5627 115.061 93.6735 114.542 93.7445C114.907 93.621 115.264 93.4721 115.609 93.2991C116.506 92.8541 117.301 92.2273 117.943 91.4585C118.218 91.0811 118.604 90.7992 119.047 90.6523C119.315 90.5591 119.589 90.4889 119.868 90.4425L119.861 90.4498ZM120.332 88.5724C119.682 88.5918 119.039 88.7162 118.429 88.9405C116.537 89.6179 116.765 90.6817 114.796 91.6646C112.999 92.5628 111.913 92.1285 111.162 93.2218C110.794 93.774 110.544 94.6391 110.904 95.1692C111.048 95.3864 111.39 95.6882 112.981 95.6882C114.208 95.6913 115.429 95.5164 116.607 95.1692C118.628 94.5581 119.872 94.1826 120.759 92.9604C121.216 92.2974 121.526 91.5443 121.668 90.7517C121.83 89.9492 121.937 89.4375 121.668 89.062C121.4 88.6865 120.903 88.5761 120.325 88.5761L120.332 88.5724Z" fill="#001550" stroke="#001550" stroke-miterlimit="10"/>
<path d="M103.495 89.2571C103.355 89.5101 103.159 89.7277 102.921 89.893C102.684 90.0582 102.412 90.1669 102.126 90.2106C102.225 89.9676 102.378 89.7509 102.575 89.5774C102.843 89.3812 103.164 89.2696 103.495 89.2571ZM103.595 87.4165C102.808 87.412 102.042 87.6712 101.419 88.1527C100.414 88.97 99.7995 90.6523 100.514 91.5248C100.685 91.7088 100.895 91.8523 101.129 91.9446C101.362 92.037 101.614 92.0759 101.865 92.0585C102.531 92.0463 103.182 91.8625 103.757 91.5248C104.979 90.7885 105.892 89.0988 105.314 88.1527C105.012 87.6631 104.342 87.4165 103.595 87.4165Z" fill="#001550" stroke="#001550" stroke-miterlimit="10"/>
<path d="M107.575 94.8673H107.641C108.01 94.9483 108.433 95.7729 108.415 96.5423C108.415 96.8405 108.26 97.7129 107.851 97.8823C107.767 97.9161 107.677 97.9324 107.586 97.9301C107.425 97.9311 107.268 97.8878 107.13 97.805C106.965 97.6357 106.837 97.4343 106.753 97.2132C106.669 96.9922 106.632 96.7563 106.644 96.5202C106.617 96.2567 106.644 95.9906 106.723 95.7376C106.801 95.4847 106.929 95.2501 107.1 95.0477C107.24 94.9471 107.404 94.886 107.575 94.871V94.8673ZM107.575 93.0304C106.991 93.0484 106.428 93.2478 105.963 93.601C104.384 94.8747 104.431 98.1657 106.092 99.3106C106.534 99.6059 107.054 99.7623 107.586 99.7597C107.919 99.7619 108.25 99.6981 108.558 99.572C110.163 98.8983 110.24 96.7632 110.244 96.5865C110.277 95.1876 109.508 93.4059 108.035 93.0819C107.883 93.0472 107.728 93.0299 107.572 93.0304H107.575Z" fill="#001550" stroke="#001550" stroke-miterlimit="10"/>
<path d="M127.233 88.532C127.638 88.565 128.019 88.7397 128.308 89.0253C127.516 89.7224 126.677 90.3644 125.798 90.9469L125.19 91.3739C125.297 91.1457 125.422 90.9101 125.558 90.6561C126.192 89.5959 126.792 88.5909 127.127 88.5393H127.219L127.233 88.532ZM127.219 86.6987C127.095 86.6995 126.972 86.7093 126.85 86.7282C125.669 86.9122 125.039 87.9651 123.994 89.7137C123.444 90.637 123.05 91.6443 122.827 92.6955C122.584 93.6783 122.459 94.168 122.698 94.3851C122.796 94.4662 122.921 94.507 123.048 94.4993C123.942 94.4993 125.823 93.163 126.85 92.4378C129.17 90.7923 130.329 89.9713 130.222 88.9332C130.108 87.7884 128.603 86.6987 127.226 86.6987H127.219Z" fill="#001550" stroke="#001550" stroke-miterlimit="10"/>
<path d="M68.8208 99.6824H68.8797C68.9602 99.7917 69.0155 99.9174 69.0417 100.051C68.7584 100.007 68.4807 99.9332 68.2134 99.8297C68.4035 99.738 68.61 99.6854 68.8208 99.6751V99.6824ZM68.8208 97.8345C67.3152 97.8345 65.5482 99.2076 65.5997 100.08C65.6292 100.606 66.336 100.96 66.8992 101.247C67.6318 101.614 68.4304 101.83 69.2478 101.884C69.4864 101.901 69.7257 101.864 69.9481 101.776C70.1705 101.688 70.3703 101.551 70.5326 101.376C71.2357 100.529 70.8602 98.7989 69.881 98.1326C69.5656 97.9291 69.1961 97.8252 68.8208 97.8345Z" fill="#001550" stroke="#001550" stroke-miterlimit="10"/>
<path d="M45.795 95.4196H45.9497C46.3001 95.4894 46.621 95.664 46.87 95.9203C46.4419 95.7834 46.0237 95.6173 45.6184 95.4233C45.6772 95.4196 45.7362 95.4196 45.795 95.4233V95.4196ZM45.795 93.5827C44.4367 93.5827 42.9715 94.3705 42.9016 95.1582C42.7838 96.4835 46.5828 98.2762 50.1168 98.2762H50.2972C50.9083 98.2762 54.0852 98.21 54.4496 96.8479C54.6816 95.9976 53.7833 94.7275 52.7636 94.514C52.673 94.4937 52.5804 94.4838 52.4875 94.4846C51.6335 94.4846 51.2212 95.3791 50.0395 95.4233H49.9548C48.3793 95.4233 47.9228 93.7962 46.1448 93.6048C46.0306 93.6048 45.9128 93.5864 45.7766 93.5864L45.795 93.5827Z" fill="#001550" stroke="#001550" stroke-miterlimit="10"/>
<path d="M82.5676 47.3966C80.9046 51.2998 77.8608 54.4528 74.0187 56.2524C72.4376 56.9965 70.7415 57.4666 69.0029 57.6425C63.0807 58.2217 56.8776 55.0188 54.1959 49.7047C53.6412 48.5934 53.2482 47.4086 53.0288 46.1861C52.6406 44.0544 52.7396 41.8625 53.3184 39.7744C53.592 38.7586 53.9806 37.7772 54.4768 36.8495C56.8254 32.5374 61.1144 30.5769 65.7711 29.6704C68.8581 29.0681 72.0234 28.7756 74.9947 27.7504C76.2747 27.3073 77.5634 26.6905 78.3627 25.5987C79.7383 23.7308 79.0461 20.7075 76.9987 19.6215C76.2552 19.2594 75.4468 19.0497 74.6211 19.0046C73.6915 18.9149 72.73 18.9091 71.812 18.7382C71.4703 18.6745 71.0938 18.5558 70.9432 18.2459C70.7 17.7565 71.1807 17.2178 71.647 16.934C74.1954 15.3673 77.7516 15.8365 79.9584 17.8549C82.1651 19.8734 82.9644 23.2183 82.1216 26.0881C81.2789 28.958 78.9187 31.2806 76.1038 32.2942C72.9183 33.4381 69.3649 33.0124 66.1649 34.0839C64.1463 34.7298 62.4039 36.0366 61.2186 37.7936C60.6382 38.6728 60.2566 39.6681 60.1006 40.7099C59.9445 41.7518 60.0177 42.8152 60.3151 43.8259C61.2157 46.6263 63.935 48.4594 66.718 49.4151C69.3429 50.2841 72.1291 50.5539 74.8719 50.2046C77.6147 49.8553 80.2444 48.8958 82.5676 47.3966Z" fill="#10B981" stroke="#001550" stroke-width="0.8" stroke-miterlimit="10"/>
<path d="M75.2015 54.7697C75.2015 54.7697 74.7005 55.4126 74.0199 56.2495C72.4388 56.9936 70.7427 57.4636 69.0041 57.6396C63.0819 58.2187 56.8788 55.0158 54.1971 49.7017C53.6427 48.5914 53.2497 47.4075 53.03 46.186C54.0465 48.691 56.3256 50.6169 58.5787 52.0388C63.0935 54.8884 68.9144 54.176 71.1703 53.9385C72.5665 53.8145 73.9683 54.1035 75.2015 54.7697Z" fill="white" stroke="#001550" stroke-width="0.8" stroke-miterlimit="10"/>
<path d="M64.2099 54.8045C64.8412 54.8422 65.3278 55.2997 65.2959 55.8326C65.2641 56.3655 64.7167 56.7651 64.0999 56.7304C63.483 56.6956 62.9849 56.2351 63.0139 55.7023C63.0429 55.1694 63.5815 54.7553 64.2099 54.8045Z" fill="white" stroke="#001550" stroke-width="0.8" stroke-miterlimit="10"/>
<path d="M60.9245 53.6923C61.5037 53.898 61.8599 54.4743 61.6832 54.9782C61.5066 55.4821 60.8839 55.7195 60.2874 55.511C59.6908 55.3025 59.352 54.7262 59.5257 54.2252C59.6995 53.7242 60.3279 53.4838 60.9245 53.6923Z" fill="white" stroke="#001550" stroke-width="0.8" stroke-miterlimit="10"/>
<path d="M57.6257 51.7695C58.1238 52.1546 58.2628 52.8091 57.9385 53.2174C57.6141 53.6258 56.9423 53.6663 56.4442 53.2811C55.9461 52.896 55.8042 52.2386 56.1314 51.8332C56.4586 51.4277 57.1276 51.3814 57.6257 51.7695Z" fill="white" stroke="#001550" stroke-width="0.8" stroke-miterlimit="10"/>
<path d="M55.2196 50.0231C55.3091 50.1213 55.3686 50.243 55.3912 50.3739C55.4139 50.5048 55.3987 50.6395 55.3475 50.762C55.2963 50.8846 55.2112 50.99 55.1021 51.0659C54.9931 51.1417 54.8646 51.1849 54.7319 51.1903C54.5992 51.1957 54.4676 51.1631 54.3528 51.0963C54.238 51.0296 54.1445 50.9314 54.0835 50.8134C54.0225 50.6954 53.9965 50.5624 54.0084 50.4301C54.0204 50.2978 54.0699 50.1717 54.151 50.0665C54.2877 49.9204 54.4764 49.8338 54.6764 49.8257C54.8764 49.8176 55.0715 49.8885 55.2196 50.0231Z" fill="white" stroke="#001550" stroke-width="0.8" stroke-miterlimit="10"/>
<path d="M73.3 30.0643C67.5978 31.964 60.7779 29.2737 55.1018 36.7945C54.3957 37.7167 53.7972 38.7165 53.3179 39.7744C53.5914 38.7585 53.9801 37.7772 54.4763 36.8495C56.8249 32.5374 61.1138 30.5768 65.7705 29.6704C68.8576 29.068 72.0229 28.7756 74.9941 27.7504C76.2741 27.3073 77.5628 26.6905 78.3621 25.5987C79.7377 23.7308 79.0456 20.7074 76.9981 19.6214C76.2546 19.2594 75.4463 19.0497 74.6205 19.0046C75.8021 18.7642 78.8226 18.4949 79.9578 21.611C81.3739 25.5553 78.9992 28.1616 73.3 30.0643Z" fill="white" stroke="#001550" stroke-width="0.8" stroke-miterlimit="10"/>
<path d="M66.8094 29.3461C66.9407 29.3671 67.0633 29.4251 67.1627 29.5134C67.2622 29.6017 67.3343 29.7165 67.3707 29.8444C67.407 29.9723 67.4061 30.1079 67.368 30.2353C67.3299 30.3627 67.2562 30.4765 67.1556 30.5634C67.0549 30.6504 66.9316 30.7067 66.8 30.7259C66.6685 30.7451 66.5341 30.7263 66.4129 30.6717C66.2916 30.6171 66.1885 30.5291 66.1156 30.4179C66.0427 30.3067 66.0031 30.177 66.0015 30.044C66.017 29.8447 66.1106 29.6596 66.2619 29.5289C66.4132 29.3982 66.61 29.3325 66.8094 29.3461Z" fill="white" stroke="#001550" stroke-width="0.8" stroke-miterlimit="10"/>
<path d="M70.5223 28.9174C70.6543 28.9384 70.7775 28.9967 70.8775 29.0854C70.9774 29.1742 71.0499 29.2896 71.0864 29.4182C71.1229 29.5468 71.1219 29.6831 71.0834 29.8112C71.045 29.9392 70.9707 30.0535 70.8694 30.1407C70.7681 30.2279 70.644 30.2843 70.5117 30.3033C70.3794 30.3222 70.2444 30.303 70.1227 30.2477C70.001 30.1925 69.8976 30.1036 69.8247 29.9916C69.7518 29.8795 69.7125 29.749 69.7114 29.6153C69.7277 29.4158 69.8219 29.2306 69.9737 29.1C70.1254 28.9694 70.3225 28.9038 70.5223 28.9174Z" fill="white" stroke="#001550" stroke-width="0.8" stroke-miterlimit="10"/>
<path d="M74.096 28.0603C74.228 28.0813 74.3513 28.1396 74.4512 28.2284C74.5512 28.3171 74.6237 28.4326 74.6602 28.5611C74.6966 28.6897 74.6956 28.8261 74.6571 28.9541C74.6187 29.0821 74.5444 29.1964 74.4431 29.2836C74.3418 29.3708 74.2177 29.4272 74.0854 29.4462C73.9531 29.4651 73.8181 29.4459 73.6964 29.3907C73.5747 29.3354 73.4713 29.2466 73.3984 29.1345C73.3256 29.0225 73.2863 28.8919 73.2852 28.7583C73.3014 28.5587 73.3957 28.3736 73.5474 28.2429C73.6992 28.1123 73.8963 28.0467 74.096 28.0603Z" fill="white" stroke="#001550" stroke-width="0.8" stroke-miterlimit="10"/>
<path d="M77.3312 26.4241C77.4568 26.3786 77.5928 26.3699 77.7231 26.3991C77.8535 26.4283 77.9728 26.4941 78.067 26.5888C78.1611 26.6836 78.2263 26.8032 78.2547 26.9337C78.2832 27.0643 78.2737 27.2002 78.2275 27.3255C78.1813 27.4508 78.1002 27.5603 77.9938 27.6411C77.8874 27.7219 77.7602 27.7706 77.627 27.7815C77.4939 27.7923 77.3604 27.7649 77.2423 27.7025C77.1243 27.64 77.0265 27.5451 76.9605 27.429C76.8776 27.2464 76.87 27.0385 76.9394 26.8504C77.0088 26.6622 77.1496 26.509 77.3312 26.4241Z" fill="white" stroke="#001550" stroke-width="0.8" stroke-miterlimit="10"/>
<path d="M63.0001 29.821C63.131 29.7942 63.2667 29.8054 63.3914 29.8532C63.5161 29.9011 63.6245 29.9835 63.7039 30.0908C63.7833 30.1982 63.8304 30.326 63.8396 30.4592C63.8489 30.5925 63.8198 30.7255 63.756 30.8428C63.6921 30.9601 63.596 31.0567 63.4791 31.1212C63.3622 31.1857 63.2293 31.2155 63.096 31.207C62.9628 31.1986 62.8347 31.1522 62.7269 31.0734C62.6191 30.9946 62.536 30.8866 62.4875 30.7622C62.4318 30.5694 62.4543 30.3624 62.5503 30.1862C62.6463 30.0099 62.8079 29.8787 63.0001 29.821Z" fill="white" stroke="#001550" stroke-width="0.8" stroke-miterlimit="10"/>
<path d="M59.609 32.3102C60.0285 32.1479 60.2574 31.7292 60.1204 31.3752C59.9833 31.0212 59.5322 30.8659 59.1128 31.0282C58.6933 31.1906 58.4644 31.6092 58.6014 31.9632C58.7384 32.3172 59.1896 32.4726 59.609 32.3102Z" fill="white" stroke="#001550" stroke-width="0.8" stroke-miterlimit="10"/>
<path d="M56.8565 32.9631C56.9874 32.9358 57.1233 32.9465 57.2482 32.9939C57.3731 33.0413 57.4819 33.1235 57.5617 33.2306C57.6415 33.3378 57.689 33.4656 57.6986 33.5989C57.7082 33.7322 57.6795 33.8654 57.6159 33.9829C57.5522 34.1004 57.4563 34.1973 57.3395 34.2621C57.2226 34.3269 57.0896 34.3569 56.9563 34.3487C56.8229 34.3404 56.6947 34.2942 56.5867 34.2155C56.4787 34.1367 56.3955 34.0288 56.3469 33.9043C56.2902 33.7119 56.312 33.5049 56.4075 33.3285C56.503 33.1522 56.6644 33.0208 56.8565 32.9631Z" fill="white" stroke="#001550" stroke-width="0.8" stroke-miterlimit="10"/>
<path d="M78.5682 23.919C78.6513 23.8154 78.7623 23.7376 78.8881 23.6948C79.0139 23.6521 79.1493 23.6461 79.2784 23.6777C79.4075 23.7092 79.5249 23.777 79.6168 23.873C79.7087 23.9689 79.7712 24.0892 79.7972 24.2195C79.8231 24.3498 79.8113 24.4848 79.7631 24.6087C79.7149 24.7325 79.6324 24.84 79.5252 24.9186C79.418 24.9971 79.2906 25.0434 79.158 25.0521C79.0254 25.0607 78.8931 25.0313 78.7767 24.9674C78.6106 24.8555 78.4955 24.6825 78.4565 24.4862C78.4174 24.2898 78.4576 24.0859 78.5682 23.919Z" fill="white" stroke="#001550" stroke-width="0.8" stroke-miterlimit="10"/>
<path d="M87.9337 40.0676C89.4239 39.8156 90.4229 38.375 90.165 36.8501C89.9071 35.3251 88.4899 34.2932 86.9996 34.5453C85.5094 34.7973 84.5104 36.2379 84.7683 37.7629C85.0262 39.2878 86.4434 40.3197 87.9337 40.0676Z" fill="white" stroke="#001550" stroke-width="0.8" stroke-miterlimit="10"/>
<path d="M149.772 89.582C149.722 90.1489 149.558 90.6998 149.288 91.2009C148.344 92.9848 146.609 93.9752 144.84 94.731C140.588 96.5392 135.938 97.2118 131.348 96.6829C131.27 96.6754 131.199 96.6394 131.146 96.5819C131.094 96.5243 131.065 96.4493 131.065 96.3716C131.065 96.2939 131.094 96.2189 131.146 96.1613C131.199 96.1038 131.27 96.0678 131.348 96.0603C136.112 95.568 140.887 94.343 144.243 90.9547C144.538 90.6642 144.715 90.2756 144.742 89.8629C144.791 88.8233 143.786 88.415 142.943 88.1254C141.106 87.4586 139.365 86.552 137.765 85.4292C136.398 84.4707 135.049 83.1733 134.924 81.5081C134.806 79.8922 135.871 78.4644 136.757 77.1062C137.895 75.3542 139.471 72.6899 139.899 70.1936C140.238 68.2099 139.856 66.3333 137.962 65.0996C135.312 63.362 131.655 63.2317 128.605 63.3852C125.689 63.5329 122.88 64.6189 119.984 64.9027C119.209 64.9853 118.429 64.994 117.653 64.9287C114.569 64.6391 111.455 63.4142 108.727 62.0009C107.644 61.4386 106.594 60.8149 105.582 60.133C102.246 57.8684 98.7045 54.3932 100.853 50.866C100.375 51.6508 111.716 55.7515 112.837 55.9571C118.495 56.9967 124.69 54.4483 130.427 54.9058C130.954 54.9464 131.48 55.0004 132.005 55.068C136.769 55.6675 141.339 57.3269 144.359 61.3204C149.184 67.6915 143.664 73.8135 141.067 79.6315C139.564 82.9937 142.963 83.6569 145.518 84.6531C147.69 85.4785 149.977 86.9496 149.772 89.582Z" fill="#10B981" stroke="#001550" stroke-width="0.8" stroke-miterlimit="10"/>
<path d="M140.276 69.3769C140.188 69.662 140.063 69.9345 139.905 70.1878C140.244 68.2041 139.862 66.3275 137.968 65.0938C135.318 63.3562 131.66 63.2259 128.611 63.3794C125.695 63.5271 122.886 64.6131 119.99 64.8969C115.591 63.4344 110.586 61.775 105.588 60.1272C102.252 57.8626 98.7101 54.3874 100.859 50.8602C100.381 51.645 111.722 55.7456 112.842 55.9513C118.501 56.9909 124.696 54.4425 130.432 54.9C130.96 54.9406 131.486 54.9946 132.011 55.0622C131.142 55.9484 130.134 57.2689 130.218 58.4939C130.357 60.5877 133.149 61.7055 135.526 62.1254C137.904 62.5454 141.533 65.4674 140.276 69.3769Z" fill="#001550" stroke="#001550" stroke-width="0.8" stroke-miterlimit="10"/>
<path d="M143.355 74.1611C143.104 74.1586 142.857 74.0971 142.634 73.9816C141.36 73.4545 139.596 73.4342 138.91 74.6302C138.429 75.4701 138.716 76.5561 139.246 77.364C139.776 78.172 140.529 78.812 141.076 79.6113C142.788 82.0873 142.122 85.7478 139.956 87.8387C137.789 89.9296 134.471 90.5435 131.534 89.889C130.706 89.707 129.907 89.4148 129.157 89.0203C127.709 88.2586 126.484 87.1031 125.896 85.5885C123.941 80.5814 129.568 75.0357 127.842 69.9504C127.381 68.5951 126.437 67.4541 125.363 66.51C123.838 65.173 122.046 64.1751 120.107 63.5822C119.733 63.4663 119.354 63.3679 118.971 63.2926C117.39 62.9508 115.757 62.8784 114.167 62.5831C113.822 62.5222 113.478 62.4498 113.139 62.3601C110.585 61.6882 108.378 60.2055 106.336 58.4882C105.384 57.686 104.469 56.8346 103.571 55.989C102.77 55.2798 102.056 54.4777 101.445 53.5998C100.898 52.731 100.576 51.8043 100.883 50.8834C101.218 51.0334 101.543 51.2016 101.859 51.3873C103.388 52.2561 104.813 53.455 106.577 54.0863C108.855 54.8521 111.21 55.3659 113.599 55.6183C115.742 55.8876 117.923 56.0787 120.066 56.4118C122.568 56.7969 125.018 57.3703 127.286 58.4737C130.182 59.8869 132.704 62.1892 134.085 65.1054C135.467 68.0217 135.623 71.5605 134.227 74.471C133.359 76.2867 131.937 77.8071 131.163 79.6663C130.39 81.5255 130.518 84.0421 132.22 85.1136C133.726 86.0606 135.774 85.4293 137.144 84.2825C137.899 83.6483 138.566 82.7621 138.505 81.7775C138.438 80.7233 137.578 79.9212 137.036 79.0118C136.533 78.1618 136.3 77.179 136.368 76.1935C136.436 75.2081 136.801 74.2664 137.416 73.4932C138.03 72.72 138.865 72.1516 139.81 71.8634C140.755 71.5752 141.765 71.5806 142.707 71.8791C143.248 72.0499 143.796 72.3569 144.016 72.8782C144.236 73.3995 143.92 74.1119 143.355 74.1611Z" fill="#10B981" stroke="#001550" stroke-width="0.8" stroke-miterlimit="10"/>
<path d="M130.08 71.7573C129.249 79.9529 124.972 81.259 126.634 85.8925C127.132 87.1643 128.009 88.2528 129.145 89.0115C127.697 88.2498 126.472 87.0943 125.884 85.5797C123.929 80.5726 129.556 75.0269 127.83 69.9416C127.369 68.5834 126.42 67.4395 125.342 66.4925C123.817 65.1555 122.026 64.1576 120.086 63.5647L119.744 61.4275C119.744 61.4275 130.911 63.5618 130.08 71.7573Z" fill="white" stroke="#001550" stroke-width="0.8" stroke-miterlimit="10"/>
<path d="M124.93 64.5146C125.272 64.9808 125.304 65.5369 124.999 65.7628C124.695 65.9886 124.171 65.7917 123.841 65.3255C123.511 64.8592 123.468 64.3032 123.772 64.0802C124.076 63.8572 124.588 64.0512 124.93 64.5146Z" fill="white" stroke="#001550" stroke-width="0.8" stroke-miterlimit="10"/>
<path d="M125.352 66.4925C123.827 65.1555 122.036 64.1576 120.096 63.5647C119.723 63.4489 119.343 63.3504 118.961 63.2751C117.38 62.9334 115.747 62.861 114.157 62.5656L106.338 58.4707C105.385 57.6685 104.47 56.8171 103.572 55.9715C102.771 55.2623 102.057 54.4603 101.446 53.5823L101.86 51.3698C103.389 52.2386 104.814 53.4375 106.578 54.0689C108.856 54.8347 111.211 55.3484 113.601 55.6008C115.744 55.8702 117.924 56.0613 120.067 56.3943C119.416 57.2284 119.407 58.3896 121.86 59.7536C125.092 61.5462 125.483 64.5754 125.352 66.4925Z" fill="#001550" stroke="#001550" stroke-width="0.8" stroke-miterlimit="10"/>
<path d="M127.619 66.7648C127.964 67.231 127.995 67.787 127.691 68.0129C127.387 68.2388 126.863 68.0419 126.533 67.5756C126.203 67.1094 126.159 66.5533 126.461 66.3304C126.762 66.1074 127.277 66.3014 127.619 66.7648Z" fill="white" stroke="#001550" stroke-width="0.8" stroke-miterlimit="10"/>
<path d="M129.14 69.9388C129.384 70.463 129.3 71.0161 128.958 71.1754C128.616 71.3346 128.141 71.0335 127.901 70.5093C127.66 69.9851 127.742 69.4349 128.083 69.2756C128.425 69.1163 128.903 69.4146 129.14 69.9388Z" fill="white" stroke="#001550" stroke-width="0.8" stroke-miterlimit="10"/>
<path d="M128.878 73.9005C128.829 74.4797 128.484 74.914 128.108 74.8822C127.731 74.8503 127.468 74.358 127.529 73.7817C127.589 73.2054 127.922 72.7682 128.299 72.8C128.675 72.8319 128.927 73.3387 128.878 73.9005Z" fill="white" stroke="#001550" stroke-width="0.8" stroke-miterlimit="10"/>
<path d="M127.742 77.8853C127.586 78.4414 127.163 78.8062 126.801 78.7049C126.439 78.6035 126.271 78.0678 126.43 77.5117C126.59 76.9557 127.01 76.5908 127.372 76.6951C127.734 76.7993 127.887 77.3293 127.742 77.8853Z" fill="white" stroke="#001550" stroke-width="0.8" stroke-miterlimit="10"/>
<path d="M126.606 81.5014C126.764 80.946 126.598 80.4121 126.235 80.3089C125.872 80.2058 125.449 80.5724 125.292 81.1278C125.134 81.6832 125.3 82.2171 125.663 82.3202C126.026 82.4234 126.449 82.0568 126.606 81.5014Z" fill="white" stroke="#001550" stroke-width="0.8" stroke-miterlimit="10"/>
<path d="M74.4973 57.9408C74.4973 57.9408 67.9669 61.08 64.6105 63.6081C64.2035 63.9185 63.7747 64.1991 63.3275 64.448C60.7501 65.8728 59.0821 65.0272 56.0297 64.1034C53.6348 63.3736 51.4252 62.2036 49.1518 61.2624C47.0262 60.3936 44.8427 59.7073 42.3985 59.7855C40.2734 59.862 38.198 60.4494 36.348 61.4979C34.4979 62.5464 32.9278 64.0252 31.7703 65.8091C29.3985 69.4725 29.4912 73.773 33.6005 76.0753C37.4464 78.2269 36.3343 83.3702 36.8266 86.9756C37.2871 90.3523 40.9708 91.5802 43.58 91.7337C46.1893 91.8872 46.3428 93.729 42.5056 94.4964C39.5373 95.093 36.2301 92.9152 34.701 90.5C32.8302 87.5432 34.9906 83.9378 32.9316 81.233C31.7153 79.6344 29.6736 78.754 28.0751 77.6101C27.8694 77.4624 27.6696 77.306 27.4785 77.141C20.6382 71.2042 27.2179 60.1851 33.3747 56.765C40.8636 52.6122 50.623 53.2377 58.471 55.9628C60.5458 56.6852 62.7429 56.9906 64.9361 56.8614C67.1292 56.7322 69.2753 56.1709 71.2509 55.2099C74.0542 53.6953 74.4973 57.9408 74.4973 57.9408Z" fill="#10B981" stroke="#001550" stroke-width="0.8" stroke-miterlimit="10"/>
<path d="M67.2145 58.3433L63.3107 64.448C60.7333 65.8728 59.0653 65.0272 56.0129 64.1034C53.618 63.3736 51.4083 62.2036 49.135 61.2624C51.1245 61.552 53.9336 61.8561 56.039 61.6939C59.6705 61.4044 64.9788 59.3193 64.9788 59.3193L67.2145 58.3433Z" fill="#001550" stroke="#001550" stroke-width="0.8" stroke-miterlimit="10"/>
<path d="M80.267 49.838C80.2656 49.8573 80.2656 49.8766 80.267 49.8959C79.9311 52.705 79.0797 55.7689 76.6615 57.2256C75.1412 58.1407 73.2733 58.2044 71.5444 57.715C70.8055 57.5051 70.0968 57.2004 69.4361 56.8085C67.2555 55.5141 65.6222 53.4927 64.0468 51.5089C62.0196 48.9547 59.7405 46.0964 56.2277 45.885C49.9898 45.5143 48.2059 50.6402 46.2395 55.4648C45.5532 57.1474 44.8437 58.7923 43.9227 60.1534C40.2536 65.5341 27.2565 76.6864 21.3545 68.0043C19.2955 64.9751 19.562 60.9208 22.3044 58.4071C24.3084 56.5711 23.8074 58.242 22.3044 60.414C20.8014 62.586 21.8034 68.4329 26.9843 67.9435C32.1652 67.4541 38.0121 61.9286 39.5151 57.9206C41.6958 52.1055 42.0664 45.8126 47.7396 42.0797C53.7777 38.1093 60.5629 39.9367 66.1232 43.5682C70.4932 46.4323 75.0195 49.8814 80.267 49.838Z" fill="#10B981" stroke="#001550" stroke-width="0.8" stroke-miterlimit="10"/>
<path d="M71.541 57.7149C70.802 57.5051 70.0934 57.2004 69.4327 56.8085C67.252 55.514 65.6187 53.4926 64.0433 51.5089C62.0162 48.9547 59.737 46.0963 56.2242 45.8849C49.9863 45.5143 48.2024 50.6401 46.2361 55.4648C46.6126 53.8054 47.8318 49.1545 50.1456 46.4554C52.9952 43.1309 57.2726 42.8934 60.7159 45.0306C64.1592 47.1678 70.5766 54.7697 72.0101 55.6009C72.5574 55.931 72.1925 56.794 71.541 57.7149Z" fill="white" stroke="#001550" stroke-width="0.8" stroke-miterlimit="10"/>
<path d="M67.0198 52.1171C67.4774 52.5515 67.5527 53.2175 67.1849 53.6027C66.8171 53.9879 66.1511 53.9502 65.6935 53.5158C65.2359 53.0814 65.1606 52.4154 65.5284 52.0302C65.8962 51.645 66.5623 51.6827 67.0198 52.1171Z" fill="white" stroke="#001550" stroke-width="0.8" stroke-miterlimit="10"/>
<path d="M64.1976 48.4043C64.6551 48.8387 64.7304 49.5019 64.3627 49.89C63.9949 50.278 63.3288 50.2375 62.8712 49.8031C62.4137 49.3687 62.3384 48.7026 62.7062 48.3146C63.074 47.9265 63.7429 47.9699 64.1976 48.4043Z" fill="white" stroke="#001550" stroke-width="0.8" stroke-miterlimit="10"/>
<path d="M61.1377 45.6184C61.5953 46.0528 61.6677 46.7189 61.3028 47.104C60.9379 47.4892 60.2661 47.4515 59.8085 47.0172C59.3509 46.5828 59.2785 45.9167 59.6434 45.5315C60.0083 45.1464 60.6715 45.184 61.1377 45.6184Z" fill="white" stroke="#001550" stroke-width="0.8" stroke-miterlimit="10"/>
<path d="M56.8986 44.1387C57.5299 44.1387 58.0367 44.5789 58.0338 45.1117C58.0309 45.6446 57.5155 46.0703 56.8755 46.0674C56.2355 46.0645 55.7374 45.6272 55.7402 45.0972C55.7431 44.5673 56.2673 44.1358 56.8986 44.1387Z" fill="white" stroke="#001550" stroke-width="0.8" stroke-miterlimit="10"/>
<path d="M52.4054 44.6686C52.5712 44.6148 52.7489 44.6095 52.9177 44.6533C53.0864 44.6971 53.2391 44.7882 53.3578 44.9158C53.4766 45.0434 53.5564 45.2023 53.5879 45.3737C53.6194 45.5452 53.6012 45.722 53.5356 45.8835C53.47 46.045 53.3597 46.1844 53.2175 46.2853C53.0754 46.3862 52.9074 46.4444 52.7333 46.4531C52.5592 46.4617 52.3863 46.4205 52.2348 46.3342C52.0833 46.2479 51.9597 46.1202 51.8784 45.966C51.7794 45.7238 51.7791 45.4524 51.8776 45.21C51.9761 44.9675 52.1656 44.7732 52.4054 44.6686Z" fill="white" stroke="#001550" stroke-width="0.8" stroke-miterlimit="10"/>
<path d="M49.4875 47.8861C49.5928 47.8068 49.7187 47.7592 49.8501 47.749C49.9816 47.7388 50.1133 47.7663 50.2296 47.8284C50.346 47.8904 50.4422 47.9845 50.5069 48.0994C50.5716 48.2142 50.6021 48.3452 50.5949 48.4769C50.5877 48.6086 50.543 48.7355 50.4661 48.8426C50.3893 48.9497 50.2834 49.0327 50.1609 49.0817C50.0385 49.1306 49.9046 49.1436 49.7751 49.1191C49.6455 49.0946 49.5256 49.0335 49.4296 48.9432C49.2989 48.7945 49.2318 48.6005 49.2426 48.4028C49.2534 48.2052 49.3414 48.0196 49.4875 47.8861Z" fill="white" stroke="#001550" stroke-width="0.8" stroke-miterlimit="10"/>
<path d="M120.078 72.8666C120.64 69.7477 117.365 64.9665 112.925 64.4973C108.486 64.0282 99.2156 66.3884 99.2156 66.3884C99.2156 66.3884 109.325 65.757 111.885 68.6501C113.742 70.7439 114.567 72.6089 114.39 73.5732H114.321C108.94 73.6543 104.84 70.2574 99.0997 71.0769C93.36 71.8965 90.716 75.1313 91.1185 77.9519C91.1185 77.9519 94.7645 74.0047 98.7493 75.056C102.734 76.1072 105.448 76.9934 109.945 78.5514C114.443 80.1094 118.598 79.8517 120.565 78.45C122.531 77.0484 122.647 75.1747 122.647 73.4169C122.647 72.4409 121.761 72.5539 120.078 72.8666Z" fill="#001550" stroke="#001550" stroke-width="0.8" stroke-miterlimit="10"/>
<path d="M71.7991 60.3993C67.4551 61.2189 60.6525 67.4018 60.0154 69.7591C59.3783 72.1164 57.8579 75.0413 57.8579 75.0413C57.8579 75.0413 63.1865 69.7562 69.4591 66.8429C75.7318 63.9295 79.5226 66.1855 79.5226 66.1855C79.5226 66.1855 76.1343 59.5769 71.7991 60.3993Z" fill="#001550" stroke="#001550" stroke-width="0.8" stroke-miterlimit="10"/>
<path d="M127.708 47.5645C126.601 49.7249 124.69 51.0918 122.466 51.7984C121.47 52.1168 120.439 52.3113 119.396 52.3776C117.766 52.4876 114.858 51.3959 113.459 50.5097C112.359 49.8118 108.977 47.5153 107.586 47.3705C105.49 47.1504 103.393 49.8031 103.329 51.5204C103.205 54.9174 113.013 57.0546 115.304 57.9813C120.948 60.2633 124.887 64.5464 123.934 71.1087C123.393 74.8473 121.284 76.7065 118.51 77.4392C113.674 78.7192 106.816 76.5704 102.739 74.9777C101.044 74.3145 99.3011 73.5644 97.4853 73.6832C95.7523 73.8456 94.1505 74.6766 93.0198 75.9999C92.0178 77.1323 91.3372 78.6063 91.427 80.1209C91.4414 80.3441 91.4733 80.5658 91.5226 80.784C91.7433 81.6999 92.2335 82.5285 92.9299 83.1629C93.6263 83.7973 94.4969 84.2085 95.4292 84.3432C97.6301 84.6038 99.915 83.0197 100.387 80.8333C100.421 80.6483 100.525 80.4835 100.677 80.3728C100.735 80.3251 100.804 80.2908 100.877 80.2723C100.95 80.2538 101.026 80.2514 101.101 80.2655C101.175 80.2796 101.245 80.3097 101.306 80.3537C101.368 80.3978 101.419 80.4547 101.456 80.5205C101.718 80.8291 101.914 81.1885 102.031 81.5761C102.148 81.9638 102.184 82.3714 102.136 82.7736C101.87 84.8992 100.161 86.185 98.3339 86.799C96.8677 87.2791 95.3026 87.3733 93.7895 87.0725C92.2763 86.7717 90.8662 86.086 89.6952 85.0816C85.8523 81.6702 86.2201 75.386 89.9559 72.0498C92.9068 69.4116 97.161 68.6616 101.097 69.0873C105.032 69.513 108.768 70.9697 112.501 72.2728C113.133 72.5424 113.815 72.6765 114.502 72.6667C115.185 72.6059 115.886 72.1831 116.048 71.5083C116.12 71.0687 116.048 70.6177 115.843 70.2225C114.951 68.1953 112.898 66.895 110.76 66.3564C108.623 65.8177 106.382 65.9394 104.184 66.0871C99.776 66.3767 95.3192 66.7734 91.1519 68.2243C84.2016 70.6366 74.141 80.6769 82.2207 87.7083C84.1755 89.4053 90.6451 90.9923 93.2254 91.2935C99.3735 92.0146 118.174 88.5278 124.172 89.915C124.264 89.9363 124.346 89.9872 124.406 90.0599C124.467 90.1326 124.501 90.223 124.505 90.3174C124.509 90.4117 124.482 90.5047 124.428 90.5822C124.374 90.6596 124.296 90.7172 124.206 90.7461C118.704 92.4461 98.2006 95.8372 92.4029 95.6693C88.2472 95.5592 81.714 94.0389 78.2822 91.6931C75.3689 89.7036 73.9383 85.5334 73.556 82.0264C73.1738 78.5194 74.196 74.9226 76.1392 71.9774C76.8864 70.8422 78.0679 69.9734 78.5284 68.6587C79.2437 66.6112 77.4453 64.7491 75.7454 63.9093C73.0261 62.5656 69.2584 62.9565 67.0575 65.1111C66.6115 65.5426 66.1714 65.9799 65.7312 66.4172C60.5184 71.6299 56.0239 78.0619 49.9772 82.3218C48.6061 83.3099 47.0164 83.9517 45.3436 84.1926C34.1768 85.684 28.3704 67.9752 38.8654 63.5068C41.3443 62.4526 44.3677 62.6959 46.5599 64.2771C48.7522 65.8583 49.9192 68.7774 49.2792 71.3954C47.811 69.2466 46.1661 66.9501 43.4149 66.5678C42.1481 66.4114 40.8656 66.6857 39.7735 67.3465C38.6815 68.0073 37.8434 69.0162 37.3942 70.2109C35.4366 75.2615 41.2285 80.2657 46.0821 79.0088C50.3855 77.891 52.7428 72.9128 55.1117 69.5883L55.2594 69.3827C57.7644 65.8699 60.3186 62.3252 63.1972 59.1049C65.9136 56.0671 69.6204 54.425 73.1883 52.6353C76.8922 50.779 80.5816 48.7258 83.466 45.6995C86.2896 42.737 85.9913 43.0932 86.889 41.5902C88.4702 38.9375 88.4094 32.4679 91.1055 28.7379C93.8017 25.0079 97.6852 21.4401 102.246 20.3107C107.54 19.0046 113.118 19.8763 118.073 22.0077C130.563 27.3797 130.661 41.7929 127.708 47.5645Z" fill="#10B981" stroke="#001550" stroke-width="0.8" stroke-miterlimit="10"/>
<path d="M117.858 25.1324C117.768 25.7261 116.905 26.0823 115.932 25.9346C114.959 25.7869 114.244 25.1817 114.334 24.588C114.423 23.9943 115.289 23.6381 116.262 23.7887C117.235 23.9393 117.951 24.5417 117.858 25.1324Z" fill="#001550"/>
<path d="M116.403 30.4437C116.403 30.7854 115.916 31.0634 115.317 31.0634C114.717 31.0634 114.231 30.7738 114.231 30.4437C114.231 30.1136 114.717 29.8211 115.317 29.8211C115.916 29.8211 116.403 30.0991 116.403 30.4437Z" fill="#001550"/>
<path d="M104.906 24.8805C105.094 25.1701 104.845 25.6653 104.347 25.9984C103.849 26.3314 103.29 26.3691 103.099 26.0824C102.908 25.7957 103.16 25.2976 103.658 24.9645C104.156 24.6315 104.715 24.5938 104.906 24.8805Z" fill="#001550"/>
<path d="M119.579 40.2088C120.82 40.2088 121.826 39.3064 121.826 38.1932C121.826 37.08 120.82 36.1776 119.579 36.1776C118.338 36.1776 117.332 37.08 117.332 38.1932C117.332 39.3064 118.338 40.2088 119.579 40.2088Z" fill="#001550"/>
<path d="M111.602 21.6052C111.602 21.9469 111.185 22.2249 110.673 22.2249C110.16 22.2249 109.743 21.9353 109.743 21.6052C109.743 21.2751 110.157 20.9855 110.673 20.9855C111.188 20.9855 111.602 21.2635 111.602 21.6052Z" fill="#001550"/>
<path d="M118.508 77.4335C113.672 78.7135 106.814 76.5647 102.737 74.972C101.042 74.3088 99.299 73.5587 97.4832 73.6775C95.7502 73.8399 94.1484 74.6709 93.0177 75.9942C92.0157 77.1266 91.3351 78.6006 91.4249 80.1152C91.4393 80.3384 91.4712 80.5602 91.5205 80.7784C91.1706 79.8777 91.0329 78.9086 91.1179 77.9461C91.3554 75.3398 93.2551 72.6002 98.6474 72.4901C104.04 72.3801 109.4 76.5213 115.244 77.4133C116.324 77.5919 117.426 77.5988 118.508 77.4335Z" fill="white" stroke="#001550" stroke-width="0.8" stroke-miterlimit="10"/>
<path d="M108.262 76.2808C108.216 76.6776 107.752 76.9498 107.222 76.8919C106.692 76.834 106.301 76.4604 106.354 76.0636C106.406 75.6669 106.863 75.3947 107.393 75.4526C107.923 75.5105 108.305 75.8841 108.262 76.2808Z" fill="white" stroke="#001550" stroke-width="0.8" stroke-miterlimit="10"/>
<path d="M104.969 74.914C104.925 75.3108 104.459 75.5859 103.929 75.5251C103.399 75.4643 103.008 75.0936 103.06 74.6969C103.112 74.3001 103.573 74.0279 104.1 74.0858C104.627 74.1437 105.015 74.5173 104.969 74.914Z" fill="white" stroke="#001550" stroke-width="0.8" stroke-miterlimit="10"/>
<path d="M101.352 73.7905C101.309 74.1872 100.842 74.4594 100.312 74.3986C99.7825 74.3378 99.3915 73.97 99.4436 73.5733C99.4958 73.1765 99.9533 72.9014 100.483 72.9622C101.013 73.023 101.393 73.3937 101.352 73.7905Z" fill="white" stroke="#001550" stroke-width="0.8" stroke-miterlimit="10"/>
<path d="M97.7339 73.6658C97.7744 74.0625 97.3748 74.4274 96.8448 74.4795C96.3149 74.5316 95.8544 74.2536 95.8139 73.8569C95.7733 73.4601 96.173 73.0924 96.7029 73.0402C97.2329 72.9881 97.6962 73.269 97.7339 73.6658Z" fill="white" stroke="#001550" stroke-width="0.8" stroke-miterlimit="10"/>
<path d="M94.7299 74.3668C94.9761 74.6824 94.84 75.2037 94.423 75.5251C94.0059 75.8466 93.4644 75.8698 93.2153 75.557C92.9663 75.2442 93.1053 74.723 93.5223 74.3986C93.9393 74.0743 94.4722 74.054 94.7299 74.3668Z" fill="white" stroke="#001550" stroke-width="0.8" stroke-miterlimit="10"/>
<path d="M122.458 51.8013C121.462 52.1197 120.431 52.3143 119.388 52.3805C117.758 52.4906 114.85 51.3988 113.451 50.5126C112.351 49.8147 108.968 47.5182 107.578 47.3734C105.482 47.1533 103.385 49.806 103.321 51.5233C103.321 51.5233 102.887 50.5039 103.428 48.7229C104.28 45.9225 108.43 45.4128 109.496 43.377C110.561 41.3411 109.603 38.9635 109.603 38.9635C109.603 38.9635 111.893 41.5294 110.967 44.3153C110.04 47.1012 112.16 49.0878 114.812 50.4142C117.465 51.7405 118.525 51.8621 120.781 51.8621C121.352 51.865 121.925 51.839 122.458 51.8013Z" fill="#001550" stroke="#001550" stroke-width="0.8" stroke-miterlimit="10"/>
<path d="M89.3099 33.1341L86.8222 34.4228L85.3743 39.2736L86.1359 42.7806C86.1359 42.7806 87.9401 42.4765 89.4286 38.6799" fill="#10B981"/>
<path d="M89.3099 33.1341L86.8222 34.4228L85.3743 39.2736L86.1359 42.7806C86.1359 42.7806 87.9401 42.4765 89.4286 38.6799" stroke="#001550" stroke-width="0.8" stroke-miterlimit="10"/>
<path d="M105.742 45.243C107.596 44.6053 108.569 42.5484 107.916 40.6487C107.263 38.7491 105.23 37.7262 103.376 38.3639C101.521 39.0017 100.548 41.0586 101.201 42.9582C101.855 44.8578 103.887 45.8808 105.742 45.243Z" fill="white" stroke="#001550" stroke-width="0.8" stroke-miterlimit="10"/>
<path d="M107.92 40.6519C107.78 40.2463 107.57 39.8681 107.301 39.534C107.095 39.4182 106.86 39.5022 106.594 39.6383C106.171 39.8555 106.264 40.7503 104.906 41.3614C103.547 41.9724 102.673 42.1288 102.114 41.5381C101.685 41.0834 101.245 41.8885 101.042 42.2939C101.137 42.9344 101.397 43.5389 101.798 44.0471C102.199 44.5553 102.726 44.9493 103.327 45.1898C103.363 45.0864 103.388 44.9797 103.403 44.8713C103.481 44.2747 103.403 43.8693 104.41 43.2409C105.259 42.708 107.196 42.9339 108.013 42.7486C108.187 42.0556 108.155 41.3268 107.92 40.6519Z" fill="#001550" stroke="#001550" stroke-width="0.8" stroke-miterlimit="10"/>
<path d="M83.8528 61.5578C85.5006 59.0789 88.4081 54.6249 89.6447 52.2357C90.3137 50.9499 90.9826 49.5686 91.556 48.3407" stroke="#001550" stroke-width="0.8" stroke-miterlimit="10"/>
<path d="M78.2717 53.1972C80.1508 52.0638 81.9487 50.801 83.6524 49.418" stroke="#001550" stroke-width="0.8" stroke-miterlimit="10"/>
<path d="M98.1399 53.3564C98.3926 54.7689 98.9794 56.1004 99.8514 57.2399C101.105 58.879 103.06 60.0577 104.775 60.8425" stroke="#001550" stroke-width="0.8" stroke-miterlimit="10"/>
</svg>
