<svg width="170" height="120" viewBox="0 0 170 120" fill="none" xmlns="http://www.w3.org/2000/svg"><path opacity=".5" d="M140.274 42.747c-4.651-16.365-17.072-29.369-33.062-35.171a97.067 97.067 0 0 0-18.375-4.647C63.097-1.03 50.083 15.903 48.746 25.423c-1.338 9.52-12.387 9.684-17.83 24.04-5.444 14.356-11.704 47.358 30.196 62.374 41.9 15.016 59.871 2.909 64.685-7.097 4.813-10.005 6.93-17.82 14.52-39.932 2.557-7.463 1.92-15.15-.043-22.06Z" fill="#D9E3FF"/><path d="M58.727 58.114c-5.455 2.683-9.99 6.961-13.47 11.909-3.172 4.51-6.416 10.344-7.266 15.866-.416 2.702-.655 5.566-.434 7.237.22 1.671 9.626 6.74 26.504 9.203 16.879 2.463 36.677 1.822 43.988-.6s21.605-7.09 23.666-10.852c2.062-3.762-1.399-17.088-7.325-23.612-10.937-12.048-21.51-15.759-35.804-16.297-14.294-.537-29.859 7.146-29.859 7.146Z" fill="#001550" stroke="#001550" stroke-miterlimit="10"/><path d="M61.556 64.714c.906 0 1.079.313 1.152.45.836 1.52-.795 4.546-2.15 5.308-.311.137-.65.2-.99.184-1.03 0-2.11-.401-2.62-.976a1.08 1.08 0 0 1-.292-.905c.247-2.143 2.375-3.416 2.717-3.612a6.902 6.902 0 0 1 2.183-.449Zm0-1.84a8.67 8.67 0 0 0-2.945.618s-3.372 1.686-3.762 5.062c-.295 2.558 2.47 3.924 4.73 3.924a3.903 3.903 0 0 0 1.889-.423c2.076-1.167 4.281-5.19 2.856-7.786-.596-1.079-1.686-1.395-2.757-1.395h-.011ZM63.312 78.31c2.094 0 4.65 1.346 5.478 3.923.934 2.897-.737 5.89-2.901 6.851a4.327 4.327 0 0 1-1.79.368c-3.342 0-6.585-3.173-6.659-5.636-.059-1.866 1.72-3.681 2.408-4.211a5.695 5.695 0 0 1 3.335-1.3h.129v.004Zm0-1.845h-.177a7.524 7.524 0 0 0-4.417 1.686c-.203.158-3.21 2.577-3.115 5.71.11 3.64 4.363 7.41 8.49 7.41a6.18 6.18 0 0 0 2.54-.53c3.022-1.362 5.102-5.342 3.894-9.086-1.067-3.313-4.3-5.194-7.223-5.194l.008.004ZM70.12 66.787c-.03.177-.063.368-.096.574-.438 2.702-.457 3.092-.401 3.608a6.54 6.54 0 0 0 .68 2.282 1.88 1.88 0 0 1-.518-.073c-1.046-.332-1.841-2.154-1.594-3.682a3.792 3.792 0 0 1 1.16-2.09 5.16 5.16 0 0 1 .769-.62Zm1.358-2.44c-.92 0-2.411.772-3.409 1.752a5.544 5.544 0 0 0-1.686 3.114c-.368 2.245.766 5.054 2.853 5.71.358.108.73.162 1.105.161.953 0 1.877-.338 2.142-.942.368-.825-.828-1.443-1.038-3.372-.026-.254-.033-.504.39-3.114.412-2.544.516-2.879.261-3.115a.868.868 0 0 0-.614-.195h-.004ZM70.374 58.066c.692 0 1.303.464 1.348.655 0 .306-.913 1.256-2.187 1.804a4.626 4.626 0 0 1-1.4.416c.064-.453.197-.894.395-1.307.129-.261.817-1.568 1.84-1.568h.004Zm-.004-1.84c-2.208 0-3.331 2.3-3.471 2.595-.096.187-1.178 2.47-.133 3.504.346.307.798.465 1.26.438a6.141 6.141 0 0 0 2.245-.57c1.288-.552 3.652-2.124 3.243-3.891-.283-1.234-1.792-2.066-3.114-2.077h-.03ZM50.952 70.498c-.192.857-.494 2.27.504 3.5.997 1.23 2.507 1.267 3.497 1.281.188 0 .43 0 .626.026l-.026.078c-.073.224-.445.56-1.789.872-.435.108-.88.164-1.329.17a2.85 2.85 0 0 1-1.97-.66c-.776-.699-.89-1.726-.957-2.34-.103-.921-.158-1.864.369-2.394a2.18 2.18 0 0 1 1.067-.533h.008Zm.338-1.867a4.024 4.024 0 0 0-2.702 1.105c-1.204 1.196-1.012 2.944-.91 3.89.086.737.259 2.342 1.558 3.505a4.67 4.67 0 0 0 3.192 1.127 7.553 7.553 0 0 0 1.74-.218c.767-.176 2.626-.607 3.115-2.076.048-.143.368-1.104-.129-1.818-.902-1.3-3.313-.11-4.285-1.296-.89-1.104.6-2.842-.257-3.762a1.778 1.778 0 0 0-1.322-.453v-.004ZM44.24 79.2l.092.22a4.465 4.465 0 0 0 1.925 2.405c.548.32 1.166.501 1.8.53.21-.004.415.05.596.154.282.117.534.295.737.523-.211.368-.479.7-.792.987a3.397 3.397 0 0 1-1.95 1.03 3.08 3.08 0 0 1-.535.045 2.993 2.993 0 0 1-1.605-.438 3.42 3.42 0 0 1-1.413-2.08c-.398-1.33-.368-2.268.114-2.787a2.05 2.05 0 0 1 1.034-.59h-.003Zm.106-1.84c-.953.06-1.845.49-2.488 1.196-1.41 1.542-.736 3.858-.52 4.542a5.224 5.224 0 0 0 2.21 3.115 4.89 4.89 0 0 0 2.576.71 5.254 5.254 0 0 0 3.792-1.62c.57-.581 1.495-1.516 1.296-2.595-.199-1.078-1.274-1.597-1.686-1.818-1.105-.582-1.473-.159-2.338-.648-1.343-.78-.968-2.209-2.076-2.724a1.802 1.802 0 0 0-.755-.159h-.01ZM53.282 88.396h.052c.213.04.574.338.89.916.078.14.145.283.203.431a6.941 6.941 0 0 0-.968.118 7.365 7.365 0 0 0-1.716.519 5.892 5.892 0 0 0-1.767 1.226 1.806 1.806 0 0 1-.062-.53c.026-.678 1.064-1.362 1.903-1.91.548-.369 1.174-.774 1.472-.774l-.007.004Zm.007-1.844c-.839 0-1.6.5-2.473 1.074-1.156.759-2.666 1.753-2.724 3.373-.056 1.494.95 3.114 1.81 3.114.77 0 .928-1.325 2.596-2.076.415-.182.85-.313 1.296-.39.328-.062.66-.094.994-.096.515 0 .865.08 1.104.08a.488.488 0 0 0 .368-.114c.762-.699-.368-4.52-2.595-4.929a1.952 1.952 0 0 0-.368-.036h-.008ZM58.596 94.234c.412.451.914.811 1.473 1.057a4.13 4.13 0 0 0 1.638.338 6.377 6.377 0 0 0 1.866-.338c.302-.107.616-.173.935-.2.287.016.561.125.78.31-.05.208-.122.41-.213.604a2.389 2.389 0 0 1-1.02 1.193c-.22.121-.467.184-1.207.184-.31 0-.674 0-1.104-.023-1.635-.047-2.183-.077-2.802-.423-.497-.272-.953-.552-1.07-.972-.148-.522.264-1.123.397-1.321.132-.199.224-.31.305-.409h.022Zm.1-2.054c-.961 0-1.675 1.05-1.937 1.428-.261.38-1.03 1.506-.648 2.857.335 1.185 1.373 1.76 1.944 2.076 1.042.57 1.962.6 3.633.648.439 0 .818.022 1.153.022a4 4 0 0 0 2.094-.412 4.263 4.263 0 0 0 1.815-2.076c.228-.53.523-1.226.262-1.948a2.448 2.448 0 0 0-1.429-1.296 2.805 2.805 0 0 0-1.082-.217c-1.02 0-1.859.538-2.801.538a2.253 2.253 0 0 1-.917-.192c-1.104-.475-1.167-1.42-2.076-1.428h-.011ZM77.306 75.456c.04.21.07.413.092.593.159 1.336-.162 2.787-.773 3.53a1.513 1.513 0 0 1-1.137.586h-.144c-1.056 0-2.054-.924-2.271-2.084h.383a4.27 4.27 0 0 0 3.843-2.643l.007.018Zm-.11-2.9h-.033a1.421 1.421 0 0 0-1.127.938c-.206.471-.287.994-.522 1.454a2.459 2.459 0 0 1-2.095 1.303h-.04c-.262 0-.53-.036-.792-.036-.19-.006-.38.025-.56.092-.692.276-.898 1.174-.791 1.91.287 2.032 2.01 3.766 4.1 3.766h.28c2.986-.217 3.884-3.681 3.59-6.155-.114-.983-.368-1.999-1.016-2.731a1.405 1.405 0 0 0-.994-.53v-.011Z" fill="#001550" stroke="#001550" stroke-miterlimit="10"/><path d="M79.408 65.502a4.186 4.186 0 0 1 2.577.987c.99.791 1.546 1.97 1.656 3.5.056.788.126 1.764-.294 2.132a1.524 1.524 0 0 1-.972.317 1.075 1.075 0 0 1-.61-.148 1.438 1.438 0 0 1-.203-.427 4.2 4.2 0 0 0-1.767-2.27A5.208 5.208 0 0 0 77 68.94h-.21c-.462.001-.921.048-1.373.14a6.704 6.704 0 0 1 .78-1.546c.368-.552 1.174-1.697 2.603-1.97.202-.039.408-.059.614-.058l-.007-.004Zm.007-1.837c-.32 0-.641.03-.957.089-2.16.412-3.313 2.05-3.762 2.727-1.222 1.76-1.789 4.27-1.038 4.786.09.063.196.096.306.092.537 0 1.35-.611 2.827-.611h.11c.692 0 1.33 0 1.948.39 1.17.707.824 1.84 1.814 2.596a2.89 2.89 0 0 0 1.712.511c.797.01 1.57-.263 2.183-.773 1.104-.968.987-2.507.906-3.633-.044-.64-.221-3.107-2.334-4.786a6.11 6.11 0 0 0-3.715-1.388ZM65.614 56.866a6.106 6.106 0 0 0-1.84.409c-.64.228-2.618.935-2.6 2.208a1.932 1.932 0 0 0 1.562 1.686c.09.018.183.027.276.026.673 0 1.214-.438 1.667-.802 1.134-.913 2.18-2.6 1.69-3.244a.938.938 0 0 0-.773-.28l.018-.003ZM58.31 60.12c-.157 0-.316.007-.475.022-2.209.225-3.924 2.113-4.543 3.895-.03.088-.533 1.568-.129 1.815a.173.173 0 0 0 .107.03c.276 0 .84-.487 2.618-1.974 2.058-1.723 2.337-1.933 2.856-2.209 1.035-.548 1.701-.648 1.686-.905-.018-.32-1.03-.674-2.12-.674ZM41.135 89.57a7.797 7.797 0 0 0 2.846 1.005c-.131.17-.28.326-.446.464a1.76 1.76 0 0 1-.857.486c-.45 0-1.105-.887-1.543-1.955Zm-1.682-3.401a.402.402 0 0 0-.195.047c-.663.336-.368 2.18-.13 3.115.369 1.399 1.565 3.972 3.505 4.023h.056c.931 0 1.638-.592 2.02-.909 1.046-.872 1.922-2.47 1.425-3.243-.338-.53-1.034-.232-2.334-.52-2.525-.562-3.585-2.513-4.347-2.513ZM81.563 55.589a3.512 3.512 0 0 1 2.393.824c.576.539.923 1.278.968 2.065.03 1.52-1.233 2.894-1.885 2.945a4.641 4.641 0 0 1-.611-.522 7.841 7.841 0 0 0-3.681-2.15 7.602 7.602 0 0 0-1.889-.236h-.103a5.801 5.801 0 0 1 1.984-2.142 5.551 5.551 0 0 1 2.805-.78l.019-.004Zm-.019-1.837a7.363 7.363 0 0 0-3.725 1.056c-2.293 1.406-3.725 4.33-2.986 5.32a.784.784 0 0 0 .711.287c.346 0 .788-.074 1.351-.074.487-.002.971.057 1.443.177 2.713.68 3.078 2.728 4.712 2.728h.088c1.76-.078 3.682-2.404 3.634-4.786a4.914 4.914 0 0 0-1.557-3.376 5.29 5.29 0 0 0-3.634-1.307l-.037-.025ZM77.325 85.723c.135.001.27.018.401.052a2.036 2.036 0 0 1 1.392 1.56c.232 1.197-.821 2.423-1.878 2.68a2.575 2.575 0 0 1-.567.063 1.86 1.86 0 0 1-1.391-.537c-.596-.67-.394-1.915.136-2.68a2.576 2.576 0 0 1 1.907-1.138Zm0-1.84c-1.473 0-2.739.946-3.416 1.928-.917 1.337-1.26 3.505 0 4.933a3.645 3.645 0 0 0 2.764 1.153c.336 0 .671-.038.998-.115 2.028-.493 3.66-2.654 3.247-4.803a3.858 3.858 0 0 0-2.728-2.982 3.216 3.216 0 0 0-.865-.115ZM71.538 92.953a1.03 1.03 0 0 1 .416.077 2.148 2.148 0 0 1-.24.737c-.195.44-.556.787-1.004.964a4.107 4.107 0 0 1-.368.114 2.311 2.311 0 0 1 .18-1.027s.368-.795.887-.861h.13v-.004Zm0-1.837a3.565 3.565 0 0 0-.368.022c-1.539.195-2.234 1.712-2.338 1.948-.46 1.052-.552 2.739.39 3.375.265.17.574.256.888.247a3.793 3.793 0 0 0 1.189-.247 3.684 3.684 0 0 0 2.076-1.947c.217-.486.7-1.564.129-2.466a2.293 2.293 0 0 0-1.977-.932h.011ZM88.62 71.34c.582 0 1.573.582 1.977 1.333.483.898.07 2.12-.125 2.706-.13.416-.347.8-.636 1.126a8.302 8.302 0 0 0-1.263 2.124 8.69 8.69 0 0 0-.696 3.118c0 .137-.018.313-.033.405a2.666 2.666 0 0 1-1.693.46c-1.06 0-2.025-.39-2.353-.953a1.756 1.756 0 0 1-.066-1.52c.173-.368.504-.53 1.274-.873.975-.43 2.311-1.02 2.945-2.647.28-.73.326-1.528.132-2.285a3.115 3.115 0 0 1-.033-1.326c.151-.942.313-1.498.482-1.66a.416.416 0 0 1 .092 0l-.003-.007Zm.004-1.833a2.01 2.01 0 0 0-.953.221c-1.035.549-1.278 2.054-1.428 2.986-.302 1.87.4 2.209 0 3.243-.715 1.84-3.185 1.395-4.153 3.372a3.597 3.597 0 0 0 .129 3.247c.736 1.274 2.378 1.863 3.935 1.863 1.245 0 2.437-.369 3.074-1.086.84-.936.092-1.76 1.038-4.024.736-1.774 1.399-1.741 1.947-3.372.262-.784.855-2.559 0-4.153-.706-1.314-2.29-2.297-3.589-2.297ZM94.758 61.147c1.027 0 1.815.291 2.342.865a2.295 2.295 0 0 1 .692 1.616c-.092 1.274-2.047 2.308-3.406 2.636a6.385 6.385 0 0 1-1.472.177 3.511 3.511 0 0 1-2.54-.88c-.464-.45-1.064-1.362-.935-1.84.129-.48 1.627-1.245 3.066-1.955a6.253 6.253 0 0 1 1.186-.512 4.98 4.98 0 0 1 1.064-.11l.003.003Zm-.003-1.844a6.675 6.675 0 0 0-1.499.162 7.43 7.43 0 0 0-1.557.648c-2.209 1.082-3.681 1.804-4.023 3.114-.479 1.749 1.292 3.505 1.424 3.634a5.364 5.364 0 0 0 3.818 1.41 8.345 8.345 0 0 0 1.9-.225c1.752-.427 4.62-1.84 4.785-4.285.114-1.58-.961-2.757-1.167-2.982a4.884 4.884 0 0 0-3.681-1.472v-.004ZM86.428 88.4c.043.524.12 1.045.228 1.56.061.313.142.622.243.924.048.148.092.287.159.567a9.404 9.404 0 0 1 .368 3.35c-.25 1.948-.622 2.146-.667 2.161a.13.13 0 0 1-.058 0 2.257 2.257 0 0 1-1.245-.648c-.449-.438-.622-1.943-.887-4.222-.202-1.745-.077-2.017-.018-2.15a2.92 2.92 0 0 1 1.321-1.244c.217-.125.409-.225.57-.306l-.014.008Zm.858-2.136c-.854 0-2 .66-2.33.85a4.67 4.67 0 0 0-2.077 2.077c-.243.541-.368 1.145-.129 3.114.343 2.945.516 4.418 1.429 5.32a3.962 3.962 0 0 0 2.522 1.167c.25.003.5-.04.736-.13 1.42-.551 1.693-2.675 1.818-3.633a11.041 11.041 0 0 0-.39-4.023c-.18-.736-.243-.736-.39-1.428-.416-2-.03-2.71-.52-3.115a1.002 1.002 0 0 0-.654-.199h-.015ZM77.903 95.935c.48.62.896 1.286 1.244 1.988.221.453.685 1.395.604 1.59-.107.254-1.13.53-1.517.633a8.136 8.136 0 0 1-2.054.343c-.614 0-1.034-.133-1.255-.394a1.501 1.501 0 0 1-.254-1.337c.059-.029.162-.073.24-.103a5.466 5.466 0 0 0 2.992-2.72Zm-.53-2.618a.739.739 0 0 0-.22.034c-.737.232-.34 1.472-1.558 2.724-1.034 1.071-1.888.754-2.463 1.686-.614.99-.4 2.558.387 3.504.68.814 1.69 1.053 2.661 1.053a9.812 9.812 0 0 0 2.53-.405c.982-.265 2.27-.611 2.727-1.686.409-.964-.084-1.966-.651-3.114-.737-1.473-2.297-3.796-3.413-3.796ZM101.307 95.17a.249.249 0 0 1 .07 0c.368.257.644 1.895-.044 2.944-.262.405-.623.593-1.904 1.134a13.119 13.119 0 0 1-5.09 1.012h-.299a11.053 11.053 0 0 0 2.846-1.671 7.97 7.97 0 0 0 1.49-1.572c.195-.278.43-.526.696-.736.806-.64 1.745-1.105 2.235-1.105v-.007Zm0-1.834c-1.473 0-3.159 1.336-3.372 1.505-1.072.85-.976 1.33-2.209 2.334a10.496 10.496 0 0 1-3.114 1.69c-2.945 1.145-4.882.95-4.93 1.428-.047.479 1.841 1.105 3.244 1.425a15.24 15.24 0 0 0 3.412.368 14.911 14.911 0 0 0 5.802-1.156c1.318-.556 2.131-.913 2.724-1.818 1.167-1.786.872-4.786-.648-5.581a1.993 1.993 0 0 0-.909-.206v.01ZM93.588 83.4a2.945 2.945 0 0 1 2.21 1.038c.275.369.297.994.294 2.81 0 2.47-.03 3.356-.582 3.986-.497.557-1.189.9-1.933.96a.817.817 0 0 1-.39-.08c-.368-.18-.552-.806-.659-1.145-.191-.589-.136-.975.103-2.356.067-.39.144-.828.225-1.344.243-1.579.328-2.635.368-3.335 0-.173.03-.368.044-.504a1.43 1.43 0 0 1 .313-.03h.007Zm-.007-1.84a2.63 2.63 0 0 0-1.642.49c-.707.559-.316 1.104-.909 4.928-.368 2.4-.685 3.225-.258 4.543.18.556.541 1.679 1.557 2.209.382.194.805.293 1.234.287a4.726 4.726 0 0 0 3.313-1.583c1.034-1.178 1.034-2.577 1.038-5.19 0-2.003 0-3.004-.652-3.895a4.786 4.786 0 0 0-3.68-1.786v-.003ZM99.542 71.573c.924.031 1.839.182 2.724.449 1.13.298 2.838.736 3.144 1.663.28.836-.324 2.014-.828 2.552a7.796 7.796 0 0 0-1.211-.832c-.825-.464-1.955-1.105-3.214-1.105a3.51 3.51 0 0 0-1.13.184c-1.355.464-1.867 1.569-2.168 2.228a4.188 4.188 0 0 1-.214.426h-.048a1.296 1.296 0 0 1-.82-.35 1.808 1.808 0 0 1-.251-1.27 4.786 4.786 0 0 1 1.612-3.202 3.681 3.681 0 0 1 2.408-.736l-.004-.007Zm.004-1.834a5.522 5.522 0 0 0-3.556 1.156c-2.209 1.786-3.037 5.522-1.557 7.138.57.585 1.347.923 2.164.939.282.003.561-.052.821-.162 1.244-.541.987-2.18 2.209-2.577.173-.058.355-.086.537-.085.781 0 1.62.475 2.316.865 1.292.737 1.362 1.278 1.947 1.296h.037c1.384 0 3.446-2.945 2.687-5.194-.618-1.84-2.86-2.444-4.417-2.853a12.418 12.418 0 0 0-3.192-.508l.004-.015ZM94.755 54.374c1.27 0 2.404.394 4.123.994 1.815.633 2.459 1.167 2.555 1.321.241.344.361.759.342 1.178a.899.899 0 0 1-.571.151c-.11 0-.22-.013-.327-.04-.206-.06-.309-.166-.689-.71-.463-.674-1.163-1.687-2.62-2.033a3.34 3.34 0 0 0-.796-.1 4.05 4.05 0 0 0-1.656.413 9.481 9.481 0 0 1-1.84.585c-.623.158-1.257.264-1.897.317a.567.567 0 0 1-.147 0 1.134 1.134 0 0 1-.147-.976c.188-.482 1.167-.835 2.919-1.045a6.94 6.94 0 0 1 .77-.044l-.019-.011Zm.018-1.83a8.28 8.28 0 0 0-.983.063c-1.174.14-3.74.445-4.417 2.209-.398 1.038-.092 2.47.78 3.114a1.95 1.95 0 0 0 1.223.368c.77-.048 1.532-.172 2.278-.368 2.007-.427 2.452-.953 3.133-.953.124.001.247.016.368.044 1.572.368 1.506 2.242 3.243 2.727.267.072.542.108.818.107a2.521 2.521 0 0 0 2.039-.887c.736-1.001.221-2.478-.261-3.243-.177-.287-.755-1.105-3.501-2.076-1.797-.626-3.148-1.105-4.727-1.105h.007ZM108.061 62.988a9.63 9.63 0 0 1 4.226.986c1.27.63 1.841.935 2.18 1.557.298.564.489 1.59-.302 3.314a6.886 6.886 0 0 1-1.583 2.19 8.763 8.763 0 0 1-.368-.814c-.571-1.3-1.432-3.258-3.626-4.123a3.422 3.422 0 0 0-1.189-.254 16.977 16.977 0 0 1-1.907-.239c-.847-.14-1.841-.31-2.459-.464.196-.36.444-.69.736-.979 1.038-1.034 2.595-1.104 3.968-1.152h.343l-.019-.022Zm.019-1.819h-.416c-1.528.063-3.645.144-5.191 1.69-.754.736-1.778 2.26-1.296 3.243.328.67 1.565.887 4.024 1.296 2.323.39 2.172.173 2.724.39 2.765 1.104 2.485 4.892 4.281 5.19.072.012.145.018.218.019 1.417 0 2.86-2.209 3.416-3.39.276-.59 1.347-2.894.261-4.933-.622-1.167-1.645-1.675-2.985-2.334a11.487 11.487 0 0 0-5.036-1.178v.007ZM107.096 57.779a.77.77 0 0 1 .162.018.74.74 0 0 1-.394.1l-.051-.04a.935.935 0 0 1 .198-.063h.085v-.015Zm0-1.826c-.123 0-.246.01-.368.026-.099 0-1.55.254-1.819 1.428-.202.884.398 1.712 1.038 2.076.295.166.627.253.965.25a2.63 2.63 0 0 0 2.021-1.026 1.755 1.755 0 0 0 .39-1.3c-.165-.861-1.233-1.454-2.242-1.454h.015ZM122.667 70.332a.935.935 0 0 1 .575.18c.301.24.261.832.25.98l-.523-.435c-.154-.132-.486-.409-.736-.622a.784.784 0 0 1 .42-.103h.014Zm-.014-1.84a2.418 2.418 0 0 0-1.764.72 2.094 2.094 0 0 0-.519 1.686c.081.369.284.597 1.428 1.558 1.495 1.259 1.801 1.432 2.007 1.432h.07c.81-.11 1.307-1.307 1.428-2.076.029-.203.254-1.793-.909-2.724a2.766 2.766 0 0 0-1.719-.582l-.022-.015ZM117.795 74.256h.074c.308.101.57.31.736.589.218.288.323.645.295 1.005-.174.332-.419.62-.718.847a4.288 4.288 0 0 1-1.583.913c-.336.135-.678.25-1.027.346a1.795 1.795 0 0 1-.405-1.182c.022-.82.887-1.472 1.354-1.84.409-.313.921-.7 1.256-.7l.018.022Zm-.018-1.863c-.95 0-1.738.597-2.364 1.068-.625.471-2.035 1.542-2.076 3.243-.026 1.174.589 2.625 1.69 2.986.156.052.321.079.486.077a5.376 5.376 0 0 0 1.719-.468c.82-.269 1.574-.71 2.209-1.296.541-.511 1.078-1.016 1.248-1.781.342-1.52-.899-3.534-2.544-3.8a2.524 2.524 0 0 0-.368-.029Z" fill="#001550" stroke="#001550" stroke-miterlimit="10"/><path d="M109.951 77.757c.038.057.074.116.107.177.218.522.227 1.109.025 1.638-.257.736-.821 1.502-1.774 2.393a8.849 8.849 0 0 1-3.372 2.131c-.438.132-.893.2-1.351.203a3.312 3.312 0 0 1-1.811-.483 2.161 2.161 0 0 1-1.001-2.065h.025c.368 0 .773.04 1.204.081.53.048 1.079.096 1.657.096a6.13 6.13 0 0 0 2.86-.619c1.288-.662 2.161-1.84 2.86-2.801.203-.272.394-.534.571-.736v-.015Zm-.118-1.97a1.218 1.218 0 0 0-.615.162 2.343 2.343 0 0 0-.578.534c-.854.994-1.693 2.559-2.945 3.21-.63.3-1.323.443-2.021.416-.975 0-1.98-.176-2.9-.176-.347-.01-.69.059-1.005.202a1.69 1.69 0 0 0-.737 1.046c-.441 1.56.387 3.313 1.749 4.189.841.522 1.815.79 2.805.773.637-.001 1.271-.095 1.881-.28a10.708 10.708 0 0 0 4.09-2.551 8.111 8.111 0 0 0 2.257-3.129 4.052 4.052 0 0 0-.118-3.056 2.963 2.963 0 0 0-.416-.625 2.054 2.054 0 0 0-1.447-.736v.022ZM115.55 83.518c.077-.004.154-.004.232 0-.052.214-.118.46-.17.655-.368 1.418-.589 2.132-1.262 2.864-1.351 1.473-3.244 1.473-3.866 1.473h-.048a1.271 1.271 0 0 1-.592-.092 1.435 1.435 0 0 1-.368-.262 13.47 13.47 0 0 0 1.954-1.343 10.013 10.013 0 0 0 2.018-2.264c.331-.486.405-.586.736-.736.433-.204.906-.31 1.384-.313l-.018.018Zm.018-1.859a5.155 5.155 0 0 0-2.209.5c-1.472.737-1.192 1.635-3.114 3.244-1.675 1.402-2.735 1.42-2.853 2.337-.118.917.78 1.915 1.686 2.334.428.19.894.28 1.362.262h.066c.737 0 3.313-.033 5.191-2.076 1.009-1.105 1.307-2.21 1.686-3.634.298-1.104.449-1.715.132-2.209-.316-.493-1.104-.762-1.962-.762l.015.004ZM123.154 81.136a1.66 1.66 0 0 1 .236 0c.784.096 1.597.637 1.645 1.105.048.467-.802 1.17-1.594 1.494a4.08 4.08 0 0 1-1.421.276c-.221 0-.755-.025-.931-.28-.247-.35-.03-1.236.445-1.84a2.1 2.1 0 0 1 1.62-.773v.018Zm0-1.859a3.935 3.935 0 0 0-3.044 1.454c-.821 1.02-1.381 2.794-.52 4.024.553.791 1.491 1.06 2.43 1.06a5.802 5.802 0 0 0 2.109-.412c1.02-.416 2.905-1.62 2.728-3.372-.158-1.568-1.862-2.577-3.247-2.728a3.757 3.757 0 0 0-.456-.026Z" fill="#001550" stroke="#001550" stroke-miterlimit="10"/><path d="M126.236 75.01c-.836 0-1.749.582-1.841 1.208-.092.626.736.932 2.076 2.728.703.931 1.053 1.395 1.167 1.944.298 1.42-.688 2.094-.257 3.247.25.677.916 1.31 1.435 1.31a.461.461 0 0 0 .122 0c.898-.188 1.443-2.44 1.167-4.281-.107-.714-.589-1.642-1.557-3.505-1.134-2.179-1.502-2.492-1.948-2.595a1.693 1.693 0 0 0-.368-.04l.004-.015ZM119.861 90.45a3.677 3.677 0 0 1-.582 1.432c-.504.696-1.299.957-3.202 1.531-.503.15-1.016.26-1.535.332a8.357 8.357 0 0 0 1.067-.446 7.223 7.223 0 0 0 2.334-1.84c.275-.378.661-.66 1.104-.807.268-.093.542-.163.821-.21l-.007.008Zm.471-1.878c-.65.02-1.293.144-1.903.368-1.892.678-1.664 1.742-3.633 2.725-1.797.898-2.883.463-3.634 1.557-.368.552-.618 1.417-.258 1.947.144.217.486.52 2.077.52a12.71 12.71 0 0 0 3.626-.52c2.021-.61 3.265-.986 4.152-2.209a5.646 5.646 0 0 0 .909-2.208c.162-.803.269-1.314 0-1.69-.268-.376-.765-.486-1.343-.486l.007-.004ZM103.495 89.257a1.885 1.885 0 0 1-1.369.954c.099-.243.252-.46.449-.634.268-.196.589-.307.92-.32Zm.1-1.84a3.526 3.526 0 0 0-2.176.736c-1.005.817-1.62 2.5-.905 3.372a1.682 1.682 0 0 0 1.351.533 3.875 3.875 0 0 0 1.892-.533c1.222-.737 2.135-2.426 1.557-3.372-.302-.49-.972-.737-1.719-.737ZM107.575 94.867h.066c.369.081.792.906.774 1.675 0 .299-.155 1.17-.564 1.34a.664.664 0 0 1-.265.048.874.874 0 0 1-.456-.125 1.725 1.725 0 0 1-.486-1.285 1.967 1.967 0 0 1 .456-1.472c.14-.1.304-.162.475-.177v-.004Zm0-1.837a2.807 2.807 0 0 0-1.612.571c-1.579 1.274-1.532 4.565.129 5.71.442.295.962.451 1.494.449.333.002.664-.062.972-.188 1.605-.674 1.682-2.809 1.686-2.986.033-1.398-.736-3.18-2.209-3.504a2.049 2.049 0 0 0-.463-.052h.003ZM127.233 88.532a1.73 1.73 0 0 1 1.075.493 23.177 23.177 0 0 1-2.51 1.922l-.608.427c.107-.228.232-.464.368-.718.634-1.06 1.234-2.065 1.569-2.117h.092l.014-.007Zm-.014-1.833c-.124 0-.247.01-.369.03-1.181.183-1.811 1.236-2.856 2.985a9.8 9.8 0 0 0-1.167 2.981c-.243.983-.368 1.473-.129 1.69a.501.501 0 0 0 .35.114c.894 0 2.775-1.336 3.802-2.061 2.32-1.646 3.479-2.467 3.372-3.505-.114-1.145-1.619-2.234-2.996-2.234h-.007ZM68.82 99.682h.06a.92.92 0 0 1 .162.369 3.988 3.988 0 0 1-.829-.221c.19-.092.397-.145.608-.155v.007Zm0-1.847c-1.505 0-3.272 1.373-3.22 2.245.03.526.736.88 1.3 1.167a6.148 6.148 0 0 0 2.348.637 1.595 1.595 0 0 0 1.285-.508c.703-.847.327-2.577-.652-3.243a1.87 1.87 0 0 0-1.06-.298ZM45.795 95.42h.155c.35.07.671.244.92.5a9.843 9.843 0 0 1-1.252-.497c.06-.003.118-.003.177 0v-.003Zm0-1.837c-1.358 0-2.824.788-2.893 1.575-.118 1.326 3.68 3.118 7.215 3.118h.18c.611 0 3.788-.066 4.153-1.428.232-.85-.667-2.12-1.686-2.334-.091-.02-.184-.03-.277-.03-.854 0-1.266.895-2.448.94h-.084c-1.576 0-2.032-1.628-3.81-1.82-.114 0-.232-.018-.368-.018l.018-.003Z" fill="#001550" stroke="#001550" stroke-miterlimit="10"/><path d="M82.568 47.397a17.242 17.242 0 0 1-8.55 8.855 15.426 15.426 0 0 1-5.015 1.39c-5.922.58-12.125-2.623-14.807-7.937a13.034 13.034 0 0 1-1.167-3.519 14.367 14.367 0 0 1 .29-6.412 13.825 13.825 0 0 1 1.158-2.925c2.348-4.312 6.637-6.272 11.294-7.179 3.087-.602 6.252-.894 9.224-1.92 1.28-.443 2.568-1.06 3.368-2.151 1.375-1.868.683-4.892-1.364-5.977a6.203 6.203 0 0 0-2.378-.617c-.93-.09-1.891-.096-2.809-.267-.342-.064-.718-.182-.869-.492-.243-.49.238-1.028.704-1.312 2.548-1.567 6.105-1.098 8.311.92 2.207 2.02 3.006 5.364 2.164 8.234-.843 2.87-3.203 5.193-6.018 6.206-3.186 1.144-6.74.718-9.94 1.79a9.435 9.435 0 0 0-4.945 3.71 7.24 7.24 0 0 0-.904 6.032c.9 2.8 3.62 4.633 6.403 5.59a18.506 18.506 0 0 0 15.85-2.02Z" fill="#10B981" stroke="#001550" stroke-width=".8" stroke-miterlimit="10"/><path d="M75.201 54.77s-.5.643-1.181 1.48a15.428 15.428 0 0 1-5.016 1.39c-5.922.579-12.125-2.624-14.807-7.938a13.035 13.035 0 0 1-1.167-3.516c1.017 2.505 3.296 4.43 5.549 5.853 4.514 2.85 10.335 2.137 12.591 1.9a7.15 7.15 0 0 1 4.031.83Z" fill="#fff" stroke="#001550" stroke-width=".8" stroke-miterlimit="10"/><path d="M64.21 54.804c.631.038 1.118.496 1.086 1.029-.032.532-.58.932-1.196.897-.617-.034-1.115-.495-1.086-1.028.029-.533.567-.947 1.196-.898ZM60.925 53.692c.579.206.935.782.758 1.286-.176.504-.8.741-1.396.533-.596-.209-.935-.785-.761-1.286.173-.5.802-.741 1.398-.533ZM57.626 51.77c.498.385.637 1.04.313 1.447-.325.409-.997.45-1.495.064-.498-.385-.64-1.042-.313-1.448.328-.405.997-.452 1.495-.063ZM55.22 50.023a.697.697 0 0 1-.867 1.073.698.698 0 0 1-.202-1.03.762.762 0 0 1 1.069-.043ZM73.3 30.064c-5.702 1.9-12.522-.79-18.198 6.73a15.262 15.262 0 0 0-1.784 2.98 13.818 13.818 0 0 1 1.158-2.925c2.349-4.312 6.638-6.272 11.294-7.179 3.088-.602 6.253-.894 9.224-1.92 1.28-.443 2.569-1.06 3.368-2.151 1.376-1.868.684-4.892-1.364-5.978a6.204 6.204 0 0 0-2.377-.616c1.181-.24 4.202-.51 5.337 2.606 1.416 3.944-.959 6.55-6.658 8.453Z" fill="#fff" stroke="#001550" stroke-width=".8" stroke-miterlimit="10"/><path d="M66.81 29.346a.698.698 0 1 1-.809.698.758.758 0 0 1 .808-.698ZM70.522 28.917a.701.701 0 1 1-.81.698.762.762 0 0 1 .81-.698ZM74.096 28.06a.7.7 0 1 1-.81.698.762.762 0 0 1 .81-.698ZM77.331 26.424a.7.7 0 1 1-.37 1.005.762.762 0 0 1 .37-1.005ZM63 29.821a.7.7 0 1 1-.513.941.762.762 0 0 1 .513-.941ZM59.609 32.31c.42-.162.648-.58.511-.935-.137-.354-.588-.51-1.007-.347-.42.163-.649.581-.512.935.137.354.589.51 1.008.347ZM56.856 32.963a.7.7 0 1 1-.51.941.759.759 0 0 1 .51-.94ZM78.568 23.919a.699.699 0 1 1 .209 1.048.759.759 0 0 1-.209-1.048ZM87.934 40.068c1.49-.252 2.489-1.693 2.231-3.218S88.49 34.293 87 34.545c-1.49.252-2.49 1.693-2.232 3.218s1.675 2.557 3.166 2.305Z" fill="#fff" stroke="#001550" stroke-width=".8" stroke-miterlimit="10"/><path d="M149.772 89.582a4.188 4.188 0 0 1-.484 1.619c-.944 1.784-2.679 2.774-4.448 3.53a26.676 26.676 0 0 1-13.492 1.952.315.315 0 0 1-.283-.311.314.314 0 0 1 .283-.312c4.764-.492 9.539-1.717 12.895-5.105.295-.29.472-.68.499-1.092.049-1.04-.956-1.448-1.799-1.738a22.202 22.202 0 0 1-5.178-2.696c-1.367-.958-2.716-2.256-2.841-3.92-.118-1.617.947-3.045 1.833-4.403 1.138-1.752 2.714-4.416 3.142-6.912.339-1.984-.043-3.86-1.937-5.094-2.65-1.738-6.307-1.868-9.357-1.715-2.916.148-5.725 1.234-8.621 1.518-.775.082-1.555.091-2.331.026-3.084-.29-6.198-1.515-8.926-2.928a32.093 32.093 0 0 1-3.145-1.868c-3.336-2.265-6.877-5.74-4.729-9.267-.478.785 10.863 4.886 11.984 5.091 5.658 1.04 11.853-1.509 17.59-1.051a31 31 0 0 1 1.578.162c4.764.6 9.334 2.259 12.354 6.252 4.825 6.372-.695 12.494-3.292 18.312-1.503 3.362 1.896 4.025 4.451 5.021 2.172.825 4.459 2.297 4.254 4.929Z" fill="#10B981" stroke="#001550" stroke-width=".8" stroke-miterlimit="10"/><path d="M140.276 69.377a3.462 3.462 0 0 1-.371.81c.339-1.983-.043-3.86-1.937-5.093-2.65-1.738-6.308-1.868-9.357-1.715-2.916.148-5.725 1.234-8.621 1.518a6173.622 6173.622 0 0 0-14.402-4.77c-3.336-2.264-6.878-5.74-4.729-9.267-.478.785 10.863 4.886 11.983 5.091 5.659 1.04 11.854-1.508 17.59-1.051.528.04 1.054.095 1.579.162-.869.886-1.877 2.207-1.793 3.432.139 2.094 2.931 3.212 5.308 3.631 2.378.42 6.007 3.342 4.75 7.252Z" fill="#001550" stroke="#001550" stroke-width=".8" stroke-miterlimit="10"/><path d="M143.355 74.161a1.603 1.603 0 0 1-.721-.18c-1.274-.526-3.038-.547-3.724.65-.481.84-.194 1.925.336 2.733s1.283 1.448 1.83 2.247c1.712 2.476 1.046 6.137-1.12 8.228-2.167 2.09-5.485 2.704-8.422 2.05a9.474 9.474 0 0 1-2.377-.869c-1.448-.761-2.673-1.917-3.261-3.431-1.955-5.008 3.672-10.553 1.946-15.639-.461-1.355-1.405-2.496-2.479-3.44a14.33 14.33 0 0 0-5.256-2.928 11.03 11.03 0 0 0-1.136-.29c-1.581-.341-3.214-.414-4.804-.709-.345-.06-.689-.133-1.028-.223-2.554-.672-4.761-2.154-6.803-3.872-.952-.802-1.867-1.653-2.765-2.499a13.466 13.466 0 0 1-2.126-2.39c-.547-.868-.869-1.795-.562-2.716.335.15.66.319.976.504 1.529.87 2.954 2.068 4.718 2.7a32.88 32.88 0 0 0 7.022 1.531c2.143.27 4.324.46 6.467.794 2.502.385 4.952.958 7.22 2.062 2.896 1.413 5.418 3.715 6.799 6.631 1.382 2.917 1.538 6.456.142 9.366-.868 1.816-2.29 3.336-3.064 5.195-.773 1.86-.645 4.376 1.057 5.448 1.506.947 3.554.315 4.924-.832.755-.634 1.422-1.52 1.361-2.504-.067-1.055-.927-1.857-1.469-2.766a4.875 4.875 0 0 1 2.774-7.149 4.878 4.878 0 0 1 2.897.016c.541.17 1.089.478 1.309 1 .22.52-.096 1.233-.661 1.282Z" fill="#10B981" stroke="#001550" stroke-width=".8" stroke-miterlimit="10"/><path d="M130.08 71.757c-.831 8.196-5.108 9.502-3.446 14.135a6.681 6.681 0 0 0 2.511 3.12c-1.448-.762-2.673-1.918-3.261-3.432-1.955-5.007 3.672-10.553 1.946-15.638-.461-1.359-1.41-2.502-2.488-3.45a14.321 14.321 0 0 0-5.256-2.927l-.342-2.137s11.167 2.134 10.336 10.33Z" fill="#fff" stroke="#001550" stroke-width=".8" stroke-miterlimit="10"/><path d="M124.93 64.515c.342.466.374 1.022.069 1.248-.304.226-.828.029-1.158-.438-.33-.466-.373-1.022-.069-1.245.304-.223.816-.029 1.158.435Z" fill="#fff" stroke="#001550" stroke-width=".8" stroke-miterlimit="10"/><path d="M125.352 66.493a14.321 14.321 0 0 0-5.256-2.928 11.037 11.037 0 0 0-1.135-.29c-1.581-.342-3.214-.414-4.804-.71l-7.819-4.094c-.953-.802-1.868-1.654-2.766-2.5a13.462 13.462 0 0 1-2.126-2.389l.414-2.212c1.529.869 2.954 2.068 4.718 2.699a32.875 32.875 0 0 0 7.023 1.532c2.143.27 4.323.46 6.466.793-.651.834-.66 1.996 1.793 3.36 3.232 1.792 3.623 4.821 3.492 6.739Z" fill="#001550" stroke="#001550" stroke-width=".8" stroke-miterlimit="10"/><path d="M127.619 66.765c.345.466.376 1.022.072 1.248-.304.226-.828.029-1.158-.437-.33-.467-.374-1.023-.072-1.246.301-.223.816-.029 1.158.435ZM129.14 69.939c.244.524.16 1.077-.182 1.236-.342.16-.817-.141-1.057-.666-.241-.524-.159-1.074.182-1.233.342-.16.82.139 1.057.663ZM128.878 73.9c-.049.58-.394 1.014-.77.982-.377-.032-.64-.524-.579-1.1.06-.577.393-1.014.77-.982.376.032.628.539.579 1.1ZM127.742 77.885c-.156.556-.579.921-.941.82-.362-.102-.53-.637-.371-1.193.16-.556.58-.921.942-.817.362.104.515.634.37 1.19ZM126.606 81.501c.158-.555-.008-1.089-.371-1.192-.363-.103-.786.263-.943.819-.158.555.008 1.09.371 1.192.363.103.786-.263.943-.819Z" fill="#fff" stroke="#001550" stroke-width=".8" stroke-miterlimit="10"/><path d="M74.497 57.94s-6.53 3.14-9.886 5.668c-.407.31-.836.591-1.284.84-2.577 1.425-4.245.58-7.297-.345-2.395-.73-4.605-1.9-6.878-2.84-2.126-.87-4.31-1.556-6.754-1.477a13.237 13.237 0 0 0-10.628 6.023c-2.372 3.663-2.279 7.964 1.83 10.266 3.846 2.152 2.734 7.295 3.227 10.9.46 3.377 4.144 4.605 6.753 4.759 2.61.153 2.763 1.995-1.074 2.762-2.969.597-6.276-1.58-7.805-3.996-1.87-2.957.29-6.562-1.77-9.267-1.216-1.599-3.257-2.479-4.856-3.623a8.49 8.49 0 0 1-.596-.469c-6.84-5.937-.261-16.956 5.896-20.376 7.489-4.153 17.248-3.527 25.096-.802a16.679 16.679 0 0 0 12.78-.753c2.803-1.515 3.246 2.73 3.246 2.73Z" fill="#10B981" stroke="#001550" stroke-width=".8" stroke-miterlimit="10"/><path d="m67.215 58.343-3.904 6.105c-2.578 1.425-4.246.58-7.298-.345-2.395-.73-4.605-1.9-6.878-2.84 1.99.289 4.799.593 6.904.43 3.631-.289 8.94-2.374 8.94-2.374l2.236-.976Z" fill="#001550" stroke="#001550" stroke-width=".8" stroke-miterlimit="10"/><path d="M80.267 49.838a.4.4 0 0 0 0 .058c-.336 2.809-1.187 5.873-3.605 7.33-1.52.915-3.389.978-5.118.489a8.9 8.9 0 0 1-2.108-.907c-2.18-1.294-3.814-3.315-5.39-5.3-2.026-2.553-4.306-5.412-7.818-5.623-6.238-.37-8.022 4.755-9.989 9.58-.686 1.682-1.395 3.327-2.316 4.688-3.67 5.381-16.667 16.533-22.569 7.851-2.058-3.029-1.792-7.083.95-9.597 2.004-1.836 1.503-.165 0 2.007s-.5 8.019 4.68 7.53c5.181-.49 11.028-6.015 12.531-10.023 2.18-5.816 2.551-12.108 8.225-15.841 6.038-3.97 12.823-2.143 18.383 1.488 4.37 2.864 8.896 6.313 14.144 6.27Z" fill="#10B981" stroke="#001550" stroke-width=".8" stroke-miterlimit="10"/><path d="M71.541 57.715a8.893 8.893 0 0 1-2.108-.907c-2.181-1.294-3.814-3.315-5.39-5.3-2.027-2.553-4.306-5.412-7.819-5.623-6.238-.37-8.022 4.755-9.988 9.58.377-1.66 1.596-6.31 3.91-9.01 2.85-3.324 7.127-3.562 10.57-1.424 3.443 2.137 9.86 9.739 11.294 10.57.547.33.182 1.193-.469 2.114Z" fill="#fff" stroke="#001550" stroke-width=".8" stroke-miterlimit="10"/><path d="M67.02 52.117c.457.434.533 1.1.165 1.486-.368.385-1.034.347-1.492-.087-.457-.435-.532-1.1-.165-1.486.368-.385 1.034-.347 1.492.087ZM64.198 48.404c.457.435.532 1.098.165 1.486-.368.388-1.034.347-1.492-.087-.457-.434-.533-1.1-.165-1.488.368-.389 1.037-.345 1.492.09ZM61.138 45.618c.457.435.53 1.1.165 1.486-.365.385-1.037.348-1.494-.087-.458-.434-.53-1.1-.166-1.486.365-.385 1.029-.347 1.495.087ZM56.899 44.139c.63 0 1.138.44 1.135.973-.003.533-.518.958-1.158.955-.64-.002-1.139-.44-1.136-.97.003-.53.527-.961 1.159-.958ZM52.405 44.669a.915.915 0 1 1-.527 1.297 1.002 1.002 0 0 1 .527-1.297ZM49.487 47.886a.692.692 0 1 1-.057 1.057.756.756 0 0 1 .057-1.057Z" fill="#fff" stroke="#001550" stroke-width=".8" stroke-miterlimit="10"/><path d="M120.078 72.867c.562-3.12-2.713-7.9-7.153-8.37-4.439-.469-13.71 1.891-13.71 1.891s10.11-.631 12.67 2.262c1.857 2.094 2.682 3.959 2.505 4.923h-.069c-5.381.081-9.481-3.316-15.221-2.496-5.74.82-8.384 4.054-7.981 6.875 0 0 3.645-3.947 7.63-2.896 3.985 1.051 6.699 1.937 11.196 3.495 4.498 1.558 8.653 1.3 10.62-.101 1.966-1.402 2.082-3.275 2.082-5.033 0-.976-.886-.863-2.569-.55ZM71.8 60.4c-4.345.819-11.147 7.002-11.785 9.36-.637 2.356-2.157 5.281-2.157 5.281s5.329-5.285 11.601-8.198c6.273-2.914 10.064-.657 10.064-.657s-3.389-6.61-7.724-5.787Z" fill="#001550" stroke="#001550" stroke-width=".8" stroke-miterlimit="10"/><path d="M127.708 47.565c-1.107 2.16-3.018 3.527-5.242 4.233-.996.319-2.027.513-3.07.58-1.63.11-4.538-.982-5.937-1.868-1.1-.698-4.482-2.995-5.873-3.14-2.096-.22-4.193 2.433-4.257 4.15-.124 3.397 9.684 5.535 11.975 6.461 5.644 2.282 9.583 6.565 8.63 13.128-.541 3.738-2.65 5.598-5.424 6.33-4.836 1.28-11.694-.869-15.771-2.461-1.695-.663-3.438-1.414-5.254-1.295A6.695 6.695 0 0 0 93.02 76c-1.002 1.132-1.683 2.606-1.593 4.12.014.224.046.446.096.664a4.71 4.71 0 0 0 3.906 3.56c2.201.26 4.486-1.324 4.958-3.51a.734.734 0 0 1 .29-.461.515.515 0 0 1 .629-.02.513.513 0 0 1 .15.168 2.948 2.948 0 0 1 .68 2.253c-.266 2.125-1.975 3.411-3.802 4.025a8.978 8.978 0 0 1-8.639-1.717c-3.843-3.412-3.475-9.696.26-13.032 2.952-2.638 7.206-3.388 11.142-2.963 3.935.426 7.671 1.883 11.404 3.186.632.27 1.314.404 2.001.394.683-.061 1.384-.484 1.546-1.159.072-.44 0-.89-.205-1.285-.892-2.028-2.945-3.328-5.083-3.867-2.137-.538-4.378-.417-6.576-.269-4.408.29-8.865.686-13.032 2.137-6.95 2.413-17.011 12.453-8.931 19.484 1.954 1.697 8.424 3.284 11.004 3.585 6.149.722 24.949-2.765 30.947-1.378a.428.428 0 0 1 .333.402.431.431 0 0 1-.299.43c-5.502 1.7-26.005 5.09-31.803 4.922-4.156-.11-10.689-1.63-14.12-3.976-2.914-1.99-4.345-6.16-4.727-9.667-.382-3.507.64-7.103 2.583-10.049.747-1.135 1.929-2.004 2.39-3.318.715-2.048-1.084-3.91-2.784-4.75-2.719-1.343-6.487-.953-8.688 1.202-.445.432-.886.869-1.326 1.306-5.213 5.213-9.707 11.645-15.754 15.905a10.48 10.48 0 0 1-4.633 1.87c-11.167 1.492-16.974-16.217-6.479-20.685 2.48-1.054 5.503-.811 7.695.77s3.36 4.5 2.72 7.118c-1.469-2.148-3.114-4.445-5.865-4.827a5.688 5.688 0 0 0-6.02 3.643c-1.958 5.05 3.833 10.055 8.687 8.798 4.303-1.118 6.66-6.096 9.03-9.42l.147-.206c2.505-3.513 5.06-7.058 7.938-10.278 2.717-3.038 6.423-4.68 9.991-6.47 3.704-1.856 7.394-3.91 10.278-6.935 2.824-2.963 2.525-2.607 3.423-4.11 1.581-2.653 1.52-9.122 4.217-12.852 2.696-3.73 6.58-7.298 11.14-8.427 5.294-1.306 10.872-.435 15.827 1.697 12.49 5.372 12.588 19.785 9.635 25.557Z" fill="#10B981" stroke="#001550" stroke-width=".8" stroke-miterlimit="10"/><path d="M117.858 25.132c-.09.594-.953.95-1.926.803-.973-.148-1.688-.753-1.598-1.347.089-.594.955-.95 1.928-.8.973.151 1.689.754 1.596 1.344ZM116.403 30.444c0 .341-.487.62-1.086.62-.6 0-1.086-.29-1.086-.62s.486-.623 1.086-.623c.599 0 1.086.278 1.086.623ZM104.906 24.88c.188.29-.061.785-.559 1.118-.498.333-1.057.371-1.248.084-.191-.286.061-.784.559-1.117.498-.334 1.057-.371 1.248-.084ZM119.579 40.209c1.241 0 2.247-.903 2.247-2.016s-1.006-2.015-2.247-2.015c-1.241 0-2.247.902-2.247 2.015s1.006 2.016 2.247 2.016ZM111.602 21.605c0 .342-.417.62-.929.62-.513 0-.93-.29-.93-.62s.414-.62.93-.62c.515 0 .929.279.929.62Z" fill="#001550"/><path d="M118.508 77.433c-4.836 1.28-11.694-.868-15.771-2.461-1.695-.663-3.438-1.413-5.254-1.294a6.695 6.695 0 0 0-4.465 2.316c-1.002 1.133-1.683 2.607-1.593 4.121.014.223.046.445.096.663-.35-.9-.488-1.87-.403-2.832.237-2.606 2.137-5.346 7.53-5.456 5.392-.11 10.752 4.031 16.596 4.923 1.08.179 2.182.186 3.264.02Z" fill="#fff" stroke="#001550" stroke-width=".8" stroke-miterlimit="10"/><path d="M108.262 76.28c-.046.398-.51.67-1.04.612-.53-.058-.921-.432-.868-.828.052-.397.509-.67 1.039-.611.53.057.912.431.869.828ZM104.969 74.914c-.044.397-.51.672-1.04.611-.53-.06-.921-.431-.869-.828.052-.397.513-.67 1.04-.611.527.058.915.431.869.828ZM101.352 73.79c-.043.397-.51.67-1.04.609-.53-.061-.92-.429-.868-.826.052-.396.51-.672 1.039-.61.53.06.91.43.869.828ZM97.734 73.666c.04.397-.36.761-.89.814-.53.052-.99-.226-1.03-.623-.04-.397.359-.765.889-.817.53-.052.993.229 1.03.626ZM94.73 74.367c.246.315.11.837-.307 1.158-.417.322-.959.345-1.208.032-.249-.313-.11-.834.307-1.158.417-.325.95-.345 1.208-.032Z" fill="#fff" stroke="#001550" stroke-width=".8" stroke-miterlimit="10"/><path d="M122.458 51.801a12.73 12.73 0 0 1-3.07.58c-1.63.11-4.538-.982-5.937-1.868-1.1-.698-4.483-2.995-5.873-3.14-2.096-.22-4.193 2.433-4.257 4.15 0 0-.434-1.02.107-2.8.852-2.8 5.002-3.31 6.068-5.346 1.065-2.036.107-4.413.107-4.413s2.29 2.565 1.364 5.351c-.927 2.786 1.193 4.773 3.845 6.1 2.653 1.325 3.713 1.447 5.969 1.447.571.003 1.144-.023 1.677-.06Z" fill="#001550" stroke="#001550" stroke-width=".8" stroke-miterlimit="10"/><path d="m89.31 33.134-2.488 1.289-1.448 4.85.762 3.508s1.804-.304 3.293-4.101" fill="#10B981"/><path d="m89.31 33.134-2.488 1.289-1.448 4.85.762 3.508s1.804-.304 3.293-4.101" stroke="#001550" stroke-width=".8" stroke-miterlimit="10"/><path d="M105.742 45.243c1.854-.638 2.827-2.695 2.174-4.594-.653-1.9-2.686-2.923-4.54-2.285-1.855.638-2.828 2.695-2.175 4.594.654 1.9 2.686 2.923 4.541 2.285Z" fill="#fff" stroke="#001550" stroke-width=".8" stroke-miterlimit="10"/><path d="M107.92 40.652a3.718 3.718 0 0 0-.619-1.118c-.206-.116-.441-.032-.707.104-.423.218-.33 1.112-1.688 1.723-1.359.611-2.233.768-2.792.177-.429-.455-.869.35-1.072.756a3.707 3.707 0 0 0 2.285 2.896 1.66 1.66 0 0 0 .076-.319c.078-.596 0-1.002 1.007-1.63.849-.533 2.786-.307 3.603-.492a3.663 3.663 0 0 0-.093-2.097Z" fill="#001550" stroke="#001550" stroke-width=".8" stroke-miterlimit="10"/><path d="M83.853 61.558c1.648-2.48 4.555-6.933 5.792-9.322a104.012 104.012 0 0 0 1.911-3.895M78.272 53.197a47.298 47.298 0 0 0 5.38-3.779M98.14 53.356a8.997 8.997 0 0 0 1.711 3.884c1.254 1.639 3.209 2.818 4.924 3.602" stroke="#001550" stroke-width=".8" stroke-miterlimit="10"/></svg>