<svg width="170" height="120" fill="none" xmlns="http://www.w3.org/2000/svg"><path opacity=".7" d="M85.066 119.966s20.652-.627 34.435-17.551c13.782-16.924 14.805-40.401 16.141-59.406 1.336-19.006-9.59-33.62-26.134-35.841C92.964 4.946 88.086 19.46 69.24 27.316c-18.845 7.856-25.037 7.143-36.64 23.81-11.604 16.666-4.534 42.75 15.293 56.452 19.826 13.702 37.173 12.388 37.173 12.388Z" fill="#E3EDFF"/><path d="m92.137 71.702-.36 4.179s-2.772 8.407-4.005 11.617c-1.234 3.209-1.746 5.502-1.49 6.116.256.613 8.017 17.986 8.017 17.986s-1.388 2.548-2.21 3.212c-.823.665-1.9 1.283-1.54 1.54.36.256 3.029.151 3.492 0 .463-.152 3.905-2.55 4.417-2.907.512-.357.052-1.07-.308-1.732-.36-.662-.667-.713-.719-1.121-.051-.408-4.213-17.99-4.213-17.99l3.546-4.024s-.517 4.995-.155 6.013c.362 1.019 6.057 18.715 6.057 18.715a16.925 16.925 0 0 1-2.033 1.796c-.962.673-2.88 1.175-2.599 1.681.282.505 5.99.056 6.667.056.678 0 1.469.113 1.583-.562.114-.674-.623-2.971-.677-3.643-.055-.672-1.599-17.073-1.599-17.073l.564-7.953a29.715 29.715 0 0 0 1.552-8.307 26.878 26.878 0 0 0-.926-7.697s-9.259.703-9.77.703c-.513 0-3.29-.605-3.29-.605Z" fill="#fff" stroke="#001550" stroke-width=".8" stroke-miterlimit="10"/><path d="M105.617 112.624c-.057-.672-1.598-17.073-1.598-17.073l.563-7.954a29.715 29.715 0 0 0 1.552-8.307 26.877 26.877 0 0 0-.926-7.696s-9.269.713-9.78.713c-.513 0-3.29-.61-3.29-.61l-.36 4.179s-2.773 8.412-4.006 11.621c-1.234 3.21-1.746 5.503-1.49 6.117.256.613 8.017 17.986 8.017 17.986s1.91.031 3.308-.633a.718.718 0 0 1-.176-.385c-.051-.408-4.213-17.99-4.213-17.99l3.546-4.025s-.517 4.995-.155 6.014c.362 1.018 6.057 18.715 6.057 18.715s1.976.629 3.088.095a5.705 5.705 0 0 1-.137-.767Z" fill="#001550" stroke="#001550" stroke-width=".8" stroke-miterlimit="10"/><path d="m85.102 24.616.667 4.992 3.905 12.586 5.392 5.962s3.391 1.283 4.932 2.65c1.542 1.368 2.827 2.089 3.288 3.72.46 1.632-.518 8.918-.564 9.937-.047 1.018.719 2.753.719 2.753l1.745 4.382s-5.855 1.834-9.039 1.375c-3.183-.46-4.11-.667-4.11-.667v-6.414s-.154-2.191-.154-2.342c0-.152-1.079-3.161-1.182-5.76-.104-2.599-.052-4.077-.104-4.382-.051-.305-3.595-7.44-4.057-8.815-.464-1.375-.872-3.058-.976-3.415-.103-.356-2.004-11.821-2.004-11.821s-.975-1.224-1.13-2.294c-.155-1.07-.204-1.732-.204-1.732l2.876-.715Z" fill="#fff" stroke="#001550" stroke-width=".8" stroke-miterlimit="10"/><path d="m90.243 43.712-3.931 3.163 4.285 6.532s-.354 4.644-.14 6.122c.215 1.477.743 5.693.743 5.693l.938 6.48 13.203-.562-2.555-8.343s-.106-7.276-.318-9.174c-.212-1.899-2.659-3.892-2.659-3.892l-9.566-6.019Z" fill="#10B981" stroke="#001550" stroke-width=".8" stroke-miterlimit="10"/><path d="M91.63 38.172s-1.644 1.783-1.592 3.21c.026.72 0 1.223-.156 1.48-.155.256-1.293 1.12-1.13 1.426l.412.813s1.034 3.466 1.337 3.569c.302.102 2.413-.051 2.413-.051s-.36 5.86.207 5.86c.566 0 4.469-3.262 4.88-3.567.411-.305.563-4.638.563-4.638s1.13.562-2.004-3.923c-3.134-4.484-4.93-4.18-4.93-4.18Z" fill="#fff" stroke="#001550" stroke-width=".8" stroke-miterlimit="10"/><path d="M91.472 42.791c-.041.306-.178.542-.305.514-.127-.029-.194-.28-.153-.586.041-.305.179-.541.306-.513.126.028.196.277.152.585Z" fill="#001550"/><path d="M90.754 41.688s.564-.666 1.335.204" stroke="#001550" stroke-width=".8" stroke-miterlimit="10"/><path d="M90.956 46.17c0 .28-.148.513-.334.513-.186 0-.334-.228-.334-.513 0-.285.15-.513.334-.513.184 0 .334.223.334.513Z" fill="#001550"/><path d="M96.248 43.114s-1.034 7.543-1.797 10.752c-.763 3.21.051 6.32.925 6.065.875-.254 1.387-3.212 2.62-5.605 1.234-2.394 2.721-2.5 3.647-1.835.926.665 1.849 3.158 1.901 3.312.052.154 0 2.7-.411 5.247-.412 2.547-.719 3.415-.155 4.69.563 1.275 2.979 3.26 3.75-.257.77-3.517-.872-3.925-1.231-6.927-.36-3.002.775-4.025-.207-6.216-.983-2.191-3.031-3.058-3.75-3.874-.719-.816-1.234-2.648-1.294-2.853-.059-.205-3.998-2.499-3.998-2.499Z" fill="#001550" stroke="#001550" stroke-width=".8" stroke-miterlimit="10"/><path d="M91.32 38.573s4.932 5.403 5.91 6.67c.977 1.267 1.334 2.04 2.156 1.632l.823-.408s.871.459 2.105-.408 2.004-.919-.36-4.995c-2.363-4.077-3.698-6.063-6.37-5.298-2.671.765-4.365 1.024-4.264 2.807Z" fill="#10B981" stroke="#001550" stroke-width=".8" stroke-miterlimit="10"/><path d="M85.51 25.123s-.307-1.934-.667-1.835c-.36.1-2.928 1.427-2.878 1.683.049.257 0 1.324.517 1.324s3.186-.816 3.186-.816l-.158-.356Z" fill="#fff" stroke="#001550" stroke-width=".8" stroke-miterlimit="10"/><path d="m84.124 23.698.872 2.14M83.356 24.059l.667 1.988M82.635 24.513l.46 1.58" stroke="#001550" stroke-width=".8" stroke-miterlimit="10"/><path d="M85.56 28.951s.517-2.345.463-3.006c-.055-.662-.619-1.122-1.294-1.54-.675-.418-.775.103-.41.562.364.46.666.865.666.865s-1.23.918-1.034 1.885c.197.967.517 1.07.517 1.07" fill="#fff"/><path d="M85.56 28.951s.517-2.345.463-3.006c-.055-.662-.619-1.122-1.294-1.54-.675-.418-.775.103-.41.562.364.46.666.865.666.865s-1.23.918-1.034 1.885c.197.967.517 1.07.517 1.07" stroke="#001550" stroke-width=".8" stroke-miterlimit="10"/><path d="m97.325 64.312-5.752-5.503s-.103-1.631-.41-2.293c-.309-.662-1.553-1.283-1.798-1.478-.246-.195-.978-.713-1.293-.205-.316.508-.308.77-.205.97.104.2-.977 1.68-.977 2.393 0 .713.925 1.58 1.551 1.937a9.38 9.38 0 0 0 1.749.662s4.158 4.995 5.188 6.216c1.03 1.222 3.491 2.907 3.954 2.702.463-.206 2.405-4.28 2.405-4.28l-4.412-1.12Z" fill="#fff" stroke="#001550" stroke-width=".8" stroke-miterlimit="10"/><path d="M99.385 53.104s-1.078.61-1.13 2.496c-.052 1.886-.926 8.723-.926 8.723l5.036 2.242s1.551-8.053 1.644-10.244c.094-2.191-1.9-3.771-2.826-3.669" fill="#10B981"/><path d="M99.385 53.104s-1.078.61-1.13 2.496c-.052 1.886-.926 8.723-.926 8.723l5.036 2.242s1.551-8.053 1.644-10.244c.094-2.191-1.9-3.771-2.826-3.669" stroke="#001550" stroke-width=".8" stroke-miterlimit="10"/><path d="m95.432 70.376 1.958.24c.6.074 1.208.082 1.81.022 1.862-.182 6.042-.56 6.401-.32.463.305.719 1.17.823 1.375.103.205.367 2.309 1.96 7.601 1.593 5.293 1.645 7.697 1.645 7.697s-1.748 1.375-3.598 1.885c-1.849.51-5.907-.613-7.241-.613-1.335 0-1.898-.051-1.898-.051s-1.035-11.568-1.39-13.3a29.929 29.929 0 0 0-1.078-3.668l.608-.868ZM93.476 70.018s-2.364.816-2.467 1.326c-.104.51.155 3.21 1.034 3.007.88-.203 2.568-.46 2.67-1.427.1-.967-.57-3.058-1.237-2.906Z" fill="#fff" stroke="#001550" stroke-width=".8" stroke-miterlimit="10"/><path d="m93.475 70.017 1.797 10.04s2.876-.257 3.287-1.07c.411-.814-2.62-7.797-3.132-8.613-.512-.816-1.541-.865-1.952-.357ZM50.741 53.559s.603 1.057.357 1.732c-.245.674-.383 1.003-.383 1.003s1.583 1.595 3 2.842c1.418 1.247 3.495 2.679 3.495 2.679l3.077-1.517.983 4.277s-4.156 1.796-4.539 1.714c-.383-.082-5.69-7.479-6.424-8.318-.735-.838-1.474-1.652-1.583-1.677-.109-.026-.6-3.384-.6-3.384l1.909-.218.708.867Z" fill="#fff" stroke="#001550" stroke-width=".8" stroke-miterlimit="10"/><path d="M49.519 52.55s.517 1.739.73 1.739c.211 0 .902-.082.682-1-.22-.92-.859-1.535-1.412-.74Z" fill="#fff" stroke="#001550" stroke-width=".8" stroke-miterlimit="10"/><path d="M134.206 7.864c-6.386-.362-14.225 1.629-14.225 1.629s3.647-4.526 7.48-6.157c3.026-1.283 6.618-1.78 7.996-1.932-12.828-1.701-19.914 5.785-30.616 6.821-7.48.724-6.093.514-24.08-3.62C62.772.474 49.918 6.956 45.95 8.645a51.813 51.813 0 0 0-7.393 3.94l4.872 19.344s19.514-8.584 29.716-10.726c10.203-2.142 16.255 2.106 28.636 1.57 12.326-.531 14.697-3.933 25.042-10.419 6.293-3.948 10.345-2.847 16.175-2.924-2.361-1.132-5.248-1.365-8.793-1.565Z" fill="#FFC966" stroke="#001550" stroke-miterlimit="10"/><path d="M38.328 11.216 56.52 84.563" stroke="#001550" stroke-linecap="round" stroke-linejoin="round"/><path d="M47.297 53.24s.494 2.921.812 3.047c.318.126 1.97 0 2.033-.567.062-.567-.303-2.914-.62-3.17-.319-.257-1.576-.13-2.225.69Z" fill="#fff" stroke="#001550" stroke-width=".8" stroke-miterlimit="10"/><path d="M47.44 53.796s1.882-.947 2.374-.513M47.63 54.75s1.963-.81 2.4-.433M47.79 55.588s1.828-.597 2.346-.432" stroke="#001550" stroke-width=".8" stroke-miterlimit="10"/><path d="M61.154 38.039s-2.67 1.893-2.866 2.966c-.196 1.072-.126 2.206-.38 2.647-.253.441-1.337.885-1.21 1.073.321.334.662.65 1.019.946 0 0 0 3.469.571 3.533.572.064 3.052-.19 3.052-.19s.259 1.893.259 2.966c0 1.072-.062 2.396-.062 2.396l4.45-2.776s-1.018-3.532-.954-3.848c.065-.316 2.799-2.458 2.99-4.792.191-2.335-1.081-4.164-2.48-4.731-1.4-.567-3.497-1.134-4.39-.19Z" fill="#fff" stroke="#001550" stroke-width=".8" stroke-miterlimit="10"/><path d="m60.457 38.423 4.578 9.334.954-.883-3.82-9.649s-1.52.503-1.712 1.198Z" fill="#fff" stroke="#001550" stroke-width=".8" stroke-miterlimit="10"/><path d="M62.166 37.222s.259-1.136.698-1.01c.44.125.572.885.572.885s2.925-2.902 3.5-2.525c.573.377.317 1.262.317 1.262s3.621-2.27 4.705-.63c1.083 1.639-.127 3.09-.127 3.09s3.178 2.523 2.734 4.162c-.445 1.64-2.672 2.02-2.672 2.02s.89 1.323 0 2.018c-.89.695-2.48.126-2.48.126s.318 1.198-.763 1.45c-1.081.25-2.67-1.199-2.67-1.199l-3.814-9.649Z" fill="#001550" stroke="#001550" stroke-width=".8" stroke-miterlimit="10"/><path d="M62.62 44.545s1.527-2.083 1.972-.885c.444 1.198.191 2.586-.445 2.902-.637.315-1.653-.187-1.653-.187" fill="#fff"/><path d="M62.62 44.545s1.527-2.083 1.972-.885c.444 1.198.191 2.586-.445 2.902-.637.315-1.653-.187-1.653-.187" stroke="#001550" stroke-width=".8" stroke-miterlimit="10"/><path d="M59.323 43.722c0 .313-.127.567-.285.567-.158 0-.287-.257-.287-.567 0-.31.13-.567.287-.567.158 0 .285.254.285.567Z" fill="#001550"/><path d="M58.675 42.455s.763-.443 1.208.257" stroke="#001550" stroke-width=".8" stroke-miterlimit="10"/><path d="M58.74 46.678c0 .256-.142.444-.318.444-.176 0-.319-.198-.319-.444 0-.247.143-.442.319-.442.176 0 .318.198.318.442Z" fill="#001550"/><path d="M67.385 88.436s3.688 6.812 5.34 8.577c1.653 1.765 7.76 13.497 7.948 14.066.189.57-1.909 3.336-2.289 3.91-.38.575-1.782.883-1.526 1.388.256.506 3.052.441 3.688.316.636-.126 1.78-1.514 2.607-2.081.828-.567 1.906-.885 1.844-1.893-.062-1.009-1.526-2.522-1.908-3.279-.383-.757-2.416-5.929-3.052-8.959-.636-3.03-3.362-7.127-4.068-8.07a33.366 33.366 0 0 0-1.081-1.389l-2.036-9.336-5.467 6.75Z" fill="#fff" stroke="#001550" stroke-width=".8" stroke-miterlimit="10"/><path d="M84.996 112.718c-.04-.588-.549-1.347-1.035-2.027-.178.326-.38.706-.608 1.144-.954 1.829-2.035 2.838-3.307 3.279-.97.339-1.273-.244-1.363-.536-.127.177-.23.323-.29.41-.383.567-1.782.883-1.526 1.388.256.506 3.052.441 3.688.316.636-.126 1.78-1.514 2.607-2.081.828-.567 1.896-.885 1.834-1.893ZM78.697 107.197a10.05 10.05 0 0 0 2.93-1.476 44.46 44.46 0 0 1-1.59-5.243c-.636-3.028-3.362-7.127-4.068-8.072a33.366 33.366 0 0 0-1.081-1.387l-2.036-9.336-5.467 6.75s3.688 6.811 5.34 8.576c1.079 1.144 3.983 6.429 5.972 10.188Z" fill="#001550" stroke="#001550" stroke-width=".8" stroke-miterlimit="10"/><path d="M65.607 50.847s-3.432 1.639-4.958 4.163c-1.526 2.525-2.863 5.865-2.354 6.686.51.821 1.653 4.036 1.844 4.287.192.251 2.799 11.67 2.926 12.615.078.606.12 1.217.126 1.829 0 0-3.496 5.616-3.88 8.263-.382 2.648-1.652 5.362-2.223 7.823-.572 2.46-3.562 10.09-3.942 11.544-.38 1.455-1.208 2.396-1.59 2.963-.194.31-.46.57-.776.757 0 0-2.799-.19-3.688-.631-.89-.441-2.354-1.891-2.672-.757-.318 1.134 2.1 3.659 3.308 4.416 1.208.756 3.305 2.27 3.75 2.208.445-.061.892-.441 1.21-1.01.319-.57 1.981-4.038 2.757-5.047.776-1.008 6.04-8.579 6.422-10.849.383-2.27.89-4.48 1.4-5.488.509-1.008 8.772-9.272 10.236-13.497 1.464-4.225.305-6.25-.712-8.64-1.016-2.392-4.45-5.362-4.45-5.362s-.127-5.804-.518-9.903c-.39-4.1-1.58-6.245-2.216-6.37Z" fill="#fff" stroke="#001550" stroke-width=".8" stroke-miterlimit="10"/><path d="M52.186 115.434c-2.162-.632-5.152-2.964-5.152-2.964l.535-1.157a2.63 2.63 0 0 1-.47-.169c-.89-.441-2.354-1.891-2.672-.757-.318 1.134 2.1 3.659 3.308 4.415 1.208.757 3.305 2.271 3.75 2.209.445-.061.892-.441 1.21-1.01.042-.075.106-.198.187-.36l-.696-.207ZM61.858 100.108c.38-2.27.89-4.48 1.4-5.488.509-1.008 8.772-9.272 10.236-13.497 1.355-3.915.473-5.934-.473-8.115L62.43 75.62c.339 1.54.587 2.704.626 2.978.078.607.12 1.218.127 1.83 0 0-3.497 5.615-3.88 8.263-.383 2.648-1.653 5.362-2.224 7.822-.463 1.986-2.498 7.338-3.466 10.093l3.621 1.76c1.834-2.707 4.363-6.714 4.624-8.258Z" fill="#001550" stroke="#001550" stroke-width=".8" stroke-miterlimit="10"/><path d="M72.791 72.481c-1.016-2.396-4.45-5.361-4.45-5.361s-.127-5.804-.518-9.903c-.39-4.1-1.59-6.245-2.227-6.37 0 0-3.432 1.639-4.957 4.163-1.526 2.525-2.863 5.865-2.354 6.686.51.821 1.653 4.036 1.844 4.287.15.198 1.772 7.201 2.535 10.711l10.777-2.666c-.197-.515-.425-1.023-.65-1.547Z" fill="#10B981" stroke="#001550" stroke-width=".8" stroke-miterlimit="10"/><path d="M63.252 55.19s-1.4.38-1.019 3.282c.38 2.901 1.59 8.515 1.59 8.515s-7.694 3.774-8.012 3.774c-.318 0-2.035 0-2.542-.126-.507-.126-2.224.2-2.224.639.029.308.164.597.383.818 0 0 .571 1.768 1.143 2.02.571.25 2.162-.19 2.863-.758.44-.353.907-.67 1.399-.946 0 0 10.555-3.405 11-3.72.444-.316.571-1.388.571-2.525 0-1.136-1.59-10.405-1.97-11.288-.381-.883-1.78-.885-1.78-.885" fill="#10B981"/><path d="M63.252 55.19s-1.4.38-1.019 3.282c.38 2.901 1.59 8.515 1.59 8.515s-7.694 3.774-8.012 3.774c-.318 0-2.035 0-2.542-.126-.507-.126-2.224.2-2.224.639.029.308.164.597.383.818 0 0 .571 1.768 1.143 2.02.571.25 2.162-.19 2.863-.758.44-.353.907-.67 1.399-.946 0 0 10.555-3.405 11-3.72.444-.316.571-1.388.571-2.525 0-1.136-1.59-10.405-1.97-11.288-.381-.883-1.78-.885-1.78-.885" stroke="#001550" stroke-width=".8" stroke-miterlimit="10"/><path d="M62.179 67.797c-2.279 1.11-6.143 2.968-6.368 2.968-.318 0-2.035 0-2.542-.126-.507-.125-2.224.2-2.224.64.029.308.164.597.383.818 0 0 .571 1.767 1.143 2.019.571.251 2.162-.19 2.863-.757.44-.353.907-.67 1.399-.947 0 0 3.3-1.065 6.287-2.052l-.941-2.563Z" fill="#fff" stroke="#001550" stroke-width=".8" stroke-miterlimit="10"/></svg>