<svg width="170" height="120" viewBox="0 0 170 120" fill="none" xmlns="http://www.w3.org/2000/svg">
<path opacity="0.7" d="M85.0656 119.966C85.0656 119.966 105.718 119.339 119.501 102.415C133.283 85.491 134.306 62.0139 135.642 43.0087C136.978 24.0035 126.052 9.38988 109.508 7.16773C92.9641 4.94558 88.0856 19.4602 69.2401 27.316C50.3945 35.1718 44.2033 34.4593 32.5998 51.1256C20.9962 67.7919 28.0662 93.8754 47.8927 107.578C67.7191 121.28 85.0656 119.966 85.0656 119.966Z" fill="#E3EDFF"/>
<path d="M92.1373 71.7017L91.7778 75.8809C91.7778 75.8809 89.0053 84.2881 87.7717 87.4975C86.538 90.707 86.026 93.0005 86.282 93.6137C86.538 94.2268 94.2994 111.6 94.2994 111.6C94.2994 111.6 92.9106 114.148 92.0882 114.812C91.2657 115.477 90.1899 116.095 90.5493 116.352C90.9088 116.608 93.5779 116.503 94.0408 116.352C94.5037 116.2 97.9461 113.802 98.4582 113.445C98.9702 113.088 98.5099 112.375 98.1504 111.713C97.7909 111.051 97.4831 111 97.4314 110.592C97.3797 110.184 93.2184 92.6029 93.2184 92.6029L96.7641 88.5776C96.7641 88.5776 96.2469 93.5726 96.609 94.5911C96.9711 95.6097 102.666 113.306 102.666 113.306C102.038 113.958 101.358 114.558 100.633 115.102C99.6711 115.775 97.7521 116.277 98.034 116.783C98.3159 117.288 104.024 116.839 104.701 116.839C105.379 116.839 106.17 116.952 106.284 116.277C106.398 115.603 105.661 113.306 105.607 112.634C105.552 111.962 104.008 95.5609 104.008 95.5609L104.572 87.6079C105.483 84.9255 106.005 82.1286 106.124 79.3008C106.189 76.7045 105.877 74.1125 105.198 71.6042C105.198 71.6042 95.9391 72.3072 95.4271 72.3072C94.915 72.3072 92.1373 71.7017 92.1373 71.7017Z" fill="white" stroke="#001550" stroke-width="0.8" stroke-miterlimit="10"/>
<path d="M105.617 112.624C105.56 111.952 104.019 95.5505 104.019 95.5505L104.582 87.5975C105.493 84.9151 106.015 82.1182 106.134 79.2904C106.199 76.6941 105.887 74.1021 105.208 71.5939C105.208 71.5939 95.9391 72.3071 95.4271 72.3071C94.915 72.3071 92.1373 71.6965 92.1373 71.6965L91.7778 75.8757C91.7778 75.8757 89.0053 84.288 87.7717 87.4974C86.538 90.7069 86.026 93.0004 86.282 93.6136C86.538 94.2267 94.2994 111.6 94.2994 111.6C94.2994 111.6 96.2081 111.631 97.6073 110.967C97.5112 110.859 97.45 110.725 97.4314 110.582C97.3797 110.174 93.2184 92.5925 93.2184 92.5925L96.7641 88.5672C96.7641 88.5672 96.2469 93.5623 96.609 94.5808C96.9711 95.5993 102.666 113.296 102.666 113.296C102.666 113.296 104.642 113.925 105.754 113.391C105.691 113.139 105.645 112.882 105.617 112.624Z" fill="#001550" stroke="#001550" stroke-width="0.8" stroke-miterlimit="10"/>
<path d="M85.1015 24.6155L85.7688 29.6079L89.674 42.1943L95.0664 48.1565C95.0664 48.1565 98.457 49.4393 99.9984 50.8067C101.54 52.1741 102.825 52.895 103.286 54.5267C103.746 56.1583 102.768 63.4444 102.722 64.4629C102.675 65.4814 103.441 67.2157 103.441 67.2157L105.186 71.5975C105.186 71.5975 99.3312 73.4319 96.1475 72.9726C92.9638 72.5134 92.0379 72.3056 92.0379 72.3056V65.8919C92.0379 65.8919 91.8827 63.7009 91.8827 63.5495C91.8827 63.3982 90.8042 60.3889 90.7008 57.79C90.5973 55.1911 90.6491 53.7134 90.5973 53.4081C90.5456 53.1028 87.0024 45.9682 86.5395 44.593C86.0765 43.2179 85.6679 41.535 85.5645 41.1784C85.461 40.8218 83.5601 29.3565 83.5601 29.3565C83.5601 29.3565 82.5851 28.1328 82.4299 27.063C82.2747 25.9932 82.2256 25.3313 82.2256 25.3313L85.1015 24.6155Z" fill="white" stroke="#001550" stroke-width="0.8" stroke-miterlimit="10"/>
<path d="M90.2426 43.7123L86.3115 46.8755L90.597 53.4073C90.597 53.4073 90.2427 58.0509 90.4573 59.5286C90.672 61.0063 91.1996 65.2215 91.1996 65.2215L92.1384 71.7019L105.341 71.1401L102.786 62.7971C102.786 62.7971 102.68 55.5213 102.468 53.6228C102.256 51.7243 99.8093 49.731 99.8093 49.731L90.2426 43.7123Z" fill="#10B981" stroke="#001550" stroke-width="0.8" stroke-miterlimit="10"/>
<path d="M91.6308 38.1719C91.6308 38.1719 89.9859 39.9549 90.0376 41.3813C90.0635 42.1022 90.0376 42.6051 89.8825 42.8616C89.7273 43.1182 88.5893 43.9827 88.7522 44.288L89.1635 45.1013C89.1635 45.1013 90.198 48.5673 90.5006 48.6699C90.8032 48.7725 92.9136 48.6186 92.9136 48.6186C92.9136 48.6186 92.5541 54.4782 93.1205 54.4782C93.6869 54.4782 97.5895 51.2174 98.0007 50.9121C98.412 50.6069 98.5645 46.2737 98.5645 46.2737C98.5645 46.2737 99.6947 46.8356 96.5602 42.3511C93.4256 37.8666 91.6308 38.1719 91.6308 38.1719Z" fill="white" stroke="#001550" stroke-width="0.8" stroke-miterlimit="10"/>
<path d="M91.4721 42.7913C91.4307 43.0967 91.2936 43.3329 91.1668 43.3046C91.04 43.2764 90.9727 43.0249 91.0141 42.7194C91.0555 42.4139 91.1927 42.1778 91.3195 42.206C91.4462 42.2343 91.5161 42.4832 91.4721 42.7913Z" fill="#001550"/>
<path d="M90.7539 41.6885C90.7539 41.6885 91.318 41.0224 92.089 41.8917" stroke="#001550" stroke-width="0.8" stroke-miterlimit="10"/>
<path d="M90.9556 46.17C90.9556 46.4498 90.8081 46.6834 90.6218 46.6834C90.4356 46.6834 90.2881 46.4549 90.2881 46.17C90.2881 45.8851 90.4381 45.6566 90.6218 45.6566C90.8056 45.6566 90.9556 45.8799 90.9556 46.17Z" fill="#001550"/>
<path d="M96.2481 43.1144C96.2481 43.1144 95.2136 50.657 94.4506 53.8664C93.6877 57.0758 94.5023 60.1852 95.3765 59.9312C96.2506 59.6773 96.7627 56.7192 97.9964 54.3256C99.23 51.932 100.717 51.8268 101.643 52.4913C102.569 53.1558 103.492 55.6494 103.544 55.8034C103.596 55.9573 103.544 58.5023 103.133 61.0498C102.721 63.5973 102.414 64.4645 102.978 65.7395C103.541 67.0146 105.957 69.0003 106.728 65.483C107.498 61.9657 105.856 61.5578 105.497 58.5561C105.137 55.5545 106.272 54.5309 105.29 52.3399C104.307 50.149 102.259 49.2818 101.54 48.466C100.821 47.6502 100.306 45.8184 100.246 45.6132C100.187 45.4079 96.2481 43.1144 96.2481 43.1144Z" fill="#001550" stroke="#001550" stroke-width="0.8" stroke-miterlimit="10"/>
<path d="M91.3197 38.5726C91.3197 38.5726 96.2517 43.9756 97.2293 45.2429C98.2069 46.5103 98.5638 47.2825 99.3863 46.8746L100.209 46.4667C100.209 46.4667 101.08 46.9259 102.314 46.0587C103.548 45.1916 104.318 45.1403 101.954 41.0637C99.5906 36.9871 98.2561 35.0014 95.5845 35.7659C92.9128 36.5305 91.2188 36.7896 91.3197 38.5726Z" fill="#10B981" stroke="#001550" stroke-width="0.8" stroke-miterlimit="10"/>
<path d="M85.5103 25.1229C85.5103 25.1229 85.2026 23.1885 84.8431 23.2885C84.4836 23.3886 81.9154 24.715 81.9646 24.9715C82.0137 25.2281 81.9646 26.2953 82.4818 26.2953C82.9991 26.2953 85.6681 25.4795 85.6681 25.4795L85.5103 25.1229Z" fill="white" stroke="#001550" stroke-width="0.8" stroke-miterlimit="10"/>
<path d="M84.124 23.6985L84.996 25.8381" stroke="#001550" stroke-width="0.8" stroke-miterlimit="10"/>
<path d="M83.3555 24.0587L84.023 26.047" stroke="#001550" stroke-width="0.8" stroke-miterlimit="10"/>
<path d="M82.6348 24.5126L83.0953 26.0929" stroke="#001550" stroke-width="0.8" stroke-miterlimit="10"/>
<path d="M85.5596 28.9512C85.5596 28.9512 86.0769 26.6064 86.0226 25.9445C85.9682 25.2826 85.4044 24.8234 84.7294 24.4052C84.0544 23.987 83.9535 24.5078 84.3182 24.967C84.6829 25.4262 84.9855 25.8316 84.9855 25.8316C84.9855 25.8316 83.7544 26.75 83.9509 27.7172C84.1475 28.6844 84.4682 28.7871 84.4682 28.7871" fill="white"/>
<path d="M85.5596 28.9512C85.5596 28.9512 86.0769 26.6064 86.0226 25.9445C85.9682 25.2826 85.4044 24.8234 84.7294 24.4052C84.0544 23.987 83.9535 24.5078 84.3182 24.967C84.6829 25.4262 84.9855 25.8316 84.9855 25.8316C84.9855 25.8316 83.7544 26.75 83.9509 27.7172C84.1475 28.6844 84.4682 28.7871 84.4682 28.7871" stroke="#001550" stroke-width="0.8" stroke-miterlimit="10"/>
<path d="M97.3252 64.3124L91.5734 58.8094C91.5734 58.8094 91.4699 57.1777 91.1622 56.5158C90.8544 55.8539 89.6104 55.2331 89.3647 55.0381C89.119 54.8431 88.3871 54.3249 88.0716 54.8329C87.7561 55.3408 87.7638 55.6025 87.8673 55.8026C87.9707 56.0027 86.8896 57.483 86.8896 58.1962C86.8896 58.9094 87.8155 59.7766 88.4414 60.1332C89.0003 60.4114 89.5861 60.6331 90.1897 60.7951C90.1897 60.7951 94.3484 65.7901 95.3778 67.0113C96.4071 68.2325 98.8692 69.918 99.3322 69.7128C99.7951 69.5075 101.737 65.4335 101.737 65.4335L97.3252 64.3124Z" fill="white" stroke="#001550" stroke-width="0.8" stroke-miterlimit="10"/>
<path d="M99.3852 53.1038C99.3852 53.1038 98.3067 53.7144 98.255 55.6001C98.2033 57.4857 97.3291 64.3228 97.3291 64.3228L102.365 66.565C102.365 66.565 103.916 58.5119 104.009 56.321C104.103 54.13 102.109 52.5497 101.183 52.6523" fill="#10B981"/>
<path d="M99.3852 53.1038C99.3852 53.1038 98.3067 53.7144 98.255 55.6001C98.2033 57.4857 97.3291 64.3228 97.3291 64.3228L102.365 66.565C102.365 66.565 103.916 58.5119 104.009 56.321C104.103 54.13 102.109 52.5497 101.183 52.6523" stroke="#001550" stroke-width="0.8" stroke-miterlimit="10"/>
<path d="M95.432 70.3765L97.3898 70.6151C97.9905 70.6901 98.5978 70.6978 99.2002 70.6382C101.062 70.456 105.242 70.0789 105.601 70.3175C106.064 70.6228 106.32 71.4874 106.424 71.6926C106.527 71.8979 106.791 74.0016 108.384 79.2942C109.977 84.5868 110.029 86.9907 110.029 86.9907C110.029 86.9907 108.281 88.3658 106.431 88.8763C104.582 89.3869 100.524 88.2632 99.1898 88.2632C97.8553 88.2632 97.2915 88.2119 97.2915 88.2119C97.2915 88.2119 96.257 76.644 95.9027 74.9123C95.6219 73.668 95.2616 72.4427 94.8242 71.2437L95.432 70.3765Z" fill="white" stroke="#001550" stroke-width="0.8" stroke-miterlimit="10"/>
<path d="M93.4761 70.0177C93.4761 70.0177 91.1122 70.8335 91.0088 71.3441C90.9053 71.8546 91.1639 74.5535 92.0433 74.3508C92.9226 74.1481 94.6114 73.8916 94.7123 72.9244C94.8132 71.9572 94.1433 69.8663 93.4761 70.0177Z" fill="white" stroke="#001550" stroke-width="0.8" stroke-miterlimit="10"/>
<path d="M93.4746 70.0174L95.2721 80.0562C95.2721 80.0562 98.148 79.7996 98.5592 78.9864C98.9704 78.1731 95.9393 71.1898 95.4272 70.374C94.9152 69.5581 93.8858 69.5094 93.4746 70.0174Z" fill="white" stroke="#001550" stroke-width="0.8" stroke-miterlimit="10"/>
<path d="M50.7413 53.5588C50.7413 53.5588 51.3439 54.6158 51.0982 55.2905C50.8525 55.9652 50.7155 56.2936 50.7155 56.2936C50.7155 56.2936 52.2983 57.8894 53.7155 59.1362C55.1328 60.383 57.2096 61.8146 57.2096 61.8146L60.2872 60.2984L61.27 64.5751C61.27 64.5751 57.1139 66.3709 56.7311 66.2888C56.3484 66.2067 51.0413 58.8104 50.3068 57.9715C49.5723 57.1325 48.8327 56.3193 48.724 56.2936C48.6154 56.268 48.124 52.9097 48.124 52.9097L50.0327 52.6917L50.7413 53.5588Z" fill="white" stroke="#001550" stroke-width="0.8" stroke-miterlimit="10"/>
<path d="M49.5186 52.5493C49.5186 52.5493 50.036 54.2888 50.2482 54.2888C50.4604 54.2888 51.1512 54.2067 50.9313 53.2882C50.7113 52.3698 50.0722 51.754 49.5186 52.5493Z" fill="white" stroke="#001550" stroke-width="0.8" stroke-miterlimit="10"/>
<path d="M134.206 7.86372C127.82 7.50198 119.981 9.49281 119.981 9.49281C119.981 9.49281 123.628 4.96727 127.461 3.33561C130.487 2.05286 134.079 1.55515 135.457 1.40378C122.629 -0.297143 115.543 7.18899 104.841 8.22546C97.3616 8.94893 98.7479 8.73856 80.7604 4.60553C62.7729 0.472507 49.9191 6.95553 45.9518 8.64363C43.3834 9.75607 40.9105 11.074 38.5576 12.5842L43.4302 31.9281C43.4302 31.9281 62.9436 23.344 73.1464 21.2018C83.3492 19.0596 89.4011 23.308 101.782 22.7719C114.108 22.2408 116.479 18.8389 126.824 12.3533C133.117 8.40504 137.169 9.50564 142.999 9.42868C140.638 8.29729 137.751 8.06383 134.206 7.86372Z" fill="#FFC966" stroke="#001550" stroke-miterlimit="10"/>
<path d="M38.3281 11.2156L56.5199 84.5633" stroke="#001550" stroke-linecap="round" stroke-linejoin="round"/>
<path d="M47.2969 53.2393C47.2969 53.2393 47.7909 56.1614 48.109 56.2871C48.4271 56.4128 50.0797 56.2871 50.1418 55.7201C50.2038 55.1532 49.8392 52.8057 49.5211 52.5492C49.203 52.2926 47.946 52.4209 47.2969 53.2393Z" fill="white" stroke="#001550" stroke-width="0.8" stroke-miterlimit="10"/>
<path d="M47.4395 53.7963C47.4395 53.7963 49.3223 52.8491 49.8136 53.2829" stroke="#001550" stroke-width="0.8" stroke-miterlimit="10"/>
<path d="M47.6299 54.7506C47.6299 54.7506 49.5929 53.9394 50.0299 54.3168" stroke="#001550" stroke-width="0.8" stroke-miterlimit="10"/>
<path d="M47.79 55.5879C47.79 55.5879 49.6185 54.9912 50.1358 55.1558" stroke="#001550" stroke-width="0.8" stroke-miterlimit="10"/>
<path d="M61.1539 38.0389C61.1539 38.0389 58.4849 39.9323 58.2883 41.0047C58.0918 42.077 58.1616 43.211 57.9081 43.6523C57.6547 44.0935 56.571 44.5373 56.6978 44.7246C57.0194 45.0588 57.3596 45.3748 57.7168 45.6713C57.7168 45.6713 57.7168 49.1399 58.2883 49.204C58.8599 49.2681 61.3401 49.0142 61.3401 49.0142C61.3401 49.0142 61.5987 50.9075 61.5987 51.9799C61.5987 53.0523 61.5367 54.376 61.5367 54.376L65.9876 51.6002C65.9876 51.6002 64.9687 48.0675 65.0333 47.7519C65.098 47.4364 67.8316 45.2942 68.023 42.9596C68.2144 40.625 66.942 38.7958 65.5428 38.2288C64.1436 37.6618 62.0462 37.0948 61.1539 38.0389Z" fill="white" stroke="#001550" stroke-width="0.8" stroke-miterlimit="10"/>
<path d="M60.457 38.4233L65.0347 47.7566L65.9891 46.8741L62.1691 37.2252C62.1691 37.2252 60.6484 37.7281 60.457 38.4233Z" fill="white" stroke="#001550" stroke-width="0.8" stroke-miterlimit="10"/>
<path d="M62.166 37.2224C62.166 37.2224 62.4246 36.0859 62.8643 36.2116C63.304 36.3373 63.4359 37.0967 63.4359 37.0967C63.4359 37.0967 66.3609 34.1951 66.9351 34.5723C67.5092 34.9494 67.2532 35.8345 67.2532 35.8345C67.2532 35.8345 70.874 33.564 71.9576 35.2034C73.0413 36.8427 71.8309 38.2948 71.8309 38.2948C71.8309 38.2948 75.0094 40.8167 74.5646 42.4561C74.1197 44.0954 71.893 44.4751 71.893 44.4751C71.893 44.4751 72.7826 45.7989 71.893 46.4942C71.0033 47.1894 69.4127 46.6199 69.4127 46.6199C69.4127 46.6199 69.7309 47.818 68.6498 48.0694C67.5687 48.3208 65.9808 46.8713 65.9808 46.8713L62.166 37.2224Z" fill="#001550" stroke="#001550" stroke-width="0.8" stroke-miterlimit="10"/>
<path d="M62.6209 44.5454C62.6209 44.5454 64.1468 42.4622 64.5916 43.6603C65.0364 44.8584 64.783 46.2463 64.1468 46.5619C63.5105 46.8774 62.4941 46.3746 62.4941 46.3746" fill="white"/>
<path d="M62.6209 44.5454C62.6209 44.5454 64.1468 42.4622 64.5916 43.6603C65.0364 44.8584 64.783 46.2463 64.1468 46.5619C63.5105 46.8774 62.4941 46.3746 62.4941 46.3746" stroke="#001550" stroke-width="0.8" stroke-miterlimit="10"/>
<path d="M59.3228 43.7219C59.3228 44.0351 59.196 44.2892 59.0382 44.2892C58.8803 44.2892 58.751 44.0325 58.751 43.7219C58.751 43.4114 58.8803 43.1547 59.0382 43.1547C59.196 43.1547 59.3228 43.4088 59.3228 43.7219Z" fill="#001550"/>
<path d="M58.6748 42.4545C58.6748 42.4545 59.4381 42.0121 59.8831 42.7117" stroke="#001550" stroke-width="0.8" stroke-miterlimit="10"/>
<path d="M58.74 46.6776C58.74 46.9343 58.5977 47.1217 58.4218 47.1217C58.2458 47.1217 58.1035 46.924 58.1035 46.6776C58.1035 46.4312 58.2458 46.2361 58.4218 46.2361C58.5977 46.2361 58.74 46.4337 58.74 46.6776Z" fill="#001550"/>
<path d="M67.3848 88.4362C67.3848 88.4362 71.0728 95.2476 72.7254 97.0127C74.378 98.7778 80.4842 110.51 80.673 111.079C80.8618 111.649 78.7644 114.415 78.3842 114.989C78.004 115.564 76.6022 115.872 76.8583 116.377C77.1143 116.883 79.9101 116.818 80.5463 116.693C81.1825 116.567 82.3256 115.179 83.1532 114.612C83.9809 114.045 85.0593 113.727 84.9973 112.719C84.9352 111.71 83.4714 110.197 83.0886 109.44C82.7058 108.683 80.673 103.511 80.0368 100.481C79.4006 97.4514 76.6746 93.3543 75.9686 92.4102C75.2625 91.4661 74.8875 91.0223 74.8875 91.0223L72.8521 81.6864L67.3848 88.4362Z" fill="white" stroke="#001550" stroke-width="0.8" stroke-miterlimit="10"/>
<path d="M84.9957 112.718C84.9569 112.13 84.4474 111.371 83.9611 110.691C83.7827 111.017 83.581 111.397 83.3534 111.835C82.399 113.664 81.318 114.673 80.0455 115.114C79.0757 115.453 78.7731 114.87 78.6826 114.578C78.5558 114.755 78.4524 114.901 78.3929 114.988C78.0101 115.555 76.611 115.871 76.867 116.376C77.1231 116.882 79.9188 116.817 80.555 116.692C81.1912 116.566 82.3344 115.178 83.162 114.611C83.9896 114.044 85.0577 113.726 84.9957 112.718Z" fill="#001550" stroke="#001550" stroke-width="0.8" stroke-miterlimit="10"/>
<path d="M78.6971 107.197C79.749 106.868 80.7391 106.37 81.6273 105.721C80.9896 104.007 80.4585 102.256 80.0368 100.478C79.4006 97.4503 76.6746 93.3506 75.9686 92.4065C75.2625 91.4624 74.8875 91.0186 74.8875 91.0186L72.8521 81.6827L67.3848 88.4326C67.3848 88.4326 71.0728 95.244 72.7254 97.0091C73.8039 98.1533 76.7083 103.438 78.6971 107.197Z" fill="#001550" stroke="#001550" stroke-width="0.8" stroke-miterlimit="10"/>
<path d="M65.6069 50.8466C65.6069 50.8466 62.1749 52.4859 60.649 55.0104C59.1231 57.5348 57.786 60.8751 58.2955 61.6961C58.805 62.517 59.9481 65.7316 60.1395 65.983C60.3309 66.2344 62.9378 77.6535 63.0646 78.5976C63.1427 79.2044 63.185 79.8151 63.1913 80.4268C63.1913 80.4268 59.6947 86.0427 59.3119 88.6903C58.9291 91.3379 57.6593 94.0522 57.0877 96.5125C56.5161 98.9728 53.5264 106.603 53.1462 108.057C52.7661 109.512 51.9384 110.453 51.5557 111.02C51.3616 111.33 51.0956 111.59 50.7798 111.777C50.7798 111.777 47.9815 111.587 47.0918 111.146C46.2021 110.705 44.7383 109.255 44.4202 110.389C44.1021 111.523 46.5202 114.048 47.728 114.805C48.9358 115.561 51.0333 117.075 51.4781 117.013C51.9229 116.952 52.3704 116.572 52.6885 116.003C53.0066 115.433 54.6695 111.965 55.4454 110.956C56.2213 109.948 61.4844 102.377 61.8671 100.107C62.2499 97.8363 62.7568 95.6274 63.2663 94.6192C63.7758 93.6109 72.0389 85.3474 73.5028 81.122C74.9666 76.8967 73.8079 74.8725 72.7915 72.4814C71.7751 70.0904 68.3406 67.1195 68.3406 67.1195C68.3406 67.1195 68.2138 61.3164 67.8233 57.2167C67.4328 53.117 66.2431 50.9723 65.6069 50.8466Z" fill="white" stroke="#001550" stroke-width="0.8" stroke-miterlimit="10"/>
<path d="M52.1858 115.434C50.0237 114.802 47.034 112.47 47.034 112.47L47.5693 111.313C47.4075 111.272 47.2499 111.215 47.0986 111.144C46.2089 110.703 44.7451 109.253 44.427 110.387C44.1089 111.521 46.5271 114.046 47.7348 114.802C48.9426 115.559 51.0401 117.073 51.4849 117.011C51.9298 116.95 52.3772 116.57 52.6953 116.001C52.7367 115.926 52.8013 115.803 52.8815 115.641L52.1858 115.434Z" fill="#001550" stroke="#001550" stroke-width="0.8" stroke-miterlimit="10"/>
<path d="M61.8583 100.108C62.2385 97.8371 62.748 95.6282 63.2575 94.62C63.767 93.6117 72.0301 85.3482 73.4939 81.1229C74.8491 77.2079 73.9672 75.1889 73.0206 73.0082L62.4299 75.6199C62.7687 77.1592 63.0169 78.3239 63.0557 78.5984C63.1338 79.2052 63.1761 79.8159 63.1825 80.4276C63.1825 80.4276 59.6858 86.0435 59.3031 88.6911C58.9203 91.3387 57.6504 94.053 57.0789 96.5133C56.6159 98.499 54.5805 103.851 53.6133 106.606L57.2341 108.366C59.0677 105.659 61.5971 101.652 61.8583 100.108Z" fill="#001550" stroke="#001550" stroke-width="0.8" stroke-miterlimit="10"/>
<path d="M72.7914 72.4814C71.775 70.0853 68.3405 67.1195 68.3405 67.1195C68.3405 67.1195 68.2137 61.3164 67.8232 57.2167C67.4327 53.117 66.2327 50.9723 65.5964 50.8466C65.5964 50.8466 62.1645 52.4859 60.6386 55.0104C59.1127 57.5348 57.7756 60.8751 58.2851 61.6961C58.7945 62.517 59.9377 65.7316 60.1291 65.983C60.2791 66.1806 61.9007 73.1844 62.6636 76.694L73.4406 74.0284C73.244 73.5128 73.0164 73.0048 72.7914 72.4814Z" fill="#10B981" stroke="#001550" stroke-width="0.8" stroke-miterlimit="10"/>
<path d="M63.2521 55.1905C63.2521 55.1905 61.8529 55.5702 62.2331 58.4718C62.6133 61.3734 63.8237 66.9867 63.8237 66.9867C63.8237 66.9867 56.1295 70.7606 55.8114 70.7606C55.4933 70.7606 53.776 70.7606 53.2691 70.6348C52.7622 70.5091 51.0449 70.835 51.0449 71.2737C51.0735 71.5821 51.2087 71.8713 51.4277 72.0921C51.4277 72.0921 51.9993 73.8597 52.5708 74.1111C53.1424 74.3625 54.7329 73.9213 55.4338 73.3543C55.8731 73.0009 56.3411 72.6843 56.833 72.4076C56.833 72.4076 67.3876 69.0032 67.8324 68.6876C68.2772 68.3721 68.404 67.2997 68.404 66.1632C68.404 65.0267 66.8134 55.7575 66.4332 54.875C66.053 53.9924 64.6539 53.9899 64.6539 53.9899" fill="#10B981"/>
<path d="M63.2521 55.1905C63.2521 55.1905 61.8529 55.5702 62.2331 58.4718C62.6133 61.3734 63.8237 66.9867 63.8237 66.9867C63.8237 66.9867 56.1295 70.7606 55.8114 70.7606C55.4933 70.7606 53.776 70.7606 53.2691 70.6348C52.7622 70.5091 51.0449 70.835 51.0449 71.2737C51.0735 71.5821 51.2087 71.8713 51.4277 72.0921C51.4277 72.0921 51.9993 73.8597 52.5708 74.1111C53.1424 74.3625 54.7329 73.9213 55.4338 73.3543C55.8731 73.0009 56.3411 72.6843 56.833 72.4076C56.833 72.4076 67.3876 69.0032 67.8324 68.6876C68.2772 68.3721 68.404 67.2997 68.404 66.1632C68.404 65.0267 66.8134 55.7575 66.4332 54.875C66.053 53.9924 64.6539 53.9899 64.6539 53.9899" stroke="#001550" stroke-width="0.8" stroke-miterlimit="10"/>
<path d="M62.1788 67.7969C59.9003 68.9077 56.0364 70.7652 55.8114 70.7652C55.4933 70.7652 53.776 70.7652 53.2691 70.6395C52.7622 70.5137 51.0449 70.8396 51.0449 71.2783C51.0735 71.5867 51.2087 71.8759 51.4277 72.0967C51.4277 72.0967 51.9993 73.8643 52.5708 74.1157C53.1424 74.3671 54.7329 73.9259 55.4338 73.3589C55.8731 73.0055 56.3411 72.6889 56.833 72.4122C56.833 72.4122 60.1331 71.3475 63.1202 70.3598L62.1788 67.7969Z" fill="white" stroke="#001550" stroke-width="0.8" stroke-miterlimit="10"/>
</svg>
