<svg width="170" height="120" viewBox="0 0 170 120" fill="none" xmlns="http://www.w3.org/2000/svg"><path d="M149.53 72.787c-12.906 23.244-37.668 39.838-71.848 37.885a116.7 116.7 0 0 1-1.865-.123c-28.105-2.117-55.756-15.895-64.163-40.236C6.76 56.149 13.82 39.557 28.166 31.498c15.764-8.853 36.543-7.165 53.95-13.312 9.96-3.513 18.709-9.577 29.146-11.827 10.956-2.361 23.447-2.143 33.167 3.352 24.444 13.804 15.524 44.324 5.101 63.076Z" fill="#FFF5E3"/><path d="M110.038 52.219c11.434 0 20.703-8.985 20.703-20.069 0-11.083-9.269-20.068-20.703-20.068s-20.703 8.985-20.703 20.069c0 11.083 9.269 20.068 20.703 20.068Z" fill="#001550"/><path d="m138.322 46.172-7.255 19.27-32.041-7.303-4.133-1.861.031-.07 12.297-26.94 5.689 3.092 25.412 13.812Z" fill="#fff"/><path d="M112.916 32.36 100.75 57.145c-2.856.122-4.673-.296-5.82-.937l12.296-26.94 5.69 3.092Z" fill="#10B981"/><path d="m138.322 46.172-7.255 19.27-32.041-7.307-4.133-1.862 12.328-27.005 31.101 16.904Z" stroke="#001550" stroke-width=".8" stroke-linecap="round" stroke-linejoin="round"/><path d="M102.925 42.117s6.297 11.244 16.12 13.114c9.822 1.87 16.609-7.233 16.609-7.233l-26.387-12.09-6.342 6.209Z" fill="#10B981"/><path d="m14.677 46.586 6.656-7.499-3.53-1.434-.702 1.456-2.424 7.477ZM37.508 51.783l-4.385 6.928 6.814-4.73 1.062-1.113-3.261-2.127-.23 1.042Z" fill="#fff"/><path d="m96.607 52.986.661-1.888-.994 4.081 4.498 1.966s8.055-1.8 15.877 1.082c7.821 2.881-5.798 9.308-5.798 9.308l-10.079 3.257-11.172-.354 1.799-8.187s1.407-7.447 5.208-9.265Z" fill="#001550"/><path d="M129.765 105.443c-1.965 4.565-4.286 8.877-9.198 10.983-4.497 1.927-13.884 3.352-21.382 1.944a22.022 22.022 0 0 1-3.89-1.068c-5.11-1.958-14.123-8.153-19.965-13.367-3.059-2.73-5.245-5.189-5.555-6.636-.62-2.9 3.99-13.119 8.995-21.952a99.969 99.969 0 0 1 6.594-10.328c6.333-8.423 10.943-11.772 10.943-11.772s-6.418 8.807-2.429 11.436c3.99 2.63 12.301-6.313 20.806-6.54 3.805-.095 8.371 1.483 12.252 3.253a69.644 69.644 0 0 1 8.546 4.678c1.902 13.101-.477 27.201-5.717 39.369Z" fill="#fff"/><path d="M110.999 69.191a46.717 46.717 0 0 0-1.475 2.647c-7.157 13.668-11.5 28.556-12.787 43.833M119.943 60.83c-2.545.871-4.596 2.572-6.297 4.612" stroke="#001550" stroke-width=".8" stroke-linecap="round" stroke-linejoin="round"/><path d="M129.764 105.444c-1.966 4.564-4.286 8.876-9.198 10.982-4.498 1.927-13.884 3.353-21.382 1.944-1.156-11.649 9.292-43.78 15.234-50.757 6.099-7.158 12.481-6.225 12.481-6.225a69.717 69.717 0 0 1 8.546 4.678c1.938 13.11-.441 27.21-5.681 39.378Z" fill="#10B981"/><path d="M58.03 10.308c-4.362-2.952-9.404-3.248-11.244-.663l-9.998 15.312 11.748 8.284S62.267 20.728 62.56 20.318c1.862-2.572-.167-7.058-4.53-10.01Z" fill="#001550"/><path d="M48.554 32.913c-1.385 1.928-5.14 1.705-8.393-.492-3.252-2.197-4.758-5.52-3.373-7.464 1.385-1.945 5.141-1.705 8.393.492 3.252 2.198 4.758 5.542 3.373 7.464Z" fill="#fff" stroke="#001550" stroke-width=".8" stroke-linecap="round" stroke-linejoin="round"/><path d="m39.401 39.087 1.228-1.735-7.286-4.8-1.309 1.59" fill="#fff"/><path d="m39.401 39.087 1.228-1.735-7.286-4.8-1.309 1.59M37.64 51.565l-4.794 7.333 7.42-5.149M20.587 39.91l-6.117 6.916 2.986-8.432" stroke="#001550" stroke-width=".8" stroke-linecap="round" stroke-linejoin="round"/><path d="M43.536 26.901c-2.344-1.583-5.173-1.64-6.171-.253l-1.305 1.064 1.228 1.02a6.612 6.612 0 0 0 2.632 3.187 7.562 7.562 0 0 0 2.963 1.225l1.323 1.23s1.641-1.936 1.758-2.097c.976-1.374-.112-3.78-2.428-5.376Z" fill="#001550"/><path d="M44.669 33.624c-.999 1.387-3.702 1.23-6.04-.353-2.34-1.583-3.432-3.99-2.434-5.376.999-1.386 3.706-1.225 6.045.358 2.339 1.582 3.427 3.985 2.429 5.371Z" fill="#fff" stroke="#001550" stroke-width=".8" stroke-linecap="round" stroke-linejoin="round"/><path d="m41.806 31.113-3.454 4.796-2.667-1.801 3.355-4.648a2.428 2.428 0 0 1 1.552.232c.297.136.56.334.77.58.21.245.361.532.444.84Z" fill="#001550"/><path d="m39.04 42.087 1.66-2.137-10.004-6.714-1.51 2.232-10.764 1.247-.99 1.548 3.149 1.644c3.324-.088 6.59 1.063 9.445 2.664 2.726 1.534 5.146 3.448 6.576 6.225.213.41.403.833.567 1.265.116.292.224 1.16.45 1.351l2.666 2.337 1.17-1.421-2.416-10.242Z" fill="#fff" stroke="#001550" stroke-width=".8" stroke-linecap="round" stroke-linejoin="round"/><path d="m31.332 35.826-2.834 3.858 6.423 4.447 2.81-3.871-6.4-4.434Z" fill="#10B981" stroke="#001550" stroke-width=".8" stroke-linecap="round" stroke-linejoin="round"/><path d="M114.306 27.215a47.02 47.02 0 0 1-4.34 7.704c-5.55 8.074-12.274 13.184-15.022 11.41l-17.968-11.58 17.379-25.34 1.142-1.66 19.097 9.125c.149.055.292.123.428.205 1.866 1.194 1.443 5.192-.716 10.136Z" fill="#fff"/><path d="m114.309 27.215-1.898-.946-9.809-5.698-.724-4.861-5.95-3.305-1.57-2.995L95.5 7.749l19.097 9.125c.149.055.292.123.427.205 1.867 1.194 1.444 5.192-.715 10.136Z" fill="#10B981"/><path d="M87.258 41.367c4.983-3.418 16.983-13.227 17.991-28.962" stroke="#001550" stroke-width=".8" stroke-linecap="round" stroke-linejoin="round"/><path d="M115.044 17.079a2.252 2.252 0 0 0-.45-.205L95.497 7.749l-18.521 27 17.968 11.597c2.748 1.775 9.472-3.335 15.022-11.414 5.55-8.079 7.822-16.079 5.078-17.853Z" stroke="#001550" stroke-width=".8" stroke-linecap="round" stroke-linejoin="round"/><path d="M90.839 24.203c-5.119 7.45-11.32 12.163-13.858 10.546-2.536-1.618-.45-9.003 4.678-16.454 5.127-7.451 11.352-12.32 13.902-10.69 2.55 1.63.4 9.146-4.722 16.598Z" fill="#001550"/><path d="M92.862 16.311a31.898 31.898 0 0 1-3.395 6.23c-3.909 5.668-8.65 9.291-10.583 8.04a8425.75 8425.75 0 0 1-12.535-8.35L78.983 3.507l.108.048 13.646 6.278c.105.037.207.085.3.144 1.197.794 1.044 3.235-.175 6.335Z" fill="#fff"/><path d="m92.851 16.311-5.595-2.903L85.21 9.98l-5.46-2.699-.689-3.719 13.646 6.278c.106.037.208.085.302.144 1.214.785 1.061 3.226-.158 6.326Z" fill="#10B981"/><path d="M73.083 26.587c2.807-1.744 12.31-8.061 12.41-19.915" stroke="#001550" stroke-width=".8" stroke-linecap="round" stroke-linejoin="round"/><path d="m82.661 29.835-4.084-2.69s1.89-1.66 3.598-3.265l4.093 2.616-3.607 3.34Z" fill="#10B981"/><path d="M92.862 16.311a31.898 31.898 0 0 1-3.395 6.23c-3.909 5.668-8.65 9.291-10.583 8.04a8425.75 8425.75 0 0 1-12.535-8.35L78.983 3.507l.108.048 13.646 6.278c.105.037.207.085.3.144 1.197.794 1.044 3.235-.175 6.335Z" stroke="#001550" stroke-width=".8" stroke-linecap="round" stroke-linejoin="round"/><path d="M75.978 15.003c3.606-5.25 5.081-10.44 3.295-11.592-1.787-1.153-6.158 2.167-9.764 7.416-3.605 5.249-5.08 10.439-3.294 11.592 1.786 1.153 6.157-2.168 9.763-7.416Z" fill="#001550"/><path d="M73.759 14.053c2.866-4.193 4.033-8.335 2.606-9.251-1.426-.917-4.906 1.74-7.773 5.932-2.866 4.193-4.033 8.335-2.606 9.251 1.426.917 4.906-1.74 7.773-5.932Z" fill="#fff" stroke="#001550" stroke-width=".8" stroke-linecap="round" stroke-linejoin="round"/><path d="M121.541 50.218c9.78 0 17.708-7.685 17.708-17.165s-7.928-17.165-17.708-17.165c-9.779 0-17.707 7.685-17.707 17.165s7.928 17.165 17.707 17.165Z" fill="#001550"/><path d="M124.931 52.105c9.78 0 17.707-7.684 17.707-17.164s-7.927-17.165-17.707-17.165c-9.78 0-17.707 7.685-17.707 17.165s7.927 17.164 17.707 17.164Z" fill="#fff" stroke="#001550" stroke-width=".8" stroke-linecap="round" stroke-linejoin="round"/><path d="M135.882 35.82c1.252-5.193-2.075-10.387-7.433-11.602-5.358-1.214-10.716 2.012-11.969 7.205-1.253 5.194 2.075 10.388 7.433 11.602 5.357 1.215 10.716-2.011 11.969-7.204Z" fill="#10B981"/><path d="M124.928 44.236c5.296 0 9.589-4.161 9.589-9.295s-4.293-9.295-9.589-9.295-9.589 4.161-9.589 9.295c0 5.133 4.293 9.295 9.589 9.295Z" fill="#fff" stroke="#001550" stroke-width=".8" stroke-linecap="round" stroke-linejoin="round"/><path d="M129.29 34.94a4.135 4.135 0 0 1-.733 2.351 4.337 4.337 0 0 1-1.957 1.56 4.49 4.49 0 0 1-2.521.242 4.403 4.403 0 0 1-2.235-1.156 4.183 4.183 0 0 1-1.195-2.165 4.107 4.107 0 0 1 .247-2.444 4.257 4.257 0 0 1 1.607-1.899 4.46 4.46 0 0 1 2.424-.713c1.157 0 2.266.445 3.084 1.237a4.163 4.163 0 0 1 1.279 2.988Z" fill="#001550"/><path d="M126.738 34.94c0 .907-.3 1.79-.856 2.52a4.372 4.372 0 0 1-2.233 1.53 4.365 4.365 0 0 1-2.236-1.527 4.142 4.142 0 0 1-.857-2.518c0-.907.3-1.79.857-2.518a4.366 4.366 0 0 1 2.236-1.528 4.365 4.365 0 0 1 2.233 1.526 4.14 4.14 0 0 1 .856 2.516Z" fill="#fff" stroke="#001550" stroke-width=".8" stroke-linecap="round" stroke-linejoin="round"/><path d="M135.478 66.07s-12.31-8.144-20.815-7.935c-8.505.21-16.817 9.156-20.806 6.54-3.99-2.616 2.428-11.436 2.428-11.436s-4.61 3.366-10.943 11.771c-6.332 8.406-16.475 28.073-15.566 32.285.908 4.211 17.734 17.003 25.52 20.003 7.785 2.999 19.956 1.404 25.272-.872 4.912-2.11 7.228-6.418 9.198-10.983 5.24-12.168 7.619-26.272 5.712-39.373Z" stroke="#001550" stroke-width=".8" stroke-linecap="round" stroke-linejoin="round"/><path d="M72.77 12.405a6.342 6.342 0 0 1-3.147 2.437L58.76 8.65a3.407 3.407 0 0 1-1.53-1.67c-.3-.71-.34-1.497-.117-2.232.698-2.08 3.653-3.41 5.492-2.376L73.4 9.213l.108.066c.203.732.257 1.556-.737 3.126Z" fill="#001550"/><path d="M64.5 6.27c.08 2.159.962 5.193-.796 6.27-.877.536-3.729 0-5.033-.2-3.301-.515-6.144-2.416-6.26-5.668-.03-.771.1-1.54.378-2.262a5.839 5.839 0 0 1 1.245-1.949 6.048 6.048 0 0 1 1.92-1.337 6.208 6.208 0 0 1 2.303-.521c2.487-.083 7.768-.292 8.77 1.744.347.724-2.559 3.095-2.527 3.924Z" fill="#001550"/><path d="M68.922 7.288c.346-3.222-2.067-6.105-5.39-6.44-3.323-.335-6.297 2.005-6.643 5.226-.346 3.221 2.068 6.104 5.39 6.44 3.324.334 6.298-2.005 6.643-5.226Z" fill="#fff" stroke="#001550" stroke-width=".8" stroke-linecap="round" stroke-linejoin="round"/><path d="M64.742 6.615c.009.352-.09.7-.285.998a1.83 1.83 0 0 1-.808.677 1.897 1.897 0 0 1-1.06.13 1.867 1.867 0 0 1-.956-.462 1.775 1.775 0 0 1-.531-.899 1.736 1.736 0 0 1 .072-1.033c.128-.33.354-.616.65-.821a1.883 1.883 0 0 1 1.726-.22c.228.083.437.21.614.372s.32.357.42.573c.098.216.153.448.158.685Z" fill="#001550"/></svg>