<svg width="170" height="120" viewBox="0 0 170 120" fill="none" xmlns="http://www.w3.org/2000/svg">
<path opacity="0.7" d="M98.5323 4.51678C98.5323 4.51678 76.8931 -4.10363 56.0558 7.69858C35.2184 19.5008 25.0754 44.0157 16.3347 63.6319C7.59397 83.248 13.2612 103.708 29.5421 113.513C45.8231 123.318 56.4989 110.069 79.0707 110.191C101.643 110.312 107.78 113.852 126.256 101.354C144.733 88.8559 147.501 57.9187 132.26 34.4248C117.02 10.9308 98.5323 4.51678 98.5323 4.51678Z" fill="#ECF4EE"/>
<path d="M141.214 41.0634C141.327 41.4472 141.326 41.4472 141.326 41.4472L141.326 41.4474L141.323 41.4483L141.31 41.4519L141.262 41.4663L141.071 41.5231C140.904 41.5731 140.658 41.6471 140.345 41.7427C139.718 41.9339 138.82 42.2118 137.737 42.5579C135.57 43.2504 132.666 44.2156 129.709 45.3073C126.751 46.3998 123.75 47.6153 121.389 48.8076C120.207 49.4041 119.196 49.9895 118.433 50.545C117.656 51.111 117.192 51.6068 117.025 52.0079C116.208 53.9698 116.154 55.6913 116.301 56.9184C116.368 57.4804 116.477 57.9388 116.575 58.2686C116.629 58.2126 116.687 58.1527 116.748 58.0892C117.144 57.683 117.708 57.1307 118.383 56.545C119.724 55.3826 121.545 54.0525 123.381 53.5089C124.31 53.2339 125.435 53.1432 126.633 53.1106C127.236 53.0942 127.865 53.0925 128.505 53.0912L128.582 53.0911C129.199 53.0899 129.825 53.0887 130.455 53.0753C133.099 53.0191 135.707 52.7457 137.639 51.4435C137.968 51.2215 138.34 50.9807 138.746 50.7183C143.429 47.6886 152.549 41.788 150.922 29.037C150.697 27.2784 150.378 26.2164 150.027 25.6586C149.856 25.3856 149.7 25.2702 149.58 25.2267C149.468 25.1862 149.331 25.1875 149.144 25.2726C148.737 25.4577 148.23 25.9782 147.659 26.8189C147.1 27.6413 146.521 28.7077 145.95 29.896C144.808 32.2711 143.72 35.0914 142.915 37.3237C142.513 38.4386 142.183 39.4045 141.953 40.0914C141.838 40.4348 141.749 40.7084 141.688 40.896C141.657 40.9897 141.634 41.062 141.618 41.1107L141.601 41.1658L141.596 41.1797L141.595 41.1831L141.595 41.1839C141.595 41.1841 141.595 41.1841 141.214 41.0634ZM141.214 41.0634L141.327 41.4472L141.531 41.3871L141.595 41.1841L141.214 41.0634Z" fill="#001550" stroke="#001550" stroke-width="0.8"/>
<path d="M105.147 59.1095C104.881 59.7493 104.52 60.3327 104.17 60.8156C104.176 60.7602 104.182 60.7039 104.188 60.6468C104.293 59.6105 104.274 58.2712 103.886 57C103.495 55.7224 102.724 54.4958 101.318 53.7424C99.9183 52.9924 97.9505 52.7439 95.2302 53.2906L95.2299 53.2906C94.1461 53.5092 93.2279 54.0184 92.4983 54.576C93.0973 53.827 93.8691 53.1437 94.8007 52.6551C96.723 51.6468 99.3783 51.4401 102.702 53.3051C104.35 54.2302 105.12 55.2512 105.409 56.2214C105.701 57.1986 105.527 58.1958 105.147 59.1095Z" fill="#001550" stroke="#001550" stroke-width="0.8"/>
<path opacity="0.2" d="M84.4553 107.685L84.4546 107.685C67.7027 108.745 50.1803 103.54 38.409 91.6554C26.6311 79.7646 21.5411 59.8263 29.6553 45.2953C36.8097 32.487 54.3968 19.3214 75.8854 12.8382C97.3579 6.35987 122.654 6.5768 145.214 20.4325C148.655 22.5489 150.374 25.4758 150.8 28.6737C151.227 31.8862 150.354 35.4058 148.538 38.6789C144.901 45.2384 137.569 50.6614 129.788 50.5538L129.782 50.5538C127.503 50.5544 125.249 51.041 123.172 51.9812C121.096 52.9215 119.243 54.2937 117.739 56.0064L117.736 56.0093C116.241 57.7447 115.369 60.1955 115.326 62.549C115.282 64.9022 116.067 67.2262 117.974 68.6256L117.976 68.6266C123.885 72.9264 125.451 81.7181 122.661 88.5825C119.872 95.4436 113.552 100.43 106.634 103.272C99.714 106.114 91.9729 107.222 84.4553 107.685ZM90.2719 58.7291C90.592 62.1467 93.9047 64.5808 97.7769 64.6432L97.7028 64.7163L98.82 64.612C103.132 64.2095 106.501 60.9719 106.152 57.2422C105.803 53.5122 101.895 50.9617 97.5885 51.3642C93.2808 51.7669 89.9231 55.0051 90.2719 58.7291Z" fill="white" stroke="#001550" stroke-width="0.8"/>
<path d="M145.424 20.0918C100.064 -7.7664 43.7455 19.2497 29.3061 45.1002C21.0832 59.8258 26.256 79.9544 38.1248 91.9369C49.9936 103.919 67.6378 109.15 84.4799 108.084C92.0149 107.62 99.8066 106.509 106.786 103.642C113.766 100.775 120.189 95.726 123.032 88.7331C125.874 81.7402 124.302 72.7356 118.211 68.3032C114.671 65.7053 115.18 59.5873 118.039 56.2704C119.506 54.6004 121.312 53.2624 123.337 52.3456C125.362 51.4288 127.559 50.9544 129.782 50.9538C145.71 51.174 159.59 28.8051 145.424 20.0918ZM98.7932 64.2035C94.6308 64.5977 90.992 62.1278 90.6702 58.6918C90.3483 55.2557 93.4632 52.1516 97.6257 51.7625C101.788 51.3734 105.432 53.8382 105.754 57.2794C106.076 60.7206 102.95 63.8247 98.7829 64.2137L98.7932 64.2035Z" fill="#FFBD14" stroke="#001550" stroke-width="0.8" stroke-miterlimit="10"/>
<mask id="path-6-inside-1_2559_97725" fill="white">
    <path d="M79.7398 108.48C63.4976 108.371 48.1441 102.424 37.9475 92.1314C25.1173 79.1745 21.3098 58.911 29.0845 44.9855C37.1718 30.5062 57.3723 16.9267 79.3528 11.1897C102.912 5.0463 126.429 8.12839 145.564 19.8714C150.778 23.0726 152.713 28.4913 150.911 34.7395C148.587 42.7193 139.922 51.2382 129.934 51.1711L129.656 51.1693C127.491 51.1885 125.353 51.6643 123.384 52.5657C121.415 53.4672 119.658 54.7738 118.228 56.4005C117.399 57.4076 116.777 58.5691 116.399 59.8178C116.022 61.0665 115.895 62.3778 116.027 63.6757C116.088 64.5278 116.328 65.3576 116.73 66.1115C117.132 66.8653 117.687 67.5264 118.361 68.052C124.217 72.3438 126.324 81.2696 123.251 88.817C120.634 95.2554 114.817 100.601 106.866 103.864C100.883 106.32 93.7687 107.74 84.4823 108.347C82.8994 108.446 81.3185 108.49 79.7398 108.48ZM103.531 8.61823C95.4102 8.58488 87.32 9.61757 79.4679 11.6899C57.6163 17.3917 37.5452 30.8742 29.5204 45.2356C21.85 58.9661 25.6232 78.972 38.3 91.7682C49.3813 102.958 66.6342 108.948 84.4446 107.827C93.6742 107.245 100.737 105.841 106.669 103.404C114.485 100.193 120.204 94.9488 122.769 88.6387C125.752 81.3018 123.725 72.6391 118.049 68.4823C117.316 67.9169 116.71 67.203 116.272 66.3874C115.834 65.5718 115.573 64.6729 115.507 63.7494C115.369 62.3805 115.504 60.998 115.904 59.6815C116.303 58.365 116.959 57.1406 117.834 56.0786C119.313 54.3955 121.131 53.0436 123.169 52.1116C125.207 51.1795 127.419 50.6882 129.66 50.6699L129.927 50.6717C139.673 50.7371 148.136 42.4125 150.402 34.6074C152.151 28.6008 150.287 23.3936 145.283 20.3226C132.839 12.671 118.512 8.71879 103.531 8.61823ZM97.8635 64.5113C93.9715 64.4852 90.7188 62.0334 90.4115 58.7261C90.0751 55.1509 93.2991 51.9189 97.5955 51.5152C99.5813 51.3042 101.579 51.7869 103.249 52.8814C104.004 53.3605 104.642 54.0033 105.114 54.7622C105.587 55.5211 105.883 56.3767 105.979 57.2655C106.316 60.8356 103.092 64.0676 98.7904 64.4712C98.4916 64.5001 98.1621 64.5133 97.8635 64.5113ZM98.555 51.9902C98.2507 51.9882 97.9465 52.0016 97.6435 52.0304C93.6304 52.405 90.6141 55.3862 90.9061 58.678C91.198 61.9697 94.7345 64.3308 98.7475 63.9613C102.766 63.5815 105.782 60.6003 105.485 57.3137C105.393 56.5005 105.12 55.7183 104.685 55.0248C104.25 54.3313 103.666 53.7442 102.974 53.3069C101.664 52.4405 100.126 51.9823 98.555 51.9902V51.9902Z"/>
</mask>
<path d="M79.7398 108.48C63.4976 108.371 48.1441 102.424 37.9475 92.1314C25.1173 79.1745 21.3098 58.911 29.0845 44.9855C37.1718 30.5062 57.3723 16.9267 79.3528 11.1897C102.912 5.0463 126.429 8.12839 145.564 19.8714C150.778 23.0726 152.713 28.4913 150.911 34.7395C148.587 42.7193 139.922 51.2382 129.934 51.1711L129.656 51.1693C127.491 51.1885 125.353 51.6643 123.384 52.5657C121.415 53.4672 119.658 54.7738 118.228 56.4005C117.399 57.4076 116.777 58.5691 116.399 59.8178C116.022 61.0665 115.895 62.3778 116.027 63.6757C116.088 64.5278 116.328 65.3576 116.73 66.1115C117.132 66.8653 117.687 67.5264 118.361 68.052C124.217 72.3438 126.324 81.2696 123.251 88.817C120.634 95.2554 114.817 100.601 106.866 103.864C100.883 106.32 93.7687 107.74 84.4823 108.347C82.8994 108.446 81.3185 108.49 79.7398 108.48ZM103.531 8.61823C95.4102 8.58488 87.32 9.61757 79.4679 11.6899C57.6163 17.3917 37.5452 30.8742 29.5204 45.2356C21.85 58.9661 25.6232 78.972 38.3 91.7682C49.3813 102.958 66.6342 108.948 84.4446 107.827C93.6742 107.245 100.737 105.841 106.669 103.404C114.485 100.193 120.204 94.9488 122.769 88.6387C125.752 81.3018 123.725 72.6391 118.049 68.4823C117.316 67.9169 116.71 67.203 116.272 66.3874C115.834 65.5718 115.573 64.6729 115.507 63.7494C115.369 62.3805 115.504 60.998 115.904 59.6815C116.303 58.365 116.959 57.1406 117.834 56.0786C119.313 54.3955 121.131 53.0436 123.169 52.1116C125.207 51.1795 127.419 50.6882 129.66 50.6699L129.927 50.6717C139.673 50.7371 148.136 42.4125 150.402 34.6074C152.151 28.6008 150.287 23.3936 145.283 20.3226C132.839 12.671 118.512 8.71879 103.531 8.61823ZM97.8635 64.5113C93.9715 64.4852 90.7188 62.0334 90.4115 58.7261C90.0751 55.1509 93.2991 51.9189 97.5955 51.5152C99.5813 51.3042 101.579 51.7869 103.249 52.8814C104.004 53.3605 104.642 54.0033 105.114 54.7622C105.587 55.5211 105.883 56.3767 105.979 57.2655C106.316 60.8356 103.092 64.0676 98.7904 64.4712C98.4916 64.5001 98.1621 64.5133 97.8635 64.5113ZM98.555 51.9902C98.2507 51.9882 97.9465 52.0016 97.6435 52.0304C93.6304 52.405 90.6141 55.3862 90.9061 58.678C91.198 61.9697 94.7345 64.3308 98.7475 63.9613C102.766 63.5815 105.782 60.6003 105.485 57.3137C105.393 56.5005 105.12 55.7183 104.685 55.0248C104.25 54.3313 103.666 53.7442 102.974 53.3069C101.664 52.4405 100.126 51.9823 98.555 51.9902V51.9902Z" fill="#001550"/>
<path d="M37.9475 92.1314L37.379 92.6943L37.3791 92.6944L37.9475 92.1314ZM29.0845 44.9855L28.3861 44.5954L28.386 44.5956L29.0845 44.9855ZM79.3528 11.1897L79.151 10.4156L79.1508 10.4156L79.3528 11.1897ZM145.564 19.8714L145.982 19.1896L145.982 19.1896L145.564 19.8714ZM150.911 34.7395L151.679 34.9632L151.679 34.9613L150.911 34.7395ZM129.656 51.1693L129.662 50.3692L129.649 50.3693L129.656 51.1693ZM118.228 56.4005L117.627 55.8723L117.619 55.882L117.61 55.8919L118.228 56.4005ZM116.027 63.6757L116.825 63.6184L116.824 63.6066L116.823 63.5948L116.027 63.6757ZM118.361 68.052L117.869 68.6826L117.878 68.6901L117.888 68.6972L118.361 68.052ZM123.251 88.817L122.51 88.5153L122.51 88.5157L123.251 88.817ZM106.866 103.864L106.563 103.123L106.562 103.124L106.866 103.864ZM84.4823 108.347L84.5323 109.145L84.5344 109.145L84.4823 108.347ZM103.531 8.61823L103.536 7.81825L103.534 7.81824L103.531 8.61823ZM79.4679 11.6899L79.6699 12.4639L79.672 12.4634L79.4679 11.6899ZM29.5204 45.2356L28.822 44.8454L28.822 44.8454L29.5204 45.2356ZM38.3 91.7682L38.8684 91.2053L38.8683 91.2052L38.3 91.7682ZM84.4446 107.827L84.4948 108.625L84.4949 108.625L84.4446 107.827ZM106.669 103.404L106.973 104.144L106.973 104.144L106.669 103.404ZM122.769 88.6387L122.028 88.3373L122.028 88.3375L122.769 88.6387ZM118.049 68.4823L117.561 69.1158L117.568 69.1219L117.576 69.1278L118.049 68.4823ZM115.507 63.7494L116.305 63.6918L116.304 63.6807L116.303 63.6696L115.507 63.7494ZM117.834 56.0786L117.233 55.5505L117.224 55.5601L117.216 55.57L117.834 56.0786ZM129.66 50.6699L129.665 49.8698L129.653 49.8699L129.66 50.6699ZM150.402 34.6074L149.634 34.3837L149.634 34.3843L150.402 34.6074ZM145.283 20.3226L144.863 21.004L144.864 21.0044L145.283 20.3226ZM90.4115 58.7261L91.2081 58.6521L91.208 58.6512L90.4115 58.7261ZM97.5955 51.5152L97.6703 52.3118L97.68 52.3108L97.5955 51.5152ZM103.249 52.8814L102.811 53.5507L102.821 53.5569L103.249 52.8814ZM105.979 57.2655L106.776 57.1905L106.775 57.1789L105.979 57.2655ZM98.7904 64.4712L98.7157 63.6747L98.7135 63.6749L98.7904 64.4712ZM97.6435 52.0304L97.7179 52.8269L97.7192 52.8268L97.6435 52.0304ZM98.7475 63.9613L98.8209 64.7579L98.8228 64.7577L98.7475 63.9613ZM105.485 57.3137L106.282 57.2417L106.281 57.2327L106.28 57.2238L105.485 57.3137ZM102.974 53.3069L102.532 53.9742L102.539 53.9787L102.546 53.9831L102.974 53.3069ZM79.7451 107.68C63.6831 107.572 48.5427 101.69 38.5158 91.5684L37.3791 92.6944C47.7455 103.159 63.3121 109.17 79.7344 109.28L79.7451 107.68ZM38.5159 91.5685C25.8879 78.8157 22.2135 58.9334 29.783 45.3755L28.386 44.5956C20.406 58.8886 24.3468 79.5333 37.379 92.6943L38.5159 91.5685ZM29.7829 45.3756C37.7294 31.1485 57.7048 17.6667 79.5549 11.9638L79.1508 10.4156C57.0397 16.1867 36.6143 29.8638 28.3861 44.5954L29.7829 45.3756ZM79.5547 11.9638C102.923 5.87019 126.213 8.93441 145.145 20.5532L145.982 19.1896C126.645 7.32236 102.901 4.22241 79.151 10.4156L79.5547 11.9638ZM145.145 20.5532C147.613 22.0683 149.273 24.0851 150.116 26.4331C150.96 28.785 151.005 31.5269 150.142 34.5178L151.679 34.9613C152.619 31.7039 152.598 28.6124 151.621 25.8925C150.644 23.1688 148.728 20.8757 145.982 19.1896L145.145 20.5532ZM150.143 34.5158C149.03 38.3372 146.38 42.3317 142.781 45.3608C139.186 48.387 134.701 50.4031 129.94 50.3711L129.929 51.9711C135.155 52.0062 139.996 49.7964 143.811 46.5849C147.623 43.3764 150.468 39.1216 151.679 34.9632L150.143 34.5158ZM129.94 50.3711L129.662 50.3693L129.651 51.9692L129.929 51.9711L129.94 50.3711ZM129.649 50.3693C127.371 50.3895 125.123 50.8901 123.051 51.8383L123.717 53.2932C125.584 52.4386 127.61 51.9875 129.663 51.9692L129.649 50.3693ZM123.051 51.8383C120.98 52.7866 119.131 54.1611 117.627 55.8723L118.829 56.9286C120.184 55.3865 121.85 54.1477 123.717 53.2932L123.051 51.8383ZM117.61 55.8919C116.714 56.9807 116.042 58.2363 115.634 59.5862L117.165 60.0495C117.512 58.9019 118.083 57.8345 118.846 56.909L117.61 55.8919ZM115.634 59.5862C115.225 60.9361 115.089 62.3535 115.231 63.7566L116.823 63.5948C116.702 62.402 116.818 61.197 117.165 60.0495L115.634 59.5862ZM115.229 63.733C115.298 64.6967 115.569 65.6353 116.024 66.4879L117.436 65.735C117.086 65.08 116.878 64.3589 116.825 63.6184L115.229 63.733ZM116.024 66.4879C116.478 67.3405 117.107 68.0882 117.869 68.6826L118.853 67.4213C118.268 66.9645 117.785 66.3901 117.436 65.735L116.024 66.4879ZM117.888 68.6972C123.401 72.7377 125.468 81.2506 122.51 88.5153L123.992 89.1186C127.18 81.2887 125.032 71.9498 118.834 67.4067L117.888 68.6972ZM122.51 88.5157C119.992 94.7103 114.364 99.9226 106.563 103.123L107.17 104.604C115.269 101.28 121.276 95.8005 123.992 89.1183L122.51 88.5157ZM106.562 103.124C100.686 105.536 93.6653 106.945 84.4301 107.549L84.5344 109.145C93.8722 108.535 101.079 107.105 107.17 104.604L106.562 103.124ZM84.4322 107.548C82.8677 107.646 81.3053 107.69 79.7451 107.68L79.7344 109.28C81.3317 109.29 82.931 109.246 84.5323 109.145L84.4322 107.548ZM103.534 7.81824C95.3435 7.7846 87.1836 8.82619 79.2638 10.9163L79.672 12.4634C87.4565 10.409 95.4769 9.38516 103.528 9.41823L103.534 7.81824ZM79.2659 10.9158C57.2842 16.6515 36.9879 30.2315 28.822 44.8454L30.2188 45.6258C38.1025 31.5169 57.9483 18.1318 79.6699 12.4639L79.2659 10.9158ZM28.822 44.8454C20.9457 58.9444 24.8534 79.3316 37.7317 92.3313L38.8683 91.2052C26.3931 78.6124 22.7542 58.9878 30.2188 45.6257L28.822 44.8454ZM37.7316 92.3312C48.9985 103.708 66.4889 109.759 84.4948 108.625L84.3943 107.028C66.7795 108.137 49.764 102.207 38.8684 91.2053L37.7316 92.3312ZM84.4949 108.625C93.7765 108.04 100.933 106.625 106.973 104.144L106.365 102.664C100.541 105.056 93.572 106.45 84.3943 107.028L84.4949 108.625ZM106.973 104.144C114.937 100.872 120.845 95.4947 123.51 88.94L122.028 88.3375C119.562 94.4028 114.033 99.5133 106.365 102.664L106.973 104.144ZM123.51 88.9401C126.607 81.3231 124.543 72.2462 118.522 67.8369L117.576 69.1278C122.908 73.0319 124.897 81.2806 122.028 88.3373L123.51 88.9401ZM118.538 67.8488C117.894 67.3522 117.362 66.7252 116.977 66.0089L115.568 66.766C116.059 67.6809 116.738 68.4816 117.561 69.1158L118.538 67.8488ZM116.977 66.0089C116.592 65.2925 116.363 64.5029 116.305 63.6918L114.709 63.807C114.783 64.8428 115.076 65.8511 115.568 66.766L116.977 66.0089ZM116.303 63.6696C116.176 62.4058 116.301 61.1293 116.669 59.9138L115.138 59.4493C114.708 60.8668 114.563 62.3553 114.711 63.8292L116.303 63.6696ZM116.669 59.9138C117.038 58.6983 117.644 57.5677 118.451 56.5872L117.216 55.57C116.275 56.7134 115.568 58.0318 115.138 59.4493L116.669 59.9138ZM118.435 56.6068C119.84 55.0082 121.566 53.7243 123.502 52.8391L122.836 51.384C120.696 52.3629 118.787 53.7827 117.233 55.5505L118.435 56.6068ZM123.502 52.8391C125.437 51.9539 127.538 51.4873 129.666 51.4699L129.653 49.8699C127.3 49.8892 124.977 50.4052 122.836 51.384L123.502 52.8391ZM129.654 51.4699L129.922 51.4717L129.933 49.8717L129.665 49.8699L129.654 51.4699ZM129.922 51.4717C135.027 51.5059 139.758 49.344 143.485 46.2027C147.209 43.0643 149.988 38.9016 151.17 34.8305L149.634 34.3843C148.549 38.1183 145.964 42.0204 142.454 44.9793C138.947 47.9352 134.573 49.9029 129.933 49.8717L129.922 51.4717ZM151.17 34.8311C152.084 31.6941 152.067 28.7153 151.128 26.0943C150.187 23.4696 148.342 21.2617 145.701 19.6407L144.864 21.0044C147.227 22.4545 148.816 24.3857 149.622 26.634C150.429 28.8861 150.47 31.5141 149.634 34.3837L151.17 34.8311ZM145.702 19.6411C133.127 11.9091 118.656 7.91973 103.536 7.81825L103.526 9.41822C118.368 9.51784 132.551 13.4329 144.863 21.004L145.702 19.6411ZM97.8689 63.7114C94.2576 63.6871 91.4664 61.4321 91.2081 58.6521L89.615 58.8001C89.9712 62.6347 93.6854 65.2833 97.8581 65.3113L97.8689 63.7114ZM91.208 58.6512C90.9254 55.6477 93.6694 52.6876 97.6703 52.3117L97.5207 50.7187C92.9288 51.1501 89.2249 54.6542 89.615 58.8011L91.208 58.6512ZM97.68 52.3108C99.4822 52.1193 101.295 52.5573 102.811 53.5506L103.688 52.2123C101.863 51.0166 99.6805 50.4892 97.511 50.7197L97.68 52.3108ZM102.821 53.5569C103.474 53.9716 104.026 54.5281 104.435 55.1851L105.793 54.3393C105.257 53.4785 104.534 52.7493 103.678 52.206L102.821 53.5569ZM104.435 55.1851C104.844 55.8421 105.1 56.5828 105.184 57.3522L106.775 57.1789C106.665 56.1707 106.33 55.2002 105.793 54.3393L104.435 55.1851ZM105.183 57.3406C105.466 60.3382 102.723 63.2988 98.7157 63.6747L98.8652 65.2677C103.461 64.8365 107.166 61.3329 106.776 57.1905L105.183 57.3406ZM98.7135 63.6749C98.4445 63.7009 98.1426 63.7132 97.8689 63.7114L97.8581 65.3113C98.1816 65.3135 98.5388 65.2993 98.8674 65.2675L98.7135 63.6749ZM98.5603 51.1902C98.2289 51.188 97.8977 51.2026 97.5678 51.234L97.7192 52.8268C97.9952 52.8005 98.2724 52.7883 98.5497 52.7902L98.5603 51.1902ZM97.5691 51.2339C93.2702 51.6352 89.7661 54.8798 90.1092 58.7486L91.703 58.6073C91.4622 55.8926 93.9907 53.1749 97.7179 52.8269L97.5691 51.2339ZM90.1092 58.7486C90.4534 62.6292 94.5306 65.1529 98.8209 64.7579L98.6742 63.1646C94.9384 63.5086 91.9427 61.3102 91.703 58.6073L90.1092 58.7486ZM98.8228 64.7577C103.125 64.3512 106.631 61.1074 106.282 57.2417L104.688 57.3857C104.933 60.0932 102.407 62.8119 98.6723 63.1648L98.8228 64.7577ZM106.28 57.2238C106.174 56.2915 105.861 55.3949 105.363 54.5999L104.007 55.4496C104.378 56.0416 104.611 56.7094 104.69 57.4036L106.28 57.2238ZM105.363 54.5999C104.865 53.805 104.194 53.132 103.401 52.6307L102.546 53.9831C103.137 54.3565 103.636 54.8576 104.007 55.4496L105.363 54.5999ZM103.415 52.6396C101.973 51.6859 100.28 51.1815 98.551 51.1902L98.559 52.7902C99.9715 52.7831 101.354 53.1951 102.532 53.9742L103.415 52.6396Z" fill="#001550" mask="url(#path-6-inside-1_2559_97725)"/>
<path d="M65.5997 86.2165L65.5999 86.2163C67.4942 83.1056 70.6619 80.3333 74.2776 78.5286C77.8944 76.7233 81.9188 75.9058 85.5223 76.6467L85.5232 76.6469C90.8809 77.7351 94.2286 80.7262 95.0484 84.0365C95.8603 87.3151 94.2353 91.1067 89.2146 93.9196L89.2145 93.9197C84.7445 96.4258 79.8219 98.0208 74.7315 98.6125C72.9238 98.821 70.982 98.8302 69.2381 98.4303C67.4965 98.0308 65.979 97.2304 64.9686 95.8391L64.9682 95.8386C63.0151 93.159 63.7725 89.211 65.5997 86.2165Z" fill="#10B981" stroke="#001550" stroke-width="0.8"/>
<path d="M54.0244 79.1721L54.0238 79.1721C52.3307 79.3637 50.5214 79.3764 48.8891 79.0144C47.2595 78.653 45.8317 77.9245 44.8543 76.6524C43.8515 75.3361 43.5853 73.7046 43.8288 72.0509C44.0727 70.3943 44.8258 68.7423 45.8207 67.4348C47.7218 64.9486 50.6234 62.8338 53.8238 61.5377C57.0254 60.241 60.488 59.7785 63.5114 60.5452C67.8354 61.6535 70.5185 64.1926 71.1567 66.9451C71.7875 69.6657 70.458 72.7816 66.3506 75.157C62.5585 77.3214 58.3639 78.6878 54.0244 79.1721Z" fill="#10B981" stroke="#001550" stroke-width="0.8"/>
<path opacity="0.2" d="M54.0244 79.1721L54.0238 79.1721C52.3307 79.3637 50.5214 79.3764 48.8891 79.0144C47.2595 78.653 45.8317 77.9245 44.8543 76.6524C43.8515 75.3361 43.5853 73.7046 43.8288 72.0509C44.0727 70.3943 44.8258 68.7423 45.8207 67.4348C47.7218 64.9486 50.6234 62.8338 53.8238 61.5377C57.0254 60.241 60.488 59.7785 63.5114 60.5452C67.8354 61.6535 70.5185 64.1926 71.1567 66.9451C71.7875 69.6657 70.458 72.7816 66.3506 75.157C62.5585 77.3214 58.3639 78.6878 54.0244 79.1721Z" fill="white" stroke="#001550" stroke-width="0.8"/>
<path d="M54.4674 55.3073L54.465 55.3076C51.2719 55.6606 47.7927 55.3553 45.8924 53.0343C44.8455 51.7491 44.5986 50.1395 44.903 48.5399C45.2082 46.9356 46.0649 45.3707 47.1772 44.2315C49.0213 42.345 51.6481 40.8674 54.445 40.0744C57.2432 39.281 60.1741 39.1834 62.6287 40.01L62.6288 40.01C65.9161 41.1161 67.9411 43.2064 68.4015 45.4118C68.8553 47.5853 67.8198 50.0368 64.6237 51.966C61.516 53.7929 58.0527 54.9323 54.4674 55.3073Z" fill="#10B981" stroke="#001550" stroke-width="0.8"/>
<path opacity="0.4" d="M54.4674 55.3073L54.465 55.3076C51.2719 55.6606 47.7927 55.3553 45.8924 53.0343C44.8455 51.7491 44.5986 50.1395 44.903 48.5399C45.2082 46.9356 46.0649 45.3707 47.1772 44.2315C49.0213 42.345 51.6481 40.8674 54.445 40.0744C57.2432 39.281 60.1741 39.1834 62.6287 40.01L62.6288 40.01C65.9161 41.1161 67.9411 43.2064 68.4015 45.4118C68.8553 47.5853 67.8198 50.0368 64.6237 51.966C61.516 53.7929 58.0527 54.9323 54.4674 55.3073Z" fill="white" stroke="#001550" stroke-width="0.8"/>
<path d="M70.5246 34.4663L70.5246 34.4663C73.3596 34.2029 76.096 33.2908 78.522 31.8006C80.8016 30.336 81.5492 28.5263 81.2677 26.8772C80.9811 25.1981 79.6069 23.55 77.3597 22.4899C75.4558 21.5924 73.0226 21.32 70.6145 21.6116C68.2074 21.9031 65.8671 22.7532 64.1494 24.0542C62.8937 25.0108 61.9356 26.4859 61.575 28.0403C61.2158 29.5886 61.4536 31.1853 62.5385 32.4415L70.5246 34.4663ZM70.5246 34.4663L70.5188 34.4669M70.5246 34.4663L70.5188 34.4669M70.5188 34.4669C67.5552 34.7858 64.3473 34.534 62.5386 32.4416L70.5188 34.4669Z" fill="#10B981" stroke="#001550" stroke-width="0.8"/>
<path opacity="0.6" d="M70.5246 34.4663L70.5246 34.4663C73.3596 34.2029 76.096 33.2908 78.522 31.8006C80.8016 30.336 81.5492 28.5263 81.2677 26.8772C80.9811 25.1981 79.6069 23.55 77.3597 22.4899C75.4558 21.5924 73.0226 21.32 70.6145 21.6116C68.2074 21.9031 65.8671 22.7532 64.1494 24.0542C62.8937 25.0108 61.9356 26.4859 61.575 28.0403C61.2158 29.5886 61.4536 31.1853 62.5385 32.4415L70.5246 34.4663ZM70.5246 34.4663L70.5188 34.4669M70.5246 34.4663L70.5188 34.4669M70.5188 34.4669C67.5552 34.7858 64.3473 34.534 62.5386 32.4416L70.5188 34.4669Z" fill="white" stroke="#001550" stroke-width="0.8"/>
<path d="M88.6271 23.1188L88.6259 23.1175C87.4969 21.9025 87.2511 20.2947 87.655 18.7801C88.0605 17.2595 89.1141 15.8697 90.5262 15.1348C92.0635 14.3379 94.1117 14.0821 96.1432 14.2972C98.1738 14.5122 100.133 15.192 101.488 16.2059C102.718 17.1305 103.462 18.3348 103.577 19.5204C103.69 20.6853 103.204 21.9047 101.824 22.9116L101.823 22.9118C100.186 24.1081 98.1043 24.6628 96.0005 24.8868C93.2754 25.1716 90.344 24.9833 88.6271 23.1188Z" fill="#10B981" stroke="#001550" stroke-width="0.8"/>
<path opacity="0.8" d="M88.6271 23.1188L88.6259 23.1175C87.4969 21.9025 87.2511 20.2947 87.655 18.7801C88.0605 17.2595 89.1141 15.8697 90.5262 15.1348C92.0635 14.3379 94.1117 14.0821 96.1432 14.2972C98.1738 14.5122 100.133 15.192 101.488 16.2059C102.718 17.1305 103.462 18.3348 103.577 19.5204C103.69 20.6853 103.204 21.9047 101.824 22.9116L101.823 22.9118C100.186 24.1081 98.1043 24.6628 96.0005 24.8868C93.2754 25.1716 90.344 24.9833 88.6271 23.1188Z" fill="white" stroke="#001550" stroke-width="0.8"/>
<path d="M113.806 17.5725L113.806 17.5724C115.16 17.2045 117.005 17.4618 118.704 18.1635C120.405 18.8659 121.858 19.9713 122.488 21.1933C123.185 22.5687 123.058 24.3716 122.017 25.4083C121.137 26.2757 119.788 26.5337 118.398 26.6741C115.9 26.925 113.229 26.8001 111.604 25.1528C110.432 23.9625 110.169 22.2957 110.617 20.7952C111.066 19.2922 112.215 18.0034 113.806 17.5725Z" fill="white" stroke="#001550" stroke-width="0.8"/>
<path d="M107.255 35.8725L90.3472 40.6036L90.2347 42.7857L92.454 47.326L92.7955 48.6102L115.721 43.9298L107.255 35.8725Z" fill="white" stroke="#001550" stroke-width="0.8" stroke-linecap="round" stroke-linejoin="round"/>
<path d="M107.255 35.8727L113.432 44.4243C113.432 44.4243 114.559 45.2092 115.597 44.7528C116.635 44.2965 116.77 43.381 113.824 39.6544C110.879 35.9279 109.573 34.9409 109.573 34.9409C109.573 34.9409 107.729 33.5282 107.255 35.8727Z" fill="white" stroke="#001550" stroke-width="0.8" stroke-linecap="round" stroke-linejoin="round"/>
<path d="M92.4167 41.0222L92.451 41.0477L92.4878 41.0646L92.4934 41.0673C92.4999 41.0706 92.5115 41.0765 92.5277 41.0855C92.5601 41.1033 92.611 41.133 92.6764 41.1764C92.8071 41.2632 92.9957 41.4049 93.2108 41.6169C93.6396 42.0397 94.1794 42.7477 94.5749 43.8716L94.5747 43.8717L94.5794 43.8837C94.92 44.7607 94.9453 45.7288 94.651 46.6224C94.5058 47.0383 94.25 47.4068 93.9109 47.6881C93.5758 47.9661 93.1719 48.1486 92.742 48.2163C92.3529 48.2357 91.9644 48.1656 91.6066 48.0111C91.2439 47.8545 90.9227 47.6157 90.6683 47.3135C90.1266 46.6511 89.7531 45.8675 89.5795 45.0295L89.5767 45.0162L89.5731 45.0032C89.3654 44.2584 89.3166 43.4783 89.43 42.7134C89.4843 42.3552 89.6126 42.0122 89.8067 41.7063C89.9997 41.4021 90.2535 41.1411 90.5522 40.9398C90.8344 40.7655 91.1624 40.6798 91.4939 40.6938C91.8275 40.7079 92.1492 40.8223 92.4167 41.0222Z" fill="#001550" stroke="#001550" stroke-width="0.8"/>
<path d="M91.1285 44.372C91.2251 45.3145 90.8696 46.1253 90.334 46.1835C89.7983 46.2417 89.2833 45.5177 89.1867 44.5751C89.0901 43.6326 89.4404 42.8165 89.9761 42.7584C90.5118 42.7002 91.0268 43.4088 91.1285 44.372Z" fill="white" stroke="#001550" stroke-width="0.8" stroke-linecap="round" stroke-linejoin="round"/>
<path d="M88.8805 46.3469C89.4177 46.2909 89.7733 45.48 89.6748 44.5357C89.5762 43.5914 89.0609 42.8713 88.5238 42.9273C87.9866 42.9834 87.631 43.7943 87.7295 44.7386C87.828 45.6829 88.3433 46.4029 88.8805 46.3469Z" fill="white" stroke="#001550" stroke-width="0.8" stroke-linecap="round" stroke-linejoin="round"/>
<path d="M88.4711 44.6456C88.4991 44.9146 88.4606 45.1454 88.396 45.2972C88.3548 45.3941 88.318 45.4309 88.301 45.4439C88.281 45.4352 88.2336 45.4074 88.1678 45.3172C88.0696 45.1826 87.9809 44.9669 87.9534 44.7028C87.9254 44.435 87.9648 44.2042 88.03 44.0519C88.07 43.9584 88.1058 43.9204 88.1236 43.9058C88.1448 43.9161 88.1911 43.9459 88.2548 44.0331C88.3544 44.1694 88.4437 44.3856 88.4711 44.6456Z" fill="#001550" stroke="#001550" stroke-width="0.8"/>
<path d="M97.1606 45.3034L105.639 44.5367Z" fill="white"/>
<path d="M97.1606 45.3034L105.639 44.5367" stroke="#001550" stroke-width="0.8" stroke-linecap="round" stroke-linejoin="round"/>
<path d="M115.242 43.1441C115.103 43.0287 114.931 42.9614 114.751 42.9523C114.571 42.9431 114.392 42.9926 114.243 43.0932C114.093 43.1939 113.98 43.3403 113.921 43.5106C113.862 43.6808 113.859 43.8657 113.914 44.0376C113.968 44.2094 114.077 44.3589 114.224 44.4637C114.371 44.5684 114.547 44.6227 114.728 44.6185C114.908 44.6143 115.082 44.5518 115.224 44.4404C115.365 44.3289 115.467 44.1745 115.514 44.0003L114.708 43.6037C114.661 43.7115 114.614 43.8193 114.572 43.9271" fill="white"/>
<path d="M115.242 43.1441C115.103 43.0287 114.931 42.9614 114.751 42.9523C114.571 42.9431 114.392 42.9926 114.243 43.0932C114.093 43.1939 113.98 43.3403 113.921 43.5106C113.862 43.6808 113.859 43.8657 113.914 44.0376C113.968 44.2094 114.077 44.3589 114.224 44.4637C114.371 44.5684 114.547 44.6227 114.728 44.6185C114.908 44.6143 115.082 44.5518 115.224 44.4404C115.365 44.3289 115.467 44.1745 115.514 44.0003L114.708 43.6037C114.661 43.7115 114.614 43.8193 114.572 43.9271" stroke="#001550" stroke-width="0.8" stroke-linecap="round" stroke-linejoin="round"/>
<path d="M100.734 42.8462L101.074 42.8484C102.828 42.9299 104.545 42.3183 105.852 41.1455" fill="white"/>
<path d="M100.734 42.8462L101.074 42.8484C102.828 42.9299 104.545 42.3183 105.852 41.1455" stroke="#001550" stroke-width="0.8" stroke-linecap="round" stroke-linejoin="round"/>
<path d="M98.1499 42.4839C98.5302 42.5688 98.9106 42.6434 99.2911 42.7025Z" fill="white"/>
<path d="M98.1499 42.4839C98.5302 42.5688 98.9106 42.6434 99.2911 42.7025" stroke="#001550" stroke-width="0.8" stroke-linecap="round" stroke-linejoin="round"/>
<path d="M95.9539 41.8975L97.079 42.1984Z" fill="white"/>
<path d="M95.9539 41.8975L97.079 42.1984" stroke="#001550" stroke-width="0.8" stroke-linecap="round" stroke-linejoin="round"/>
<path d="M107.473 37.0788C109.281 38.4413 110.491 40.4515 110.848 42.6873Z" fill="white"/>
<path d="M107.473 37.0788C109.281 38.4413 110.491 40.4515 110.848 42.6873" stroke="#001550" stroke-width="0.8" stroke-linecap="round" stroke-linejoin="round"/>
<path d="M87.6807 44.6977C87.7737 45.6032 87.7399 46.5182 87.5796 47.4162L87.5796 47.4163C87.5191 47.755 87.4249 48.084 87.2809 48.3467C87.1387 48.6061 86.9628 48.7754 86.7439 48.8518C86.456 48.9518 86.1416 48.8621 85.8463 48.5875C85.5502 48.3121 85.3303 47.8947 85.2706 47.4926C85.1906 46.741 85.3888 45.9862 85.8277 45.3707C86.0789 45.0187 86.3988 44.7263 86.7645 44.5089L86.2614 45.5474L87.4111 44.8591L87.6807 44.6977Z" fill="#001550" stroke="#001550" stroke-width="0.8"/>
<path d="M97.104 38.8161C97.104 38.8161 98.999 40.2858 99.6094 43.6929L100.22 47.1L106.04 45.9087C106.04 45.9087 106.202 39.428 103.319 37.8899C100.436 36.3518 102.355 37.2451 102.355 37.2451L97.104 38.8161Z" fill="#FFBD14" stroke="#001550" stroke-width="0.8" stroke-miterlimit="10"/>
<path d="M133.502 26.1022L123.143 36.1285L123.915 37.7503L127.291 40.1618L128.043 40.9545L142.767 28.6099L133.502 26.1022Z" fill="white" stroke="#001550" stroke-width="0.8" stroke-linecap="round" stroke-linejoin="round"/>
<path d="M133.504 26.1022L141.315 29.8614C141.623 29.8941 141.936 29.8565 142.228 29.7515C142.52 29.6465 142.785 29.4767 143.002 29.2549C143.573 28.5174 143.316 27.8052 139.732 26.2624C136.149 24.7196 134.817 24.5202 134.817 24.5202C134.817 24.5202 132.925 24.2243 133.504 26.1022Z" fill="white" stroke="#001550" stroke-width="0.8" stroke-linecap="round" stroke-linejoin="round"/>
<path d="M124.804 35.6864L124.848 35.6931L124.891 35.6899L124.894 35.6897C124.898 35.6896 124.908 35.6893 124.922 35.6893C124.95 35.6893 124.995 35.6904 125.056 35.6956C125.178 35.706 125.363 35.7326 125.595 35.7993C126.056 35.9321 126.713 36.2259 127.439 36.8789L127.439 36.8791L127.447 36.8861C128.023 37.3765 128.412 38.0505 128.549 38.7944C128.604 39.139 128.565 39.4922 128.435 39.8162C128.307 40.1352 128.095 40.4139 127.823 40.6234C127.558 40.7812 127.261 40.8766 126.954 40.9024C126.641 40.9286 126.326 40.8816 126.035 40.7652C125.395 40.5018 124.828 40.0878 124.382 39.5584L124.373 39.5476L124.363 39.5375C123.929 39.0902 123.595 38.5558 123.383 37.9698C123.287 37.7009 123.248 37.4152 123.269 37.1306C123.289 36.8476 123.368 36.5718 123.499 36.3205C123.627 36.0964 123.819 35.9159 124.051 35.8027C124.284 35.6886 124.547 35.6481 124.804 35.6864Z" fill="#001550" stroke="#001550" stroke-width="0.8"/>
<path d="M125.184 38.5412C125.628 39.1876 125.69 39.9137 125.322 40.1635C124.955 40.4132 124.294 40.0948 123.86 39.4485C123.427 38.8022 123.355 38.0812 123.727 37.8315C124.099 37.5818 124.746 37.9001 125.184 38.5412Z" fill="white" stroke="#001550" stroke-width="0.8" stroke-linecap="round" stroke-linejoin="round"/>
<path d="M124.205 39.2142C124.644 39.8553 124.711 40.5815 124.344 40.8312C123.977 41.081 123.315 40.7626 122.882 40.1215C122.448 39.4803 122.376 38.749 122.743 38.4992C123.11 38.2495 123.762 38.5678 124.205 39.2142Z" fill="white" stroke="#001550" stroke-width="0.8" stroke-linecap="round" stroke-linejoin="round"/>
<path d="M123.315 39.8238C123.432 39.9953 123.487 40.1638 123.497 40.2837C123.499 40.3149 123.499 40.3381 123.497 40.3551C123.481 40.3505 123.459 40.3426 123.431 40.3291C123.324 40.2771 123.188 40.1652 123.07 39.9926C122.951 39.8196 122.895 39.6496 122.884 39.5287C122.882 39.4993 122.882 39.4769 122.883 39.4603C122.899 39.465 122.921 39.4729 122.948 39.4861C123.056 39.5384 123.194 39.6506 123.315 39.8238ZM123.488 40.3947C123.487 40.3946 123.488 40.3936 123.489 40.3918C123.488 40.3939 123.488 40.3947 123.488 40.3947ZM123.534 40.361C123.536 40.3605 123.537 40.3604 123.537 40.3605C123.537 40.3606 123.536 40.3609 123.534 40.361ZM122.892 39.4187C122.892 39.4188 122.892 39.4199 122.891 39.4219C122.892 39.4196 122.892 39.4186 122.892 39.4187ZM122.845 39.454C122.843 39.4545 122.842 39.4545 122.842 39.4545C122.842 39.4544 122.843 39.4541 122.845 39.454Z" fill="#001550" stroke="#001550" stroke-width="0.8"/>
<path d="M142.121 28.2296C141.977 28.1956 141.825 28.2094 141.689 28.2691C141.553 28.3288 141.44 28.4311 141.367 28.5606C141.295 28.6901 141.266 28.8398 141.286 28.987C141.305 29.1342 141.373 29.271 141.477 29.3767C141.581 29.4824 141.717 29.5513 141.864 29.5731C142.011 29.5948 142.161 29.5681 142.291 29.4972C142.422 29.4262 142.526 29.3147 142.587 29.1795C142.649 29.0443 142.665 28.8928 142.632 28.7478L141.896 28.7737C141.896 28.8715 141.895 28.9641 141.92 29.0621" fill="white"/>
<path d="M142.121 28.2296C141.977 28.1956 141.825 28.2094 141.689 28.2691C141.553 28.3288 141.44 28.4311 141.367 28.5606C141.295 28.6901 141.266 28.8398 141.286 28.987C141.305 29.1342 141.373 29.271 141.477 29.3767C141.581 29.4824 141.717 29.5513 141.864 29.5731C142.011 29.5948 142.161 29.5681 142.291 29.4972C142.422 29.4262 142.526 29.3147 142.587 29.1795C142.649 29.0443 142.665 28.8928 142.632 28.7478L141.896 28.7737C141.896 28.8715 141.895 28.9641 141.92 29.0621" stroke="#001550" stroke-width="0.8" stroke-linecap="round" stroke-linejoin="round"/>
<path d="M134.142 26.8891C135.974 27.1713 137.626 28.1486 138.757 29.6178Z" fill="white"/>
<path d="M134.142 26.8891C135.974 27.1713 137.626 28.1486 138.757 29.6178" stroke="#001550" stroke-width="0.8" stroke-linecap="round" stroke-linejoin="round"/>
<path d="M132.743 31.0548C133.259 30.8678 133.775 30.7066 134.224 30.55Z" fill="white"/>
<path d="M132.743 31.0548C133.259 30.8678 133.775 30.7066 134.224 30.55" stroke="#001550" stroke-width="0.8" stroke-linecap="round" stroke-linejoin="round"/>
<path d="M125.219 34.1244C127.496 33.0534 129.551 32.2126 131.275 31.5909Z" fill="white"/>
<path d="M125.219 34.1244C127.496 33.0534 129.551 32.2126 131.275 31.5909" stroke="#001550" stroke-width="0.8" stroke-linecap="round" stroke-linejoin="round"/>
<path d="M132.687 36.5686L137.096 31.6146Z" fill="white"/>
<path d="M132.687 36.5686L137.096 31.6146" stroke="#001550" stroke-width="0.8" stroke-linecap="round" stroke-linejoin="round"/>
<path d="M127.306 32.1048C127.824 31.5934 132.183 31.8029 132.704 34.0767L133.203 36.3505L137.618 32.9102C137.618 32.9102 139.021 28.6928 131.369 28.1472L127.306 32.1048Z" fill="#001550" stroke="#001550" stroke-width="0.8" stroke-miterlimit="10"/>
<path d="M113.276 62.4885C113.273 63.087 113.319 63.6848 113.413 64.2759C113.908 67.2601 115.594 69.8919 117.256 72.4257C118.917 74.9595 120.624 77.5657 121.176 80.5451C121.727 83.5246 120.818 86.9833 118.229 88.5464" stroke="#001550" stroke-width="0.8" stroke-linecap="round" stroke-linejoin="round"/>
</svg>
