<svg width="170" height="120" fill="none" xmlns="http://www.w3.org/2000/svg"><path opacity=".7" d="M98.532 4.517s-21.639-8.62-42.476 3.182C35.218 19.5 25.076 44.016 16.335 63.632c-8.741 19.616-3.074 40.076 13.207 49.881s26.957-3.444 49.529-3.322c22.572.121 28.709 3.661 47.185-8.837 18.477-12.498 21.245-43.435 6.004-66.93C117.02 10.932 98.532 4.518 98.532 4.518Z" fill="#ECF4EE"/><path d="m141.214 41.063.112.384-.003.001-.013.004-.048.014-.191.057a207.196 207.196 0 0 0-3.334 1.035 196.06 196.06 0 0 0-8.028 2.75c-2.958 1.092-5.959 2.307-8.32 3.5-1.182.596-2.193 1.181-2.956 1.737-.777.566-1.241 1.062-1.408 1.463-.817 1.962-.871 3.683-.724 4.91.067.562.176 1.02.274 1.35l.173-.179c.396-.406.96-.958 1.635-1.544 1.341-1.162 3.162-2.492 4.998-3.036.929-.275 2.054-.366 3.252-.398a75.442 75.442 0 0 1 1.872-.02h.077c.617-.001 1.243-.002 1.873-.016 2.644-.056 5.252-.33 7.184-1.632.329-.221.701-.462 1.107-.725 4.683-3.03 13.803-8.93 12.176-21.681-.225-1.759-.544-2.82-.895-3.378-.171-.273-.327-.389-.447-.432-.112-.04-.249-.04-.436.046-.407.185-.914.705-1.485 1.546-.559.822-1.138 1.889-1.709 3.077-1.142 2.375-2.23 5.195-3.035 7.428a128.588 128.588 0 0 0-1.227 3.572l-.07.215-.017.055-.005.014-.001.003-.381-.12Zm0 0 .113.384.204-.06.064-.203-.381-.12ZM105.147 59.11a8.558 8.558 0 0 1-.977 1.706l.018-.17c.105-1.035.086-2.375-.302-3.646-.391-1.278-1.162-2.504-2.568-3.258-1.4-.75-3.367-.998-6.088-.451-1.084.218-2.002.727-2.732 1.285a7.33 7.33 0 0 1 2.303-1.92c1.922-1.01 4.577-1.216 7.901.65 1.648.924 2.418 1.945 2.707 2.915.292.978.118 1.975-.262 2.889Z" fill="#001550" stroke="#001550" stroke-width=".8"/><path opacity=".2" d="M84.455 107.685c-16.752 1.06-34.275-4.145-46.046-16.03-11.778-11.89-16.868-31.829-8.754-46.36 7.155-12.808 24.742-25.974 46.23-32.457 21.473-6.478 46.769-6.261 69.329 7.595 3.441 2.116 5.16 5.043 5.586 8.24.427 3.213-.446 6.733-2.262 10.006-3.637 6.56-10.969 11.982-18.75 11.875h-.006a16.04 16.04 0 0 0-12.043 5.452l-.003.003c-1.495 1.736-2.367 4.187-2.41 6.54-.044 2.353.741 4.677 2.648 6.077h.002c5.909 4.3 7.475 13.092 4.685 19.956-2.789 6.862-9.109 11.848-16.027 14.69-6.92 2.842-14.661 3.95-22.179 4.413Zm5.817-48.956c.32 3.418 3.633 5.852 7.505 5.914l-.074.073 1.117-.104c4.312-.402 7.681-3.64 7.332-7.37-.349-3.73-4.257-6.28-8.564-5.878-4.307.403-7.665 3.641-7.316 7.365Z" fill="#fff" stroke="#001550" stroke-width=".8"/><path d="M145.424 20.092C100.064-7.766 43.745 19.25 29.306 45.1c-8.223 14.726-3.05 34.854 8.819 46.837 11.869 11.982 29.513 17.213 46.355 16.147 7.535-.464 15.327-1.575 22.306-4.442 6.98-2.867 13.403-7.916 16.246-14.909 2.842-6.993 1.27-15.997-4.821-20.43-3.54-2.598-3.031-8.716-.172-12.033a15.635 15.635 0 0 1 11.743-5.316c15.928.22 29.808-22.149 15.642-30.862Zm-46.63 44.112c-4.163.394-7.802-2.076-8.124-5.512-.322-3.436 2.793-6.54 6.956-6.93 4.162-.389 7.806 2.076 8.128 5.517.322 3.442-2.804 6.546-6.971 6.935l.01-.01Z" fill="#FFBD14" stroke="#001550" stroke-width=".8" stroke-miterlimit="10"/><mask id="a" fill="#fff"><path d="M79.74 108.48c-16.242-.109-31.596-6.056-41.792-16.349-12.83-12.957-16.638-33.22-8.864-47.145 8.088-14.48 28.288-28.06 50.269-33.796 23.559-6.144 47.076-3.062 66.211 8.681 5.214 3.202 7.149 8.62 5.347 14.869-2.324 7.98-10.989 16.498-20.977 16.431l-.278-.002a15.398 15.398 0 0 0-11.428 5.232 9.884 9.884 0 0 0-2.201 7.275 6.104 6.104 0 0 0 2.334 4.376c5.856 4.292 7.963 13.218 4.89 20.765-2.617 6.438-8.434 11.784-16.385 15.047-5.983 2.456-13.097 3.876-22.384 4.483a68.957 68.957 0 0 1-4.742.133ZM103.53 8.618c-8.12-.033-16.211 1-24.063 3.072-21.852 5.702-41.923 19.184-49.948 33.546-7.67 13.73-3.897 33.736 8.78 46.532 11.081 11.19 28.334 17.18 46.145 16.059 9.23-.582 16.292-1.986 22.224-4.423 7.816-3.211 13.535-8.455 16.1-14.765 2.983-7.337.956-16-4.72-20.157a6.576 6.576 0 0 1-2.542-4.733 10.418 10.418 0 0 1 2.327-7.67 15.911 15.911 0 0 1 11.826-5.41l.267.003c9.746.065 18.209-8.26 20.475-16.065 1.749-6.006-.115-11.213-5.119-14.284-12.444-7.652-26.771-11.604-41.752-11.705Zm-5.668 55.893c-3.891-.026-7.144-2.478-7.451-5.785-.337-3.575 2.887-6.807 7.183-7.21a8.647 8.647 0 0 1 5.654 1.365 5.95 5.95 0 0 1 2.73 4.385c.337 3.57-2.887 6.802-7.189 7.205a9.302 9.302 0 0 1-.927.04Zm.692-12.52a9.007 9.007 0 0 0-.912.04c-4.013.374-7.029 3.355-6.737 6.647.292 3.292 3.828 5.653 7.841 5.283 4.019-.38 7.035-3.36 6.738-6.647a5.462 5.462 0 0 0-2.511-4.007 7.938 7.938 0 0 0-4.419-1.317Z"/></mask><path d="M79.74 108.48c-16.242-.109-31.596-6.056-41.792-16.349-12.83-12.957-16.638-33.22-8.864-47.145 8.088-14.48 28.288-28.06 50.269-33.796 23.559-6.144 47.076-3.062 66.211 8.681 5.214 3.202 7.149 8.62 5.347 14.869-2.324 7.98-10.989 16.498-20.977 16.431l-.278-.002a15.398 15.398 0 0 0-11.428 5.232 9.884 9.884 0 0 0-2.201 7.275 6.104 6.104 0 0 0 2.334 4.376c5.856 4.292 7.963 13.218 4.89 20.765-2.617 6.438-8.434 11.784-16.385 15.047-5.983 2.456-13.097 3.876-22.384 4.483a68.957 68.957 0 0 1-4.742.133ZM103.53 8.618c-8.12-.033-16.211 1-24.063 3.072-21.852 5.702-41.923 19.184-49.948 33.546-7.67 13.73-3.897 33.736 8.78 46.532 11.081 11.19 28.334 17.18 46.145 16.059 9.23-.582 16.292-1.986 22.224-4.423 7.816-3.211 13.535-8.455 16.1-14.765 2.983-7.337.956-16-4.72-20.157a6.576 6.576 0 0 1-2.542-4.733 10.418 10.418 0 0 1 2.327-7.67 15.911 15.911 0 0 1 11.826-5.41l.267.003c9.746.065 18.209-8.26 20.475-16.065 1.749-6.006-.115-11.213-5.119-14.284-12.444-7.652-26.771-11.604-41.752-11.705Zm-5.668 55.893c-3.891-.026-7.144-2.478-7.451-5.785-.337-3.575 2.887-6.807 7.183-7.21a8.647 8.647 0 0 1 5.654 1.365 5.95 5.95 0 0 1 2.73 4.385c.337 3.57-2.887 6.802-7.189 7.205a9.302 9.302 0 0 1-.927.04Zm.692-12.52a9.007 9.007 0 0 0-.912.04c-4.013.374-7.029 3.355-6.737 6.647.292 3.292 3.828 5.653 7.841 5.283 4.019-.38 7.035-3.36 6.738-6.647a5.462 5.462 0 0 0-2.511-4.007 7.938 7.938 0 0 0-4.419-1.317Z" fill="#001550"/><path d="m37.947 92.131-.568.563.569-.563Zm-8.863-47.145-.698-.39.698.39ZM79.353 11.19l-.202-.774.202.774Zm66.211 8.681.418-.681-.418.681Zm5.347 14.869.768.223v-.002l-.768-.221Zm-21.255 16.43.006-.8h-.013l.007.8Zm-11.428 5.23-.601-.528-.008.01-.009.01.618.508Zm-2.201 7.276.798-.058-.001-.011-.001-.012-.796.08Zm2.334 4.376-.492.63.009.008.01.007.473-.645Zm4.89 20.765-.741-.302.741.302Zm-16.385 15.047-.303-.741-.001.001.304.74Zm-22.384 4.483.05.798h.002l-.052-.798Zm19.049-99.729.005-.8h-.002l-.003.8ZM79.468 11.69l.202.774h.002l-.204-.774ZM29.52 45.236l-.698-.39.698.39Zm8.78 46.532.568-.563-.568.563Zm46.145 16.059.05.798-.05-.798Zm22.224-4.423.304.74-.304-.74Zm16.1-14.765-.741-.302.741.302Zm-4.72-20.157-.488.634.007.006.008.006.473-.646Zm-2.542-4.733.798-.057-.001-.011-.001-.011-.796.08Zm2.327-7.67-.601-.529-.009.01-.008.01.618.509Zm11.826-5.41.005-.8h-.012l.007.8Zm20.742-16.062-.768-.223.768.223Zm-5.119-14.284-.42.681h.001l.419-.681ZM90.412 58.726l.796-.074-.796.074Zm7.183-7.21.075.796.01-.001-.085-.796Zm5.654 1.365-.438.67.01.006.428-.676Zm2.73 4.385.797-.075-.001-.012-.796.087ZM98.79 64.47l-.074-.796h-.002l.076.796Zm-1.147-12.44.075.796h.001l-.075-.797Zm1.105 11.93.073.797h.002l-.075-.797Zm6.737-6.647.797-.072-.001-.01-.001-.008-.795.09Zm-2.511-4.007-.442.667.007.005.007.004.428-.676ZM79.745 107.68c-16.062-.108-31.202-5.99-41.23-16.112l-1.136 1.126c10.367 10.465 25.933 16.476 42.355 16.586l.011-1.6Zm-41.23-16.112c-12.627-12.752-16.302-32.635-8.732-46.192l-1.397-.78c-7.98 14.293-4.04 34.937 8.993 48.098l1.137-1.126Zm-8.732-46.192c7.946-14.227 27.922-27.71 49.772-33.412l-.404-1.548c-22.111 5.77-42.537 19.448-50.765 34.18l1.397.78Zm49.772-33.412c23.368-6.094 46.658-3.03 65.59 8.59l.837-1.364c-19.337-11.868-43.081-14.968-66.831-8.774l.404 1.548Zm65.59 8.59c2.468 1.514 4.128 3.531 4.971 5.88.844 2.351.889 5.093.026 8.084l1.537.443c.94-3.257.919-6.349-.058-9.069-.977-2.723-2.893-5.016-5.639-6.702l-.837 1.363Zm4.998 13.962c-1.113 3.821-3.763 7.816-7.362 10.845-3.595 3.026-8.08 5.042-12.841 5.01l-.011 1.6c5.226.035 10.067-2.175 13.882-5.386 3.812-3.209 6.657-7.463 7.868-11.622l-1.536-.447ZM129.94 50.37l-.278-.002-.011 1.6.278.002.011-1.6Zm-.291-.002a16.2 16.2 0 0 0-6.598 1.47l.666 1.454a14.598 14.598 0 0 1 5.946-1.324l-.014-1.6Zm-6.598 1.47a16.202 16.202 0 0 0-5.424 4.033l1.202 1.057a14.59 14.59 0 0 1 4.888-3.636l-.666-1.455Zm-5.441 4.053a10.675 10.675 0 0 0-1.976 3.694l1.531.464a9.057 9.057 0 0 1 1.681-3.141l-1.236-1.017Zm-1.976 3.694a10.675 10.675 0 0 0-.403 4.17l1.592-.161a9.082 9.082 0 0 1 .342-3.545l-1.531-.464Zm-.405 4.147c.069.964.34 1.902.795 2.755l1.412-.753a5.292 5.292 0 0 1-.611-2.117l-1.596.115Zm.795 2.755a6.893 6.893 0 0 0 1.845 2.195l.984-1.262a5.304 5.304 0 0 1-1.417-1.686l-1.412.753Zm1.864 2.21c5.513 4.04 7.58 12.553 4.622 19.817l1.482.604c3.188-7.83 1.04-17.17-5.158-21.712l-.946 1.29Zm4.622 19.818c-2.518 6.194-8.146 11.407-15.947 14.607l.607 1.481c8.099-3.324 14.106-8.803 16.822-15.486l-1.482-.602Zm-15.948 14.608c-5.876 2.412-12.897 3.821-22.132 4.425l.104 1.596c9.338-.61 16.545-2.04 22.636-4.541l-.608-1.48Zm-22.13 4.424a67.982 67.982 0 0 1-4.687.132l-.01 1.6c1.597.01 3.196-.034 4.797-.135l-.1-1.597Zm19.102-99.73a93.607 93.607 0 0 0-24.27 3.098l.408 1.547a92.008 92.008 0 0 1 23.856-3.045l.006-1.6Zm-24.268 3.098c-21.982 5.735-42.278 19.316-50.444 33.93l1.397.78c7.883-14.11 27.73-27.494 49.45-33.162l-.403-1.548Zm-50.444 33.93c-7.876 14.098-3.969 34.486 8.91 47.485l1.136-1.126c-12.475-12.593-16.114-32.217-8.65-45.58l-1.396-.78Zm8.91 47.485c11.267 11.377 28.757 17.428 46.763 16.294l-.1-1.597c-17.615 1.109-34.631-4.821-45.527-15.823l-1.136 1.126Zm46.763 16.294c9.281-.585 16.438-2 22.478-4.481l-.608-1.48c-5.824 2.392-12.793 3.786-21.97 4.364l.1 1.597Zm22.478-4.481c7.964-3.272 13.872-8.65 16.537-15.204l-1.482-.602c-2.466 6.065-7.995 11.175-15.663 14.326l.608 1.48ZM123.51 88.94c3.097-7.617 1.033-16.694-4.988-21.103l-.946 1.29c5.332 3.905 7.321 12.154 4.452 19.21l1.482.603Zm-4.972-21.091a5.778 5.778 0 0 1-1.561-1.84l-1.409.757a7.36 7.36 0 0 0 1.993 2.35l.977-1.267Zm-1.561-1.84a5.763 5.763 0 0 1-.672-2.317l-1.596.115a7.354 7.354 0 0 0 .859 2.959l1.409-.757Zm-.674-2.34a9.637 9.637 0 0 1 .366-3.755l-1.531-.465a11.224 11.224 0 0 0-.427 4.38l1.592-.16Zm.366-3.755a9.644 9.644 0 0 1 1.782-3.327l-1.235-1.017a11.242 11.242 0 0 0-2.078 3.88l1.531.464Zm1.766-3.307a15.11 15.11 0 0 1 5.067-3.768l-.666-1.455a16.721 16.721 0 0 0-5.603 4.166l1.202 1.057Zm5.067-3.768a15.116 15.116 0 0 1 6.164-1.37l-.013-1.6c-2.353.02-4.676.536-6.817 1.515l.666 1.455Zm6.152-1.37.268.003.011-1.6-.268-.002-.011 1.6Zm.268.003c5.105.034 9.836-2.128 13.563-5.27 3.724-3.138 6.503-7.3 7.685-11.371l-1.536-.447c-1.085 3.734-3.67 7.636-7.18 10.595-3.507 2.956-7.881 4.924-12.521 4.893l-.011 1.6Zm21.248-16.64c.914-3.138.897-6.117-.042-8.738-.941-2.624-2.786-4.832-5.427-6.453l-.837 1.363c2.363 1.45 3.952 3.382 4.758 5.63.807 2.252.848 4.88.012 7.75l1.536.447Zm-5.468-15.19c-12.575-7.733-27.046-11.722-42.166-11.824l-.01 1.6c14.842.1 29.025 4.015 41.337 11.586l.839-1.363Zm-47.833 44.07c-3.611-.025-6.403-2.28-6.66-5.06l-1.594.148c.356 3.835 4.07 6.483 8.243 6.511l.01-1.6Zm-6.661-5.06c-.283-3.004 2.461-5.964 6.462-6.34l-.15-1.593c-4.591.431-8.295 3.935-7.905 8.082l1.593-.15Zm6.472-6.341a7.849 7.849 0 0 1 5.131 1.24l.877-1.339a9.45 9.45 0 0 0-6.177-1.492l.169 1.59Zm5.141 1.246a5.16 5.16 0 0 1 1.614 1.628l1.358-.846a6.757 6.757 0 0 0-2.115-2.133l-.857 1.35Zm1.614 1.628a5.16 5.16 0 0 1 .749 2.167l1.591-.173a6.747 6.747 0 0 0-.982-2.84l-1.358.846Zm.748 2.156c.283 2.997-2.46 5.958-6.467 6.334l.15 1.593c4.595-.431 8.3-3.935 7.91-8.078l-1.593.15Zm-6.47 6.334a8.52 8.52 0 0 1-.844.036l-.01 1.6c.323.002.68-.012 1.008-.044l-.154-1.592ZM98.56 51.19a9.788 9.788 0 0 0-.992.044l.151 1.593c.276-.026.553-.039.83-.037l.011-1.6Zm-.99.044c-4.3.401-7.804 3.646-7.46 7.515l1.593-.142c-.24-2.714 2.288-5.432 6.015-5.78l-.149-1.593Zm-7.46 7.515c.343 3.88 4.42 6.404 8.71 6.009l-.146-1.593c-3.736.344-6.731-1.855-6.971-4.558l-1.594.142Zm8.713 6.009c4.302-.407 7.808-3.65 7.459-7.516l-1.594.144c.245 2.707-2.281 5.426-6.016 5.779l.15 1.593Zm7.457-7.534a6.278 6.278 0 0 0-.917-2.624l-1.356.85c.371.592.604 1.26.683 1.954l1.59-.18Zm-.917-2.624a6.267 6.267 0 0 0-1.962-1.97l-.855 1.353c.591.373 1.09.875 1.461 1.467l1.356-.85Zm-1.948-1.96a8.738 8.738 0 0 0-4.864-1.45l.008 1.6a7.137 7.137 0 0 1 3.973 1.184l.883-1.334Z" fill="#001550" mask="url(#a)"/><path d="M65.6 86.216c1.894-3.11 5.062-5.883 8.678-7.687 3.616-1.806 7.64-2.623 11.244-1.882h.001c5.358 1.088 8.706 4.08 9.525 7.39.812 3.278-.813 7.07-5.833 9.883a38.769 38.769 0 0 1-14.484 4.692c-1.807.209-3.749.218-5.493-.182-1.742-.4-3.259-1.2-4.27-2.59v-.001c-1.953-2.68-1.196-6.628.632-9.623ZM54.024 79.172c-1.693.192-3.503.204-5.135-.158-1.63-.361-3.057-1.09-4.035-2.362-1.002-1.316-1.269-2.947-1.025-4.601.244-1.657.997-3.309 1.992-4.616 1.9-2.486 4.802-4.601 8.003-5.897 3.201-1.297 6.664-1.76 9.687-.993 4.324 1.108 7.008 3.648 7.646 6.4.63 2.72-.699 5.837-4.806 8.212a32.034 32.034 0 0 1-12.327 4.015Z" fill="#10B981" stroke="#001550" stroke-width=".8"/><path opacity=".2" d="M54.024 79.172c-1.693.192-3.503.204-5.135-.158-1.63-.361-3.057-1.09-4.035-2.362-1.002-1.316-1.269-2.947-1.025-4.601.244-1.657.997-3.309 1.992-4.616 1.9-2.486 4.802-4.601 8.003-5.897 3.201-1.297 6.664-1.76 9.687-.993 4.324 1.108 7.008 3.648 7.646 6.4.63 2.72-.699 5.837-4.806 8.212a32.034 32.034 0 0 1-12.327 4.015Z" fill="#fff" stroke="#001550" stroke-width=".8"/><path d="M54.467 55.307h-.002c-3.193.354-6.672.048-8.573-2.273-1.047-1.285-1.293-2.895-.989-4.494.305-1.604 1.162-3.17 2.274-4.309 1.844-1.886 4.471-3.364 7.268-4.157 2.798-.793 5.73-.89 8.184-.064 3.287 1.106 5.312 3.196 5.773 5.402.453 2.173-.582 4.625-3.778 6.554a25.217 25.217 0 0 1-10.157 3.341Z" fill="#10B981" stroke="#001550" stroke-width=".8"/><path opacity=".4" d="M54.467 55.307h-.002c-3.193.354-6.672.048-8.573-2.273-1.047-1.285-1.293-2.895-.989-4.494.305-1.604 1.162-3.17 2.274-4.309 1.844-1.886 4.471-3.364 7.268-4.157 2.798-.793 5.73-.89 8.184-.064 3.287 1.106 5.312 3.196 5.773 5.402.453 2.173-.582 4.625-3.778 6.554a25.217 25.217 0 0 1-10.157 3.341Z" fill="#fff" stroke="#001550" stroke-width=".8"/><path d="M70.525 34.466a18.56 18.56 0 0 0 7.997-2.665c2.28-1.465 3.027-3.275 2.746-4.924-.287-1.679-1.661-3.327-3.908-4.387-1.904-.898-4.337-1.17-6.745-.878-2.408.291-4.748 1.141-6.466 2.442a7.176 7.176 0 0 0-2.574 3.986c-.36 1.549-.121 3.145.963 4.401l7.987 2.025Zm0 0h-.006m.006 0h-.006m0 0c-2.964.32-6.172.068-7.98-2.024l7.98 2.025Z" fill="#10B981" stroke="#001550" stroke-width=".8"/><path opacity=".6" d="M70.525 34.466a18.56 18.56 0 0 0 7.997-2.665c2.28-1.465 3.027-3.275 2.746-4.924-.287-1.679-1.661-3.327-3.908-4.387-1.904-.898-4.337-1.17-6.745-.878-2.408.291-4.748 1.141-6.466 2.442a7.176 7.176 0 0 0-2.574 3.986c-.36 1.549-.121 3.145.963 4.401l7.987 2.025Zm0 0h-.006m.006 0h-.006m0 0c-2.964.32-6.172.068-7.98-2.024l7.98 2.025Z" fill="#fff" stroke="#001550" stroke-width=".8"/><path d="m88.627 23.119-.001-.002c-1.13-1.215-1.375-2.822-.971-4.337.406-1.52 1.46-2.91 2.871-3.645 1.538-.797 3.586-1.053 5.617-.838 2.03.215 3.99.895 5.345 1.909 1.23.925 1.974 2.129 2.089 3.314.113 1.165-.373 2.385-1.753 3.392h-.001c-1.637 1.196-3.719 1.75-5.822 1.975-2.726.285-5.657.096-7.374-1.768Z" fill="#10B981" stroke="#001550" stroke-width=".8"/><path opacity=".8" d="m88.627 23.119-.001-.002c-1.13-1.215-1.375-2.822-.971-4.337.406-1.52 1.46-2.91 2.871-3.645 1.538-.797 3.586-1.053 5.617-.838 2.03.215 3.99.895 5.345 1.909 1.23.925 1.974 2.129 2.089 3.314.113 1.165-.373 2.385-1.753 3.392h-.001c-1.637 1.196-3.719 1.75-5.822 1.975-2.726.285-5.657.096-7.374-1.768Z" fill="#fff" stroke="#001550" stroke-width=".8"/><path d="M113.806 17.573c1.354-.369 3.199-.111 4.898.59 1.701.703 3.154 1.808 3.784 3.03.697 1.376.57 3.179-.471 4.215-.88.868-2.229 1.126-3.619 1.266-2.498.251-5.169.126-6.794-1.521-1.172-1.19-1.435-2.857-.987-4.358.449-1.503 1.598-2.792 3.189-3.223Z" fill="#fff" stroke="#001550" stroke-width=".8"/><path d="m107.255 35.873-16.908 4.73-.112 2.183 2.219 4.54.342 1.284 22.925-4.68-8.466-8.057Z" fill="#fff" stroke="#001550" stroke-width=".8" stroke-linecap="round" stroke-linejoin="round"/><path d="m107.255 35.873 6.177 8.551s1.127.785 2.165.329 1.173-1.372-1.773-5.099c-2.945-3.726-4.251-4.713-4.251-4.713s-1.844-1.413-2.318.932Z" fill="#fff" stroke="#001550" stroke-width=".8" stroke-linecap="round" stroke-linejoin="round"/><path d="m92.417 41.022.034.026.037.017.005.002a2.118 2.118 0 0 1 .183.11c.131.086.32.228.535.44.429.423.968 1.13 1.364 2.255l.004.012c.341.877.366 1.845.072 2.738a2.422 2.422 0 0 1-1.909 1.594 2.545 2.545 0 0 1-2.074-.903 5.309 5.309 0 0 1-1.089-2.284l-.002-.013-.004-.013a5.514 5.514 0 0 1-.143-2.29 2.61 2.61 0 0 1 1.122-1.773 1.659 1.659 0 0 1 1.865.082Z" fill="#001550" stroke="#001550" stroke-width=".8"/><path d="M91.129 44.372c.096.943-.26 1.753-.795 1.812-.536.058-1.05-.666-1.147-1.609-.097-.942.253-1.759.79-1.817.535-.058 1.05.65 1.151 1.614Z" fill="#fff" stroke="#001550" stroke-width=".8" stroke-linecap="round" stroke-linejoin="round"/><path d="M88.88 46.347c.538-.056.893-.867.795-1.811-.099-.945-.614-1.665-1.151-1.609-.537.056-.893.867-.794 1.812.098.944.613 1.664 1.15 1.608Z" fill="#fff" stroke="#001550" stroke-width=".8" stroke-linecap="round" stroke-linejoin="round"/><path d="M88.471 44.646c.028.269-.01.5-.075.651a.357.357 0 0 1-.095.147c-.02-.009-.067-.037-.133-.127a1.294 1.294 0 0 1-.215-.614 1.351 1.351 0 0 1 .077-.651.378.378 0 0 1 .094-.146.39.39 0 0 1 .13.127c.1.136.19.353.217.613Z" fill="#001550" stroke="#001550" stroke-width=".8"/><path d="m97.16 45.303 8.479-.766Z" fill="#fff"/><path d="m97.16 45.303 8.479-.766" stroke="#001550" stroke-width=".8" stroke-linecap="round" stroke-linejoin="round"/><path d="M115.242 43.144a.834.834 0 1 0 .272.856l-.806-.396c-.047.108-.094.215-.136.323" fill="#fff"/><path d="M115.242 43.144a.834.834 0 1 0 .272.856l-.806-.396c-.047.108-.094.215-.136.323" stroke="#001550" stroke-width=".8" stroke-linecap="round" stroke-linejoin="round"/><path d="m100.734 42.846.34.002a6.69 6.69 0 0 0 4.778-1.703" fill="#fff"/><path d="m100.734 42.846.34.002a6.69 6.69 0 0 0 4.778-1.703" stroke="#001550" stroke-width=".8" stroke-linecap="round" stroke-linejoin="round"/><path d="M98.15 42.484c.38.085.76.16 1.141.218Z" fill="#fff"/><path d="M98.15 42.484c.38.085.76.16 1.141.218" stroke="#001550" stroke-width=".8" stroke-linecap="round" stroke-linejoin="round"/><path d="m95.954 41.898 1.125.3Z" fill="#fff"/><path d="m95.954 41.898 1.125.3" stroke="#001550" stroke-width=".8" stroke-linecap="round" stroke-linejoin="round"/><path d="M107.473 37.079a8.75 8.75 0 0 1 3.375 5.608Z" fill="#fff"/><path d="M107.473 37.079a8.75 8.75 0 0 1 3.375 5.608" stroke="#001550" stroke-width=".8" stroke-linecap="round" stroke-linejoin="round"/><path d="M87.68 44.698c.094.905.06 1.82-.1 2.718-.06.339-.155.668-.3.93-.141.26-.317.43-.536.506-.288.1-.602.01-.898-.264a1.952 1.952 0 0 1-.575-1.095 3.091 3.091 0 0 1 1.493-2.984l-.503 1.038 1.15-.688.27-.161Z" fill="#001550" stroke="#001550" stroke-width=".8"/><path d="M97.104 38.816s1.895 1.47 2.505 4.877l.611 3.407 5.82-1.191s.162-6.481-2.721-8.02c-2.883-1.537-.964-.644-.964-.644l-5.251 1.571Z" fill="#FFBD14" stroke="#001550" stroke-width=".8" stroke-miterlimit="10"/><path d="M133.502 26.102 123.143 36.13l.772 1.621 3.376 2.412.752.793 14.724-12.345-9.265-2.508Z" fill="#fff" stroke="#001550" stroke-width=".8" stroke-linecap="round" stroke-linejoin="round"/><path d="m133.504 26.102 7.811 3.76a2.06 2.06 0 0 0 1.687-.607c.571-.738.314-1.45-3.27-2.993-3.583-1.542-4.915-1.742-4.915-1.742s-1.892-.296-1.313 1.582Z" fill="#fff" stroke="#001550" stroke-width=".8" stroke-linecap="round" stroke-linejoin="round"/><path d="m124.804 35.686.044.007.043-.003h.031c.028 0 .073 0 .134.006.122.01.307.037.539.103.461.133 1.118.427 1.844 1.08l.008.007c.576.49.965 1.164 1.102 1.908a1.928 1.928 0 0 1-.726 1.83 2.03 2.03 0 0 1-1.788.141 4.303 4.303 0 0 1-1.653-1.207l-.009-.01-.01-.01a4.402 4.402 0 0 1-.98-1.568 2.07 2.07 0 0 1 .116-1.65 1.284 1.284 0 0 1 1.305-.634Z" fill="#001550" stroke="#001550" stroke-width=".8"/><path d="M125.184 38.541c.444.647.506 1.373.138 1.623-.367.25-1.028-.07-1.462-.715-.433-.647-.505-1.368-.133-1.617.372-.25 1.019.068 1.457.71Z" fill="#fff" stroke="#001550" stroke-width=".8" stroke-linecap="round" stroke-linejoin="round"/><path d="M124.205 39.214c.439.641.506 1.367.139 1.617s-1.029-.068-1.462-.71c-.434-.64-.506-1.372-.139-1.622s1.019.069 1.462.715Z" fill="#fff" stroke="#001550" stroke-width=".8" stroke-linecap="round" stroke-linejoin="round"/><path d="M123.315 39.824c.117.171.172.34.182.46a.416.416 0 0 1 0 .071.423.423 0 0 1-.066-.026 1.003 1.003 0 0 1-.361-.336 1.027 1.027 0 0 1-.186-.464.544.544 0 0 1-.001-.069.416.416 0 0 1 .065.026c.108.052.246.165.367.338Zm.173.57.001-.002-.001.003Zm.046-.033h.003-.003Zm-.642-.942-.001.003.001-.003Zm-.047.035h-.003.003Z" fill="#001550" stroke="#001550" stroke-width=".8"/><path d="M142.121 28.23a.685.685 0 1 0 .511.518l-.736.026c0 .098-.001.19.024.288" fill="#fff"/><path d="M142.121 28.23a.685.685 0 1 0 .511.518l-.736.026c0 .098-.001.19.024.288" stroke="#001550" stroke-width=".8" stroke-linecap="round" stroke-linejoin="round"/><path d="M134.142 26.89a7.209 7.209 0 0 1 4.615 2.728Z" fill="#fff"/><path d="M134.142 26.89a7.209 7.209 0 0 1 4.615 2.728" stroke="#001550" stroke-width=".8" stroke-linecap="round" stroke-linejoin="round"/><path d="M132.743 31.055c.516-.187 1.032-.348 1.481-.505Z" fill="#fff"/><path d="M132.743 31.055c.516-.187 1.032-.348 1.481-.505" stroke="#001550" stroke-width=".8" stroke-linecap="round" stroke-linejoin="round"/><path d="M125.219 34.124a71.043 71.043 0 0 1 6.056-2.533Z" fill="#fff"/><path d="M125.219 34.124a71.043 71.043 0 0 1 6.056-2.533" stroke="#001550" stroke-width=".8" stroke-linecap="round" stroke-linejoin="round"/><path d="m132.687 36.569 4.409-4.954Z" fill="#fff"/><path d="m132.687 36.569 4.409-4.954" stroke="#001550" stroke-width=".8" stroke-linecap="round" stroke-linejoin="round"/><path d="M127.306 32.105c.518-.512 4.877-.302 5.398 1.972l.499 2.273 4.415-3.44s1.403-4.217-6.249-4.763l-4.063 3.958Z" fill="#001550" stroke="#001550" stroke-width=".8" stroke-miterlimit="10"/><path d="M113.276 62.489a11.03 11.03 0 0 0 .137 1.787c.495 2.984 2.181 5.616 3.843 8.15 1.661 2.534 3.368 5.14 3.92 8.12.551 2.979-.358 6.437-2.947 8" stroke="#001550" stroke-width=".8" stroke-linecap="round" stroke-linejoin="round"/></svg>