<svg width="170" height="136" viewBox="0 0 170 136" fill="none" xmlns="http://www.w3.org/2000/svg"><path fill="#C4C4C4" fill-opacity=".16" d="M0 7h170v120H0z"/><path opacity=".7" d="M114.834 16.837a100.463 100.463 0 0 0-5.975-2.195c-14.035-4.62-30.815-1.992-43.115 5.656-6.506 4.047-11.036 9.463-14.413 16.042-3.43 6.69-5.818 13.906-10.73 19.83-4.805 5.8-11.538 10.388-14.247 17.53-5.889 15.6 4.185 36.903 23.054 38.38 13.313 1.044 18.244 8.167 32.193 11.762 13.949 3.595 27.706 3.169 43.641-7.567 6.435-4.332 12.073-10.041 14.526-17.257 2.211-6.493.169-13.276.479-19.906.393-8.182 6.451-14.313 9.694-21.54 4.813-10.718-1.912-20.143-10.714-26.8a108.1 108.1 0 0 0-24.393-13.935Z" fill="#E7F1EA"/><path d="M120.064 101.829c18.747-18.746 18.747-49.14 0-67.886-18.746-18.746-49.14-18.746-67.886 0-18.746 18.746-18.746 49.14 0 67.886 18.747 18.746 49.14 18.746 67.886 0Z" fill="#fff" stroke="#001550" stroke-miterlimit="10"/><path d="M86.123 110.799a48.006 48.006 0 0 1-47.938-45.458c-.043.843-.069 1.693-.069 2.544a48.006 48.006 0 0 0 96.009 0c0-.855-.022-1.704-.065-2.544a48.007 48.007 0 0 1-47.938 45.458Z" fill="#001550" stroke="#001550" stroke-miterlimit="10"/><path d="m83.488 46.35 1.367 1.82 3.078 1.142.684 2.392-1.938.796v.458l3.417 1.366 1.596-.341.796-1.254-.226-2.167-2.053-.796-1.25-2.05-4.558-2.053-.913.687Z" fill="#10B981" stroke="#001550" stroke-miterlimit="10"/><path d="m113.108 98.314-3.634-1.48-4.445-1.595h-3.53l-3.303-.683-3.635.796-2.054.116h-1.25l-2.395 1.367-2.28.908-3.1-1.948.796-3.19-1.933-.8h-2.28l-.34-1.026.225-2.05-.796-1.137-1.596.225-.454 1.142-1.938.112-1.708-2.05-.683-2.733 1.708-3.191 3.304.229.912.796h1.367l1.708-1.025 1.48.454 2.046 3.533.796-.113-.23-2.62-.683-1.367.23-2.18 4.216-1.818.567-4.213 1.817-1.483 1.483-2.62 1.138-.225 2.62-1.712.113-.909-1.818.113-.341-.913h-1.254l-1.937.458.912-1.483 3.998-1.137.912-1.029 1.592 2.508 1.029 1.025 1.592-.454-.68-1.49-2.391-1.709-2.734-3.075-2.85-1.937-2.733-.454-1.366-1.356-1.817-.454-.23.454-.225 3.304.455 1.141-1.025 3.635-2.28-1.817.342-1.593-2.391-1.14-1.025-1.255.563-2.831 3.304-2.395.225-2.734-1.254.113-.796-1.025-.341-1.708-.796-.113-.458 1.818-1.254.229-.567-3.999-.912-.57-1.596-.684-1.817.913 2.275 2.18.458 1.938-4.104-3.09-2.846-3.075-.229-3.078-2.962-.909-2.279 1.48c-.552.335-1.122.64-1.708.912-.57.229-2.733.454-2.733.454l-.458 1.937-2.62.113.228 1.254 4.217.683 2.162 2.396v3.998l-1.25 3.529.225 3.762-3.195 5.572-.683 8.316 1.047 4.787 1.479 3.634 1.708.226-.567-1.818-.912-1.366-.57-2.508 1.024-.23 1.596 4.104 1.138 3.635v2.962l2.18 2.62 3.828 2.865 5.924 1.595 1.817 1.709 1.367 1.817 2.054 1.254 2.504.683 2.508-.116s-.113 1.141-.113 1.712c0 .57-1.596 2.504-1.596 2.504l-1.253 2.279.912 2.508 2.504 1.025 3.533 3.635 1.596.683v1.708l.2.796a47.792 47.792 0 0 0 23.894-11.267l.058-.825 3.078-5.583-1.483-1.025-6.248 1.76Z" fill="#FFC966" stroke="#001550" stroke-miterlimit="10"/><path d="m124.954 53.299-1.254-2.18-1.595-2.509-.455-3.416 2.05.341.113-1.137-1.479-.117 1.253-.566 1.367-.8v-1.138l-1.367-1.817-.294-2.45A48.022 48.022 0 0 0 66.956 23.86l2.628 1.86-1.596 2.05-2.18.455-.226 3.078-.912.342-1.123 1.247.113 2.05 1.937.228-.8 1.934h1.938l3.296-4.212.342-1.818 3.19-.229.797-1.366 3.304-.342.341-1.937 2.396-.113s1.708-.912 2.05-.912c.658.143 1.306.333 1.937.57l1.708 1.367h2.392l2.053-1.254 2.617.229c.376.249.806.405 1.254.454.57 0 2.28-.796 2.28-.796l3.303 2.05 1.367 1.025v1.712l1.712.226.567-1.025 1.483.683-.117.912-3.416.913 1.937 2.504 4.1 2.279 1.712 2.279 2.504.229.571-1.142.912-.225-2.951-2.275-1.818-.23 1.483-.454-1.37-1.937 1.937-.116 2.508 1.37.571 2.733 1.254 1.48 1.025 3.303 2.504 1.818v3.758l2.621 1.712-.113 1.25-.342 1.483.683 2.05.229 1.025 1.934.342.912-1.938.56-1.239Z" fill="#10B981" stroke="#001550" stroke-miterlimit="10"/><path d="M126.435 41.82v.655l-.567 1.817.342 1.596 1.25.45v2.181l-1.37-.57-.342 6.153-1.366 2.508.912 3.188 1.479 1.366v6.147l1.483 4.786 1.596 3.635 2.621.683.912-2.279.363-.29c.243-1.98.364-3.974.364-5.969a47.753 47.753 0 0 0-7.677-26.056ZM100.119 41.109l-7.52-3.308-3.304.116-.8 2.163-1.366-1.48-2.505.571-.228 3.758 2.05 1.483 1.482-2.166 1.709 1.709 3.529 3.078.687 3.304 2.962 3.758 4.783-.796-.112-1.712-1.025-1.933-.229-4.558 1.137-1.938-1.25-2.05ZM106.269 43.613l-1.709-.455-1.479 1.254.796 3.304h1.479l.913-4.103ZM116.866 45.78l-3.871-2.055-.799-1.366-.913.341.8 2.28.683 2.962 1.708.683.342-.454-1.025-1.709 2.962 1.138.113-1.82ZM83.594 86.909l-.454.454 3.416 1.025 1.37 1.596 2.163.229.8-1.254-2.62-.458-4.675-1.592ZM93.734 89.071l-2.391.683.341.913h2.963l.57-.913-1.025.117-.458-.8Z" fill="#10B981" stroke="#001550" stroke-miterlimit="10"/><path d="M36.716 22.336v-9.553h1.734v3.997h1.948v-3.997h1.743v9.553h-1.743v-4.328H38.45v4.328h-1.734ZM45.567 22.444a2.4 2.4 0 0 1-1.252-.29 1.707 1.707 0 0 1-.712-.848 3.537 3.537 0 0 1-.231-1.35v-2.053a3.561 3.561 0 0 1 .231-1.37c.138-.352.391-.647.718-.838.38-.2.807-.296 1.236-.281.444-.024.885.083 1.268.309.31.215.54.529.65.89.14.461.205.941.194 1.422v.968h-2.715v1.345c-.004.183.018.365.065.541.03.125.103.235.208.31.101.066.221.1.343.095a.538.538 0 0 0 .34-.102.541.541 0 0 0 .188-.31c.044-.158.063-.323.06-.488v-.568h1.498v.457a2.238 2.238 0 0 1-.519 1.592 2.06 2.06 0 0 1-1.57.57Zm-.619-4.235h1.203v-.65a2.223 2.223 0 0 0-.059-.572.57.57 0 0 0-.188-.309.597.597 0 0 0-.365-.099.522.522 0 0 0-.343.105.637.637 0 0 0-.189.356 3.347 3.347 0 0 0-.059.705v.464ZM48.864 22.336v-9.553h1.592v9.553h-1.592ZM51.839 22.336v-9.553h1.601v9.553H51.84ZM56.766 22.444a2.445 2.445 0 0 1-1.237-.278 1.738 1.738 0 0 1-.723-.807 3.092 3.092 0 0 1-.241-1.286v-2.288c-.013-.44.07-.88.24-1.286.148-.34.402-.624.724-.807.38-.2.807-.296 1.237-.278.43-.016.855.08 1.236.278.326.182.584.465.733.807.171.407.254.845.241 1.286v2.288c.013.44-.07.88-.24 1.286-.152.34-.41.623-.733.807a2.473 2.473 0 0 1-1.237.278Zm0-1.11a.495.495 0 0 0 .402-.151.789.789 0 0 0 .164-.42c.026-.194.038-.39.037-.585v-2.501a4.051 4.051 0 0 0-.037-.575.81.81 0 0 0-.164-.42.59.59 0 0 0-.804 0 .87.87 0 0 0-.17.42c-.029.19-.042.383-.04.575v2.501c.008.193.03.385.068.575a.843.843 0 0 0 .17.42.501.501 0 0 0 .386.161h-.012ZM24.752 44.008v-9.343h1.305V38.7h2.396v-4.035h1.301v9.334h-1.302v-4.357h-2.395v4.366h-1.305ZM32.944 44.1a1.991 1.991 0 0 1-1.165-.309 1.583 1.583 0 0 1-.618-.853 4.187 4.187 0 0 1-.18-1.302v-1.935c-.009-.44.052-.88.18-1.301.102-.347.32-.648.618-.854a1.991 1.991 0 0 1 1.165-.309c.41-.02.815.088 1.16.31.288.21.498.51.596.853.128.421.189.86.18 1.301v1.935c.009.44-.052.88-.18 1.302a1.605 1.605 0 0 1-.596.853c-.345.222-.75.33-1.16.31Zm0-.909a.571.571 0 0 0 .501-.207c.105-.165.165-.355.173-.55.019-.226.028-.46.028-.708v-2.084c0-.253 0-.494-.028-.717a1.134 1.134 0 0 0-.173-.547.559.559 0 0 0-.5-.214.576.576 0 0 0-.508.214 1.103 1.103 0 0 0-.179.547 8.672 8.672 0 0 0-.028.717v2.084c0 .247 0 .482.028.708.009.196.071.387.18.55a.586.586 0 0 0 .506.207ZM36.128 44.008v-9.343h1.237v9.334l-1.237.009ZM39.843 44.1a1.112 1.112 0 0 1-.693-.225 1.57 1.57 0 0 1-.473-.575 1.677 1.677 0 0 1-.173-.742c-.01-.362.06-.72.207-1.051.136-.28.331-.525.572-.72.258-.205.54-.377.84-.51.31-.15.656-.291 1.009-.428v-.472a3.97 3.97 0 0 0-.047-.668.656.656 0 0 0-.188-.4.618.618 0 0 0-.433-.132.658.658 0 0 0-.408.114.643.643 0 0 0-.226.331 1.623 1.623 0 0 0-.068.501v.334l-1.221-.047c0-.738.182-1.28.507-1.632a1.94 1.94 0 0 1 1.496-.522c.662 0 1.13.18 1.407.54.306.464.452 1.014.414 1.568v3.03c0 .207 0 .408.019.6.018.191.028.37.046.535.019.163.037.309.053.466H41.35c-.021-.12-.052-.278-.086-.466a6.766 6.766 0 0 1-.075-.51c-.086.275-.24.526-.445.729a1.185 1.185 0 0 1-.902.352Zm.482-1.06a.637.637 0 0 0 .346-.102c.105-.068.202-.147.288-.238.066-.063.125-.135.173-.213v-1.89c-.192.109-.371.217-.541.31-.158.1-.306.213-.442.34a1.354 1.354 0 0 0-.31.405 1.323 1.323 0 0 0 .04 1.147.489.489 0 0 0 .458.241h-.012ZM45.417 54.612V47.3h.696v3.24h2.303V47.3h.686v7.312h-.686V51.05h-2.303v3.559l-.696.003ZM51.144 54.692a.952.952 0 0 1-.544-.157 1.104 1.104 0 0 1-.368-.42 1.255 1.255 0 0 1-.136-.588c-.005-.23.035-.46.118-.674.082-.194.206-.366.364-.504.2-.168.418-.313.65-.433.269-.14.596-.31.98-.473v-.371a3.681 3.681 0 0 0-.059-.751.683.683 0 0 0-.198-.396.6.6 0 0 0-.392-.117.802.802 0 0 0-.371.083.578.578 0 0 0-.26.275c-.076.169-.111.353-.102.538v.18h-.65c-.026-.42.094-.837.34-1.178a1.346 1.346 0 0 1 1.08-.384 1.1 1.1 0 0 1 .983.42c.22.398.32.852.287 1.305v2.882c0 .139 0 .278.019.401.018.124.015.223.021.291h-.587c-.019-.114-.037-.241-.059-.383a4.346 4.346 0 0 1-.04-.34c-.076.217-.208.41-.383.56-.194.162-.44.245-.693.234Zm.226-.55a.658.658 0 0 0 .355-.096c.108-.064.205-.145.288-.238.082-.085.15-.182.204-.288v-1.635c-.26.14-.48.26-.662.365-.16.087-.31.19-.448.309a1.002 1.002 0 0 0-.253.346 1.208 1.208 0 0 0-.08.458.816.816 0 0 0 .175.59.57.57 0 0 0 .42.189ZM53.922 54.612V47.3h.658v7.312h-.658ZM56.934 54.692a1.375 1.375 0 0 1-.838-.229 1.199 1.199 0 0 1-.43-.667c-.088-.35-.13-.71-.123-1.07v-1.447a4.08 4.08 0 0 1 .123-1.07c.064-.265.215-.5.43-.667a1.66 1.66 0 0 1 1.682 0c.21.17.359.404.423.667.09.35.132.71.124 1.07v1.447c.008.36-.034.72-.124 1.07a1.237 1.237 0 0 1-.423.667 1.375 1.375 0 0 1-.844.23Zm0-.495a.619.619 0 0 0 .5-.182.903.903 0 0 0 .195-.504c.027-.25.04-.5.038-.751v-1.515a6.55 6.55 0 0 0-.038-.745.928.928 0 0 0-.194-.507.62.62 0 0 0-.501-.18.618.618 0 0 0-.495.186.958.958 0 0 0-.195.507c-.029.247-.042.496-.04.745v1.515c-.002.251.011.502.04.751a.927.927 0 0 0 .195.504.619.619 0 0 0 .495.176ZM112.491 26.26v-7.312h3.738v7.312h-.686v-6.801h-2.365v6.801h-.687ZM117.369 27.976v-6.934h.659v.432a1.96 1.96 0 0 1 .405-.352c.178-.112.386-.168.596-.16a.973.973 0 0 1 .619.175c.158.123.281.287.355.473.09.213.148.438.173.668.032.255.047.51.047.767v1.094c.004.39-.034.78-.115 1.163a1.542 1.542 0 0 1-.383.77 1.03 1.03 0 0 1-.758.268.928.928 0 0 1-.547-.16 2.191 2.191 0 0 1-.383-.334v2.13h-.668Zm1.481-2.149a.54.54 0 0 0 .451-.195c.117-.168.187-.364.201-.568.037-.3.053-.604.05-.906v-1.113a6.025 6.025 0 0 0-.05-.86 1.008 1.008 0 0 0-.201-.528.567.567 0 0 0-.46-.183.855.855 0 0 0-.467.136c-.125.079-.241.17-.346.272v3.556c.103.109.223.2.355.272a.962.962 0 0 0 .467.117ZM121.128 26.26v-5.218h.56v4.019l1.743-4.02h.532v5.22h-.56v-4.02l-1.722 4.02h-.553ZM124.976 26.26v-5.219h1.264c.277-.014.552.05.795.183.181.108.325.27.411.464a1.626 1.626 0 0 1 0 1.283.824.824 0 0 1-.532.454.891.891 0 0 1 .473.284c.113.14.195.3.241.474.048.185.071.377.071.568.006.267-.034.532-.117.786a.996.996 0 0 1-.415.535 1.63 1.63 0 0 1-.859.188h-1.332Zm.649-3.014h.674a.613.613 0 0 0 .494-.226c.14-.19.208-.425.192-.662a.72.72 0 0 0-.804-.81h-.544l-.012 1.698Zm0 2.507h.569a.949.949 0 0 0 .494-.111.648.648 0 0 0 .269-.35 1.6 1.6 0 0 0 .087-.565 1.438 1.438 0 0 0-.105-.619.576.576 0 0 0-.285-.293.966.966 0 0 0-.414-.084h-.618l.003 2.022ZM129.806 26.34a1.481 1.481 0 0 1-.798-.194 1.13 1.13 0 0 1-.46-.643 3.973 3.973 0 0 1-.149-1.203v-1.317c-.015-.41.037-.821.155-1.215.076-.255.242-.475.467-.618.24-.13.511-.194.785-.186.302-.022.602.061.85.235.21.184.352.434.402.708.082.4.12.807.111 1.215v.47h-2.111v.91c-.008.268.018.537.077.8a.745.745 0 0 0 .244.42.695.695 0 0 0 .427.127.865.865 0 0 0 .362-.077.548.548 0 0 0 .256-.31c.073-.197.105-.407.096-.618v-.358h.64v.29c.017.403-.091.802-.309 1.141a1.192 1.192 0 0 1-1.045.424Zm-.748-3.131h1.462v-.433a5.078 5.078 0 0 0-.043-.708.831.831 0 0 0-.195-.451.622.622 0 0 0-.476-.161.749.749 0 0 0-.436.117.701.701 0 0 0-.241.42 4.025 4.025 0 0 0-.071.863v.353ZM132.703 26.26V21.55h-1.129v-.507h2.897v.507h-1.11v4.711h-.658ZM134.497 45.365c-.236.01-.47-.048-.674-.167a1.07 1.07 0 0 1-.402-.473 2.107 2.107 0 0 1-.164-.708l.411-.124c.016.188.052.373.108.553a.832.832 0 0 0 .254.396.694.694 0 0 0 1.171-.575c.004-.202-.053-.4-.163-.569a3.018 3.018 0 0 0-.446-.507l-.878-.84a1.581 1.581 0 0 1-.343-.47 1.25 1.25 0 0 1-.111-.53 1.023 1.023 0 0 1 .309-.794c.228-.19.519-.29.816-.275.162-.002.322.02.476.068a.873.873 0 0 1 .362.217c.106.11.186.244.235.39.065.188.105.384.118.583l-.399.105a2.141 2.141 0 0 0-.102-.537.667.667 0 0 0-.238-.34.897.897 0 0 0-.956.043.626.626 0 0 0-.194.498.879.879 0 0 0 .074.367c.069.135.162.255.275.356l.878.829c.194.184.365.392.51.618.143.227.217.492.213.76.006.216-.044.428-.145.619a.93.93 0 0 1-.402.377 1.34 1.34 0 0 1-.593.13ZM136.778 45.359a.648.648 0 0 1-.368-.105.76.76 0 0 1-.251-.288.837.837 0 0 1-.092-.399 1.189 1.189 0 0 1 .08-.46.963.963 0 0 1 .247-.34c.136-.115.284-.214.443-.294.183-.097.406-.205.667-.325v-.25a2.743 2.743 0 0 0-.037-.504.455.455 0 0 0-.136-.266.401.401 0 0 0-.266-.08.556.556 0 0 0-.253.055.408.408 0 0 0-.176.186.79.79 0 0 0-.068.368v.12h-.443a1.243 1.243 0 0 1 .229-.8.933.933 0 0 1 .736-.26.752.752 0 0 1 .668.284c.152.27.221.579.198.888V45.123c0 .086 0 .151.015.198h-.399c0-.08-.028-.167-.04-.263s-.025-.173-.028-.229a.883.883 0 0 1-.263.38.678.678 0 0 1-.463.149Zm.148-.38a.452.452 0 0 0 .241-.066.742.742 0 0 0 .198-.16.948.948 0 0 0 .139-.198V43.45c-.176.093-.327.176-.451.248-.111.06-.214.13-.309.213a.644.644 0 0 0-.17.235.797.797 0 0 0-.056.309.56.56 0 0 0 .121.405.391.391 0 0 0 .287.117ZM138.675 45.306v-4.974h.448v4.974h-.448ZM140.385 45.306l-.751-3.549h.454l.578 3.033.569-3.033h.436l-.742 3.55h-.544ZM142.992 45.358a1.035 1.035 0 0 1-.544-.13.795.795 0 0 1-.309-.438 2.679 2.679 0 0 1-.102-.816v-.897a2.533 2.533 0 0 1 .105-.825.742.742 0 0 1 .309-.424c.164-.09.349-.134.535-.127a.927.927 0 0 1 .578.158.856.856 0 0 1 .272.482c.058.271.084.548.078.826v.309h-1.438v.618c-.004.183.013.365.053.544.02.111.079.212.166.285a.46.46 0 0 0 .291.086.523.523 0 0 0 .244-.052.372.372 0 0 0 .177-.201c.049-.137.071-.282.064-.427v-.247h.436v.197c.014.274-.058.545-.204.776a.811.811 0 0 1-.711.303Zm-.51-2.13h.996v-.293a3.113 3.113 0 0 0-.031-.483.563.563 0 0 0-.133-.309.426.426 0 0 0-.309-.108.507.507 0 0 0-.31.08.464.464 0 0 0-.163.285c-.039.193-.055.39-.05.587v.241ZM69.228 9.691c.099-.018.18-.049.18-.123a.232.232 0 0 0-.056-.124c-.056-.043-.08-.071-.08-.096 0-.024.024-.03.08-.03.185 0 .405.101.405.194s-.075.13-.087.204c.714.164 1.026.619 1.026 1.054 0 .554-.491 1.095-1.289 1.095-.847 0-1.344-.517-1.344-1.095 0-.479.367-.955 1.165-1.079Zm-.78 1.08a.85.85 0 0 0 .928.831.838.838 0 1 0 0-1.666.856.856 0 0 0-.927.834Zm1.265 2.12c0-.117-.145-.173-.46-.266-.068-.018-.115-.04-.115-.07 0-.032.053-.063.195-.087.218-.001.436.013.652.043.109.025.133.062.133.114 0 .053 0 .093-.018.161v.847c0 .142.086.198.309.21h1.11c.46-.037.241-.179.788-.179.201 0 .46.025.46.21 0 .074-.061.133-.166.133h-2.217c-.41 0-.64-.102-.664-.41l-.007-.706Zm2.078-3.635c0-.068-.16-.18-.529-.337-.093-.031-.142-.068-.142-.093 0-.025.074-.062.223-.068.024 0 .865.105.865.309 0 .043-.025.093-.025.155v1.929h.276c.284-.056.154-.173.618-.173.124 0 .35 0 .35.167a.161.161 0 0 1-.177.151l-1.082.025c0 1.113-.043 1.388-.105 1.56-.056.118-.124.208-.176.208-.053 0-.093-.071-.1-.275l.004-3.558ZM74.647 9.855c0-.114-.254-.195-.486-.263-.062-.018-.13-.043-.13-.08 0-.037.05-.062.192-.1.73.038.81.112.81.211v1.524c0 .09.025.14.198.14a5.566 5.566 0 0 0 1.855-.619.36.36 0 0 1 .123-.037h.019s-.031.056-.105.114a6.65 6.65 0 0 1-2.164.89c-.177 0-.257-.308-.282-.441l-.03-1.339Zm2.566 2.353a.112.112 0 0 0 .098-.102.157.157 0 0 0-.061-.118c-.044-.037-.062-.068-.062-.086 0-.019.018-.031.055-.031.112 0 .375.099.375.185 0 .087-.044.096-.056.176.683.112.995.541.995.977 0 .517-.442 1.04-1.209 1.04-.766 0-1.236-.523-1.236-1.04 0-.448.33-.896 1.035-.983l.066-.018Zm-.755.989a.821.821 0 0 0 .903.804.8.8 0 0 0 0-1.602.817.817 0 0 0-.903.798Zm1.75-3.973c0-.062-.257-.216-.547-.343-.062-.018-.17-.056-.17-.093s.151-.08.188-.08c.13 0 .953.124.953.31 0 .055-.038.11-.044.19v1.701c0 1.033-.08 1.215-.2 1.388-.026.037-.05.05-.069.05-.018 0-.099-.142-.099-.38v-.727c-.281 0-.56.03-.76.043-.111.025-.124.075-.204.075a1.236 1.236 0 0 1-.541-.245c0-.024.037-.03.105-.03h.417c.29 0 .59-.02.983-.044V9.976c-.368 0-.64.024-.785.037-.145.012-.154.08-.235.08-.08 0-.498-.155-.498-.253 0-.019.025-.028.08-.028h.492c.31 0 .547 0 .946-.028l-.012-.56ZM82.381 10.365c.504-.03.229-.164.89-.188.285 0 .4.099.4.176 0 0 0 .136-.245.136-.38.025-1.53.056-2.272.087-.198.043-.248.117-.362.117-.114 0-.652-.229-.652-.31 0-.018.024-.03.086-.03a.533.533 0 0 1 .093 0c.308.035.618.051.927.05.17-.007.959-.038 1.135-.038Zm-.674.764c.084-.019.195-.037.195-.142a.118.118 0 0 0-.05-.093.185.185 0 0 1-.043-.087c0-.024.025-.037.068-.037.148 0 .334.118.334.198 0 .08-.062.105-.087.161.718.102 1.055.532 1.055.97 0 .49-.436.975-1.237.975-.8 0-1.237-.514-1.237-.987s.325-.856 1.002-.958Zm-.018-1.37a1.237 1.237 0 0 1-.634-.398c0-.019.018-.031.062-.031a.596.596 0 0 1 .123.018c.42.07.846.098 1.27.084.15 0 .239.074.239.148s-.114.167-.393.173l-.667.006Zm-.603 2.304a.875.875 0 1 0 .865-.752.773.773 0 0 0-.865.752Zm2.98-2.863c0-.105-.34-.254-.597-.368-.068-.025-.111-.056-.111-.08 0-.025.074-.068.257-.075.24.04.476.095.708.167.13.05.16.09.16.152s-.018.105-.018.198v2.235h.309c.287-.043.192-.16.584-.16.115 0 .374 0 .374.19 0 .087-.074.162-.21.162h-1.06v1.78c.009.31-.044.62-.155.91-.05.073-.099.11-.142.11-.043 0-.09-.08-.09-.284l-.01-4.937ZM87.99 10.208c0-.068-.146-.18-.362-.328-.118-.059-.149-.133.093-.133.105 0 .73.22.73.38a9.407 9.407 0 0 1-.505 1.033c.104.141.215.277.334.405.213.257.417.176.513.785v.05c0 .117-.062.194-.136.194a.2.2 0 0 1-.16-.12c-.143-.241-.35-.702-.662-1.187-.594.81-1.314 1.428-1.503 1.428 0 0-.024 0-.024-.018 0-.019.043-.075.123-.14a5.66 5.66 0 0 0 1.546-2.29l.012-.06Zm1.718-.504c0-.148-.238-.272-.476-.387-.074-.03-.148-.074-.148-.11 0-.038.05-.056.2-.063.218.03.433.08.64.149.137.05.168.108.168.17 0 .062-.019.099-.019.154v3.318c0 .803-.167 1.02-.247 1.02-.08 0-.105-.149-.105-.448V11.23l-.57.025c-.178.03-.21.093-.284.093-.074 0-.46-.158-.46-.238 0-.019.037-.038.105-.038h.31c.308 0 .617-.018.905-.03l-.019-1.34Zm.99-.442c0-.105-.232-.26-.48-.393-.09-.037-.139-.074-.139-.105 0-.03.062-.056.201-.062.232.05.46.114.683.192.106.046.127.09.127.14 0 .049-.021.092-.021.16v4.328c-.025.572-.136.875-.254.909-.055 0-.111-.059-.117-.374V9.262ZM97.607 13.547a25.465 25.465 0 0 0-1.45-.038c-1.026 0-2.12.044-2.702.1-.136.049-.173.11-.278.11a1.963 1.963 0 0 1-.804-.361c0-.019.025-.03.08-.03a.5.5 0 0 1 .087 0c.54.063 1.083.086 1.626.067-.018-.123-.03-.442-.062-.646-.024-.087-.111-.124-.41-.232-.063 0-.106-.037-.106-.062 0-.024.056-.055.192-.074.618.043.717.105.717.198v.108c0 .043 0 .578.019.702.21 0 .884 0 1.301-.037a8.9 8.9 0 0 0 .056-.798c0-.136-.14-.191-.288-.266-.05 0-.086-.037-.086-.055 0-.019.05-.05.185-.068.541.092.656.148.656.222a.847.847 0 0 1-.069.18c-.027.182-.09.519-.145.766.192 0 .383-.014.572-.043.207 0 .17-.117.473-.117.164 0 .674 0 .674.247 0 .068-.055.12-.18.12l-.058.007Zm-2.764-4.078a.173.173 0 0 0 .17-.152.167.167 0 0 0-.043-.105c-.056-.05-.084-.086-.084-.111 0-.025.022-.037.078-.037.21 0 .386.123.386.198 0 .074-.09.12-.096.207.872.13 1.277.683 1.277 1.237 0 .618-.522 1.236-1.444 1.236-.92 0-1.437-.634-1.437-1.258 0-.55.374-1.085 1.193-1.215ZM94 10.68a1.091 1.091 0 1 0 1.088-.971.992.992 0 0 0-1.088.97ZM137.362 60.668a1.971 1.971 0 0 1-1.011-.235 1.475 1.475 0 0 1-.618-.693 2.929 2.929 0 0 1-.232-1.119l1.051-.207c.008.233.04.464.096.69.038.17.121.329.241.457a.573.573 0 0 0 .427.164.47.47 0 0 0 .42-.18.76.76 0 0 0 .124-.45 1.217 1.217 0 0 0-.198-.721 3.16 3.16 0 0 0-.529-.563l-.847-.745a2.525 2.525 0 0 1-.566-.686 1.858 1.858 0 0 1-.213-.928 1.588 1.588 0 0 1 .464-1.236 1.789 1.789 0 0 1 1.267-.43c.271-.008.539.041.789.145.199.088.372.227.501.402.126.177.221.375.278.585.061.226.1.458.114.692l-1.042.182a3.476 3.476 0 0 0-.071-.565.796.796 0 0 0-.191-.39.537.537 0 0 0-.402-.139.51.51 0 0 0-.418.176.694.694 0 0 0-.145.445c-.008.197.041.391.142.56.114.169.25.32.405.451l.838.736c.277.234.515.51.708.816.203.342.305.735.294 1.132.005.298-.067.592-.211.853a1.542 1.542 0 0 1-.59.584 1.752 1.752 0 0 1-.875.217ZM140.625 60.652a.9.9 0 0 1-.554-.17 1.117 1.117 0 0 1-.358-.43 1.222 1.222 0 0 1-.124-.544 1.496 1.496 0 0 1 .618-1.267c.191-.144.399-.264.619-.359.231-.105.466-.194.701-.278v-.414a1.858 1.858 0 0 0-.027-.35.416.416 0 0 0-.109-.216.342.342 0 0 0-.244-.074.382.382 0 0 0-.229.068.368.368 0 0 0-.123.185 1.05 1.05 0 0 0-.044.279l-.018.29-1.067-.043c-.022-.444.123-.88.408-1.221a1.582 1.582 0 0 1 1.172-.393 1.286 1.286 0 0 1 1.048.396c.233.31.349.692.328 1.079v2.689c0 .146.021.273.034.39.012.117.025.216.037.31h-1.011c0-.112-.037-.239-.062-.378a9.127 9.127 0 0 1-.052-.31c-.058.2-.164.382-.31.53a.849.849 0 0 1-.633.231Zm.414-.837a.437.437 0 0 0 .204-.053.872.872 0 0 0 .17-.13.584.584 0 0 0 .105-.133V58.16c-.12.072-.235.143-.343.217a1.512 1.512 0 0 0-.281.235.977.977 0 0 0-.183.278.952.952 0 0 0-.062.346.73.73 0 0 0 .105.42.312.312 0 0 0 .285.158ZM143.508 60.578v-6.711h1.119v6.712h-1.119ZM146.292 60.653a.723.723 0 0 1-.464-.145.802.802 0 0 1-.266-.39 1.59 1.59 0 0 1-.083-.516V55.79h1.122v3.608a.665.665 0 0 0 .068.333.28.28 0 0 0 .263.121.54.54 0 0 0 .25-.065c.088-.047.172-.1.253-.157v-3.84h1.129v4.789h-1.129v-.458a2.238 2.238 0 0 1-.528.383 1.354 1.354 0 0 1-.615.149ZM150.827 60.634a1.445 1.445 0 0 1-.717-.151.797.797 0 0 1-.368-.43 1.804 1.804 0 0 1-.108-.67v-2.851h-.483v-.745h.483v-1.435h1.134v1.435h.73v.745h-.73v2.751a.474.474 0 0 0 .108.353.453.453 0 0 0 .31.102c.059.003.119.003.179 0l.179-.031v.862l-.327.037c-.121.028-.254.028-.39.028ZM18 61.951v-8.118h.55v3.657h2.848v-3.657h.54v8.118h-.54v-4.038H18.55v4.038H18ZM24.626 62.04a1.594 1.594 0 0 1-.792-.185 1.193 1.193 0 0 1-.507-.67 4.213 4.213 0 0 1-.176-1.38V58.26c-.02-.468.042-.936.183-1.382.084-.272.268-.502.516-.643.244-.119.514-.177.785-.17.302-.017.602.064.853.232.228.186.383.446.44.735.098.44.143.89.132 1.339v.55h-2.377v.928c-.01.363.022.726.096 1.082a.968.968 0 0 0 .309.553c.158.11.348.166.541.158.143 0 .285-.023.42-.068a.655.655 0 0 0 .353-.33c.108-.258.156-.536.139-.814V60h.522v.38c.019.423-.089.842-.309 1.203-.204.303-.58.458-1.128.458Zm-.943-3.437h1.855v-.442c.003-.3-.016-.6-.056-.897a1.06 1.06 0 0 0-.244-.581.79.79 0 0 0-.618-.204.987.987 0 0 0-.535.133.814.814 0 0 0-.31.5 4.171 4.171 0 0 0-.101 1.058l.009.433ZM26.59 63.506h-.154a.735.735 0 0 1-.145 0v-.43c.04.006.08.006.12 0h.137a.791.791 0 0 0 .507-.13c.1-.082.167-.199.188-.327.025-.134.038-.27.037-.405v-6.056h.504v6.074a1.27 1.27 0 0 1-.309.987 1.283 1.283 0 0 1-.884.287Zm.675-8.11v-.927h.52v.928h-.52Z" fill="#001550"/></svg>