<svg width="170" height="136" viewBox="0 0 170 136" fill="none" xmlns="http://www.w3.org/2000/svg">
<rect y="7" width="170" height="120" fill="#C4C4C4" fill-opacity="0.16"/>
<path opacity="0.7" d="M114.834 16.8369C112.866 16.0421 110.874 15.3103 108.859 14.6415C94.8236 10.0211 78.0439 12.6497 65.7437 20.2984C59.2384 24.345 54.7078 29.7613 51.3314 36.3401C47.9001 43.03 45.5131 50.2456 40.6016 56.1691C35.7962 61.9705 29.0631 66.5575 26.3542 73.6991C20.4652 89.3002 30.5393 110.603 49.4077 112.08C62.7207 113.124 67.6518 120.247 81.6008 123.842C95.5499 127.437 109.307 127.011 125.242 116.275C131.677 111.943 137.315 106.234 139.768 99.0185C141.979 92.5248 139.937 85.7424 140.247 79.1117C140.64 70.9299 146.698 64.799 149.941 57.5723C154.754 46.8544 148.029 37.4286 139.227 30.772C131.794 25.1185 123.59 20.4316 114.834 16.8369Z" fill="#E7F1EA"/>
<path d="M120.064 101.829C138.811 83.0829 138.811 52.6893 120.064 33.9431C101.318 15.1968 70.9246 15.1969 52.1784 33.9431C33.4322 52.6893 33.4322 83.0829 52.1784 101.829C70.9246 120.575 101.318 120.575 120.064 101.829Z" fill="white" stroke="#001550" stroke-miterlimit="10"/>
<path d="M86.1225 110.799C73.8318 110.799 62.0093 106.084 53.0909 97.6271C44.1725 89.1699 38.8376 77.6141 38.1853 65.3407C38.1417 66.1839 38.1162 67.0344 38.1162 67.8849C38.2264 80.5442 43.3325 92.6475 52.3231 101.56C61.3138 110.473 73.461 115.474 86.1207 115.474C98.7804 115.474 110.928 110.473 119.918 101.56C128.909 92.6475 134.015 80.5442 134.125 67.8849C134.125 67.0296 134.103 66.1815 134.06 65.3407C133.407 77.6141 128.073 89.1699 119.154 97.6271C110.236 106.084 98.4133 110.799 86.1225 110.799Z" fill="#001550" stroke="#001550" stroke-miterlimit="10"/>
<path d="M83.4883 46.3498L84.8549 48.1707L87.9334 49.312L88.6168 51.7036L86.6795 52.4996V52.9576L90.0961 54.3242L91.6917 53.9825L92.4876 52.7286L92.2623 50.5623L90.2087 49.7663L88.9584 47.7164L84.4006 45.6628L83.4883 46.3498Z" fill="#10B981" stroke="#001550" stroke-miterlimit="10"/>
<path d="M113.108 98.3141L109.474 96.8348L105.029 95.2392H101.499L98.1955 94.5559L94.5609 95.3518L92.5073 95.4682H91.257L88.8618 96.8348L86.5828 97.7434L83.4825 95.7953L84.2785 92.6041L82.3448 91.8044H80.0659L79.7243 90.7795L79.9496 88.7295L79.1536 87.5919L77.558 87.8172L77.1037 88.9585L75.1664 89.0712L73.4581 87.0212L72.7748 84.288L74.4831 81.0968L77.787 81.3258L78.6993 82.1218H80.0659L81.7742 81.0968L83.2535 81.5511L85.2998 85.084L86.0958 84.9713L85.8668 82.3507L85.1835 80.9841L85.4125 78.8033L89.6287 76.986L90.1957 72.7735L92.013 71.2905L93.4959 68.67L94.6336 68.4446L97.2541 66.7327L97.3668 65.824L95.5495 65.9367L95.2078 65.0244H93.9539L92.0166 65.4824L92.9289 63.9994L96.927 62.8618L97.8393 61.8332L99.4313 64.3411L100.46 65.3661L102.052 64.9117L101.372 63.4215L98.9806 61.7132L96.2473 58.6383L93.3978 56.7011L90.6645 56.2467L89.2979 54.891L87.4806 54.4367L87.2516 54.891L87.0263 58.1949L87.4806 59.3362L86.4556 62.9708L84.1767 61.1535L84.5184 59.5615L82.1268 58.4203L81.1018 57.1663L81.6652 54.3349L84.9691 51.9397L85.1944 49.2064L83.9405 49.3191L83.1445 48.2942L82.8028 46.5859L82.0068 46.4732L81.5489 48.2905L80.2949 48.5195L79.7279 44.5214L78.8156 43.9508L77.22 43.2674L75.4027 44.1797L77.678 46.3605L78.1359 48.2978L74.0324 45.2083L71.1865 42.1334L70.9575 39.0549L67.9953 38.1462L65.7164 39.6255C65.164 39.9606 64.5938 40.2652 64.0081 40.5378C63.4374 40.7668 61.2748 40.9922 61.2748 40.9922L60.8169 42.9294L58.1963 43.0421L58.4253 44.2961L62.6415 44.9794L64.8041 47.3746V51.3727L63.5538 54.9019L63.7791 58.6638L60.5843 64.2357L59.9009 72.5517L60.9477 77.3386L62.427 80.9732L64.1353 81.1986L63.5683 79.3812L62.656 78.0146L62.0854 75.5067L63.1103 75.2777L64.7059 79.3812L65.8436 83.0159V85.9781L68.0244 88.5987L71.8516 91.4628L77.7761 93.0584L79.5934 94.7667L80.96 96.584L83.0136 97.8379L85.5179 98.5213L88.0258 98.4049C88.0258 98.4049 87.9131 99.5462 87.9131 100.117C87.9131 100.687 86.3175 102.621 86.3175 102.621L85.0636 104.9L85.9759 107.408L88.4801 108.433L92.013 112.068L93.6086 112.751V114.459L93.8085 115.255C102.674 113.819 110.955 109.914 117.703 103.988L117.761 103.163L120.839 97.5799L119.356 96.5549L113.108 98.3141Z" fill="#FFC966" stroke="#001550" stroke-miterlimit="10"/>
<path d="M124.954 53.299L123.7 51.1183L122.105 48.6104L121.65 45.1938L123.7 45.5354L123.813 44.3978L122.334 44.2815L123.587 43.7145L124.954 42.9149V41.7772L123.587 39.9599L123.293 37.5102C116.672 29.408 107.586 23.69 97.4166 21.2258C87.2475 18.7616 76.5517 19.686 66.9562 23.8585L69.584 25.7194L67.9884 27.7693L65.8076 28.2237L65.5823 31.3022L64.67 31.6439L63.5469 32.8905L63.6595 34.9405L65.5968 35.1695L64.7972 37.1031H66.7345L70.0311 32.8905L70.3727 31.0732L73.5639 30.8442L74.3599 29.4776L77.6638 29.136L78.0055 27.1987L80.4007 27.086C80.4007 27.086 82.109 26.1737 82.4506 26.1737C83.1094 26.3167 83.7568 26.5074 84.3879 26.7444L86.0962 28.111H88.4878L90.5413 26.857L93.1583 27.086C93.5343 27.3349 93.9641 27.4906 94.4122 27.5403C94.9829 27.5403 96.6912 26.7444 96.6912 26.7444L99.995 28.7943L101.362 29.8193V31.5312L103.074 31.7565L103.641 30.7316L105.124 31.4149L105.007 32.3272L101.591 33.2395L103.528 35.7437L107.628 38.0226L109.34 40.3016L111.844 40.5306L112.415 39.3893L113.327 39.1639L110.376 36.8886L108.558 36.6597L110.041 36.2053L108.671 34.2681L110.608 34.1518L113.116 35.522L113.687 38.2553L114.941 39.7346L115.966 43.0385L118.47 44.8558V48.614L121.091 50.3259L120.978 51.5762L120.636 53.0592L121.319 55.1091L121.548 56.1341L123.482 56.4757L124.394 54.5385L124.954 53.299Z" fill="#10B981" stroke="#001550" stroke-miterlimit="10"/>
<path d="M126.435 41.8208V42.475L125.868 44.2924L126.21 45.888L127.46 46.3387V48.5194L126.09 47.9488L125.748 54.1022L124.382 56.6101L125.294 59.7977L126.773 61.1644V67.3105L128.256 72.0974L129.852 75.732L132.473 76.4153L133.385 74.1364L133.748 73.8456C133.991 71.8655 134.112 69.8724 134.112 67.8775C134.129 58.632 131.463 49.5801 126.435 41.8208Z" fill="#10B981" stroke="#001550" stroke-miterlimit="10"/>
<path d="M100.119 41.1086L92.5989 37.801L89.295 37.9173L88.4954 40.0799L87.1288 38.6007L84.6245 39.1713L84.3955 42.9295L86.4454 44.4124L87.9284 42.2462L89.6367 43.9545L93.1659 47.033L93.8528 50.3369L96.8151 54.0951L101.598 53.2991L101.486 51.5872L100.461 49.6536L100.232 45.0958L101.369 43.1585L100.119 41.1086Z" fill="#10B981" stroke="#001550" stroke-miterlimit="10"/>
<path d="M106.269 43.6128L104.56 43.1584L103.081 44.4124L103.877 47.7163H105.356L106.269 43.6128Z" fill="#10B981" stroke="#001550" stroke-miterlimit="10"/>
<path d="M116.866 45.7791L112.995 43.7255L112.196 42.3589L111.283 42.7005L112.083 44.9795L112.766 47.9417L114.474 48.625L114.816 48.1707L113.791 46.4624L116.753 47.6L116.866 45.7791Z" fill="#10B981" stroke="#001550" stroke-miterlimit="10"/>
<path d="M83.594 86.9087L83.1396 87.363L86.5562 88.388L87.9265 89.9836L90.0891 90.2126L90.8887 88.9586L88.2681 88.5007L83.594 86.9087Z" fill="#10B981" stroke="#001550" stroke-miterlimit="10"/>
<path d="M93.7344 89.0712L91.3428 89.7545L91.6844 90.6668H94.6467L95.2173 89.7545L94.1923 89.8708L93.7344 89.0712Z" fill="#10B981" stroke="#001550" stroke-miterlimit="10"/>
<path d="M36.7158 22.3359V12.783H38.4502V16.7803H40.3979V12.783H42.1415V22.3359H40.3979V18.0077H38.4502V22.3359H36.7158Z" fill="#001550"/>
<path d="M45.5666 22.4441C45.1306 22.4629 44.6977 22.3624 44.3145 22.1535C43.99 21.9579 43.7399 21.6598 43.6034 21.3064C43.4388 20.8755 43.36 20.4165 43.3716 19.9554V17.9026C43.3582 17.4353 43.437 16.9699 43.6034 16.533C43.7413 16.1809 43.9941 15.8857 44.3207 15.6952C44.7014 15.4955 45.1276 15.3986 45.5573 15.4139C46.0011 15.3897 46.442 15.4972 46.8248 15.723C47.1358 15.9378 47.3647 16.2517 47.4741 16.6134C47.6142 17.074 47.68 17.5541 47.6688 18.0355V19.0032H44.9544V20.348C44.9498 20.5305 44.9717 20.7128 45.0194 20.889C45.0487 21.0138 45.1223 21.1236 45.2265 21.1982C45.3281 21.2651 45.4481 21.2986 45.5697 21.294C45.6913 21.2995 45.8112 21.2635 45.9097 21.192C46.0062 21.1137 46.0728 21.0045 46.0983 20.8828C46.1417 20.7237 46.1614 20.5592 46.1571 20.3944V19.8255H47.6565V20.2831C47.6959 20.861 47.5097 21.4317 47.1371 21.8752C46.9296 22.0745 46.6826 22.2281 46.4121 22.3261C46.1416 22.424 45.8536 22.4642 45.5666 22.4441ZM44.9483 18.2086H46.1509V17.5594C46.1561 17.367 46.1364 17.1748 46.0921 16.9875C46.0646 16.8666 45.9984 16.7581 45.9036 16.6783C45.7959 16.6067 45.6679 16.5719 45.5387 16.5794C45.4155 16.5728 45.294 16.61 45.1956 16.6845C45.096 16.7795 45.0298 16.9042 45.007 17.04C44.9626 17.2723 44.9429 17.5085 44.9483 17.7449V18.2086Z" fill="#001550"/>
<path d="M48.8643 22.3359V12.783H50.4564V22.3359H48.8643Z" fill="#001550"/>
<path d="M51.8389 22.3359V12.783H53.4403V22.3359H51.8389Z" fill="#001550"/>
<path d="M56.7659 22.4441C56.3364 22.4617 55.9098 22.3657 55.5292 22.1659C55.2082 21.9809 54.9548 21.6982 54.8058 21.359C54.6346 20.9524 54.5524 20.5139 54.5647 20.0729V17.7851C54.5524 17.3441 54.6346 16.9056 54.8058 16.499C54.9529 16.1586 55.2068 15.8754 55.5292 15.6921C55.9098 15.4923 56.3364 15.3964 56.7659 15.4139C57.1952 15.3977 57.6215 15.4936 58.0025 15.6921C58.3282 15.874 58.5855 16.1573 58.7352 16.499C58.9064 16.9056 58.9886 17.3441 58.9763 17.7851V20.0729C58.9886 20.5139 58.9064 20.9524 58.7352 21.359C58.5836 21.6994 58.3268 21.9823 58.0025 22.1659C57.6215 22.3645 57.1952 22.4604 56.7659 22.4441ZM56.7659 21.3342C56.8399 21.3408 56.9145 21.3306 56.9841 21.3044C57.0537 21.2782 57.1165 21.2366 57.1678 21.1828C57.2622 21.0616 57.3191 20.9154 57.3316 20.7623C57.3575 20.5686 57.3699 20.3734 57.3687 20.178V17.6769C57.37 17.4846 57.3576 17.2925 57.3316 17.1019C57.3179 16.9491 57.2611 16.8032 57.1678 16.6814C57.0585 16.58 56.915 16.5236 56.7659 16.5236C56.6168 16.5236 56.4732 16.58 56.364 16.6814C56.2711 16.8041 56.2124 16.9492 56.1939 17.1019C56.1653 17.2922 56.1518 17.4845 56.1537 17.6769V20.178C56.1616 20.3711 56.1844 20.5634 56.2218 20.753C56.239 20.9061 56.2978 21.0515 56.3918 21.1735C56.4408 21.2266 56.5007 21.2684 56.5674 21.2962C56.6341 21.3239 56.706 21.3369 56.7782 21.3342H56.7659Z" fill="#001550"/>
<path d="M24.752 44.0077V34.665H26.0566V38.6995H28.4525V34.665H29.7541V43.9985H28.4525V39.6424H26.0566V44.0077H24.752Z" fill="#001550"/>
<path d="M32.9445 44.1003C32.5334 44.1202 32.1262 44.0122 31.779 43.7912C31.4815 43.5857 31.2633 43.2846 31.1607 42.9379C31.0328 42.5162 30.9723 42.0769 30.9814 41.6364V39.701C30.9723 39.2605 31.0328 38.8212 31.1607 38.3995C31.2633 38.0528 31.4815 37.7517 31.779 37.5462C32.1262 37.3252 32.5334 37.2172 32.9445 37.2371C33.3537 37.2166 33.7591 37.3247 34.1038 37.5462C34.392 37.7564 34.602 38.0567 34.7005 38.3995C34.8284 38.8212 34.8889 39.2605 34.8798 39.701V41.6364C34.8889 42.0769 34.8284 42.5162 34.7005 42.9379C34.602 43.2807 34.392 43.581 34.1038 43.7912C33.7591 44.0127 33.3537 44.1208 32.9445 44.1003ZM32.9445 43.1914C33.0386 43.201 33.1336 43.1871 33.221 43.1509C33.3084 43.1148 33.3855 43.0575 33.4453 42.9843C33.5504 42.8192 33.6101 42.6294 33.6185 42.434C33.637 42.2083 33.6463 41.9733 33.6463 41.726V39.6423C33.6463 39.3888 33.6463 39.1476 33.6185 38.9251C33.6086 38.7308 33.549 38.5424 33.4453 38.3779C33.3869 38.3026 33.3102 38.2435 33.2226 38.2062C33.135 38.1689 33.0392 38.1545 32.9445 38.1645C32.8489 38.1549 32.7524 38.1694 32.6638 38.2066C32.5753 38.2439 32.4974 38.3028 32.4375 38.3779C32.3303 38.5412 32.2685 38.73 32.2582 38.9251C32.2396 39.1476 32.2303 39.3888 32.2303 39.6423V41.726C32.2303 41.9733 32.2303 42.2083 32.2582 42.434C32.267 42.6303 32.329 42.8205 32.4375 42.9843C32.4988 43.0574 32.577 43.1145 32.6654 43.1505C32.7537 43.1866 32.8495 43.2007 32.9445 43.1914Z" fill="#001550"/>
<path d="M36.1279 44.0077V34.665H37.3646V43.9985L36.1279 44.0077Z" fill="#001550"/>
<path d="M39.8426 44.1004C39.5929 44.105 39.349 44.0255 39.1501 43.8747C38.9486 43.7237 38.7863 43.5265 38.677 43.2997C38.5631 43.0689 38.5039 42.815 38.5039 42.5577C38.4936 42.1963 38.5644 41.8371 38.7111 41.5066C38.847 41.2277 39.0422 40.9819 39.283 40.7862C39.5408 40.5816 39.8233 40.4103 40.1239 40.2761C40.4331 40.1277 40.7793 39.9855 41.1317 39.8495V39.3765C41.1351 39.153 41.1196 38.9296 41.0854 38.7087C41.0705 38.558 41.0038 38.4171 40.8968 38.3099C40.7745 38.2125 40.6199 38.165 40.464 38.177C40.319 38.1691 40.1756 38.2093 40.0559 38.2914C39.9474 38.3748 39.8683 38.4907 39.8302 38.6222C39.7815 38.7845 39.7586 38.9535 39.7622 39.123V39.4569L38.541 39.4105C38.541 38.6716 38.7234 38.1306 39.048 37.7782C39.2466 37.5906 39.4825 37.4471 39.7404 37.357C39.9982 37.267 40.2722 37.2324 40.5443 37.2557C41.2059 37.2557 41.6748 37.436 41.951 37.7967C42.2572 38.2597 42.4027 38.8104 42.3653 39.3641V42.3939C42.3653 42.601 42.3653 42.8019 42.3838 42.9936C42.4024 43.1853 42.4116 43.3646 42.4302 43.5285C42.4487 43.6923 42.4673 43.8376 42.4828 43.9953H41.3512C41.3296 43.8747 41.2987 43.717 41.2647 43.5285C41.2307 43.3399 41.2059 43.1698 41.1905 43.0184C41.1037 43.2942 40.9509 43.5447 40.7453 43.748C40.6282 43.8671 40.4872 43.96 40.3316 44.0208C40.1761 44.0815 40.0094 44.1086 39.8426 44.1004ZM40.3248 43.04C40.4477 43.0401 40.5679 43.0047 40.6711 42.938C40.7762 42.8705 40.8727 42.7906 40.9586 42.6999C41.0255 42.6368 41.0837 42.5651 41.1317 42.4866V40.5977C40.9401 40.7059 40.7608 40.8141 40.5907 40.9068C40.4334 41.0066 40.2854 41.1204 40.1486 41.2469C40.0209 41.3611 39.916 41.4985 39.8395 41.6519C39.7596 41.8338 39.7218 42.0314 39.7287 42.23C39.7357 42.4285 39.7873 42.623 39.8797 42.7989C39.9257 42.8778 39.993 42.9423 40.0739 42.985C40.1548 43.0276 40.246 43.0467 40.3372 43.04H40.3248Z" fill="#001550"/>
<path d="M45.417 54.6117V47.3002H46.1126V50.5401H48.4158V47.3002H49.1021V54.6117H48.4158V51.0502H46.1126V54.6086L45.417 54.6117Z" fill="#001550"/>
<path d="M51.1442 54.6922C50.9511 54.6961 50.7613 54.6411 50.6001 54.5345C50.4435 54.4283 50.3168 54.2835 50.2322 54.1141C50.1398 53.9322 50.0931 53.7306 50.0962 53.5267C50.0907 53.2965 50.1306 53.0675 50.2137 52.8527C50.2958 52.6594 50.4205 52.4872 50.5785 52.3488C50.7782 52.1809 50.9959 52.0358 51.2277 51.916C51.4967 51.7769 51.8244 51.6068 52.2077 51.443V51.072C52.2139 50.8202 52.1942 50.5685 52.149 50.3207C52.1288 50.1705 52.0592 50.0313 51.9511 49.925C51.8381 49.841 51.6991 49.7994 51.5585 49.8075C51.4299 49.8052 51.3027 49.8338 51.1875 49.891C51.0725 49.951 50.9811 50.0479 50.9278 50.1662C50.8518 50.3349 50.8169 50.5192 50.8258 50.7041V50.8834H50.1766C50.1499 50.4632 50.2701 50.0468 50.5167 49.7055C50.6573 49.5663 50.8269 49.4598 51.0134 49.3936C51.1999 49.3273 51.3986 49.3029 51.5956 49.3222C51.7817 49.3029 51.9696 49.3314 52.1417 49.405C52.3137 49.4786 52.4641 49.5948 52.5787 49.7426C52.7995 50.1403 52.8994 50.5937 52.8662 51.0473V53.5823C52.8662 53.672 52.8662 53.7895 52.8662 53.9286C52.8662 54.0677 52.8662 54.2068 52.8848 54.3305C52.9033 54.4541 52.9002 54.5531 52.9064 54.6211H52.319C52.3005 54.5067 52.2819 54.38 52.2603 54.2377C52.2386 54.0955 52.2263 53.9842 52.2201 53.8977C52.144 54.1148 52.0117 54.3079 51.8367 54.4572C51.6435 54.6195 51.3963 54.7033 51.1442 54.6922ZM51.3699 54.1419C51.4951 54.1444 51.6185 54.1112 51.7254 54.0461C51.8328 53.9817 51.9297 53.9015 52.013 53.808C52.095 53.723 52.1638 53.626 52.217 53.5205V51.8851C51.9573 52.0242 51.7378 52.1448 51.5554 52.2499C51.3956 52.337 51.2453 52.4406 51.1071 52.559C50.9986 52.6548 50.9121 52.7729 50.8536 52.9053C50.7975 53.0512 50.7702 53.2066 50.7733 53.3628C50.7526 53.5751 50.8158 53.7871 50.9495 53.9533C51.0026 54.0122 51.0675 54.0594 51.1399 54.0918C51.2122 54.1243 51.2906 54.1414 51.3699 54.1419Z" fill="#001550"/>
<path d="M53.9219 54.6117V47.3002H54.5804V54.6117H53.9219Z" fill="#001550"/>
<path d="M56.9338 54.6921C56.6371 54.7083 56.3432 54.6281 56.096 54.4633C55.8811 54.296 55.7295 54.0605 55.6663 53.7956C55.578 53.446 55.5364 53.0863 55.5426 52.7259V51.279C55.5364 50.9186 55.578 50.5589 55.6663 50.2094C55.7295 49.9444 55.8811 49.7089 56.096 49.5416C56.3509 49.3918 56.6412 49.3129 56.9369 49.3129C57.2325 49.3129 57.5229 49.3918 57.7778 49.5416C57.9882 49.7118 58.137 49.9464 58.2013 50.2094C58.2911 50.5586 58.3327 50.9185 58.325 51.279V52.7259C58.3327 53.0864 58.2911 53.4463 58.2013 53.7956C58.137 54.0585 57.9882 54.2931 57.7778 54.4633C57.5288 54.6294 57.2325 54.7097 56.9338 54.6921ZM56.9338 54.1975C57.0256 54.2063 57.1182 54.1946 57.2049 54.163C57.2915 54.1314 57.37 54.0809 57.4346 54.0151C57.5495 53.8709 57.6174 53.6951 57.6294 53.5111C57.6558 53.2616 57.6682 53.0108 57.6665 52.7599V51.245C57.6683 50.9962 57.6559 50.7474 57.6294 50.5C57.6165 50.3153 57.5487 50.1387 57.4346 49.9929C57.3697 49.9277 57.2911 49.8777 57.2045 49.8467C57.1178 49.8157 57.0254 49.8044 56.9338 49.8136C56.8428 49.8061 56.7512 49.8188 56.6657 49.8509C56.5801 49.883 56.5028 49.9336 56.4391 49.9991C56.3267 50.1458 56.259 50.3219 56.2444 50.5061C56.2151 50.7534 56.2017 51.0023 56.2042 51.2512V52.7661C56.2018 53.0171 56.2152 53.268 56.2444 53.5173C56.2579 53.7009 56.3256 53.8763 56.4391 54.0212C56.5036 54.0851 56.5813 54.134 56.6668 54.1645C56.7523 54.1949 56.8435 54.2062 56.9338 54.1975Z" fill="#001550"/>
<path d="M112.491 26.26V18.9485H116.229V26.26H115.543V19.4586H113.178V26.26H112.491Z" fill="#001550"/>
<path d="M117.369 27.9758V21.0415H118.028V21.4743C118.146 21.339 118.282 21.2205 118.433 21.1218C118.611 21.0099 118.819 20.9539 119.029 20.9611C119.249 20.9479 119.468 21.01 119.648 21.1373C119.806 21.2605 119.929 21.4238 120.003 21.6103C120.093 21.8234 120.151 22.0483 120.176 22.2781C120.208 22.5325 120.223 22.7885 120.223 23.0448V24.1392C120.227 24.5297 120.189 24.9195 120.108 25.3016C120.056 25.5893 119.923 25.8563 119.725 26.0714C119.623 26.1649 119.504 26.2369 119.374 26.2831C119.243 26.3294 119.105 26.3488 118.967 26.3404C118.773 26.3456 118.581 26.2894 118.42 26.1796C118.28 26.0835 118.151 25.9715 118.037 25.8458V27.9758H117.369ZM118.85 25.8272C118.935 25.8327 119.021 25.8179 119.099 25.784C119.178 25.7502 119.247 25.6982 119.301 25.6324C119.418 25.4644 119.488 25.2678 119.502 25.0636C119.539 24.7631 119.555 24.4605 119.552 24.1578V23.0448C119.556 22.7575 119.539 22.4703 119.502 22.1853C119.487 21.9936 119.417 21.8103 119.301 21.6567C119.243 21.5937 119.172 21.5446 119.092 21.513C119.012 21.4814 118.926 21.4682 118.841 21.4743C118.675 21.4736 118.513 21.5208 118.374 21.6103C118.249 21.6887 118.133 21.7799 118.028 21.8824V25.4377C118.131 25.5468 118.251 25.6386 118.383 25.7097C118.526 25.7878 118.687 25.8283 118.85 25.8272Z" fill="#001550"/>
<path d="M121.128 26.2603V21.0417H121.688V25.0608L123.431 21.0417H123.963V26.2603H123.403V22.2413L121.681 26.2603H121.128Z" fill="#001550"/>
<path d="M124.976 26.2601V21.0415H126.24C126.517 21.0273 126.792 21.0904 127.035 21.2239C127.216 21.3321 127.36 21.4942 127.446 21.6877C127.533 21.8901 127.579 22.1085 127.579 22.3292C127.579 22.5498 127.533 22.7682 127.446 22.9707C127.396 23.081 127.323 23.1789 127.231 23.2575C127.139 23.3361 127.031 23.3933 126.914 23.4251C127.098 23.4674 127.263 23.567 127.387 23.7095C127.5 23.8485 127.582 24.0097 127.628 24.1825C127.676 24.3684 127.699 24.5595 127.699 24.7514C127.705 25.0179 127.665 25.2834 127.582 25.5366C127.51 25.7578 127.364 25.947 127.167 26.0715C126.904 26.2118 126.606 26.2771 126.308 26.2601H124.976ZM125.625 23.2458H126.299C126.393 23.2484 126.487 23.2294 126.572 23.1902C126.658 23.1511 126.734 23.0929 126.793 23.0201C126.933 22.8291 127.001 22.5947 126.985 22.3585C127.001 22.249 126.991 22.1373 126.957 22.0322C126.922 21.9271 126.863 21.8316 126.785 21.753C126.707 21.6745 126.612 21.6151 126.507 21.5796C126.403 21.5441 126.291 21.5335 126.181 21.5485H125.637L125.625 23.2458ZM125.625 25.7531H126.194C126.366 25.7613 126.537 25.7229 126.688 25.6418C126.816 25.5601 126.911 25.4365 126.957 25.2924C127.02 25.1106 127.049 24.9189 127.044 24.7267C127.055 24.5153 127.019 24.3042 126.939 24.1083C126.883 23.9789 126.782 23.8744 126.654 23.8146C126.524 23.7567 126.383 23.7282 126.24 23.7312H125.622L125.625 25.7531Z" fill="#001550"/>
<path d="M129.806 26.3406C129.527 26.3522 129.25 26.2847 129.008 26.1459C128.782 25.9937 128.619 25.7655 128.548 25.5028C128.437 25.1119 128.387 24.7063 128.399 24.3002V22.9832C128.384 22.5725 128.436 22.162 128.554 21.7682C128.63 21.5127 128.796 21.2932 129.021 21.1499C129.261 21.0196 129.532 20.9556 129.806 20.9644C130.108 20.9424 130.408 21.0254 130.656 21.1994C130.866 21.3832 131.008 21.6327 131.058 21.9073C131.14 22.3069 131.178 22.7144 131.169 23.1223V23.5922H129.058V24.5011C129.05 24.7702 129.076 25.0393 129.135 25.3019C129.167 25.4654 129.253 25.6134 129.379 25.7223C129.504 25.8104 129.654 25.8549 129.806 25.8491C129.931 25.8498 130.054 25.8234 130.168 25.7718C130.289 25.705 130.381 25.5945 130.424 25.4626C130.497 25.2648 130.529 25.0547 130.52 24.8443V24.4857H131.16V24.7763C131.177 25.1793 131.069 25.5776 130.851 25.9171C130.725 26.0683 130.564 26.1862 130.381 26.26C130.199 26.3339 130.001 26.3616 129.806 26.3406ZM129.058 23.2089H130.52V22.7761C130.522 22.5393 130.508 22.3028 130.477 22.0681C130.459 21.9014 130.391 21.7439 130.282 21.6167C130.218 21.5581 130.143 21.5135 130.061 21.4858C129.979 21.4581 129.892 21.4479 129.806 21.456C129.652 21.4493 129.5 21.4903 129.37 21.5734C129.242 21.6805 129.157 21.8296 129.129 21.9939C129.074 22.278 129.051 22.5672 129.058 22.8564V23.2089Z" fill="#001550"/>
<path d="M132.703 26.2603V21.5488H131.574V21.0417H134.471V21.5488H133.361V26.2603H132.703Z" fill="#001550"/>
<path d="M134.497 45.3647C134.261 45.3745 134.027 45.3166 133.823 45.1977C133.645 45.0829 133.505 44.9184 133.421 44.7247C133.326 44.5 133.27 44.2604 133.257 44.0167L133.668 43.8931C133.684 44.0809 133.72 44.2665 133.776 44.4465C133.821 44.6001 133.909 44.7375 134.03 44.8422C134.133 44.9403 134.263 45.0044 134.404 45.026C134.544 45.0476 134.688 45.0256 134.816 44.963C134.944 44.9003 135.049 44.8 135.118 44.6756C135.187 44.5512 135.216 44.4086 135.201 44.2671C135.205 44.0654 135.148 43.8672 135.038 43.6983C134.909 43.5132 134.759 43.3431 134.592 43.1913L133.714 42.3504C133.572 42.2164 133.455 42.0571 133.371 41.8805C133.296 41.7146 133.258 41.5341 133.26 41.3518C133.251 41.2049 133.274 41.0578 133.327 40.9206C133.381 40.7834 133.463 40.6595 133.569 40.5573C133.797 40.3661 134.088 40.2678 134.385 40.2821C134.547 40.2795 134.707 40.3025 134.861 40.3501C134.998 40.3918 135.122 40.4661 135.223 40.5666C135.329 40.6778 135.409 40.8107 135.458 40.9561C135.523 41.1448 135.563 41.3413 135.576 41.5404L135.177 41.6455C135.166 41.4625 135.132 41.2817 135.075 41.1076C135.034 40.9716 134.95 40.8524 134.837 40.7675C134.69 40.6838 134.522 40.6435 134.353 40.6511C134.184 40.6588 134.02 40.7142 133.881 40.8108C133.814 40.8739 133.761 40.9514 133.727 41.0375C133.694 41.1237 133.68 41.2163 133.687 41.3085C133.685 41.435 133.71 41.5604 133.761 41.6764C133.83 41.8107 133.923 41.9312 134.036 42.032L134.914 42.8605C135.108 43.0454 135.279 43.253 135.424 43.4788C135.567 43.7065 135.641 43.9706 135.637 44.2393C135.643 44.4545 135.593 44.6674 135.492 44.8576C135.399 45.0212 135.259 45.1527 135.09 45.2348C134.905 45.3229 134.702 45.3673 134.497 45.3647Z" fill="#001550"/>
<path d="M136.778 45.3587C136.647 45.3614 136.519 45.3248 136.41 45.2536C136.303 45.1806 136.217 45.0817 136.159 44.966C136.096 44.8427 136.064 44.7058 136.067 44.5672C136.063 44.4099 136.09 44.2534 136.147 44.1066C136.203 43.9764 136.288 43.8602 136.394 43.7665C136.53 43.6521 136.678 43.5535 136.837 43.4728C137.02 43.376 137.243 43.2677 137.504 43.1482V42.8978C137.507 42.729 137.495 42.5603 137.467 42.3939C137.453 42.2926 137.405 42.1991 137.331 42.128C137.255 42.0705 137.161 42.042 137.065 42.0476C136.978 42.0459 136.891 42.065 136.812 42.1033C136.735 42.1448 136.673 42.2098 136.636 42.2888C136.584 42.4043 136.561 42.5304 136.568 42.6567V42.7772H136.125C136.107 42.4919 136.188 42.2089 136.354 41.9765C136.451 41.8824 136.566 41.8104 136.693 41.7655C136.821 41.7207 136.956 41.7041 137.09 41.7168C137.216 41.7042 137.344 41.7237 137.46 41.7734C137.577 41.8231 137.679 41.9015 137.758 42.0012C137.91 42.271 137.979 42.5797 137.956 42.8885V44.6136C137.956 44.6754 137.956 44.7558 137.956 44.8517C137.956 44.9475 137.956 45.0372 137.956 45.1237C137.956 45.2103 137.956 45.2752 137.971 45.3216H137.572C137.572 45.2412 137.544 45.1546 137.532 45.0588C137.52 44.963 137.507 44.8857 137.504 44.83C137.452 44.9776 137.361 45.1088 137.241 45.2103C137.111 45.3153 136.945 45.3681 136.778 45.3587ZM136.926 44.9784C137.011 44.9797 137.095 44.9572 137.167 44.9135C137.242 44.8715 137.309 44.8172 137.365 44.7527C137.42 44.6929 137.466 44.6264 137.504 44.5549V43.4512C137.328 43.5439 137.177 43.6274 137.053 43.6985C136.942 43.7583 136.839 43.8298 136.744 43.9118C136.67 43.9764 136.612 44.0567 136.574 44.1468C136.535 44.2451 136.516 44.3502 136.518 44.4559C136.504 44.6015 136.547 44.7467 136.639 44.8609C136.676 44.8989 136.721 44.9289 136.77 44.9491C136.82 44.9692 136.873 44.9792 136.926 44.9784Z" fill="#001550"/>
<path d="M138.675 45.306V40.3317H139.123V45.306H138.675Z" fill="#001550"/>
<path d="M140.385 45.3061L139.634 41.757H140.088L140.666 44.7898L141.235 41.757H141.671L140.929 45.3061H140.385Z" fill="#001550"/>
<path d="M142.992 45.3585C142.802 45.3659 142.614 45.321 142.448 45.2286C142.297 45.1224 142.188 44.9673 142.139 44.7896C142.063 44.5245 142.029 44.2492 142.037 43.9735V43.0769C142.026 42.7979 142.062 42.519 142.142 42.2515C142.19 42.0774 142.3 41.9268 142.451 41.8279C142.615 41.7377 142.8 41.6938 142.986 41.7012C143.191 41.6883 143.394 41.7438 143.564 41.8588C143.706 41.9852 143.801 42.1547 143.836 42.3411C143.894 42.6124 143.92 42.8894 143.914 43.1666V43.4757H142.476V44.094C142.472 44.2769 142.489 44.4595 142.529 44.6381C142.549 44.7495 142.608 44.8501 142.695 44.9226C142.78 44.9836 142.882 45.0141 142.986 45.0091C143.071 45.0115 143.154 44.9935 143.23 44.9566C143.312 44.9138 143.375 44.8422 143.407 44.7556C143.456 44.619 143.478 44.4741 143.471 44.329V44.0817H143.907V44.2795C143.921 44.553 143.849 44.824 143.703 45.0555C143.619 45.1613 143.51 45.2444 143.386 45.2973C143.262 45.3502 143.127 45.3712 142.992 45.3585ZM142.482 43.2284H143.478V42.9347C143.48 42.7734 143.47 42.6121 143.447 42.4524C143.435 42.3382 143.389 42.2303 143.314 42.1433C143.272 42.1056 143.223 42.0766 143.17 42.0581C143.117 42.0395 143.061 42.0317 143.005 42.0351C142.896 42.0276 142.787 42.0558 142.695 42.1154C142.608 42.1871 142.55 42.2882 142.532 42.3999C142.493 42.5932 142.477 42.7902 142.482 42.9873V43.2284Z" fill="#001550"/>
<path d="M69.228 9.69146C69.3269 9.67291 69.4073 9.642 69.4073 9.5678C69.4015 9.52196 69.3821 9.47889 69.3517 9.44414C69.296 9.40086 69.2713 9.37303 69.2713 9.3483C69.2713 9.32357 69.296 9.31738 69.3517 9.31738C69.5372 9.31738 69.7567 9.41941 69.7567 9.51215C69.7567 9.6049 69.6825 9.642 69.6701 9.7162C70.3843 9.88005 70.6965 10.3345 70.6965 10.7704C70.6965 11.3238 70.205 11.8648 69.4073 11.8648C68.5602 11.8648 68.0625 11.3485 68.0625 10.7704C68.0625 10.2912 68.4304 9.81513 69.228 9.69146ZM68.4489 10.7704C68.451 10.8873 68.4772 11.0025 68.5258 11.1088C68.5744 11.2152 68.6444 11.3103 68.7314 11.3884C68.8185 11.4664 68.9207 11.5257 69.0316 11.5625C69.1426 11.5992 69.26 11.6127 69.3764 11.602C69.4932 11.6144 69.6113 11.602 69.723 11.5658C69.8347 11.5295 69.9376 11.4702 70.0249 11.3916C70.1122 11.3131 70.182 11.217 70.2298 11.1097C70.2776 11.0025 70.3023 10.8863 70.3023 10.7689C70.3023 10.6514 70.2776 10.5353 70.2298 10.428C70.182 10.3207 70.1122 10.2247 70.0249 10.1461C69.9376 10.0675 69.8347 10.0082 69.723 9.97196C69.6113 9.93571 69.4932 9.92335 69.3764 9.9357C69.2599 9.92596 69.1427 9.94018 69.0319 9.97748C68.9211 10.0148 68.8191 10.0744 68.7322 10.1526C68.6453 10.2308 68.5754 10.3259 68.5267 10.4322C68.4779 10.5384 68.4515 10.6536 68.4489 10.7704ZM69.7134 12.8912C69.7134 12.7737 69.5681 12.7181 69.2528 12.6254C69.1847 12.6068 69.1384 12.5852 69.1384 12.5542C69.1384 12.5233 69.1909 12.4924 69.3331 12.4677C69.5513 12.4669 69.7693 12.4814 69.9854 12.511C70.0937 12.5357 70.1184 12.5728 70.1184 12.6254C70.1184 12.6779 70.1184 12.7181 70.0998 12.7861C70.0998 13.0551 70.0998 13.4199 70.0998 13.6332C70.0998 13.7754 70.1864 13.8311 70.409 13.8434H71.5189C71.9795 13.8063 71.76 13.6641 72.3072 13.6641C72.5082 13.6641 72.7679 13.6888 72.7679 13.8743C72.7679 13.9485 72.706 14.0073 72.6009 14.0073H70.3843C69.9731 14.0073 69.7443 13.9053 69.7196 13.5961L69.7134 12.8912ZM71.7909 9.25555C71.7909 9.18754 71.6302 9.07624 71.2623 8.91857C71.1695 8.88766 71.1201 8.85056 71.1201 8.82583C71.1201 8.80109 71.1942 8.764 71.3426 8.75781C71.3674 8.75781 72.2083 8.86293 72.2083 9.06697C72.2083 9.11025 72.1835 9.15971 72.1835 9.22155V11.1507C72.2701 11.1507 72.366 11.1507 72.4587 11.1507C72.7431 11.095 72.6133 10.9776 73.077 10.9776C73.2007 10.9776 73.4264 10.9776 73.4264 11.1445C73.4252 11.1662 73.4197 11.1874 73.4101 11.2069C73.4005 11.2264 73.3871 11.2437 73.3706 11.2579C73.3542 11.2721 73.335 11.2827 73.3143 11.2893C73.2936 11.2958 73.2718 11.2981 73.2501 11.296L72.1681 11.3207C72.1681 12.4337 72.1248 12.7088 72.063 12.8819C72.0073 12.9994 71.9393 13.0891 71.8868 13.0891C71.8342 13.0891 71.794 13.018 71.7878 12.8139L71.7909 9.25555Z" fill="#001550"/>
<path d="M74.6465 9.85498C74.6465 9.74059 74.393 9.66021 74.1611 9.59219C74.0993 9.57364 74.0312 9.54891 74.0312 9.51181C74.0312 9.47472 74.0807 9.44999 74.2229 9.41289C74.9525 9.44999 75.0329 9.52418 75.0329 9.62311C75.0329 9.65403 75.0329 9.68494 75.0329 9.72204V11.1472C75.0329 11.2369 75.0576 11.2864 75.2308 11.2864C75.8807 11.1914 76.5087 10.982 77.0857 10.6681C77.1244 10.6484 77.1663 10.6358 77.2094 10.631H77.2279C77.2279 10.631 77.197 10.6866 77.1228 10.7453C76.4597 11.1677 75.727 11.4692 74.9587 11.6357C74.7825 11.6357 74.7021 11.3266 74.6774 11.1936L74.6465 9.85498ZM77.2125 12.2077C77.2383 12.2048 77.2623 12.1931 77.2803 12.1745C77.2984 12.1559 77.3094 12.1315 77.3114 12.1056C77.3103 12.0827 77.3041 12.0604 77.2934 12.0401C77.2828 12.0198 77.2678 12.0021 77.2496 11.9882C77.2063 11.9511 77.1877 11.9201 77.1877 11.9016C77.1877 11.883 77.2063 11.8707 77.2434 11.8707C77.3547 11.8707 77.6175 11.9696 77.6175 12.0562C77.6175 12.1427 77.5742 12.152 77.5618 12.2324C78.245 12.3437 78.5573 12.7734 78.5573 13.2093C78.5573 13.7256 78.1152 14.2481 77.3485 14.2481C76.5818 14.2481 76.1119 13.7256 76.1119 13.2093C76.1119 12.761 76.4427 12.3128 77.1475 12.2262L77.2125 12.2077ZM76.4581 13.197C76.4597 13.3106 76.4849 13.4227 76.5321 13.5262C76.5793 13.6296 76.6476 13.722 76.7325 13.7976C76.8174 13.8732 76.9171 13.9303 77.0253 13.9653C77.1335 14.0003 77.2478 14.0124 77.3609 14.0008C77.5732 14.0008 77.7769 13.9164 77.927 13.7662C78.0772 13.6161 78.1616 13.4124 78.1616 13.2C78.1616 12.9877 78.0772 12.784 77.927 12.6339C77.7769 12.4837 77.5732 12.3993 77.3609 12.3993C77.2482 12.3873 77.1342 12.3989 77.0263 12.4333C76.9183 12.4677 76.8187 12.5242 76.7338 12.5993C76.6488 12.6743 76.5805 12.7662 76.533 12.8691C76.4856 12.972 76.4601 13.0836 76.4581 13.197ZM78.2079 9.2243C78.2079 9.16247 77.9513 9.00789 77.6607 8.88114C77.5989 8.86259 77.4907 8.82549 77.4907 8.78839C77.4907 8.75129 77.6422 8.70801 77.6793 8.70801C77.8091 8.70801 78.6315 8.83167 78.6315 9.01716C78.6315 9.07281 78.5944 9.12846 78.5882 9.20884V10.9092C78.5882 11.9418 78.5078 12.1242 78.3873 12.2973C78.3625 12.3344 78.3378 12.3468 78.3192 12.3468C78.3007 12.3468 78.2203 12.2046 78.2203 11.9665V11.24C77.939 11.24 77.6607 11.2709 77.4598 11.2833C77.3485 11.308 77.3361 11.3575 77.2557 11.3575C77.0582 11.3212 76.8726 11.2374 76.7147 11.1132C76.7147 11.0885 76.7518 11.0823 76.8198 11.0823H77.2372C77.5278 11.0823 77.8277 11.0638 78.2203 11.039V9.97555C77.8524 9.97555 77.5804 10.0003 77.4351 10.0126C77.2898 10.025 77.2805 10.093 77.2001 10.093C77.1197 10.093 76.7024 9.93845 76.7024 9.83952C76.7024 9.82097 76.7271 9.8117 76.7827 9.8117H76.9002C77.0424 9.8117 77.1568 9.8117 77.2743 9.8117C77.5834 9.8117 77.8215 9.8117 78.2203 9.78387L78.2079 9.2243Z" fill="#001550"/>
<path d="M82.381 10.3654C82.885 10.3344 82.6098 10.2015 83.2714 10.1768C83.5558 10.1768 83.6702 10.2757 83.6702 10.353C83.6702 10.353 83.6702 10.489 83.426 10.489C83.0457 10.5138 81.8957 10.5447 81.1537 10.5756C80.9558 10.6189 80.9064 10.6931 80.792 10.6931C80.6776 10.6931 80.1396 10.4643 80.1396 10.3839C80.1396 10.3654 80.1644 10.353 80.2262 10.353C80.2571 10.3503 80.2881 10.3503 80.319 10.353C80.6269 10.3879 80.9366 10.4044 81.2464 10.4025C81.4165 10.3963 82.2048 10.3654 82.381 10.3654ZM81.7071 11.129C81.7905 11.1104 81.9018 11.0919 81.9018 10.9868C81.9014 10.9685 81.8966 10.9506 81.8881 10.9345C81.8795 10.9184 81.8673 10.9046 81.8524 10.894C81.8305 10.8695 81.8156 10.8396 81.8091 10.8075C81.8091 10.7827 81.8338 10.7704 81.8771 10.7704C82.0255 10.7704 82.211 10.8878 82.211 10.9682C82.211 11.0486 82.1492 11.0733 82.1244 11.129C82.8417 11.231 83.1787 11.6607 83.1787 12.0997C83.1787 12.5882 82.7427 13.0736 81.942 13.0736C81.1413 13.0736 80.7054 12.5604 80.7054 12.0874C80.7054 11.6143 81.03 11.231 81.7071 11.129ZM81.6885 9.75941C81.4411 9.69517 81.2197 9.55584 81.0547 9.3606C81.0547 9.34205 81.0733 9.32969 81.1166 9.32969C81.1583 9.33152 81.1998 9.33774 81.2402 9.34824C81.66 9.41795 82.0856 9.44591 82.5109 9.43171C82.6593 9.43171 82.7489 9.50591 82.7489 9.5801C82.7489 9.6543 82.6345 9.74705 82.3563 9.75323L81.6885 9.75941ZM81.0857 12.0626C81.0605 12.2392 81.0898 12.4192 81.1698 12.5786C81.2498 12.738 81.3766 12.8692 81.5332 12.9545C81.6898 13.0399 81.8687 13.0753 82.046 13.0561C82.2233 13.0369 82.3905 12.964 82.5252 12.8471C82.6599 12.7302 82.7557 12.5749 82.7997 12.402C82.8437 12.2292 82.8338 12.0471 82.7713 11.88C82.7089 11.7129 82.5969 11.5689 82.4503 11.4673C82.3038 11.3657 82.1297 11.3113 81.9513 11.3114C81.8441 11.2984 81.7354 11.308 81.6321 11.3396C81.5288 11.3713 81.4334 11.4242 81.3518 11.4949C81.2702 11.5657 81.2044 11.6528 81.1586 11.7506C81.1127 11.8484 81.0879 11.9547 81.0857 12.0626ZM84.0659 9.19984C84.0659 9.09473 83.7259 8.94633 83.4693 8.83195C83.4012 8.80721 83.358 8.77629 83.358 8.75156C83.358 8.72683 83.4322 8.68355 83.6146 8.67737C83.8541 8.7165 84.0907 8.77228 84.3225 8.84431C84.4524 8.89378 84.4833 8.93397 84.4833 8.9958C84.4833 9.05763 84.4647 9.10091 84.4647 9.19366V11.4289H84.7739C85.0614 11.3856 84.9656 11.2681 85.3582 11.2681C85.4726 11.2681 85.7323 11.2681 85.7323 11.4598C85.7323 11.5463 85.6581 11.6205 85.5221 11.6205H84.4616V13.4013C84.4707 13.7115 84.4182 14.0204 84.3071 14.3102C84.2576 14.3844 84.2081 14.4215 84.1649 14.4215C84.1216 14.4215 84.0752 14.3411 84.0752 14.1371L84.0659 9.19984Z" fill="#001550"/>
<path d="M87.9894 10.2079C87.9894 10.1398 87.8441 10.0285 87.6277 9.88015C87.5102 9.82141 87.4793 9.74721 87.7205 9.74721C87.8256 9.74721 88.4501 9.96672 88.4501 10.1275C88.3033 10.4816 88.135 10.8265 87.9461 11.1601C88.0496 11.3013 88.1611 11.4365 88.28 11.5651C88.4934 11.8217 88.6974 11.7413 88.7932 12.3503C88.7932 12.3689 88.7932 12.3874 88.7932 12.3998C88.7932 12.5173 88.7314 12.5945 88.6572 12.5945C88.6222 12.5903 88.5889 12.577 88.5607 12.5558C88.5324 12.5346 88.5103 12.5064 88.4964 12.474C88.3542 12.2328 88.1471 11.7722 87.8348 11.2868C87.2413 12.0968 86.5209 12.7151 86.3324 12.7151C86.3324 12.7151 86.3076 12.7151 86.3076 12.6966C86.3076 12.678 86.3509 12.6224 86.4313 12.5574C87.1279 11.9333 87.659 11.1462 87.9771 10.2666L87.9894 10.2079ZM89.7083 9.70393C89.7083 9.55554 89.4703 9.43188 89.2322 9.31749C89.158 9.28657 89.0838 9.24329 89.0838 9.20619C89.0838 9.16909 89.1333 9.15054 89.2848 9.14436C89.5023 9.17356 89.7166 9.22324 89.9247 9.29275C90.0608 9.34222 90.0917 9.40096 90.0917 9.46279C90.0917 9.52462 90.0731 9.56172 90.0731 9.61737V12.9346C90.0731 13.7384 89.9062 13.9548 89.8258 13.9548C89.7454 13.9548 89.7207 13.8064 89.7207 13.5065V11.2312L89.1519 11.2559C88.9725 11.2868 88.9416 11.3486 88.8674 11.3486C88.7932 11.3486 88.4068 11.191 88.4068 11.1106C88.4068 11.092 88.4439 11.0735 88.5119 11.0735H88.8211C89.1302 11.0735 89.4394 11.0549 89.7269 11.0426L89.7083 9.70393ZM90.6976 9.26184C90.6976 9.15673 90.4658 9.00215 90.2184 8.86921C90.1288 8.83211 90.0793 8.79502 90.0793 8.7641C90.0793 8.73319 90.1412 8.70845 90.2803 8.70227C90.5117 8.75221 90.7399 8.81622 90.9635 8.89395C91.0686 8.94032 91.0903 8.9836 91.0903 9.03306C91.0903 9.08253 91.0686 9.12581 91.0686 9.19383V13.522C91.0439 14.0939 90.9326 14.3969 90.8151 14.4309C90.7595 14.4309 90.7038 14.3722 90.6976 14.0568V9.26184Z" fill="#001550"/>
<path d="M97.6071 13.5466C97.1928 13.5219 96.6796 13.5095 96.1571 13.5095C95.1307 13.5095 94.0363 13.5528 93.4551 13.6084C93.3191 13.6579 93.282 13.7197 93.1769 13.7197C92.885 13.6616 92.6101 13.538 92.373 13.358C92.373 13.3395 92.3978 13.3271 92.4534 13.3271C92.4822 13.3246 92.5112 13.3246 92.54 13.3271C93.0796 13.3908 93.6232 13.4135 94.1662 13.3951C94.1476 13.2715 94.1352 12.953 94.1043 12.749C94.0796 12.6624 93.993 12.6253 93.6931 12.5171C93.6313 12.5171 93.588 12.48 93.588 12.4553C93.588 12.4305 93.6437 12.3996 93.7797 12.3811C94.398 12.4244 94.4969 12.4862 94.4969 12.5789C94.4969 12.6068 94.4969 12.6439 94.4969 12.6871C94.4969 12.7304 94.4969 13.2653 94.5155 13.3889C94.7257 13.3889 95.3997 13.3889 95.817 13.3518C95.8356 13.2096 95.8603 12.9345 95.8727 12.5542C95.8727 12.4182 95.7336 12.3625 95.5852 12.2883C95.5357 12.2883 95.4986 12.2512 95.4986 12.2327C95.4986 12.2141 95.5481 12.1832 95.6841 12.1647C96.2251 12.2574 96.3395 12.3131 96.3395 12.3873C96.3237 12.4494 96.3009 12.5096 96.2715 12.5666C96.2437 12.749 96.1819 13.086 96.1262 13.3333C96.3177 13.3339 96.5089 13.3194 96.6981 13.29C96.9053 13.29 96.8682 13.1725 97.1712 13.1725C97.335 13.1725 97.8451 13.1725 97.8451 13.4198C97.8451 13.4879 97.7895 13.5404 97.6658 13.5404L97.6071 13.5466ZM94.8432 9.46884C94.8851 9.46842 94.9254 9.45284 94.9566 9.42498C94.9879 9.39713 95.008 9.35889 95.0132 9.31735C95.0116 9.27833 94.9962 9.24113 94.97 9.21224C94.9143 9.16277 94.8865 9.12567 94.8865 9.10094C94.8865 9.07621 94.9081 9.06384 94.9638 9.06384C95.174 9.06384 95.3502 9.1875 95.3502 9.2617C95.3502 9.3359 95.2606 9.38227 95.2544 9.46884C96.1262 9.59868 96.5312 10.1521 96.5312 10.7055C96.5312 11.3238 96.0087 11.9421 95.0874 11.9421C94.1661 11.9421 93.6499 11.3083 93.6499 10.6838C93.6499 10.1335 94.0239 9.59868 94.8432 9.46884ZM93.9992 10.6807C93.9748 10.9002 94.0176 11.1219 94.1219 11.3166C94.2261 11.5113 94.387 11.6697 94.5832 11.771C94.7795 11.8723 95.0018 11.9117 95.2209 11.884C95.44 11.8562 95.6455 11.7627 95.8103 11.6157C95.9751 11.4687 96.0914 11.2751 96.1439 11.0606C96.1964 10.8461 96.1826 10.6207 96.1042 10.4142C96.0259 10.2078 95.8868 10.0299 95.7052 9.90415C95.5237 9.77841 95.3083 9.7107 95.0874 9.70998C94.9511 9.69673 94.8135 9.71185 94.6833 9.75439C94.5531 9.79693 94.4331 9.86597 94.3308 9.95716C94.2286 10.0483 94.1464 10.1597 94.0893 10.2842C94.0322 10.4088 94.0016 10.5438 93.9992 10.6807Z" fill="#001550"/>
<path d="M137.362 60.6678C137.01 60.6812 136.661 60.6001 136.351 60.4329C136.076 60.2746 135.859 60.0318 135.733 59.7404C135.583 59.3862 135.504 59.0059 135.501 58.6212L136.552 58.4141C136.56 58.6466 136.592 58.8777 136.648 59.1035C136.686 59.2749 136.769 59.433 136.889 59.5611C136.945 59.6164 137.012 59.6595 137.085 59.6877C137.159 59.7159 137.237 59.7286 137.316 59.7249C137.395 59.733 137.476 59.7208 137.549 59.6894C137.623 59.6581 137.687 59.6086 137.736 59.5456C137.824 59.4118 137.867 59.2539 137.86 59.0942C137.871 58.8393 137.802 58.5873 137.662 58.3739C137.509 58.1654 137.332 57.9764 137.133 57.8112L136.286 57.0662C136.058 56.8729 135.867 56.6405 135.72 56.3799C135.57 56.0945 135.496 55.7748 135.507 55.4524C135.491 55.2251 135.525 54.9971 135.605 54.7837C135.685 54.5704 135.81 54.3767 135.971 54.2158C136.322 53.914 136.776 53.76 137.238 53.786C137.509 53.7779 137.777 53.8274 138.027 53.9313C138.226 54.0189 138.399 54.1575 138.528 54.3332C138.654 54.5099 138.749 54.7078 138.806 54.9176C138.867 55.144 138.906 55.376 138.92 55.6101L137.878 55.7925C137.87 55.6023 137.846 55.4131 137.807 55.2267C137.781 55.0816 137.714 54.9468 137.616 54.8372C137.562 54.7876 137.498 54.7496 137.429 54.7257C137.36 54.7017 137.287 54.6923 137.214 54.698C137.135 54.693 137.057 54.7064 136.984 54.737C136.912 54.7675 136.847 54.8145 136.796 54.8743C136.698 55.0013 136.646 55.1587 136.651 55.3195C136.643 55.5158 136.692 55.7103 136.793 55.879C136.907 56.0475 137.043 56.1995 137.198 56.3304L138.036 57.0662C138.313 57.3002 138.551 57.5755 138.744 57.8824C138.947 58.224 139.049 58.6165 139.038 59.0139C139.043 59.3117 138.971 59.6058 138.827 59.8671C138.688 60.1121 138.483 60.3142 138.237 60.4514C137.969 60.5986 137.668 60.6732 137.362 60.6678Z" fill="#001550"/>
<path d="M140.625 60.6523C140.426 60.6582 140.232 60.5984 140.071 60.4823C139.917 60.3717 139.794 60.2238 139.713 60.0526C139.63 59.883 139.588 59.6969 139.589 59.5085C139.58 59.2626 139.631 59.0182 139.739 58.7971C139.847 58.576 140.008 58.3849 140.207 58.2409C140.398 58.0974 140.606 57.977 140.826 57.8823C141.057 57.7772 141.292 57.6875 141.527 57.6041V57.1898C141.529 57.0727 141.52 56.9558 141.5 56.8405C141.486 56.7591 141.448 56.6837 141.391 56.624C141.323 56.5688 141.235 56.5423 141.147 56.5498C141.066 56.5474 140.985 56.5712 140.918 56.6179C140.859 56.6653 140.816 56.7301 140.795 56.8033C140.768 56.8937 140.753 56.9873 140.751 57.0816L140.733 57.3722L139.666 57.3289C139.644 56.885 139.789 56.4489 140.074 56.1077C140.233 55.9666 140.419 55.8591 140.62 55.7916C140.821 55.7241 141.034 55.6981 141.246 55.7151C141.439 55.6975 141.634 55.724 141.816 55.7926C141.997 55.8611 142.161 55.9699 142.294 56.1108C142.527 56.4205 142.643 56.8027 142.622 57.1898V59.3972C142.622 59.5734 142.622 59.7341 142.622 59.8794C142.622 60.0248 142.643 60.1515 142.656 60.269C142.668 60.3865 142.681 60.4854 142.693 60.5781H141.682C141.682 60.4668 141.645 60.3401 141.62 60.201C141.595 60.0619 141.577 59.9567 141.568 59.8918C141.51 60.0912 141.404 60.273 141.258 60.4205C141.174 60.5002 141.074 60.5619 140.965 60.6017C140.856 60.6416 140.74 60.6588 140.625 60.6523ZM141.039 59.8145C141.11 59.814 141.18 59.7959 141.243 59.762C141.305 59.7257 141.362 59.6821 141.413 59.6321C141.454 59.5931 141.49 59.5483 141.518 59.4992V58.1605C141.398 58.2316 141.283 58.3028 141.175 58.377C141.072 58.4436 140.978 58.5225 140.894 58.6119C140.817 58.6936 140.756 58.7877 140.711 58.8901C140.669 59.0006 140.648 59.1181 140.649 59.2364C140.641 59.384 140.677 59.5307 140.754 59.6569C140.783 59.707 140.824 59.7483 140.874 59.7761C140.925 59.804 140.982 59.8173 141.039 59.8145Z" fill="#001550"/>
<path d="M143.508 60.5785V53.8667H144.627V60.5785H143.508Z" fill="#001550"/>
<path d="M146.292 60.6528C146.125 60.6593 145.961 60.608 145.828 60.5075C145.702 60.4073 145.61 60.2716 145.562 60.118C145.506 59.9517 145.478 59.7772 145.479 59.6017V55.7898H146.601V59.3976C146.594 59.5129 146.618 59.6279 146.669 59.7315C146.698 59.7735 146.737 59.8069 146.784 59.8282C146.83 59.8494 146.881 59.8577 146.932 59.8521C147.019 59.851 147.105 59.8288 147.182 59.7872C147.27 59.7398 147.354 59.6872 147.435 59.6295V55.7898H148.564V60.5786H147.435V60.1211C147.279 60.2738 147.101 60.4029 146.907 60.5044C146.716 60.6018 146.506 60.6526 146.292 60.6528Z" fill="#001550"/>
<path d="M150.827 60.6342C150.579 60.6461 150.332 60.594 150.11 60.4827C149.939 60.3893 149.808 60.2364 149.742 60.053C149.664 59.8381 149.627 59.6106 149.634 59.3821V56.5317H149.151V55.7867H149.634V54.3522H150.768V55.7867H151.498V56.5317H150.768V59.2832C150.762 59.3462 150.768 59.4099 150.787 59.4704C150.805 59.5309 150.836 59.5871 150.876 59.6356C150.963 59.7069 151.073 59.7433 151.186 59.7377C151.245 59.7408 151.305 59.7408 151.365 59.7377L151.544 59.7068V60.5693L151.217 60.6064C151.096 60.6342 150.963 60.6342 150.827 60.6342Z" fill="#001550"/>
<path d="M18 61.9511V53.8326H18.5503V57.4899H21.3976V53.8326H21.9386V61.9511H21.3976V57.9135H18.5503V61.9511H18Z" fill="#001550"/>
<path d="M24.6259 62.0407C24.3505 62.0483 24.0778 61.9844 23.8344 61.8552C23.5896 61.7005 23.4094 61.4621 23.3274 61.1844C23.1927 60.7377 23.1332 60.2717 23.1512 59.8055V58.2597C23.131 57.792 23.1928 57.3243 23.3336 56.8778C23.4178 56.6057 23.6024 56.3758 23.8499 56.2348C24.0943 56.1162 24.3636 56.0579 24.6351 56.0647C24.9372 56.0476 25.2366 56.129 25.4884 56.2966C25.7161 56.4831 25.8714 56.7434 25.9274 57.0324C26.026 57.4715 26.0706 57.9211 26.0603 58.371V58.9213H23.6829V59.8488C23.673 60.212 23.7051 60.5751 23.7788 60.9308C23.8168 61.1448 23.9257 61.3397 24.0879 61.4842C24.246 61.5948 24.4362 61.6502 24.629 61.6419C24.7718 61.642 24.9138 61.619 25.0494 61.5739C25.2047 61.5126 25.3308 61.3942 25.4018 61.2431C25.5104 60.9865 25.5581 60.7082 25.541 60.43V60.0003H26.0634V60.3805C26.0819 60.8032 25.9743 61.2218 25.7543 61.5832C25.5502 61.8861 25.1731 62.0407 24.6259 62.0407ZM23.6829 58.6029H25.5379V58.1608C25.5409 57.861 25.5223 57.5614 25.4822 57.2643C25.4616 57.0502 25.3764 56.8475 25.238 56.683C25.1554 56.607 25.0575 56.5494 24.9509 56.5142C24.8442 56.479 24.7313 56.467 24.6197 56.479C24.4324 56.4716 24.2469 56.5177 24.0848 56.6119C23.9229 56.7344 23.8126 56.9131 23.7757 57.1128C23.6968 57.4594 23.6625 57.8147 23.6737 58.1701L23.6829 58.6029Z" fill="#001550"/>
<path d="M26.5909 63.5061H26.4363C26.388 63.5109 26.3393 63.5109 26.291 63.5061V63.0764C26.331 63.0823 26.3716 63.0823 26.4116 63.0764H26.5476C26.7265 63.0918 26.9052 63.0461 27.0546 62.9465C27.1551 62.8637 27.2221 62.7473 27.2432 62.6188C27.2683 62.4853 27.2807 62.3497 27.2803 62.2138V56.1575H27.7842V62.2324C27.8047 62.4093 27.7877 62.5884 27.7345 62.7583C27.6812 62.9282 27.5928 63.085 27.4751 63.2186C27.2267 63.4216 26.9112 63.5242 26.5909 63.5061ZM27.2649 55.3969V54.4695H27.7842V55.3969H27.2649Z" fill="#001550"/>
</svg>
